<svg xmlns="http://www.w3.org/2000/svg" xmlns:xlink="http://www.w3.org/1999/xlink" x="0" y="0" width="662" height="444.828125" style="
        width:662px;
        height:444.828125px;
        background: transparent;
        fill: none;
">
        
        
        <svg xmlns="http://www.w3.org/2000/svg" class="role-diagram-draw-area"><g class="shapes-region" style="stroke: black; fill: none;"><g class="composite-shape"><path class="real" d=" M134.5,75.72 C134.5,72.61 137.02,70.09 140.14,70.09 L273.56,70.09 C276.68,70.09 279.2,72.61 279.2,75.72 L279.2,92.63 C279.2,95.74 276.68,98.26 273.56,98.26 L140.14,98.26 C137.02,98.26 134.5,95.74 134.5,92.63 Z" style="stroke-width: 1; stroke: rgb(0, 0, 0); fill: rgb(201, 201, 201); fill-opacity: 1;"/></g><g class="arrow-line"><path class="connection real" stroke-dasharray="" d="  M208.75,34.11 L209.23,67.65" style="stroke: rgb(0, 0, 0); stroke-width: 1; fill: none; fill-opacity: 1;"/><g stroke="#000" transform="matrix(-0.014311211306291994,-0.999897589371505,0.999897589371505,-0.014311211306291994,209.25682593856658,69.65264187866927)" style="stroke: rgb(0, 0, 0); stroke-width: 1;"><path d=" M10.93,-3.29 Q4.96,-0.45 0,0 Q4.96,0.45 10.93,3.29"/></g></g><g class="composite-shape"><path class="real" d=" M217.67,169.87 C217.67,166.76 220.19,164.24 223.3,164.24 L350.9,164.24 C354.01,164.24 356.53,166.76 356.53,169.87 L356.53,186.78 C356.53,189.89 354.01,192.41 350.9,192.41 L223.3,192.41 C220.19,192.41 217.67,189.89 217.67,186.78 Z" style="stroke-width: 1; stroke: rgb(0, 0, 0); fill: rgb(201, 201, 201); fill-opacity: 1;"/></g><g class="composite-shape"><path class="real" d=" M136.85,253.55 C136.85,250.67 139.18,248.33 142.06,248.33 L278.45,248.33 C281.33,248.33 283.67,250.67 283.67,253.55 L283.67,269.19 C283.67,272.07 281.33,274.41 278.45,274.41 L142.06,274.41 C139.18,274.41 136.85,272.07 136.85,269.19 Z" style="stroke-width: 1; stroke: rgb(0, 0, 0); fill: rgb(201, 201, 201); fill-opacity: 1;"/></g><g class="composite-shape"><path class="real" d=" M137.03,5.5 L283,5.5 L283,35.41 L137.03,35.41 Z" style="stroke-width: 1; stroke: rgb(0, 0, 0); fill: rgb(201, 201, 201); fill-opacity: 1;"/></g><g class="arrow-line"><path class="connection real" stroke-dasharray="" d="  M211.68,273.34 L212.16,304.24" style="stroke: rgb(0, 0, 0); stroke-width: 1; fill: none; fill-opacity: 1;"/><g stroke="#000" transform="matrix(-0.01570731731182077,-0.9998766324816606,0.9998766324816606,-0.01570731731182077,212.19220658623027,306.23618198796186)" style="stroke: rgb(0, 0, 0); stroke-width: 1;"><path d=" M10.93,-3.29 Q4.96,-0.45 0,0 Q4.96,0.45 10.93,3.29"/></g></g><g class="composite-shape"><path class="real" d=" M137.88,306.34 L281.42,306.34 L281.42,349.83 L137.88,349.83 Z" style="stroke-width: 1; stroke: rgb(0, 0, 0); fill: rgb(201, 201, 201); fill-opacity: 1;"/></g><g class="composite-shape"><path class="real" d=" M87.17,169.21 C87.17,166.09 89.69,163.57 92.8,163.57 L198.03,163.57 C201.14,163.57 203.67,166.09 203.67,169.21 L203.67,186.11 C203.67,189.22 201.14,191.75 198.03,191.75 L92.8,191.75 C89.69,191.75 87.17,189.22 87.17,186.11 Z" style="stroke-width: 1; stroke: rgb(0, 0, 0); fill: rgb(201, 201, 201); fill-opacity: 1;"/></g><g class="arrow-line"><path class="connection real" stroke-dasharray="" d="  M208.33,125.67 L291.85,164.16" style="stroke: rgb(0, 0, 0); stroke-width: 1; fill: none; fill-opacity: 1;"/><g stroke="#000" transform="matrix(-0.9081431738250813,-0.4186597375374282,0.4186597375374282,-0.9081431738250813,293.66666666666663,165)" style="stroke: rgb(0, 0, 0); stroke-width: 1;"><path d=" M10.93,-3.29 Q4.96,-0.45 0,0 Q4.96,0.45 10.93,3.29"/></g></g><g class="arrow-line"><path class="connection real" stroke-dasharray="" d="  M207,98.33 L208.24,123.67" style="stroke: rgb(0, 0, 0); stroke-width: 1; fill: none; fill-opacity: 1;"/><g stroke="#000" transform="matrix(-0.04867544449561712,-0.9988146480219211,0.9988146480219211,-0.04867544449561712,208.33333333333337,125.66666666666666)" style="stroke: rgb(0, 0, 0); stroke-width: 1;"><path d=" M10.93,-3.29 Q4.96,-0.45 0,0 Q4.96,0.45 10.93,3.29"/></g></g><g class="arrow-line"><path class="connection real" stroke-dasharray="" d="  M290.33,192.33 L211.55,220.98" style="stroke: rgb(0, 0, 0); stroke-width: 1; fill: none; fill-opacity: 1;"/><g stroke="#000" transform="matrix(0.9398119510863194,-0.341692107891484,0.341692107891484,0.9398119510863194,209.66666666666669,221.66666666666663)" style="stroke: rgb(0, 0, 0); stroke-width: 1;"><path d=" M10.93,-3.29 Q4.96,-0.45 0,0 Q4.96,0.45 10.93,3.29"/></g></g><g class="arrow-line"><path class="connection real" stroke-dasharray="" d="  M143.67,192.33 L207.84,220.85" style="stroke: rgb(0, 0, 0); stroke-width: 1; fill: none; fill-opacity: 1;"/><g stroke="#000" transform="matrix(-0.9138291907384629,-0.4060987689642581,0.4060987689642581,-0.9138291907384629,209.66666666666669,221.66666666666663)" style="stroke: rgb(0, 0, 0); stroke-width: 1;"><path d=" M10.93,-3.29 Q4.96,-0.45 0,0 Q4.96,0.45 10.93,3.29"/></g></g><g class="composite-shape"><path class="real" d=" M9.67,144.33 C9.67,133.66 18.32,125 29,125 L353.67,125 C364.34,125 373,133.66 373,144.33 L373,202.33 C373,213.01 364.34,221.67 353.67,221.67 L29,221.67 C18.32,221.67 9.67,213.01 9.67,202.33 Z" style="stroke-width: 1; stroke: rgb(0, 0, 0); fill: none; fill-opacity: 1;"/></g><g class="arrow-line"><path class="connection real" stroke-dasharray="" d="  M208.33,125.67 L148.7,162.61" style="stroke: rgb(0, 0, 0); stroke-width: 1; fill: none; fill-opacity: 1;"/><g stroke="#000" transform="matrix(0.8500765834775826,-0.5266590948830947,0.5266590948830947,0.8500765834775826,147.00000000000006,163.66666666666669)" style="stroke: rgb(0, 0, 0); stroke-width: 1;"><path d=" M10.93,-3.29 Q4.96,-0.45 0,0 Q4.96,0.45 10.93,3.29"/></g></g><g class="arrow-line"><path class="connection real" stroke-dasharray="" d="  M209.67,221.67 L209.67,248.33" style="stroke: rgb(0, 0, 0); stroke-width: 1; fill: none; fill-opacity: 1;"/><g stroke="#000" transform="matrix(-1.8369701987210297e-16,-1,1,-1.8369701987210297e-16,209.66666666666669,250.33333333333331)" style="stroke: rgb(0, 0, 0); stroke-width: 1;"><path d=" M10.93,-3.29 Q4.96,-0.45 0,0 Q4.96,0.45 10.93,3.29"/></g></g><g/></g><g/><g/><g/></svg>
        <svg xmlns="http://www.w3.org/2000/svg" xmlns:xlink="http://www.w3.org/1999/xlink" width="660" height="442.828125" style="width:660px;height:442.828125px;font-family:Asana-Math, Asana;background:transparent;"><g><g><g><text x="146.515625" y="9.5625" style="white-space:pre;stroke:none;fill:rgb(0,0,0);fill-opacity:1;font-size:15px;font-family:Arial, Helvetica, sans-serif;font-weight:400;font-style:normal;dominant-baseline:text-before-edge;text-decoration:none solid rgb(0, 0, 0);">Microscope frames</text></g></g></g><g><g><g><text x="156" y="74.578125" style="white-space:pre;stroke:none;fill:rgb(0,0,0);fill-opacity:1;font-size:15px;font-family:Arial, Helvetica, sans-serif;font-weight:400;font-style:normal;dominant-baseline:text-before-edge;text-decoration:none solid rgb(0, 0, 0);">Locate granules</text></g></g></g><g><g><g><text x="230.328125" y="168.734375" style="white-space:pre;stroke:none;fill:rgb(0,0,0);fill-opacity:1;font-size:15px;font-family:Arial, Helvetica, sans-serif;font-weight:400;font-style:normal;dominant-baseline:text-before-edge;text-decoration:none solid rgb(0, 0, 0);">Gradient Method</text></g></g></g><g><g><g><text x="143.359375" y="251.859375" style="white-space:pre;stroke:none;fill:rgb(0,0,0);fill-opacity:1;font-size:15px;font-family:Arial, Helvetica, sans-serif;font-weight:400;font-style:normal;dominant-baseline:text-before-edge;text-decoration:none solid rgb(0, 0, 0);">Fit granule to model</text></g></g></g><g><g><g><text x="150.859375" y="309.84375" style="white-space:pre;stroke:none;fill:rgb(0,0,0);fill-opacity:1;font-size:15px;font-family:Arial, Helvetica, sans-serif;font-weight:400;font-style:normal;dominant-baseline:text-before-edge;text-decoration:none solid rgb(0, 0, 0);">Surface tension &amp;</text></g></g><g><g><text x="150.859375" y="330.84375" style="white-space:pre;stroke:none;fill:rgb(0,0,0);fill-opacity:1;font-size:15px;font-family:Arial, Helvetica, sans-serif;font-weight:400;font-style:normal;dominant-baseline:text-before-edge;text-decoration:none solid rgb(0, 0, 0);">Bending rigidity</text></g></g></g><g><g><g><text x="109.34375" y="168.734375" style="white-space:pre;stroke:none;fill:rgb(0,0,0);fill-opacity:1;font-size:15px;font-family:Arial, Helvetica, sans-serif;font-weight:400;font-style:normal;dominant-baseline:text-before-edge;text-decoration:none solid rgb(0, 0, 0);">ML method</text></g></g></g><g><g><g><text x="22.328125" y="135.328125" style="white-space:pre;stroke:none;fill:rgb(0,0,0);fill-opacity:1;font-size:15px;font-family:Arial, Helvetica, sans-serif;font-weight:400;font-style:normal;dominant-baseline:text-before-edge;text-decoration:none solid rgb(0, 0, 0);">Draw boundaries</text></g></g></g></svg>
</svg>
