<svg xmlns="http://www.w3.org/2000/svg" xmlns:xlink="http://www.w3.org/1999/xlink" x="0" y="0" width="662" height="323.5" style="
        width:662px;
        height:323.5px;
        background: transparent;
        fill: none;
">
        
        
        <svg xmlns="http://www.w3.org/2000/svg" class="role-diagram-draw-area"><g class="shapes-region" style="stroke: black; fill: none;"><g class="composite-shape"><path class="real" d=" M16.5,75.72 C16.5,72.61 19.02,70.09 22.14,70.09 L155.56,70.09 C158.68,70.09 161.2,72.61 161.2,75.72 L161.2,92.63 C161.2,95.74 158.68,98.26 155.56,98.26 L22.14,98.26 C19.02,98.26 16.5,95.74 16.5,92.63 Z" style="stroke-width: 1; stroke: rgb(0, 0, 0); fill: rgb(201, 201, 201); fill-opacity: 1;"/></g><g class="arrow-line"><path class="connection real" stroke-dasharray="" d="  M90.75,34.11 L91.23,67.65" style="stroke: rgb(0, 0, 0); stroke-width: 1; fill: none; fill-opacity: 1;"/><g stroke="#000" transform="matrix(-0.014311211306291994,-0.999897589371505,0.999897589371505,-0.014311211306291994,91.25682593856656,69.65264187866929)" style="stroke: rgb(0, 0, 0); stroke-width: 1;"><path d=" M10.93,-3.29 Q4.96,-0.45 0,0 Q4.96,0.45 10.93,3.29"/></g></g><g class="composite-shape"><path class="real" d=" M16.5,139.87 C16.5,136.76 19.02,134.24 22.14,134.24 L155.56,134.24 C158.68,134.24 161.2,136.76 161.2,139.87 L161.2,156.78 C161.2,159.89 158.68,162.41 155.56,162.41 L22.14,162.41 C19.02,162.41 16.5,159.89 16.5,156.78 Z" style="stroke-width: 1; stroke: rgb(0, 0, 0); fill: rgb(201, 201, 201); fill-opacity: 1;"/></g><g class="arrow-line"><path class="connection real" stroke-dasharray="" d="  M90.75,98.26 L91.23,131.81" style="stroke: rgb(0, 0, 0); stroke-width: 1; fill: none; fill-opacity: 1;"/><g stroke="#000" transform="matrix(-0.014311211306291994,-0.999897589371505,0.999897589371505,-0.014311211306291994,91.25682593856656,133.80528375733854)" style="stroke: rgb(0, 0, 0); stroke-width: 1;"><path d=" M10.93,-3.29 Q4.96,-0.45 0,0 Q4.96,0.45 10.93,3.29"/></g></g><g class="composite-shape"><path class="real" d=" M17.51,204.46 C17.51,201.35 20.04,198.82 23.15,198.82 L156.58,198.82 C159.69,198.82 162.21,201.35 162.21,204.46 L162.21,221.36 C162.21,224.48 159.69,227 156.58,227 L23.15,227 C20.04,227 17.51,224.48 17.51,221.36 Z" style="stroke-width: 1; stroke: rgb(0, 0, 0); fill: rgb(201, 201, 201); fill-opacity: 1;"/></g><g class="arrow-line"><path class="connection real" stroke-dasharray="" d="  M91.76,162.85 L92.24,196.39" style="stroke: rgb(0, 0, 0); stroke-width: 1; fill: none; fill-opacity: 1;"/><g stroke="#000" transform="matrix(-0.014311211306291994,-0.999897589371505,0.999897589371505,-0.014311211306291994,92.27047781569966,198.3913894324853)" style="stroke: rgb(0, 0, 0); stroke-width: 1;"><path d=" M10.93,-3.29 Q4.96,-0.45 0,0 Q4.96,0.45 10.93,3.29"/></g></g><g class="composite-shape"><path class="real" d=" M19.03,5.5 L165,5.5 L165,35.41 L19.03,35.41 Z" style="stroke-width: 1; stroke: rgb(0, 0, 0); fill: rgb(201, 201, 201); fill-opacity: 1;"/></g><g class="arrow-line"><path class="connection real" stroke-dasharray="" d="  M91.26,225.85 L91.74,259.39" style="stroke: rgb(0, 0, 0); stroke-width: 1; fill: none; fill-opacity: 1;"/><g stroke="#000" transform="matrix(-0.014311211306291994,-0.999897589371505,0.999897589371505,-0.014311211306291994,91.77047781569968,261.3913894324853)" style="stroke: rgb(0, 0, 0); stroke-width: 1;"><path d=" M10.93,-3.29 Q4.96,-0.45 0,0 Q4.96,0.45 10.93,3.29"/></g></g><g class="composite-shape"><path class="real" d=" M18.53,261.5 L160,261.5 L160,308.5 L18.53,308.5 Z" style="stroke-width: 1; stroke: rgb(0, 0, 0); fill: rgb(201, 201, 201); fill-opacity: 1;"/></g><g/></g><g/><g/><g/></svg>
        <svg xmlns="http://www.w3.org/2000/svg" xmlns:xlink="http://www.w3.org/1999/xlink" width="660" height="321.5" style="width:660px;height:321.5px;font-family:Asana-Math, Asana;background:transparent;"><g><g><g><text x="28.515625" y="9.5625" style="white-space:pre;stroke:none;fill:rgb(0,0,0);fill-opacity:1;font-size:15px;font-family:Arial, Helvetica, sans-serif;font-weight:400;font-style:normal;dominant-baseline:text-before-edge;text-decoration:none solid rgb(0, 0, 0);">Microscope frames</text></g></g></g><g><g><g><text x="38" y="74.578125" style="white-space:pre;stroke:none;fill:rgb(0,0,0);fill-opacity:1;font-size:15px;font-family:Arial, Helvetica, sans-serif;font-weight:400;font-style:normal;dominant-baseline:text-before-edge;text-decoration:none solid rgb(0, 0, 0);">Locate granules</text></g></g></g><g><g><g><text x="35" y="138.734375" style="white-space:pre;stroke:none;fill:rgb(0,0,0);fill-opacity:1;font-size:15px;font-family:Arial, Helvetica, sans-serif;font-weight:400;font-style:normal;dominant-baseline:text-before-edge;text-decoration:none solid rgb(0, 0, 0);">Draw boundaries</text></g></g></g><g><g><g><text x="22.96875" y="203.328125" style="white-space:pre;stroke:none;fill:rgb(0,0,0);fill-opacity:1;font-size:15px;font-family:Arial, Helvetica, sans-serif;font-weight:400;font-style:normal;dominant-baseline:text-before-edge;text-decoration:none solid rgb(0, 0, 0);">Fit granule to model</text></g></g></g><g><g><g><text x="30.46875" y="266.828125" style="white-space:pre;stroke:none;fill:rgb(0,0,0);fill-opacity:1;font-size:15px;font-family:Arial, Helvetica, sans-serif;font-weight:400;font-style:normal;dominant-baseline:text-before-edge;text-decoration:none solid rgb(0, 0, 0);">Surface tension &amp;</text></g></g><g><g><text x="30.46875" y="287.828125" style="white-space:pre;stroke:none;fill:rgb(0,0,0);fill-opacity:1;font-size:15px;font-family:Arial, Helvetica, sans-serif;font-weight:400;font-style:normal;dominant-baseline:text-before-edge;text-decoration:none solid rgb(0, 0, 0);">Bending rigidity</text></g></g></g></svg>
</svg>
