<svg xmlns="http://www.w3.org/2000/svg" xmlns:xlink="http://www.w3.org/1999/xlink" x="0" y="0" width="662" height="302" style="
        width:662px;
        height:302px;
        background: transparent;
        fill: none;
">
        
        
        <svg xmlns="http://www.w3.org/2000/svg" class="role-diagram-draw-area"><g class="shapes-region" style="stroke: black; fill: none;"><g class="composite-shape"><path class="real" d=" M535.82,175.5 L619,259.5 L490.68,297.8 L407.5,213.8 Z" style="stroke-width: 1; stroke: none; fill: rgb(255, 255, 255); fill-opacity: 1;"/><path class="real" d=" M536.27,175.96 L407.95,214.26 M548.05,187.85 L419.73,226.15 M559.82,199.74 L431.51,238.04 M571.6,211.63 L443.28,249.93 M583.37,223.52 L455.06,261.83 M595.15,235.42 L466.83,273.72 M606.93,247.31 L478.61,285.61 M618.7,259.2 L490.39,297.5" style="stroke-width: 1; stroke: rgb(0, 0, 0); fill: none; fill-opacity: 1;"/><path class="real" d=" M535.12,175.71 L618.3,259.71 M516.94,181.14 L600.12,265.14 M498.76,186.56 L581.94,270.56 M480.58,191.99 L563.76,275.99 M462.4,197.42 L545.58,281.41 M444.22,202.84 L527.4,286.84 M426.04,208.27 L509.22,292.27 M407.86,213.69 L491.04,297.69" style="stroke-width: 1; stroke: rgb(0, 0, 0); fill: none; fill-opacity: 1;"/><path class="real" d=" " style="stroke-width: 1; stroke: rgb(0, 0, 0); fill: none; fill-opacity: 1;"/></g><g class="composite-shape"><path class="real" d=" M111.15,179.66 L180,260.5 L72.36,297.86 L3.51,217.02 Z" style="stroke-width: 1; stroke: none; fill: rgb(122, 185, 255); fill-opacity: 1;"/><path class="real" d=" M111.68,180.28 L4.03,217.63 M125.28,196.25 L17.63,233.61 M138.88,212.22 L31.24,249.58 M152.49,228.19 L44.84,265.55 M166.09,244.17 L58.45,281.53 M179.69,260.14 L72.05,297.5" style="stroke-width: 1; stroke: rgb(0, 0, 0); fill: none; fill-opacity: 1;"/><path class="real" d=" M110.33,179.94 L179.18,260.78 M89.06,187.33 L157.91,268.17 M67.79,194.71 L136.64,275.55 M46.52,202.09 L115.37,282.93 M25.25,209.47 L94.1,290.31 M3.98,216.86 L72.82,297.7" style="stroke-width: 1; stroke: rgb(0, 0, 0); fill: none; fill-opacity: 1;"/><path class="real" d=" " style="stroke-width: 1; stroke: rgb(0, 0, 0); fill: none; fill-opacity: 1;"/></g><g class="composite-shape"><path class="real" d=" M68.3,194.53 L109.48,242.88 L44.88,265.3 L3.7,216.95 Z" style="stroke-width: 1; stroke: none; fill: rgb(11, 113, 235); fill-opacity: 1;"/><path class="real" d=" M68.82,195.14 L4.22,217.56 M82.43,211.12 L17.83,233.54 M96.03,227.09 L31.43,249.51" style="stroke-width: 1; stroke: rgb(0, 0, 0); fill: none; fill-opacity: 1;"/><path class="real" d=" M67.48,194.81 L108.66,243.17 M46.21,202.2 L87.39,250.55 M24.94,209.58 L66.12,257.93" style="stroke-width: 1; stroke: rgb(0, 0, 0); fill: none; fill-opacity: 1;"/><path class="real" d=" " style="stroke-width: 1; stroke: rgb(0, 0, 0); fill: none; fill-opacity: 1;"/></g><g class="arrow-line"><path class="connection real" stroke-dasharray="" d="  M4.43,217.48 L30.59,118.03" style="stroke: rgb(0, 0, 0); stroke-width: 1; fill: none; fill-opacity: 1;"/></g><g class="arrow-line"><path class="connection real" stroke-dasharray="" d="  M68.01,195.42 L51.79,110.69" style="stroke: rgb(0, 0, 0); stroke-width: 1; fill: none; fill-opacity: 1;"/></g><g class="arrow-line"><path class="connection real" stroke-dasharray="" d="  M108.51,242.98 L65.29,126.54" style="stroke: rgb(0, 0, 0); stroke-width: 1; fill: none; fill-opacity: 1;"/></g><g class="arrow-line"><path class="connection real" stroke-dasharray="" d="  M44.93,265.04 L44.09,133.89" style="stroke: rgb(0, 0, 0); stroke-width: 1; fill: none; fill-opacity: 1;"/></g><g class="composite-shape"><path class="real" d=" M94.75,95.02 L136.17,143.66 L71.09,166.21 L29.67,117.57 Z" style="stroke-width: 1; stroke: none; fill: rgb(184, 233, 134); fill-opacity: 1;"/><path class="real" d=" M95.27,95.63 L30.19,118.18 M108.87,111.61 L43.8,134.16 M122.48,127.58 L57.4,150.13 M136.08,143.55 L71,166.1" style="stroke-width: 1; stroke: rgb(0, 0, 0); fill: none; fill-opacity: 1;"/><path class="real" d=" M93.93,95.3 L135.35,143.94 M72.65,102.68 L114.07,151.32 M51.37,110.05 L92.79,158.69 M30.09,117.42 L71.51,166.06" style="stroke-width: 1; stroke: rgb(0, 0, 0); fill: none; fill-opacity: 1;"/><path class="real" d=" " style="stroke-width: 1; stroke: rgb(0, 0, 0); fill: none; fill-opacity: 1;"/></g><g class="composite-shape"><path class="real" d=" M52.09,109.8 L66.34,126.53 L43.56,134.42 L29.31,117.69 Z" style="stroke-width: 1; stroke: none; fill: rgb(124, 219, 25); fill-opacity: 1;"/><path class="real" d=" M52.61,110.41 L29.83,118.3 M66.21,126.38 L43.44,134.28" style="stroke-width: 1; stroke: rgb(0, 0, 0); fill: none; fill-opacity: 1;"/><path class="real" d=" M51.27,110.08 L65.52,126.81 M29.99,117.45 L44.24,134.19" style="stroke-width: 1; stroke: rgb(0, 0, 0); fill: none; fill-opacity: 1;"/><path class="real" d=" " style="stroke-width: 1; stroke: rgb(0, 0, 0); fill: none; fill-opacity: 1;"/></g><g class="composite-shape"><path class="real" d=" M318.5,168.47 L388.5,253 L261.03,298.52 L191.03,213.98 Z" style="stroke-width: 1; stroke: none; fill: rgb(122, 185, 255); fill-opacity: 1;"/><path class="real" d=" M318.94,169 L191.47,214.52 M330.44,182.89 L202.97,228.4 M341.94,196.77 L214.47,242.29 M353.43,210.66 L225.97,256.17 M364.93,224.54 L237.46,270.06 M376.43,238.43 L248.96,283.94 M387.93,252.31 L260.46,297.83" style="stroke-width: 1; stroke: rgb(0, 0, 0); fill: none; fill-opacity: 1;"/><path class="real" d=" M317.8,168.72 L387.81,253.25 M299.74,175.17 L369.74,259.7 M281.67,181.62 L351.67,266.15 M263.6,188.07 L333.61,272.6 M245.54,194.52 L315.54,279.05 M227.47,200.97 L297.48,285.5 M209.41,207.42 L279.41,291.95 M191.34,213.87 L261.35,298.4" style="stroke-width: 1; stroke: rgb(0, 0, 0); fill: none; fill-opacity: 1;"/><path class="real" d=" " style="stroke-width: 1; stroke: rgb(0, 0, 0); fill: none; fill-opacity: 1;"/></g><g class="composite-shape"><path class="real" d=" M282.37,181.37 L294.19,195.65 L275.91,202.18 L264.08,187.9 Z" style="stroke-width: 1; stroke: none; fill: rgb(11, 113, 235); fill-opacity: 1;"/><path class="real" d=" M282.81,181.91 L264.52,188.43" style="stroke-width: 1; stroke: rgb(0, 0, 0); fill: none; fill-opacity: 1;"/><path class="real" d=" M281.67,181.62 L293.5,195.9" style="stroke-width: 1; stroke: rgb(0, 0, 0); fill: none; fill-opacity: 1;"/><path class="real" d=" " style="stroke-width: 1; stroke: rgb(0, 0, 0); fill: none; fill-opacity: 1;"/></g><g class="arrow-line"><path class="connection real" stroke-dasharray="" d="  M192.36,214.72 L226.63,126.75" style="stroke: rgb(0, 0, 0); stroke-width: 1; fill: none; fill-opacity: 1;"/></g><g class="arrow-line"><path class="connection real" stroke-dasharray="" d="  M280.75,182.64 L244.55,120.36" style="stroke: rgb(0, 0, 0); stroke-width: 1; fill: none; fill-opacity: 1;"/></g><g class="arrow-line"><path class="connection real" stroke-dasharray="" d="  M338.09,252.12 L256.05,134.24" style="stroke: rgb(0, 0, 0); stroke-width: 1; fill: none; fill-opacity: 1;"/></g><g class="composite-shape"><path class="real" d=" M280.85,106.73 L315.87,149.01 L260.86,168.62 L225.85,126.34 Z" style="stroke-width: 1; stroke: none; fill: rgb(184, 233, 134); fill-opacity: 1;"/><path class="real" d=" M281.29,107.26 L226.29,126.87 M292.79,121.15 L237.79,140.76 M304.29,135.03 L249.29,154.64 M315.79,148.92 L260.79,168.52" style="stroke-width: 1; stroke: rgb(0, 0, 0); fill: none; fill-opacity: 1;"/><path class="real" d=" M280.16,106.98 L315.17,149.26 M262.08,113.42 L297.1,155.7 M244.01,119.86 L279.03,162.14 M225.94,126.3 L260.95,168.58" style="stroke-width: 1; stroke: rgb(0, 0, 0); fill: none; fill-opacity: 1;"/><path class="real" d=" " style="stroke-width: 1; stroke: rgb(0, 0, 0); fill: none; fill-opacity: 1;"/></g><g class="composite-shape"><path class="real" d=" M244.8,119.58 L256.85,134.12 L237.59,140.98 L225.55,126.44 Z" style="stroke-width: 1; stroke: none; fill: rgb(124, 219, 25); fill-opacity: 1;"/><path class="real" d=" M245.24,120.11 L225.99,126.97 M256.74,133.99 L237.49,140.86" style="stroke-width: 1; stroke: rgb(0, 0, 0); fill: none; fill-opacity: 1;"/><path class="real" d=" M244.11,119.82 L256.15,134.37 M226.03,126.27 L238.08,140.81" style="stroke-width: 1; stroke: rgb(0, 0, 0); fill: none; fill-opacity: 1;"/><path class="real" d=" " style="stroke-width: 1; stroke: rgb(0, 0, 0); fill: none; fill-opacity: 1;"/></g><g class="composite-shape"><path class="real" d=" M210.1,207.17 L221.93,221.45 L203.65,227.98 L191.82,213.7 Z" style="stroke-width: 1; stroke: none; fill: rgb(11, 113, 235); fill-opacity: 1;"/><path class="real" d=" M210.55,207.71 L192.26,214.24" style="stroke-width: 1; stroke: rgb(0, 0, 0); fill: none; fill-opacity: 1;"/><path class="real" d=" M209.41,207.42 L221.23,221.7" style="stroke-width: 1; stroke: rgb(0, 0, 0); fill: none; fill-opacity: 1;"/><path class="real" d=" " style="stroke-width: 1; stroke: rgb(0, 0, 0); fill: none; fill-opacity: 1;"/></g><g class="composite-shape"><path class="real" d=" M246.23,194.27 L258.06,208.55 L239.78,215.08 L227.95,200.8 Z" style="stroke-width: 1; stroke: none; fill: rgb(11, 113, 235); fill-opacity: 1;"/><path class="real" d=" M246.68,194.81 L228.39,201.33" style="stroke-width: 1; stroke: rgb(0, 0, 0); fill: none; fill-opacity: 1;"/><path class="real" d=" M245.54,194.52 L257.37,208.8" style="stroke-width: 1; stroke: rgb(0, 0, 0); fill: none; fill-opacity: 1;"/><path class="real" d=" " style="stroke-width: 1; stroke: rgb(0, 0, 0); fill: none; fill-opacity: 1;"/></g><g class="composite-shape"><path class="real" d=" M233.1,234.94 L244.93,249.22 L226.64,255.75 L214.82,241.47 Z" style="stroke-width: 1; stroke: none; fill: rgb(11, 113, 235); fill-opacity: 1;"/><path class="real" d=" M233.54,235.48 L215.26,242" style="stroke-width: 1; stroke: rgb(0, 0, 0); fill: none; fill-opacity: 1;"/><path class="real" d=" M232.41,235.19 L244.23,249.47" style="stroke-width: 1; stroke: rgb(0, 0, 0); fill: none; fill-opacity: 1;"/><path class="real" d=" " style="stroke-width: 1; stroke: rgb(0, 0, 0); fill: none; fill-opacity: 1;"/></g><g class="composite-shape"><path class="real" d=" M269.23,222.04 L281.06,236.32 L262.78,242.85 L250.95,228.57 Z" style="stroke-width: 1; stroke: none; fill: rgb(11, 113, 235); fill-opacity: 1;"/><path class="real" d=" M269.67,222.58 L251.39,229.1" style="stroke-width: 1; stroke: rgb(0, 0, 0); fill: none; fill-opacity: 1;"/><path class="real" d=" M268.54,222.29 L280.36,236.57" style="stroke-width: 1; stroke: rgb(0, 0, 0); fill: none; fill-opacity: 1;"/><path class="real" d=" " style="stroke-width: 1; stroke: rgb(0, 0, 0); fill: none; fill-opacity: 1;"/></g><g class="composite-shape"><path class="real" d=" M305.36,209.14 L317.19,223.42 L298.91,229.95 L287.08,215.67 Z" style="stroke-width: 1; stroke: none; fill: rgb(11, 113, 235); fill-opacity: 1;"/><path class="real" d=" M305.8,209.67 L287.52,216.2" style="stroke-width: 1; stroke: rgb(0, 0, 0); fill: none; fill-opacity: 1;"/><path class="real" d=" M304.67,209.39 L316.49,223.67" style="stroke-width: 1; stroke: rgb(0, 0, 0); fill: none; fill-opacity: 1;"/><path class="real" d=" " style="stroke-width: 1; stroke: rgb(0, 0, 0); fill: none; fill-opacity: 1;"/></g><g class="composite-shape"><path class="real" d=" M256.1,262.71 L267.92,276.99 L249.64,283.52 L237.82,269.24 Z" style="stroke-width: 1; stroke: none; fill: rgb(11, 113, 235); fill-opacity: 1;"/><path class="real" d=" M256.54,263.25 L238.26,269.77" style="stroke-width: 1; stroke: rgb(0, 0, 0); fill: none; fill-opacity: 1;"/><path class="real" d=" M255.4,262.96 L267.23,277.24" style="stroke-width: 1; stroke: rgb(0, 0, 0); fill: none; fill-opacity: 1;"/><path class="real" d=" " style="stroke-width: 1; stroke: rgb(0, 0, 0); fill: none; fill-opacity: 1;"/></g><g class="composite-shape"><path class="real" d=" M292.23,249.81 L304.06,264.09 L285.77,270.62 L273.95,256.34 Z" style="stroke-width: 1; stroke: none; fill: rgb(11, 113, 235); fill-opacity: 1;"/><path class="real" d=" M292.67,250.35 L274.39,256.87" style="stroke-width: 1; stroke: rgb(0, 0, 0); fill: none; fill-opacity: 1;"/><path class="real" d=" M291.53,250.06 L303.36,264.34" style="stroke-width: 1; stroke: rgb(0, 0, 0); fill: none; fill-opacity: 1;"/><path class="real" d=" " style="stroke-width: 1; stroke: rgb(0, 0, 0); fill: none; fill-opacity: 1;"/></g><g class="composite-shape"><path class="real" d=" M328.36,236.91 L340.19,251.19 L321.9,257.72 L310.08,243.44 Z" style="stroke-width: 1; stroke: none; fill: rgb(11, 113, 235); fill-opacity: 1;"/><path class="real" d=" M328.8,237.44 L310.52,243.97" style="stroke-width: 1; stroke: rgb(0, 0, 0); fill: none; fill-opacity: 1;"/><path class="real" d=" M327.67,237.16 L339.49,251.44" style="stroke-width: 1; stroke: rgb(0, 0, 0); fill: none; fill-opacity: 1;"/><path class="real" d=" " style="stroke-width: 1; stroke: rgb(0, 0, 0); fill: none; fill-opacity: 1;"/></g><g class="arrow-line"><path class="connection real" stroke-dasharray="" d="  M249.41,285.5 L238.13,140.63" style="stroke: rgb(0, 0, 0); stroke-width: 1; fill: none; fill-opacity: 1;"/></g><g class="arrow-line"><path class="connection real" stroke-dasharray="" d="  M536.86,142.75 L588.05,252.94" style="stroke: rgb(0, 0, 0); stroke-width: 1; fill: none; fill-opacity: 1;"/></g><g class="arrow-line"><path class="connection real" stroke-dasharray="" d="  M525.08,130.86 L552.72,217.27" style="stroke: rgb(0, 0, 0); stroke-width: 1; fill: none; fill-opacity: 1;"/></g><g class="composite-shape"><path class="real" d=" M552.97,216.6 L588.46,252.44 L532.45,269.16 L496.97,233.32 Z" style="stroke-width: 1; stroke: none; fill: rgb(0, 0, 0); fill-opacity: 0.49;"/><path class="real" d=" M553.42,217.06 L497.42,233.78 M565.2,228.95 L509.19,245.67 M576.97,240.84 L520.97,257.56" style="stroke-width: 1; stroke: rgb(0, 0, 0); fill: none; fill-opacity: 0.49;"/><path class="real" d=" M552.27,216.81 L587.76,252.65 M534.09,222.24 L569.58,258.08 M515.91,227.66 L551.4,263.5 M497.73,233.09 L533.22,268.93" style="stroke-width: 1; stroke: rgb(0, 0, 0); fill: none; fill-opacity: 0.49;"/><path class="real" d=" " style="stroke-width: 1; stroke: rgb(0, 0, 0); fill: none; fill-opacity: 0.49;"/></g><g class="composite-shape"><path class="real" d=" M516.61,227.45 L528.88,239.85 L509.5,245.63 L497.23,233.24 Z" style="stroke-width: 1; stroke: none; fill: rgb(124, 219, 25); fill-opacity: 1;"/><path class="real" d=" M517.06,227.91 L497.68,233.7 M528.84,239.8 L509.46,245.59" style="stroke-width: 1; stroke: rgb(0, 0, 0); fill: none; fill-opacity: 1;"/><path class="real" d=" M515.91,227.66 L528.18,240.06 M497.73,233.09 L510,245.48" style="stroke-width: 1; stroke: rgb(0, 0, 0); fill: none; fill-opacity: 1;"/><path class="real" d=" " style="stroke-width: 1; stroke: rgb(0, 0, 0); fill: none; fill-opacity: 1;"/></g><g class="composite-shape"><path class="real" d=" M456.7,214.52 L468.97,226.92 L449.59,232.7 L437.32,220.31 Z" style="stroke-width: 1; stroke: none; fill: rgb(124, 219, 25); fill-opacity: 1;"/><path class="real" d=" M457.15,214.98 L437.77,220.77 M468.93,226.87 L449.55,232.66" style="stroke-width: 1; stroke: rgb(0, 0, 0); fill: none; fill-opacity: 1;"/><path class="real" d=" M456,214.73 L468.27,227.12 M437.82,220.16 L450.09,232.55" style="stroke-width: 1; stroke: rgb(0, 0, 0); fill: none; fill-opacity: 1;"/><path class="real" d=" " style="stroke-width: 1; stroke: rgb(0, 0, 0); fill: none; fill-opacity: 1;"/></g><g class="composite-shape"><path class="real" d=" M529.41,192.82 L541.69,205.21 L522.31,210.99 L510.04,198.6 Z" style="stroke-width: 1; stroke: none; fill: rgb(124, 219, 25); fill-opacity: 1;"/><path class="real" d=" M529.87,193.28 L510.49,199.06 M541.64,205.17 L522.26,210.95" style="stroke-width: 1; stroke: rgb(0, 0, 0); fill: none; fill-opacity: 1;"/><path class="real" d=" M528.72,193.03 L540.99,205.42 M510.54,198.45 L522.81,210.85" style="stroke-width: 1; stroke: rgb(0, 0, 0); fill: none; fill-opacity: 1;"/><path class="real" d=" " style="stroke-width: 1; stroke: rgb(0, 0, 0); fill: none; fill-opacity: 1;"/></g><g class="arrow-line"><path class="connection real" stroke-dasharray="" d="  M507.22,136.19 L498.17,232.97" style="stroke: rgb(0, 0, 0); stroke-width: 1; fill: none; fill-opacity: 1;"/></g><g class="arrow-line"><path class="connection real" stroke-dasharray="" d="  M518.68,148.18 L533.51,269.22" style="stroke: rgb(0, 0, 0); stroke-width: 1; fill: none; fill-opacity: 1;"/></g><g class="composite-shape"><path class="real" d=" M508.18,89.1 L568,149.5 L476.32,176.87 L416.5,116.46 Z" style="stroke-width: 1; stroke: none; fill: rgb(122, 185, 255); fill-opacity: 1;"/><path class="real" d=" M508.64,89.55 L416.96,116.92 M520.41,101.44 L428.73,128.81 M532.19,113.34 L440.51,140.7 M543.96,125.23 L452.29,152.59 M555.74,137.12 L464.06,164.48 M567.52,149.01 L475.84,176.38" style="stroke-width: 1; stroke: rgb(0, 0, 0); fill: none; fill-opacity: 1;"/><path class="real" d=" M507.48,89.3 L567.3,149.71 M489.3,94.73 L549.12,155.14 M471.12,100.16 L530.94,160.56 M452.95,105.58 L512.76,165.99 M434.77,111.01 L494.58,171.41 M416.59,116.44 L476.4,176.84" style="stroke-width: 1; stroke: rgb(0, 0, 0); fill: none; fill-opacity: 1;"/><path class="real" d=" " style="stroke-width: 1; stroke: rgb(0, 0, 0); fill: none; fill-opacity: 1;"/></g><g class="composite-shape"><path class="real" d=" M552.97,216.61 L565.15,228.91 L545.69,234.71 L533.51,222.41 Z" style="stroke-width: 1; stroke: none; fill: rgb(124, 219, 25); fill-opacity: 1;"/><path class="real" d=" M553.43,217.07 L533.96,222.87" style="stroke-width: 1; stroke: rgb(0, 0, 0); fill: none; fill-opacity: 1;"/><path class="real" d=" M552.27,216.82 L564.45,229.12 M534.09,222.24 L546.27,234.54" style="stroke-width: 1; stroke: rgb(0, 0, 0); fill: none; fill-opacity: 1;"/><path class="real" d=" " style="stroke-width: 1; stroke: rgb(0, 0, 0); fill: none; fill-opacity: 1;"/></g><g class="composite-shape"><path class="real" d=" M525.33,130.2 L537.6,142.59 L518.22,148.37 L505.95,135.98 Z" style="stroke-width: 1; stroke: none; fill: rgb(11, 113, 235); fill-opacity: 1;"/><path class="real" d=" M525.78,130.65 L506.41,136.44 M537.56,142.55 L518.18,148.33" style="stroke-width: 1; stroke: rgb(0, 0, 0); fill: none; fill-opacity: 1;"/><path class="real" d=" M524.63,130.41 L536.9,142.8 M506.45,135.83 L518.72,148.22" style="stroke-width: 1; stroke: rgb(0, 0, 0); fill: none; fill-opacity: 1;"/><path class="real" d=" " style="stroke-width: 1; stroke: rgb(0, 0, 0); fill: none; fill-opacity: 1;"/></g><g class="composite-shape"><path class="real" d=" M493.06,203.67 L505.33,216.06 L485.95,221.85 L473.68,209.46 Z" style="stroke-width: 1; stroke: none; fill: rgb(124, 219, 25); fill-opacity: 1;"/><path class="real" d=" M493.51,204.13 L474.13,209.91 M505.28,216.02 L485.91,221.8" style="stroke-width: 1; stroke: rgb(0, 0, 0); fill: none; fill-opacity: 1;"/><path class="real" d=" M492.36,203.88 L504.63,216.27 M474.18,209.31 L486.45,221.7" style="stroke-width: 1; stroke: rgb(0, 0, 0); fill: none; fill-opacity: 1;"/><path class="real" d=" " style="stroke-width: 1; stroke: rgb(0, 0, 0); fill: none; fill-opacity: 1;"/></g><g class="composite-shape"><path class="real" d=" M480.25,238.31 L492.52,250.7 L473.14,256.48 L460.87,244.09 Z" style="stroke-width: 1; stroke: none; fill: rgb(124, 219, 25); fill-opacity: 1;"/><path class="real" d=" M480.7,238.77 L461.32,244.55 M492.48,250.66 L473.1,256.44" style="stroke-width: 1; stroke: rgb(0, 0, 0); fill: none; fill-opacity: 1;"/><path class="real" d=" M479.55,238.52 L491.82,250.91 M461.37,243.94 L473.64,256.33" style="stroke-width: 1; stroke: rgb(0, 0, 0); fill: none; fill-opacity: 1;"/><path class="real" d=" " style="stroke-width: 1; stroke: rgb(0, 0, 0); fill: none; fill-opacity: 1;"/></g><g class="composite-shape"><path class="real" d=" M503.8,262.09 L516.07,274.48 L496.69,280.27 L484.42,267.88 Z" style="stroke-width: 1; stroke: none; fill: rgb(124, 219, 25); fill-opacity: 1;"/><path class="real" d=" M504.25,262.55 L484.87,268.33 M516.03,274.44 L496.65,280.22" style="stroke-width: 1; stroke: rgb(0, 0, 0); fill: none; fill-opacity: 1;"/><path class="real" d=" M503.1,262.3 L515.37,274.69 M484.92,267.73 L497.19,280.12" style="stroke-width: 1; stroke: rgb(0, 0, 0); fill: none; fill-opacity: 1;"/><path class="real" d=" " style="stroke-width: 1; stroke: rgb(0, 0, 0); fill: none; fill-opacity: 1;"/></g><g class="composite-shape"><path class="real" d=" M576.52,240.39 L588.7,252.69 L569.23,258.49 L557.05,246.19 Z" style="stroke-width: 1; stroke: none; fill: rgb(124, 219, 25); fill-opacity: 1;"/><path class="real" d=" M576.97,240.84 L557.5,246.64" style="stroke-width: 1; stroke: rgb(0, 0, 0); fill: none; fill-opacity: 1;"/><path class="real" d=" M575.82,240.59 L588,252.89 M557.63,246.01 L569.81,258.31" style="stroke-width: 1; stroke: rgb(0, 0, 0); fill: none; fill-opacity: 1;"/><path class="real" d=" " style="stroke-width: 1; stroke: rgb(0, 0, 0); fill: none; fill-opacity: 1;"/></g><g class="composite-shape"><path class="real" d=" M540.17,251.25 L552.35,263.55 L532.88,269.35 L520.7,257.05 Z" style="stroke-width: 1; stroke: none; fill: rgb(124, 219, 25); fill-opacity: 1;"/><path class="real" d=" M540.62,251.7 L521.15,257.5" style="stroke-width: 1; stroke: rgb(0, 0, 0); fill: none; fill-opacity: 1;"/><path class="real" d=" M539.47,251.45 L551.65,263.75 M521.28,256.87 L533.46,269.17" style="stroke-width: 1; stroke: rgb(0, 0, 0); fill: none; fill-opacity: 1;"/><path class="real" d=" " style="stroke-width: 1; stroke: rgb(0, 0, 0); fill: none; fill-opacity: 1;"/></g><g/></g><g/><g/><g/></svg>
        <svg xmlns="http://www.w3.org/2000/svg" xmlns:xlink="http://www.w3.org/1999/xlink" width="660" height="300" style="width:660px;height:300px;font-family:Asana-Math, Asana;background:transparent;"><g><g><g><text x="42.671875" y="68" style="white-space:pre;stroke:none;fill:rgb(0,0,0);fill-opacity:1;font-size:15px;font-family:Arial, Helvetica, sans-serif;font-weight:400;font-style:normal;dominant-baseline:text-before-edge;text-decoration:none solid rgb(0, 0, 0);">Convolution</text></g></g></g><g><g><g><text x="213.703125" y="60.546875" style="white-space:pre;stroke:none;fill:rgb(0,0,0);fill-opacity:1;font-size:15px;font-family:Arial, Helvetica, sans-serif;font-weight:400;font-style:normal;dominant-baseline:text-before-edge;text-decoration:none solid rgb(0, 0, 0);">Diluted / Atreous </text></g></g><g><g><text x="213.703125" y="81.546875" style="white-space:pre;stroke:none;fill:rgb(0,0,0);fill-opacity:1;font-size:15px;font-family:Arial, Helvetica, sans-serif;font-weight:400;font-style:normal;dominant-baseline:text-before-edge;text-decoration:none solid rgb(0, 0, 0);">Convolution</text></g></g></g><g><g><g><text x="430.171875" y="69.5" style="white-space:pre;stroke:none;fill:rgb(0,0,0);fill-opacity:1;font-size:15px;font-family:Arial, Helvetica, sans-serif;font-weight:400;font-style:normal;dominant-baseline:text-before-edge;text-decoration:none solid rgb(0, 0, 0);">Transpose Convolution</text></g></g></g><g><g><g><text x="11" y="53.5" style="white-space:pre;stroke:none;fill:rgb(0,0,0);fill-opacity:1;font-size:18px;font-family:Arial, Helvetica, sans-serif;font-weight:400;font-style:normal;dominant-baseline:text-before-edge;text-decoration:none solid rgb(0, 0, 0);">A</text></g></g></g><g><g><g><text x="180" y="51.5" style="white-space:pre;stroke:none;fill:rgb(0,0,0);fill-opacity:1;font-size:18px;font-family:Arial, Helvetica, sans-serif;font-weight:400;font-style:normal;dominant-baseline:text-before-edge;text-decoration:none solid rgb(0, 0, 0);">B</text></g></g></g><g><g><g><text x="410.5" y="52.5" style="white-space:pre;stroke:none;fill:rgb(0,0,0);fill-opacity:1;font-size:18px;font-family:Arial, Helvetica, sans-serif;font-weight:400;font-style:normal;dominant-baseline:text-before-edge;text-decoration:none solid rgb(0, 0, 0);">C</text></g></g></g></svg>
</svg>
