<svg xmlns="http://www.w3.org/2000/svg" xmlns:xlink="http://www.w3.org/1999/xlink" x="0" y="0" width="662" height="302" style="
        width:662px;
        height:302px;
        background: transparent;
        fill: none;
">
        
        
        <svg xmlns="http://www.w3.org/2000/svg" class="role-diagram-draw-area"><g class="shapes-region" style="stroke: black; fill: none;"><g class="arrow-line"><path class="connection real" stroke-dasharray="" d="  M90,154 L136,154" style="stroke: rgb(0, 0, 0); stroke-width: 1; fill: none; fill-opacity: 1;"/><g stroke="#000" transform="matrix(-1,1.2246467991473532e-16,-1.2246467991473532e-16,-1,137.99999999999997,154.00000000000003)" style="stroke: rgb(0, 0, 0); stroke-width: 1;"><path d=" M10.93,-3.29 Q4.96,-0.45 0,0 Q4.96,0.45 10.93,3.29"/></g></g><g class="composite-shape"><path class="real" d=" M92.22,133.12 L96.33,129 L108.56,129 L108.56,142.31 L104.44,146.43 L92.22,146.43 Z" style="stroke-width: 1; stroke: rgb(0, 0, 0); fill: rgb(255, 255, 255); fill-opacity: 1;"/><path class="real" d=" M108.56,129 L104.44,133.12 L92.22,133.12" style="stroke-width: 1; stroke: rgb(0, 0, 0); fill: none; fill-opacity: 1;"/><path class="real" d=" M104.44,133.12 L104.44,146.43" style="stroke-width: 1; stroke: rgb(0, 0, 0); fill: none; fill-opacity: 1;"/></g><g class="composite-shape"><path class="real" d=" M104.44,133.12 L108.56,129 L120.78,129 L120.78,142.31 L116.66,146.43 L104.44,146.43 Z" style="stroke-width: 1; stroke: rgb(0, 0, 0); fill: rgb(255, 255, 255); fill-opacity: 1;"/><path class="real" d=" M120.78,129 L116.66,133.12 L104.44,133.12" style="stroke-width: 1; stroke: rgb(0, 0, 0); fill: none; fill-opacity: 1;"/><path class="real" d=" M116.66,133.12 L116.66,146.43" style="stroke-width: 1; stroke: rgb(0, 0, 0); fill: none; fill-opacity: 1;"/></g><g class="composite-shape"><path class="real" d=" M116.66,133.12 L120.78,129 L133,129 L133,142.31 L128.88,146.43 L116.66,146.43 Z" style="stroke-width: 1; stroke: rgb(0, 0, 0); fill: rgb(255, 255, 255); fill-opacity: 1;"/><path class="real" d=" M133,129 L128.88,133.12 L116.66,133.12" style="stroke-width: 1; stroke: rgb(0, 0, 0); fill: none; fill-opacity: 1;"/><path class="real" d=" M128.88,133.12 L128.88,146.43" style="stroke-width: 1; stroke: rgb(0, 0, 0); fill: none; fill-opacity: 1;"/></g><g class="composite-shape"><path class="real" d=" M159.59,125.76 L163.02,123.22 L210.42,149.3 L210.06,197.79 L206.63,200.33 L159.23,174.25 Z" style="stroke-width: 1; stroke: rgb(0, 0, 0); fill: rgb(250, 255, 149); fill-opacity: 1;"/><path class="real" d=" M210.42,149.3 L206.99,151.84 L159.59,125.76" style="stroke-width: 1; stroke: rgb(0, 0, 0); fill: none; fill-opacity: 1;"/><path class="real" d=" M206.99,151.84 L206.63,200.33" style="stroke-width: 1; stroke: rgb(0, 0, 0); fill: none; fill-opacity: 1;"/></g><g class="composite-shape"><path class="real" d=" M155.69,128.04 L159.12,125.5 L206.52,151.58 L206.17,200.07 L202.74,202.61 L155.34,176.53 Z" style="stroke-width: 1; stroke: rgb(0, 0, 0); fill: rgb(255, 166, 166); fill-opacity: 1;"/><path class="real" d=" M206.52,151.58 L203.09,154.12 L155.69,128.04" style="stroke-width: 1; stroke: rgb(0, 0, 0); fill: none; fill-opacity: 1;"/><path class="real" d=" M203.09,154.12 L202.74,202.61" style="stroke-width: 1; stroke: rgb(0, 0, 0); fill: none; fill-opacity: 1;"/></g><g class="composite-shape"><path class="real" d=" M151.8,130.32 L155.23,127.78 L202.62,153.86 L202.27,202.35 L198.84,204.89 L151.44,178.81 Z" style="stroke-width: 1; stroke: rgb(0, 0, 0); fill: rgb(194, 255, 186); fill-opacity: 1;"/><path class="real" d=" M202.62,153.86 L199.19,156.4 L151.8,130.32" style="stroke-width: 1; stroke: rgb(0, 0, 0); fill: none; fill-opacity: 1;"/><path class="real" d=" M199.19,156.4 L198.84,204.89" style="stroke-width: 1; stroke: rgb(0, 0, 0); fill: none; fill-opacity: 1;"/></g><g class="composite-shape"><path class="real" d=" M292.09,68.76 L295.52,66.22 L342.92,92.3 L342.56,140.79 L339.13,143.33 L291.73,117.25 Z" style="stroke-width: 1; stroke: rgb(0, 0, 0); fill: rgb(194, 255, 186); fill-opacity: 1;"/><path class="real" d=" M342.92,92.3 L339.49,94.84 L292.09,68.76" style="stroke-width: 1; stroke: rgb(0, 0, 0); fill: none; fill-opacity: 1;"/><path class="real" d=" M339.49,94.84 L339.13,143.33" style="stroke-width: 1; stroke: rgb(0, 0, 0); fill: none; fill-opacity: 1;"/></g><g class="arrow-line"><path class="connection real" stroke-dasharray="" d="  M348,105 L424,104.51" style="stroke: rgb(0, 0, 0); stroke-width: 1; fill: none; fill-opacity: 1;"/><g stroke="#000" transform="matrix(-0.9999791490100767,0.006457673349044885,-0.006457673349044885,-0.9999791490100767,426.00000000000006,104.5)" style="stroke: rgb(0, 0, 0); stroke-width: 1;"><path d=" M10.93,-3.29 Q4.96,-0.45 0,0 Q4.96,0.45 10.93,3.29"/></g></g><g class="composite-shape"><path class="real" d=" M434.09,68.76 L437.52,66.22 L484.92,92.3 L484.56,140.79 L481.13,143.33 L433.73,117.25 Z" style="stroke-width: 1; stroke: rgb(0, 0, 0); fill: rgb(194, 255, 186); fill-opacity: 1;"/><path class="real" d=" M484.92,92.3 L481.49,94.84 L434.09,68.76" style="stroke-width: 1; stroke: rgb(0, 0, 0); fill: none; fill-opacity: 1;"/><path class="real" d=" M481.49,94.84 L481.13,143.33" style="stroke-width: 1; stroke: rgb(0, 0, 0); fill: none; fill-opacity: 1;"/></g><g class="composite-shape"><path class="real" d=" M367.37,85.95 L368.86,84.84 L375.74,87.62 L375.67,93.91 L374.18,95.03 L367.31,92.24 Z" style="stroke-width: 1; stroke: rgb(0, 0, 0); fill: rgb(255, 255, 255); fill-opacity: 1;"/><path class="real" d=" M375.74,87.62 L374.24,88.74 L367.37,85.95" style="stroke-width: 1; stroke: rgb(0, 0, 0); fill: none; fill-opacity: 1;"/><path class="real" d=" M374.24,88.74 L374.18,95.03" style="stroke-width: 1; stroke: rgb(0, 0, 0); fill: none; fill-opacity: 1;"/></g><g class="composite-shape"><path class="real" d=" M373.93,88.61 L375.42,87.5 L382.3,90.29 L382.23,96.57 L380.74,97.69 L373.87,94.9 Z" style="stroke-width: 1; stroke: rgb(0, 0, 0); fill: rgb(255, 255, 255); fill-opacity: 1;"/><path class="real" d=" M382.3,90.29 L380.8,91.4 L373.93,88.61" style="stroke-width: 1; stroke: rgb(0, 0, 0); fill: none; fill-opacity: 1;"/><path class="real" d=" M380.8,91.4 L380.74,97.69" style="stroke-width: 1; stroke: rgb(0, 0, 0); fill: none; fill-opacity: 1;"/></g><g class="composite-shape"><path class="real" d=" M380.49,91.28 L381.99,90.16 L388.86,92.95 L388.8,99.24 L387.3,100.35 L380.43,97.56 Z" style="stroke-width: 1; stroke: rgb(0, 0, 0); fill: rgb(255, 255, 255); fill-opacity: 1;"/><path class="real" d=" M388.86,92.95 L387.37,94.06 L380.49,91.28" style="stroke-width: 1; stroke: rgb(0, 0, 0); fill: none; fill-opacity: 1;"/><path class="real" d=" M387.37,94.06 L387.3,100.35" style="stroke-width: 1; stroke: rgb(0, 0, 0); fill: none; fill-opacity: 1;"/></g><g class="composite-shape"><path class="real" d=" M367.43,79.66 L368.93,78.55 L375.8,81.34 L375.74,87.62 L374.24,88.74 L367.37,85.95 Z" style="stroke-width: 1; stroke: rgb(0, 0, 0); fill: rgb(255, 255, 255); fill-opacity: 1;"/><path class="real" d=" M375.8,81.34 L374.31,82.45 L367.43,79.66" style="stroke-width: 1; stroke: rgb(0, 0, 0); fill: none; fill-opacity: 1;"/><path class="real" d=" M374.31,82.45 L374.24,88.74" style="stroke-width: 1; stroke: rgb(0, 0, 0); fill: none; fill-opacity: 1;"/></g><g class="composite-shape"><path class="real" d=" M373.99,82.33 L375.49,81.21 L382.36,84 L382.3,90.29 L380.8,91.4 L373.93,88.61 Z" style="stroke-width: 1; stroke: rgb(0, 0, 0); fill: rgb(255, 255, 255); fill-opacity: 1;"/><path class="real" d=" M382.36,84 L380.87,85.11 L373.99,82.33" style="stroke-width: 1; stroke: rgb(0, 0, 0); fill: none; fill-opacity: 1;"/><path class="real" d=" M380.87,85.11 L380.8,91.4" style="stroke-width: 1; stroke: rgb(0, 0, 0); fill: none; fill-opacity: 1;"/></g><g class="composite-shape"><path class="real" d=" M380.56,84.99 L382.05,83.87 L388.92,86.66 L388.86,92.95 L387.37,94.06 L380.49,91.27 Z" style="stroke-width: 1; stroke: rgb(0, 0, 0); fill: rgb(255, 255, 255); fill-opacity: 1;"/><path class="real" d=" M388.92,86.66 L387.43,87.77 L380.56,84.99" style="stroke-width: 1; stroke: rgb(0, 0, 0); fill: none; fill-opacity: 1;"/><path class="real" d=" M387.43,87.77 L387.37,94.06" style="stroke-width: 1; stroke: rgb(0, 0, 0); fill: none; fill-opacity: 1;"/></g><g class="composite-shape"><path class="real" d=" M367.49,73.38 L368.99,72.26 L375.86,75.05 L375.8,81.34 L374.3,82.45 L367.43,79.66 Z" style="stroke-width: 1; stroke: rgb(0, 0, 0); fill: rgb(255, 255, 255); fill-opacity: 1;"/><path class="real" d=" M375.86,75.05 L374.37,76.16 L367.49,73.38" style="stroke-width: 1; stroke: rgb(0, 0, 0); fill: none; fill-opacity: 1;"/><path class="real" d=" M374.37,76.16 L374.3,82.45" style="stroke-width: 1; stroke: rgb(0, 0, 0); fill: none; fill-opacity: 1;"/></g><g class="composite-shape"><path class="real" d=" M374.06,76.04 L375.55,74.92 L382.42,77.71 L382.36,84 L380.87,85.11 L373.99,82.32 Z" style="stroke-width: 1; stroke: rgb(0, 0, 0); fill: rgb(255, 255, 255); fill-opacity: 1;"/><path class="real" d=" M382.42,77.71 L380.93,78.82 L374.06,76.04" style="stroke-width: 1; stroke: rgb(0, 0, 0); fill: none; fill-opacity: 1;"/><path class="real" d=" M380.93,78.82 L380.87,85.11" style="stroke-width: 1; stroke: rgb(0, 0, 0); fill: none; fill-opacity: 1;"/></g><g class="composite-shape"><path class="real" d=" M380.62,78.7 L382.11,77.59 L388.99,80.37 L388.92,86.66 L387.43,87.77 L380.55,84.99 Z" style="stroke-width: 1; stroke: rgb(0, 0, 0); fill: rgb(255, 255, 255); fill-opacity: 1;"/><path class="real" d=" M388.99,80.37 L387.49,81.49 L380.62,78.7" style="stroke-width: 1; stroke: rgb(0, 0, 0); fill: none; fill-opacity: 1;"/><path class="real" d=" M387.49,81.49 L387.43,87.77" style="stroke-width: 1; stroke: rgb(0, 0, 0); fill: none; fill-opacity: 1;"/></g><g class="composite-shape"><path class="real" d=" M291.09,129.76 L294.52,127.22 L341.92,153.3 L341.56,201.79 L338.13,204.33 L290.73,178.25 Z" style="stroke-width: 1; stroke: rgb(0, 0, 0); fill: rgb(255, 166, 166); fill-opacity: 1;"/><path class="real" d=" M341.92,153.3 L338.49,155.84 L291.09,129.76" style="stroke-width: 1; stroke: rgb(0, 0, 0); fill: none; fill-opacity: 1;"/><path class="real" d=" M338.49,155.84 L338.13,204.33" style="stroke-width: 1; stroke: rgb(0, 0, 0); fill: none; fill-opacity: 1;"/></g><g class="arrow-line"><path class="connection real" stroke-dasharray="" d="  M347,166 L423,165.51" style="stroke: rgb(0, 0, 0); stroke-width: 1; fill: none; fill-opacity: 1;"/><g stroke="#000" transform="matrix(-0.9999791490100767,0.006457673349044885,-0.006457673349044885,-0.9999791490100767,425.00000000000006,165.5)" style="stroke: rgb(0, 0, 0); stroke-width: 1;"><path d=" M10.93,-3.29 Q4.96,-0.45 0,0 Q4.96,0.45 10.93,3.29"/></g></g><g class="composite-shape"><path class="real" d=" M433.09,129.76 L436.52,127.22 L483.92,153.3 L483.56,201.79 L480.13,204.33 L432.73,178.25 Z" style="stroke-width: 1; stroke: rgb(0, 0, 0); fill: rgb(255, 166, 166); fill-opacity: 1;"/><path class="real" d=" M483.92,153.3 L480.49,155.84 L433.09,129.76" style="stroke-width: 1; stroke: rgb(0, 0, 0); fill: none; fill-opacity: 1;"/><path class="real" d=" M480.49,155.84 L480.13,204.33" style="stroke-width: 1; stroke: rgb(0, 0, 0); fill: none; fill-opacity: 1;"/></g><g class="composite-shape"><path class="real" d=" M366.37,146.95 L367.86,145.84 L374.74,148.62 L374.67,154.91 L373.18,156.03 L366.31,153.24 Z" style="stroke-width: 1; stroke: rgb(0, 0, 0); fill: rgb(255, 255, 255); fill-opacity: 1;"/><path class="real" d=" M374.74,148.62 L373.24,149.74 L366.37,146.95" style="stroke-width: 1; stroke: rgb(0, 0, 0); fill: none; fill-opacity: 1;"/><path class="real" d=" M373.24,149.74 L373.18,156.03" style="stroke-width: 1; stroke: rgb(0, 0, 0); fill: none; fill-opacity: 1;"/></g><g class="composite-shape"><path class="real" d=" M372.93,149.61 L374.42,148.5 L381.3,151.29 L381.23,157.57 L379.74,158.69 L372.87,155.9 Z" style="stroke-width: 1; stroke: rgb(0, 0, 0); fill: rgb(255, 255, 255); fill-opacity: 1;"/><path class="real" d=" M381.3,151.29 L379.8,152.4 L372.93,149.61" style="stroke-width: 1; stroke: rgb(0, 0, 0); fill: none; fill-opacity: 1;"/><path class="real" d=" M379.8,152.4 L379.74,158.69" style="stroke-width: 1; stroke: rgb(0, 0, 0); fill: none; fill-opacity: 1;"/></g><g class="composite-shape"><path class="real" d=" M379.49,152.28 L380.99,151.16 L387.86,153.95 L387.8,160.24 L386.3,161.35 L379.43,158.56 Z" style="stroke-width: 1; stroke: rgb(0, 0, 0); fill: rgb(255, 255, 255); fill-opacity: 1;"/><path class="real" d=" M387.86,153.95 L386.37,155.06 L379.49,152.28" style="stroke-width: 1; stroke: rgb(0, 0, 0); fill: none; fill-opacity: 1;"/><path class="real" d=" M386.37,155.06 L386.3,161.35" style="stroke-width: 1; stroke: rgb(0, 0, 0); fill: none; fill-opacity: 1;"/></g><g class="composite-shape"><path class="real" d=" M366.43,140.66 L367.93,139.55 L374.8,142.34 L374.74,148.62 L373.24,149.74 L366.37,146.95 Z" style="stroke-width: 1; stroke: rgb(0, 0, 0); fill: rgb(255, 255, 255); fill-opacity: 1;"/><path class="real" d=" M374.8,142.34 L373.31,143.45 L366.43,140.66" style="stroke-width: 1; stroke: rgb(0, 0, 0); fill: none; fill-opacity: 1;"/><path class="real" d=" M373.31,143.45 L373.24,149.74" style="stroke-width: 1; stroke: rgb(0, 0, 0); fill: none; fill-opacity: 1;"/></g><g class="composite-shape"><path class="real" d=" M372.99,143.33 L374.49,142.21 L381.36,145 L381.3,151.29 L379.8,152.4 L372.93,149.61 Z" style="stroke-width: 1; stroke: rgb(0, 0, 0); fill: rgb(255, 255, 255); fill-opacity: 1;"/><path class="real" d=" M381.36,145 L379.87,146.11 L372.99,143.33" style="stroke-width: 1; stroke: rgb(0, 0, 0); fill: none; fill-opacity: 1;"/><path class="real" d=" M379.87,146.11 L379.8,152.4" style="stroke-width: 1; stroke: rgb(0, 0, 0); fill: none; fill-opacity: 1;"/></g><g class="composite-shape"><path class="real" d=" M379.56,145.99 L381.05,144.87 L387.92,147.66 L387.86,153.95 L386.37,155.06 L379.49,152.27 Z" style="stroke-width: 1; stroke: rgb(0, 0, 0); fill: rgb(255, 255, 255); fill-opacity: 1;"/><path class="real" d=" M387.92,147.66 L386.43,148.77 L379.56,145.99" style="stroke-width: 1; stroke: rgb(0, 0, 0); fill: none; fill-opacity: 1;"/><path class="real" d=" M386.43,148.77 L386.37,155.06" style="stroke-width: 1; stroke: rgb(0, 0, 0); fill: none; fill-opacity: 1;"/></g><g class="composite-shape"><path class="real" d=" M366.49,134.38 L367.99,133.26 L374.86,136.05 L374.8,142.34 L373.3,143.45 L366.43,140.66 Z" style="stroke-width: 1; stroke: rgb(0, 0, 0); fill: rgb(255, 255, 255); fill-opacity: 1;"/><path class="real" d=" M374.86,136.05 L373.37,137.16 L366.49,134.38" style="stroke-width: 1; stroke: rgb(0, 0, 0); fill: none; fill-opacity: 1;"/><path class="real" d=" M373.37,137.16 L373.3,143.45" style="stroke-width: 1; stroke: rgb(0, 0, 0); fill: none; fill-opacity: 1;"/></g><g class="composite-shape"><path class="real" d=" M373.06,137.04 L374.55,135.92 L381.42,138.71 L381.36,145 L379.87,146.11 L372.99,143.32 Z" style="stroke-width: 1; stroke: rgb(0, 0, 0); fill: rgb(255, 255, 255); fill-opacity: 1;"/><path class="real" d=" M381.42,138.71 L379.93,139.82 L373.06,137.04" style="stroke-width: 1; stroke: rgb(0, 0, 0); fill: none; fill-opacity: 1;"/><path class="real" d=" M379.93,139.82 L379.87,146.11" style="stroke-width: 1; stroke: rgb(0, 0, 0); fill: none; fill-opacity: 1;"/></g><g class="composite-shape"><path class="real" d=" M379.62,139.7 L381.11,138.59 L387.99,141.37 L387.92,147.66 L386.43,148.77 L379.55,145.99 Z" style="stroke-width: 1; stroke: rgb(0, 0, 0); fill: rgb(255, 255, 255); fill-opacity: 1;"/><path class="real" d=" M387.99,141.37 L386.49,142.49 L379.62,139.7" style="stroke-width: 1; stroke: rgb(0, 0, 0); fill: none; fill-opacity: 1;"/><path class="real" d=" M386.49,142.49 L386.43,148.77" style="stroke-width: 1; stroke: rgb(0, 0, 0); fill: none; fill-opacity: 1;"/></g><g class="composite-shape"><path class="real" d=" M291.59,191.76 L295.02,189.22 L342.42,215.3 L342.06,263.79 L338.63,266.33 L291.23,240.25 Z" style="stroke-width: 1; stroke: rgb(0, 0, 0); fill: rgb(250, 255, 149); fill-opacity: 1;"/><path class="real" d=" M342.42,215.3 L338.99,217.84 L291.59,191.76" style="stroke-width: 1; stroke: rgb(0, 0, 0); fill: none; fill-opacity: 1;"/><path class="real" d=" M338.99,217.84 L338.63,266.33" style="stroke-width: 1; stroke: rgb(0, 0, 0); fill: none; fill-opacity: 1;"/></g><g class="arrow-line"><path class="connection real" stroke-dasharray="" d="  M347.5,228 L423.5,227.51" style="stroke: rgb(0, 0, 0); stroke-width: 1; fill: none; fill-opacity: 1;"/><g stroke="#000" transform="matrix(-0.9999791490100767,0.006457673349044885,-0.006457673349044885,-0.9999791490100767,425.49999999999994,227.5)" style="stroke: rgb(0, 0, 0); stroke-width: 1;"><path d=" M10.93,-3.29 Q4.96,-0.45 0,0 Q4.96,0.45 10.93,3.29"/></g></g><g class="composite-shape"><path class="real" d=" M433.59,191.76 L437.02,189.22 L484.42,215.3 L484.06,263.79 L480.63,266.33 L433.23,240.25 Z" style="stroke-width: 1; stroke: rgb(0, 0, 0); fill: rgb(250, 255, 149); fill-opacity: 1;"/><path class="real" d=" M484.42,215.3 L480.99,217.84 L433.59,191.76" style="stroke-width: 1; stroke: rgb(0, 0, 0); fill: none; fill-opacity: 1;"/><path class="real" d=" M480.99,217.84 L480.63,266.33" style="stroke-width: 1; stroke: rgb(0, 0, 0); fill: none; fill-opacity: 1;"/></g><g class="composite-shape"><path class="real" d=" M366.87,208.95 L368.36,207.84 L375.24,210.62 L375.17,216.91 L373.68,218.03 L366.81,215.24 Z" style="stroke-width: 1; stroke: rgb(0, 0, 0); fill: rgb(255, 255, 255); fill-opacity: 1;"/><path class="real" d=" M375.24,210.62 L373.74,211.74 L366.87,208.95" style="stroke-width: 1; stroke: rgb(0, 0, 0); fill: none; fill-opacity: 1;"/><path class="real" d=" M373.74,211.74 L373.68,218.03" style="stroke-width: 1; stroke: rgb(0, 0, 0); fill: none; fill-opacity: 1;"/></g><g class="composite-shape"><path class="real" d=" M373.43,211.61 L374.92,210.5 L381.8,213.29 L381.73,219.57 L380.24,220.69 L373.37,217.9 Z" style="stroke-width: 1; stroke: rgb(0, 0, 0); fill: rgb(255, 255, 255); fill-opacity: 1;"/><path class="real" d=" M381.8,213.29 L380.3,214.4 L373.43,211.61" style="stroke-width: 1; stroke: rgb(0, 0, 0); fill: none; fill-opacity: 1;"/><path class="real" d=" M380.3,214.4 L380.24,220.69" style="stroke-width: 1; stroke: rgb(0, 0, 0); fill: none; fill-opacity: 1;"/></g><g class="composite-shape"><path class="real" d=" M379.99,214.28 L381.49,213.16 L388.36,215.95 L388.3,222.24 L386.8,223.35 L379.93,220.56 Z" style="stroke-width: 1; stroke: rgb(0, 0, 0); fill: rgb(255, 255, 255); fill-opacity: 1;"/><path class="real" d=" M388.36,215.95 L386.87,217.06 L379.99,214.28" style="stroke-width: 1; stroke: rgb(0, 0, 0); fill: none; fill-opacity: 1;"/><path class="real" d=" M386.87,217.06 L386.8,223.35" style="stroke-width: 1; stroke: rgb(0, 0, 0); fill: none; fill-opacity: 1;"/></g><g class="composite-shape"><path class="real" d=" M366.93,202.66 L368.43,201.55 L375.3,204.34 L375.24,210.62 L373.74,211.74 L366.87,208.95 Z" style="stroke-width: 1; stroke: rgb(0, 0, 0); fill: rgb(255, 255, 255); fill-opacity: 1;"/><path class="real" d=" M375.3,204.34 L373.81,205.45 L366.93,202.66" style="stroke-width: 1; stroke: rgb(0, 0, 0); fill: none; fill-opacity: 1;"/><path class="real" d=" M373.81,205.45 L373.74,211.74" style="stroke-width: 1; stroke: rgb(0, 0, 0); fill: none; fill-opacity: 1;"/></g><g class="composite-shape"><path class="real" d=" M373.49,205.33 L374.99,204.21 L381.86,207 L381.8,213.29 L380.3,214.4 L373.43,211.61 Z" style="stroke-width: 1; stroke: rgb(0, 0, 0); fill: rgb(255, 255, 255); fill-opacity: 1;"/><path class="real" d=" M381.86,207 L380.37,208.11 L373.49,205.33" style="stroke-width: 1; stroke: rgb(0, 0, 0); fill: none; fill-opacity: 1;"/><path class="real" d=" M380.37,208.11 L380.3,214.4" style="stroke-width: 1; stroke: rgb(0, 0, 0); fill: none; fill-opacity: 1;"/></g><g class="composite-shape"><path class="real" d=" M380.06,207.99 L381.55,206.87 L388.42,209.66 L388.36,215.95 L386.87,217.06 L379.99,214.27 Z" style="stroke-width: 1; stroke: rgb(0, 0, 0); fill: rgb(255, 255, 255); fill-opacity: 1;"/><path class="real" d=" M388.42,209.66 L386.93,210.77 L380.06,207.99" style="stroke-width: 1; stroke: rgb(0, 0, 0); fill: none; fill-opacity: 1;"/><path class="real" d=" M386.93,210.77 L386.87,217.06" style="stroke-width: 1; stroke: rgb(0, 0, 0); fill: none; fill-opacity: 1;"/></g><g class="composite-shape"><path class="real" d=" M366.99,196.38 L368.49,195.26 L375.36,198.05 L375.3,204.34 L373.8,205.45 L366.93,202.66 Z" style="stroke-width: 1; stroke: rgb(0, 0, 0); fill: rgb(255, 255, 255); fill-opacity: 1;"/><path class="real" d=" M375.36,198.05 L373.87,199.16 L366.99,196.38" style="stroke-width: 1; stroke: rgb(0, 0, 0); fill: none; fill-opacity: 1;"/><path class="real" d=" M373.87,199.16 L373.8,205.45" style="stroke-width: 1; stroke: rgb(0, 0, 0); fill: none; fill-opacity: 1;"/></g><g class="composite-shape"><path class="real" d=" M373.56,199.04 L375.05,197.92 L381.92,200.71 L381.86,207 L380.37,208.11 L373.49,205.32 Z" style="stroke-width: 1; stroke: rgb(0, 0, 0); fill: rgb(255, 255, 255); fill-opacity: 1;"/><path class="real" d=" M381.92,200.71 L380.43,201.82 L373.56,199.04" style="stroke-width: 1; stroke: rgb(0, 0, 0); fill: none; fill-opacity: 1;"/><path class="real" d=" M380.43,201.82 L380.37,208.11" style="stroke-width: 1; stroke: rgb(0, 0, 0); fill: none; fill-opacity: 1;"/></g><g class="composite-shape"><path class="real" d=" M380.12,201.7 L381.61,200.59 L388.49,203.37 L388.42,209.66 L386.93,210.77 L380.05,207.99 Z" style="stroke-width: 1; stroke: rgb(0, 0, 0); fill: rgb(255, 255, 255); fill-opacity: 1;"/><path class="real" d=" M388.49,203.37 L386.99,204.49 L380.12,201.7" style="stroke-width: 1; stroke: rgb(0, 0, 0); fill: none; fill-opacity: 1;"/><path class="real" d=" M386.99,204.49 L386.93,210.77" style="stroke-width: 1; stroke: rgb(0, 0, 0); fill: none; fill-opacity: 1;"/></g><g class="arrow-line"><path class="connection real" stroke-dasharray="" d="  M222.49,160.92 C272.49,161.49 223.01,96.32 284.11,95.99" style="stroke: rgb(0, 0, 0); stroke-width: 1; fill: none; fill-opacity: 1;"/><g stroke="#000" transform="matrix(-0.9998766324816606,-0.015707317311820464,0.015707317311820464,-0.9998766324816606,286,96)" style="stroke: rgb(0, 0, 0); stroke-width: 1;"><path d=" M10.93,-3.29 Q4.96,-0.45 0,0 Q4.96,0.45 10.93,3.29"/></g></g><g class="arrow-line"><path class="connection real" stroke-dasharray="" d="  M279,160.03 L222.49,160.92 L215,161" style="stroke: rgb(0, 0, 0); stroke-width: 1; fill: none; fill-opacity: 1;"/><g stroke="#000" transform="matrix(-0.9998766324816606,0.01570731731182071,-0.01570731731182071,-0.9998766324816606,281.00000000000006,160)" style="stroke: rgb(0, 0, 0); stroke-width: 1;"><path d=" M10.93,-3.29 Q4.96,-0.45 0,0 Q4.96,0.45 10.93,3.29"/></g></g><g class="arrow-line"><path class="connection real" stroke-dasharray="" d="  M222.49,160.92 C272.25,159.51 216.56,218.9 283.97,219.5" style="stroke: rgb(0, 0, 0); stroke-width: 1; fill: none; fill-opacity: 1;"/><g stroke="#000" transform="matrix(-1,1.2246467991473532e-16,-1.2246467991473532e-16,-1,285,219.50000000000003)" style="stroke: rgb(0, 0, 0); stroke-width: 1;"><path d=" M10.93,-3.29 Q4.96,-0.45 0,0 Q4.96,0.45 10.93,3.29"/></g></g><g class="composite-shape"><path class="real" d=" M573.09,126.26 L576.52,123.72 L623.92,149.8 L623.56,198.29 L620.13,200.83 L572.73,174.75 Z" style="stroke-width: 1; stroke: rgb(0, 0, 0); fill: rgb(250, 255, 149); fill-opacity: 1;"/><path class="real" d=" M623.92,149.8 L620.49,152.34 L573.09,126.26" style="stroke-width: 1; stroke: rgb(0, 0, 0); fill: none; fill-opacity: 1;"/><path class="real" d=" M620.49,152.34 L620.13,200.83" style="stroke-width: 1; stroke: rgb(0, 0, 0); fill: none; fill-opacity: 1;"/></g><g class="composite-shape"><path class="real" d=" M569.19,128.54 L572.62,126 L620.02,152.08 L619.67,200.57 L616.24,203.11 L568.84,177.03 Z" style="stroke-width: 1; stroke: rgb(0, 0, 0); fill: rgb(255, 166, 166); fill-opacity: 1;"/><path class="real" d=" M620.02,152.08 L616.59,154.62 L569.19,128.54" style="stroke-width: 1; stroke: rgb(0, 0, 0); fill: none; fill-opacity: 1;"/><path class="real" d=" M616.59,154.62 L616.24,203.11" style="stroke-width: 1; stroke: rgb(0, 0, 0); fill: none; fill-opacity: 1;"/></g><g class="composite-shape"><path class="real" d=" M565.3,130.82 L568.73,128.28 L616.12,154.36 L615.77,202.85 L612.34,205.39 L564.94,179.31 Z" style="stroke-width: 1; stroke: rgb(0, 0, 0); fill: rgb(194, 255, 186); fill-opacity: 1;"/><path class="real" d=" M616.12,154.36 L612.69,156.9 L565.3,130.82" style="stroke-width: 1; stroke: rgb(0, 0, 0); fill: none; fill-opacity: 1;"/><path class="real" d=" M612.69,156.9 L612.34,205.39" style="stroke-width: 1; stroke: rgb(0, 0, 0); fill: none; fill-opacity: 1;"/></g><g class="arrow-line"><path class="connection real" stroke-dasharray="" d="  M550.99,162.93 C500.48,162.6 551.81,228.85 487.8,228.16" style="stroke: rgb(0, 0, 0); stroke-width: 1; fill: none; fill-opacity: 1;"/></g><g class="arrow-line"><path class="connection real" stroke-dasharray="" d="  M492.49,164.14 L550.99,162.93 L556.48,162.85" style="stroke: rgb(0, 0, 0); stroke-width: 1; fill: none; fill-opacity: 1;"/><g stroke="#000" transform="matrix(-0.9998793586966922,0.015532805679965246,-0.015532805679965246,-0.9998793586966922,558.4836663776518,162.81538741277822)" style="stroke: rgb(0, 0, 0); stroke-width: 1;"><path d=" M10.93,-3.29 Q4.96,-0.45 0,0 Q4.96,0.45 10.93,3.29"/></g></g><g class="arrow-line"><path class="connection real" stroke-dasharray="" d="  M550.99,162.93 C500.99,164.6 557.2,104.32 488.2,104.66" style="stroke: rgb(0, 0, 0); stroke-width: 1; fill: none; fill-opacity: 1;"/></g><g class="composite-shape"><path class="real" d=" M30.62,108.5 L34.05,105.96 L81.45,132.04 L81.1,180.53 L77.67,183.07 L30.27,156.99 Z" style="stroke-width: 1; stroke: rgb(0, 0, 0); fill: rgb(250, 255, 149); fill-opacity: 1;"/><path class="real" d=" M81.45,132.04 L78.02,134.58 L30.62,108.5" style="stroke-width: 1; stroke: rgb(0, 0, 0); fill: none; fill-opacity: 1;"/><path class="real" d=" M78.02,134.58 L77.67,183.07" style="stroke-width: 1; stroke: rgb(0, 0, 0); fill: none; fill-opacity: 1;"/></g><g class="composite-shape"><path class="real" d=" M27.19,111.04 L30.62,108.5 L78.02,134.58 L77.67,183.07 L74.24,185.61 L26.84,159.53 Z" style="stroke-width: 1; stroke: rgb(0, 0, 0); fill: rgb(255, 166, 166); fill-opacity: 1;"/><path class="real" d=" M78.02,134.58 L74.59,137.12 L27.19,111.04" style="stroke-width: 1; stroke: rgb(0, 0, 0); fill: none; fill-opacity: 1;"/><path class="real" d=" M74.59,137.12 L74.24,185.61" style="stroke-width: 1; stroke: rgb(0, 0, 0); fill: none; fill-opacity: 1;"/></g><g class="composite-shape"><path class="real" d=" M23.3,113.32 L26.73,110.78 L74.12,136.86 L73.77,185.35 L70.34,187.89 L22.94,161.81 Z" style="stroke-width: 1; stroke: rgb(0, 0, 0); fill: rgb(194, 255, 186); fill-opacity: 1;"/><path class="real" d=" M74.12,136.86 L70.69,139.4 L23.3,113.32" style="stroke-width: 1; stroke: rgb(0, 0, 0); fill: none; fill-opacity: 1;"/><path class="real" d=" M70.69,139.4 L70.34,187.89" style="stroke-width: 1; stroke: rgb(0, 0, 0); fill: none; fill-opacity: 1;"/></g><g class="composite-shape"><path class="real" d=" M19.87,115.86 L23.3,113.32 L70.69,139.4 L70.34,187.89 L66.91,190.43 L19.51,164.35 Z" style="stroke-width: 1; stroke: rgb(0, 0, 0); fill: rgb(250, 255, 149); fill-opacity: 1;"/><path class="real" d=" M70.69,139.4 L67.27,141.94 L19.87,115.86" style="stroke-width: 1; stroke: rgb(0, 0, 0); fill: none; fill-opacity: 1;"/><path class="real" d=" M67.27,141.94 L66.91,190.43" style="stroke-width: 1; stroke: rgb(0, 0, 0); fill: none; fill-opacity: 1;"/></g><g class="composite-shape"><path class="real" d=" M16.44,118.4 L19.87,115.86 L67.27,141.94 L66.91,190.43 L63.48,192.97 L16.08,166.89 Z" style="stroke-width: 1; stroke: rgb(0, 0, 0); fill: rgb(255, 166, 166); fill-opacity: 1;"/><path class="real" d=" M67.27,141.94 L63.84,144.48 L16.44,118.4" style="stroke-width: 1; stroke: rgb(0, 0, 0); fill: none; fill-opacity: 1;"/><path class="real" d=" M63.84,144.48 L63.48,192.97" style="stroke-width: 1; stroke: rgb(0, 0, 0); fill: none; fill-opacity: 1;"/></g><g/></g><g/><g/><g/></svg>
        <svg xmlns="http://www.w3.org/2000/svg" xmlns:xlink="http://www.w3.org/1999/xlink" width="660" height="300" style="width:660px;height:300px;font-family:Asana-Math, Asana;background:transparent;"><g><g><g><text x="43.5" y="74.5" style="white-space:pre;stroke:none;fill:rgb(0,0,0);fill-opacity:1;font-size:15px;font-family:Arial, Helvetica, sans-serif;font-weight:400;font-style:normal;dominant-baseline:text-before-edge;text-decoration:none solid rgb(0, 0, 0);">Pointwise Convolution</text></g></g></g><g><g><g><g><g><g><g transform="matrix(1,0,0,1,87,119.1)"><path transform="matrix(0.0136,0,0,-0.0136,0,0)" d="M418 -3L418 27L366 30C311 33 301 44 301 96L301 700L60 598L67 548L217 614L217 96C217 44 206 33 152 30L96 27L96 -3C250 0 250 0 261 0C292 0 402 -3 418 -3Z" stroke="rgb(0,0,0)" stroke-opacity="1" stroke-width="0" fill="rgb(0,0,0)" fill-opacity="1"></path></g></g><g><g transform="matrix(1,0,0,1,96.515625,119.1)"><path transform="matrix(0.0136,0,0,-0.0136,0,0)" d="M611 37L376 271L611 505L568 547L335 313L101 547L59 505L293 271L59 37L101 -5L335 229L568 -5Z" stroke="rgb(0,0,0)" stroke-opacity="1" stroke-width="0" fill="rgb(0,0,0)" fill-opacity="1"></path></g></g><g><g transform="matrix(1,0,0,1,108.328125,119.1)"><path transform="matrix(0.0136,0,0,-0.0136,0,0)" d="M418 -3L418 27L366 30C311 33 301 44 301 96L301 700L60 598L67 548L217 614L217 96C217 44 206 33 152 30L96 27L96 -3C250 0 250 0 261 0C292 0 402 -3 418 -3Z" stroke="rgb(0,0,0)" stroke-opacity="1" stroke-width="0" fill="rgb(0,0,0)" fill-opacity="1"></path></g></g></g></g></g><g><text x="115.125" y="108.5" style="white-space:pre;stroke:none;fill:rgb(0,0,0);fill-opacity:1;font-size:12px;font-family:Arial, Helvetica, sans-serif;font-weight:400;font-style:normal;dominant-baseline:text-before-edge;text-decoration:none solid rgb(0, 0, 0);"> conv</text></g></g></g><g><g><g><g><g><g><g transform="matrix(1,0,0,1,350.5,67.928125)"><path transform="matrix(0.0136,0,0,-0.0136,0,0)" d="M24 388L31 368L63 389C100 412 103 414 110 414C121 414 128 404 128 389C128 338 87 145 46 2L53 -9C78 -2 101 4 123 8C142 134 163 199 209 268C263 352 338 414 383 414C394 414 400 405 400 390C400 372 397 351 389 319L337 107C328 70 324 47 324 31C324 6 335 -9 354 -9C380 -9 416 12 514 85L504 103L478 86C449 67 427 56 417 56C410 56 404 65 404 76C404 81 405 92 406 96L472 372C479 401 483 429 483 446C483 469 472 482 452 482C410 482 341 444 282 389C244 354 216 320 164 247L202 408C206 426 208 438 208 449C208 470 200 482 185 482C164 482 125 460 52 408Z" stroke="rgb(0,0,0)" stroke-opacity="1" stroke-width="0" fill="rgb(0,0,0)" fill-opacity="1"></path></g></g><g><g transform="matrix(1,0,0,1,360.78125,67.928125)"><path transform="matrix(0.0136,0,0,-0.0136,0,0)" d="M611 37L376 271L611 505L568 547L335 313L101 547L59 505L293 271L59 37L101 -5L335 229L568 -5Z" stroke="rgb(0,0,0)" stroke-opacity="1" stroke-width="0" fill="rgb(0,0,0)" fill-opacity="1"></path></g></g><g><g transform="matrix(1,0,0,1,372.59375,67.928125)"><path transform="matrix(0.0136,0,0,-0.0136,0,0)" d="M24 388L31 368L63 389C100 412 103 414 110 414C121 414 128 404 128 389C128 338 87 145 46 2L53 -9C78 -2 101 4 123 8C142 134 163 199 209 268C263 352 338 414 383 414C394 414 400 405 400 390C400 372 397 351 389 319L337 107C328 70 324 47 324 31C324 6 335 -9 354 -9C380 -9 416 12 514 85L504 103L478 86C449 67 427 56 417 56C410 56 404 65 404 76C404 81 405 92 406 96L472 372C479 401 483 429 483 446C483 469 472 482 452 482C410 482 341 444 282 389C244 354 216 320 164 247L202 408C206 426 208 438 208 449C208 470 200 482 185 482C164 482 125 460 52 408Z" stroke="rgb(0,0,0)" stroke-opacity="1" stroke-width="0" fill="rgb(0,0,0)" fill-opacity="1"></path></g></g></g></g></g><g><text x="380.15625" y="57.328125" style="white-space:pre;stroke:none;fill:rgb(0,0,0);fill-opacity:1;font-size:12px;font-family:Arial, Helvetica, sans-serif;font-weight:400;font-style:normal;dominant-baseline:text-before-edge;text-decoration:none solid rgb(0, 0, 0);"> conv</text></g></g></g><g><g><g><g><g><g><g transform="matrix(1,0,0,1,349.5,128.928125)"><path transform="matrix(0.0136,0,0,-0.0136,0,0)" d="M24 388L31 368L63 389C100 412 103 414 110 414C121 414 128 404 128 389C128 338 87 145 46 2L53 -9C78 -2 101 4 123 8C142 134 163 199 209 268C263 352 338 414 383 414C394 414 400 405 400 390C400 372 397 351 389 319L337 107C328 70 324 47 324 31C324 6 335 -9 354 -9C380 -9 416 12 514 85L504 103L478 86C449 67 427 56 417 56C410 56 404 65 404 76C404 81 405 92 406 96L472 372C479 401 483 429 483 446C483 469 472 482 452 482C410 482 341 444 282 389C244 354 216 320 164 247L202 408C206 426 208 438 208 449C208 470 200 482 185 482C164 482 125 460 52 408Z" stroke="rgb(0,0,0)" stroke-opacity="1" stroke-width="0" fill="rgb(0,0,0)" fill-opacity="1"></path></g></g><g><g transform="matrix(1,0,0,1,359.78125,128.928125)"><path transform="matrix(0.0136,0,0,-0.0136,0,0)" d="M611 37L376 271L611 505L568 547L335 313L101 547L59 505L293 271L59 37L101 -5L335 229L568 -5Z" stroke="rgb(0,0,0)" stroke-opacity="1" stroke-width="0" fill="rgb(0,0,0)" fill-opacity="1"></path></g></g><g><g transform="matrix(1,0,0,1,371.59375,128.928125)"><path transform="matrix(0.0136,0,0,-0.0136,0,0)" d="M24 388L31 368L63 389C100 412 103 414 110 414C121 414 128 404 128 389C128 338 87 145 46 2L53 -9C78 -2 101 4 123 8C142 134 163 199 209 268C263 352 338 414 383 414C394 414 400 405 400 390C400 372 397 351 389 319L337 107C328 70 324 47 324 31C324 6 335 -9 354 -9C380 -9 416 12 514 85L504 103L478 86C449 67 427 56 417 56C410 56 404 65 404 76C404 81 405 92 406 96L472 372C479 401 483 429 483 446C483 469 472 482 452 482C410 482 341 444 282 389C244 354 216 320 164 247L202 408C206 426 208 438 208 449C208 470 200 482 185 482C164 482 125 460 52 408Z" stroke="rgb(0,0,0)" stroke-opacity="1" stroke-width="0" fill="rgb(0,0,0)" fill-opacity="1"></path></g></g></g></g></g><g><text x="379.15625" y="118.328125" style="white-space:pre;stroke:none;fill:rgb(0,0,0);fill-opacity:1;font-size:12px;font-family:Arial, Helvetica, sans-serif;font-weight:400;font-style:normal;dominant-baseline:text-before-edge;text-decoration:none solid rgb(0, 0, 0);"> conv</text></g></g></g><g><g><g><g><g><g><g transform="matrix(1,0,0,1,350,190.928125)"><path transform="matrix(0.0136,0,0,-0.0136,0,0)" d="M24 388L31 368L63 389C100 412 103 414 110 414C121 414 128 404 128 389C128 338 87 145 46 2L53 -9C78 -2 101 4 123 8C142 134 163 199 209 268C263 352 338 414 383 414C394 414 400 405 400 390C400 372 397 351 389 319L337 107C328 70 324 47 324 31C324 6 335 -9 354 -9C380 -9 416 12 514 85L504 103L478 86C449 67 427 56 417 56C410 56 404 65 404 76C404 81 405 92 406 96L472 372C479 401 483 429 483 446C483 469 472 482 452 482C410 482 341 444 282 389C244 354 216 320 164 247L202 408C206 426 208 438 208 449C208 470 200 482 185 482C164 482 125 460 52 408Z" stroke="rgb(0,0,0)" stroke-opacity="1" stroke-width="0" fill="rgb(0,0,0)" fill-opacity="1"></path></g></g><g><g transform="matrix(1,0,0,1,360.28125,190.928125)"><path transform="matrix(0.0136,0,0,-0.0136,0,0)" d="M611 37L376 271L611 505L568 547L335 313L101 547L59 505L293 271L59 37L101 -5L335 229L568 -5Z" stroke="rgb(0,0,0)" stroke-opacity="1" stroke-width="0" fill="rgb(0,0,0)" fill-opacity="1"></path></g></g><g><g transform="matrix(1,0,0,1,372.09375,190.928125)"><path transform="matrix(0.0136,0,0,-0.0136,0,0)" d="M24 388L31 368L63 389C100 412 103 414 110 414C121 414 128 404 128 389C128 338 87 145 46 2L53 -9C78 -2 101 4 123 8C142 134 163 199 209 268C263 352 338 414 383 414C394 414 400 405 400 390C400 372 397 351 389 319L337 107C328 70 324 47 324 31C324 6 335 -9 354 -9C380 -9 416 12 514 85L504 103L478 86C449 67 427 56 417 56C410 56 404 65 404 76C404 81 405 92 406 96L472 372C479 401 483 429 483 446C483 469 472 482 452 482C410 482 341 444 282 389C244 354 216 320 164 247L202 408C206 426 208 438 208 449C208 470 200 482 185 482C164 482 125 460 52 408Z" stroke="rgb(0,0,0)" stroke-opacity="1" stroke-width="0" fill="rgb(0,0,0)" fill-opacity="1"></path></g></g></g></g></g><g><text x="379.65625" y="180.328125" style="white-space:pre;stroke:none;fill:rgb(0,0,0);fill-opacity:1;font-size:12px;font-family:Arial, Helvetica, sans-serif;font-weight:400;font-style:normal;dominant-baseline:text-before-edge;text-decoration:none solid rgb(0, 0, 0);"> conv</text></g></g></g><g><g><g><text x="309.5" y="31" style="white-space:pre;stroke:none;fill:rgb(0,0,0);fill-opacity:1;font-size:15px;font-family:Arial, Helvetica, sans-serif;font-weight:400;font-style:normal;dominant-baseline:text-before-edge;text-decoration:none solid rgb(0, 0, 0);">Depthwise Convolution</text></g></g></g></svg>
</svg>
