<svg xmlns="http://www.w3.org/2000/svg" xmlns:xlink="http://www.w3.org/1999/xlink" x="0" y="0" width="662" height="302" style="
        width:662px;
        height:302px;
        background: transparent;
        fill: none;
">
        
        
        <svg xmlns="http://www.w3.org/2000/svg" class="role-diagram-draw-area"><g class="shapes-region" style="stroke: black; fill: none;"><g class="composite-shape"><path class="real" d=" M19,22.5 C19,18.91 21.91,16 25.5,16 L155.25,16 C158.84,16 161.75,18.91 161.75,22.5 L161.75,42 C161.75,45.59 158.84,48.5 155.25,48.5 L25.5,48.5 C21.91,48.5 19,45.59 19,42 Z" style="stroke-width: 1; stroke: rgb(0, 0, 0); fill: rgb(201, 201, 201); fill-opacity: 1;"/></g><g class="composite-shape"><path class="real" d=" M17,97.5 C17,93.91 19.91,91 23.5,91 L153.25,91 C156.84,91 159.75,93.91 159.75,97.5 L159.75,117 C159.75,120.59 156.84,123.5 153.25,123.5 L23.5,123.5 C19.91,123.5 17,120.59 17,117 Z" style="stroke-width: 1; stroke: rgb(0, 0, 0); fill: rgb(201, 201, 201); fill-opacity: 1;"/></g><g class="arrow-line"><path class="connection real" stroke-dasharray="" d="  M90.25,49.5 L90.73,88.5" style="stroke: rgb(0, 0, 0); stroke-width: 1; fill: none; fill-opacity: 1;"/><g stroke="#000" transform="matrix(-0.012217000835247481,-0.999925369660452,0.999925369660452,-0.012217000835247481,90.75,90.49999999999999)" style="stroke: rgb(0, 0, 0); stroke-width: 1;"><path d=" M10.93,-3.29 Q4.96,-0.45 0,0 Q4.96,0.45 10.93,3.29"/></g></g><g class="composite-shape"><path class="real" d=" M17,171.5 C17,167.91 19.91,165 23.5,165 L153.25,165 C156.84,165 159.75,167.91 159.75,171.5 L159.75,191 C159.75,194.59 156.84,197.5 153.25,197.5 L23.5,197.5 C19.91,197.5 17,194.59 17,191 Z" style="stroke-width: 1; stroke: rgb(0, 0, 0); fill: rgb(201, 201, 201); fill-opacity: 1;"/></g><g class="arrow-line"><path class="connection real" stroke-dasharray="" d="  M90.25,123.5 L90.73,162.5" style="stroke: rgb(0, 0, 0); stroke-width: 1; fill: none; fill-opacity: 1;"/><g stroke="#000" transform="matrix(-0.012217000835247481,-0.999925369660452,0.999925369660452,-0.012217000835247481,90.75,164.5)" style="stroke: rgb(0, 0, 0); stroke-width: 1;"><path d=" M10.93,-3.29 Q4.96,-0.45 0,0 Q4.96,0.45 10.93,3.29"/></g></g><g class="composite-shape"><path class="real" d=" M18,246 C18,242.41 20.91,239.5 24.5,239.5 L154.25,239.5 C157.84,239.5 160.75,242.41 160.75,246 L160.75,265.5 C160.75,269.09 157.84,272 154.25,272 L24.5,272 C20.91,272 18,269.09 18,265.5 Z" style="stroke-width: 1; stroke: rgb(0, 0, 0); fill: rgb(201, 201, 201); fill-opacity: 1;"/></g><g class="arrow-line"><path class="connection real" stroke-dasharray="" d="  M91.25,198 L91.73,237" style="stroke: rgb(0, 0, 0); stroke-width: 1; fill: none; fill-opacity: 1;"/><g stroke="#000" transform="matrix(-0.012217000835247481,-0.999925369660452,0.999925369660452,-0.012217000835247481,91.75,239)" style="stroke: rgb(0, 0, 0); stroke-width: 1;"><path d=" M10.93,-3.29 Q4.96,-0.45 0,0 Q4.96,0.45 10.93,3.29"/></g></g><g/></g><g/><g/><g/></svg>
        <svg xmlns="http://www.w3.org/2000/svg" xmlns:xlink="http://www.w3.org/1999/xlink" width="660" height="300" style="width:660px;height:300px;font-family:Asana-Math, Asana;background:transparent;"><g><g><g><text x="28" y="22.5" style="white-space:pre;stroke:none;fill:rgb(0,0,0);fill-opacity:1;font-size:15px;font-family:Arial, Helvetica, sans-serif;font-weight:400;font-style:normal;dominant-baseline:text-before-edge;text-decoration:none solid rgb(0, 0, 0);">Microscope frames</text></g></g></g><g><g><g><text x="37.5" y="97.5" style="white-space:pre;stroke:none;fill:rgb(0,0,0);fill-opacity:1;font-size:15px;font-family:Arial, Helvetica, sans-serif;font-weight:400;font-style:normal;dominant-baseline:text-before-edge;text-decoration:none solid rgb(0, 0, 0);">Locate granules</text></g></g></g><g><g><g><text x="34.5" y="171.5" style="white-space:pre;stroke:none;fill:rgb(0,0,0);fill-opacity:1;font-size:15px;font-family:Arial, Helvetica, sans-serif;font-weight:400;font-style:normal;dominant-baseline:text-before-edge;text-decoration:none solid rgb(0, 0, 0);">Draw boundaries</text></g></g></g><g><g><g><text x="22.5" y="246" style="white-space:pre;stroke:none;fill:rgb(0,0,0);fill-opacity:1;font-size:15px;font-family:Arial, Helvetica, sans-serif;font-weight:400;font-style:normal;dominant-baseline:text-before-edge;text-decoration:none solid rgb(0, 0, 0);">Fit granule to model</text></g></g></g></svg>
</svg>
