<?xml version="1.0" encoding="utf-8" standalone="no"?>
<!DOCTYPE svg PUBLIC "-//W3C//DTD SVG 1.1//EN"
  "http://www.w3.org/Graphics/SVG/1.1/DTD/svg11.dtd">
<svg xmlns:xlink="http://www.w3.org/1999/xlink" width="872.39952pt" height="633.260697pt" viewBox="0 0 872.39952 633.260697" xmlns="http://www.w3.org/2000/svg" version="1.1">
 <metadata>
  <rdf:RDF xmlns:dc="http://purl.org/dc/elements/1.1/" xmlns:cc="http://creativecommons.org/ns#" xmlns:rdf="http://www.w3.org/1999/02/22-rdf-syntax-ns#">
   <cc:Work>
    <dc:type rdf:resource="http://purl.org/dc/dcmitype/StillImage"/>
    <dc:date>2024-07-22T11:58:17.486633</dc:date>
    <dc:format>image/svg+xml</dc:format>
    <dc:creator>
     <cc:Agent>
      <dc:title>Matplotlib v3.8.0, https://matplotlib.org/</dc:title>
     </cc:Agent>
    </dc:creator>
   </cc:Work>
  </rdf:RDF>
 </metadata>
 <defs>
  <style type="text/css">*{stroke-linejoin: round; stroke-linecap: butt}</style>
 </defs>
 <g id="figure_1">
  <g id="patch_1">
   <path d="M 0 633.260697 
L 872.39952 633.260697 
L 872.39952 0 
L 0 0 
z
" style="fill: #ffffff"/>
  </g>
  <g id="axes_1">
   <g id="patch_2">
    <path d="M 71.49375 291.548198 
L 285.645353 291.548198 
L 285.645353 56.061178 
L 71.49375 56.061178 
z
" style="fill: #ffffff"/>
   </g>
   <g id="matplotlib.axis_1">
    <g id="xtick_1">
     <g id="line2d_1">
      <defs>
       <path id="mf7d4906b23" d="M 0 0 
L 0 3.5 
" style="stroke: #000000; stroke-width: 0.8"/>
      </defs>
      <g>
       <use xlink:href="#mf7d4906b23" x="81.227914" y="291.548198" style="stroke: #000000; stroke-width: 0.8"/>
      </g>
     </g>
     <g id="text_1">
      <!-- 0 -->
      <g transform="translate(76.227914 312.426323) scale(0.2 -0.2)">
       <defs>
        <path id="Cmr10-30" d="M 1600 -141 
Q 816 -141 533 504 
Q 250 1150 250 2041 
Q 250 2597 351 3087 
Q 453 3578 754 3920 
Q 1056 4263 1600 4263 
Q 2022 4263 2290 4056 
Q 2559 3850 2700 3523 
Q 2841 3197 2892 2823 
Q 2944 2450 2944 2041 
Q 2944 1491 2842 1011 
Q 2741 531 2444 195 
Q 2147 -141 1600 -141 
z
M 1600 25 
Q 1956 25 2131 390 
Q 2306 756 2347 1200 
Q 2388 1644 2388 2144 
Q 2388 2625 2347 3031 
Q 2306 3438 2132 3767 
Q 1959 4097 1600 4097 
Q 1238 4097 1063 3765 
Q 888 3434 847 3029 
Q 806 2625 806 2144 
Q 806 1788 823 1472 
Q 841 1156 916 820 
Q 991 484 1158 254 
Q 1325 25 1600 25 
z
" transform="scale(0.015625)"/>
       </defs>
       <use xlink:href="#Cmr10-30"/>
      </g>
     </g>
    </g>
    <g id="xtick_2">
     <g id="line2d_2">
      <g>
       <use xlink:href="#mf7d4906b23" x="107.625646" y="291.548198" style="stroke: #000000; stroke-width: 0.8"/>
      </g>
     </g>
     <g id="text_2">
      <!-- 8 -->
      <g transform="translate(102.625646 312.426323) scale(0.2 -0.2)">
       <defs>
        <path id="Cmr10-38" d="M 269 972 
Q 269 1356 522 1651 
Q 775 1947 1172 2144 
L 934 2297 
Q 716 2441 578 2680 
Q 441 2919 441 3181 
Q 441 3488 602 3734 
Q 763 3981 1030 4122 
Q 1297 4263 1600 4263 
Q 1884 4263 2148 4147 
Q 2413 4031 2583 3815 
Q 2753 3600 2753 3303 
Q 2753 3088 2651 2903 
Q 2550 2719 2373 2572 
Q 2197 2425 1997 2322 
L 2363 2088 
Q 2616 1922 2770 1653 
Q 2925 1384 2925 1088 
Q 2925 741 2739 456 
Q 2553 172 2247 15 
Q 1941 -141 1600 -141 
Q 1269 -141 961 -6 
Q 653 128 461 383 
Q 269 638 269 972 
z
M 616 972 
Q 616 719 755 509 
Q 894 300 1122 181 
Q 1350 63 1600 63 
Q 1972 63 2275 280 
Q 2578 497 2578 856 
Q 2578 978 2529 1098 
Q 2481 1219 2395 1317 
Q 2309 1416 2203 1478 
L 1344 2034 
Q 1144 1928 976 1765 
Q 809 1603 712 1400 
Q 616 1197 616 972 
z
M 1056 2925 
L 1831 2425 
Q 2100 2581 2272 2803 
Q 2444 3025 2444 3303 
Q 2444 3519 2323 3698 
Q 2203 3878 2009 3978 
Q 1816 4078 1594 4078 
Q 1400 4078 1203 4003 
Q 1006 3928 878 3779 
Q 750 3631 750 3431 
Q 750 3131 1056 2925 
z
" transform="scale(0.015625)"/>
       </defs>
       <use xlink:href="#Cmr10-38"/>
      </g>
     </g>
    </g>
    <g id="xtick_3">
     <g id="line2d_3">
      <g>
       <use xlink:href="#mf7d4906b23" x="134.023378" y="291.548198" style="stroke: #000000; stroke-width: 0.8"/>
      </g>
     </g>
     <g id="text_3">
      <!-- 16 -->
      <g transform="translate(124.023378 312.426323) scale(0.2 -0.2)">
       <defs>
        <path id="Cmr10-31" d="M 594 0 
L 594 225 
Q 1394 225 1394 428 
L 1394 3788 
Q 1063 3628 556 3628 
L 556 3853 
Q 1341 3853 1741 4263 
L 1831 4263 
Q 1853 4263 1873 4245 
Q 1894 4228 1894 4206 
L 1894 428 
Q 1894 225 2694 225 
L 2694 0 
L 594 0 
z
" transform="scale(0.015625)"/>
        <path id="Cmr10-36" d="M 1600 -141 
Q 1203 -141 937 70 
Q 672 281 526 617 
Q 381 953 325 1322 
Q 269 1691 269 2069 
Q 269 2575 466 3084 
Q 663 3594 1045 3928 
Q 1428 4263 1953 4263 
Q 2172 4263 2361 4180 
Q 2550 4097 2658 3936 
Q 2766 3775 2766 3547 
Q 2766 3416 2677 3327 
Q 2588 3238 2456 3238 
Q 2331 3238 2240 3328 
Q 2150 3419 2150 3547 
Q 2150 3672 2240 3762 
Q 2331 3853 2456 3853 
L 2491 3853 
Q 2409 3969 2261 4023 
Q 2113 4078 1953 4078 
Q 1759 4078 1595 3993 
Q 1431 3909 1300 3765 
Q 1169 3622 1081 3448 
Q 994 3275 945 3053 
Q 897 2831 884 2637 
Q 872 2444 872 2150 
Q 984 2413 1190 2580 
Q 1397 2747 1656 2747 
Q 1941 2747 2175 2631 
Q 2409 2516 2578 2311 
Q 2747 2106 2836 1843 
Q 2925 1581 2925 1313 
Q 2925 938 2758 598 
Q 2591 259 2287 59 
Q 1984 -141 1600 -141 
z
M 1600 63 
Q 1847 63 1997 175 
Q 2147 288 2217 473 
Q 2288 659 2305 848 
Q 2322 1038 2322 1313 
Q 2322 1675 2287 1931 
Q 2253 2188 2100 2383 
Q 1947 2578 1631 2578 
Q 1372 2578 1205 2403 
Q 1038 2228 961 1961 
Q 884 1694 884 1447 
Q 884 1363 891 1319 
Q 891 1309 889 1303 
Q 888 1297 884 1288 
Q 884 1013 940 731 
Q 997 450 1156 256 
Q 1316 63 1600 63 
z
" transform="scale(0.015625)"/>
       </defs>
       <use xlink:href="#Cmr10-31"/>
       <use xlink:href="#Cmr10-36" x="50"/>
      </g>
     </g>
    </g>
    <g id="xtick_4">
     <g id="line2d_4">
      <g>
       <use xlink:href="#mf7d4906b23" x="160.421111" y="291.548198" style="stroke: #000000; stroke-width: 0.8"/>
      </g>
     </g>
     <g id="text_4">
      <!-- 24 -->
      <g transform="translate(150.421111 312.426323) scale(0.2 -0.2)">
       <defs>
        <path id="Cmr10-32" d="M 319 0 
L 319 172 
Q 319 188 331 206 
L 1325 1306 
Q 1550 1550 1690 1715 
Q 1831 1881 1968 2097 
Q 2106 2313 2186 2536 
Q 2266 2759 2266 3009 
Q 2266 3272 2169 3511 
Q 2072 3750 1880 3894 
Q 1688 4038 1416 4038 
Q 1138 4038 916 3870 
Q 694 3703 603 3438 
Q 628 3444 672 3444 
Q 816 3444 917 3347 
Q 1019 3250 1019 3097 
Q 1019 2950 917 2848 
Q 816 2747 672 2747 
Q 522 2747 420 2851 
Q 319 2956 319 3097 
Q 319 3338 409 3548 
Q 500 3759 670 3923 
Q 841 4088 1055 4175 
Q 1269 4263 1509 4263 
Q 1875 4263 2190 4108 
Q 2506 3953 2690 3670 
Q 2875 3388 2875 3009 
Q 2875 2731 2753 2481 
Q 2631 2231 2440 2026 
Q 2250 1822 1953 1562 
Q 1656 1303 1563 1216 
L 838 519 
L 1453 519 
Q 1906 519 2211 526 
Q 2516 534 2534 550 
Q 2609 631 2688 1141 
L 2875 1141 
L 2694 0 
L 319 0 
z
" transform="scale(0.015625)"/>
        <path id="Cmr10-34" d="M 178 1056 
L 178 1281 
L 2156 4231 
Q 2178 4263 2222 4263 
L 2316 4263 
Q 2388 4263 2388 4191 
L 2388 1281 
L 3016 1281 
L 3016 1056 
L 2388 1056 
L 2388 428 
Q 2388 297 2575 261 
Q 2763 225 3009 225 
L 3009 0 
L 1247 0 
L 1247 225 
Q 1494 225 1681 261 
Q 1869 297 1869 428 
L 1869 1056 
L 178 1056 
z
M 391 1281 
L 1906 1281 
L 1906 3547 
L 391 1281 
z
" transform="scale(0.015625)"/>
       </defs>
       <use xlink:href="#Cmr10-32"/>
       <use xlink:href="#Cmr10-34" x="50"/>
      </g>
     </g>
    </g>
    <g id="xtick_5">
     <g id="line2d_5">
      <g>
       <use xlink:href="#mf7d4906b23" x="186.818843" y="291.548198" style="stroke: #000000; stroke-width: 0.8"/>
      </g>
     </g>
     <g id="text_5">
      <!-- 32 -->
      <g transform="translate(176.818843 312.426323) scale(0.2 -0.2)">
       <defs>
        <path id="Cmr10-33" d="M 609 494 
Q 759 275 1012 169 
Q 1266 63 1556 63 
Q 1928 63 2084 380 
Q 2241 697 2241 1100 
Q 2241 1281 2208 1462 
Q 2175 1644 2097 1800 
Q 2019 1956 1883 2050 
Q 1747 2144 1550 2144 
L 1125 2144 
Q 1069 2144 1069 2203 
L 1069 2259 
Q 1069 2309 1125 2309 
L 1478 2338 
Q 1703 2338 1851 2506 
Q 2000 2675 2069 2917 
Q 2138 3159 2138 3378 
Q 2138 3684 1994 3881 
Q 1850 4078 1556 4078 
Q 1313 4078 1091 3986 
Q 869 3894 738 3706 
Q 750 3709 759 3711 
Q 769 3713 781 3713 
Q 925 3713 1022 3613 
Q 1119 3513 1119 3372 
Q 1119 3234 1022 3134 
Q 925 3034 781 3034 
Q 641 3034 541 3134 
Q 441 3234 441 3372 
Q 441 3647 606 3850 
Q 772 4053 1033 4158 
Q 1294 4263 1556 4263 
Q 1750 4263 1965 4205 
Q 2181 4147 2356 4039 
Q 2531 3931 2642 3762 
Q 2753 3594 2753 3378 
Q 2753 3109 2633 2881 
Q 2513 2653 2303 2487 
Q 2094 2322 1844 2241 
Q 2122 2188 2372 2031 
Q 2622 1875 2773 1631 
Q 2925 1388 2925 1106 
Q 2925 753 2731 467 
Q 2538 181 2222 20 
Q 1906 -141 1556 -141 
Q 1256 -141 954 -26 
Q 653 88 461 316 
Q 269 544 269 863 
Q 269 1022 375 1128 
Q 481 1234 641 1234 
Q 744 1234 830 1186 
Q 916 1138 964 1050 
Q 1013 963 1013 863 
Q 1013 706 903 600 
Q 794 494 641 494 
L 609 494 
z
" transform="scale(0.015625)"/>
       </defs>
       <use xlink:href="#Cmr10-33"/>
       <use xlink:href="#Cmr10-32" x="50"/>
      </g>
     </g>
    </g>
    <g id="xtick_6">
     <g id="line2d_6">
      <g>
       <use xlink:href="#mf7d4906b23" x="213.216575" y="291.548198" style="stroke: #000000; stroke-width: 0.8"/>
      </g>
     </g>
     <g id="text_6">
      <!-- 40 -->
      <g transform="translate(203.216575 312.426323) scale(0.2 -0.2)">
       <use xlink:href="#Cmr10-34"/>
       <use xlink:href="#Cmr10-30" x="50"/>
      </g>
     </g>
    </g>
    <g id="xtick_7">
     <g id="line2d_7">
      <g>
       <use xlink:href="#mf7d4906b23" x="239.614308" y="291.548198" style="stroke: #000000; stroke-width: 0.8"/>
      </g>
     </g>
     <g id="text_7">
      <!-- 48 -->
      <g transform="translate(229.614308 312.426323) scale(0.2 -0.2)">
       <use xlink:href="#Cmr10-34"/>
       <use xlink:href="#Cmr10-38" x="50"/>
      </g>
     </g>
    </g>
    <g id="xtick_8">
     <g id="line2d_8">
      <g>
       <use xlink:href="#mf7d4906b23" x="266.01204" y="291.548198" style="stroke: #000000; stroke-width: 0.8"/>
      </g>
     </g>
     <g id="text_8">
      <!-- 56 -->
      <g transform="translate(256.01204 312.426323) scale(0.2 -0.2)">
       <defs>
        <path id="Cmr10-35" d="M 556 728 
Q 622 541 758 387 
Q 894 234 1080 148 
Q 1266 63 1466 63 
Q 1928 63 2103 422 
Q 2278 781 2278 1294 
Q 2278 1516 2270 1667 
Q 2263 1819 2228 1959 
Q 2169 2184 2020 2353 
Q 1872 2522 1656 2522 
Q 1441 2522 1286 2456 
Q 1131 2391 1034 2303 
Q 938 2216 863 2119 
Q 788 2022 769 2016 
L 697 2016 
Q 681 2016 657 2036 
Q 634 2056 634 2075 
L 634 4213 
Q 634 4228 654 4245 
Q 675 4263 697 4263 
L 716 4263 
Q 1147 4056 1631 4056 
Q 2106 4056 2547 4263 
L 2566 4263 
Q 2588 4263 2606 4247 
Q 2625 4231 2625 4213 
L 2625 4153 
Q 2625 4122 2613 4122 
Q 2394 3831 2064 3668 
Q 1734 3506 1381 3506 
Q 1125 3506 856 3578 
L 856 2369 
Q 1069 2541 1236 2614 
Q 1403 2688 1663 2688 
Q 2016 2688 2295 2484 
Q 2575 2281 2725 1954 
Q 2875 1628 2875 1288 
Q 2875 903 2686 575 
Q 2497 247 2172 53 
Q 1847 -141 1466 -141 
Q 1150 -141 886 21 
Q 622 184 470 459 
Q 319 734 319 1044 
Q 319 1188 412 1278 
Q 506 1369 647 1369 
Q 788 1369 883 1276 
Q 978 1184 978 1044 
Q 978 906 883 811 
Q 788 716 647 716 
Q 625 716 597 720 
Q 569 725 556 728 
z
" transform="scale(0.015625)"/>
       </defs>
       <use xlink:href="#Cmr10-35"/>
       <use xlink:href="#Cmr10-36" x="50"/>
      </g>
     </g>
    </g>
    <g id="text_9">
     <!-- Epoch -->
     <g transform="translate(151.225802 334.182573) scale(0.2 -0.2)">
      <defs>
       <path id="Cmr10-45" d="M 197 0 
L 197 225 
Q 856 225 856 428 
L 856 3944 
Q 856 4147 197 4147 
L 197 4372 
L 3816 4372 
L 3994 2906 
L 3809 2906 
Q 3741 3459 3617 3709 
Q 3494 3959 3222 4053 
Q 2950 4147 2406 4147 
L 1778 4147 
Q 1663 4147 1598 4137 
Q 1534 4128 1493 4083 
Q 1453 4038 1453 3944 
L 1453 2381 
L 1925 2381 
Q 2250 2381 2411 2436 
Q 2572 2491 2633 2645 
Q 2694 2800 2694 3128 
L 2881 3128 
L 2881 1409 
L 2694 1409 
Q 2694 1734 2633 1890 
Q 2572 2047 2411 2101 
Q 2250 2156 1925 2156 
L 1453 2156 
L 1453 428 
Q 1453 291 1531 258 
Q 1609 225 1778 225 
L 2456 225 
Q 2900 225 3173 295 
Q 3447 366 3598 530 
Q 3750 694 3833 955 
Q 3916 1216 3988 1678 
L 4172 1678 
L 3903 0 
L 197 0 
z
" transform="scale(0.015625)"/>
       <path id="Cmr10-70" d="M 166 -1241 
L 166 -1019 
Q 384 -1019 525 -981 
Q 666 -944 666 -813 
L 666 2272 
Q 666 2447 541 2490 
Q 416 2534 166 2534 
L 166 2759 
L 1113 2828 
L 1113 2431 
Q 1288 2625 1520 2726 
Q 1753 2828 2016 2828 
Q 2394 2828 2697 2623 
Q 3000 2419 3170 2086 
Q 3341 1753 3341 1381 
Q 3341 994 3152 659 
Q 2963 325 2636 126 
Q 2309 -72 1919 -72 
Q 1453 -72 1131 306 
L 1131 -813 
Q 1131 -944 1273 -981 
Q 1416 -1019 1631 -1019 
L 1631 -1241 
L 166 -1241 
z
M 1131 622 
Q 1244 394 1444 245 
Q 1644 97 1881 97 
Q 2103 97 2273 215 
Q 2444 334 2559 534 
Q 2675 734 2729 954 
Q 2784 1175 2784 1381 
Q 2784 1638 2692 1936 
Q 2600 2234 2411 2439 
Q 2222 2644 1953 2644 
Q 1694 2644 1476 2511 
Q 1259 2378 1131 2150 
L 1131 622 
z
" transform="scale(0.015625)"/>
       <path id="Cmr10-6f" d="M 1600 -72 
Q 1216 -72 887 123 
Q 559 319 368 647 
Q 178 975 178 1363 
Q 178 1656 283 1928 
Q 388 2200 583 2414 
Q 778 2628 1037 2748 
Q 1297 2869 1600 2869 
Q 1994 2869 2317 2661 
Q 2641 2453 2828 2104 
Q 3016 1756 3016 1363 
Q 3016 978 2825 648 
Q 2634 319 2307 123 
Q 1981 -72 1600 -72 
z
M 1600 116 
Q 2113 116 2284 487 
Q 2456 859 2456 1434 
Q 2456 1756 2422 1967 
Q 2388 2178 2272 2350 
Q 2200 2456 2089 2536 
Q 1978 2616 1854 2658 
Q 1731 2700 1600 2700 
Q 1400 2700 1220 2609 
Q 1041 2519 922 2350 
Q 803 2169 770 1951 
Q 738 1734 738 1434 
Q 738 1075 800 789 
Q 863 503 1052 309 
Q 1241 116 1600 116 
z
" transform="scale(0.015625)"/>
       <path id="Cmr10-63" d="M 1594 -72 
Q 1206 -72 890 129 
Q 575 331 394 667 
Q 213 1003 213 1381 
Q 213 1759 392 2106 
Q 572 2453 889 2661 
Q 1206 2869 1594 2869 
Q 1969 2869 2276 2722 
Q 2584 2575 2584 2241 
Q 2584 2116 2495 2023 
Q 2406 1931 2278 1931 
Q 2150 1931 2061 2023 
Q 1972 2116 1972 2241 
Q 1972 2353 2044 2436 
Q 2116 2519 2222 2541 
Q 2000 2681 1600 2681 
Q 1294 2681 1106 2478 
Q 919 2275 844 1975 
Q 769 1675 769 1381 
Q 769 1072 861 783 
Q 953 494 1158 305 
Q 1363 116 1672 116 
Q 1975 116 2187 302 
Q 2400 488 2478 788 
Q 2478 825 2528 825 
L 2606 825 
Q 2625 825 2640 808 
Q 2656 791 2656 769 
L 2656 750 
Q 2559 372 2271 150 
Q 1984 -72 1594 -72 
z
" transform="scale(0.015625)"/>
       <path id="Cmr10-68" d="M 191 0 
L 191 225 
Q 409 225 550 259 
Q 691 294 691 428 
L 691 3788 
Q 691 3959 639 4036 
Q 588 4113 491 4130 
Q 394 4147 191 4147 
L 191 4372 
L 1141 4441 
L 1141 2241 
Q 1275 2506 1515 2667 
Q 1756 2828 2047 2828 
Q 2491 2828 2714 2615 
Q 2938 2403 2938 1966 
L 2938 428 
Q 2938 294 3078 259 
Q 3219 225 3438 225 
L 3438 0 
L 1972 0 
L 1972 225 
Q 2191 225 2331 259 
Q 2472 294 2472 428 
L 2472 1947 
Q 2472 2259 2381 2461 
Q 2291 2663 2009 2663 
Q 1638 2663 1398 2366 
Q 1159 2069 1159 1691 
L 1159 428 
Q 1159 294 1300 259 
Q 1441 225 1656 225 
L 1656 0 
L 191 0 
z
" transform="scale(0.015625)"/>
      </defs>
      <use xlink:href="#Cmr10-45"/>
      <use xlink:href="#Cmr10-70" x="68.017578"/>
      <use xlink:href="#Cmr10-6f" x="123.535156"/>
      <use xlink:href="#Cmr10-63" x="173.535156"/>
      <use xlink:href="#Cmr10-68" x="217.919922"/>
     </g>
    </g>
   </g>
   <g id="matplotlib.axis_2">
    <g id="ytick_1">
     <g id="line2d_9">
      <defs>
       <path id="m3deaf66d65" d="M 0 0 
L -3.5 0 
" style="stroke: #000000; stroke-width: 0.8"/>
      </defs>
      <g>
       <use xlink:href="#m3deaf66d65" x="71.49375" y="250.57017" style="stroke: #000000; stroke-width: 0.8"/>
      </g>
     </g>
     <g id="text_10">
      <!-- 0.02 -->
      <g transform="translate(28.95625 257.509233) scale(0.2 -0.2)">
       <defs>
        <path id="Cmr10-2e" d="M 538 353 
Q 538 497 644 600 
Q 750 703 891 703 
Q 978 703 1062 656 
Q 1147 609 1194 525 
Q 1241 441 1241 353 
Q 1241 213 1137 106 
Q 1034 0 891 0 
Q 750 0 644 106 
Q 538 213 538 353 
z
" transform="scale(0.015625)"/>
       </defs>
       <use xlink:href="#Cmr10-30"/>
       <use xlink:href="#Cmr10-2e" x="50"/>
       <use xlink:href="#Cmr10-30" x="77.685547"/>
       <use xlink:href="#Cmr10-32" x="127.685547"/>
      </g>
     </g>
    </g>
    <g id="ytick_2">
     <g id="line2d_10">
      <g>
       <use xlink:href="#m3deaf66d65" x="71.49375" y="195.56145" style="stroke: #000000; stroke-width: 0.8"/>
      </g>
     </g>
     <g id="text_11">
      <!-- 0.04 -->
      <g transform="translate(28.95625 202.500512) scale(0.2 -0.2)">
       <use xlink:href="#Cmr10-30"/>
       <use xlink:href="#Cmr10-2e" x="50"/>
       <use xlink:href="#Cmr10-30" x="77.685547"/>
       <use xlink:href="#Cmr10-34" x="127.685547"/>
      </g>
     </g>
    </g>
    <g id="ytick_3">
     <g id="line2d_11">
      <g>
       <use xlink:href="#m3deaf66d65" x="71.49375" y="140.55273" style="stroke: #000000; stroke-width: 0.8"/>
      </g>
     </g>
     <g id="text_12">
      <!-- 0.06 -->
      <g transform="translate(28.95625 147.491792) scale(0.2 -0.2)">
       <use xlink:href="#Cmr10-30"/>
       <use xlink:href="#Cmr10-2e" x="50"/>
       <use xlink:href="#Cmr10-30" x="77.685547"/>
       <use xlink:href="#Cmr10-36" x="127.685547"/>
      </g>
     </g>
    </g>
    <g id="ytick_4">
     <g id="line2d_12">
      <g>
       <use xlink:href="#m3deaf66d65" x="71.49375" y="85.544009" style="stroke: #000000; stroke-width: 0.8"/>
      </g>
     </g>
     <g id="text_13">
      <!-- 0.08 -->
      <g transform="translate(28.95625 92.483072) scale(0.2 -0.2)">
       <use xlink:href="#Cmr10-30"/>
       <use xlink:href="#Cmr10-2e" x="50"/>
       <use xlink:href="#Cmr10-30" x="77.685547"/>
       <use xlink:href="#Cmr10-38" x="127.685547"/>
      </g>
     </g>
    </g>
    <g id="text_14">
     <!-- Loss -->
     <g transform="translate(21.078125 192.935938) rotate(-90) scale(0.2 -0.2)">
      <defs>
       <path id="Cmr10-4c" d="M 197 0 
L 197 225 
Q 856 225 856 428 
L 856 3944 
Q 856 4147 197 4147 
L 197 4372 
L 2272 4372 
L 2272 4147 
Q 1453 4147 1453 3944 
L 1453 428 
Q 1453 291 1531 258 
Q 1609 225 1778 225 
L 2272 225 
Q 2750 225 3009 400 
Q 3269 575 3376 876 
Q 3484 1178 3541 1678 
L 3725 1678 
L 3547 0 
L 197 0 
z
" transform="scale(0.015625)"/>
       <path id="Cmr10-73" d="M 213 -19 
L 213 1025 
Q 213 1075 269 1075 
L 347 1075 
Q 384 1075 397 1025 
Q 575 97 1259 97 
Q 1563 97 1767 234 
Q 1972 372 1972 659 
Q 1972 866 1812 1011 
Q 1653 1156 1434 1209 
L 1006 1294 
Q 791 1341 614 1437 
Q 438 1534 325 1695 
Q 213 1856 213 2069 
Q 213 2350 361 2529 
Q 509 2709 746 2789 
Q 984 2869 1259 2869 
Q 1588 2869 1831 2694 
L 2016 2853 
Q 2016 2869 2047 2869 
L 2094 2869 
Q 2113 2869 2128 2851 
Q 2144 2834 2144 2816 
L 2144 1978 
Q 2144 1919 2094 1919 
L 2016 1919 
Q 1959 1919 1959 1978 
Q 1959 2313 1773 2516 
Q 1588 2719 1253 2719 
Q 966 2719 755 2612 
Q 544 2506 544 2247 
Q 544 2069 695 1955 
Q 847 1841 1050 1791 
L 1484 1709 
Q 1703 1659 1892 1540 
Q 2081 1422 2192 1240 
Q 2303 1059 2303 831 
Q 2303 600 2223 429 
Q 2144 259 2001 146 
Q 1859 34 1665 -19 
Q 1472 -72 1259 -72 
Q 859 -72 575 197 
L 341 -56 
Q 341 -72 306 -72 
L 269 -72 
Q 213 -72 213 -19 
z
" transform="scale(0.015625)"/>
      </defs>
      <use xlink:href="#Cmr10-4c"/>
      <use xlink:href="#Cmr10-6f" x="62.5"/>
      <use xlink:href="#Cmr10-73" x="112.5"/>
      <use xlink:href="#Cmr10-73" x="151.904297"/>
     </g>
    </g>
   </g>
   <g id="line2d_13">
    <path d="M 81.227914 66.765133 
L 84.52763 163.935554 
L 87.827347 186.815711 
L 91.127063 201.923969 
L 94.42678 208.975711 
L 97.726496 217.413871 
L 101.026213 223.239766 
L 104.32593 226.640304 
L 107.625646 230.505581 
L 110.925363 241.875234 
L 114.225079 244.197678 
L 117.524796 245.114907 
L 120.824512 248.76536 
L 124.124229 249.366818 
L 127.423945 249.064921 
L 130.723662 249.95896 
L 134.023378 251.413795 
L 137.323095 253.620038 
L 140.622811 259.732848 
L 143.922528 261.108441 
L 147.222245 261.769478 
L 150.521961 262.391961 
L 153.821678 263.537205 
L 157.121394 264.228596 
L 160.421111 267.702008 
L 163.720827 268.57378 
L 167.020544 269.566496 
L 170.32026 269.773854 
L 173.619977 269.988779 
L 176.919693 270.753127 
L 180.21941 270.738452 
L 183.519126 271.763475 
L 186.818843 271.744968 
L 190.11856 272.32021 
L 193.418276 272.673151 
L 196.717993 274.903909 
L 200.017709 275.329803 
L 203.317426 275.640492 
L 206.617142 277.172503 
L 209.916859 277.352755 
L 213.216575 277.564965 
L 216.516292 278.440041 
L 219.816008 278.632427 
L 223.115725 278.892357 
L 226.415441 278.986689 
L 229.715158 279.101346 
L 233.014875 279.325786 
L 236.314591 279.271747 
L 239.614308 279.741377 
L 242.914024 279.885772 
L 246.213741 280.054061 
L 249.513457 280.127566 
L 252.813174 280.085969 
L 256.11289 280.164203 
L 259.412607 280.587105 
L 262.712323 280.608375 
L 266.01204 280.668427 
L 269.311756 280.649034 
L 272.611473 280.844242 
L 275.91119 280.625412 
" clip-path="url(#p19a80c92e6)" style="fill: none; stroke: #0000ff; stroke-width: 1.5; stroke-linecap: square"/>
   </g>
   <g id="line2d_14">
    <path d="M 81.227914 96.08287 
L 84.52763 89.708912 
L 87.827347 160.003949 
L 91.127063 180.938386 
L 94.42678 192.082523 
L 97.726496 175.27707 
L 101.026213 203.638333 
L 104.32593 188.86374 
L 107.625646 201.955033 
L 110.925363 220.095378 
L 114.225079 221.162179 
L 117.524796 225.571268 
L 120.824512 219.320886 
L 124.124229 226.146543 
L 127.423945 216.11044 
L 130.723662 232.669862 
L 134.023378 223.40245 
L 137.323095 223.199517 
L 140.622811 242.647342 
L 143.922528 234.533375 
L 147.222245 243.538635 
L 150.521961 244.371617 
L 153.821678 238.980297 
L 157.121394 238.101156 
L 160.421111 248.734492 
L 163.720827 248.29213 
L 167.020544 250.320156 
L 170.32026 249.127543 
L 173.619977 250.471485 
L 176.919693 246.950025 
L 180.21941 251.086644 
L 183.519126 250.339547 
L 186.818843 251.13979 
L 190.11856 248.43211 
L 193.418276 248.525569 
L 196.717993 254.031284 
L 200.017709 252.915983 
L 203.317426 253.374314 
L 206.617142 255.104072 
L 209.916859 254.844919 
L 213.216575 255.071134 
L 216.516292 256.141769 
L 219.816008 255.971446 
L 223.115725 256.324076 
L 226.415441 255.635972 
L 229.715158 256.427341 
L 233.014875 255.836561 
L 236.314591 256.347642 
L 239.614308 256.699778 
L 242.914024 256.451981 
L 246.213741 256.945478 
L 249.513457 256.744549 
L 252.813174 256.603543 
L 256.11289 257.063957 
L 259.412607 257.174734 
L 262.712323 256.991653 
L 266.01204 256.9809 
L 269.311756 257.445706 
L 272.611473 256.932832 
L 275.91119 257.18003 
" clip-path="url(#p19a80c92e6)" style="fill: none; stroke: #008000; stroke-width: 1.5; stroke-linecap: square"/>
   </g>
   <g id="patch_3">
    <path d="M 71.49375 291.548198 
L 71.49375 56.061178 
" style="fill: none; stroke: #000000; stroke-width: 0.8; stroke-linejoin: miter; stroke-linecap: square"/>
   </g>
   <g id="patch_4">
    <path d="M 285.645353 291.548198 
L 285.645353 56.061178 
" style="fill: none; stroke: #000000; stroke-width: 0.8; stroke-linejoin: miter; stroke-linecap: square"/>
   </g>
   <g id="patch_5">
    <path d="M 71.49375 291.548198 
L 285.645353 291.548198 
" style="fill: none; stroke: #000000; stroke-width: 0.8; stroke-linejoin: miter; stroke-linecap: square"/>
   </g>
   <g id="patch_6">
    <path d="M 71.49375 56.061178 
L 285.645353 56.061178 
" style="fill: none; stroke: #000000; stroke-width: 0.8; stroke-linejoin: miter; stroke-linecap: square"/>
   </g>
   <g id="text_15">
    <!-- A -->
    <g transform="translate(72.559814 78.722704) scale(0.2 -0.2)">
     <defs>
      <path id="Cmr10-41" d="M 206 0 
L 206 225 
Q 778 225 909 603 
L 2253 4513 
Q 2272 4581 2356 4581 
L 2438 4581 
Q 2522 4581 2541 4513 
L 3944 428 
Q 4003 294 4170 259 
Q 4338 225 4588 225 
L 4588 0 
L 2803 0 
L 2803 225 
Q 3334 225 3334 397 
L 3334 428 
L 2988 1428 
L 1434 1428 
L 1147 603 
Q 1141 581 1141 538 
Q 1141 378 1292 301 
Q 1444 225 1619 225 
L 1619 0 
L 206 0 
z
M 1509 1650 
L 2913 1650 
L 2209 3694 
L 1509 1650 
z
" transform="scale(0.015625)"/>
     </defs>
     <use xlink:href="#Cmr10-41"/>
    </g>
   </g>
   <g id="text_16">
    <!-- A -->
    <g transform="translate(72.559814 78.722704) scale(0.2 -0.2)">
     <use xlink:href="#Cmr10-41"/>
    </g>
   </g>
  </g>
  <g id="axes_2">
   <g id="patch_7">
    <path d="M 355.939583 291.548198 
L 570.091187 291.548198 
L 570.091187 56.061178 
L 355.939583 56.061178 
z
" style="fill: #ffffff"/>
   </g>
   <g id="matplotlib.axis_3">
    <g id="xtick_9">
     <g id="line2d_15">
      <g>
       <use xlink:href="#mf7d4906b23" x="365.673747" y="291.548198" style="stroke: #000000; stroke-width: 0.8"/>
      </g>
     </g>
     <g id="text_17">
      <!-- 0 -->
      <g transform="translate(360.673747 312.426323) scale(0.2 -0.2)">
       <use xlink:href="#Cmr10-30"/>
      </g>
     </g>
    </g>
    <g id="xtick_10">
     <g id="line2d_16">
      <g>
       <use xlink:href="#mf7d4906b23" x="392.071479" y="291.548198" style="stroke: #000000; stroke-width: 0.8"/>
      </g>
     </g>
     <g id="text_18">
      <!-- 8 -->
      <g transform="translate(387.071479 312.426323) scale(0.2 -0.2)">
       <use xlink:href="#Cmr10-38"/>
      </g>
     </g>
    </g>
    <g id="xtick_11">
     <g id="line2d_17">
      <g>
       <use xlink:href="#mf7d4906b23" x="418.469212" y="291.548198" style="stroke: #000000; stroke-width: 0.8"/>
      </g>
     </g>
     <g id="text_19">
      <!-- 16 -->
      <g transform="translate(408.469212 312.426323) scale(0.2 -0.2)">
       <use xlink:href="#Cmr10-31"/>
       <use xlink:href="#Cmr10-36" x="50"/>
      </g>
     </g>
    </g>
    <g id="xtick_12">
     <g id="line2d_18">
      <g>
       <use xlink:href="#mf7d4906b23" x="444.866944" y="291.548198" style="stroke: #000000; stroke-width: 0.8"/>
      </g>
     </g>
     <g id="text_20">
      <!-- 24 -->
      <g transform="translate(434.866944 312.426323) scale(0.2 -0.2)">
       <use xlink:href="#Cmr10-32"/>
       <use xlink:href="#Cmr10-34" x="50"/>
      </g>
     </g>
    </g>
    <g id="xtick_13">
     <g id="line2d_19">
      <g>
       <use xlink:href="#mf7d4906b23" x="471.264676" y="291.548198" style="stroke: #000000; stroke-width: 0.8"/>
      </g>
     </g>
     <g id="text_21">
      <!-- 32 -->
      <g transform="translate(461.264676 312.426323) scale(0.2 -0.2)">
       <use xlink:href="#Cmr10-33"/>
       <use xlink:href="#Cmr10-32" x="50"/>
      </g>
     </g>
    </g>
    <g id="xtick_14">
     <g id="line2d_20">
      <g>
       <use xlink:href="#mf7d4906b23" x="497.662409" y="291.548198" style="stroke: #000000; stroke-width: 0.8"/>
      </g>
     </g>
     <g id="text_22">
      <!-- 40 -->
      <g transform="translate(487.662409 312.426323) scale(0.2 -0.2)">
       <use xlink:href="#Cmr10-34"/>
       <use xlink:href="#Cmr10-30" x="50"/>
      </g>
     </g>
    </g>
    <g id="xtick_15">
     <g id="line2d_21">
      <g>
       <use xlink:href="#mf7d4906b23" x="524.060141" y="291.548198" style="stroke: #000000; stroke-width: 0.8"/>
      </g>
     </g>
     <g id="text_23">
      <!-- 48 -->
      <g transform="translate(514.060141 312.426323) scale(0.2 -0.2)">
       <use xlink:href="#Cmr10-34"/>
       <use xlink:href="#Cmr10-38" x="50"/>
      </g>
     </g>
    </g>
    <g id="xtick_16">
     <g id="line2d_22">
      <g>
       <use xlink:href="#mf7d4906b23" x="550.457873" y="291.548198" style="stroke: #000000; stroke-width: 0.8"/>
      </g>
     </g>
     <g id="text_24">
      <!-- 56 -->
      <g transform="translate(540.457873 312.426323) scale(0.2 -0.2)">
       <use xlink:href="#Cmr10-35"/>
       <use xlink:href="#Cmr10-36" x="50"/>
      </g>
     </g>
    </g>
    <g id="text_25">
     <!-- Epoch -->
     <g transform="translate(435.671635 334.182573) scale(0.2 -0.2)">
      <use xlink:href="#Cmr10-45"/>
      <use xlink:href="#Cmr10-70" x="68.017578"/>
      <use xlink:href="#Cmr10-6f" x="123.535156"/>
      <use xlink:href="#Cmr10-63" x="173.535156"/>
      <use xlink:href="#Cmr10-68" x="217.919922"/>
     </g>
    </g>
   </g>
   <g id="matplotlib.axis_4">
    <g id="ytick_5">
     <g id="line2d_23">
      <g>
       <use xlink:href="#m3deaf66d65" x="355.939583" y="284.590671" style="stroke: #000000; stroke-width: 0.8"/>
      </g>
     </g>
     <g id="text_26">
      <!-- 0.92 -->
      <g transform="translate(313.402083 291.529733) scale(0.2 -0.2)">
       <defs>
        <path id="Cmr10-39" d="M 722 269 
Q 897 63 1331 63 
Q 1575 63 1786 228 
Q 1997 394 2113 634 
Q 2247 906 2284 1214 
Q 2322 1522 2322 1978 
Q 2213 1719 2008 1553 
Q 1803 1388 1538 1388 
Q 1166 1388 873 1589 
Q 581 1791 425 2120 
Q 269 2450 269 2822 
Q 269 3206 444 3539 
Q 619 3872 928 4067 
Q 1238 4263 1631 4263 
Q 2019 4263 2280 4052 
Q 2541 3841 2678 3508 
Q 2816 3175 2870 2803 
Q 2925 2431 2925 2069 
Q 2925 1575 2744 1061 
Q 2563 547 2202 203 
Q 1841 -141 1331 -141 
Q 953 -141 690 37 
Q 428 216 428 575 
Q 428 706 517 795 
Q 606 884 738 884 
Q 866 884 955 795 
Q 1044 706 1044 575 
Q 1044 450 953 359 
Q 863 269 738 269 
L 722 269 
z
M 1563 1556 
Q 1825 1556 1992 1732 
Q 2159 1909 2234 2171 
Q 2309 2434 2309 2694 
L 2309 2816 
L 2309 2841 
Q 2309 3322 2168 3700 
Q 2028 4078 1631 4078 
Q 1378 4078 1220 3967 
Q 1063 3856 988 3672 
Q 913 3488 892 3278 
Q 872 3069 872 2822 
Q 872 2459 906 2203 
Q 941 1947 1094 1751 
Q 1247 1556 1563 1556 
z
" transform="scale(0.015625)"/>
       </defs>
       <use xlink:href="#Cmr10-30"/>
       <use xlink:href="#Cmr10-2e" x="50"/>
       <use xlink:href="#Cmr10-39" x="77.685547"/>
       <use xlink:href="#Cmr10-32" x="127.685547"/>
      </g>
     </g>
    </g>
    <g id="ytick_6">
     <g id="line2d_24">
      <g>
       <use xlink:href="#m3deaf66d65" x="355.939583" y="223.267354" style="stroke: #000000; stroke-width: 0.8"/>
      </g>
     </g>
     <g id="text_27">
      <!-- 0.94 -->
      <g transform="translate(313.402083 230.206416) scale(0.2 -0.2)">
       <use xlink:href="#Cmr10-30"/>
       <use xlink:href="#Cmr10-2e" x="50"/>
       <use xlink:href="#Cmr10-39" x="77.685547"/>
       <use xlink:href="#Cmr10-34" x="127.685547"/>
      </g>
     </g>
    </g>
    <g id="ytick_7">
     <g id="line2d_25">
      <g>
       <use xlink:href="#m3deaf66d65" x="355.939583" y="161.944037" style="stroke: #000000; stroke-width: 0.8"/>
      </g>
     </g>
     <g id="text_28">
      <!-- 0.96 -->
      <g transform="translate(313.402083 168.883099) scale(0.2 -0.2)">
       <use xlink:href="#Cmr10-30"/>
       <use xlink:href="#Cmr10-2e" x="50"/>
       <use xlink:href="#Cmr10-39" x="77.685547"/>
       <use xlink:href="#Cmr10-36" x="127.685547"/>
      </g>
     </g>
    </g>
    <g id="ytick_8">
     <g id="line2d_26">
      <g>
       <use xlink:href="#m3deaf66d65" x="355.939583" y="100.62072" style="stroke: #000000; stroke-width: 0.8"/>
      </g>
     </g>
     <g id="text_29">
      <!-- 0.98 -->
      <g transform="translate(313.402083 107.559782) scale(0.2 -0.2)">
       <use xlink:href="#Cmr10-30"/>
       <use xlink:href="#Cmr10-2e" x="50"/>
       <use xlink:href="#Cmr10-39" x="77.685547"/>
       <use xlink:href="#Cmr10-38" x="127.685547"/>
      </g>
     </g>
    </g>
    <g id="text_30">
     <!-- IoU -->
     <g transform="translate(305.523958 189.9125) rotate(-90) scale(0.2 -0.2)">
      <defs>
       <path id="Cmr10-49" d="M 166 0 
L 166 225 
Q 856 225 856 428 
L 856 3944 
Q 856 4147 166 4147 
L 166 4372 
L 2144 4372 
L 2144 4147 
Q 1453 4147 1453 3944 
L 1453 428 
Q 1453 225 2144 225 
L 2144 0 
L 166 0 
z
" transform="scale(0.015625)"/>
       <path id="Cmr10-55" d="M 856 1447 
L 856 3944 
Q 856 4147 197 4147 
L 197 4372 
L 2113 4372 
L 2113 4147 
Q 1453 4147 1453 3944 
L 1453 1472 
Q 1453 1116 1551 798 
Q 1650 481 1883 282 
Q 2116 84 2491 84 
Q 2856 84 3134 276 
Q 3413 469 3563 787 
Q 3713 1106 3713 1472 
L 3713 3769 
Q 3713 4147 3053 4147 
L 3053 4372 
L 4594 4372 
L 4594 4147 
Q 3938 4147 3938 3769 
L 3938 1447 
Q 3938 1150 3833 865 
Q 3728 581 3529 351 
Q 3331 122 3062 -9 
Q 2794 -141 2491 -141 
Q 2066 -141 1686 71 
Q 1306 284 1081 650 
Q 856 1016 856 1447 
z
" transform="scale(0.015625)"/>
      </defs>
      <use xlink:href="#Cmr10-49"/>
      <use xlink:href="#Cmr10-6f" x="36.083984"/>
      <use xlink:href="#Cmr10-55" x="86.083984"/>
     </g>
    </g>
   </g>
   <g id="line2d_27">
    <path d="M 365.673747 280.844242 
L 368.973464 195.554165 
L 372.27318 170.747373 
L 375.572897 154.146986 
L 378.872613 146.433822 
L 382.17233 137.127741 
L 385.472046 130.700322 
L 388.771763 126.95058 
L 392.071479 122.67697 
L 395.371196 110.030586 
L 398.670913 107.467281 
L 401.970629 106.47104 
L 405.270346 102.41885 
L 408.570062 101.772072 
L 411.869779 102.116908 
L 415.169495 101.134977 
L 418.469212 99.525537 
L 421.768928 97.07031 
L 425.068645 90.255001 
L 428.368361 88.727062 
L 431.668078 87.999603 
L 434.967794 87.311249 
L 438.267511 86.033358 
L 441.567228 85.268684 
L 444.866944 81.395117 
L 448.166661 80.426232 
L 451.466377 79.320749 
L 454.766094 79.092719 
L 458.06581 78.859792 
L 461.365527 78.008454 
L 464.665243 78.025305 
L 467.96496 76.882775 
L 471.264676 76.910601 
L 474.564393 76.268608 
L 477.864109 75.877364 
L 481.163826 73.386429 
L 484.463542 72.914395 
L 487.763259 72.570881 
L 491.062976 70.855873 
L 494.362692 70.656813 
L 497.662409 70.420769 
L 500.962125 69.444852 
L 504.261842 69.228844 
L 507.561558 68.938459 
L 510.861275 68.835001 
L 514.160991 68.707798 
L 517.460708 68.457293 
L 520.760424 68.520123 
L 524.060141 67.995988 
L 527.359857 67.834486 
L 530.659574 67.645791 
L 533.959291 67.567481 
L 537.259007 67.61417 
L 540.558724 67.523641 
L 543.85844 67.052332 
L 547.158157 67.029642 
L 550.457873 66.964509 
L 553.75759 66.984726 
L 557.057306 66.765133 
L 560.357023 67.011559 
" clip-path="url(#pb28e91c886)" style="fill: none; stroke: #0000ff; stroke-width: 1.5; stroke-linecap: square"/>
   </g>
   <g id="line2d_28">
    <path d="M 365.673747 270.651937 
L 368.973464 278.916136 
L 372.27318 200.868633 
L 375.572897 177.616715 
L 378.872613 165.217417 
L 382.17233 184.159872 
L 385.472046 152.539462 
L 388.771763 169.079366 
L 392.071479 154.586946 
L 395.371196 134.330031 
L 398.670913 133.145117 
L 401.970629 128.25138 
L 405.270346 135.244571 
L 408.570062 127.636735 
L 411.869779 138.888042 
L 415.169495 120.400335 
L 418.469212 130.79103 
L 421.768928 131.006581 
L 425.068645 109.303146 
L 428.368361 118.361072 
L 431.668078 108.310728 
L 434.967794 107.399421 
L 438.267511 113.422423 
L 441.567228 114.423467 
L 444.866944 102.545674 
L 448.166661 103.043823 
L 451.466377 100.776101 
L 454.766094 102.12719 
L 458.06581 100.624911 
L 461.365527 104.559165 
L 464.665243 99.945907 
L 467.96496 100.773509 
L 471.264676 99.896218 
L 474.564393 102.91353 
L 477.864109 102.810253 
L 481.163826 96.672693 
L 484.463542 97.910032 
L 487.763259 97.409122 
L 491.062976 95.483285 
L 494.362692 95.766547 
L 497.662409 95.519391 
L 500.962125 94.319507 
L 504.261842 94.51391 
L 507.561558 94.119127 
L 510.861275 94.887402 
L 514.160991 94.002142 
L 517.460708 94.668438 
L 520.760424 94.100206 
L 524.060141 93.707408 
L 527.359857 93.984721 
L 530.659574 93.432226 
L 533.959291 93.65571 
L 537.259007 93.814988 
L 540.558724 93.302944 
L 543.85844 93.175696 
L 547.158157 93.379651 
L 550.457873 93.394964 
L 553.75759 92.876609 
L 557.057306 93.449174 
L 560.357023 93.172005 
" clip-path="url(#pb28e91c886)" style="fill: none; stroke: #008000; stroke-width: 1.5; stroke-linecap: square"/>
   </g>
   <g id="patch_8">
    <path d="M 355.939583 291.548198 
L 355.939583 56.061178 
" style="fill: none; stroke: #000000; stroke-width: 0.8; stroke-linejoin: miter; stroke-linecap: square"/>
   </g>
   <g id="patch_9">
    <path d="M 570.091187 291.548198 
L 570.091187 56.061178 
" style="fill: none; stroke: #000000; stroke-width: 0.8; stroke-linejoin: miter; stroke-linecap: square"/>
   </g>
   <g id="patch_10">
    <path d="M 355.939583 291.548198 
L 570.091187 291.548198 
" style="fill: none; stroke: #000000; stroke-width: 0.8; stroke-linejoin: miter; stroke-linecap: square"/>
   </g>
   <g id="patch_11">
    <path d="M 355.939583 56.061178 
L 570.091187 56.061178 
" style="fill: none; stroke: #000000; stroke-width: 0.8; stroke-linejoin: miter; stroke-linecap: square"/>
   </g>
   <g id="text_31">
    <!-- B -->
    <g transform="translate(357.42596 78.722704) scale(0.2 -0.2)">
     <defs>
      <path id="Cmr10-42" d="M 219 0 
L 219 225 
Q 878 225 878 428 
L 878 3944 
Q 878 4147 219 4147 
L 219 4372 
L 2572 4372 
Q 2897 4372 3228 4245 
Q 3559 4119 3776 3870 
Q 3994 3622 3994 3284 
Q 3994 2894 3673 2630 
Q 3353 2366 2925 2284 
Q 3203 2284 3497 2131 
Q 3791 1978 3978 1722 
Q 4166 1466 4166 1178 
Q 4166 828 3958 559 
Q 3750 291 3419 145 
Q 3088 0 2753 0 
L 219 0 
z
M 1434 428 
Q 1434 291 1512 258 
Q 1591 225 1759 225 
L 2572 225 
Q 2822 225 3036 356 
Q 3250 488 3375 708 
Q 3500 928 3500 1178 
Q 3500 1422 3397 1655 
Q 3294 1888 3101 2038 
Q 2909 2188 2663 2188 
L 1434 2188 
L 1434 428 
z
M 1434 2356 
L 2394 2356 
Q 2588 2356 2758 2426 
Q 2928 2497 3064 2630 
Q 3200 2763 3273 2930 
Q 3347 3097 3347 3284 
Q 3347 3450 3292 3603 
Q 3238 3756 3131 3881 
Q 3025 4006 2881 4076 
Q 2738 4147 2572 4147 
L 1759 4147 
Q 1644 4147 1580 4137 
Q 1516 4128 1475 4083 
Q 1434 4038 1434 3944 
L 1434 2356 
z
" transform="scale(0.015625)"/>
     </defs>
     <use xlink:href="#Cmr10-42"/>
    </g>
   </g>
  </g>
  <g id="axes_3">
   <g id="patch_12">
    <path d="M 651.047917 291.548198 
L 865.19952 291.548198 
L 865.19952 56.061178 
L 651.047917 56.061178 
z
" style="fill: #ffffff"/>
   </g>
   <g id="matplotlib.axis_5">
    <g id="xtick_17">
     <g id="line2d_29">
      <g>
       <use xlink:href="#mf7d4906b23" x="660.78208" y="291.548198" style="stroke: #000000; stroke-width: 0.8"/>
      </g>
     </g>
     <g id="text_32">
      <!-- 0 -->
      <g transform="translate(655.78208 312.426323) scale(0.2 -0.2)">
       <use xlink:href="#Cmr10-30"/>
      </g>
     </g>
    </g>
    <g id="xtick_18">
     <g id="line2d_30">
      <g>
       <use xlink:href="#mf7d4906b23" x="687.179813" y="291.548198" style="stroke: #000000; stroke-width: 0.8"/>
      </g>
     </g>
     <g id="text_33">
      <!-- 8 -->
      <g transform="translate(682.179813 312.426323) scale(0.2 -0.2)">
       <use xlink:href="#Cmr10-38"/>
      </g>
     </g>
    </g>
    <g id="xtick_19">
     <g id="line2d_31">
      <g>
       <use xlink:href="#mf7d4906b23" x="713.577545" y="291.548198" style="stroke: #000000; stroke-width: 0.8"/>
      </g>
     </g>
     <g id="text_34">
      <!-- 16 -->
      <g transform="translate(703.577545 312.426323) scale(0.2 -0.2)">
       <use xlink:href="#Cmr10-31"/>
       <use xlink:href="#Cmr10-36" x="50"/>
      </g>
     </g>
    </g>
    <g id="xtick_20">
     <g id="line2d_32">
      <g>
       <use xlink:href="#mf7d4906b23" x="739.975277" y="291.548198" style="stroke: #000000; stroke-width: 0.8"/>
      </g>
     </g>
     <g id="text_35">
      <!-- 24 -->
      <g transform="translate(729.975277 312.426323) scale(0.2 -0.2)">
       <use xlink:href="#Cmr10-32"/>
       <use xlink:href="#Cmr10-34" x="50"/>
      </g>
     </g>
    </g>
    <g id="xtick_21">
     <g id="line2d_33">
      <g>
       <use xlink:href="#mf7d4906b23" x="766.37301" y="291.548198" style="stroke: #000000; stroke-width: 0.8"/>
      </g>
     </g>
     <g id="text_36">
      <!-- 32 -->
      <g transform="translate(756.37301 312.426323) scale(0.2 -0.2)">
       <use xlink:href="#Cmr10-33"/>
       <use xlink:href="#Cmr10-32" x="50"/>
      </g>
     </g>
    </g>
    <g id="xtick_22">
     <g id="line2d_34">
      <g>
       <use xlink:href="#mf7d4906b23" x="792.770742" y="291.548198" style="stroke: #000000; stroke-width: 0.8"/>
      </g>
     </g>
     <g id="text_37">
      <!-- 40 -->
      <g transform="translate(782.770742 312.426323) scale(0.2 -0.2)">
       <use xlink:href="#Cmr10-34"/>
       <use xlink:href="#Cmr10-30" x="50"/>
      </g>
     </g>
    </g>
    <g id="xtick_23">
     <g id="line2d_35">
      <g>
       <use xlink:href="#mf7d4906b23" x="819.168474" y="291.548198" style="stroke: #000000; stroke-width: 0.8"/>
      </g>
     </g>
     <g id="text_38">
      <!-- 48 -->
      <g transform="translate(809.168474 312.426323) scale(0.2 -0.2)">
       <use xlink:href="#Cmr10-34"/>
       <use xlink:href="#Cmr10-38" x="50"/>
      </g>
     </g>
    </g>
    <g id="xtick_24">
     <g id="line2d_36">
      <g>
       <use xlink:href="#mf7d4906b23" x="845.566207" y="291.548198" style="stroke: #000000; stroke-width: 0.8"/>
      </g>
     </g>
     <g id="text_39">
      <!-- 56 -->
      <g transform="translate(835.566207 312.426323) scale(0.2 -0.2)">
       <use xlink:href="#Cmr10-35"/>
       <use xlink:href="#Cmr10-36" x="50"/>
      </g>
     </g>
    </g>
    <g id="text_40">
     <!-- Epoch -->
     <g transform="translate(730.779968 334.182573) scale(0.2 -0.2)">
      <use xlink:href="#Cmr10-45"/>
      <use xlink:href="#Cmr10-70" x="68.017578"/>
      <use xlink:href="#Cmr10-6f" x="123.535156"/>
      <use xlink:href="#Cmr10-63" x="173.535156"/>
      <use xlink:href="#Cmr10-68" x="217.919922"/>
     </g>
    </g>
   </g>
   <g id="matplotlib.axis_6">
    <g id="ytick_9">
     <g id="line2d_37">
      <g>
       <use xlink:href="#m3deaf66d65" x="651.047917" y="266.957877" style="stroke: #000000; stroke-width: 0.8"/>
      </g>
     </g>
     <g id="text_41">
      <!-- 0.980 -->
      <g transform="translate(598.510417 273.896939) scale(0.2 -0.2)">
       <use xlink:href="#Cmr10-30"/>
       <use xlink:href="#Cmr10-2e" x="50"/>
       <use xlink:href="#Cmr10-39" x="77.685547"/>
       <use xlink:href="#Cmr10-38" x="127.685547"/>
       <use xlink:href="#Cmr10-30" x="177.685547"/>
      </g>
     </g>
    </g>
    <g id="ytick_10">
     <g id="line2d_38">
      <g>
       <use xlink:href="#m3deaf66d65" x="651.047917" y="210.573077" style="stroke: #000000; stroke-width: 0.8"/>
      </g>
     </g>
     <g id="text_42">
      <!-- 0.985 -->
      <g transform="translate(598.510417 217.51214) scale(0.2 -0.2)">
       <use xlink:href="#Cmr10-30"/>
       <use xlink:href="#Cmr10-2e" x="50"/>
       <use xlink:href="#Cmr10-39" x="77.685547"/>
       <use xlink:href="#Cmr10-38" x="127.685547"/>
       <use xlink:href="#Cmr10-35" x="177.685547"/>
      </g>
     </g>
    </g>
    <g id="ytick_11">
     <g id="line2d_39">
      <g>
       <use xlink:href="#m3deaf66d65" x="651.047917" y="154.188278" style="stroke: #000000; stroke-width: 0.8"/>
      </g>
     </g>
     <g id="text_43">
      <!-- 0.990 -->
      <g transform="translate(598.510417 161.12734) scale(0.2 -0.2)">
       <use xlink:href="#Cmr10-30"/>
       <use xlink:href="#Cmr10-2e" x="50"/>
       <use xlink:href="#Cmr10-39" x="77.685547"/>
       <use xlink:href="#Cmr10-39" x="127.685547"/>
       <use xlink:href="#Cmr10-30" x="177.685547"/>
      </g>
     </g>
    </g>
    <g id="ytick_12">
     <g id="line2d_40">
      <g>
       <use xlink:href="#m3deaf66d65" x="651.047917" y="97.803478" style="stroke: #000000; stroke-width: 0.8"/>
      </g>
     </g>
     <g id="text_44">
      <!-- 0.995 -->
      <g transform="translate(598.510417 104.742541) scale(0.2 -0.2)">
       <use xlink:href="#Cmr10-30"/>
       <use xlink:href="#Cmr10-2e" x="50"/>
       <use xlink:href="#Cmr10-39" x="77.685547"/>
       <use xlink:href="#Cmr10-39" x="127.685547"/>
       <use xlink:href="#Cmr10-35" x="177.685547"/>
      </g>
     </g>
    </g>
    <g id="text_45">
     <!-- Accuracy -->
     <g transform="translate(590.407292 214.353125) rotate(-90) scale(0.2 -0.2)">
      <defs>
       <path id="Cmr10-75" d="M 691 763 
L 691 2175 
Q 691 2347 639 2423 
Q 588 2500 491 2517 
Q 394 2534 191 2534 
L 191 2759 
L 1159 2828 
L 1159 763 
Q 1159 513 1195 373 
Q 1231 234 1348 165 
Q 1466 97 1722 97 
Q 2066 97 2269 384 
Q 2472 672 2472 1038 
L 2472 2175 
Q 2472 2347 2419 2423 
Q 2366 2500 2270 2517 
Q 2175 2534 1972 2534 
L 1972 2759 
L 2938 2828 
L 2938 581 
Q 2938 413 2989 336 
Q 3041 259 3137 242 
Q 3234 225 3438 225 
L 3438 0 
L 2491 -72 
L 2491 469 
Q 2372 228 2159 78 
Q 1947 -72 1691 -72 
Q 1231 -72 961 123 
Q 691 319 691 763 
z
" transform="scale(0.015625)"/>
       <path id="Cmr10-72" d="M 166 0 
L 166 225 
Q 384 225 525 259 
Q 666 294 666 428 
L 666 2175 
Q 666 2347 614 2423 
Q 563 2500 466 2517 
Q 369 2534 166 2534 
L 166 2759 
L 1081 2828 
L 1081 2203 
Q 1184 2481 1375 2654 
Q 1566 2828 1838 2828 
Q 2028 2828 2178 2715 
Q 2328 2603 2328 2419 
Q 2328 2303 2245 2217 
Q 2163 2131 2041 2131 
Q 1922 2131 1837 2215 
Q 1753 2300 1753 2419 
Q 1753 2591 1875 2663 
L 1838 2663 
Q 1578 2663 1414 2475 
Q 1250 2288 1181 2009 
Q 1113 1731 1113 1478 
L 1113 428 
Q 1113 225 1734 225 
L 1734 0 
L 166 0 
z
" transform="scale(0.015625)"/>
       <path id="Cmr10-61" d="M 256 628 
Q 256 1009 556 1248 
Q 856 1488 1276 1586 
Q 1697 1684 2075 1684 
L 2075 1947 
Q 2075 2131 1994 2304 
Q 1913 2478 1759 2589 
Q 1606 2700 1422 2700 
Q 997 2700 775 2509 
Q 897 2509 976 2417 
Q 1056 2325 1056 2203 
Q 1056 2075 965 1984 
Q 875 1894 750 1894 
Q 622 1894 531 1984 
Q 441 2075 441 2203 
Q 441 2541 747 2705 
Q 1053 2869 1422 2869 
Q 1681 2869 1943 2758 
Q 2206 2647 2373 2440 
Q 2541 2234 2541 1959 
L 2541 519 
Q 2541 394 2594 289 
Q 2647 184 2759 184 
Q 2866 184 2917 290 
Q 2969 397 2969 519 
L 2969 928 
L 3156 928 
L 3156 519 
Q 3156 375 3081 245 
Q 3006 116 2879 39 
Q 2753 -38 2606 -38 
Q 2419 -38 2283 107 
Q 2147 253 2131 453 
Q 2013 213 1781 70 
Q 1550 -72 1288 -72 
Q 1044 -72 808 0 
Q 572 72 414 226 
Q 256 381 256 628 
z
M 775 628 
Q 775 403 940 250 
Q 1106 97 1331 97 
Q 1538 97 1706 200 
Q 1875 303 1975 481 
Q 2075 659 2075 856 
L 2075 1522 
Q 1784 1522 1479 1426 
Q 1175 1331 975 1128 
Q 775 925 775 628 
z
" transform="scale(0.015625)"/>
       <path id="Cmr10-79" d="M 441 -1050 
Q 563 -1147 709 -1147 
Q 1113 -1147 1369 -538 
L 1588 0 
L 628 2350 
Q 569 2469 447 2501 
Q 325 2534 122 2534 
L 122 2759 
L 1466 2759 
L 1466 2534 
Q 1113 2534 1113 2381 
Q 1113 2356 1119 2344 
L 1831 594 
L 2472 2169 
Q 2491 2219 2491 2278 
Q 2491 2356 2448 2414 
Q 2406 2472 2339 2503 
Q 2272 2534 2188 2534 
L 2188 2759 
L 3250 2759 
L 3250 2534 
Q 3053 2534 2904 2443 
Q 2756 2353 2675 2175 
L 1569 -538 
Q 1481 -744 1364 -917 
Q 1247 -1091 1078 -1202 
Q 909 -1313 709 -1313 
Q 475 -1313 298 -1158 
Q 122 -1003 122 -775 
Q 122 -656 203 -575 
Q 284 -494 403 -494 
Q 484 -494 548 -530 
Q 613 -566 648 -628 
Q 684 -691 684 -775 
Q 684 -878 615 -959 
Q 547 -1041 441 -1050 
z
" transform="scale(0.015625)"/>
      </defs>
      <use xlink:href="#Cmr10-41"/>
      <use xlink:href="#Cmr10-63" x="75"/>
      <use xlink:href="#Cmr10-63" x="119.384766"/>
      <use xlink:href="#Cmr10-75" x="163.769531"/>
      <use xlink:href="#Cmr10-72" x="219.287109"/>
      <use xlink:href="#Cmr10-61" x="258.398438"/>
      <use xlink:href="#Cmr10-63" x="308.398438"/>
      <use xlink:href="#Cmr10-79" x="352.783203"/>
     </g>
    </g>
   </g>
   <g id="line2d_41">
    <path d="M 660.78208 280.844242 
L 664.081797 188.395691 
L 667.381514 164.557859 
L 670.68123 148.823556 
L 673.980947 141.391482 
L 677.280663 132.412744 
L 680.58038 126.687463 
L 683.880096 122.909418 
L 687.179813 118.894274 
L 690.479529 107.038151 
L 693.779246 104.477389 
L 697.078962 103.636961 
L 700.378679 99.973451 
L 703.678395 99.447508 
L 706.978112 99.645527 
L 710.277829 98.795536 
L 713.577545 97.094276 
L 716.877262 94.88371 
L 720.176978 88.553738 
L 723.476695 87.10803 
L 726.776411 86.56584 
L 730.076128 85.834741 
L 733.375844 84.696372 
L 736.675561 84.027995 
L 739.975277 80.314071 
L 743.274994 79.481385 
L 746.57471 78.378377 
L 749.874427 78.175313 
L 753.174144 77.956148 
L 756.47386 77.164982 
L 759.773577 77.137758 
L 763.073293 76.166673 
L 766.37301 76.110406 
L 769.672726 75.623514 
L 772.972443 75.227422 
L 776.272159 72.967268 
L 779.571876 72.435555 
L 782.871592 72.154788 
L 786.171309 70.596331 
L 789.471025 70.382105 
L 792.770742 70.15326 
L 796.070459 69.245489 
L 799.370175 69.040791 
L 802.669892 68.760358 
L 805.969608 68.676049 
L 809.269325 68.557799 
L 812.569041 68.317988 
L 815.868758 68.40128 
L 819.168474 67.893705 
L 822.468191 67.732052 
L 825.767907 67.594943 
L 829.067624 67.539572 
L 832.36734 67.581099 
L 835.667057 67.412037 
L 838.966774 67.054078 
L 842.26649 67.014617 
L 845.566207 67.028626 
L 848.865923 66.954735 
L 852.16564 66.765133 
L 855.465356 66.991381 
" clip-path="url(#p285bf8de4c)" style="fill: none; stroke: #0000ff; stroke-width: 1.5; stroke-linecap: square"/>
   </g>
   <g id="line2d_42">
    <path d="M 660.78208 221.035253 
L 664.081797 229.705435 
L 667.381514 166.393701 
L 670.68123 148.630095 
L 673.980947 138.812566 
L 677.280663 154.376166 
L 680.58038 128.806653 
L 683.880096 142.481315 
L 687.179813 130.439593 
L 690.479529 114.038275 
L 693.779246 113.202667 
L 697.078962 109.600329 
L 700.378679 115.021994 
L 703.678395 109.260226 
L 706.978112 117.183942 
L 710.277829 103.660572 
L 713.577545 111.617649 
L 716.877262 111.766689 
L 720.176978 94.993922 
L 723.476695 101.87385 
L 726.776411 94.19889 
L 730.076128 93.604569 
L 733.375844 98.416623 
L 736.675561 98.888128 
L 739.975277 89.73563 
L 743.274994 90.064638 
L 746.57471 88.389333 
L 749.874427 89.350284 
L 753.174144 88.343995 
L 756.47386 91.236855 
L 759.773577 87.731015 
L 763.073293 88.164037 
L 766.37301 87.623848 
L 769.672726 90.053524 
L 772.972443 90.02907 
L 776.272159 85.162458 
L 779.571876 86.118675 
L 782.871592 85.76724 
L 786.171309 84.290024 
L 789.471025 84.445046 
L 792.770742 84.378843 
L 796.070459 83.354236 
L 799.370175 83.502944 
L 802.669892 83.191763 
L 805.969608 83.771808 
L 809.269325 83.12023 
L 812.569041 83.692758 
L 815.868758 83.223761 
L 819.168474 82.922274 
L 822.468191 83.107478 
L 825.767907 82.677836 
L 829.067624 82.86267 
L 832.36734 83.011643 
L 835.667057 82.578347 
L 838.966774 82.506141 
L 842.26649 82.659905 
L 845.566207 82.642088 
L 848.865923 82.274436 
L 852.16564 82.696694 
L 855.465356 82.504418 
" clip-path="url(#p285bf8de4c)" style="fill: none; stroke: #008000; stroke-width: 1.5; stroke-linecap: square"/>
   </g>
   <g id="patch_13">
    <path d="M 651.047917 291.548198 
L 651.047917 56.061178 
" style="fill: none; stroke: #000000; stroke-width: 0.8; stroke-linejoin: miter; stroke-linecap: square"/>
   </g>
   <g id="patch_14">
    <path d="M 865.19952 291.548198 
L 865.19952 56.061178 
" style="fill: none; stroke: #000000; stroke-width: 0.8; stroke-linejoin: miter; stroke-linecap: square"/>
   </g>
   <g id="patch_15">
    <path d="M 651.047917 291.548198 
L 865.19952 291.548198 
" style="fill: none; stroke: #000000; stroke-width: 0.8; stroke-linejoin: miter; stroke-linecap: square"/>
   </g>
   <g id="patch_16">
    <path d="M 651.047917 56.061178 
L 865.19952 56.061178 
" style="fill: none; stroke: #000000; stroke-width: 0.8; stroke-linejoin: miter; stroke-linecap: square"/>
   </g>
   <g id="text_46">
    <!-- C -->
    <g transform="translate(652.392106 78.722704) scale(0.2 -0.2)">
     <defs>
      <path id="Cmr10-43" d="M 1459 684 
Q 1678 406 2006 245 
Q 2334 84 2688 84 
Q 2984 84 3237 201 
Q 3491 319 3680 528 
Q 3869 738 3970 1003 
Q 4072 1269 4072 1563 
Q 4072 1613 4128 1613 
L 4206 1613 
Q 4256 1613 4256 1550 
Q 4256 1216 4128 905 
Q 4000 594 3765 358 
Q 3531 122 3226 -9 
Q 2922 -141 2591 -141 
Q 2131 -141 1720 45 
Q 1309 231 1004 554 
Q 700 878 529 1303 
Q 359 1728 359 2188 
Q 359 2647 529 3072 
Q 700 3497 1004 3822 
Q 1309 4147 1720 4330 
Q 2131 4513 2591 4513 
Q 2919 4513 3219 4370 
Q 3519 4228 3744 3969 
L 4116 4494 
Q 4153 4513 4159 4513 
L 4206 4513 
Q 4225 4513 4240 4497 
Q 4256 4481 4256 4459 
L 4256 2731 
Q 4256 2675 4206 2675 
L 4091 2675 
Q 4031 2675 4031 2731 
Q 4031 2916 3957 3144 
Q 3884 3372 3770 3576 
Q 3656 3781 3506 3938 
Q 3147 4288 2681 4288 
Q 2328 4288 2004 4128 
Q 1681 3969 1459 3688 
Q 1225 3388 1134 3005 
Q 1044 2622 1044 2188 
Q 1044 1753 1134 1368 
Q 1225 984 1459 684 
z
" transform="scale(0.015625)"/>
     </defs>
     <use xlink:href="#Cmr10-43"/>
    </g>
   </g>
  </g>
  <g id="axes_4">
   <g id="patch_17">
    <path d="M 71.49375 579.548198 
L 285.645353 579.548198 
L 285.645353 344.061178 
L 71.49375 344.061178 
z
" style="fill: #ffffff"/>
   </g>
   <g id="matplotlib.axis_7">
    <g id="xtick_25">
     <g id="line2d_43">
      <g>
       <use xlink:href="#mf7d4906b23" x="81.227914" y="579.548198" style="stroke: #000000; stroke-width: 0.8"/>
      </g>
     </g>
     <g id="text_47">
      <!-- 0 -->
      <g transform="translate(76.227914 600.426322) scale(0.2 -0.2)">
       <use xlink:href="#Cmr10-30"/>
      </g>
     </g>
    </g>
    <g id="xtick_26">
     <g id="line2d_44">
      <g>
       <use xlink:href="#mf7d4906b23" x="107.625646" y="579.548198" style="stroke: #000000; stroke-width: 0.8"/>
      </g>
     </g>
     <g id="text_48">
      <!-- 8 -->
      <g transform="translate(102.625646 600.426322) scale(0.2 -0.2)">
       <use xlink:href="#Cmr10-38"/>
      </g>
     </g>
    </g>
    <g id="xtick_27">
     <g id="line2d_45">
      <g>
       <use xlink:href="#mf7d4906b23" x="134.023378" y="579.548198" style="stroke: #000000; stroke-width: 0.8"/>
      </g>
     </g>
     <g id="text_49">
      <!-- 16 -->
      <g transform="translate(124.023378 600.426322) scale(0.2 -0.2)">
       <use xlink:href="#Cmr10-31"/>
       <use xlink:href="#Cmr10-36" x="50"/>
      </g>
     </g>
    </g>
    <g id="xtick_28">
     <g id="line2d_46">
      <g>
       <use xlink:href="#mf7d4906b23" x="160.421111" y="579.548198" style="stroke: #000000; stroke-width: 0.8"/>
      </g>
     </g>
     <g id="text_50">
      <!-- 24 -->
      <g transform="translate(150.421111 600.426322) scale(0.2 -0.2)">
       <use xlink:href="#Cmr10-32"/>
       <use xlink:href="#Cmr10-34" x="50"/>
      </g>
     </g>
    </g>
    <g id="xtick_29">
     <g id="line2d_47">
      <g>
       <use xlink:href="#mf7d4906b23" x="186.818843" y="579.548198" style="stroke: #000000; stroke-width: 0.8"/>
      </g>
     </g>
     <g id="text_51">
      <!-- 32 -->
      <g transform="translate(176.818843 600.426322) scale(0.2 -0.2)">
       <use xlink:href="#Cmr10-33"/>
       <use xlink:href="#Cmr10-32" x="50"/>
      </g>
     </g>
    </g>
    <g id="xtick_30">
     <g id="line2d_48">
      <g>
       <use xlink:href="#mf7d4906b23" x="213.216575" y="579.548198" style="stroke: #000000; stroke-width: 0.8"/>
      </g>
     </g>
     <g id="text_52">
      <!-- 40 -->
      <g transform="translate(203.216575 600.426322) scale(0.2 -0.2)">
       <use xlink:href="#Cmr10-34"/>
       <use xlink:href="#Cmr10-30" x="50"/>
      </g>
     </g>
    </g>
    <g id="xtick_31">
     <g id="line2d_49">
      <g>
       <use xlink:href="#mf7d4906b23" x="239.614308" y="579.548198" style="stroke: #000000; stroke-width: 0.8"/>
      </g>
     </g>
     <g id="text_53">
      <!-- 48 -->
      <g transform="translate(229.614308 600.426322) scale(0.2 -0.2)">
       <use xlink:href="#Cmr10-34"/>
       <use xlink:href="#Cmr10-38" x="50"/>
      </g>
     </g>
    </g>
    <g id="xtick_32">
     <g id="line2d_50">
      <g>
       <use xlink:href="#mf7d4906b23" x="266.01204" y="579.548198" style="stroke: #000000; stroke-width: 0.8"/>
      </g>
     </g>
     <g id="text_54">
      <!-- 56 -->
      <g transform="translate(256.01204 600.426322) scale(0.2 -0.2)">
       <use xlink:href="#Cmr10-35"/>
       <use xlink:href="#Cmr10-36" x="50"/>
      </g>
     </g>
    </g>
    <g id="text_55">
     <!-- Epoch -->
     <g transform="translate(151.225802 622.182572) scale(0.2 -0.2)">
      <use xlink:href="#Cmr10-45"/>
      <use xlink:href="#Cmr10-70" x="68.017578"/>
      <use xlink:href="#Cmr10-6f" x="123.535156"/>
      <use xlink:href="#Cmr10-63" x="173.535156"/>
      <use xlink:href="#Cmr10-68" x="217.919922"/>
     </g>
    </g>
   </g>
   <g id="matplotlib.axis_8">
    <g id="ytick_13">
     <g id="line2d_51">
      <g>
       <use xlink:href="#m3deaf66d65" x="71.49375" y="518.276513" style="stroke: #000000; stroke-width: 0.8"/>
      </g>
     </g>
     <g id="text_56">
      <!-- 0.96 -->
      <g transform="translate(28.95625 525.215575) scale(0.2 -0.2)">
       <use xlink:href="#Cmr10-30"/>
       <use xlink:href="#Cmr10-2e" x="50"/>
       <use xlink:href="#Cmr10-39" x="77.685547"/>
       <use xlink:href="#Cmr10-36" x="127.685547"/>
      </g>
     </g>
    </g>
    <g id="ytick_14">
     <g id="line2d_52">
      <g>
       <use xlink:href="#m3deaf66d65" x="71.49375" y="426.216709" style="stroke: #000000; stroke-width: 0.8"/>
      </g>
     </g>
     <g id="text_57">
      <!-- 0.98 -->
      <g transform="translate(28.95625 433.155771) scale(0.2 -0.2)">
       <use xlink:href="#Cmr10-30"/>
       <use xlink:href="#Cmr10-2e" x="50"/>
       <use xlink:href="#Cmr10-39" x="77.685547"/>
       <use xlink:href="#Cmr10-38" x="127.685547"/>
      </g>
     </g>
    </g>
    <g id="text_58">
     <!-- Recall -->
     <g transform="translate(21.078125 488.578125) rotate(-90) scale(0.2 -0.2)">
      <defs>
       <path id="Cmr10-52" d="M 213 0 
L 213 225 
Q 872 225 872 428 
L 872 3944 
Q 872 4147 213 4147 
L 213 4372 
L 2222 4372 
Q 2581 4372 2976 4242 
Q 3372 4113 3637 3847 
Q 3903 3581 3903 3213 
Q 3903 2944 3742 2733 
Q 3581 2522 3329 2380 
Q 3078 2238 2816 2175 
Q 3103 2075 3318 1856 
Q 3534 1638 3578 1356 
L 3669 788 
Q 3731 403 3800 214 
Q 3869 25 4103 25 
Q 4303 25 4401 211 
Q 4500 397 4500 616 
Q 4500 638 4520 655 
Q 4541 672 4563 672 
L 4622 672 
Q 4684 672 4684 588 
Q 4684 413 4615 245 
Q 4547 78 4417 -31 
Q 4288 -141 4109 -141 
Q 3647 -141 3314 89 
Q 2981 319 2981 763 
L 2981 1331 
Q 2981 1650 2759 1878 
Q 2538 2106 2216 2106 
L 1447 2106 
L 1447 428 
Q 1447 225 2106 225 
L 2106 0 
L 213 0 
z
M 1447 2272 
L 2131 2272 
Q 2663 2272 2941 2486 
Q 3219 2700 3219 3213 
Q 3219 3722 2944 3934 
Q 2669 4147 2131 4147 
L 1772 4147 
Q 1656 4147 1592 4137 
Q 1528 4128 1487 4083 
Q 1447 4038 1447 3944 
L 1447 2272 
z
" transform="scale(0.015625)"/>
       <path id="Cmr10-65" d="M 1594 -72 
Q 1203 -72 876 133 
Q 550 338 364 680 
Q 178 1022 178 1403 
Q 178 1778 348 2115 
Q 519 2453 823 2661 
Q 1128 2869 1503 2869 
Q 1797 2869 2014 2770 
Q 2231 2672 2372 2497 
Q 2513 2322 2584 2084 
Q 2656 1847 2656 1563 
Q 2656 1478 2591 1478 
L 738 1478 
L 738 1409 
Q 738 878 952 497 
Q 1166 116 1650 116 
Q 1847 116 2014 203 
Q 2181 291 2304 447 
Q 2428 603 2472 781 
Q 2478 803 2495 820 
Q 2513 838 2534 838 
L 2591 838 
Q 2656 838 2656 756 
Q 2566 394 2266 161 
Q 1966 -72 1594 -72 
z
M 744 1638 
L 2203 1638 
Q 2203 1878 2136 2125 
Q 2069 2372 1912 2536 
Q 1756 2700 1503 2700 
Q 1141 2700 942 2361 
Q 744 2022 744 1638 
z
" transform="scale(0.015625)"/>
       <path id="Cmr10-6c" d="M 197 0 
L 197 225 
Q 416 225 556 259 
Q 697 294 697 428 
L 697 3788 
Q 697 3959 645 4036 
Q 594 4113 497 4130 
Q 400 4147 197 4147 
L 197 4372 
L 1147 4441 
L 1147 428 
Q 1147 294 1287 259 
Q 1428 225 1644 225 
L 1644 0 
L 197 0 
z
" transform="scale(0.015625)"/>
      </defs>
      <use xlink:href="#Cmr10-52"/>
      <use xlink:href="#Cmr10-65" x="73.583984"/>
      <use xlink:href="#Cmr10-63" x="117.96875"/>
      <use xlink:href="#Cmr10-61" x="162.353516"/>
      <use xlink:href="#Cmr10-6c" x="212.353516"/>
      <use xlink:href="#Cmr10-6c" x="240.039062"/>
     </g>
    </g>
   </g>
   <g id="line2d_53">
    <path d="M 81.227914 511.568268 
L 84.52763 455.702177 
L 87.827347 436.362842 
L 91.127063 422.924902 
L 94.42678 416.504133 
L 97.726496 408.873089 
L 101.026213 403.903368 
L 104.32593 401.125863 
L 107.625646 397.322504 
L 110.925363 387.805109 
L 114.225079 385.945187 
L 117.524796 384.968796 
L 120.824512 381.65978 
L 124.124229 381.065442 
L 127.423945 381.680014 
L 130.723662 381.003932 
L 134.023378 379.545723 
L 137.323095 377.760644 
L 140.622811 372.393465 
L 143.922528 371.082659 
L 147.222245 370.679166 
L 150.521961 370.103778 
L 153.821678 369.240374 
L 157.121394 368.690343 
L 160.421111 365.570279 
L 163.720827 365.088109 
L 167.020544 364.135465 
L 170.32026 363.951739 
L 173.619977 363.765851 
L 176.919693 363.171999 
L 180.21941 363.273976 
L 183.519126 362.345138 
L 186.818843 362.456411 
L 190.11856 361.948997 
L 193.418276 361.625224 
L 196.717993 359.80966 
L 200.017709 359.306874 
L 203.317426 359.093416 
L 206.617142 357.904744 
L 209.916859 357.656756 
L 213.216575 357.455026 
L 216.516292 356.734561 
L 219.816008 356.646872 
L 223.115725 356.362211 
L 226.415441 356.257332 
L 229.715158 356.109871 
L 233.014875 356.05376 
L 236.314591 356.010654 
L 239.614308 355.677782 
L 242.914024 355.51506 
L 246.213741 355.449906 
L 249.513457 355.350751 
L 252.813174 355.370112 
L 256.11289 355.245372 
L 259.412607 354.868257 
L 262.712323 354.956924 
L 266.01204 354.81348 
L 269.311756 354.931795 
L 272.611473 354.765133 
L 275.91119 354.86077 
" clip-path="url(#p348d0f3af8)" style="fill: none; stroke: #0000ff; stroke-width: 1.5; stroke-linecap: square"/>
   </g>
   <g id="line2d_54">
    <path d="M 81.227914 568.844242 
L 84.52763 514.872786 
L 87.827347 490.656089 
L 91.127063 427.026264 
L 94.42678 427.763646 
L 97.726496 421.481078 
L 101.026213 410.408005 
L 104.32593 402.585836 
L 107.625646 404.110614 
L 110.925363 432.157518 
L 114.225079 423.020629 
L 117.524796 400.806455 
L 120.824512 409.851836 
L 124.124229 398.552989 
L 127.423945 446.657187 
L 130.723662 385.130062 
L 134.023378 403.919123 
L 137.323095 392.538455 
L 140.622811 387.64553 
L 143.922528 408.880595 
L 147.222245 390.523303 
L 150.521961 378.205759 
L 153.821678 384.331614 
L 157.121394 396.717373 
L 160.421111 381.074494 
L 163.720827 386.66129 
L 167.020544 377.708894 
L 170.32026 380.539133 
L 173.619977 376.97839 
L 176.919693 394.968469 
L 180.21941 377.347786 
L 183.519126 393.509591 
L 186.818843 383.0321 
L 190.11856 373.873509 
L 193.418276 378.587034 
L 196.717993 377.207032 
L 200.017709 382.528974 
L 203.317426 375.560364 
L 206.617142 374.099044 
L 209.916859 378.949892 
L 213.216575 368.028583 
L 216.516292 376.767914 
L 219.816008 376.320673 
L 223.115725 376.594638 
L 226.415441 377.513051 
L 229.715158 375.31795 
L 233.014875 371.185901 
L 236.314591 374.776546 
L 239.614308 372.843261 
L 242.914024 375.468987 
L 246.213741 375.077507 
L 249.513457 375.44159 
L 252.813174 372.836051 
L 256.11289 375.845463 
L 259.412607 374.097181 
L 262.712323 373.707274 
L 266.01204 375.788079 
L 269.311756 373.592151 
L 272.611473 373.922206 
L 275.91119 373.964789 
" clip-path="url(#p348d0f3af8)" style="fill: none; stroke: #008000; stroke-width: 1.5; stroke-linecap: square"/>
   </g>
   <g id="patch_18">
    <path d="M 71.49375 579.548197 
L 71.49375 344.061178 
" style="fill: none; stroke: #000000; stroke-width: 0.8; stroke-linejoin: miter; stroke-linecap: square"/>
   </g>
   <g id="patch_19">
    <path d="M 285.645353 579.548197 
L 285.645353 344.061178 
" style="fill: none; stroke: #000000; stroke-width: 0.8; stroke-linejoin: miter; stroke-linecap: square"/>
   </g>
   <g id="patch_20">
    <path d="M 71.49375 579.548198 
L 285.645353 579.548198 
" style="fill: none; stroke: #000000; stroke-width: 0.8; stroke-linejoin: miter; stroke-linecap: square"/>
   </g>
   <g id="patch_21">
    <path d="M 71.49375 344.061178 
L 285.645353 344.061178 
" style="fill: none; stroke: #000000; stroke-width: 0.8; stroke-linejoin: miter; stroke-linecap: square"/>
   </g>
   <g id="text_59">
    <!-- D -->
    <g transform="translate(72.428564 366.722704) scale(0.2 -0.2)">
     <defs>
      <path id="Cmr10-44" d="M 213 0 
L 213 225 
Q 872 225 872 428 
L 872 3944 
Q 872 4147 213 4147 
L 213 4372 
L 2572 4372 
Q 3009 4372 3371 4183 
Q 3734 3994 3990 3678 
Q 4247 3363 4386 2963 
Q 4525 2563 4525 2144 
Q 4525 1738 4384 1355 
Q 4244 972 3980 664 
Q 3716 356 3355 178 
Q 2994 0 2572 0 
L 213 0 
z
M 1447 428 
Q 1447 291 1525 258 
Q 1603 225 1772 225 
L 2406 225 
Q 2734 225 3029 367 
Q 3325 509 3519 763 
Q 3722 1031 3790 1364 
Q 3859 1697 3859 2144 
Q 3859 2609 3790 2959 
Q 3722 3309 3519 3584 
Q 3328 3856 3034 4001 
Q 2741 4147 2406 4147 
L 1772 4147 
Q 1656 4147 1592 4137 
Q 1528 4128 1487 4083 
Q 1447 4038 1447 3944 
L 1447 428 
z
" transform="scale(0.015625)"/>
     </defs>
     <use xlink:href="#Cmr10-44"/>
    </g>
   </g>
  </g>
  <g id="axes_5">
   <g id="patch_22">
    <path d="M 355.939583 579.548198 
L 570.091187 579.548198 
L 570.091187 344.061178 
L 355.939583 344.061178 
z
" style="fill: #ffffff"/>
   </g>
   <g id="matplotlib.axis_9">
    <g id="xtick_33">
     <g id="line2d_55">
      <g>
       <use xlink:href="#mf7d4906b23" x="365.673747" y="579.548198" style="stroke: #000000; stroke-width: 0.8"/>
      </g>
     </g>
     <g id="text_60">
      <!-- 0 -->
      <g transform="translate(360.673747 600.426322) scale(0.2 -0.2)">
       <use xlink:href="#Cmr10-30"/>
      </g>
     </g>
    </g>
    <g id="xtick_34">
     <g id="line2d_56">
      <g>
       <use xlink:href="#mf7d4906b23" x="392.071479" y="579.548198" style="stroke: #000000; stroke-width: 0.8"/>
      </g>
     </g>
     <g id="text_61">
      <!-- 8 -->
      <g transform="translate(387.071479 600.426322) scale(0.2 -0.2)">
       <use xlink:href="#Cmr10-38"/>
      </g>
     </g>
    </g>
    <g id="xtick_35">
     <g id="line2d_57">
      <g>
       <use xlink:href="#mf7d4906b23" x="418.469212" y="579.548198" style="stroke: #000000; stroke-width: 0.8"/>
      </g>
     </g>
     <g id="text_62">
      <!-- 16 -->
      <g transform="translate(408.469212 600.426322) scale(0.2 -0.2)">
       <use xlink:href="#Cmr10-31"/>
       <use xlink:href="#Cmr10-36" x="50"/>
      </g>
     </g>
    </g>
    <g id="xtick_36">
     <g id="line2d_58">
      <g>
       <use xlink:href="#mf7d4906b23" x="444.866944" y="579.548198" style="stroke: #000000; stroke-width: 0.8"/>
      </g>
     </g>
     <g id="text_63">
      <!-- 24 -->
      <g transform="translate(434.866944 600.426322) scale(0.2 -0.2)">
       <use xlink:href="#Cmr10-32"/>
       <use xlink:href="#Cmr10-34" x="50"/>
      </g>
     </g>
    </g>
    <g id="xtick_37">
     <g id="line2d_59">
      <g>
       <use xlink:href="#mf7d4906b23" x="471.264676" y="579.548198" style="stroke: #000000; stroke-width: 0.8"/>
      </g>
     </g>
     <g id="text_64">
      <!-- 32 -->
      <g transform="translate(461.264676 600.426322) scale(0.2 -0.2)">
       <use xlink:href="#Cmr10-33"/>
       <use xlink:href="#Cmr10-32" x="50"/>
      </g>
     </g>
    </g>
    <g id="xtick_38">
     <g id="line2d_60">
      <g>
       <use xlink:href="#mf7d4906b23" x="497.662409" y="579.548198" style="stroke: #000000; stroke-width: 0.8"/>
      </g>
     </g>
     <g id="text_65">
      <!-- 40 -->
      <g transform="translate(487.662409 600.426322) scale(0.2 -0.2)">
       <use xlink:href="#Cmr10-34"/>
       <use xlink:href="#Cmr10-30" x="50"/>
      </g>
     </g>
    </g>
    <g id="xtick_39">
     <g id="line2d_61">
      <g>
       <use xlink:href="#mf7d4906b23" x="524.060141" y="579.548198" style="stroke: #000000; stroke-width: 0.8"/>
      </g>
     </g>
     <g id="text_66">
      <!-- 48 -->
      <g transform="translate(514.060141 600.426322) scale(0.2 -0.2)">
       <use xlink:href="#Cmr10-34"/>
       <use xlink:href="#Cmr10-38" x="50"/>
      </g>
     </g>
    </g>
    <g id="xtick_40">
     <g id="line2d_62">
      <g>
       <use xlink:href="#mf7d4906b23" x="550.457873" y="579.548198" style="stroke: #000000; stroke-width: 0.8"/>
      </g>
     </g>
     <g id="text_67">
      <!-- 56 -->
      <g transform="translate(540.457873 600.426322) scale(0.2 -0.2)">
       <use xlink:href="#Cmr10-35"/>
       <use xlink:href="#Cmr10-36" x="50"/>
      </g>
     </g>
    </g>
    <g id="text_68">
     <!-- Epoch -->
     <g transform="translate(435.671635 622.182572) scale(0.2 -0.2)">
      <use xlink:href="#Cmr10-45"/>
      <use xlink:href="#Cmr10-70" x="68.017578"/>
      <use xlink:href="#Cmr10-6f" x="123.535156"/>
      <use xlink:href="#Cmr10-63" x="173.535156"/>
      <use xlink:href="#Cmr10-68" x="217.919922"/>
     </g>
    </g>
   </g>
   <g id="matplotlib.axis_10">
    <g id="ytick_15">
     <g id="line2d_63">
      <g>
       <use xlink:href="#m3deaf66d65" x="355.939583" y="544.320921" style="stroke: #000000; stroke-width: 0.8"/>
      </g>
     </g>
     <g id="text_69">
      <!-- 0.96 -->
      <g transform="translate(313.402083 551.259984) scale(0.2 -0.2)">
       <use xlink:href="#Cmr10-30"/>
       <use xlink:href="#Cmr10-2e" x="50"/>
       <use xlink:href="#Cmr10-39" x="77.685547"/>
       <use xlink:href="#Cmr10-36" x="127.685547"/>
      </g>
     </g>
    </g>
    <g id="ytick_16">
     <g id="line2d_64">
      <g>
       <use xlink:href="#m3deaf66d65" x="355.939583" y="490.8912" style="stroke: #000000; stroke-width: 0.8"/>
      </g>
     </g>
     <g id="text_70">
      <!-- 0.97 -->
      <g transform="translate(313.402083 497.830263) scale(0.2 -0.2)">
       <defs>
        <path id="Cmr10-37" d="M 1113 166 
Q 1113 522 1175 862 
Q 1238 1203 1358 1536 
Q 1478 1869 1648 2189 
Q 1819 2509 2022 2791 
L 2606 3603 
L 1875 3603 
Q 738 3603 703 3572 
Q 619 3469 544 2981 
L 359 2981 
L 569 4325 
L 756 4325 
L 756 4306 
Q 756 4191 1147 4156 
Q 1538 4122 1913 4122 
L 3103 4122 
L 3103 3956 
Q 3103 3950 3101 3947 
Q 3100 3944 3097 3938 
L 2216 2700 
Q 1891 2219 1809 1631 
Q 1728 1044 1728 166 
Q 1728 41 1637 -50 
Q 1547 -141 1422 -141 
Q 1294 -141 1203 -50 
Q 1113 41 1113 166 
z
" transform="scale(0.015625)"/>
       </defs>
       <use xlink:href="#Cmr10-30"/>
       <use xlink:href="#Cmr10-2e" x="50"/>
       <use xlink:href="#Cmr10-39" x="77.685547"/>
       <use xlink:href="#Cmr10-37" x="127.685547"/>
      </g>
     </g>
    </g>
    <g id="ytick_17">
     <g id="line2d_65">
      <g>
       <use xlink:href="#m3deaf66d65" x="355.939583" y="437.46148" style="stroke: #000000; stroke-width: 0.8"/>
      </g>
     </g>
     <g id="text_71">
      <!-- 0.98 -->
      <g transform="translate(313.402083 444.400542) scale(0.2 -0.2)">
       <use xlink:href="#Cmr10-30"/>
       <use xlink:href="#Cmr10-2e" x="50"/>
       <use xlink:href="#Cmr10-39" x="77.685547"/>
       <use xlink:href="#Cmr10-38" x="127.685547"/>
      </g>
     </g>
    </g>
    <g id="ytick_18">
     <g id="line2d_66">
      <g>
       <use xlink:href="#m3deaf66d65" x="355.939583" y="384.031759" style="stroke: #000000; stroke-width: 0.8"/>
      </g>
     </g>
     <g id="text_72">
      <!-- 0.99 -->
      <g transform="translate(313.402083 390.970821) scale(0.2 -0.2)">
       <use xlink:href="#Cmr10-30"/>
       <use xlink:href="#Cmr10-2e" x="50"/>
       <use xlink:href="#Cmr10-39" x="77.685547"/>
       <use xlink:href="#Cmr10-39" x="127.685547"/>
      </g>
     </g>
    </g>
    <g id="text_73">
     <!-- Precision -->
     <g transform="translate(305.523958 501.425) rotate(-90) scale(0.2 -0.2)">
      <defs>
       <path id="Cmr10-50" d="M 213 0 
L 213 225 
Q 872 225 872 428 
L 872 3944 
Q 872 4147 213 4147 
L 213 4372 
L 2491 4372 
Q 2841 4372 3191 4228 
Q 3541 4084 3767 3809 
Q 3994 3534 3994 3169 
Q 3994 2813 3766 2544 
Q 3538 2275 3191 2136 
Q 2844 1997 2491 1997 
L 1466 1997 
L 1466 428 
Q 1466 225 2125 225 
L 2125 0 
L 213 0 
z
M 1447 2188 
L 2316 2188 
Q 2669 2188 2887 2289 
Q 3106 2391 3207 2605 
Q 3309 2819 3309 3169 
Q 3309 3691 3079 3919 
Q 2850 4147 2316 4147 
L 1772 4147 
Q 1656 4147 1592 4137 
Q 1528 4128 1487 4083 
Q 1447 4038 1447 3944 
L 1447 2188 
z
" transform="scale(0.015625)"/>
       <path id="Cmr10-69" d="M 197 0 
L 197 225 
Q 416 225 556 259 
Q 697 294 697 428 
L 697 2175 
Q 697 2422 601 2478 
Q 506 2534 225 2534 
L 225 2759 
L 1147 2828 
L 1147 428 
Q 1147 294 1269 259 
Q 1391 225 1594 225 
L 1594 0 
L 197 0 
z
M 469 3928 
Q 469 4069 575 4175 
Q 681 4281 819 4281 
Q 909 4281 993 4234 
Q 1078 4188 1125 4103 
Q 1172 4019 1172 3928 
Q 1172 3791 1065 3684 
Q 959 3578 819 3578 
Q 681 3578 575 3684 
Q 469 3791 469 3928 
z
" transform="scale(0.015625)"/>
       <path id="Cmr10-6e" d="M 191 0 
L 191 225 
Q 409 225 550 259 
Q 691 294 691 428 
L 691 2175 
Q 691 2347 639 2423 
Q 588 2500 491 2517 
Q 394 2534 191 2534 
L 191 2759 
L 1119 2828 
L 1119 2203 
Q 1247 2478 1498 2653 
Q 1750 2828 2047 2828 
Q 2491 2828 2714 2615 
Q 2938 2403 2938 1966 
L 2938 428 
Q 2938 294 3078 259 
Q 3219 225 3438 225 
L 3438 0 
L 1972 0 
L 1972 225 
Q 2191 225 2331 259 
Q 2472 294 2472 428 
L 2472 1947 
Q 2472 2259 2381 2461 
Q 2291 2663 2009 2663 
Q 1638 2663 1398 2366 
Q 1159 2069 1159 1691 
L 1159 428 
Q 1159 294 1300 259 
Q 1441 225 1656 225 
L 1656 0 
L 191 0 
z
" transform="scale(0.015625)"/>
      </defs>
      <use xlink:href="#Cmr10-50"/>
      <use xlink:href="#Cmr10-72" x="68.017578"/>
      <use xlink:href="#Cmr10-65" x="107.128906"/>
      <use xlink:href="#Cmr10-63" x="151.513672"/>
      <use xlink:href="#Cmr10-69" x="195.898438"/>
      <use xlink:href="#Cmr10-73" x="223.583984"/>
      <use xlink:href="#Cmr10-69" x="262.988281"/>
      <use xlink:href="#Cmr10-6f" x="290.673828"/>
      <use xlink:href="#Cmr10-6e" x="340.673828"/>
     </g>
    </g>
   </g>
   <g id="line2d_67">
    <path d="M 365.673747 568.844242 
L 368.973464 469.041401 
L 372.27318 446.184893 
L 375.572897 431.520109 
L 378.872613 425.134589 
L 382.17233 417.190933 
L 385.472046 411.332376 
L 388.771763 407.863189 
L 392.071479 404.606139 
L 395.371196 393.054884 
L 398.670913 390.635039 
L 401.970629 389.998663 
L 405.270346 386.597039 
L 408.570062 386.146173 
L 411.869779 386.051227 
L 415.169495 385.097403 
L 418.469212 383.934877 
L 421.768928 381.621734 
L 425.068645 375.77253 
L 428.368361 374.579142 
L 431.668078 373.756272 
L 434.967794 373.205666 
L 438.267511 371.952964 
L 441.567228 371.241256 
L 444.866944 368.017834 
L 448.166661 366.853341 
L 451.466377 366.016095 
L 454.766094 365.824801 
L 458.06581 365.623026 
L 461.365527 364.813421 
L 464.665243 364.719919 
L 467.96496 363.779907 
L 471.264676 363.708594 
L 474.564393 363.15994 
L 477.864109 362.845851 
L 481.163826 360.563144 
L 484.463542 360.320001 
L 487.763259 359.959718 
L 491.062976 358.317621 
L 494.362692 358.255711 
L 497.662409 358.074817 
L 500.962125 357.193263 
L 504.261842 356.915756 
L 507.561558 356.734544 
L 510.861275 356.673938 
L 514.160991 356.621395 
L 517.460708 356.24647 
L 520.760424 356.405737 
L 524.060141 355.871435 
L 527.359857 355.776595 
L 530.659574 355.518686 
L 533.959291 355.496525 
L 537.259007 355.555871 
L 540.558724 355.544605 
L 543.85844 355.150435 
L 547.158157 355.007735 
L 550.457873 355.05831 
L 553.75759 354.959953 
L 557.057306 354.765133 
L 560.357023 355.089083 
" clip-path="url(#p0008c7cf99)" style="fill: none; stroke: #0000ff; stroke-width: 1.5; stroke-linecap: square"/>
   </g>
   <g id="line2d_68">
    <path d="M 365.673747 477.102615 
L 368.973464 556.56947 
L 372.27318 438.269241 
L 375.572897 469.822923 
L 378.872613 446.309636 
L 382.17233 488.032336 
L 385.472046 443.466547 
L 388.771763 482.09299 
L 392.071479 454.35169 
L 395.371196 384.937447 
L 398.670913 393.605813 
L 401.970629 410.727511 
L 405.270346 412.829467 
L 408.570062 412.209508 
L 411.869779 375.956394 
L 415.169495 414.777434 
L 418.469212 411.689296 
L 421.768928 425.233581 
L 425.068645 392.047052 
L 428.368361 383.468077 
L 431.668078 386.917678 
L 434.967794 399.558318 
L 438.267511 403.202573 
L 441.567228 390.641159 
L 444.866944 387.627632 
L 448.166661 382.004838 
L 451.466377 388.357902 
L 454.766094 387.498551 
L 458.06581 388.93411 
L 461.365527 375.000749 
L 464.665243 387.300353 
L 467.96496 369.938531 
L 471.264676 380.62536 
L 474.564393 396.587084 
L 477.864109 390.957804 
L 481.163826 381.649372 
L 484.463542 377.656867 
L 487.763259 384.868632 
L 491.062976 383.136756 
L 494.362692 378.021461 
L 497.662409 390.212517 
L 500.962125 377.975993 
L 504.261842 378.845499 
L 507.561558 377.822335 
L 510.861275 378.124389 
L 514.160991 379.096419 
L 517.460708 385.065072 
L 520.760424 379.898706 
L 524.060141 381.442342 
L 527.359857 378.893986 
L 530.659574 378.36479 
L 533.959291 378.335864 
L 537.259007 381.639706 
L 540.558724 377.244988 
L 543.85844 379.044168 
L 547.158157 379.859503 
L 550.457873 377.473583 
L 553.75759 379.09758 
L 557.057306 379.736302 
L 560.357023 379.190536 
" clip-path="url(#p0008c7cf99)" style="fill: none; stroke: #008000; stroke-width: 1.5; stroke-linecap: square"/>
   </g>
   <g id="patch_23">
    <path d="M 355.939583 579.548198 
L 355.939583 344.061178 
" style="fill: none; stroke: #000000; stroke-width: 0.8; stroke-linejoin: miter; stroke-linecap: square"/>
   </g>
   <g id="patch_24">
    <path d="M 570.091187 579.548198 
L 570.091187 344.061178 
" style="fill: none; stroke: #000000; stroke-width: 0.8; stroke-linejoin: miter; stroke-linecap: square"/>
   </g>
   <g id="patch_25">
    <path d="M 355.939583 579.548198 
L 570.091187 579.548198 
" style="fill: none; stroke: #000000; stroke-width: 0.8; stroke-linejoin: miter; stroke-linecap: square"/>
   </g>
   <g id="patch_26">
    <path d="M 355.939583 344.061178 
L 570.091187 344.061178 
" style="fill: none; stroke: #000000; stroke-width: 0.8; stroke-linejoin: miter; stroke-linecap: square"/>
   </g>
   <g id="text_74">
    <!-- E -->
    <g transform="translate(357.704085 366.722704) scale(0.2 -0.2)">
     <use xlink:href="#Cmr10-45"/>
    </g>
   </g>
  </g>
  <g id="axes_6">
   <g id="patch_27">
    <path d="M 651.047917 579.548198 
L 865.19952 579.548198 
L 865.19952 344.061178 
L 651.047917 344.061178 
z
" style="fill: #ffffff"/>
   </g>
   <g id="matplotlib.axis_11">
    <g id="xtick_41">
     <g id="line2d_69">
      <g>
       <use xlink:href="#mf7d4906b23" x="660.78208" y="579.548198" style="stroke: #000000; stroke-width: 0.8"/>
      </g>
     </g>
     <g id="text_75">
      <!-- 0 -->
      <g transform="translate(655.78208 600.426322) scale(0.2 -0.2)">
       <use xlink:href="#Cmr10-30"/>
      </g>
     </g>
    </g>
    <g id="xtick_42">
     <g id="line2d_70">
      <g>
       <use xlink:href="#mf7d4906b23" x="687.179813" y="579.548198" style="stroke: #000000; stroke-width: 0.8"/>
      </g>
     </g>
     <g id="text_76">
      <!-- 8 -->
      <g transform="translate(682.179813 600.426322) scale(0.2 -0.2)">
       <use xlink:href="#Cmr10-38"/>
      </g>
     </g>
    </g>
    <g id="xtick_43">
     <g id="line2d_71">
      <g>
       <use xlink:href="#mf7d4906b23" x="713.577545" y="579.548198" style="stroke: #000000; stroke-width: 0.8"/>
      </g>
     </g>
     <g id="text_77">
      <!-- 16 -->
      <g transform="translate(703.577545 600.426322) scale(0.2 -0.2)">
       <use xlink:href="#Cmr10-31"/>
       <use xlink:href="#Cmr10-36" x="50"/>
      </g>
     </g>
    </g>
    <g id="xtick_44">
     <g id="line2d_72">
      <g>
       <use xlink:href="#mf7d4906b23" x="739.975277" y="579.548198" style="stroke: #000000; stroke-width: 0.8"/>
      </g>
     </g>
     <g id="text_78">
      <!-- 24 -->
      <g transform="translate(729.975277 600.426322) scale(0.2 -0.2)">
       <use xlink:href="#Cmr10-32"/>
       <use xlink:href="#Cmr10-34" x="50"/>
      </g>
     </g>
    </g>
    <g id="xtick_45">
     <g id="line2d_73">
      <g>
       <use xlink:href="#mf7d4906b23" x="766.37301" y="579.548198" style="stroke: #000000; stroke-width: 0.8"/>
      </g>
     </g>
     <g id="text_79">
      <!-- 32 -->
      <g transform="translate(756.37301 600.426322) scale(0.2 -0.2)">
       <use xlink:href="#Cmr10-33"/>
       <use xlink:href="#Cmr10-32" x="50"/>
      </g>
     </g>
    </g>
    <g id="xtick_46">
     <g id="line2d_74">
      <g>
       <use xlink:href="#mf7d4906b23" x="792.770742" y="579.548198" style="stroke: #000000; stroke-width: 0.8"/>
      </g>
     </g>
     <g id="text_80">
      <!-- 40 -->
      <g transform="translate(782.770742 600.426322) scale(0.2 -0.2)">
       <use xlink:href="#Cmr10-34"/>
       <use xlink:href="#Cmr10-30" x="50"/>
      </g>
     </g>
    </g>
    <g id="xtick_47">
     <g id="line2d_75">
      <g>
       <use xlink:href="#mf7d4906b23" x="819.168474" y="579.548198" style="stroke: #000000; stroke-width: 0.8"/>
      </g>
     </g>
     <g id="text_81">
      <!-- 48 -->
      <g transform="translate(809.168474 600.426322) scale(0.2 -0.2)">
       <use xlink:href="#Cmr10-34"/>
       <use xlink:href="#Cmr10-38" x="50"/>
      </g>
     </g>
    </g>
    <g id="xtick_48">
     <g id="line2d_76">
      <g>
       <use xlink:href="#mf7d4906b23" x="845.566207" y="579.548198" style="stroke: #000000; stroke-width: 0.8"/>
      </g>
     </g>
     <g id="text_82">
      <!-- 56 -->
      <g transform="translate(835.566207 600.426322) scale(0.2 -0.2)">
       <use xlink:href="#Cmr10-35"/>
       <use xlink:href="#Cmr10-36" x="50"/>
      </g>
     </g>
    </g>
    <g id="text_83">
     <!-- Epoch -->
     <g transform="translate(730.779968 622.182572) scale(0.2 -0.2)">
      <use xlink:href="#Cmr10-45"/>
      <use xlink:href="#Cmr10-70" x="68.017578"/>
      <use xlink:href="#Cmr10-6f" x="123.535156"/>
      <use xlink:href="#Cmr10-63" x="173.535156"/>
      <use xlink:href="#Cmr10-68" x="217.919922"/>
     </g>
    </g>
   </g>
   <g id="matplotlib.axis_12">
    <g id="ytick_19">
     <g id="line2d_77">
      <g>
       <use xlink:href="#m3deaf66d65" x="651.047917" y="558.07924" style="stroke: #000000; stroke-width: 0.8"/>
      </g>
     </g>
     <g id="text_84">
      <!-- 0.96 -->
      <g transform="translate(608.510417 565.018302) scale(0.2 -0.2)">
       <use xlink:href="#Cmr10-30"/>
       <use xlink:href="#Cmr10-2e" x="50"/>
       <use xlink:href="#Cmr10-39" x="77.685547"/>
       <use xlink:href="#Cmr10-36" x="127.685547"/>
      </g>
     </g>
    </g>
    <g id="ytick_20">
     <g id="line2d_78">
      <g>
       <use xlink:href="#m3deaf66d65" x="651.047917" y="500.807354" style="stroke: #000000; stroke-width: 0.8"/>
      </g>
     </g>
     <g id="text_85">
      <!-- 0.97 -->
      <g transform="translate(608.510417 507.746417) scale(0.2 -0.2)">
       <use xlink:href="#Cmr10-30"/>
       <use xlink:href="#Cmr10-2e" x="50"/>
       <use xlink:href="#Cmr10-39" x="77.685547"/>
       <use xlink:href="#Cmr10-37" x="127.685547"/>
      </g>
     </g>
    </g>
    <g id="ytick_21">
     <g id="line2d_79">
      <g>
       <use xlink:href="#m3deaf66d65" x="651.047917" y="443.535469" style="stroke: #000000; stroke-width: 0.8"/>
      </g>
     </g>
     <g id="text_86">
      <!-- 0.98 -->
      <g transform="translate(608.510417 450.474531) scale(0.2 -0.2)">
       <use xlink:href="#Cmr10-30"/>
       <use xlink:href="#Cmr10-2e" x="50"/>
       <use xlink:href="#Cmr10-39" x="77.685547"/>
       <use xlink:href="#Cmr10-38" x="127.685547"/>
      </g>
     </g>
    </g>
    <g id="ytick_22">
     <g id="line2d_80">
      <g>
       <use xlink:href="#m3deaf66d65" x="651.047917" y="386.263583" style="stroke: #000000; stroke-width: 0.8"/>
      </g>
     </g>
     <g id="text_87">
      <!-- 0.99 -->
      <g transform="translate(608.510417 393.202646) scale(0.2 -0.2)">
       <use xlink:href="#Cmr10-30"/>
       <use xlink:href="#Cmr10-2e" x="50"/>
       <use xlink:href="#Cmr10-39" x="77.685547"/>
       <use xlink:href="#Cmr10-39" x="127.685547"/>
      </g>
     </g>
    </g>
    <g id="text_88">
     <!-- F1-score -->
     <g transform="translate(600.632292 498.382813) rotate(-90) scale(0.2 -0.2)">
      <defs>
       <path id="Cmr10-46" d="M 197 0 
L 197 225 
Q 856 225 856 428 
L 856 3944 
Q 856 4147 197 4147 
L 197 4372 
L 3725 4372 
L 3903 2906 
L 3719 2906 
Q 3675 3309 3601 3542 
Q 3528 3775 3387 3908 
Q 3247 4041 3011 4094 
Q 2775 4147 2363 4147 
L 1778 4147 
Q 1663 4147 1598 4137 
Q 1534 4128 1493 4083 
Q 1453 4038 1453 3944 
L 1453 2297 
L 1906 2297 
Q 2234 2297 2387 2355 
Q 2541 2413 2598 2566 
Q 2656 2719 2656 3047 
L 2841 3047 
L 2841 1325 
L 2656 1325 
Q 2656 1653 2598 1806 
Q 2541 1959 2387 2017 
Q 2234 2075 1906 2075 
L 1453 2075 
L 1453 428 
Q 1453 225 2272 225 
L 2272 0 
L 197 0 
z
" transform="scale(0.015625)"/>
       <path id="Cmr10-2d" d="M 72 1184 
L 72 1581 
L 1766 1581 
L 1766 1184 
L 72 1184 
z
" transform="scale(0.015625)"/>
      </defs>
      <use xlink:href="#Cmr10-46"/>
      <use xlink:href="#Cmr10-31" x="65.185547"/>
      <use xlink:href="#Cmr10-2d" x="115.185547"/>
      <use xlink:href="#Cmr10-73" x="148.486328"/>
      <use xlink:href="#Cmr10-63" x="187.890625"/>
      <use xlink:href="#Cmr10-6f" x="232.275391"/>
      <use xlink:href="#Cmr10-72" x="282.275391"/>
      <use xlink:href="#Cmr10-65" x="321.386719"/>
     </g>
    </g>
   </g>
   <g id="line2d_81">
    <path d="M 660.78208 568.844242 
L 664.081797 479.065752 
L 667.381514 454.669032 
L 670.68123 438.456575 
L 673.980947 430.970612 
L 677.280663 421.969125 
L 680.58038 415.733314 
L 683.880096 412.135724 
L 687.179813 408.023321 
L 690.479529 395.883016 
L 693.779246 393.428349 
L 697.078962 392.475286 
L 700.378679 388.596628 
L 703.678395 387.975497 
L 706.978112 388.314776 
L 710.277829 387.37256 
L 713.577545 385.845511 
L 716.877262 383.498031 
L 720.176978 377.010073 
L 723.476695 375.557398 
L 726.776411 374.863416 
L 730.076128 374.208983 
L 733.375844 372.996985 
L 736.675561 372.271492 
L 739.975277 368.598717 
L 743.274994 367.67747 
L 746.57471 366.631492 
L 749.874427 366.415884 
L 753.174144 366.194363 
L 756.47386 365.389095 
L 759.773577 365.405453 
L 763.073293 364.322339 
L 766.37301 364.350553 
L 769.672726 363.739647 
L 772.972443 363.370132 
L 776.272159 361.015034 
L 779.571876 360.571102 
L 782.871592 360.245141 
L 786.171309 358.624388 
L 789.471025 358.436489 
L 792.770742 358.214406 
L 796.070459 357.29287 
L 799.370175 357.089633 
L 802.669892 356.814923 
L 805.969608 356.718282 
L 809.269325 356.597901 
L 812.569041 356.361076 
L 815.868758 356.420334 
L 819.168474 355.925914 
L 822.468191 355.773969 
L 825.767907 355.595564 
L 829.067624 355.521438 
L 832.36734 355.565424 
L 835.667057 355.481808 
L 838.966774 355.035616 
L 842.26649 355.014569 
L 845.566207 354.952131 
L 848.865923 354.973236 
L 852.16564 354.765133 
L 855.465356 354.997929 
" clip-path="url(#p85d07a9ab3)" style="fill: none; stroke: #0000ff; stroke-width: 1.5; stroke-linecap: square"/>
   </g>
   <g id="line2d_82">
    <path d="M 660.78208 554.50988 
L 664.081797 562.738369 
L 667.381514 484.396018 
L 670.68123 461.480996 
L 673.980947 449.29087 
L 677.280663 467.889638 
L 680.58038 436.969463 
L 683.880096 453.087829 
L 687.179813 438.944603 
L 690.479529 419.276111 
L 693.779246 418.14472 
L 697.078962 413.416103 
L 700.378679 420.167459 
L 703.678395 412.804403 
L 706.978112 423.707094 
L 710.277829 405.863709 
L 713.577545 415.865051 
L 716.877262 416.084401 
L 720.176978 395.206417 
L 723.476695 403.881203 
L 726.776411 394.250724 
L 730.076128 393.376363 
L 733.375844 399.13949 
L 736.675561 400.109285 
L 739.975277 388.749916 
L 743.274994 389.21531 
L 746.57471 387.050476 
L 749.874427 388.347291 
L 753.174144 386.903996 
L 756.47386 390.660625 
L 759.773577 386.257476 
L 763.073293 387.050942 
L 766.37301 386.217194 
L 769.672726 389.094582 
L 772.972443 388.993205 
L 776.272159 383.139232 
L 779.571876 384.31491 
L 782.871592 383.840563 
L 786.171309 382.002989 
L 789.471025 382.283468 
L 792.770742 382.036467 
L 796.070459 380.895417 
L 799.370175 381.082971 
L 802.669892 380.705126 
L 805.969608 381.444571 
L 809.269325 380.593937 
L 812.569041 381.229336 
L 815.868758 380.687452 
L 819.168474 380.313155 
L 822.468191 380.579595 
L 825.767907 380.05213 
L 829.067624 380.262546 
L 832.36734 380.41457 
L 835.667057 379.929901 
L 838.966774 379.806321 
L 842.26649 380.001199 
L 845.566207 380.016695 
L 848.865923 379.520698 
L 852.16564 380.069044 
L 855.465356 379.802004 
" clip-path="url(#p85d07a9ab3)" style="fill: none; stroke: #008000; stroke-width: 1.5; stroke-linecap: square"/>
   </g>
   <g id="patch_28">
    <path d="M 651.047917 579.548197 
L 651.047917 344.061178 
" style="fill: none; stroke: #000000; stroke-width: 0.8; stroke-linejoin: miter; stroke-linecap: square"/>
   </g>
   <g id="patch_29">
    <path d="M 865.19952 579.548197 
L 865.19952 344.061178 
" style="fill: none; stroke: #000000; stroke-width: 0.8; stroke-linejoin: miter; stroke-linecap: square"/>
   </g>
   <g id="patch_30">
    <path d="M 651.047917 579.548198 
L 865.19952 579.548198 
" style="fill: none; stroke: #000000; stroke-width: 0.8; stroke-linejoin: miter; stroke-linecap: square"/>
   </g>
   <g id="patch_31">
    <path d="M 651.047917 344.061178 
L 865.19952 344.061178 
" style="fill: none; stroke: #000000; stroke-width: 0.8; stroke-linejoin: miter; stroke-linecap: square"/>
   </g>
   <g id="text_89">
    <!-- F -->
    <g transform="translate(653.095231 366.722704) scale(0.2 -0.2)">
     <use xlink:href="#Cmr10-46"/>
    </g>
   </g>
  </g>
  <g id="legend_1">
   <g id="patch_32">
    <path d="M 234.19976 41.321875 
L 660.696635 41.321875 
Q 664.696635 41.321875 664.696635 37.321875 
L 664.696635 11.2 
Q 664.696635 7.2 660.696635 7.2 
L 234.19976 7.2 
Q 230.19976 7.2 230.19976 11.2 
L 230.19976 37.321875 
Q 230.19976 41.321875 234.19976 41.321875 
z
" style="fill: #ffffff; opacity: 0.8; stroke: #cccccc; stroke-linejoin: miter"/>
   </g>
   <g id="line2d_83">
    <path d="M 238.19976 22.2 
L 258.19976 22.2 
L 278.19976 22.2 
" style="fill: none; stroke: #0000ff; stroke-width: 1.5; stroke-linecap: square"/>
   </g>
   <g id="text_90">
    <!-- Training Data -->
    <g transform="translate(294.19976 29.2) scale(0.2 -0.2)">
     <defs>
      <path id="Cmr10-54" d="M 1081 0 
L 1081 225 
Q 1403 225 1706 261 
Q 2009 297 2009 428 
L 2009 3944 
Q 2009 4081 1932 4114 
Q 1856 4147 1684 4147 
L 1416 4147 
Q 888 4147 666 3916 
Q 550 3800 500 3545 
Q 450 3291 416 2906 
L 231 2906 
L 353 4372 
L 4263 4372 
L 4384 2906 
L 4197 2906 
Q 4159 3319 4114 3561 
Q 4069 3803 3950 3916 
Q 3725 4147 3200 4147 
L 2931 4147 
Q 2816 4147 2752 4137 
Q 2688 4128 2647 4083 
Q 2606 4038 2606 3944 
L 2606 428 
Q 2606 297 2909 261 
Q 3213 225 3531 225 
L 3531 0 
L 1081 0 
z
" transform="scale(0.015625)"/>
      <path id="Cmr10-67" d="M 178 -500 
Q 178 -272 343 -101 
Q 509 69 738 141 
Q 609 238 542 384 
Q 475 531 475 697 
Q 475 997 666 1228 
Q 372 1516 372 1888 
Q 372 2088 458 2263 
Q 544 2438 697 2566 
Q 850 2694 1037 2761 
Q 1225 2828 1422 2828 
Q 1803 2828 2106 2606 
Q 2238 2747 2417 2823 
Q 2597 2900 2791 2900 
Q 2928 2900 3015 2801 
Q 3103 2703 3103 2566 
Q 3103 2488 3043 2428 
Q 2984 2369 2906 2369 
Q 2825 2369 2765 2428 
Q 2706 2488 2706 2566 
Q 2706 2684 2784 2731 
Q 2453 2731 2216 2503 
Q 2331 2388 2401 2220 
Q 2472 2053 2472 1888 
Q 2472 1616 2322 1398 
Q 2172 1181 1926 1061 
Q 1681 941 1422 941 
Q 1072 941 781 1131 
Q 691 1006 691 850 
Q 691 681 802 554 
Q 913 428 1081 428 
L 1606 428 
Q 1988 428 2294 359 
Q 2600 291 2808 84 
Q 3016 -122 3016 -500 
Q 3016 -781 2778 -967 
Q 2541 -1153 2211 -1236 
Q 1881 -1319 1600 -1319 
Q 1316 -1319 984 -1236 
Q 653 -1153 415 -967 
Q 178 -781 178 -500 
z
M 538 -500 
Q 538 -716 713 -861 
Q 888 -1006 1134 -1076 
Q 1381 -1147 1600 -1147 
Q 1816 -1147 2062 -1076 
Q 2309 -1006 2482 -861 
Q 2656 -716 2656 -500 
Q 2656 -166 2350 -67 
Q 2044 31 1606 31 
L 1081 31 
Q 934 31 811 -39 
Q 688 -109 613 -236 
Q 538 -363 538 -500 
z
M 1422 1113 
Q 1966 1113 1966 1888 
Q 1966 2222 1850 2439 
Q 1734 2656 1422 2656 
Q 1109 2656 993 2439 
Q 878 2222 878 1888 
Q 878 1675 922 1503 
Q 966 1331 1084 1222 
Q 1203 1113 1422 1113 
z
" transform="scale(0.015625)"/>
      <path id="Cmr10-20" transform="scale(0.015625)"/>
      <path id="Cmr10-74" d="M 653 769 
L 653 2534 
L 122 2534 
L 122 2700 
Q 541 2700 737 3090 
Q 934 3481 934 3938 
L 1119 3938 
L 1119 2759 
L 2022 2759 
L 2022 2534 
L 1119 2534 
L 1119 781 
Q 1119 516 1208 316 
Q 1297 116 1528 116 
Q 1747 116 1844 327 
Q 1941 538 1941 781 
L 1941 1159 
L 2125 1159 
L 2125 769 
Q 2125 569 2051 373 
Q 1978 178 1834 53 
Q 1691 -72 1484 -72 
Q 1100 -72 876 158 
Q 653 388 653 769 
z
" transform="scale(0.015625)"/>
     </defs>
     <use xlink:href="#Cmr10-54"/>
     <use xlink:href="#Cmr10-72" x="72.216797"/>
     <use xlink:href="#Cmr10-61" x="111.328125"/>
     <use xlink:href="#Cmr10-69" x="161.328125"/>
     <use xlink:href="#Cmr10-6e" x="189.013672"/>
     <use xlink:href="#Cmr10-69" x="244.53125"/>
     <use xlink:href="#Cmr10-6e" x="272.216797"/>
     <use xlink:href="#Cmr10-67" x="327.734375"/>
     <use xlink:href="#Cmr10-20" x="377.734375"/>
     <use xlink:href="#Cmr10-44" x="411.035156"/>
     <use xlink:href="#Cmr10-61" x="487.353516"/>
     <use xlink:href="#Cmr10-74" x="537.353516"/>
     <use xlink:href="#Cmr10-61" x="576.171875"/>
    </g>
   </g>
   <g id="line2d_84">
    <path d="M 459.43101 22.2 
L 479.43101 22.2 
L 499.43101 22.2 
" style="fill: none; stroke: #008000; stroke-width: 1.5; stroke-linecap: square"/>
   </g>
   <g id="text_91">
    <!-- Validation Data -->
    <g transform="translate(515.43101 29.2) scale(0.2 -0.2)">
     <defs>
      <path id="Cmr10-56" d="M 2253 -72 
L 744 3944 
Q 688 4078 528 4112 
Q 369 4147 122 4147 
L 122 4372 
L 1881 4372 
L 1881 4147 
Q 1350 4147 1350 3981 
Q 1353 3972 1354 3964 
Q 1356 3956 1356 3944 
L 2584 678 
L 3744 3769 
Q 3756 3794 3756 3847 
Q 3756 4003 3612 4075 
Q 3469 4147 3291 4147 
L 3291 4372 
L 4672 4372 
L 4672 4147 
Q 4431 4147 4248 4058 
Q 4066 3969 3988 3769 
L 2541 -72 
Q 2522 -141 2438 -141 
L 2356 -141 
Q 2272 -141 2253 -72 
z
" transform="scale(0.015625)"/>
      <path id="Cmr10-64" d="M 1563 -72 
Q 1184 -72 871 133 
Q 559 338 386 672 
Q 213 1006 213 1381 
Q 213 1769 402 2101 
Q 591 2434 916 2631 
Q 1241 2828 1631 2828 
Q 1866 2828 2075 2729 
Q 2284 2631 2438 2456 
L 2438 3788 
Q 2438 3959 2386 4036 
Q 2334 4113 2239 4130 
Q 2144 4147 1941 4147 
L 1941 4372 
L 2888 4441 
L 2888 581 
Q 2888 413 2939 336 
Q 2991 259 3086 242 
Q 3181 225 3384 225 
L 3384 0 
L 2419 -72 
L 2419 331 
Q 2253 141 2025 34 
Q 1797 -72 1563 -72 
z
M 909 556 
Q 1019 347 1201 222 
Q 1384 97 1600 97 
Q 1866 97 2087 250 
Q 2309 403 2419 647 
L 2419 2181 
Q 2344 2322 2230 2433 
Q 2116 2544 1973 2603 
Q 1831 2663 1672 2663 
Q 1338 2663 1134 2473 
Q 931 2284 850 1990 
Q 769 1697 769 1375 
Q 769 1119 795 928 
Q 822 738 909 556 
z
" transform="scale(0.015625)"/>
     </defs>
     <use xlink:href="#Cmr10-56"/>
     <use xlink:href="#Cmr10-61" x="75"/>
     <use xlink:href="#Cmr10-6c" x="125"/>
     <use xlink:href="#Cmr10-69" x="152.685547"/>
     <use xlink:href="#Cmr10-64" x="180.371094"/>
     <use xlink:href="#Cmr10-61" x="235.888672"/>
     <use xlink:href="#Cmr10-74" x="285.888672"/>
     <use xlink:href="#Cmr10-69" x="324.707031"/>
     <use xlink:href="#Cmr10-6f" x="352.392578"/>
     <use xlink:href="#Cmr10-6e" x="402.392578"/>
     <use xlink:href="#Cmr10-20" x="457.910156"/>
     <use xlink:href="#Cmr10-44" x="491.210938"/>
     <use xlink:href="#Cmr10-61" x="567.529297"/>
     <use xlink:href="#Cmr10-74" x="617.529297"/>
     <use xlink:href="#Cmr10-61" x="656.347656"/>
    </g>
   </g>
  </g>
 </g>
 <defs>
  <clipPath id="p19a80c92e6">
   <rect x="71.49375" y="56.061178" width="214.151603" height="235.48702"/>
  </clipPath>
  <clipPath id="pb28e91c886">
   <rect x="355.939583" y="56.061178" width="214.151603" height="235.48702"/>
  </clipPath>
  <clipPath id="p285bf8de4c">
   <rect x="651.047917" y="56.061178" width="214.151603" height="235.48702"/>
  </clipPath>
  <clipPath id="p348d0f3af8">
   <rect x="71.49375" y="344.061178" width="214.151603" height="235.48702"/>
  </clipPath>
  <clipPath id="p0008c7cf99">
   <rect x="355.939583" y="344.061178" width="214.151603" height="235.48702"/>
  </clipPath>
  <clipPath id="p85d07a9ab3">
   <rect x="651.047917" y="344.061178" width="214.151603" height="235.48702"/>
  </clipPath>
 </defs>
</svg>
