<?xml version="1.0" encoding="utf-8" standalone="no"?>
<!DOCTYPE svg PUBLIC "-//W3C//DTD SVG 1.1//EN"
  "http://www.w3.org/Graphics/SVG/1.1/DTD/svg11.dtd">
<svg xmlns:xlink="http://www.w3.org/1999/xlink" width="864pt" height="576pt" viewBox="0 0 864 576" xmlns="http://www.w3.org/2000/svg" version="1.1">
 <metadata>
  <rdf:RDF xmlns:dc="http://purl.org/dc/elements/1.1/" xmlns:cc="http://creativecommons.org/ns#" xmlns:rdf="http://www.w3.org/1999/02/22-rdf-syntax-ns#">
   <cc:Work>
    <dc:type rdf:resource="http://purl.org/dc/dcmitype/StillImage"/>
    <dc:date>2024-06-19T15:38:03.575466</dc:date>
    <dc:format>image/svg+xml</dc:format>
    <dc:creator>
     <cc:Agent>
      <dc:title>Matplotlib v3.8.0, https://matplotlib.org/</dc:title>
     </cc:Agent>
    </dc:creator>
   </cc:Work>
  </rdf:RDF>
 </metadata>
 <defs>
  <style type="text/css">*{stroke-linejoin: round; stroke-linecap: butt}</style>
 </defs>
 <g id="figure_1">
  <g id="patch_1">
   <path d="M 0 576 
L 864 576 
L 864 0 
L 0 0 
z
" style="fill: #ffffff"/>
  </g>
  <g id="axes_1">
   <g id="patch_2">
    <path d="M 67.29399 238.48726 
L 278.11226 238.48726 
L 278.11226 3.00024 
L 67.29399 3.00024 
z
" style="fill: #ffffff"/>
   </g>
   <g id="matplotlib.axis_1">
    <g id="xtick_1">
     <g id="line2d_1">
      <defs>
       <path id="md2d93c245e" d="M 0 0 
L 0 3.5 
" style="stroke: #000000; stroke-width: 0.8"/>
      </defs>
      <g>
       <use xlink:href="#md2d93c245e" x="76.876639" y="238.48726" style="stroke: #000000; stroke-width: 0.8"/>
      </g>
     </g>
     <g id="text_1">
      <!-- 0 -->
      <g transform="translate(71.876639 259.365385) scale(0.2 -0.2)">
       <defs>
        <path id="Cmr10-30" d="M 1600 -141 
Q 816 -141 533 504 
Q 250 1150 250 2041 
Q 250 2597 351 3087 
Q 453 3578 754 3920 
Q 1056 4263 1600 4263 
Q 2022 4263 2290 4056 
Q 2559 3850 2700 3523 
Q 2841 3197 2892 2823 
Q 2944 2450 2944 2041 
Q 2944 1491 2842 1011 
Q 2741 531 2444 195 
Q 2147 -141 1600 -141 
z
M 1600 25 
Q 1956 25 2131 390 
Q 2306 756 2347 1200 
Q 2388 1644 2388 2144 
Q 2388 2625 2347 3031 
Q 2306 3438 2132 3767 
Q 1959 4097 1600 4097 
Q 1238 4097 1063 3765 
Q 888 3434 847 3029 
Q 806 2625 806 2144 
Q 806 1788 823 1472 
Q 841 1156 916 820 
Q 991 484 1158 254 
Q 1325 25 1600 25 
z
" transform="scale(0.015625)"/>
       </defs>
       <use xlink:href="#Cmr10-30"/>
      </g>
     </g>
    </g>
    <g id="xtick_2">
     <g id="line2d_2">
      <g>
       <use xlink:href="#md2d93c245e" x="102.863482" y="238.48726" style="stroke: #000000; stroke-width: 0.8"/>
      </g>
     </g>
     <g id="text_2">
      <!-- 8 -->
      <g transform="translate(97.863482 259.365385) scale(0.2 -0.2)">
       <defs>
        <path id="Cmr10-38" d="M 269 972 
Q 269 1356 522 1651 
Q 775 1947 1172 2144 
L 934 2297 
Q 716 2441 578 2680 
Q 441 2919 441 3181 
Q 441 3488 602 3734 
Q 763 3981 1030 4122 
Q 1297 4263 1600 4263 
Q 1884 4263 2148 4147 
Q 2413 4031 2583 3815 
Q 2753 3600 2753 3303 
Q 2753 3088 2651 2903 
Q 2550 2719 2373 2572 
Q 2197 2425 1997 2322 
L 2363 2088 
Q 2616 1922 2770 1653 
Q 2925 1384 2925 1088 
Q 2925 741 2739 456 
Q 2553 172 2247 15 
Q 1941 -141 1600 -141 
Q 1269 -141 961 -6 
Q 653 128 461 383 
Q 269 638 269 972 
z
M 616 972 
Q 616 719 755 509 
Q 894 300 1122 181 
Q 1350 63 1600 63 
Q 1972 63 2275 280 
Q 2578 497 2578 856 
Q 2578 978 2529 1098 
Q 2481 1219 2395 1317 
Q 2309 1416 2203 1478 
L 1344 2034 
Q 1144 1928 976 1765 
Q 809 1603 712 1400 
Q 616 1197 616 972 
z
M 1056 2925 
L 1831 2425 
Q 2100 2581 2272 2803 
Q 2444 3025 2444 3303 
Q 2444 3519 2323 3698 
Q 2203 3878 2009 3978 
Q 1816 4078 1594 4078 
Q 1400 4078 1203 4003 
Q 1006 3928 878 3779 
Q 750 3631 750 3431 
Q 750 3131 1056 2925 
z
" transform="scale(0.015625)"/>
       </defs>
       <use xlink:href="#Cmr10-38"/>
      </g>
     </g>
    </g>
    <g id="xtick_3">
     <g id="line2d_3">
      <g>
       <use xlink:href="#md2d93c245e" x="128.850326" y="238.48726" style="stroke: #000000; stroke-width: 0.8"/>
      </g>
     </g>
     <g id="text_3">
      <!-- 16 -->
      <g transform="translate(118.850326 259.365385) scale(0.2 -0.2)">
       <defs>
        <path id="Cmr10-31" d="M 594 0 
L 594 225 
Q 1394 225 1394 428 
L 1394 3788 
Q 1063 3628 556 3628 
L 556 3853 
Q 1341 3853 1741 4263 
L 1831 4263 
Q 1853 4263 1873 4245 
Q 1894 4228 1894 4206 
L 1894 428 
Q 1894 225 2694 225 
L 2694 0 
L 594 0 
z
" transform="scale(0.015625)"/>
        <path id="Cmr10-36" d="M 1600 -141 
Q 1203 -141 937 70 
Q 672 281 526 617 
Q 381 953 325 1322 
Q 269 1691 269 2069 
Q 269 2575 466 3084 
Q 663 3594 1045 3928 
Q 1428 4263 1953 4263 
Q 2172 4263 2361 4180 
Q 2550 4097 2658 3936 
Q 2766 3775 2766 3547 
Q 2766 3416 2677 3327 
Q 2588 3238 2456 3238 
Q 2331 3238 2240 3328 
Q 2150 3419 2150 3547 
Q 2150 3672 2240 3762 
Q 2331 3853 2456 3853 
L 2491 3853 
Q 2409 3969 2261 4023 
Q 2113 4078 1953 4078 
Q 1759 4078 1595 3993 
Q 1431 3909 1300 3765 
Q 1169 3622 1081 3448 
Q 994 3275 945 3053 
Q 897 2831 884 2637 
Q 872 2444 872 2150 
Q 984 2413 1190 2580 
Q 1397 2747 1656 2747 
Q 1941 2747 2175 2631 
Q 2409 2516 2578 2311 
Q 2747 2106 2836 1843 
Q 2925 1581 2925 1313 
Q 2925 938 2758 598 
Q 2591 259 2287 59 
Q 1984 -141 1600 -141 
z
M 1600 63 
Q 1847 63 1997 175 
Q 2147 288 2217 473 
Q 2288 659 2305 848 
Q 2322 1038 2322 1313 
Q 2322 1675 2287 1931 
Q 2253 2188 2100 2383 
Q 1947 2578 1631 2578 
Q 1372 2578 1205 2403 
Q 1038 2228 961 1961 
Q 884 1694 884 1447 
Q 884 1363 891 1319 
Q 891 1309 889 1303 
Q 888 1297 884 1288 
Q 884 1013 940 731 
Q 997 450 1156 256 
Q 1316 63 1600 63 
z
" transform="scale(0.015625)"/>
       </defs>
       <use xlink:href="#Cmr10-31"/>
       <use xlink:href="#Cmr10-36" x="50"/>
      </g>
     </g>
    </g>
    <g id="xtick_4">
     <g id="line2d_4">
      <g>
       <use xlink:href="#md2d93c245e" x="154.83717" y="238.48726" style="stroke: #000000; stroke-width: 0.8"/>
      </g>
     </g>
     <g id="text_4">
      <!-- 24 -->
      <g transform="translate(144.83717 259.365385) scale(0.2 -0.2)">
       <defs>
        <path id="Cmr10-32" d="M 319 0 
L 319 172 
Q 319 188 331 206 
L 1325 1306 
Q 1550 1550 1690 1715 
Q 1831 1881 1968 2097 
Q 2106 2313 2186 2536 
Q 2266 2759 2266 3009 
Q 2266 3272 2169 3511 
Q 2072 3750 1880 3894 
Q 1688 4038 1416 4038 
Q 1138 4038 916 3870 
Q 694 3703 603 3438 
Q 628 3444 672 3444 
Q 816 3444 917 3347 
Q 1019 3250 1019 3097 
Q 1019 2950 917 2848 
Q 816 2747 672 2747 
Q 522 2747 420 2851 
Q 319 2956 319 3097 
Q 319 3338 409 3548 
Q 500 3759 670 3923 
Q 841 4088 1055 4175 
Q 1269 4263 1509 4263 
Q 1875 4263 2190 4108 
Q 2506 3953 2690 3670 
Q 2875 3388 2875 3009 
Q 2875 2731 2753 2481 
Q 2631 2231 2440 2026 
Q 2250 1822 1953 1562 
Q 1656 1303 1563 1216 
L 838 519 
L 1453 519 
Q 1906 519 2211 526 
Q 2516 534 2534 550 
Q 2609 631 2688 1141 
L 2875 1141 
L 2694 0 
L 319 0 
z
" transform="scale(0.015625)"/>
        <path id="Cmr10-34" d="M 178 1056 
L 178 1281 
L 2156 4231 
Q 2178 4263 2222 4263 
L 2316 4263 
Q 2388 4263 2388 4191 
L 2388 1281 
L 3016 1281 
L 3016 1056 
L 2388 1056 
L 2388 428 
Q 2388 297 2575 261 
Q 2763 225 3009 225 
L 3009 0 
L 1247 0 
L 1247 225 
Q 1494 225 1681 261 
Q 1869 297 1869 428 
L 1869 1056 
L 178 1056 
z
M 391 1281 
L 1906 1281 
L 1906 3547 
L 391 1281 
z
" transform="scale(0.015625)"/>
       </defs>
       <use xlink:href="#Cmr10-32"/>
       <use xlink:href="#Cmr10-34" x="50"/>
      </g>
     </g>
    </g>
    <g id="xtick_5">
     <g id="line2d_5">
      <g>
       <use xlink:href="#md2d93c245e" x="180.824014" y="238.48726" style="stroke: #000000; stroke-width: 0.8"/>
      </g>
     </g>
     <g id="text_5">
      <!-- 32 -->
      <g transform="translate(170.824014 259.365385) scale(0.2 -0.2)">
       <defs>
        <path id="Cmr10-33" d="M 609 494 
Q 759 275 1012 169 
Q 1266 63 1556 63 
Q 1928 63 2084 380 
Q 2241 697 2241 1100 
Q 2241 1281 2208 1462 
Q 2175 1644 2097 1800 
Q 2019 1956 1883 2050 
Q 1747 2144 1550 2144 
L 1125 2144 
Q 1069 2144 1069 2203 
L 1069 2259 
Q 1069 2309 1125 2309 
L 1478 2338 
Q 1703 2338 1851 2506 
Q 2000 2675 2069 2917 
Q 2138 3159 2138 3378 
Q 2138 3684 1994 3881 
Q 1850 4078 1556 4078 
Q 1313 4078 1091 3986 
Q 869 3894 738 3706 
Q 750 3709 759 3711 
Q 769 3713 781 3713 
Q 925 3713 1022 3613 
Q 1119 3513 1119 3372 
Q 1119 3234 1022 3134 
Q 925 3034 781 3034 
Q 641 3034 541 3134 
Q 441 3234 441 3372 
Q 441 3647 606 3850 
Q 772 4053 1033 4158 
Q 1294 4263 1556 4263 
Q 1750 4263 1965 4205 
Q 2181 4147 2356 4039 
Q 2531 3931 2642 3762 
Q 2753 3594 2753 3378 
Q 2753 3109 2633 2881 
Q 2513 2653 2303 2487 
Q 2094 2322 1844 2241 
Q 2122 2188 2372 2031 
Q 2622 1875 2773 1631 
Q 2925 1388 2925 1106 
Q 2925 753 2731 467 
Q 2538 181 2222 20 
Q 1906 -141 1556 -141 
Q 1256 -141 954 -26 
Q 653 88 461 316 
Q 269 544 269 863 
Q 269 1022 375 1128 
Q 481 1234 641 1234 
Q 744 1234 830 1186 
Q 916 1138 964 1050 
Q 1013 963 1013 863 
Q 1013 706 903 600 
Q 794 494 641 494 
L 609 494 
z
" transform="scale(0.015625)"/>
       </defs>
       <use xlink:href="#Cmr10-33"/>
       <use xlink:href="#Cmr10-32" x="50"/>
      </g>
     </g>
    </g>
    <g id="xtick_6">
     <g id="line2d_6">
      <g>
       <use xlink:href="#md2d93c245e" x="206.810857" y="238.48726" style="stroke: #000000; stroke-width: 0.8"/>
      </g>
     </g>
     <g id="text_6">
      <!-- 40 -->
      <g transform="translate(196.810857 259.365385) scale(0.2 -0.2)">
       <use xlink:href="#Cmr10-34"/>
       <use xlink:href="#Cmr10-30" x="50"/>
      </g>
     </g>
    </g>
    <g id="xtick_7">
     <g id="line2d_7">
      <g>
       <use xlink:href="#md2d93c245e" x="232.797701" y="238.48726" style="stroke: #000000; stroke-width: 0.8"/>
      </g>
     </g>
     <g id="text_7">
      <!-- 48 -->
      <g transform="translate(222.797701 259.365385) scale(0.2 -0.2)">
       <use xlink:href="#Cmr10-34"/>
       <use xlink:href="#Cmr10-38" x="50"/>
      </g>
     </g>
    </g>
    <g id="xtick_8">
     <g id="line2d_8">
      <g>
       <use xlink:href="#md2d93c245e" x="258.784545" y="238.48726" style="stroke: #000000; stroke-width: 0.8"/>
      </g>
     </g>
     <g id="text_8">
      <!-- 56 -->
      <g transform="translate(248.784545 259.365385) scale(0.2 -0.2)">
       <defs>
        <path id="Cmr10-35" d="M 556 728 
Q 622 541 758 387 
Q 894 234 1080 148 
Q 1266 63 1466 63 
Q 1928 63 2103 422 
Q 2278 781 2278 1294 
Q 2278 1516 2270 1667 
Q 2263 1819 2228 1959 
Q 2169 2184 2020 2353 
Q 1872 2522 1656 2522 
Q 1441 2522 1286 2456 
Q 1131 2391 1034 2303 
Q 938 2216 863 2119 
Q 788 2022 769 2016 
L 697 2016 
Q 681 2016 657 2036 
Q 634 2056 634 2075 
L 634 4213 
Q 634 4228 654 4245 
Q 675 4263 697 4263 
L 716 4263 
Q 1147 4056 1631 4056 
Q 2106 4056 2547 4263 
L 2566 4263 
Q 2588 4263 2606 4247 
Q 2625 4231 2625 4213 
L 2625 4153 
Q 2625 4122 2613 4122 
Q 2394 3831 2064 3668 
Q 1734 3506 1381 3506 
Q 1125 3506 856 3578 
L 856 2369 
Q 1069 2541 1236 2614 
Q 1403 2688 1663 2688 
Q 2016 2688 2295 2484 
Q 2575 2281 2725 1954 
Q 2875 1628 2875 1288 
Q 2875 903 2686 575 
Q 2497 247 2172 53 
Q 1847 -141 1466 -141 
Q 1150 -141 886 21 
Q 622 184 470 459 
Q 319 734 319 1044 
Q 319 1188 412 1278 
Q 506 1369 647 1369 
Q 788 1369 883 1276 
Q 978 1184 978 1044 
Q 978 906 883 811 
Q 788 716 647 716 
Q 625 716 597 720 
Q 569 725 556 728 
z
" transform="scale(0.015625)"/>
       </defs>
       <use xlink:href="#Cmr10-35"/>
       <use xlink:href="#Cmr10-36" x="50"/>
      </g>
     </g>
    </g>
    <g id="text_9">
     <!-- Epoch -->
     <g transform="translate(145.359375 281.121635) scale(0.2 -0.2)">
      <defs>
       <path id="Cmr10-45" d="M 197 0 
L 197 225 
Q 856 225 856 428 
L 856 3944 
Q 856 4147 197 4147 
L 197 4372 
L 3816 4372 
L 3994 2906 
L 3809 2906 
Q 3741 3459 3617 3709 
Q 3494 3959 3222 4053 
Q 2950 4147 2406 4147 
L 1778 4147 
Q 1663 4147 1598 4137 
Q 1534 4128 1493 4083 
Q 1453 4038 1453 3944 
L 1453 2381 
L 1925 2381 
Q 2250 2381 2411 2436 
Q 2572 2491 2633 2645 
Q 2694 2800 2694 3128 
L 2881 3128 
L 2881 1409 
L 2694 1409 
Q 2694 1734 2633 1890 
Q 2572 2047 2411 2101 
Q 2250 2156 1925 2156 
L 1453 2156 
L 1453 428 
Q 1453 291 1531 258 
Q 1609 225 1778 225 
L 2456 225 
Q 2900 225 3173 295 
Q 3447 366 3598 530 
Q 3750 694 3833 955 
Q 3916 1216 3988 1678 
L 4172 1678 
L 3903 0 
L 197 0 
z
" transform="scale(0.015625)"/>
       <path id="Cmr10-70" d="M 166 -1241 
L 166 -1019 
Q 384 -1019 525 -981 
Q 666 -944 666 -813 
L 666 2272 
Q 666 2447 541 2490 
Q 416 2534 166 2534 
L 166 2759 
L 1113 2828 
L 1113 2431 
Q 1288 2625 1520 2726 
Q 1753 2828 2016 2828 
Q 2394 2828 2697 2623 
Q 3000 2419 3170 2086 
Q 3341 1753 3341 1381 
Q 3341 994 3152 659 
Q 2963 325 2636 126 
Q 2309 -72 1919 -72 
Q 1453 -72 1131 306 
L 1131 -813 
Q 1131 -944 1273 -981 
Q 1416 -1019 1631 -1019 
L 1631 -1241 
L 166 -1241 
z
M 1131 622 
Q 1244 394 1444 245 
Q 1644 97 1881 97 
Q 2103 97 2273 215 
Q 2444 334 2559 534 
Q 2675 734 2729 954 
Q 2784 1175 2784 1381 
Q 2784 1638 2692 1936 
Q 2600 2234 2411 2439 
Q 2222 2644 1953 2644 
Q 1694 2644 1476 2511 
Q 1259 2378 1131 2150 
L 1131 622 
z
" transform="scale(0.015625)"/>
       <path id="Cmr10-6f" d="M 1600 -72 
Q 1216 -72 887 123 
Q 559 319 368 647 
Q 178 975 178 1363 
Q 178 1656 283 1928 
Q 388 2200 583 2414 
Q 778 2628 1037 2748 
Q 1297 2869 1600 2869 
Q 1994 2869 2317 2661 
Q 2641 2453 2828 2104 
Q 3016 1756 3016 1363 
Q 3016 978 2825 648 
Q 2634 319 2307 123 
Q 1981 -72 1600 -72 
z
M 1600 116 
Q 2113 116 2284 487 
Q 2456 859 2456 1434 
Q 2456 1756 2422 1967 
Q 2388 2178 2272 2350 
Q 2200 2456 2089 2536 
Q 1978 2616 1854 2658 
Q 1731 2700 1600 2700 
Q 1400 2700 1220 2609 
Q 1041 2519 922 2350 
Q 803 2169 770 1951 
Q 738 1734 738 1434 
Q 738 1075 800 789 
Q 863 503 1052 309 
Q 1241 116 1600 116 
z
" transform="scale(0.015625)"/>
       <path id="Cmr10-63" d="M 1594 -72 
Q 1206 -72 890 129 
Q 575 331 394 667 
Q 213 1003 213 1381 
Q 213 1759 392 2106 
Q 572 2453 889 2661 
Q 1206 2869 1594 2869 
Q 1969 2869 2276 2722 
Q 2584 2575 2584 2241 
Q 2584 2116 2495 2023 
Q 2406 1931 2278 1931 
Q 2150 1931 2061 2023 
Q 1972 2116 1972 2241 
Q 1972 2353 2044 2436 
Q 2116 2519 2222 2541 
Q 2000 2681 1600 2681 
Q 1294 2681 1106 2478 
Q 919 2275 844 1975 
Q 769 1675 769 1381 
Q 769 1072 861 783 
Q 953 494 1158 305 
Q 1363 116 1672 116 
Q 1975 116 2187 302 
Q 2400 488 2478 788 
Q 2478 825 2528 825 
L 2606 825 
Q 2625 825 2640 808 
Q 2656 791 2656 769 
L 2656 750 
Q 2559 372 2271 150 
Q 1984 -72 1594 -72 
z
" transform="scale(0.015625)"/>
       <path id="Cmr10-68" d="M 191 0 
L 191 225 
Q 409 225 550 259 
Q 691 294 691 428 
L 691 3788 
Q 691 3959 639 4036 
Q 588 4113 491 4130 
Q 394 4147 191 4147 
L 191 4372 
L 1141 4441 
L 1141 2241 
Q 1275 2506 1515 2667 
Q 1756 2828 2047 2828 
Q 2491 2828 2714 2615 
Q 2938 2403 2938 1966 
L 2938 428 
Q 2938 294 3078 259 
Q 3219 225 3438 225 
L 3438 0 
L 1972 0 
L 1972 225 
Q 2191 225 2331 259 
Q 2472 294 2472 428 
L 2472 1947 
Q 2472 2259 2381 2461 
Q 2291 2663 2009 2663 
Q 1638 2663 1398 2366 
Q 1159 2069 1159 1691 
L 1159 428 
Q 1159 294 1300 259 
Q 1441 225 1656 225 
L 1656 0 
L 191 0 
z
" transform="scale(0.015625)"/>
      </defs>
      <use xlink:href="#Cmr10-45"/>
      <use xlink:href="#Cmr10-70" x="68.017578"/>
      <use xlink:href="#Cmr10-6f" x="123.535156"/>
      <use xlink:href="#Cmr10-63" x="173.535156"/>
      <use xlink:href="#Cmr10-68" x="217.919922"/>
     </g>
    </g>
   </g>
   <g id="matplotlib.axis_2">
    <g id="ytick_1">
     <g id="line2d_9">
      <defs>
       <path id="meb03392828" d="M 0 0 
L -3.5 0 
" style="stroke: #000000; stroke-width: 0.8"/>
      </defs>
      <g>
       <use xlink:href="#meb03392828" x="67.29399" y="197.509233" style="stroke: #000000; stroke-width: 0.8"/>
      </g>
     </g>
     <g id="text_10">
      <!-- 0.02 -->
      <g transform="translate(24.75649 204.448295) scale(0.2 -0.2)">
       <defs>
        <path id="Cmr10-2e" d="M 538 353 
Q 538 497 644 600 
Q 750 703 891 703 
Q 978 703 1062 656 
Q 1147 609 1194 525 
Q 1241 441 1241 353 
Q 1241 213 1137 106 
Q 1034 0 891 0 
Q 750 0 644 106 
Q 538 213 538 353 
z
" transform="scale(0.015625)"/>
       </defs>
       <use xlink:href="#Cmr10-30"/>
       <use xlink:href="#Cmr10-2e" x="50"/>
       <use xlink:href="#Cmr10-30" x="77.685547"/>
       <use xlink:href="#Cmr10-32" x="127.685547"/>
      </g>
     </g>
    </g>
    <g id="ytick_2">
     <g id="line2d_10">
      <g>
       <use xlink:href="#meb03392828" x="67.29399" y="142.500512" style="stroke: #000000; stroke-width: 0.8"/>
      </g>
     </g>
     <g id="text_11">
      <!-- 0.04 -->
      <g transform="translate(24.75649 149.439575) scale(0.2 -0.2)">
       <use xlink:href="#Cmr10-30"/>
       <use xlink:href="#Cmr10-2e" x="50"/>
       <use xlink:href="#Cmr10-30" x="77.685547"/>
       <use xlink:href="#Cmr10-34" x="127.685547"/>
      </g>
     </g>
    </g>
    <g id="ytick_3">
     <g id="line2d_11">
      <g>
       <use xlink:href="#meb03392828" x="67.29399" y="87.491792" style="stroke: #000000; stroke-width: 0.8"/>
      </g>
     </g>
     <g id="text_12">
      <!-- 0.06 -->
      <g transform="translate(24.75649 94.430855) scale(0.2 -0.2)">
       <use xlink:href="#Cmr10-30"/>
       <use xlink:href="#Cmr10-2e" x="50"/>
       <use xlink:href="#Cmr10-30" x="77.685547"/>
       <use xlink:href="#Cmr10-36" x="127.685547"/>
      </g>
     </g>
    </g>
    <g id="ytick_4">
     <g id="line2d_12">
      <g>
       <use xlink:href="#meb03392828" x="67.29399" y="32.483072" style="stroke: #000000; stroke-width: 0.8"/>
      </g>
     </g>
     <g id="text_13">
      <!-- 0.08 -->
      <g transform="translate(24.75649 39.422134) scale(0.2 -0.2)">
       <use xlink:href="#Cmr10-30"/>
       <use xlink:href="#Cmr10-2e" x="50"/>
       <use xlink:href="#Cmr10-30" x="77.685547"/>
       <use xlink:href="#Cmr10-38" x="127.685547"/>
      </g>
     </g>
    </g>
    <g id="text_14">
     <!-- Loss -->
     <g transform="translate(16.878365 139.875) rotate(-90) scale(0.2 -0.2)">
      <defs>
       <path id="Cmr10-4c" d="M 197 0 
L 197 225 
Q 856 225 856 428 
L 856 3944 
Q 856 4147 197 4147 
L 197 4372 
L 2272 4372 
L 2272 4147 
Q 1453 4147 1453 3944 
L 1453 428 
Q 1453 291 1531 258 
Q 1609 225 1778 225 
L 2272 225 
Q 2750 225 3009 400 
Q 3269 575 3376 876 
Q 3484 1178 3541 1678 
L 3725 1678 
L 3547 0 
L 197 0 
z
" transform="scale(0.015625)"/>
       <path id="Cmr10-73" d="M 213 -19 
L 213 1025 
Q 213 1075 269 1075 
L 347 1075 
Q 384 1075 397 1025 
Q 575 97 1259 97 
Q 1563 97 1767 234 
Q 1972 372 1972 659 
Q 1972 866 1812 1011 
Q 1653 1156 1434 1209 
L 1006 1294 
Q 791 1341 614 1437 
Q 438 1534 325 1695 
Q 213 1856 213 2069 
Q 213 2350 361 2529 
Q 509 2709 746 2789 
Q 984 2869 1259 2869 
Q 1588 2869 1831 2694 
L 2016 2853 
Q 2016 2869 2047 2869 
L 2094 2869 
Q 2113 2869 2128 2851 
Q 2144 2834 2144 2816 
L 2144 1978 
Q 2144 1919 2094 1919 
L 2016 1919 
Q 1959 1919 1959 1978 
Q 1959 2313 1773 2516 
Q 1588 2719 1253 2719 
Q 966 2719 755 2612 
Q 544 2506 544 2247 
Q 544 2069 695 1955 
Q 847 1841 1050 1791 
L 1484 1709 
Q 1703 1659 1892 1540 
Q 2081 1422 2192 1240 
Q 2303 1059 2303 831 
Q 2303 600 2223 429 
Q 2144 259 2001 146 
Q 1859 34 1665 -19 
Q 1472 -72 1259 -72 
Q 859 -72 575 197 
L 341 -56 
Q 341 -72 306 -72 
L 269 -72 
Q 213 -72 213 -19 
z
" transform="scale(0.015625)"/>
      </defs>
      <use xlink:href="#Cmr10-4c"/>
      <use xlink:href="#Cmr10-6f" x="62.5"/>
      <use xlink:href="#Cmr10-73" x="112.5"/>
      <use xlink:href="#Cmr10-73" x="151.904297"/>
     </g>
    </g>
   </g>
   <g id="line2d_13">
    <path d="M 76.876639 13.704195 
L 80.124994 110.874617 
L 83.37335 133.754773 
L 86.621705 148.863031 
L 89.870061 155.914774 
L 93.118416 164.352934 
L 96.366771 170.178829 
L 99.615127 173.579367 
L 102.863482 177.444644 
L 106.111838 188.814296 
L 109.360193 191.13674 
L 112.608549 192.053969 
L 115.856904 195.704422 
L 119.10526 196.305881 
L 122.353615 196.003984 
L 125.601971 196.898023 
L 128.850326 198.352857 
L 132.098682 200.559101 
L 135.347037 206.671911 
L 138.595393 208.047503 
L 141.843748 208.708541 
L 145.092104 209.331024 
L 148.340459 210.476268 
L 151.588814 211.167659 
L 154.83717 214.641071 
L 158.085525 215.512842 
L 161.333881 216.505558 
L 164.582236 216.712917 
L 167.830592 216.927841 
L 171.078947 217.692189 
L 174.327303 217.677514 
L 177.575658 218.702538 
L 180.824014 218.68403 
L 184.072369 219.259273 
L 187.320725 219.612214 
L 190.56908 221.842971 
L 193.817436 222.268866 
L 197.065791 222.579555 
L 200.314146 224.111566 
L 203.562502 224.291817 
L 206.810857 224.504028 
L 210.059213 225.379104 
L 213.307568 225.57149 
L 216.555924 225.83142 
L 219.804279 225.925751 
L 223.052635 226.040409 
L 226.30099 226.264848 
L 229.549346 226.21081 
L 232.797701 226.680439 
L 236.046057 226.824835 
L 239.294412 226.993124 
L 242.542768 227.066628 
L 245.791123 227.025032 
L 249.039479 227.103265 
L 252.287834 227.526168 
L 255.536189 227.547437 
L 258.784545 227.607489 
L 262.0329 227.588097 
L 265.281256 227.783305 
L 268.529611 227.564474 
" clip-path="url(#p855cd57c82)" style="fill: none; stroke: #0000ff; stroke-width: 1.5; stroke-linecap: square"/>
   </g>
   <g id="line2d_14">
    <path d="M 76.876639 43.021932 
L 80.124994 36.647975 
L 83.37335 106.943011 
L 86.621705 127.877448 
L 89.870061 139.021585 
L 93.118416 122.216133 
L 96.366771 150.577395 
L 99.615127 135.802802 
L 102.863482 148.894095 
L 106.111838 167.034441 
L 109.360193 168.101241 
L 112.608549 172.51033 
L 115.856904 166.259948 
L 119.10526 173.085605 
L 122.353615 163.049503 
L 125.601971 179.608925 
L 128.850326 170.341513 
L 132.098682 170.13858 
L 135.347037 189.586404 
L 138.595393 181.472438 
L 141.843748 190.477698 
L 145.092104 191.31068 
L 148.340459 185.91936 
L 151.588814 185.040218 
L 154.83717 195.673554 
L 158.085525 195.231192 
L 161.333881 197.259219 
L 164.582236 196.066606 
L 167.830592 197.410548 
L 171.078947 193.889088 
L 174.327303 198.025706 
L 177.575658 197.27861 
L 180.824014 198.078852 
L 184.072369 195.371173 
L 187.320725 195.464632 
L 190.56908 200.970347 
L 193.817436 199.855046 
L 197.065791 200.313377 
L 200.314146 202.043134 
L 203.562502 201.783982 
L 206.810857 202.010196 
L 210.059213 203.080832 
L 213.307568 202.910509 
L 216.555924 203.263139 
L 219.804279 202.575035 
L 223.052635 203.366404 
L 226.30099 202.775624 
L 229.549346 203.286704 
L 232.797701 203.63884 
L 236.046057 203.391043 
L 239.294412 203.88454 
L 242.542768 203.683612 
L 245.791123 203.542606 
L 249.039479 204.00302 
L 252.287834 204.113796 
L 255.536189 203.930716 
L 258.784545 203.919963 
L 262.0329 204.384768 
L 265.281256 203.871894 
L 268.529611 204.119093 
" clip-path="url(#p855cd57c82)" style="fill: none; stroke: #008000; stroke-width: 1.5; stroke-linecap: square"/>
   </g>
   <g id="patch_3">
    <path d="M 67.29399 238.48726 
L 67.29399 3.00024 
" style="fill: none; stroke: #000000; stroke-width: 0.8; stroke-linejoin: miter; stroke-linecap: square"/>
   </g>
   <g id="patch_4">
    <path d="M 278.11226 238.48726 
L 278.11226 3.00024 
" style="fill: none; stroke: #000000; stroke-width: 0.8; stroke-linejoin: miter; stroke-linecap: square"/>
   </g>
   <g id="patch_5">
    <path d="M 67.29399 238.48726 
L 278.11226 238.48726 
" style="fill: none; stroke: #000000; stroke-width: 0.8; stroke-linejoin: miter; stroke-linecap: square"/>
   </g>
   <g id="patch_6">
    <path d="M 67.29399 3.00024 
L 278.11226 3.00024 
" style="fill: none; stroke: #000000; stroke-width: 0.8; stroke-linejoin: miter; stroke-linecap: square"/>
   </g>
   <g id="text_15">
    <!-- A -->
    <g transform="translate(68.226721 25.661767) scale(0.2 -0.2)">
     <defs>
      <path id="Cmr10-41" d="M 206 0 
L 206 225 
Q 778 225 909 603 
L 2253 4513 
Q 2272 4581 2356 4581 
L 2438 4581 
Q 2522 4581 2541 4513 
L 3944 428 
Q 4003 294 4170 259 
Q 4338 225 4588 225 
L 4588 0 
L 2803 0 
L 2803 225 
Q 3334 225 3334 397 
L 3334 428 
L 2988 1428 
L 1434 1428 
L 1147 603 
Q 1141 581 1141 538 
Q 1141 378 1292 301 
Q 1444 225 1619 225 
L 1619 0 
L 206 0 
z
M 1509 1650 
L 2913 1650 
L 2209 3694 
L 1509 1650 
z
" transform="scale(0.015625)"/>
     </defs>
     <use xlink:href="#Cmr10-41"/>
    </g>
   </g>
   <g id="text_16">
    <!-- A -->
    <g transform="translate(68.226721 25.661767) scale(0.2 -0.2)">
     <use xlink:href="#Cmr10-41"/>
    </g>
   </g>
   <g id="legend_1">
    <g id="patch_7">
     <path d="M 142.44726 60.60024 
L 266.91226 60.60024 
Q 270.11226 60.60024 270.11226 57.40024 
L 270.11226 14.20024 
Q 270.11226 11.00024 266.91226 11.00024 
L 142.44726 11.00024 
Q 139.24726 11.00024 139.24726 14.20024 
L 139.24726 57.40024 
Q 139.24726 60.60024 142.44726 60.60024 
z
" style="fill: #ffffff; opacity: 0.8; stroke: #cccccc; stroke-linejoin: miter"/>
    </g>
    <g id="line2d_15">
     <path d="M 145.64726 23.00024 
L 161.64726 23.00024 
L 177.64726 23.00024 
" style="fill: none; stroke: #0000ff; stroke-width: 1.5; stroke-linecap: square"/>
    </g>
    <g id="text_17">
     <!-- Training -->
     <g transform="translate(190.44726 28.60024) scale(0.16 -0.16)">
      <defs>
       <path id="Cmr10-54" d="M 1081 0 
L 1081 225 
Q 1403 225 1706 261 
Q 2009 297 2009 428 
L 2009 3944 
Q 2009 4081 1932 4114 
Q 1856 4147 1684 4147 
L 1416 4147 
Q 888 4147 666 3916 
Q 550 3800 500 3545 
Q 450 3291 416 2906 
L 231 2906 
L 353 4372 
L 4263 4372 
L 4384 2906 
L 4197 2906 
Q 4159 3319 4114 3561 
Q 4069 3803 3950 3916 
Q 3725 4147 3200 4147 
L 2931 4147 
Q 2816 4147 2752 4137 
Q 2688 4128 2647 4083 
Q 2606 4038 2606 3944 
L 2606 428 
Q 2606 297 2909 261 
Q 3213 225 3531 225 
L 3531 0 
L 1081 0 
z
" transform="scale(0.015625)"/>
       <path id="Cmr10-72" d="M 166 0 
L 166 225 
Q 384 225 525 259 
Q 666 294 666 428 
L 666 2175 
Q 666 2347 614 2423 
Q 563 2500 466 2517 
Q 369 2534 166 2534 
L 166 2759 
L 1081 2828 
L 1081 2203 
Q 1184 2481 1375 2654 
Q 1566 2828 1838 2828 
Q 2028 2828 2178 2715 
Q 2328 2603 2328 2419 
Q 2328 2303 2245 2217 
Q 2163 2131 2041 2131 
Q 1922 2131 1837 2215 
Q 1753 2300 1753 2419 
Q 1753 2591 1875 2663 
L 1838 2663 
Q 1578 2663 1414 2475 
Q 1250 2288 1181 2009 
Q 1113 1731 1113 1478 
L 1113 428 
Q 1113 225 1734 225 
L 1734 0 
L 166 0 
z
" transform="scale(0.015625)"/>
       <path id="Cmr10-61" d="M 256 628 
Q 256 1009 556 1248 
Q 856 1488 1276 1586 
Q 1697 1684 2075 1684 
L 2075 1947 
Q 2075 2131 1994 2304 
Q 1913 2478 1759 2589 
Q 1606 2700 1422 2700 
Q 997 2700 775 2509 
Q 897 2509 976 2417 
Q 1056 2325 1056 2203 
Q 1056 2075 965 1984 
Q 875 1894 750 1894 
Q 622 1894 531 1984 
Q 441 2075 441 2203 
Q 441 2541 747 2705 
Q 1053 2869 1422 2869 
Q 1681 2869 1943 2758 
Q 2206 2647 2373 2440 
Q 2541 2234 2541 1959 
L 2541 519 
Q 2541 394 2594 289 
Q 2647 184 2759 184 
Q 2866 184 2917 290 
Q 2969 397 2969 519 
L 2969 928 
L 3156 928 
L 3156 519 
Q 3156 375 3081 245 
Q 3006 116 2879 39 
Q 2753 -38 2606 -38 
Q 2419 -38 2283 107 
Q 2147 253 2131 453 
Q 2013 213 1781 70 
Q 1550 -72 1288 -72 
Q 1044 -72 808 0 
Q 572 72 414 226 
Q 256 381 256 628 
z
M 775 628 
Q 775 403 940 250 
Q 1106 97 1331 97 
Q 1538 97 1706 200 
Q 1875 303 1975 481 
Q 2075 659 2075 856 
L 2075 1522 
Q 1784 1522 1479 1426 
Q 1175 1331 975 1128 
Q 775 925 775 628 
z
" transform="scale(0.015625)"/>
       <path id="Cmr10-69" d="M 197 0 
L 197 225 
Q 416 225 556 259 
Q 697 294 697 428 
L 697 2175 
Q 697 2422 601 2478 
Q 506 2534 225 2534 
L 225 2759 
L 1147 2828 
L 1147 428 
Q 1147 294 1269 259 
Q 1391 225 1594 225 
L 1594 0 
L 197 0 
z
M 469 3928 
Q 469 4069 575 4175 
Q 681 4281 819 4281 
Q 909 4281 993 4234 
Q 1078 4188 1125 4103 
Q 1172 4019 1172 3928 
Q 1172 3791 1065 3684 
Q 959 3578 819 3578 
Q 681 3578 575 3684 
Q 469 3791 469 3928 
z
" transform="scale(0.015625)"/>
       <path id="Cmr10-6e" d="M 191 0 
L 191 225 
Q 409 225 550 259 
Q 691 294 691 428 
L 691 2175 
Q 691 2347 639 2423 
Q 588 2500 491 2517 
Q 394 2534 191 2534 
L 191 2759 
L 1119 2828 
L 1119 2203 
Q 1247 2478 1498 2653 
Q 1750 2828 2047 2828 
Q 2491 2828 2714 2615 
Q 2938 2403 2938 1966 
L 2938 428 
Q 2938 294 3078 259 
Q 3219 225 3438 225 
L 3438 0 
L 1972 0 
L 1972 225 
Q 2191 225 2331 259 
Q 2472 294 2472 428 
L 2472 1947 
Q 2472 2259 2381 2461 
Q 2291 2663 2009 2663 
Q 1638 2663 1398 2366 
Q 1159 2069 1159 1691 
L 1159 428 
Q 1159 294 1300 259 
Q 1441 225 1656 225 
L 1656 0 
L 191 0 
z
" transform="scale(0.015625)"/>
       <path id="Cmr10-67" d="M 178 -500 
Q 178 -272 343 -101 
Q 509 69 738 141 
Q 609 238 542 384 
Q 475 531 475 697 
Q 475 997 666 1228 
Q 372 1516 372 1888 
Q 372 2088 458 2263 
Q 544 2438 697 2566 
Q 850 2694 1037 2761 
Q 1225 2828 1422 2828 
Q 1803 2828 2106 2606 
Q 2238 2747 2417 2823 
Q 2597 2900 2791 2900 
Q 2928 2900 3015 2801 
Q 3103 2703 3103 2566 
Q 3103 2488 3043 2428 
Q 2984 2369 2906 2369 
Q 2825 2369 2765 2428 
Q 2706 2488 2706 2566 
Q 2706 2684 2784 2731 
Q 2453 2731 2216 2503 
Q 2331 2388 2401 2220 
Q 2472 2053 2472 1888 
Q 2472 1616 2322 1398 
Q 2172 1181 1926 1061 
Q 1681 941 1422 941 
Q 1072 941 781 1131 
Q 691 1006 691 850 
Q 691 681 802 554 
Q 913 428 1081 428 
L 1606 428 
Q 1988 428 2294 359 
Q 2600 291 2808 84 
Q 3016 -122 3016 -500 
Q 3016 -781 2778 -967 
Q 2541 -1153 2211 -1236 
Q 1881 -1319 1600 -1319 
Q 1316 -1319 984 -1236 
Q 653 -1153 415 -967 
Q 178 -781 178 -500 
z
M 538 -500 
Q 538 -716 713 -861 
Q 888 -1006 1134 -1076 
Q 1381 -1147 1600 -1147 
Q 1816 -1147 2062 -1076 
Q 2309 -1006 2482 -861 
Q 2656 -716 2656 -500 
Q 2656 -166 2350 -67 
Q 2044 31 1606 31 
L 1081 31 
Q 934 31 811 -39 
Q 688 -109 613 -236 
Q 538 -363 538 -500 
z
M 1422 1113 
Q 1966 1113 1966 1888 
Q 1966 2222 1850 2439 
Q 1734 2656 1422 2656 
Q 1109 2656 993 2439 
Q 878 2222 878 1888 
Q 878 1675 922 1503 
Q 966 1331 1084 1222 
Q 1203 1113 1422 1113 
z
" transform="scale(0.015625)"/>
      </defs>
      <use xlink:href="#Cmr10-54"/>
      <use xlink:href="#Cmr10-72" x="72.216797"/>
      <use xlink:href="#Cmr10-61" x="111.328125"/>
      <use xlink:href="#Cmr10-69" x="161.328125"/>
      <use xlink:href="#Cmr10-6e" x="189.013672"/>
      <use xlink:href="#Cmr10-69" x="244.53125"/>
      <use xlink:href="#Cmr10-6e" x="272.216797"/>
      <use xlink:href="#Cmr10-67" x="327.734375"/>
     </g>
    </g>
    <g id="line2d_16">
     <path d="M 145.64726 45.49774 
L 161.64726 45.49774 
L 177.64726 45.49774 
" style="fill: none; stroke: #008000; stroke-width: 1.5; stroke-linecap: square"/>
    </g>
    <g id="text_18">
     <!-- Validation -->
     <g transform="translate(190.44726 51.09774) scale(0.16 -0.16)">
      <defs>
       <path id="Cmr10-56" d="M 2253 -72 
L 744 3944 
Q 688 4078 528 4112 
Q 369 4147 122 4147 
L 122 4372 
L 1881 4372 
L 1881 4147 
Q 1350 4147 1350 3981 
Q 1353 3972 1354 3964 
Q 1356 3956 1356 3944 
L 2584 678 
L 3744 3769 
Q 3756 3794 3756 3847 
Q 3756 4003 3612 4075 
Q 3469 4147 3291 4147 
L 3291 4372 
L 4672 4372 
L 4672 4147 
Q 4431 4147 4248 4058 
Q 4066 3969 3988 3769 
L 2541 -72 
Q 2522 -141 2438 -141 
L 2356 -141 
Q 2272 -141 2253 -72 
z
" transform="scale(0.015625)"/>
       <path id="Cmr10-6c" d="M 197 0 
L 197 225 
Q 416 225 556 259 
Q 697 294 697 428 
L 697 3788 
Q 697 3959 645 4036 
Q 594 4113 497 4130 
Q 400 4147 197 4147 
L 197 4372 
L 1147 4441 
L 1147 428 
Q 1147 294 1287 259 
Q 1428 225 1644 225 
L 1644 0 
L 197 0 
z
" transform="scale(0.015625)"/>
       <path id="Cmr10-64" d="M 1563 -72 
Q 1184 -72 871 133 
Q 559 338 386 672 
Q 213 1006 213 1381 
Q 213 1769 402 2101 
Q 591 2434 916 2631 
Q 1241 2828 1631 2828 
Q 1866 2828 2075 2729 
Q 2284 2631 2438 2456 
L 2438 3788 
Q 2438 3959 2386 4036 
Q 2334 4113 2239 4130 
Q 2144 4147 1941 4147 
L 1941 4372 
L 2888 4441 
L 2888 581 
Q 2888 413 2939 336 
Q 2991 259 3086 242 
Q 3181 225 3384 225 
L 3384 0 
L 2419 -72 
L 2419 331 
Q 2253 141 2025 34 
Q 1797 -72 1563 -72 
z
M 909 556 
Q 1019 347 1201 222 
Q 1384 97 1600 97 
Q 1866 97 2087 250 
Q 2309 403 2419 647 
L 2419 2181 
Q 2344 2322 2230 2433 
Q 2116 2544 1973 2603 
Q 1831 2663 1672 2663 
Q 1338 2663 1134 2473 
Q 931 2284 850 1990 
Q 769 1697 769 1375 
Q 769 1119 795 928 
Q 822 738 909 556 
z
" transform="scale(0.015625)"/>
       <path id="Cmr10-74" d="M 653 769 
L 653 2534 
L 122 2534 
L 122 2700 
Q 541 2700 737 3090 
Q 934 3481 934 3938 
L 1119 3938 
L 1119 2759 
L 2022 2759 
L 2022 2534 
L 1119 2534 
L 1119 781 
Q 1119 516 1208 316 
Q 1297 116 1528 116 
Q 1747 116 1844 327 
Q 1941 538 1941 781 
L 1941 1159 
L 2125 1159 
L 2125 769 
Q 2125 569 2051 373 
Q 1978 178 1834 53 
Q 1691 -72 1484 -72 
Q 1100 -72 876 158 
Q 653 388 653 769 
z
" transform="scale(0.015625)"/>
      </defs>
      <use xlink:href="#Cmr10-56"/>
      <use xlink:href="#Cmr10-61" x="75"/>
      <use xlink:href="#Cmr10-6c" x="125"/>
      <use xlink:href="#Cmr10-69" x="152.685547"/>
      <use xlink:href="#Cmr10-64" x="180.371094"/>
      <use xlink:href="#Cmr10-61" x="235.888672"/>
      <use xlink:href="#Cmr10-74" x="285.888672"/>
      <use xlink:href="#Cmr10-69" x="324.707031"/>
      <use xlink:href="#Cmr10-6f" x="352.392578"/>
      <use xlink:href="#Cmr10-6e" x="402.392578"/>
     </g>
    </g>
   </g>
  </g>
  <g id="axes_2">
   <g id="patch_8">
    <path d="M 358.40649 238.48726 
L 569.22476 238.48726 
L 569.22476 3.00024 
L 358.40649 3.00024 
z
" style="fill: #ffffff"/>
   </g>
   <g id="matplotlib.axis_3">
    <g id="xtick_9">
     <g id="line2d_17">
      <g>
       <use xlink:href="#md2d93c245e" x="367.989139" y="238.48726" style="stroke: #000000; stroke-width: 0.8"/>
      </g>
     </g>
     <g id="text_19">
      <!-- 0 -->
      <g transform="translate(362.989139 259.365385) scale(0.2 -0.2)">
       <use xlink:href="#Cmr10-30"/>
      </g>
     </g>
    </g>
    <g id="xtick_10">
     <g id="line2d_18">
      <g>
       <use xlink:href="#md2d93c245e" x="393.975982" y="238.48726" style="stroke: #000000; stroke-width: 0.8"/>
      </g>
     </g>
     <g id="text_20">
      <!-- 8 -->
      <g transform="translate(388.975982 259.365385) scale(0.2 -0.2)">
       <use xlink:href="#Cmr10-38"/>
      </g>
     </g>
    </g>
    <g id="xtick_11">
     <g id="line2d_19">
      <g>
       <use xlink:href="#md2d93c245e" x="419.962826" y="238.48726" style="stroke: #000000; stroke-width: 0.8"/>
      </g>
     </g>
     <g id="text_21">
      <!-- 16 -->
      <g transform="translate(409.962826 259.365385) scale(0.2 -0.2)">
       <use xlink:href="#Cmr10-31"/>
       <use xlink:href="#Cmr10-36" x="50"/>
      </g>
     </g>
    </g>
    <g id="xtick_12">
     <g id="line2d_20">
      <g>
       <use xlink:href="#md2d93c245e" x="445.94967" y="238.48726" style="stroke: #000000; stroke-width: 0.8"/>
      </g>
     </g>
     <g id="text_22">
      <!-- 24 -->
      <g transform="translate(435.94967 259.365385) scale(0.2 -0.2)">
       <use xlink:href="#Cmr10-32"/>
       <use xlink:href="#Cmr10-34" x="50"/>
      </g>
     </g>
    </g>
    <g id="xtick_13">
     <g id="line2d_21">
      <g>
       <use xlink:href="#md2d93c245e" x="471.936514" y="238.48726" style="stroke: #000000; stroke-width: 0.8"/>
      </g>
     </g>
     <g id="text_23">
      <!-- 32 -->
      <g transform="translate(461.936514 259.365385) scale(0.2 -0.2)">
       <use xlink:href="#Cmr10-33"/>
       <use xlink:href="#Cmr10-32" x="50"/>
      </g>
     </g>
    </g>
    <g id="xtick_14">
     <g id="line2d_22">
      <g>
       <use xlink:href="#md2d93c245e" x="497.923357" y="238.48726" style="stroke: #000000; stroke-width: 0.8"/>
      </g>
     </g>
     <g id="text_24">
      <!-- 40 -->
      <g transform="translate(487.923357 259.365385) scale(0.2 -0.2)">
       <use xlink:href="#Cmr10-34"/>
       <use xlink:href="#Cmr10-30" x="50"/>
      </g>
     </g>
    </g>
    <g id="xtick_15">
     <g id="line2d_23">
      <g>
       <use xlink:href="#md2d93c245e" x="523.910201" y="238.48726" style="stroke: #000000; stroke-width: 0.8"/>
      </g>
     </g>
     <g id="text_25">
      <!-- 48 -->
      <g transform="translate(513.910201 259.365385) scale(0.2 -0.2)">
       <use xlink:href="#Cmr10-34"/>
       <use xlink:href="#Cmr10-38" x="50"/>
      </g>
     </g>
    </g>
    <g id="xtick_16">
     <g id="line2d_24">
      <g>
       <use xlink:href="#md2d93c245e" x="549.897045" y="238.48726" style="stroke: #000000; stroke-width: 0.8"/>
      </g>
     </g>
     <g id="text_26">
      <!-- 56 -->
      <g transform="translate(539.897045 259.365385) scale(0.2 -0.2)">
       <use xlink:href="#Cmr10-35"/>
       <use xlink:href="#Cmr10-36" x="50"/>
      </g>
     </g>
    </g>
    <g id="text_27">
     <!-- Epoch -->
     <g transform="translate(436.471875 281.121635) scale(0.2 -0.2)">
      <use xlink:href="#Cmr10-45"/>
      <use xlink:href="#Cmr10-70" x="68.017578"/>
      <use xlink:href="#Cmr10-6f" x="123.535156"/>
      <use xlink:href="#Cmr10-63" x="173.535156"/>
      <use xlink:href="#Cmr10-68" x="217.919922"/>
     </g>
    </g>
   </g>
   <g id="matplotlib.axis_4">
    <g id="ytick_5">
     <g id="line2d_25">
      <g>
       <use xlink:href="#meb03392828" x="358.40649" y="231.529733" style="stroke: #000000; stroke-width: 0.8"/>
      </g>
     </g>
     <g id="text_28">
      <!-- 0.92 -->
      <g transform="translate(315.86899 238.468796) scale(0.2 -0.2)">
       <defs>
        <path id="Cmr10-39" d="M 722 269 
Q 897 63 1331 63 
Q 1575 63 1786 228 
Q 1997 394 2113 634 
Q 2247 906 2284 1214 
Q 2322 1522 2322 1978 
Q 2213 1719 2008 1553 
Q 1803 1388 1538 1388 
Q 1166 1388 873 1589 
Q 581 1791 425 2120 
Q 269 2450 269 2822 
Q 269 3206 444 3539 
Q 619 3872 928 4067 
Q 1238 4263 1631 4263 
Q 2019 4263 2280 4052 
Q 2541 3841 2678 3508 
Q 2816 3175 2870 2803 
Q 2925 2431 2925 2069 
Q 2925 1575 2744 1061 
Q 2563 547 2202 203 
Q 1841 -141 1331 -141 
Q 953 -141 690 37 
Q 428 216 428 575 
Q 428 706 517 795 
Q 606 884 738 884 
Q 866 884 955 795 
Q 1044 706 1044 575 
Q 1044 450 953 359 
Q 863 269 738 269 
L 722 269 
z
M 1563 1556 
Q 1825 1556 1992 1732 
Q 2159 1909 2234 2171 
Q 2309 2434 2309 2694 
L 2309 2816 
L 2309 2841 
Q 2309 3322 2168 3700 
Q 2028 4078 1631 4078 
Q 1378 4078 1220 3967 
Q 1063 3856 988 3672 
Q 913 3488 892 3278 
Q 872 3069 872 2822 
Q 872 2459 906 2203 
Q 941 1947 1094 1751 
Q 1247 1556 1563 1556 
z
" transform="scale(0.015625)"/>
       </defs>
       <use xlink:href="#Cmr10-30"/>
       <use xlink:href="#Cmr10-2e" x="50"/>
       <use xlink:href="#Cmr10-39" x="77.685547"/>
       <use xlink:href="#Cmr10-32" x="127.685547"/>
      </g>
     </g>
    </g>
    <g id="ytick_6">
     <g id="line2d_26">
      <g>
       <use xlink:href="#meb03392828" x="358.40649" y="170.206416" style="stroke: #000000; stroke-width: 0.8"/>
      </g>
     </g>
     <g id="text_29">
      <!-- 0.94 -->
      <g transform="translate(315.86899 177.145479) scale(0.2 -0.2)">
       <use xlink:href="#Cmr10-30"/>
       <use xlink:href="#Cmr10-2e" x="50"/>
       <use xlink:href="#Cmr10-39" x="77.685547"/>
       <use xlink:href="#Cmr10-34" x="127.685547"/>
      </g>
     </g>
    </g>
    <g id="ytick_7">
     <g id="line2d_27">
      <g>
       <use xlink:href="#meb03392828" x="358.40649" y="108.883099" style="stroke: #000000; stroke-width: 0.8"/>
      </g>
     </g>
     <g id="text_30">
      <!-- 0.96 -->
      <g transform="translate(315.86899 115.822162) scale(0.2 -0.2)">
       <use xlink:href="#Cmr10-30"/>
       <use xlink:href="#Cmr10-2e" x="50"/>
       <use xlink:href="#Cmr10-39" x="77.685547"/>
       <use xlink:href="#Cmr10-36" x="127.685547"/>
      </g>
     </g>
    </g>
    <g id="ytick_8">
     <g id="line2d_28">
      <g>
       <use xlink:href="#meb03392828" x="358.40649" y="47.559782" style="stroke: #000000; stroke-width: 0.8"/>
      </g>
     </g>
     <g id="text_31">
      <!-- 0.98 -->
      <g transform="translate(315.86899 54.498845) scale(0.2 -0.2)">
       <use xlink:href="#Cmr10-30"/>
       <use xlink:href="#Cmr10-2e" x="50"/>
       <use xlink:href="#Cmr10-39" x="77.685547"/>
       <use xlink:href="#Cmr10-38" x="127.685547"/>
      </g>
     </g>
    </g>
    <g id="text_32">
     <!-- IoU -->
     <g transform="translate(307.990865 136.851563) rotate(-90) scale(0.2 -0.2)">
      <defs>
       <path id="Cmr10-49" d="M 166 0 
L 166 225 
Q 856 225 856 428 
L 856 3944 
Q 856 4147 166 4147 
L 166 4372 
L 2144 4372 
L 2144 4147 
Q 1453 4147 1453 3944 
L 1453 428 
Q 1453 225 2144 225 
L 2144 0 
L 166 0 
z
" transform="scale(0.015625)"/>
       <path id="Cmr10-55" d="M 856 1447 
L 856 3944 
Q 856 4147 197 4147 
L 197 4372 
L 2113 4372 
L 2113 4147 
Q 1453 4147 1453 3944 
L 1453 1472 
Q 1453 1116 1551 798 
Q 1650 481 1883 282 
Q 2116 84 2491 84 
Q 2856 84 3134 276 
Q 3413 469 3563 787 
Q 3713 1106 3713 1472 
L 3713 3769 
Q 3713 4147 3053 4147 
L 3053 4372 
L 4594 4372 
L 4594 4147 
Q 3938 4147 3938 3769 
L 3938 1447 
Q 3938 1150 3833 865 
Q 3728 581 3529 351 
Q 3331 122 3062 -9 
Q 2794 -141 2491 -141 
Q 2066 -141 1686 71 
Q 1306 284 1081 650 
Q 856 1016 856 1447 
z
" transform="scale(0.015625)"/>
      </defs>
      <use xlink:href="#Cmr10-49"/>
      <use xlink:href="#Cmr10-6f" x="36.083984"/>
      <use xlink:href="#Cmr10-55" x="86.083984"/>
     </g>
    </g>
   </g>
   <g id="line2d_29">
    <path d="M 367.989139 227.783305 
L 371.237494 142.493227 
L 374.48585 117.686435 
L 377.734205 101.086048 
L 380.982561 93.372885 
L 384.230916 84.066804 
L 387.479271 77.639384 
L 390.727627 73.889642 
L 393.975982 69.616032 
L 397.224338 56.969648 
L 400.472693 54.406343 
L 403.721049 53.410102 
L 406.969404 49.357912 
L 410.21776 48.711135 
L 413.466115 49.055971 
L 416.714471 48.074039 
L 419.962826 46.4646 
L 423.211182 44.009373 
L 426.459537 37.194064 
L 429.707893 35.666125 
L 432.956248 34.938666 
L 436.204604 34.250311 
L 439.452959 32.97242 
L 442.701314 32.207747 
L 445.94967 28.334179 
L 449.198025 27.365295 
L 452.446381 26.259812 
L 455.694736 26.031781 
L 458.943092 25.798854 
L 462.191447 24.947516 
L 465.439803 24.964367 
L 468.688158 23.821838 
L 471.936514 23.849663 
L 475.184869 23.207671 
L 478.433225 22.816427 
L 481.68158 20.325492 
L 484.929936 19.853457 
L 488.178291 19.509944 
L 491.426646 17.794936 
L 494.675002 17.595876 
L 497.923357 17.359831 
L 501.171713 16.383914 
L 504.420068 16.167907 
L 507.668424 15.877522 
L 510.916779 15.774063 
L 514.165135 15.64686 
L 517.41349 15.396356 
L 520.661846 15.459185 
L 523.910201 14.935051 
L 527.158557 14.773548 
L 530.406912 14.584853 
L 533.655268 14.506543 
L 536.903623 14.553232 
L 540.151979 14.462703 
L 543.400334 13.991395 
L 546.648689 13.968705 
L 549.897045 13.903572 
L 553.1454 13.923788 
L 556.393756 13.704195 
L 559.642111 13.950622 
" clip-path="url(#p9108104b79)" style="fill: none; stroke: #0000ff; stroke-width: 1.5; stroke-linecap: square"/>
   </g>
   <g id="line2d_30">
    <path d="M 367.989139 217.591 
L 371.237494 225.855199 
L 374.48585 147.807696 
L 377.734205 124.555778 
L 380.982561 112.15648 
L 384.230916 131.098934 
L 387.479271 99.478525 
L 390.727627 116.018428 
L 393.975982 101.526008 
L 397.224338 81.269093 
L 400.472693 80.084179 
L 403.721049 75.190442 
L 406.969404 82.183633 
L 410.21776 74.575797 
L 413.466115 85.827104 
L 416.714471 67.339397 
L 419.962826 77.730093 
L 423.211182 77.945644 
L 426.459537 56.242209 
L 429.707893 65.300135 
L 432.956248 55.249791 
L 436.204604 54.338483 
L 439.452959 60.361486 
L 442.701314 61.36253 
L 445.94967 49.484737 
L 449.198025 49.982885 
L 452.446381 47.715163 
L 455.694736 49.066253 
L 458.943092 47.563974 
L 462.191447 51.498228 
L 465.439803 46.88497 
L 468.688158 47.712571 
L 471.936514 46.83528 
L 475.184869 49.852592 
L 478.433225 49.749316 
L 481.68158 43.611756 
L 484.929936 44.849095 
L 488.178291 44.348184 
L 491.426646 42.422348 
L 494.675002 42.705609 
L 497.923357 42.458454 
L 501.171713 41.25857 
L 504.420068 41.452972 
L 507.668424 41.05819 
L 510.916779 41.826465 
L 514.165135 40.941204 
L 517.41349 41.6075 
L 520.661846 41.039268 
L 523.910201 40.64647 
L 527.158557 40.923783 
L 530.406912 40.371289 
L 533.655268 40.594773 
L 536.903623 40.75405 
L 540.151979 40.242007 
L 543.400334 40.114759 
L 546.648689 40.318714 
L 549.897045 40.334027 
L 553.1454 39.815672 
L 556.393756 40.388236 
L 559.642111 40.111067 
" clip-path="url(#p9108104b79)" style="fill: none; stroke: #008000; stroke-width: 1.5; stroke-linecap: square"/>
   </g>
   <g id="patch_9">
    <path d="M 358.40649 238.48726 
L 358.40649 3.00024 
" style="fill: none; stroke: #000000; stroke-width: 0.8; stroke-linejoin: miter; stroke-linecap: square"/>
   </g>
   <g id="patch_10">
    <path d="M 569.22476 238.48726 
L 569.22476 3.00024 
" style="fill: none; stroke: #000000; stroke-width: 0.8; stroke-linejoin: miter; stroke-linecap: square"/>
   </g>
   <g id="patch_11">
    <path d="M 358.40649 238.48726 
L 569.22476 238.48726 
" style="fill: none; stroke: #000000; stroke-width: 0.8; stroke-linejoin: miter; stroke-linecap: square"/>
   </g>
   <g id="patch_12">
    <path d="M 358.40649 3.00024 
L 569.22476 3.00024 
" style="fill: none; stroke: #000000; stroke-width: 0.8; stroke-linejoin: miter; stroke-linecap: square"/>
   </g>
   <g id="text_33">
    <!-- B -->
    <g transform="translate(359.759533 25.661767) scale(0.2 -0.2)">
     <defs>
      <path id="Cmr10-42" d="M 219 0 
L 219 225 
Q 878 225 878 428 
L 878 3944 
Q 878 4147 219 4147 
L 219 4372 
L 2572 4372 
Q 2897 4372 3228 4245 
Q 3559 4119 3776 3870 
Q 3994 3622 3994 3284 
Q 3994 2894 3673 2630 
Q 3353 2366 2925 2284 
Q 3203 2284 3497 2131 
Q 3791 1978 3978 1722 
Q 4166 1466 4166 1178 
Q 4166 828 3958 559 
Q 3750 291 3419 145 
Q 3088 0 2753 0 
L 219 0 
z
M 1434 428 
Q 1434 291 1512 258 
Q 1591 225 1759 225 
L 2572 225 
Q 2822 225 3036 356 
Q 3250 488 3375 708 
Q 3500 928 3500 1178 
Q 3500 1422 3397 1655 
Q 3294 1888 3101 2038 
Q 2909 2188 2663 2188 
L 1434 2188 
L 1434 428 
z
M 1434 2356 
L 2394 2356 
Q 2588 2356 2758 2426 
Q 2928 2497 3064 2630 
Q 3200 2763 3273 2930 
Q 3347 3097 3347 3284 
Q 3347 3450 3292 3603 
Q 3238 3756 3131 3881 
Q 3025 4006 2881 4076 
Q 2738 4147 2572 4147 
L 1759 4147 
Q 1644 4147 1580 4137 
Q 1516 4128 1475 4083 
Q 1434 4038 1434 3944 
L 1434 2356 
z
" transform="scale(0.015625)"/>
     </defs>
     <use xlink:href="#Cmr10-42"/>
    </g>
   </g>
  </g>
  <g id="axes_3">
   <g id="patch_13">
    <path d="M 650.18149 238.48726 
L 860.99976 238.48726 
L 860.99976 3.00024 
L 650.18149 3.00024 
z
" style="fill: #ffffff"/>
   </g>
   <g id="matplotlib.axis_5">
    <g id="xtick_17">
     <g id="line2d_31">
      <g>
       <use xlink:href="#md2d93c245e" x="659.764139" y="238.48726" style="stroke: #000000; stroke-width: 0.8"/>
      </g>
     </g>
     <g id="text_34">
      <!-- 0 -->
      <g transform="translate(654.764139 259.365385) scale(0.2 -0.2)">
       <use xlink:href="#Cmr10-30"/>
      </g>
     </g>
    </g>
    <g id="xtick_18">
     <g id="line2d_32">
      <g>
       <use xlink:href="#md2d93c245e" x="685.750982" y="238.48726" style="stroke: #000000; stroke-width: 0.8"/>
      </g>
     </g>
     <g id="text_35">
      <!-- 8 -->
      <g transform="translate(680.750982 259.365385) scale(0.2 -0.2)">
       <use xlink:href="#Cmr10-38"/>
      </g>
     </g>
    </g>
    <g id="xtick_19">
     <g id="line2d_33">
      <g>
       <use xlink:href="#md2d93c245e" x="711.737826" y="238.48726" style="stroke: #000000; stroke-width: 0.8"/>
      </g>
     </g>
     <g id="text_36">
      <!-- 16 -->
      <g transform="translate(701.737826 259.365385) scale(0.2 -0.2)">
       <use xlink:href="#Cmr10-31"/>
       <use xlink:href="#Cmr10-36" x="50"/>
      </g>
     </g>
    </g>
    <g id="xtick_20">
     <g id="line2d_34">
      <g>
       <use xlink:href="#md2d93c245e" x="737.72467" y="238.48726" style="stroke: #000000; stroke-width: 0.8"/>
      </g>
     </g>
     <g id="text_37">
      <!-- 24 -->
      <g transform="translate(727.72467 259.365385) scale(0.2 -0.2)">
       <use xlink:href="#Cmr10-32"/>
       <use xlink:href="#Cmr10-34" x="50"/>
      </g>
     </g>
    </g>
    <g id="xtick_21">
     <g id="line2d_35">
      <g>
       <use xlink:href="#md2d93c245e" x="763.711514" y="238.48726" style="stroke: #000000; stroke-width: 0.8"/>
      </g>
     </g>
     <g id="text_38">
      <!-- 32 -->
      <g transform="translate(753.711514 259.365385) scale(0.2 -0.2)">
       <use xlink:href="#Cmr10-33"/>
       <use xlink:href="#Cmr10-32" x="50"/>
      </g>
     </g>
    </g>
    <g id="xtick_22">
     <g id="line2d_36">
      <g>
       <use xlink:href="#md2d93c245e" x="789.698357" y="238.48726" style="stroke: #000000; stroke-width: 0.8"/>
      </g>
     </g>
     <g id="text_39">
      <!-- 40 -->
      <g transform="translate(779.698357 259.365385) scale(0.2 -0.2)">
       <use xlink:href="#Cmr10-34"/>
       <use xlink:href="#Cmr10-30" x="50"/>
      </g>
     </g>
    </g>
    <g id="xtick_23">
     <g id="line2d_37">
      <g>
       <use xlink:href="#md2d93c245e" x="815.685201" y="238.48726" style="stroke: #000000; stroke-width: 0.8"/>
      </g>
     </g>
     <g id="text_40">
      <!-- 48 -->
      <g transform="translate(805.685201 259.365385) scale(0.2 -0.2)">
       <use xlink:href="#Cmr10-34"/>
       <use xlink:href="#Cmr10-38" x="50"/>
      </g>
     </g>
    </g>
    <g id="xtick_24">
     <g id="line2d_38">
      <g>
       <use xlink:href="#md2d93c245e" x="841.672045" y="238.48726" style="stroke: #000000; stroke-width: 0.8"/>
      </g>
     </g>
     <g id="text_41">
      <!-- 56 -->
      <g transform="translate(831.672045 259.365385) scale(0.2 -0.2)">
       <use xlink:href="#Cmr10-35"/>
       <use xlink:href="#Cmr10-36" x="50"/>
      </g>
     </g>
    </g>
    <g id="text_42">
     <!-- Epoch -->
     <g transform="translate(728.246875 281.121635) scale(0.2 -0.2)">
      <use xlink:href="#Cmr10-45"/>
      <use xlink:href="#Cmr10-70" x="68.017578"/>
      <use xlink:href="#Cmr10-6f" x="123.535156"/>
      <use xlink:href="#Cmr10-63" x="173.535156"/>
      <use xlink:href="#Cmr10-68" x="217.919922"/>
     </g>
    </g>
   </g>
   <g id="matplotlib.axis_6">
    <g id="ytick_9">
     <g id="line2d_39">
      <g>
       <use xlink:href="#meb03392828" x="650.18149" y="213.896939" style="stroke: #000000; stroke-width: 0.8"/>
      </g>
     </g>
     <g id="text_43">
      <!-- 0.980 -->
      <g transform="translate(597.64399 220.836002) scale(0.2 -0.2)">
       <use xlink:href="#Cmr10-30"/>
       <use xlink:href="#Cmr10-2e" x="50"/>
       <use xlink:href="#Cmr10-39" x="77.685547"/>
       <use xlink:href="#Cmr10-38" x="127.685547"/>
       <use xlink:href="#Cmr10-30" x="177.685547"/>
      </g>
     </g>
    </g>
    <g id="ytick_10">
     <g id="line2d_40">
      <g>
       <use xlink:href="#meb03392828" x="650.18149" y="157.51214" style="stroke: #000000; stroke-width: 0.8"/>
      </g>
     </g>
     <g id="text_44">
      <!-- 0.985 -->
      <g transform="translate(597.64399 164.451202) scale(0.2 -0.2)">
       <use xlink:href="#Cmr10-30"/>
       <use xlink:href="#Cmr10-2e" x="50"/>
       <use xlink:href="#Cmr10-39" x="77.685547"/>
       <use xlink:href="#Cmr10-38" x="127.685547"/>
       <use xlink:href="#Cmr10-35" x="177.685547"/>
      </g>
     </g>
    </g>
    <g id="ytick_11">
     <g id="line2d_41">
      <g>
       <use xlink:href="#meb03392828" x="650.18149" y="101.12734" style="stroke: #000000; stroke-width: 0.8"/>
      </g>
     </g>
     <g id="text_45">
      <!-- 0.990 -->
      <g transform="translate(597.64399 108.066403) scale(0.2 -0.2)">
       <use xlink:href="#Cmr10-30"/>
       <use xlink:href="#Cmr10-2e" x="50"/>
       <use xlink:href="#Cmr10-39" x="77.685547"/>
       <use xlink:href="#Cmr10-39" x="127.685547"/>
       <use xlink:href="#Cmr10-30" x="177.685547"/>
      </g>
     </g>
    </g>
    <g id="ytick_12">
     <g id="line2d_42">
      <g>
       <use xlink:href="#meb03392828" x="650.18149" y="44.742541" style="stroke: #000000; stroke-width: 0.8"/>
      </g>
     </g>
     <g id="text_46">
      <!-- 0.995 -->
      <g transform="translate(597.64399 51.681603) scale(0.2 -0.2)">
       <use xlink:href="#Cmr10-30"/>
       <use xlink:href="#Cmr10-2e" x="50"/>
       <use xlink:href="#Cmr10-39" x="77.685547"/>
       <use xlink:href="#Cmr10-39" x="127.685547"/>
       <use xlink:href="#Cmr10-35" x="177.685547"/>
      </g>
     </g>
    </g>
    <g id="text_47">
     <!-- Accuracy -->
     <g transform="translate(589.540865 161.292188) rotate(-90) scale(0.2 -0.2)">
      <defs>
       <path id="Cmr10-75" d="M 691 763 
L 691 2175 
Q 691 2347 639 2423 
Q 588 2500 491 2517 
Q 394 2534 191 2534 
L 191 2759 
L 1159 2828 
L 1159 763 
Q 1159 513 1195 373 
Q 1231 234 1348 165 
Q 1466 97 1722 97 
Q 2066 97 2269 384 
Q 2472 672 2472 1038 
L 2472 2175 
Q 2472 2347 2419 2423 
Q 2366 2500 2270 2517 
Q 2175 2534 1972 2534 
L 1972 2759 
L 2938 2828 
L 2938 581 
Q 2938 413 2989 336 
Q 3041 259 3137 242 
Q 3234 225 3438 225 
L 3438 0 
L 2491 -72 
L 2491 469 
Q 2372 228 2159 78 
Q 1947 -72 1691 -72 
Q 1231 -72 961 123 
Q 691 319 691 763 
z
" transform="scale(0.015625)"/>
       <path id="Cmr10-79" d="M 441 -1050 
Q 563 -1147 709 -1147 
Q 1113 -1147 1369 -538 
L 1588 0 
L 628 2350 
Q 569 2469 447 2501 
Q 325 2534 122 2534 
L 122 2759 
L 1466 2759 
L 1466 2534 
Q 1113 2534 1113 2381 
Q 1113 2356 1119 2344 
L 1831 594 
L 2472 2169 
Q 2491 2219 2491 2278 
Q 2491 2356 2448 2414 
Q 2406 2472 2339 2503 
Q 2272 2534 2188 2534 
L 2188 2759 
L 3250 2759 
L 3250 2534 
Q 3053 2534 2904 2443 
Q 2756 2353 2675 2175 
L 1569 -538 
Q 1481 -744 1364 -917 
Q 1247 -1091 1078 -1202 
Q 909 -1313 709 -1313 
Q 475 -1313 298 -1158 
Q 122 -1003 122 -775 
Q 122 -656 203 -575 
Q 284 -494 403 -494 
Q 484 -494 548 -530 
Q 613 -566 648 -628 
Q 684 -691 684 -775 
Q 684 -878 615 -959 
Q 547 -1041 441 -1050 
z
" transform="scale(0.015625)"/>
      </defs>
      <use xlink:href="#Cmr10-41"/>
      <use xlink:href="#Cmr10-63" x="75"/>
      <use xlink:href="#Cmr10-63" x="119.384766"/>
      <use xlink:href="#Cmr10-75" x="163.769531"/>
      <use xlink:href="#Cmr10-72" x="219.287109"/>
      <use xlink:href="#Cmr10-61" x="258.398438"/>
      <use xlink:href="#Cmr10-63" x="308.398438"/>
      <use xlink:href="#Cmr10-79" x="352.783203"/>
     </g>
    </g>
   </g>
   <g id="line2d_43">
    <path d="M 659.764139 227.783305 
L 663.012494 135.334753 
L 666.26085 111.496922 
L 669.509205 95.762618 
L 672.757561 88.330545 
L 676.005916 79.351807 
L 679.254271 73.626526 
L 682.502627 69.84848 
L 685.750982 65.833337 
L 688.999338 53.977214 
L 692.247693 51.416452 
L 695.496049 50.576023 
L 698.744404 46.912513 
L 701.99276 46.386571 
L 705.241115 46.584589 
L 708.489471 45.734598 
L 711.737826 44.033339 
L 714.986182 41.822772 
L 718.234537 35.492801 
L 721.482893 34.047092 
L 724.731248 33.504902 
L 727.979604 32.773804 
L 731.227959 31.635434 
L 734.476314 30.967057 
L 737.72467 27.253133 
L 740.973025 26.420448 
L 744.221381 25.317439 
L 747.469736 25.114376 
L 750.718092 24.89521 
L 753.966447 24.104045 
L 757.214803 24.076821 
L 760.463158 23.105735 
L 763.711514 23.049468 
L 766.959869 22.562577 
L 770.208225 22.166484 
L 773.45658 19.906331 
L 776.704936 19.374617 
L 779.953291 19.09385 
L 783.201646 17.535393 
L 786.450002 17.321168 
L 789.698357 17.092323 
L 792.946713 16.184551 
L 796.195068 15.979853 
L 799.443424 15.699421 
L 802.691779 15.615111 
L 805.940135 15.496862 
L 809.18849 15.25705 
L 812.436846 15.340343 
L 815.685201 14.832767 
L 818.933557 14.671115 
L 822.181912 14.534006 
L 825.430268 14.478635 
L 828.678623 14.520161 
L 831.926979 14.3511 
L 835.175334 13.99314 
L 838.423689 13.95368 
L 841.672045 13.967689 
L 844.9204 13.893797 
L 848.168756 13.704195 
L 851.417111 13.930444 
" clip-path="url(#p94a649dd4f)" style="fill: none; stroke: #0000ff; stroke-width: 1.5; stroke-linecap: square"/>
   </g>
   <g id="line2d_44">
    <path d="M 659.764139 167.974316 
L 663.012494 176.644497 
L 666.26085 113.332763 
L 669.509205 95.569158 
L 672.757561 85.751629 
L 676.005916 101.315229 
L 679.254271 75.745716 
L 682.502627 89.420378 
L 685.750982 77.378656 
L 688.999338 60.977337 
L 692.247693 60.14173 
L 695.496049 56.539392 
L 698.744404 61.961056 
L 701.99276 56.199289 
L 705.241115 64.123004 
L 708.489471 50.599635 
L 711.737826 58.556712 
L 714.986182 58.705751 
L 718.234537 41.932984 
L 721.482893 48.812912 
L 724.731248 41.137953 
L 727.979604 40.543631 
L 731.227959 45.355685 
L 734.476314 45.827191 
L 737.72467 36.674693 
L 740.973025 37.0037 
L 744.221381 35.328396 
L 747.469736 36.289347 
L 750.718092 35.283058 
L 753.966447 38.175918 
L 757.214803 34.670077 
L 760.463158 35.103099 
L 763.711514 34.56291 
L 766.959869 36.992586 
L 770.208225 36.968133 
L 773.45658 32.10152 
L 776.704936 33.057738 
L 779.953291 32.706303 
L 783.201646 31.229086 
L 786.450002 31.384109 
L 789.698357 31.317906 
L 792.946713 30.293298 
L 796.195068 30.442007 
L 799.443424 30.130825 
L 802.691779 30.71087 
L 805.940135 30.059292 
L 809.18849 30.631821 
L 812.436846 30.162824 
L 815.685201 29.861337 
L 818.933557 30.04654 
L 822.181912 29.616898 
L 825.430268 29.801732 
L 828.678623 29.950706 
L 831.926979 29.517409 
L 835.175334 29.445204 
L 838.423689 29.598967 
L 841.672045 29.581151 
L 844.9204 29.213498 
L 848.168756 29.635756 
L 851.417111 29.443481 
" clip-path="url(#p94a649dd4f)" style="fill: none; stroke: #008000; stroke-width: 1.5; stroke-linecap: square"/>
   </g>
   <g id="patch_14">
    <path d="M 650.18149 238.48726 
L 650.18149 3.00024 
" style="fill: none; stroke: #000000; stroke-width: 0.8; stroke-linejoin: miter; stroke-linecap: square"/>
   </g>
   <g id="patch_15">
    <path d="M 860.99976 238.48726 
L 860.99976 3.00024 
" style="fill: none; stroke: #000000; stroke-width: 0.8; stroke-linejoin: miter; stroke-linecap: square"/>
   </g>
   <g id="patch_16">
    <path d="M 650.18149 238.48726 
L 860.99976 238.48726 
" style="fill: none; stroke: #000000; stroke-width: 0.8; stroke-linejoin: miter; stroke-linecap: square"/>
   </g>
   <g id="patch_17">
    <path d="M 650.18149 3.00024 
L 860.99976 3.00024 
" style="fill: none; stroke: #000000; stroke-width: 0.8; stroke-linejoin: miter; stroke-linecap: square"/>
   </g>
   <g id="text_48">
    <!-- C -->
    <g transform="translate(651.392346 25.661767) scale(0.2 -0.2)">
     <defs>
      <path id="Cmr10-43" d="M 1459 684 
Q 1678 406 2006 245 
Q 2334 84 2688 84 
Q 2984 84 3237 201 
Q 3491 319 3680 528 
Q 3869 738 3970 1003 
Q 4072 1269 4072 1563 
Q 4072 1613 4128 1613 
L 4206 1613 
Q 4256 1613 4256 1550 
Q 4256 1216 4128 905 
Q 4000 594 3765 358 
Q 3531 122 3226 -9 
Q 2922 -141 2591 -141 
Q 2131 -141 1720 45 
Q 1309 231 1004 554 
Q 700 878 529 1303 
Q 359 1728 359 2188 
Q 359 2647 529 3072 
Q 700 3497 1004 3822 
Q 1309 4147 1720 4330 
Q 2131 4513 2591 4513 
Q 2919 4513 3219 4370 
Q 3519 4228 3744 3969 
L 4116 4494 
Q 4153 4513 4159 4513 
L 4206 4513 
Q 4225 4513 4240 4497 
Q 4256 4481 4256 4459 
L 4256 2731 
Q 4256 2675 4206 2675 
L 4091 2675 
Q 4031 2675 4031 2731 
Q 4031 2916 3957 3144 
Q 3884 3372 3770 3576 
Q 3656 3781 3506 3938 
Q 3147 4288 2681 4288 
Q 2328 4288 2004 4128 
Q 1681 3969 1459 3688 
Q 1225 3388 1134 3005 
Q 1044 2622 1044 2188 
Q 1044 1753 1134 1368 
Q 1225 984 1459 684 
z
" transform="scale(0.015625)"/>
     </defs>
     <use xlink:href="#Cmr10-43"/>
    </g>
   </g>
  </g>
  <g id="axes_4">
   <g id="patch_18">
    <path d="M 67.29399 526.48726 
L 278.11226 526.48726 
L 278.11226 291.00024 
L 67.29399 291.00024 
z
" style="fill: #ffffff"/>
   </g>
   <g id="matplotlib.axis_7">
    <g id="xtick_25">
     <g id="line2d_45">
      <g>
       <use xlink:href="#md2d93c245e" x="76.876639" y="526.48726" style="stroke: #000000; stroke-width: 0.8"/>
      </g>
     </g>
     <g id="text_49">
      <!-- 0 -->
      <g transform="translate(71.876639 547.365385) scale(0.2 -0.2)">
       <use xlink:href="#Cmr10-30"/>
      </g>
     </g>
    </g>
    <g id="xtick_26">
     <g id="line2d_46">
      <g>
       <use xlink:href="#md2d93c245e" x="102.863482" y="526.48726" style="stroke: #000000; stroke-width: 0.8"/>
      </g>
     </g>
     <g id="text_50">
      <!-- 8 -->
      <g transform="translate(97.863482 547.365385) scale(0.2 -0.2)">
       <use xlink:href="#Cmr10-38"/>
      </g>
     </g>
    </g>
    <g id="xtick_27">
     <g id="line2d_47">
      <g>
       <use xlink:href="#md2d93c245e" x="128.850326" y="526.48726" style="stroke: #000000; stroke-width: 0.8"/>
      </g>
     </g>
     <g id="text_51">
      <!-- 16 -->
      <g transform="translate(118.850326 547.365385) scale(0.2 -0.2)">
       <use xlink:href="#Cmr10-31"/>
       <use xlink:href="#Cmr10-36" x="50"/>
      </g>
     </g>
    </g>
    <g id="xtick_28">
     <g id="line2d_48">
      <g>
       <use xlink:href="#md2d93c245e" x="154.83717" y="526.48726" style="stroke: #000000; stroke-width: 0.8"/>
      </g>
     </g>
     <g id="text_52">
      <!-- 24 -->
      <g transform="translate(144.83717 547.365385) scale(0.2 -0.2)">
       <use xlink:href="#Cmr10-32"/>
       <use xlink:href="#Cmr10-34" x="50"/>
      </g>
     </g>
    </g>
    <g id="xtick_29">
     <g id="line2d_49">
      <g>
       <use xlink:href="#md2d93c245e" x="180.824014" y="526.48726" style="stroke: #000000; stroke-width: 0.8"/>
      </g>
     </g>
     <g id="text_53">
      <!-- 32 -->
      <g transform="translate(170.824014 547.365385) scale(0.2 -0.2)">
       <use xlink:href="#Cmr10-33"/>
       <use xlink:href="#Cmr10-32" x="50"/>
      </g>
     </g>
    </g>
    <g id="xtick_30">
     <g id="line2d_50">
      <g>
       <use xlink:href="#md2d93c245e" x="206.810857" y="526.48726" style="stroke: #000000; stroke-width: 0.8"/>
      </g>
     </g>
     <g id="text_54">
      <!-- 40 -->
      <g transform="translate(196.810857 547.365385) scale(0.2 -0.2)">
       <use xlink:href="#Cmr10-34"/>
       <use xlink:href="#Cmr10-30" x="50"/>
      </g>
     </g>
    </g>
    <g id="xtick_31">
     <g id="line2d_51">
      <g>
       <use xlink:href="#md2d93c245e" x="232.797701" y="526.48726" style="stroke: #000000; stroke-width: 0.8"/>
      </g>
     </g>
     <g id="text_55">
      <!-- 48 -->
      <g transform="translate(222.797701 547.365385) scale(0.2 -0.2)">
       <use xlink:href="#Cmr10-34"/>
       <use xlink:href="#Cmr10-38" x="50"/>
      </g>
     </g>
    </g>
    <g id="xtick_32">
     <g id="line2d_52">
      <g>
       <use xlink:href="#md2d93c245e" x="258.784545" y="526.48726" style="stroke: #000000; stroke-width: 0.8"/>
      </g>
     </g>
     <g id="text_56">
      <!-- 56 -->
      <g transform="translate(248.784545 547.365385) scale(0.2 -0.2)">
       <use xlink:href="#Cmr10-35"/>
       <use xlink:href="#Cmr10-36" x="50"/>
      </g>
     </g>
    </g>
    <g id="text_57">
     <!-- Epoch -->
     <g transform="translate(145.359375 569.121635) scale(0.2 -0.2)">
      <use xlink:href="#Cmr10-45"/>
      <use xlink:href="#Cmr10-70" x="68.017578"/>
      <use xlink:href="#Cmr10-6f" x="123.535156"/>
      <use xlink:href="#Cmr10-63" x="173.535156"/>
      <use xlink:href="#Cmr10-68" x="217.919922"/>
     </g>
    </g>
   </g>
   <g id="matplotlib.axis_8">
    <g id="ytick_13">
     <g id="line2d_53">
      <g>
       <use xlink:href="#meb03392828" x="67.29399" y="465.215575" style="stroke: #000000; stroke-width: 0.8"/>
      </g>
     </g>
     <g id="text_58">
      <!-- 0.96 -->
      <g transform="translate(24.75649 472.154638) scale(0.2 -0.2)">
       <use xlink:href="#Cmr10-30"/>
       <use xlink:href="#Cmr10-2e" x="50"/>
       <use xlink:href="#Cmr10-39" x="77.685547"/>
       <use xlink:href="#Cmr10-36" x="127.685547"/>
      </g>
     </g>
    </g>
    <g id="ytick_14">
     <g id="line2d_54">
      <g>
       <use xlink:href="#meb03392828" x="67.29399" y="373.155771" style="stroke: #000000; stroke-width: 0.8"/>
      </g>
     </g>
     <g id="text_59">
      <!-- 0.98 -->
      <g transform="translate(24.75649 380.094834) scale(0.2 -0.2)">
       <use xlink:href="#Cmr10-30"/>
       <use xlink:href="#Cmr10-2e" x="50"/>
       <use xlink:href="#Cmr10-39" x="77.685547"/>
       <use xlink:href="#Cmr10-38" x="127.685547"/>
      </g>
     </g>
    </g>
    <g id="text_60">
     <!-- Recall -->
     <g transform="translate(16.878365 435.517188) rotate(-90) scale(0.2 -0.2)">
      <defs>
       <path id="Cmr10-52" d="M 213 0 
L 213 225 
Q 872 225 872 428 
L 872 3944 
Q 872 4147 213 4147 
L 213 4372 
L 2222 4372 
Q 2581 4372 2976 4242 
Q 3372 4113 3637 3847 
Q 3903 3581 3903 3213 
Q 3903 2944 3742 2733 
Q 3581 2522 3329 2380 
Q 3078 2238 2816 2175 
Q 3103 2075 3318 1856 
Q 3534 1638 3578 1356 
L 3669 788 
Q 3731 403 3800 214 
Q 3869 25 4103 25 
Q 4303 25 4401 211 
Q 4500 397 4500 616 
Q 4500 638 4520 655 
Q 4541 672 4563 672 
L 4622 672 
Q 4684 672 4684 588 
Q 4684 413 4615 245 
Q 4547 78 4417 -31 
Q 4288 -141 4109 -141 
Q 3647 -141 3314 89 
Q 2981 319 2981 763 
L 2981 1331 
Q 2981 1650 2759 1878 
Q 2538 2106 2216 2106 
L 1447 2106 
L 1447 428 
Q 1447 225 2106 225 
L 2106 0 
L 213 0 
z
M 1447 2272 
L 2131 2272 
Q 2663 2272 2941 2486 
Q 3219 2700 3219 3213 
Q 3219 3722 2944 3934 
Q 2669 4147 2131 4147 
L 1772 4147 
Q 1656 4147 1592 4137 
Q 1528 4128 1487 4083 
Q 1447 4038 1447 3944 
L 1447 2272 
z
" transform="scale(0.015625)"/>
       <path id="Cmr10-65" d="M 1594 -72 
Q 1203 -72 876 133 
Q 550 338 364 680 
Q 178 1022 178 1403 
Q 178 1778 348 2115 
Q 519 2453 823 2661 
Q 1128 2869 1503 2869 
Q 1797 2869 2014 2770 
Q 2231 2672 2372 2497 
Q 2513 2322 2584 2084 
Q 2656 1847 2656 1563 
Q 2656 1478 2591 1478 
L 738 1478 
L 738 1409 
Q 738 878 952 497 
Q 1166 116 1650 116 
Q 1847 116 2014 203 
Q 2181 291 2304 447 
Q 2428 603 2472 781 
Q 2478 803 2495 820 
Q 2513 838 2534 838 
L 2591 838 
Q 2656 838 2656 756 
Q 2566 394 2266 161 
Q 1966 -72 1594 -72 
z
M 744 1638 
L 2203 1638 
Q 2203 1878 2136 2125 
Q 2069 2372 1912 2536 
Q 1756 2700 1503 2700 
Q 1141 2700 942 2361 
Q 744 2022 744 1638 
z
" transform="scale(0.015625)"/>
      </defs>
      <use xlink:href="#Cmr10-52"/>
      <use xlink:href="#Cmr10-65" x="73.583984"/>
      <use xlink:href="#Cmr10-63" x="117.96875"/>
      <use xlink:href="#Cmr10-61" x="162.353516"/>
      <use xlink:href="#Cmr10-6c" x="212.353516"/>
      <use xlink:href="#Cmr10-6c" x="240.039062"/>
     </g>
    </g>
   </g>
   <g id="line2d_55">
    <path d="M 76.876639 458.507331 
L 80.124994 402.64124 
L 83.37335 383.301905 
L 86.621705 369.863965 
L 89.870061 363.443196 
L 93.118416 355.812152 
L 96.366771 350.842431 
L 99.615127 348.064926 
L 102.863482 344.261567 
L 106.111838 334.744172 
L 109.360193 332.88425 
L 112.608549 331.907859 
L 115.856904 328.598842 
L 119.10526 328.004504 
L 122.353615 328.619077 
L 125.601971 327.942995 
L 128.850326 326.484786 
L 132.098682 324.699706 
L 135.347037 319.332528 
L 138.595393 318.021721 
L 141.843748 317.618228 
L 145.092104 317.04284 
L 148.340459 316.179436 
L 151.588814 315.629405 
L 154.83717 312.509341 
L 158.085525 312.027171 
L 161.333881 311.074528 
L 164.582236 310.890802 
L 167.830592 310.704913 
L 171.078947 310.111061 
L 174.327303 310.213039 
L 177.575658 309.2842 
L 180.824014 309.395473 
L 184.072369 308.88806 
L 187.320725 308.564286 
L 190.56908 306.748722 
L 193.817436 306.245937 
L 197.065791 306.032479 
L 200.314146 304.843807 
L 203.562502 304.595818 
L 206.810857 304.394088 
L 210.059213 303.673623 
L 213.307568 303.585935 
L 216.555924 303.301274 
L 219.804279 303.196394 
L 223.052635 303.048933 
L 226.30099 302.992823 
L 229.549346 302.949717 
L 232.797701 302.616845 
L 236.046057 302.454123 
L 239.294412 302.388969 
L 242.542768 302.289814 
L 245.791123 302.309174 
L 249.039479 302.184434 
L 252.287834 301.807319 
L 255.536189 301.895986 
L 258.784545 301.752543 
L 262.0329 301.870857 
L 265.281256 301.704195 
L 268.529611 301.799833 
" clip-path="url(#p28c6ba77bd)" style="fill: none; stroke: #0000ff; stroke-width: 1.5; stroke-linecap: square"/>
   </g>
   <g id="line2d_56">
    <path d="M 76.876639 515.783305 
L 80.124994 461.811849 
L 83.37335 437.595151 
L 86.621705 373.965326 
L 89.870061 374.702708 
L 93.118416 368.42014 
L 96.366771 357.347068 
L 99.615127 349.524898 
L 102.863482 351.049677 
L 106.111838 379.096581 
L 109.360193 369.959692 
L 112.608549 347.745518 
L 115.856904 356.790899 
L 119.10526 345.492052 
L 122.353615 393.59625 
L 125.601971 332.069124 
L 128.850326 350.858185 
L 132.098682 339.477517 
L 135.347037 334.584592 
L 138.595393 355.819658 
L 141.843748 337.462365 
L 145.092104 325.144821 
L 148.340459 331.270676 
L 151.588814 343.656435 
L 154.83717 328.013556 
L 158.085525 333.600352 
L 161.333881 324.647956 
L 164.582236 327.478196 
L 167.830592 323.917452 
L 171.078947 341.907532 
L 174.327303 324.286849 
L 177.575658 340.448654 
L 180.824014 329.971162 
L 184.072369 320.812571 
L 187.320725 325.526096 
L 190.56908 324.146094 
L 193.817436 329.468037 
L 197.065791 322.499427 
L 200.314146 321.038106 
L 203.562502 325.888954 
L 206.810857 314.967645 
L 210.059213 323.706976 
L 213.307568 323.259735 
L 216.555924 323.533701 
L 219.804279 324.452114 
L 223.052635 322.257013 
L 226.30099 318.124964 
L 229.549346 321.715608 
L 232.797701 319.782324 
L 236.046057 322.40805 
L 239.294412 322.016569 
L 242.542768 322.380652 
L 245.791123 319.775113 
L 249.039479 322.784525 
L 252.287834 321.036244 
L 255.536189 320.646336 
L 258.784545 322.727141 
L 262.0329 320.531214 
L 265.281256 320.861268 
L 268.529611 320.903852 
" clip-path="url(#p28c6ba77bd)" style="fill: none; stroke: #008000; stroke-width: 1.5; stroke-linecap: square"/>
   </g>
   <g id="patch_19">
    <path d="M 67.29399 526.48726 
L 67.29399 291.00024 
" style="fill: none; stroke: #000000; stroke-width: 0.8; stroke-linejoin: miter; stroke-linecap: square"/>
   </g>
   <g id="patch_20">
    <path d="M 278.11226 526.48726 
L 278.11226 291.00024 
" style="fill: none; stroke: #000000; stroke-width: 0.8; stroke-linejoin: miter; stroke-linecap: square"/>
   </g>
   <g id="patch_21">
    <path d="M 67.29399 526.48726 
L 278.11226 526.48726 
" style="fill: none; stroke: #000000; stroke-width: 0.8; stroke-linejoin: miter; stroke-linecap: square"/>
   </g>
   <g id="patch_22">
    <path d="M 67.29399 291.00024 
L 278.11226 291.00024 
" style="fill: none; stroke: #000000; stroke-width: 0.8; stroke-linejoin: miter; stroke-linecap: square"/>
   </g>
   <g id="text_61">
    <!-- D -->
    <g transform="translate(68.095471 313.661767) scale(0.2 -0.2)">
     <defs>
      <path id="Cmr10-44" d="M 213 0 
L 213 225 
Q 872 225 872 428 
L 872 3944 
Q 872 4147 213 4147 
L 213 4372 
L 2572 4372 
Q 3009 4372 3371 4183 
Q 3734 3994 3990 3678 
Q 4247 3363 4386 2963 
Q 4525 2563 4525 2144 
Q 4525 1738 4384 1355 
Q 4244 972 3980 664 
Q 3716 356 3355 178 
Q 2994 0 2572 0 
L 213 0 
z
M 1447 428 
Q 1447 291 1525 258 
Q 1603 225 1772 225 
L 2406 225 
Q 2734 225 3029 367 
Q 3325 509 3519 763 
Q 3722 1031 3790 1364 
Q 3859 1697 3859 2144 
Q 3859 2609 3790 2959 
Q 3722 3309 3519 3584 
Q 3328 3856 3034 4001 
Q 2741 4147 2406 4147 
L 1772 4147 
Q 1656 4147 1592 4137 
Q 1528 4128 1487 4083 
Q 1447 4038 1447 3944 
L 1447 428 
z
" transform="scale(0.015625)"/>
     </defs>
     <use xlink:href="#Cmr10-44"/>
    </g>
   </g>
  </g>
  <g id="axes_5">
   <g id="patch_23">
    <path d="M 358.40649 526.48726 
L 569.22476 526.48726 
L 569.22476 291.00024 
L 358.40649 291.00024 
z
" style="fill: #ffffff"/>
   </g>
   <g id="matplotlib.axis_9">
    <g id="xtick_33">
     <g id="line2d_57">
      <g>
       <use xlink:href="#md2d93c245e" x="367.989139" y="526.48726" style="stroke: #000000; stroke-width: 0.8"/>
      </g>
     </g>
     <g id="text_62">
      <!-- 0 -->
      <g transform="translate(362.989139 547.365385) scale(0.2 -0.2)">
       <use xlink:href="#Cmr10-30"/>
      </g>
     </g>
    </g>
    <g id="xtick_34">
     <g id="line2d_58">
      <g>
       <use xlink:href="#md2d93c245e" x="393.975982" y="526.48726" style="stroke: #000000; stroke-width: 0.8"/>
      </g>
     </g>
     <g id="text_63">
      <!-- 8 -->
      <g transform="translate(388.975982 547.365385) scale(0.2 -0.2)">
       <use xlink:href="#Cmr10-38"/>
      </g>
     </g>
    </g>
    <g id="xtick_35">
     <g id="line2d_59">
      <g>
       <use xlink:href="#md2d93c245e" x="419.962826" y="526.48726" style="stroke: #000000; stroke-width: 0.8"/>
      </g>
     </g>
     <g id="text_64">
      <!-- 16 -->
      <g transform="translate(409.962826 547.365385) scale(0.2 -0.2)">
       <use xlink:href="#Cmr10-31"/>
       <use xlink:href="#Cmr10-36" x="50"/>
      </g>
     </g>
    </g>
    <g id="xtick_36">
     <g id="line2d_60">
      <g>
       <use xlink:href="#md2d93c245e" x="445.94967" y="526.48726" style="stroke: #000000; stroke-width: 0.8"/>
      </g>
     </g>
     <g id="text_65">
      <!-- 24 -->
      <g transform="translate(435.94967 547.365385) scale(0.2 -0.2)">
       <use xlink:href="#Cmr10-32"/>
       <use xlink:href="#Cmr10-34" x="50"/>
      </g>
     </g>
    </g>
    <g id="xtick_37">
     <g id="line2d_61">
      <g>
       <use xlink:href="#md2d93c245e" x="471.936514" y="526.48726" style="stroke: #000000; stroke-width: 0.8"/>
      </g>
     </g>
     <g id="text_66">
      <!-- 32 -->
      <g transform="translate(461.936514 547.365385) scale(0.2 -0.2)">
       <use xlink:href="#Cmr10-33"/>
       <use xlink:href="#Cmr10-32" x="50"/>
      </g>
     </g>
    </g>
    <g id="xtick_38">
     <g id="line2d_62">
      <g>
       <use xlink:href="#md2d93c245e" x="497.923357" y="526.48726" style="stroke: #000000; stroke-width: 0.8"/>
      </g>
     </g>
     <g id="text_67">
      <!-- 40 -->
      <g transform="translate(487.923357 547.365385) scale(0.2 -0.2)">
       <use xlink:href="#Cmr10-34"/>
       <use xlink:href="#Cmr10-30" x="50"/>
      </g>
     </g>
    </g>
    <g id="xtick_39">
     <g id="line2d_63">
      <g>
       <use xlink:href="#md2d93c245e" x="523.910201" y="526.48726" style="stroke: #000000; stroke-width: 0.8"/>
      </g>
     </g>
     <g id="text_68">
      <!-- 48 -->
      <g transform="translate(513.910201 547.365385) scale(0.2 -0.2)">
       <use xlink:href="#Cmr10-34"/>
       <use xlink:href="#Cmr10-38" x="50"/>
      </g>
     </g>
    </g>
    <g id="xtick_40">
     <g id="line2d_64">
      <g>
       <use xlink:href="#md2d93c245e" x="549.897045" y="526.48726" style="stroke: #000000; stroke-width: 0.8"/>
      </g>
     </g>
     <g id="text_69">
      <!-- 56 -->
      <g transform="translate(539.897045 547.365385) scale(0.2 -0.2)">
       <use xlink:href="#Cmr10-35"/>
       <use xlink:href="#Cmr10-36" x="50"/>
      </g>
     </g>
    </g>
    <g id="text_70">
     <!-- Epoch -->
     <g transform="translate(436.471875 569.121635) scale(0.2 -0.2)">
      <use xlink:href="#Cmr10-45"/>
      <use xlink:href="#Cmr10-70" x="68.017578"/>
      <use xlink:href="#Cmr10-6f" x="123.535156"/>
      <use xlink:href="#Cmr10-63" x="173.535156"/>
      <use xlink:href="#Cmr10-68" x="217.919922"/>
     </g>
    </g>
   </g>
   <g id="matplotlib.axis_10">
    <g id="ytick_15">
     <g id="line2d_65">
      <g>
       <use xlink:href="#meb03392828" x="358.40649" y="501.896939" style="stroke: #000000; stroke-width: 0.8"/>
      </g>
     </g>
     <g id="text_71">
      <!-- 0.980 -->
      <g transform="translate(305.86899 508.836002) scale(0.2 -0.2)">
       <use xlink:href="#Cmr10-30"/>
       <use xlink:href="#Cmr10-2e" x="50"/>
       <use xlink:href="#Cmr10-39" x="77.685547"/>
       <use xlink:href="#Cmr10-38" x="127.685547"/>
       <use xlink:href="#Cmr10-30" x="177.685547"/>
      </g>
     </g>
    </g>
    <g id="ytick_16">
     <g id="line2d_66">
      <g>
       <use xlink:href="#meb03392828" x="358.40649" y="445.51214" style="stroke: #000000; stroke-width: 0.8"/>
      </g>
     </g>
     <g id="text_72">
      <!-- 0.985 -->
      <g transform="translate(305.86899 452.451202) scale(0.2 -0.2)">
       <use xlink:href="#Cmr10-30"/>
       <use xlink:href="#Cmr10-2e" x="50"/>
       <use xlink:href="#Cmr10-39" x="77.685547"/>
       <use xlink:href="#Cmr10-38" x="127.685547"/>
       <use xlink:href="#Cmr10-35" x="177.685547"/>
      </g>
     </g>
    </g>
    <g id="ytick_17">
     <g id="line2d_67">
      <g>
       <use xlink:href="#meb03392828" x="358.40649" y="389.12734" style="stroke: #000000; stroke-width: 0.8"/>
      </g>
     </g>
     <g id="text_73">
      <!-- 0.990 -->
      <g transform="translate(305.86899 396.066403) scale(0.2 -0.2)">
       <use xlink:href="#Cmr10-30"/>
       <use xlink:href="#Cmr10-2e" x="50"/>
       <use xlink:href="#Cmr10-39" x="77.685547"/>
       <use xlink:href="#Cmr10-39" x="127.685547"/>
       <use xlink:href="#Cmr10-30" x="177.685547"/>
      </g>
     </g>
    </g>
    <g id="ytick_18">
     <g id="line2d_68">
      <g>
       <use xlink:href="#meb03392828" x="358.40649" y="332.742541" style="stroke: #000000; stroke-width: 0.8"/>
      </g>
     </g>
     <g id="text_74">
      <!-- 0.995 -->
      <g transform="translate(305.86899 339.681603) scale(0.2 -0.2)">
       <use xlink:href="#Cmr10-30"/>
       <use xlink:href="#Cmr10-2e" x="50"/>
       <use xlink:href="#Cmr10-39" x="77.685547"/>
       <use xlink:href="#Cmr10-39" x="127.685547"/>
       <use xlink:href="#Cmr10-35" x="177.685547"/>
      </g>
     </g>
    </g>
    <g id="text_75">
     <!-- Precision -->
     <g transform="translate(297.990865 448.364063) rotate(-90) scale(0.2 -0.2)">
      <defs>
       <path id="Cmr10-50" d="M 213 0 
L 213 225 
Q 872 225 872 428 
L 872 3944 
Q 872 4147 213 4147 
L 213 4372 
L 2491 4372 
Q 2841 4372 3191 4228 
Q 3541 4084 3767 3809 
Q 3994 3534 3994 3169 
Q 3994 2813 3766 2544 
Q 3538 2275 3191 2136 
Q 2844 1997 2491 1997 
L 1466 1997 
L 1466 428 
Q 1466 225 2125 225 
L 2125 0 
L 213 0 
z
M 1447 2188 
L 2316 2188 
Q 2669 2188 2887 2289 
Q 3106 2391 3207 2605 
Q 3309 2819 3309 3169 
Q 3309 3691 3079 3919 
Q 2850 4147 2316 4147 
L 1772 4147 
Q 1656 4147 1592 4137 
Q 1528 4128 1487 4083 
Q 1447 4038 1447 3944 
L 1447 2188 
z
" transform="scale(0.015625)"/>
      </defs>
      <use xlink:href="#Cmr10-50"/>
      <use xlink:href="#Cmr10-72" x="68.017578"/>
      <use xlink:href="#Cmr10-65" x="107.128906"/>
      <use xlink:href="#Cmr10-63" x="151.513672"/>
      <use xlink:href="#Cmr10-69" x="195.898438"/>
      <use xlink:href="#Cmr10-73" x="223.583984"/>
      <use xlink:href="#Cmr10-69" x="262.988281"/>
      <use xlink:href="#Cmr10-6f" x="290.673828"/>
      <use xlink:href="#Cmr10-6e" x="340.673828"/>
     </g>
    </g>
   </g>
   <g id="line2d_69">
    <path d="M 367.989139 515.783305 
L 371.237494 423.334753 
L 374.48585 399.496922 
L 377.734205 383.762618 
L 380.982561 376.330545 
L 384.230916 367.351807 
L 387.479271 361.626526 
L 390.727627 357.84848 
L 393.975982 353.833337 
L 397.224338 341.977214 
L 400.472693 339.416452 
L 403.721049 338.576023 
L 406.969404 334.912513 
L 410.21776 334.386571 
L 413.466115 334.584589 
L 416.714471 333.734598 
L 419.962826 332.033339 
L 423.211182 329.822772 
L 426.459537 323.492801 
L 429.707893 322.047092 
L 432.956248 321.504902 
L 436.204604 320.773804 
L 439.452959 319.635434 
L 442.701314 318.967057 
L 445.94967 315.253133 
L 449.198025 314.420448 
L 452.446381 313.317439 
L 455.694736 313.114376 
L 458.943092 312.89521 
L 462.191447 312.104045 
L 465.439803 312.076821 
L 468.688158 311.105735 
L 471.936514 311.049468 
L 475.184869 310.562577 
L 478.433225 310.166484 
L 481.68158 307.906331 
L 484.929936 307.374617 
L 488.178291 307.09385 
L 491.426646 305.535393 
L 494.675002 305.321168 
L 497.923357 305.092323 
L 501.171713 304.184551 
L 504.420068 303.979853 
L 507.668424 303.699421 
L 510.916779 303.615111 
L 514.165135 303.496862 
L 517.41349 303.25705 
L 520.661846 303.340343 
L 523.910201 302.832767 
L 527.158557 302.671115 
L 530.406912 302.534006 
L 533.655268 302.478635 
L 536.903623 302.520161 
L 540.151979 302.3511 
L 543.400334 301.99314 
L 546.648689 301.95368 
L 549.897045 301.967689 
L 553.1454 301.893797 
L 556.393756 301.704195 
L 559.642111 301.930444 
" clip-path="url(#pe7148b7730)" style="fill: none; stroke: #0000ff; stroke-width: 1.5; stroke-linecap: square"/>
   </g>
   <g id="line2d_70">
    <path d="M 367.989139 455.974316 
L 371.237494 464.644497 
L 374.48585 401.332763 
L 377.734205 383.569158 
L 380.982561 373.751629 
L 384.230916 389.315229 
L 387.479271 363.745716 
L 390.727627 377.420378 
L 393.975982 365.378656 
L 397.224338 348.977337 
L 400.472693 348.14173 
L 403.721049 344.539392 
L 406.969404 349.961056 
L 410.21776 344.199289 
L 413.466115 352.123004 
L 416.714471 338.599635 
L 419.962826 346.556712 
L 423.211182 346.705751 
L 426.459537 329.932984 
L 429.707893 336.812912 
L 432.956248 329.137953 
L 436.204604 328.543631 
L 439.452959 333.355685 
L 442.701314 333.827191 
L 445.94967 324.674693 
L 449.198025 325.0037 
L 452.446381 323.328396 
L 455.694736 324.289347 
L 458.943092 323.283058 
L 462.191447 326.175918 
L 465.439803 322.670077 
L 468.688158 323.103099 
L 471.936514 322.56291 
L 475.184869 324.992586 
L 478.433225 324.968133 
L 481.68158 320.10152 
L 484.929936 321.057738 
L 488.178291 320.706303 
L 491.426646 319.229086 
L 494.675002 319.384109 
L 497.923357 319.317906 
L 501.171713 318.293298 
L 504.420068 318.442007 
L 507.668424 318.130825 
L 510.916779 318.71087 
L 514.165135 318.059292 
L 517.41349 318.631821 
L 520.661846 318.162824 
L 523.910201 317.861337 
L 527.158557 318.04654 
L 530.406912 317.616898 
L 533.655268 317.801732 
L 536.903623 317.950706 
L 540.151979 317.517409 
L 543.400334 317.445204 
L 546.648689 317.598967 
L 549.897045 317.581151 
L 553.1454 317.213498 
L 556.393756 317.635756 
L 559.642111 317.443481 
" clip-path="url(#pe7148b7730)" style="fill: none; stroke: #008000; stroke-width: 1.5; stroke-linecap: square"/>
   </g>
   <g id="patch_24">
    <path d="M 358.40649 526.48726 
L 358.40649 291.00024 
" style="fill: none; stroke: #000000; stroke-width: 0.8; stroke-linejoin: miter; stroke-linecap: square"/>
   </g>
   <g id="patch_25">
    <path d="M 569.22476 526.48726 
L 569.22476 291.00024 
" style="fill: none; stroke: #000000; stroke-width: 0.8; stroke-linejoin: miter; stroke-linecap: square"/>
   </g>
   <g id="patch_26">
    <path d="M 358.40649 526.48726 
L 569.22476 526.48726 
" style="fill: none; stroke: #000000; stroke-width: 0.8; stroke-linejoin: miter; stroke-linecap: square"/>
   </g>
   <g id="patch_27">
    <path d="M 358.40649 291.00024 
L 569.22476 291.00024 
" style="fill: none; stroke: #000000; stroke-width: 0.8; stroke-linejoin: miter; stroke-linecap: square"/>
   </g>
   <g id="text_76">
    <!-- E -->
    <g transform="translate(360.037658 313.661767) scale(0.2 -0.2)">
     <use xlink:href="#Cmr10-45"/>
    </g>
   </g>
  </g>
  <g id="axes_6">
   <g id="patch_28">
    <path d="M 650.18149 526.48726 
L 860.99976 526.48726 
L 860.99976 291.00024 
L 650.18149 291.00024 
z
" style="fill: #ffffff"/>
   </g>
   <g id="matplotlib.axis_11">
    <g id="xtick_41">
     <g id="line2d_71">
      <g>
       <use xlink:href="#md2d93c245e" x="659.764139" y="526.48726" style="stroke: #000000; stroke-width: 0.8"/>
      </g>
     </g>
     <g id="text_77">
      <!-- 0 -->
      <g transform="translate(654.764139 547.365385) scale(0.2 -0.2)">
       <use xlink:href="#Cmr10-30"/>
      </g>
     </g>
    </g>
    <g id="xtick_42">
     <g id="line2d_72">
      <g>
       <use xlink:href="#md2d93c245e" x="685.750982" y="526.48726" style="stroke: #000000; stroke-width: 0.8"/>
      </g>
     </g>
     <g id="text_78">
      <!-- 8 -->
      <g transform="translate(680.750982 547.365385) scale(0.2 -0.2)">
       <use xlink:href="#Cmr10-38"/>
      </g>
     </g>
    </g>
    <g id="xtick_43">
     <g id="line2d_73">
      <g>
       <use xlink:href="#md2d93c245e" x="711.737826" y="526.48726" style="stroke: #000000; stroke-width: 0.8"/>
      </g>
     </g>
     <g id="text_79">
      <!-- 16 -->
      <g transform="translate(701.737826 547.365385) scale(0.2 -0.2)">
       <use xlink:href="#Cmr10-31"/>
       <use xlink:href="#Cmr10-36" x="50"/>
      </g>
     </g>
    </g>
    <g id="xtick_44">
     <g id="line2d_74">
      <g>
       <use xlink:href="#md2d93c245e" x="737.72467" y="526.48726" style="stroke: #000000; stroke-width: 0.8"/>
      </g>
     </g>
     <g id="text_80">
      <!-- 24 -->
      <g transform="translate(727.72467 547.365385) scale(0.2 -0.2)">
       <use xlink:href="#Cmr10-32"/>
       <use xlink:href="#Cmr10-34" x="50"/>
      </g>
     </g>
    </g>
    <g id="xtick_45">
     <g id="line2d_75">
      <g>
       <use xlink:href="#md2d93c245e" x="763.711514" y="526.48726" style="stroke: #000000; stroke-width: 0.8"/>
      </g>
     </g>
     <g id="text_81">
      <!-- 32 -->
      <g transform="translate(753.711514 547.365385) scale(0.2 -0.2)">
       <use xlink:href="#Cmr10-33"/>
       <use xlink:href="#Cmr10-32" x="50"/>
      </g>
     </g>
    </g>
    <g id="xtick_46">
     <g id="line2d_76">
      <g>
       <use xlink:href="#md2d93c245e" x="789.698357" y="526.48726" style="stroke: #000000; stroke-width: 0.8"/>
      </g>
     </g>
     <g id="text_82">
      <!-- 40 -->
      <g transform="translate(779.698357 547.365385) scale(0.2 -0.2)">
       <use xlink:href="#Cmr10-34"/>
       <use xlink:href="#Cmr10-30" x="50"/>
      </g>
     </g>
    </g>
    <g id="xtick_47">
     <g id="line2d_77">
      <g>
       <use xlink:href="#md2d93c245e" x="815.685201" y="526.48726" style="stroke: #000000; stroke-width: 0.8"/>
      </g>
     </g>
     <g id="text_83">
      <!-- 48 -->
      <g transform="translate(805.685201 547.365385) scale(0.2 -0.2)">
       <use xlink:href="#Cmr10-34"/>
       <use xlink:href="#Cmr10-38" x="50"/>
      </g>
     </g>
    </g>
    <g id="xtick_48">
     <g id="line2d_78">
      <g>
       <use xlink:href="#md2d93c245e" x="841.672045" y="526.48726" style="stroke: #000000; stroke-width: 0.8"/>
      </g>
     </g>
     <g id="text_84">
      <!-- 56 -->
      <g transform="translate(831.672045 547.365385) scale(0.2 -0.2)">
       <use xlink:href="#Cmr10-35"/>
       <use xlink:href="#Cmr10-36" x="50"/>
      </g>
     </g>
    </g>
    <g id="text_85">
     <!-- Epoch -->
     <g transform="translate(728.246875 569.121635) scale(0.2 -0.2)">
      <use xlink:href="#Cmr10-45"/>
      <use xlink:href="#Cmr10-70" x="68.017578"/>
      <use xlink:href="#Cmr10-6f" x="123.535156"/>
      <use xlink:href="#Cmr10-63" x="173.535156"/>
      <use xlink:href="#Cmr10-68" x="217.919922"/>
     </g>
    </g>
   </g>
   <g id="matplotlib.axis_12">
    <g id="ytick_19">
     <g id="line2d_79">
      <g>
       <use xlink:href="#meb03392828" x="650.18149" y="505.018302" style="stroke: #000000; stroke-width: 0.8"/>
      </g>
     </g>
     <g id="text_86">
      <!-- 0.96 -->
      <g transform="translate(607.64399 511.957365) scale(0.2 -0.2)">
       <use xlink:href="#Cmr10-30"/>
       <use xlink:href="#Cmr10-2e" x="50"/>
       <use xlink:href="#Cmr10-39" x="77.685547"/>
       <use xlink:href="#Cmr10-36" x="127.685547"/>
      </g>
     </g>
    </g>
    <g id="ytick_20">
     <g id="line2d_80">
      <g>
       <use xlink:href="#meb03392828" x="650.18149" y="447.746417" style="stroke: #000000; stroke-width: 0.8"/>
      </g>
     </g>
     <g id="text_87">
      <!-- 0.97 -->
      <g transform="translate(607.64399 454.685479) scale(0.2 -0.2)">
       <defs>
        <path id="Cmr10-37" d="M 1113 166 
Q 1113 522 1175 862 
Q 1238 1203 1358 1536 
Q 1478 1869 1648 2189 
Q 1819 2509 2022 2791 
L 2606 3603 
L 1875 3603 
Q 738 3603 703 3572 
Q 619 3469 544 2981 
L 359 2981 
L 569 4325 
L 756 4325 
L 756 4306 
Q 756 4191 1147 4156 
Q 1538 4122 1913 4122 
L 3103 4122 
L 3103 3956 
Q 3103 3950 3101 3947 
Q 3100 3944 3097 3938 
L 2216 2700 
Q 1891 2219 1809 1631 
Q 1728 1044 1728 166 
Q 1728 41 1637 -50 
Q 1547 -141 1422 -141 
Q 1294 -141 1203 -50 
Q 1113 41 1113 166 
z
" transform="scale(0.015625)"/>
       </defs>
       <use xlink:href="#Cmr10-30"/>
       <use xlink:href="#Cmr10-2e" x="50"/>
       <use xlink:href="#Cmr10-39" x="77.685547"/>
       <use xlink:href="#Cmr10-37" x="127.685547"/>
      </g>
     </g>
    </g>
    <g id="ytick_21">
     <g id="line2d_81">
      <g>
       <use xlink:href="#meb03392828" x="650.18149" y="390.474531" style="stroke: #000000; stroke-width: 0.8"/>
      </g>
     </g>
     <g id="text_88">
      <!-- 0.98 -->
      <g transform="translate(607.64399 397.413594) scale(0.2 -0.2)">
       <use xlink:href="#Cmr10-30"/>
       <use xlink:href="#Cmr10-2e" x="50"/>
       <use xlink:href="#Cmr10-39" x="77.685547"/>
       <use xlink:href="#Cmr10-38" x="127.685547"/>
      </g>
     </g>
    </g>
    <g id="ytick_22">
     <g id="line2d_82">
      <g>
       <use xlink:href="#meb03392828" x="650.18149" y="333.202646" style="stroke: #000000; stroke-width: 0.8"/>
      </g>
     </g>
     <g id="text_89">
      <!-- 0.99 -->
      <g transform="translate(607.64399 340.141708) scale(0.2 -0.2)">
       <use xlink:href="#Cmr10-30"/>
       <use xlink:href="#Cmr10-2e" x="50"/>
       <use xlink:href="#Cmr10-39" x="77.685547"/>
       <use xlink:href="#Cmr10-39" x="127.685547"/>
      </g>
     </g>
    </g>
    <g id="text_90">
     <!-- F1-score -->
     <g transform="translate(599.765865 445.321875) rotate(-90) scale(0.2 -0.2)">
      <defs>
       <path id="Cmr10-46" d="M 197 0 
L 197 225 
Q 856 225 856 428 
L 856 3944 
Q 856 4147 197 4147 
L 197 4372 
L 3725 4372 
L 3903 2906 
L 3719 2906 
Q 3675 3309 3601 3542 
Q 3528 3775 3387 3908 
Q 3247 4041 3011 4094 
Q 2775 4147 2363 4147 
L 1778 4147 
Q 1663 4147 1598 4137 
Q 1534 4128 1493 4083 
Q 1453 4038 1453 3944 
L 1453 2297 
L 1906 2297 
Q 2234 2297 2387 2355 
Q 2541 2413 2598 2566 
Q 2656 2719 2656 3047 
L 2841 3047 
L 2841 1325 
L 2656 1325 
Q 2656 1653 2598 1806 
Q 2541 1959 2387 2017 
Q 2234 2075 1906 2075 
L 1453 2075 
L 1453 428 
Q 1453 225 2272 225 
L 2272 0 
L 197 0 
z
" transform="scale(0.015625)"/>
       <path id="Cmr10-2d" d="M 72 1184 
L 72 1581 
L 1766 1581 
L 1766 1184 
L 72 1184 
z
" transform="scale(0.015625)"/>
      </defs>
      <use xlink:href="#Cmr10-46"/>
      <use xlink:href="#Cmr10-31" x="65.185547"/>
      <use xlink:href="#Cmr10-2d" x="115.185547"/>
      <use xlink:href="#Cmr10-73" x="148.486328"/>
      <use xlink:href="#Cmr10-63" x="187.890625"/>
      <use xlink:href="#Cmr10-6f" x="232.275391"/>
      <use xlink:href="#Cmr10-72" x="282.275391"/>
      <use xlink:href="#Cmr10-65" x="321.386719"/>
     </g>
    </g>
   </g>
   <g id="line2d_83">
    <path d="M 659.764139 515.783305 
L 663.012494 426.004814 
L 666.26085 401.608095 
L 669.509205 385.395637 
L 672.757561 377.909674 
L 676.005916 368.908188 
L 679.254271 362.672377 
L 682.502627 359.074787 
L 685.750982 354.962384 
L 688.999338 342.822078 
L 692.247693 340.367412 
L 695.496049 339.414349 
L 698.744404 335.53569 
L 701.99276 334.91456 
L 705.241115 335.253839 
L 708.489471 334.311623 
L 711.737826 332.784573 
L 714.986182 330.437094 
L 718.234537 323.949135 
L 721.482893 322.49646 
L 724.731248 321.802479 
L 727.979604 321.148045 
L 731.227959 319.936047 
L 734.476314 319.210555 
L 737.72467 315.537779 
L 740.973025 314.616532 
L 744.221381 313.570555 
L 747.469736 313.354947 
L 750.718092 313.133426 
L 753.966447 312.328157 
L 757.214803 312.344516 
L 760.463158 311.261401 
L 763.711514 311.289615 
L 766.959869 310.67871 
L 770.208225 310.309194 
L 773.45658 307.954097 
L 776.704936 307.510165 
L 779.953291 307.184204 
L 783.201646 305.56345 
L 786.450002 305.375551 
L 789.698357 305.153468 
L 792.946713 304.231932 
L 796.195068 304.028695 
L 799.443424 303.753986 
L 802.691779 303.657344 
L 805.940135 303.536963 
L 809.18849 303.300139 
L 812.436846 303.359397 
L 815.685201 302.864976 
L 818.933557 302.713032 
L 822.181912 302.534626 
L 825.430268 302.4605 
L 828.678623 302.504487 
L 831.926979 302.420871 
L 835.175334 301.974679 
L 838.423689 301.953631 
L 841.672045 301.891193 
L 844.9204 301.912298 
L 848.168756 301.704195 
L 851.417111 301.936992 
" clip-path="url(#pd797858ea8)" style="fill: none; stroke: #0000ff; stroke-width: 1.5; stroke-linecap: square"/>
   </g>
   <g id="line2d_84">
    <path d="M 659.764139 501.448942 
L 663.012494 509.677431 
L 666.26085 431.335081 
L 669.509205 408.420059 
L 672.757561 396.229933 
L 676.005916 414.828701 
L 679.254271 383.908525 
L 682.502627 400.026891 
L 685.750982 385.883665 
L 688.999338 366.215174 
L 692.247693 365.083782 
L 695.496049 360.355166 
L 698.744404 367.106521 
L 701.99276 359.743465 
L 705.241115 370.646156 
L 708.489471 352.802771 
L 711.737826 362.804114 
L 714.986182 363.023464 
L 718.234537 342.14548 
L 721.482893 350.820265 
L 724.731248 341.189787 
L 727.979604 340.315426 
L 731.227959 346.078552 
L 734.476314 347.048347 
L 737.72467 335.688979 
L 740.973025 336.154373 
L 744.221381 333.989538 
L 747.469736 335.286353 
L 750.718092 333.843058 
L 753.966447 337.599687 
L 757.214803 333.196538 
L 760.463158 333.990005 
L 763.711514 333.156257 
L 766.959869 336.033644 
L 770.208225 335.932268 
L 773.45658 330.078294 
L 776.704936 331.253972 
L 779.953291 330.779626 
L 783.201646 328.942052 
L 786.450002 329.22253 
L 789.698357 328.97553 
L 792.946713 327.834479 
L 796.195068 328.022034 
L 799.443424 327.644189 
L 802.691779 328.383633 
L 805.940135 327.532999 
L 809.18849 328.168399 
L 812.436846 327.626515 
L 815.685201 327.252218 
L 818.933557 327.518657 
L 822.181912 326.991192 
L 825.430268 327.201609 
L 828.678623 327.353632 
L 831.926979 326.868963 
L 835.175334 326.745384 
L 838.423689 326.940261 
L 841.672045 326.955757 
L 844.9204 326.45976 
L 848.168756 327.008107 
L 851.417111 326.741066 
" clip-path="url(#pd797858ea8)" style="fill: none; stroke: #008000; stroke-width: 1.5; stroke-linecap: square"/>
   </g>
   <g id="patch_29">
    <path d="M 650.18149 526.48726 
L 650.18149 291.00024 
" style="fill: none; stroke: #000000; stroke-width: 0.8; stroke-linejoin: miter; stroke-linecap: square"/>
   </g>
   <g id="patch_30">
    <path d="M 860.99976 526.48726 
L 860.99976 291.00024 
" style="fill: none; stroke: #000000; stroke-width: 0.8; stroke-linejoin: miter; stroke-linecap: square"/>
   </g>
   <g id="patch_31">
    <path d="M 650.18149 526.48726 
L 860.99976 526.48726 
" style="fill: none; stroke: #000000; stroke-width: 0.8; stroke-linejoin: miter; stroke-linecap: square"/>
   </g>
   <g id="patch_32">
    <path d="M 650.18149 291.00024 
L 860.99976 291.00024 
" style="fill: none; stroke: #000000; stroke-width: 0.8; stroke-linejoin: miter; stroke-linecap: square"/>
   </g>
   <g id="text_91">
    <!-- F -->
    <g transform="translate(652.095471 313.661767) scale(0.2 -0.2)">
     <use xlink:href="#Cmr10-46"/>
    </g>
   </g>
  </g>
 </g>
 <defs>
  <clipPath id="p855cd57c82">
   <rect x="67.29399" y="3.00024" width="210.81827" height="235.48702"/>
  </clipPath>
  <clipPath id="p9108104b79">
   <rect x="358.40649" y="3.00024" width="210.81827" height="235.48702"/>
  </clipPath>
  <clipPath id="p94a649dd4f">
   <rect x="650.18149" y="3.00024" width="210.81827" height="235.48702"/>
  </clipPath>
  <clipPath id="p28c6ba77bd">
   <rect x="67.29399" y="291.00024" width="210.81827" height="235.48702"/>
  </clipPath>
  <clipPath id="pe7148b7730">
   <rect x="358.40649" y="291.00024" width="210.81827" height="235.48702"/>
  </clipPath>
  <clipPath id="pd797858ea8">
   <rect x="650.18149" y="291.00024" width="210.81827" height="235.48702"/>
  </clipPath>
 </defs>
</svg>
