<?xml version="1.0" encoding="utf-8" standalone="no"?>
<!DOCTYPE svg PUBLIC "-//W3C//DTD SVG 1.1//EN"
  "http://www.w3.org/Graphics/SVG/1.1/DTD/svg11.dtd">
<svg xmlns:xlink="http://www.w3.org/1999/xlink" width="720pt" height="288pt" viewBox="0 0 720 288" xmlns="http://www.w3.org/2000/svg" version="1.1">
 <metadata>
  <rdf:RDF xmlns:dc="http://purl.org/dc/elements/1.1/" xmlns:cc="http://creativecommons.org/ns#" xmlns:rdf="http://www.w3.org/1999/02/22-rdf-syntax-ns#">
   <cc:Work>
    <dc:type rdf:resource="http://purl.org/dc/dcmitype/StillImage"/>
    <dc:date>2024-07-15T19:14:21.109109</dc:date>
    <dc:format>image/svg+xml</dc:format>
    <dc:creator>
     <cc:Agent>
      <dc:title>Matplotlib v3.8.0, https://matplotlib.org/</dc:title>
     </cc:Agent>
    </dc:creator>
   </cc:Work>
  </rdf:RDF>
 </metadata>
 <defs>
  <style type="text/css">*{stroke-linejoin: round; stroke-linecap: butt}</style>
 </defs>
 <g id="figure_1">
  <g id="patch_1">
   <path d="M 0 288 
L 720 288 
L 720 0 
L 0 0 
z
" style="fill: #ffffff"/>
  </g>
  <g id="axes_1">
   <g id="patch_2">
    <path d="M 56.63524 245.58976 
L 356.4 245.58976 
L 356.4 3.00024 
L 56.63524 3.00024 
z
" style="fill: #ffffff"/>
   </g>
   <g id="matplotlib.axis_1">
    <g id="xtick_1">
     <g id="line2d_1">
      <defs>
       <path id="m60ece80fbd" d="M 0 0 
L 0 3.5 
" style="stroke: #000000; stroke-width: 0.8"/>
      </defs>
      <g>
       <use xlink:href="#m60ece80fbd" x="70.260911" y="245.58976" style="stroke: #000000; stroke-width: 0.8"/>
      </g>
     </g>
     <g id="text_1">
      <!-- 0 -->
      <g transform="translate(66.260911 263.69226) scale(0.16 -0.16)">
       <defs>
        <path id="Cmr10-30" d="M 1600 -141 
Q 816 -141 533 504 
Q 250 1150 250 2041 
Q 250 2597 351 3087 
Q 453 3578 754 3920 
Q 1056 4263 1600 4263 
Q 2022 4263 2290 4056 
Q 2559 3850 2700 3523 
Q 2841 3197 2892 2823 
Q 2944 2450 2944 2041 
Q 2944 1491 2842 1011 
Q 2741 531 2444 195 
Q 2147 -141 1600 -141 
z
M 1600 25 
Q 1956 25 2131 390 
Q 2306 756 2347 1200 
Q 2388 1644 2388 2144 
Q 2388 2625 2347 3031 
Q 2306 3438 2132 3767 
Q 1959 4097 1600 4097 
Q 1238 4097 1063 3765 
Q 888 3434 847 3029 
Q 806 2625 806 2144 
Q 806 1788 823 1472 
Q 841 1156 916 820 
Q 991 484 1158 254 
Q 1325 25 1600 25 
z
" transform="scale(0.015625)"/>
       </defs>
       <use xlink:href="#Cmr10-30"/>
      </g>
     </g>
    </g>
    <g id="xtick_2">
     <g id="line2d_2">
      <g>
       <use xlink:href="#m60ece80fbd" x="113.289345" y="245.58976" style="stroke: #000000; stroke-width: 0.8"/>
      </g>
     </g>
     <g id="text_2">
      <!-- 3 -->
      <g transform="translate(109.289345 263.69226) scale(0.16 -0.16)">
       <defs>
        <path id="Cmr10-33" d="M 609 494 
Q 759 275 1012 169 
Q 1266 63 1556 63 
Q 1928 63 2084 380 
Q 2241 697 2241 1100 
Q 2241 1281 2208 1462 
Q 2175 1644 2097 1800 
Q 2019 1956 1883 2050 
Q 1747 2144 1550 2144 
L 1125 2144 
Q 1069 2144 1069 2203 
L 1069 2259 
Q 1069 2309 1125 2309 
L 1478 2338 
Q 1703 2338 1851 2506 
Q 2000 2675 2069 2917 
Q 2138 3159 2138 3378 
Q 2138 3684 1994 3881 
Q 1850 4078 1556 4078 
Q 1313 4078 1091 3986 
Q 869 3894 738 3706 
Q 750 3709 759 3711 
Q 769 3713 781 3713 
Q 925 3713 1022 3613 
Q 1119 3513 1119 3372 
Q 1119 3234 1022 3134 
Q 925 3034 781 3034 
Q 641 3034 541 3134 
Q 441 3234 441 3372 
Q 441 3647 606 3850 
Q 772 4053 1033 4158 
Q 1294 4263 1556 4263 
Q 1750 4263 1965 4205 
Q 2181 4147 2356 4039 
Q 2531 3931 2642 3762 
Q 2753 3594 2753 3378 
Q 2753 3109 2633 2881 
Q 2513 2653 2303 2487 
Q 2094 2322 1844 2241 
Q 2122 2188 2372 2031 
Q 2622 1875 2773 1631 
Q 2925 1388 2925 1106 
Q 2925 753 2731 467 
Q 2538 181 2222 20 
Q 1906 -141 1556 -141 
Q 1256 -141 954 -26 
Q 653 88 461 316 
Q 269 544 269 863 
Q 269 1022 375 1128 
Q 481 1234 641 1234 
Q 744 1234 830 1186 
Q 916 1138 964 1050 
Q 1013 963 1013 863 
Q 1013 706 903 600 
Q 794 494 641 494 
L 609 494 
z
" transform="scale(0.015625)"/>
       </defs>
       <use xlink:href="#Cmr10-33"/>
      </g>
     </g>
    </g>
    <g id="xtick_3">
     <g id="line2d_3">
      <g>
       <use xlink:href="#m60ece80fbd" x="156.31778" y="245.58976" style="stroke: #000000; stroke-width: 0.8"/>
      </g>
     </g>
     <g id="text_3">
      <!-- 6 -->
      <g transform="translate(152.31778 263.69226) scale(0.16 -0.16)">
       <defs>
        <path id="Cmr10-36" d="M 1600 -141 
Q 1203 -141 937 70 
Q 672 281 526 617 
Q 381 953 325 1322 
Q 269 1691 269 2069 
Q 269 2575 466 3084 
Q 663 3594 1045 3928 
Q 1428 4263 1953 4263 
Q 2172 4263 2361 4180 
Q 2550 4097 2658 3936 
Q 2766 3775 2766 3547 
Q 2766 3416 2677 3327 
Q 2588 3238 2456 3238 
Q 2331 3238 2240 3328 
Q 2150 3419 2150 3547 
Q 2150 3672 2240 3762 
Q 2331 3853 2456 3853 
L 2491 3853 
Q 2409 3969 2261 4023 
Q 2113 4078 1953 4078 
Q 1759 4078 1595 3993 
Q 1431 3909 1300 3765 
Q 1169 3622 1081 3448 
Q 994 3275 945 3053 
Q 897 2831 884 2637 
Q 872 2444 872 2150 
Q 984 2413 1190 2580 
Q 1397 2747 1656 2747 
Q 1941 2747 2175 2631 
Q 2409 2516 2578 2311 
Q 2747 2106 2836 1843 
Q 2925 1581 2925 1313 
Q 2925 938 2758 598 
Q 2591 259 2287 59 
Q 1984 -141 1600 -141 
z
M 1600 63 
Q 1847 63 1997 175 
Q 2147 288 2217 473 
Q 2288 659 2305 848 
Q 2322 1038 2322 1313 
Q 2322 1675 2287 1931 
Q 2253 2188 2100 2383 
Q 1947 2578 1631 2578 
Q 1372 2578 1205 2403 
Q 1038 2228 961 1961 
Q 884 1694 884 1447 
Q 884 1363 891 1319 
Q 891 1309 889 1303 
Q 888 1297 884 1288 
Q 884 1013 940 731 
Q 997 450 1156 256 
Q 1316 63 1600 63 
z
" transform="scale(0.015625)"/>
       </defs>
       <use xlink:href="#Cmr10-36"/>
      </g>
     </g>
    </g>
    <g id="xtick_4">
     <g id="line2d_4">
      <g>
       <use xlink:href="#m60ece80fbd" x="199.346214" y="245.58976" style="stroke: #000000; stroke-width: 0.8"/>
      </g>
     </g>
     <g id="text_4">
      <!-- 9 -->
      <g transform="translate(195.346214 263.69226) scale(0.16 -0.16)">
       <defs>
        <path id="Cmr10-39" d="M 722 269 
Q 897 63 1331 63 
Q 1575 63 1786 228 
Q 1997 394 2113 634 
Q 2247 906 2284 1214 
Q 2322 1522 2322 1978 
Q 2213 1719 2008 1553 
Q 1803 1388 1538 1388 
Q 1166 1388 873 1589 
Q 581 1791 425 2120 
Q 269 2450 269 2822 
Q 269 3206 444 3539 
Q 619 3872 928 4067 
Q 1238 4263 1631 4263 
Q 2019 4263 2280 4052 
Q 2541 3841 2678 3508 
Q 2816 3175 2870 2803 
Q 2925 2431 2925 2069 
Q 2925 1575 2744 1061 
Q 2563 547 2202 203 
Q 1841 -141 1331 -141 
Q 953 -141 690 37 
Q 428 216 428 575 
Q 428 706 517 795 
Q 606 884 738 884 
Q 866 884 955 795 
Q 1044 706 1044 575 
Q 1044 450 953 359 
Q 863 269 738 269 
L 722 269 
z
M 1563 1556 
Q 1825 1556 1992 1732 
Q 2159 1909 2234 2171 
Q 2309 2434 2309 2694 
L 2309 2816 
L 2309 2841 
Q 2309 3322 2168 3700 
Q 2028 4078 1631 4078 
Q 1378 4078 1220 3967 
Q 1063 3856 988 3672 
Q 913 3488 892 3278 
Q 872 3069 872 2822 
Q 872 2459 906 2203 
Q 941 1947 1094 1751 
Q 1247 1556 1563 1556 
z
" transform="scale(0.015625)"/>
       </defs>
       <use xlink:href="#Cmr10-39"/>
      </g>
     </g>
    </g>
    <g id="xtick_5">
     <g id="line2d_5">
      <g>
       <use xlink:href="#m60ece80fbd" x="242.374649" y="245.58976" style="stroke: #000000; stroke-width: 0.8"/>
      </g>
     </g>
     <g id="text_5">
      <!-- 12 -->
      <g transform="translate(234.374649 263.69226) scale(0.16 -0.16)">
       <defs>
        <path id="Cmr10-31" d="M 594 0 
L 594 225 
Q 1394 225 1394 428 
L 1394 3788 
Q 1063 3628 556 3628 
L 556 3853 
Q 1341 3853 1741 4263 
L 1831 4263 
Q 1853 4263 1873 4245 
Q 1894 4228 1894 4206 
L 1894 428 
Q 1894 225 2694 225 
L 2694 0 
L 594 0 
z
" transform="scale(0.015625)"/>
        <path id="Cmr10-32" d="M 319 0 
L 319 172 
Q 319 188 331 206 
L 1325 1306 
Q 1550 1550 1690 1715 
Q 1831 1881 1968 2097 
Q 2106 2313 2186 2536 
Q 2266 2759 2266 3009 
Q 2266 3272 2169 3511 
Q 2072 3750 1880 3894 
Q 1688 4038 1416 4038 
Q 1138 4038 916 3870 
Q 694 3703 603 3438 
Q 628 3444 672 3444 
Q 816 3444 917 3347 
Q 1019 3250 1019 3097 
Q 1019 2950 917 2848 
Q 816 2747 672 2747 
Q 522 2747 420 2851 
Q 319 2956 319 3097 
Q 319 3338 409 3548 
Q 500 3759 670 3923 
Q 841 4088 1055 4175 
Q 1269 4263 1509 4263 
Q 1875 4263 2190 4108 
Q 2506 3953 2690 3670 
Q 2875 3388 2875 3009 
Q 2875 2731 2753 2481 
Q 2631 2231 2440 2026 
Q 2250 1822 1953 1562 
Q 1656 1303 1563 1216 
L 838 519 
L 1453 519 
Q 1906 519 2211 526 
Q 2516 534 2534 550 
Q 2609 631 2688 1141 
L 2875 1141 
L 2694 0 
L 319 0 
z
" transform="scale(0.015625)"/>
       </defs>
       <use xlink:href="#Cmr10-31"/>
       <use xlink:href="#Cmr10-32" x="50"/>
      </g>
     </g>
    </g>
    <g id="xtick_6">
     <g id="line2d_6">
      <g>
       <use xlink:href="#m60ece80fbd" x="285.403083" y="245.58976" style="stroke: #000000; stroke-width: 0.8"/>
      </g>
     </g>
     <g id="text_6">
      <!-- 15 -->
      <g transform="translate(277.403083 263.69226) scale(0.16 -0.16)">
       <defs>
        <path id="Cmr10-35" d="M 556 728 
Q 622 541 758 387 
Q 894 234 1080 148 
Q 1266 63 1466 63 
Q 1928 63 2103 422 
Q 2278 781 2278 1294 
Q 2278 1516 2270 1667 
Q 2263 1819 2228 1959 
Q 2169 2184 2020 2353 
Q 1872 2522 1656 2522 
Q 1441 2522 1286 2456 
Q 1131 2391 1034 2303 
Q 938 2216 863 2119 
Q 788 2022 769 2016 
L 697 2016 
Q 681 2016 657 2036 
Q 634 2056 634 2075 
L 634 4213 
Q 634 4228 654 4245 
Q 675 4263 697 4263 
L 716 4263 
Q 1147 4056 1631 4056 
Q 2106 4056 2547 4263 
L 2566 4263 
Q 2588 4263 2606 4247 
Q 2625 4231 2625 4213 
L 2625 4153 
Q 2625 4122 2613 4122 
Q 2394 3831 2064 3668 
Q 1734 3506 1381 3506 
Q 1125 3506 856 3578 
L 856 2369 
Q 1069 2541 1236 2614 
Q 1403 2688 1663 2688 
Q 2016 2688 2295 2484 
Q 2575 2281 2725 1954 
Q 2875 1628 2875 1288 
Q 2875 903 2686 575 
Q 2497 247 2172 53 
Q 1847 -141 1466 -141 
Q 1150 -141 886 21 
Q 622 184 470 459 
Q 319 734 319 1044 
Q 319 1188 412 1278 
Q 506 1369 647 1369 
Q 788 1369 883 1276 
Q 978 1184 978 1044 
Q 978 906 883 811 
Q 788 716 647 716 
Q 625 716 597 720 
Q 569 725 556 728 
z
" transform="scale(0.015625)"/>
       </defs>
       <use xlink:href="#Cmr10-31"/>
       <use xlink:href="#Cmr10-35" x="50"/>
      </g>
     </g>
    </g>
    <g id="xtick_7">
     <g id="line2d_7">
      <g>
       <use xlink:href="#m60ece80fbd" x="328.431518" y="245.58976" style="stroke: #000000; stroke-width: 0.8"/>
      </g>
     </g>
     <g id="text_7">
      <!-- 18 -->
      <g transform="translate(320.431518 263.69226) scale(0.16 -0.16)">
       <defs>
        <path id="Cmr10-38" d="M 269 972 
Q 269 1356 522 1651 
Q 775 1947 1172 2144 
L 934 2297 
Q 716 2441 578 2680 
Q 441 2919 441 3181 
Q 441 3488 602 3734 
Q 763 3981 1030 4122 
Q 1297 4263 1600 4263 
Q 1884 4263 2148 4147 
Q 2413 4031 2583 3815 
Q 2753 3600 2753 3303 
Q 2753 3088 2651 2903 
Q 2550 2719 2373 2572 
Q 2197 2425 1997 2322 
L 2363 2088 
Q 2616 1922 2770 1653 
Q 2925 1384 2925 1088 
Q 2925 741 2739 456 
Q 2553 172 2247 15 
Q 1941 -141 1600 -141 
Q 1269 -141 961 -6 
Q 653 128 461 383 
Q 269 638 269 972 
z
M 616 972 
Q 616 719 755 509 
Q 894 300 1122 181 
Q 1350 63 1600 63 
Q 1972 63 2275 280 
Q 2578 497 2578 856 
Q 2578 978 2529 1098 
Q 2481 1219 2395 1317 
Q 2309 1416 2203 1478 
L 1344 2034 
Q 1144 1928 976 1765 
Q 809 1603 712 1400 
Q 616 1197 616 972 
z
M 1056 2925 
L 1831 2425 
Q 2100 2581 2272 2803 
Q 2444 3025 2444 3303 
Q 2444 3519 2323 3698 
Q 2203 3878 2009 3978 
Q 1816 4078 1594 4078 
Q 1400 4078 1203 4003 
Q 1006 3928 878 3779 
Q 750 3631 750 3431 
Q 750 3131 1056 2925 
z
" transform="scale(0.015625)"/>
       </defs>
       <use xlink:href="#Cmr10-31"/>
       <use xlink:href="#Cmr10-38" x="50"/>
      </g>
     </g>
    </g>
    <g id="text_8">
     <!-- Epoch -->
     <g transform="translate(184.64262 281.89726) scale(0.16 -0.16)">
      <defs>
       <path id="Cmr10-45" d="M 197 0 
L 197 225 
Q 856 225 856 428 
L 856 3944 
Q 856 4147 197 4147 
L 197 4372 
L 3816 4372 
L 3994 2906 
L 3809 2906 
Q 3741 3459 3617 3709 
Q 3494 3959 3222 4053 
Q 2950 4147 2406 4147 
L 1778 4147 
Q 1663 4147 1598 4137 
Q 1534 4128 1493 4083 
Q 1453 4038 1453 3944 
L 1453 2381 
L 1925 2381 
Q 2250 2381 2411 2436 
Q 2572 2491 2633 2645 
Q 2694 2800 2694 3128 
L 2881 3128 
L 2881 1409 
L 2694 1409 
Q 2694 1734 2633 1890 
Q 2572 2047 2411 2101 
Q 2250 2156 1925 2156 
L 1453 2156 
L 1453 428 
Q 1453 291 1531 258 
Q 1609 225 1778 225 
L 2456 225 
Q 2900 225 3173 295 
Q 3447 366 3598 530 
Q 3750 694 3833 955 
Q 3916 1216 3988 1678 
L 4172 1678 
L 3903 0 
L 197 0 
z
" transform="scale(0.015625)"/>
       <path id="Cmr10-70" d="M 166 -1241 
L 166 -1019 
Q 384 -1019 525 -981 
Q 666 -944 666 -813 
L 666 2272 
Q 666 2447 541 2490 
Q 416 2534 166 2534 
L 166 2759 
L 1113 2828 
L 1113 2431 
Q 1288 2625 1520 2726 
Q 1753 2828 2016 2828 
Q 2394 2828 2697 2623 
Q 3000 2419 3170 2086 
Q 3341 1753 3341 1381 
Q 3341 994 3152 659 
Q 2963 325 2636 126 
Q 2309 -72 1919 -72 
Q 1453 -72 1131 306 
L 1131 -813 
Q 1131 -944 1273 -981 
Q 1416 -1019 1631 -1019 
L 1631 -1241 
L 166 -1241 
z
M 1131 622 
Q 1244 394 1444 245 
Q 1644 97 1881 97 
Q 2103 97 2273 215 
Q 2444 334 2559 534 
Q 2675 734 2729 954 
Q 2784 1175 2784 1381 
Q 2784 1638 2692 1936 
Q 2600 2234 2411 2439 
Q 2222 2644 1953 2644 
Q 1694 2644 1476 2511 
Q 1259 2378 1131 2150 
L 1131 622 
z
" transform="scale(0.015625)"/>
       <path id="Cmr10-6f" d="M 1600 -72 
Q 1216 -72 887 123 
Q 559 319 368 647 
Q 178 975 178 1363 
Q 178 1656 283 1928 
Q 388 2200 583 2414 
Q 778 2628 1037 2748 
Q 1297 2869 1600 2869 
Q 1994 2869 2317 2661 
Q 2641 2453 2828 2104 
Q 3016 1756 3016 1363 
Q 3016 978 2825 648 
Q 2634 319 2307 123 
Q 1981 -72 1600 -72 
z
M 1600 116 
Q 2113 116 2284 487 
Q 2456 859 2456 1434 
Q 2456 1756 2422 1967 
Q 2388 2178 2272 2350 
Q 2200 2456 2089 2536 
Q 1978 2616 1854 2658 
Q 1731 2700 1600 2700 
Q 1400 2700 1220 2609 
Q 1041 2519 922 2350 
Q 803 2169 770 1951 
Q 738 1734 738 1434 
Q 738 1075 800 789 
Q 863 503 1052 309 
Q 1241 116 1600 116 
z
" transform="scale(0.015625)"/>
       <path id="Cmr10-63" d="M 1594 -72 
Q 1206 -72 890 129 
Q 575 331 394 667 
Q 213 1003 213 1381 
Q 213 1759 392 2106 
Q 572 2453 889 2661 
Q 1206 2869 1594 2869 
Q 1969 2869 2276 2722 
Q 2584 2575 2584 2241 
Q 2584 2116 2495 2023 
Q 2406 1931 2278 1931 
Q 2150 1931 2061 2023 
Q 1972 2116 1972 2241 
Q 1972 2353 2044 2436 
Q 2116 2519 2222 2541 
Q 2000 2681 1600 2681 
Q 1294 2681 1106 2478 
Q 919 2275 844 1975 
Q 769 1675 769 1381 
Q 769 1072 861 783 
Q 953 494 1158 305 
Q 1363 116 1672 116 
Q 1975 116 2187 302 
Q 2400 488 2478 788 
Q 2478 825 2528 825 
L 2606 825 
Q 2625 825 2640 808 
Q 2656 791 2656 769 
L 2656 750 
Q 2559 372 2271 150 
Q 1984 -72 1594 -72 
z
" transform="scale(0.015625)"/>
       <path id="Cmr10-68" d="M 191 0 
L 191 225 
Q 409 225 550 259 
Q 691 294 691 428 
L 691 3788 
Q 691 3959 639 4036 
Q 588 4113 491 4130 
Q 394 4147 191 4147 
L 191 4372 
L 1141 4441 
L 1141 2241 
Q 1275 2506 1515 2667 
Q 1756 2828 2047 2828 
Q 2491 2828 2714 2615 
Q 2938 2403 2938 1966 
L 2938 428 
Q 2938 294 3078 259 
Q 3219 225 3438 225 
L 3438 0 
L 1972 0 
L 1972 225 
Q 2191 225 2331 259 
Q 2472 294 2472 428 
L 2472 1947 
Q 2472 2259 2381 2461 
Q 2291 2663 2009 2663 
Q 1638 2663 1398 2366 
Q 1159 2069 1159 1691 
L 1159 428 
Q 1159 294 1300 259 
Q 1441 225 1656 225 
L 1656 0 
L 191 0 
z
" transform="scale(0.015625)"/>
      </defs>
      <use xlink:href="#Cmr10-45"/>
      <use xlink:href="#Cmr10-70" x="68.017578"/>
      <use xlink:href="#Cmr10-6f" x="123.535156"/>
      <use xlink:href="#Cmr10-63" x="173.535156"/>
      <use xlink:href="#Cmr10-68" x="217.919922"/>
     </g>
    </g>
   </g>
   <g id="matplotlib.axis_2">
    <g id="ytick_1">
     <g id="line2d_8">
      <defs>
       <path id="m0d43e7fb98" d="M 0 0 
L -3.5 0 
" style="stroke: #000000; stroke-width: 0.8"/>
      </defs>
      <g>
       <use xlink:href="#m0d43e7fb98" x="56.63524" y="223.531576" style="stroke: #000000; stroke-width: 0.8"/>
      </g>
     </g>
     <g id="text_9">
      <!-- 0.88 -->
      <g transform="translate(21.20524 229.082826) scale(0.16 -0.16)">
       <defs>
        <path id="Cmr10-2e" d="M 538 353 
Q 538 497 644 600 
Q 750 703 891 703 
Q 978 703 1062 656 
Q 1147 609 1194 525 
Q 1241 441 1241 353 
Q 1241 213 1137 106 
Q 1034 0 891 0 
Q 750 0 644 106 
Q 538 213 538 353 
z
" transform="scale(0.015625)"/>
       </defs>
       <use xlink:href="#Cmr10-30"/>
       <use xlink:href="#Cmr10-2e" x="50"/>
       <use xlink:href="#Cmr10-38" x="77.685547"/>
       <use xlink:href="#Cmr10-38" x="127.685547"/>
      </g>
     </g>
    </g>
    <g id="ytick_2">
     <g id="line2d_9">
      <g>
       <use xlink:href="#m0d43e7fb98" x="56.63524" y="182.108251" style="stroke: #000000; stroke-width: 0.8"/>
      </g>
     </g>
     <g id="text_10">
      <!-- 0.90 -->
      <g transform="translate(21.20524 187.659501) scale(0.16 -0.16)">
       <use xlink:href="#Cmr10-30"/>
       <use xlink:href="#Cmr10-2e" x="50"/>
       <use xlink:href="#Cmr10-39" x="77.685547"/>
       <use xlink:href="#Cmr10-30" x="127.685547"/>
      </g>
     </g>
    </g>
    <g id="ytick_3">
     <g id="line2d_10">
      <g>
       <use xlink:href="#m0d43e7fb98" x="56.63524" y="140.684926" style="stroke: #000000; stroke-width: 0.8"/>
      </g>
     </g>
     <g id="text_11">
      <!-- 0.92 -->
      <g transform="translate(21.20524 146.236176) scale(0.16 -0.16)">
       <use xlink:href="#Cmr10-30"/>
       <use xlink:href="#Cmr10-2e" x="50"/>
       <use xlink:href="#Cmr10-39" x="77.685547"/>
       <use xlink:href="#Cmr10-32" x="127.685547"/>
      </g>
     </g>
    </g>
    <g id="ytick_4">
     <g id="line2d_11">
      <g>
       <use xlink:href="#m0d43e7fb98" x="56.63524" y="99.261601" style="stroke: #000000; stroke-width: 0.8"/>
      </g>
     </g>
     <g id="text_12">
      <!-- 0.94 -->
      <g transform="translate(21.20524 104.812851) scale(0.16 -0.16)">
       <defs>
        <path id="Cmr10-34" d="M 178 1056 
L 178 1281 
L 2156 4231 
Q 2178 4263 2222 4263 
L 2316 4263 
Q 2388 4263 2388 4191 
L 2388 1281 
L 3016 1281 
L 3016 1056 
L 2388 1056 
L 2388 428 
Q 2388 297 2575 261 
Q 2763 225 3009 225 
L 3009 0 
L 1247 0 
L 1247 225 
Q 1494 225 1681 261 
Q 1869 297 1869 428 
L 1869 1056 
L 178 1056 
z
M 391 1281 
L 1906 1281 
L 1906 3547 
L 391 1281 
z
" transform="scale(0.015625)"/>
       </defs>
       <use xlink:href="#Cmr10-30"/>
       <use xlink:href="#Cmr10-2e" x="50"/>
       <use xlink:href="#Cmr10-39" x="77.685547"/>
       <use xlink:href="#Cmr10-34" x="127.685547"/>
      </g>
     </g>
    </g>
    <g id="ytick_5">
     <g id="line2d_12">
      <g>
       <use xlink:href="#m0d43e7fb98" x="56.63524" y="57.838277" style="stroke: #000000; stroke-width: 0.8"/>
      </g>
     </g>
     <g id="text_13">
      <!-- 0.96 -->
      <g transform="translate(21.20524 63.389527) scale(0.16 -0.16)">
       <use xlink:href="#Cmr10-30"/>
       <use xlink:href="#Cmr10-2e" x="50"/>
       <use xlink:href="#Cmr10-39" x="77.685547"/>
       <use xlink:href="#Cmr10-36" x="127.685547"/>
      </g>
     </g>
    </g>
    <g id="ytick_6">
     <g id="line2d_13">
      <g>
       <use xlink:href="#m0d43e7fb98" x="56.63524" y="16.414952" style="stroke: #000000; stroke-width: 0.8"/>
      </g>
     </g>
     <g id="text_14">
      <!-- 0.98 -->
      <g transform="translate(21.20524 21.966202) scale(0.16 -0.16)">
       <use xlink:href="#Cmr10-30"/>
       <use xlink:href="#Cmr10-2e" x="50"/>
       <use xlink:href="#Cmr10-39" x="77.685547"/>
       <use xlink:href="#Cmr10-38" x="127.685547"/>
      </g>
     </g>
    </g>
    <g id="text_15">
     <!-- Train IoU -->
     <g transform="translate(14.10274 159.4075) rotate(-90) scale(0.16 -0.16)">
      <defs>
       <path id="Cmr10-54" d="M 1081 0 
L 1081 225 
Q 1403 225 1706 261 
Q 2009 297 2009 428 
L 2009 3944 
Q 2009 4081 1932 4114 
Q 1856 4147 1684 4147 
L 1416 4147 
Q 888 4147 666 3916 
Q 550 3800 500 3545 
Q 450 3291 416 2906 
L 231 2906 
L 353 4372 
L 4263 4372 
L 4384 2906 
L 4197 2906 
Q 4159 3319 4114 3561 
Q 4069 3803 3950 3916 
Q 3725 4147 3200 4147 
L 2931 4147 
Q 2816 4147 2752 4137 
Q 2688 4128 2647 4083 
Q 2606 4038 2606 3944 
L 2606 428 
Q 2606 297 2909 261 
Q 3213 225 3531 225 
L 3531 0 
L 1081 0 
z
" transform="scale(0.015625)"/>
       <path id="Cmr10-72" d="M 166 0 
L 166 225 
Q 384 225 525 259 
Q 666 294 666 428 
L 666 2175 
Q 666 2347 614 2423 
Q 563 2500 466 2517 
Q 369 2534 166 2534 
L 166 2759 
L 1081 2828 
L 1081 2203 
Q 1184 2481 1375 2654 
Q 1566 2828 1838 2828 
Q 2028 2828 2178 2715 
Q 2328 2603 2328 2419 
Q 2328 2303 2245 2217 
Q 2163 2131 2041 2131 
Q 1922 2131 1837 2215 
Q 1753 2300 1753 2419 
Q 1753 2591 1875 2663 
L 1838 2663 
Q 1578 2663 1414 2475 
Q 1250 2288 1181 2009 
Q 1113 1731 1113 1478 
L 1113 428 
Q 1113 225 1734 225 
L 1734 0 
L 166 0 
z
" transform="scale(0.015625)"/>
       <path id="Cmr10-61" d="M 256 628 
Q 256 1009 556 1248 
Q 856 1488 1276 1586 
Q 1697 1684 2075 1684 
L 2075 1947 
Q 2075 2131 1994 2304 
Q 1913 2478 1759 2589 
Q 1606 2700 1422 2700 
Q 997 2700 775 2509 
Q 897 2509 976 2417 
Q 1056 2325 1056 2203 
Q 1056 2075 965 1984 
Q 875 1894 750 1894 
Q 622 1894 531 1984 
Q 441 2075 441 2203 
Q 441 2541 747 2705 
Q 1053 2869 1422 2869 
Q 1681 2869 1943 2758 
Q 2206 2647 2373 2440 
Q 2541 2234 2541 1959 
L 2541 519 
Q 2541 394 2594 289 
Q 2647 184 2759 184 
Q 2866 184 2917 290 
Q 2969 397 2969 519 
L 2969 928 
L 3156 928 
L 3156 519 
Q 3156 375 3081 245 
Q 3006 116 2879 39 
Q 2753 -38 2606 -38 
Q 2419 -38 2283 107 
Q 2147 253 2131 453 
Q 2013 213 1781 70 
Q 1550 -72 1288 -72 
Q 1044 -72 808 0 
Q 572 72 414 226 
Q 256 381 256 628 
z
M 775 628 
Q 775 403 940 250 
Q 1106 97 1331 97 
Q 1538 97 1706 200 
Q 1875 303 1975 481 
Q 2075 659 2075 856 
L 2075 1522 
Q 1784 1522 1479 1426 
Q 1175 1331 975 1128 
Q 775 925 775 628 
z
" transform="scale(0.015625)"/>
       <path id="Cmr10-69" d="M 197 0 
L 197 225 
Q 416 225 556 259 
Q 697 294 697 428 
L 697 2175 
Q 697 2422 601 2478 
Q 506 2534 225 2534 
L 225 2759 
L 1147 2828 
L 1147 428 
Q 1147 294 1269 259 
Q 1391 225 1594 225 
L 1594 0 
L 197 0 
z
M 469 3928 
Q 469 4069 575 4175 
Q 681 4281 819 4281 
Q 909 4281 993 4234 
Q 1078 4188 1125 4103 
Q 1172 4019 1172 3928 
Q 1172 3791 1065 3684 
Q 959 3578 819 3578 
Q 681 3578 575 3684 
Q 469 3791 469 3928 
z
" transform="scale(0.015625)"/>
       <path id="Cmr10-6e" d="M 191 0 
L 191 225 
Q 409 225 550 259 
Q 691 294 691 428 
L 691 2175 
Q 691 2347 639 2423 
Q 588 2500 491 2517 
Q 394 2534 191 2534 
L 191 2759 
L 1119 2828 
L 1119 2203 
Q 1247 2478 1498 2653 
Q 1750 2828 2047 2828 
Q 2491 2828 2714 2615 
Q 2938 2403 2938 1966 
L 2938 428 
Q 2938 294 3078 259 
Q 3219 225 3438 225 
L 3438 0 
L 1972 0 
L 1972 225 
Q 2191 225 2331 259 
Q 2472 294 2472 428 
L 2472 1947 
Q 2472 2259 2381 2461 
Q 2291 2663 2009 2663 
Q 1638 2663 1398 2366 
Q 1159 2069 1159 1691 
L 1159 428 
Q 1159 294 1300 259 
Q 1441 225 1656 225 
L 1656 0 
L 191 0 
z
" transform="scale(0.015625)"/>
       <path id="Cmr10-20" transform="scale(0.015625)"/>
       <path id="Cmr10-49" d="M 166 0 
L 166 225 
Q 856 225 856 428 
L 856 3944 
Q 856 4147 166 4147 
L 166 4372 
L 2144 4372 
L 2144 4147 
Q 1453 4147 1453 3944 
L 1453 428 
Q 1453 225 2144 225 
L 2144 0 
L 166 0 
z
" transform="scale(0.015625)"/>
       <path id="Cmr10-55" d="M 856 1447 
L 856 3944 
Q 856 4147 197 4147 
L 197 4372 
L 2113 4372 
L 2113 4147 
Q 1453 4147 1453 3944 
L 1453 1472 
Q 1453 1116 1551 798 
Q 1650 481 1883 282 
Q 2116 84 2491 84 
Q 2856 84 3134 276 
Q 3413 469 3563 787 
Q 3713 1106 3713 1472 
L 3713 3769 
Q 3713 4147 3053 4147 
L 3053 4372 
L 4594 4372 
L 4594 4147 
Q 3938 4147 3938 3769 
L 3938 1447 
Q 3938 1150 3833 865 
Q 3728 581 3529 351 
Q 3331 122 3062 -9 
Q 2794 -141 2491 -141 
Q 2066 -141 1686 71 
Q 1306 284 1081 650 
Q 856 1016 856 1447 
z
" transform="scale(0.015625)"/>
      </defs>
      <use xlink:href="#Cmr10-54"/>
      <use xlink:href="#Cmr10-72" x="72.216797"/>
      <use xlink:href="#Cmr10-61" x="111.328125"/>
      <use xlink:href="#Cmr10-69" x="161.328125"/>
      <use xlink:href="#Cmr10-6e" x="189.013672"/>
      <use xlink:href="#Cmr10-20" x="244.53125"/>
      <use xlink:href="#Cmr10-49" x="277.832031"/>
      <use xlink:href="#Cmr10-6f" x="313.916016"/>
      <use xlink:href="#Cmr10-55" x="363.916016"/>
     </g>
    </g>
   </g>
   <g id="line2d_14">
    <path d="M 70.260911 179.365036 
L 84.603722 98.262632 
L 98.946534 75.561122 
L 113.289345 62.285056 
L 127.632157 53.836863 
L 141.974968 48.879088 
L 156.31778 42.826729 
L 170.660591 38.583739 
L 185.003403 35.90422 
L 199.346214 32.999877 
L 213.689026 30.893553 
L 228.031837 28.994513 
L 242.374649 27.492524 
L 256.71746 22.110532 
L 271.060272 19.918843 
L 285.403083 19.520262 
L 299.745895 18.049996 
L 314.088706 17.706339 
L 328.431518 14.731113 
L 342.774329 14.027036 
" clip-path="url(#p1ba902ebde)" style="fill: none; stroke: #f58231; stroke-width: 1.5; stroke-linecap: square"/>
   </g>
   <g id="line2d_15">
    <path d="M 70.260911 186.295799 
L 84.603722 101.606719 
L 98.946534 78.674888 
L 113.289345 64.356452 
L 127.632157 56.029803 
L 141.974968 50.532857 
L 156.31778 44.751685 
L 170.660591 40.81665 
L 185.003403 34.3944 
L 199.346214 31.823786 
L 213.689026 29.828894 
L 228.031837 28.17626 
L 242.374649 27.04566 
L 256.71746 25.635292 
L 271.060272 24.180462 
L 285.403083 23.058891 
L 299.745895 19.979248 
L 314.088706 19.304051 
L 328.431518 18.303761 
L 342.774329 17.084909 
" clip-path="url(#p1ba902ebde)" style="fill: none; stroke: #000075; stroke-width: 1.5; stroke-linecap: square"/>
   </g>
   <g id="line2d_16">
    <path d="M 70.260911 188.221261 
L 84.603722 100.799957 
L 98.946534 77.679777 
L 113.289345 63.89309 
L 127.632157 56.844073 
L 141.974968 50.120812 
L 156.31778 45.467465 
L 170.660591 42.357455 
L 185.003403 38.16671 
L 199.346214 34.870685 
L 213.689026 32.967947 
L 228.031837 31.058319 
L 242.374649 29.601356 
L 256.71746 27.394034 
L 271.060272 26.366892 
L 285.403083 24.336145 
L 299.745895 19.979479 
L 314.088706 18.447009 
L 328.431518 17.64248 
L 342.774329 17.150997 
" clip-path="url(#p1ba902ebde)" style="fill: none; stroke: #3cb44b; stroke-width: 1.5; stroke-linecap: square"/>
   </g>
   <g id="line2d_17">
    <path d="M 70.260911 194.20528 
L 84.603722 100.393124 
L 98.946534 76.732899 
L 113.289345 63.88222 
L 127.632157 55.924466 
L 141.974968 49.684225 
L 156.31778 45.24697 
L 170.660591 41.448782 
L 185.003403 38.682133 
L 199.346214 36.35499 
L 213.689026 32.643065 
L 228.031837 30.775626 
L 242.374649 28.86658 
L 256.71746 27.58591 
L 271.060272 25.744328 
L 285.403083 23.829519 
L 299.745895 23.032733 
L 314.088706 18.920943 
L 328.431518 17.711479 
L 342.774329 17.392319 
" clip-path="url(#p1ba902ebde)" style="fill: none; stroke: #4363d8; stroke-width: 1.5; stroke-linecap: square"/>
   </g>
   <g id="line2d_18">
    <path d="M 70.260911 181.075806 
L 84.603722 101.207901 
L 98.946534 79.096879 
L 113.289345 66.046114 
L 127.632157 57.486717 
L 141.974968 50.078862 
L 156.31778 45.250462 
L 170.660591 41.951694 
L 185.003403 37.640915 
L 199.346214 34.902673 
L 213.689026 32.51931 
L 228.031837 26.61953 
L 242.374649 24.425283 
L 256.71746 23.296692 
L 271.060272 22.089265 
L 285.403083 21.001562 
L 299.745895 20.042027 
L 314.088706 18.996781 
L 328.431518 18.867271 
L 342.774329 17.789309 
" clip-path="url(#p1ba902ebde)" style="fill: none; stroke: #000000; stroke-width: 1.5; stroke-linecap: square"/>
   </g>
   <g id="line2d_19">
    <path d="M 70.260911 211.819804 
L 84.603722 94.919832 
L 98.946534 73.476646 
L 113.289345 61.826129 
L 127.632157 53.336524 
L 141.974968 48.202941 
L 156.31778 43.706918 
L 170.660591 39.42168 
L 185.003403 36.255491 
L 199.346214 34.509997 
L 213.689026 31.787641 
L 228.031837 29.956015 
L 242.374649 27.828874 
L 256.71746 26.338443 
L 271.060272 25.24307 
L 285.403083 24.391944 
L 299.745895 21.999402 
L 314.088706 21.066136 
L 328.431518 20.535375 
L 342.774329 19.258435 
" clip-path="url(#p1ba902ebde)" style="fill: none; stroke: #e6194b; stroke-width: 1.5; stroke-linecap: square"/>
   </g>
   <g id="line2d_20">
    <path d="M 70.260911 234.562964 
L 84.603722 151.234234 
L 98.946534 121.705232 
L 113.289345 103.542839 
L 127.632157 90.938786 
L 141.974968 82.327339 
L 156.31778 75.334632 
L 170.660591 69.520314 
L 185.003403 65.183803 
L 199.346214 60.480707 
L 213.689026 57.53524 
L 228.031837 54.415843 
L 242.374649 51.550096 
L 256.71746 48.415491 
L 271.060272 46.826881 
L 285.403083 45.064369 
L 299.745895 43.275376 
L 314.088706 41.433465 
L 328.431518 39.367472 
L 342.774329 38.188235 
" clip-path="url(#p1ba902ebde)" style="fill: none; stroke: #46f0f0; stroke-width: 1.5; stroke-linecap: square"/>
   </g>
   <g id="patch_3">
    <path d="M 56.63524 245.58976 
L 56.63524 3.00024 
" style="fill: none; stroke: #000000; stroke-width: 0.8; stroke-linejoin: miter; stroke-linecap: square"/>
   </g>
   <g id="patch_4">
    <path d="M 356.4 245.58976 
L 356.4 3.00024 
" style="fill: none; stroke: #000000; stroke-width: 0.8; stroke-linejoin: miter; stroke-linecap: square"/>
   </g>
   <g id="patch_5">
    <path d="M 56.63524 245.58976 
L 356.4 245.58976 
" style="fill: none; stroke: #000000; stroke-width: 0.8; stroke-linejoin: miter; stroke-linecap: square"/>
   </g>
   <g id="patch_6">
    <path d="M 56.63524 3.00024 
L 356.4 3.00024 
" style="fill: none; stroke: #000000; stroke-width: 0.8; stroke-linejoin: miter; stroke-linecap: square"/>
   </g>
   <g id="text_16">
    <!-- A -->
    <g transform="translate(61.12583 26.194454) scale(0.2 -0.2)">
     <defs>
      <path id="Cmr10-41" d="M 206 0 
L 206 225 
Q 778 225 909 603 
L 2253 4513 
Q 2272 4581 2356 4581 
L 2438 4581 
Q 2522 4581 2541 4513 
L 3944 428 
Q 4003 294 4170 259 
Q 4338 225 4588 225 
L 4588 0 
L 2803 0 
L 2803 225 
Q 3334 225 3334 397 
L 3334 428 
L 2988 1428 
L 1434 1428 
L 1147 603 
Q 1141 581 1141 538 
Q 1141 378 1292 301 
Q 1444 225 1619 225 
L 1619 0 
L 206 0 
z
M 1509 1650 
L 2913 1650 
L 2209 3694 
L 1509 1650 
z
" transform="scale(0.015625)"/>
     </defs>
     <use xlink:href="#Cmr10-41"/>
    </g>
   </g>
   <g id="legend_1">
    <g id="patch_7">
     <path d="M 189.079844 239.08976 
L 347.3 239.08976 
Q 349.9 239.08976 349.9 236.48976 
L 349.9 110.798041 
Q 349.9 108.198041 347.3 108.198041 
L 189.079844 108.198041 
Q 186.479844 108.198041 186.479844 110.798041 
L 186.479844 236.48976 
Q 186.479844 239.08976 189.079844 239.08976 
z
" style="fill: #ffffff; opacity: 0.8; stroke: #cccccc; stroke-linejoin: miter"/>
    </g>
    <g id="line2d_21">
     <path d="M 191.679844 117.948041 
L 204.679844 117.948041 
L 217.679844 117.948041 
" style="fill: none; stroke: #f58231; stroke-width: 1.5; stroke-linecap: square"/>
    </g>
    <g id="text_17">
     <!-- 1. BCELoss -->
     <g transform="translate(228.079844 122.498041) scale(0.13 -0.13)">
      <defs>
       <path id="Cmr10-42" d="M 219 0 
L 219 225 
Q 878 225 878 428 
L 878 3944 
Q 878 4147 219 4147 
L 219 4372 
L 2572 4372 
Q 2897 4372 3228 4245 
Q 3559 4119 3776 3870 
Q 3994 3622 3994 3284 
Q 3994 2894 3673 2630 
Q 3353 2366 2925 2284 
Q 3203 2284 3497 2131 
Q 3791 1978 3978 1722 
Q 4166 1466 4166 1178 
Q 4166 828 3958 559 
Q 3750 291 3419 145 
Q 3088 0 2753 0 
L 219 0 
z
M 1434 428 
Q 1434 291 1512 258 
Q 1591 225 1759 225 
L 2572 225 
Q 2822 225 3036 356 
Q 3250 488 3375 708 
Q 3500 928 3500 1178 
Q 3500 1422 3397 1655 
Q 3294 1888 3101 2038 
Q 2909 2188 2663 2188 
L 1434 2188 
L 1434 428 
z
M 1434 2356 
L 2394 2356 
Q 2588 2356 2758 2426 
Q 2928 2497 3064 2630 
Q 3200 2763 3273 2930 
Q 3347 3097 3347 3284 
Q 3347 3450 3292 3603 
Q 3238 3756 3131 3881 
Q 3025 4006 2881 4076 
Q 2738 4147 2572 4147 
L 1759 4147 
Q 1644 4147 1580 4137 
Q 1516 4128 1475 4083 
Q 1434 4038 1434 3944 
L 1434 2356 
z
" transform="scale(0.015625)"/>
       <path id="Cmr10-43" d="M 1459 684 
Q 1678 406 2006 245 
Q 2334 84 2688 84 
Q 2984 84 3237 201 
Q 3491 319 3680 528 
Q 3869 738 3970 1003 
Q 4072 1269 4072 1563 
Q 4072 1613 4128 1613 
L 4206 1613 
Q 4256 1613 4256 1550 
Q 4256 1216 4128 905 
Q 4000 594 3765 358 
Q 3531 122 3226 -9 
Q 2922 -141 2591 -141 
Q 2131 -141 1720 45 
Q 1309 231 1004 554 
Q 700 878 529 1303 
Q 359 1728 359 2188 
Q 359 2647 529 3072 
Q 700 3497 1004 3822 
Q 1309 4147 1720 4330 
Q 2131 4513 2591 4513 
Q 2919 4513 3219 4370 
Q 3519 4228 3744 3969 
L 4116 4494 
Q 4153 4513 4159 4513 
L 4206 4513 
Q 4225 4513 4240 4497 
Q 4256 4481 4256 4459 
L 4256 2731 
Q 4256 2675 4206 2675 
L 4091 2675 
Q 4031 2675 4031 2731 
Q 4031 2916 3957 3144 
Q 3884 3372 3770 3576 
Q 3656 3781 3506 3938 
Q 3147 4288 2681 4288 
Q 2328 4288 2004 4128 
Q 1681 3969 1459 3688 
Q 1225 3388 1134 3005 
Q 1044 2622 1044 2188 
Q 1044 1753 1134 1368 
Q 1225 984 1459 684 
z
" transform="scale(0.015625)"/>
       <path id="Cmr10-4c" d="M 197 0 
L 197 225 
Q 856 225 856 428 
L 856 3944 
Q 856 4147 197 4147 
L 197 4372 
L 2272 4372 
L 2272 4147 
Q 1453 4147 1453 3944 
L 1453 428 
Q 1453 291 1531 258 
Q 1609 225 1778 225 
L 2272 225 
Q 2750 225 3009 400 
Q 3269 575 3376 876 
Q 3484 1178 3541 1678 
L 3725 1678 
L 3547 0 
L 197 0 
z
" transform="scale(0.015625)"/>
       <path id="Cmr10-73" d="M 213 -19 
L 213 1025 
Q 213 1075 269 1075 
L 347 1075 
Q 384 1075 397 1025 
Q 575 97 1259 97 
Q 1563 97 1767 234 
Q 1972 372 1972 659 
Q 1972 866 1812 1011 
Q 1653 1156 1434 1209 
L 1006 1294 
Q 791 1341 614 1437 
Q 438 1534 325 1695 
Q 213 1856 213 2069 
Q 213 2350 361 2529 
Q 509 2709 746 2789 
Q 984 2869 1259 2869 
Q 1588 2869 1831 2694 
L 2016 2853 
Q 2016 2869 2047 2869 
L 2094 2869 
Q 2113 2869 2128 2851 
Q 2144 2834 2144 2816 
L 2144 1978 
Q 2144 1919 2094 1919 
L 2016 1919 
Q 1959 1919 1959 1978 
Q 1959 2313 1773 2516 
Q 1588 2719 1253 2719 
Q 966 2719 755 2612 
Q 544 2506 544 2247 
Q 544 2069 695 1955 
Q 847 1841 1050 1791 
L 1484 1709 
Q 1703 1659 1892 1540 
Q 2081 1422 2192 1240 
Q 2303 1059 2303 831 
Q 2303 600 2223 429 
Q 2144 259 2001 146 
Q 1859 34 1665 -19 
Q 1472 -72 1259 -72 
Q 859 -72 575 197 
L 341 -56 
Q 341 -72 306 -72 
L 269 -72 
Q 213 -72 213 -19 
z
" transform="scale(0.015625)"/>
      </defs>
      <use xlink:href="#Cmr10-31"/>
      <use xlink:href="#Cmr10-2e" x="50"/>
      <use xlink:href="#Cmr10-20" x="77.685547"/>
      <use xlink:href="#Cmr10-42" x="110.986328"/>
      <use xlink:href="#Cmr10-43" x="181.787109"/>
      <use xlink:href="#Cmr10-45" x="254.003906"/>
      <use xlink:href="#Cmr10-4c" x="322.021484"/>
      <use xlink:href="#Cmr10-6f" x="384.521484"/>
      <use xlink:href="#Cmr10-73" x="434.521484"/>
      <use xlink:href="#Cmr10-73" x="473.925781"/>
     </g>
    </g>
    <g id="line2d_22">
     <path d="M 191.679844 136.068823 
L 204.679844 136.068823 
L 217.679844 136.068823 
" style="fill: none; stroke: #000075; stroke-width: 1.5; stroke-linecap: square"/>
    </g>
    <g id="text_18">
     <!-- 2. BCEJaccardLoss -->
     <g transform="translate(228.079844 140.618823) scale(0.13 -0.13)">
      <defs>
       <path id="Cmr10-4a" d="M 581 359 
Q 697 197 881 111 
Q 1066 25 1275 25 
Q 1481 25 1623 167 
Q 1766 309 1836 520 
Q 1906 731 1906 928 
L 1906 3944 
Q 1906 4147 1050 4147 
L 1050 4372 
L 2975 4372 
L 2975 4147 
Q 2759 4147 2621 4112 
Q 2484 4078 2484 3944 
L 2484 903 
Q 2484 597 2307 359 
Q 2131 122 1851 -9 
Q 1572 -141 1275 -141 
Q 1016 -141 778 -36 
Q 541 69 389 267 
Q 238 466 238 728 
Q 238 888 344 994 
Q 450 1100 609 1100 
Q 713 1100 797 1051 
Q 881 1003 929 915 
Q 978 828 978 728 
Q 978 572 872 465 
Q 766 359 609 359 
L 581 359 
z
" transform="scale(0.015625)"/>
       <path id="Cmr10-64" d="M 1563 -72 
Q 1184 -72 871 133 
Q 559 338 386 672 
Q 213 1006 213 1381 
Q 213 1769 402 2101 
Q 591 2434 916 2631 
Q 1241 2828 1631 2828 
Q 1866 2828 2075 2729 
Q 2284 2631 2438 2456 
L 2438 3788 
Q 2438 3959 2386 4036 
Q 2334 4113 2239 4130 
Q 2144 4147 1941 4147 
L 1941 4372 
L 2888 4441 
L 2888 581 
Q 2888 413 2939 336 
Q 2991 259 3086 242 
Q 3181 225 3384 225 
L 3384 0 
L 2419 -72 
L 2419 331 
Q 2253 141 2025 34 
Q 1797 -72 1563 -72 
z
M 909 556 
Q 1019 347 1201 222 
Q 1384 97 1600 97 
Q 1866 97 2087 250 
Q 2309 403 2419 647 
L 2419 2181 
Q 2344 2322 2230 2433 
Q 2116 2544 1973 2603 
Q 1831 2663 1672 2663 
Q 1338 2663 1134 2473 
Q 931 2284 850 1990 
Q 769 1697 769 1375 
Q 769 1119 795 928 
Q 822 738 909 556 
z
" transform="scale(0.015625)"/>
      </defs>
      <use xlink:href="#Cmr10-32"/>
      <use xlink:href="#Cmr10-2e" x="50"/>
      <use xlink:href="#Cmr10-20" x="77.685547"/>
      <use xlink:href="#Cmr10-42" x="110.986328"/>
      <use xlink:href="#Cmr10-43" x="181.787109"/>
      <use xlink:href="#Cmr10-45" x="254.003906"/>
      <use xlink:href="#Cmr10-4a" x="322.021484"/>
      <use xlink:href="#Cmr10-61" x="373.339844"/>
      <use xlink:href="#Cmr10-63" x="423.339844"/>
      <use xlink:href="#Cmr10-63" x="467.724609"/>
      <use xlink:href="#Cmr10-61" x="512.109375"/>
      <use xlink:href="#Cmr10-72" x="562.109375"/>
      <use xlink:href="#Cmr10-64" x="601.220703"/>
      <use xlink:href="#Cmr10-4c" x="656.738281"/>
      <use xlink:href="#Cmr10-6f" x="719.238281"/>
      <use xlink:href="#Cmr10-73" x="769.238281"/>
      <use xlink:href="#Cmr10-73" x="808.642578"/>
     </g>
    </g>
    <g id="line2d_23">
     <path d="M 191.679844 154.189604 
L 204.679844 154.189604 
L 217.679844 154.189604 
" style="fill: none; stroke: #3cb44b; stroke-width: 1.5; stroke-linecap: square"/>
    </g>
    <g id="text_19">
     <!-- 3. DiceLoss -->
     <g transform="translate(228.079844 158.739604) scale(0.13 -0.13)">
      <defs>
       <path id="Cmr10-44" d="M 213 0 
L 213 225 
Q 872 225 872 428 
L 872 3944 
Q 872 4147 213 4147 
L 213 4372 
L 2572 4372 
Q 3009 4372 3371 4183 
Q 3734 3994 3990 3678 
Q 4247 3363 4386 2963 
Q 4525 2563 4525 2144 
Q 4525 1738 4384 1355 
Q 4244 972 3980 664 
Q 3716 356 3355 178 
Q 2994 0 2572 0 
L 213 0 
z
M 1447 428 
Q 1447 291 1525 258 
Q 1603 225 1772 225 
L 2406 225 
Q 2734 225 3029 367 
Q 3325 509 3519 763 
Q 3722 1031 3790 1364 
Q 3859 1697 3859 2144 
Q 3859 2609 3790 2959 
Q 3722 3309 3519 3584 
Q 3328 3856 3034 4001 
Q 2741 4147 2406 4147 
L 1772 4147 
Q 1656 4147 1592 4137 
Q 1528 4128 1487 4083 
Q 1447 4038 1447 3944 
L 1447 428 
z
" transform="scale(0.015625)"/>
       <path id="Cmr10-65" d="M 1594 -72 
Q 1203 -72 876 133 
Q 550 338 364 680 
Q 178 1022 178 1403 
Q 178 1778 348 2115 
Q 519 2453 823 2661 
Q 1128 2869 1503 2869 
Q 1797 2869 2014 2770 
Q 2231 2672 2372 2497 
Q 2513 2322 2584 2084 
Q 2656 1847 2656 1563 
Q 2656 1478 2591 1478 
L 738 1478 
L 738 1409 
Q 738 878 952 497 
Q 1166 116 1650 116 
Q 1847 116 2014 203 
Q 2181 291 2304 447 
Q 2428 603 2472 781 
Q 2478 803 2495 820 
Q 2513 838 2534 838 
L 2591 838 
Q 2656 838 2656 756 
Q 2566 394 2266 161 
Q 1966 -72 1594 -72 
z
M 744 1638 
L 2203 1638 
Q 2203 1878 2136 2125 
Q 2069 2372 1912 2536 
Q 1756 2700 1503 2700 
Q 1141 2700 942 2361 
Q 744 2022 744 1638 
z
" transform="scale(0.015625)"/>
      </defs>
      <use xlink:href="#Cmr10-33"/>
      <use xlink:href="#Cmr10-2e" x="50"/>
      <use xlink:href="#Cmr10-20" x="77.685547"/>
      <use xlink:href="#Cmr10-44" x="110.986328"/>
      <use xlink:href="#Cmr10-69" x="187.304688"/>
      <use xlink:href="#Cmr10-63" x="214.990234"/>
      <use xlink:href="#Cmr10-65" x="259.375"/>
      <use xlink:href="#Cmr10-4c" x="303.759766"/>
      <use xlink:href="#Cmr10-6f" x="366.259766"/>
      <use xlink:href="#Cmr10-73" x="416.259766"/>
      <use xlink:href="#Cmr10-73" x="455.664062"/>
     </g>
    </g>
    <g id="line2d_24">
     <path d="M 191.679844 172.310385 
L 204.679844 172.310385 
L 217.679844 172.310385 
" style="fill: none; stroke: #4363d8; stroke-width: 1.5; stroke-linecap: square"/>
    </g>
    <g id="text_20">
     <!-- 4. BCEDiceLoss -->
     <g transform="translate(228.079844 176.860385) scale(0.13 -0.13)">
      <use xlink:href="#Cmr10-34"/>
      <use xlink:href="#Cmr10-2e" x="50"/>
      <use xlink:href="#Cmr10-20" x="77.685547"/>
      <use xlink:href="#Cmr10-42" x="110.986328"/>
      <use xlink:href="#Cmr10-43" x="181.787109"/>
      <use xlink:href="#Cmr10-45" x="254.003906"/>
      <use xlink:href="#Cmr10-44" x="322.021484"/>
      <use xlink:href="#Cmr10-69" x="398.339844"/>
      <use xlink:href="#Cmr10-63" x="426.025391"/>
      <use xlink:href="#Cmr10-65" x="470.410156"/>
      <use xlink:href="#Cmr10-4c" x="514.794922"/>
      <use xlink:href="#Cmr10-6f" x="577.294922"/>
      <use xlink:href="#Cmr10-73" x="627.294922"/>
      <use xlink:href="#Cmr10-73" x="666.699219"/>
     </g>
    </g>
    <g id="line2d_25">
     <path d="M 191.679844 190.431166 
L 204.679844 190.431166 
L 217.679844 190.431166 
" style="fill: none; stroke: #000000; stroke-width: 1.5; stroke-linecap: square"/>
    </g>
    <g id="text_21">
     <!-- 5. FocalLoss -->
     <g transform="translate(228.079844 194.981166) scale(0.13 -0.13)">
      <defs>
       <path id="Cmr10-46" d="M 197 0 
L 197 225 
Q 856 225 856 428 
L 856 3944 
Q 856 4147 197 4147 
L 197 4372 
L 3725 4372 
L 3903 2906 
L 3719 2906 
Q 3675 3309 3601 3542 
Q 3528 3775 3387 3908 
Q 3247 4041 3011 4094 
Q 2775 4147 2363 4147 
L 1778 4147 
Q 1663 4147 1598 4137 
Q 1534 4128 1493 4083 
Q 1453 4038 1453 3944 
L 1453 2297 
L 1906 2297 
Q 2234 2297 2387 2355 
Q 2541 2413 2598 2566 
Q 2656 2719 2656 3047 
L 2841 3047 
L 2841 1325 
L 2656 1325 
Q 2656 1653 2598 1806 
Q 2541 1959 2387 2017 
Q 2234 2075 1906 2075 
L 1453 2075 
L 1453 428 
Q 1453 225 2272 225 
L 2272 0 
L 197 0 
z
" transform="scale(0.015625)"/>
       <path id="Cmr10-6c" d="M 197 0 
L 197 225 
Q 416 225 556 259 
Q 697 294 697 428 
L 697 3788 
Q 697 3959 645 4036 
Q 594 4113 497 4130 
Q 400 4147 197 4147 
L 197 4372 
L 1147 4441 
L 1147 428 
Q 1147 294 1287 259 
Q 1428 225 1644 225 
L 1644 0 
L 197 0 
z
" transform="scale(0.015625)"/>
      </defs>
      <use xlink:href="#Cmr10-35"/>
      <use xlink:href="#Cmr10-2e" x="50"/>
      <use xlink:href="#Cmr10-20" x="77.685547"/>
      <use xlink:href="#Cmr10-46" x="110.986328"/>
      <use xlink:href="#Cmr10-6f" x="176.171875"/>
      <use xlink:href="#Cmr10-63" x="226.171875"/>
      <use xlink:href="#Cmr10-61" x="270.556641"/>
      <use xlink:href="#Cmr10-6c" x="320.556641"/>
      <use xlink:href="#Cmr10-4c" x="348.242188"/>
      <use xlink:href="#Cmr10-6f" x="410.742188"/>
      <use xlink:href="#Cmr10-73" x="460.742188"/>
      <use xlink:href="#Cmr10-73" x="500.146484"/>
     </g>
    </g>
    <g id="line2d_26">
     <path d="M 191.679844 208.551947 
L 204.679844 208.551947 
L 217.679844 208.551947 
" style="fill: none; stroke: #e6194b; stroke-width: 1.5; stroke-linecap: square"/>
    </g>
    <g id="text_22">
     <!-- 6. JaccardLoss -->
     <g transform="translate(228.079844 213.101947) scale(0.13 -0.13)">
      <use xlink:href="#Cmr10-36"/>
      <use xlink:href="#Cmr10-2e" x="50"/>
      <use xlink:href="#Cmr10-20" x="77.685547"/>
      <use xlink:href="#Cmr10-4a" x="110.986328"/>
      <use xlink:href="#Cmr10-61" x="162.304688"/>
      <use xlink:href="#Cmr10-63" x="212.304688"/>
      <use xlink:href="#Cmr10-63" x="256.689453"/>
      <use xlink:href="#Cmr10-61" x="301.074219"/>
      <use xlink:href="#Cmr10-72" x="351.074219"/>
      <use xlink:href="#Cmr10-64" x="390.185547"/>
      <use xlink:href="#Cmr10-4c" x="445.703125"/>
      <use xlink:href="#Cmr10-6f" x="508.203125"/>
      <use xlink:href="#Cmr10-73" x="558.203125"/>
      <use xlink:href="#Cmr10-73" x="597.607422"/>
     </g>
    </g>
    <g id="line2d_27">
     <path d="M 191.679844 226.672729 
L 204.679844 226.672729 
L 217.679844 226.672729 
" style="fill: none; stroke: #46f0f0; stroke-width: 1.5; stroke-linecap: square"/>
    </g>
    <g id="text_23">
     <!-- 7. BinaryLovaszLoss -->
     <g transform="translate(228.079844 231.222729) scale(0.13 -0.13)">
      <defs>
       <path id="Cmr10-37" d="M 1113 166 
Q 1113 522 1175 862 
Q 1238 1203 1358 1536 
Q 1478 1869 1648 2189 
Q 1819 2509 2022 2791 
L 2606 3603 
L 1875 3603 
Q 738 3603 703 3572 
Q 619 3469 544 2981 
L 359 2981 
L 569 4325 
L 756 4325 
L 756 4306 
Q 756 4191 1147 4156 
Q 1538 4122 1913 4122 
L 3103 4122 
L 3103 3956 
Q 3103 3950 3101 3947 
Q 3100 3944 3097 3938 
L 2216 2700 
Q 1891 2219 1809 1631 
Q 1728 1044 1728 166 
Q 1728 41 1637 -50 
Q 1547 -141 1422 -141 
Q 1294 -141 1203 -50 
Q 1113 41 1113 166 
z
" transform="scale(0.015625)"/>
       <path id="Cmr10-79" d="M 441 -1050 
Q 563 -1147 709 -1147 
Q 1113 -1147 1369 -538 
L 1588 0 
L 628 2350 
Q 569 2469 447 2501 
Q 325 2534 122 2534 
L 122 2759 
L 1466 2759 
L 1466 2534 
Q 1113 2534 1113 2381 
Q 1113 2356 1119 2344 
L 1831 594 
L 2472 2169 
Q 2491 2219 2491 2278 
Q 2491 2356 2448 2414 
Q 2406 2472 2339 2503 
Q 2272 2534 2188 2534 
L 2188 2759 
L 3250 2759 
L 3250 2534 
Q 3053 2534 2904 2443 
Q 2756 2353 2675 2175 
L 1569 -538 
Q 1481 -744 1364 -917 
Q 1247 -1091 1078 -1202 
Q 909 -1313 709 -1313 
Q 475 -1313 298 -1158 
Q 122 -1003 122 -775 
Q 122 -656 203 -575 
Q 284 -494 403 -494 
Q 484 -494 548 -530 
Q 613 -566 648 -628 
Q 684 -691 684 -775 
Q 684 -878 615 -959 
Q 547 -1041 441 -1050 
z
" transform="scale(0.015625)"/>
       <path id="Cmr10-76" d="M 1563 0 
L 628 2350 
Q 569 2469 445 2501 
Q 322 2534 122 2534 
L 122 2759 
L 1466 2759 
L 1466 2534 
Q 1106 2534 1106 2381 
Q 1106 2356 1113 2344 
L 1831 538 
L 2478 2169 
Q 2497 2219 2497 2272 
Q 2497 2394 2405 2464 
Q 2313 2534 2188 2534 
L 2188 2759 
L 3250 2759 
L 3250 2534 
Q 3053 2534 2904 2443 
Q 2756 2353 2675 2175 
L 1813 0 
Q 1788 -72 1709 -72 
L 1663 -72 
Q 1584 -72 1563 0 
z
" transform="scale(0.015625)"/>
       <path id="Cmr10-7a" d="M 250 0 
Q 178 0 178 72 
L 178 122 
Q 178 147 197 166 
L 1984 2591 
L 1409 2591 
Q 1138 2591 961 2556 
Q 784 2522 670 2426 
Q 556 2331 504 2164 
Q 453 1997 453 1703 
L 269 1703 
L 341 2759 
L 2484 2759 
Q 2513 2759 2533 2739 
Q 2553 2719 2553 2688 
L 2553 2650 
Q 2553 2631 2541 2606 
L 750 184 
L 1363 184 
Q 1641 184 1827 218 
Q 2013 253 2144 384 
Q 2266 506 2311 712 
Q 2356 919 2381 1222 
L 2566 1222 
L 2456 0 
L 250 0 
z
" transform="scale(0.015625)"/>
      </defs>
      <use xlink:href="#Cmr10-37"/>
      <use xlink:href="#Cmr10-2e" x="50"/>
      <use xlink:href="#Cmr10-20" x="77.685547"/>
      <use xlink:href="#Cmr10-42" x="110.986328"/>
      <use xlink:href="#Cmr10-69" x="181.787109"/>
      <use xlink:href="#Cmr10-6e" x="209.472656"/>
      <use xlink:href="#Cmr10-61" x="264.990234"/>
      <use xlink:href="#Cmr10-72" x="314.990234"/>
      <use xlink:href="#Cmr10-79" x="354.101562"/>
      <use xlink:href="#Cmr10-4c" x="406.787109"/>
      <use xlink:href="#Cmr10-6f" x="469.287109"/>
      <use xlink:href="#Cmr10-76" x="519.287109"/>
      <use xlink:href="#Cmr10-61" x="571.972656"/>
      <use xlink:href="#Cmr10-73" x="621.972656"/>
      <use xlink:href="#Cmr10-7a" x="661.376953"/>
      <use xlink:href="#Cmr10-4c" x="705.761719"/>
      <use xlink:href="#Cmr10-6f" x="768.261719"/>
      <use xlink:href="#Cmr10-73" x="818.261719"/>
      <use xlink:href="#Cmr10-73" x="857.666016"/>
     </g>
    </g>
   </g>
  </g>
  <g id="axes_2">
   <g id="patch_8">
    <path d="M 417.235 245.58976 
L 716.99976 245.58976 
L 716.99976 3.00024 
L 417.235 3.00024 
z
" style="fill: #ffffff"/>
   </g>
   <g id="matplotlib.axis_3">
    <g id="xtick_8">
     <g id="line2d_28">
      <g>
       <use xlink:href="#m60ece80fbd" x="430.860671" y="245.58976" style="stroke: #000000; stroke-width: 0.8"/>
      </g>
     </g>
     <g id="text_24">
      <!-- 0 -->
      <g transform="translate(426.860671 263.69226) scale(0.16 -0.16)">
       <use xlink:href="#Cmr10-30"/>
      </g>
     </g>
    </g>
    <g id="xtick_9">
     <g id="line2d_29">
      <g>
       <use xlink:href="#m60ece80fbd" x="473.889105" y="245.58976" style="stroke: #000000; stroke-width: 0.8"/>
      </g>
     </g>
     <g id="text_25">
      <!-- 3 -->
      <g transform="translate(469.889105 263.69226) scale(0.16 -0.16)">
       <use xlink:href="#Cmr10-33"/>
      </g>
     </g>
    </g>
    <g id="xtick_10">
     <g id="line2d_30">
      <g>
       <use xlink:href="#m60ece80fbd" x="516.91754" y="245.58976" style="stroke: #000000; stroke-width: 0.8"/>
      </g>
     </g>
     <g id="text_26">
      <!-- 6 -->
      <g transform="translate(512.91754 263.69226) scale(0.16 -0.16)">
       <use xlink:href="#Cmr10-36"/>
      </g>
     </g>
    </g>
    <g id="xtick_11">
     <g id="line2d_31">
      <g>
       <use xlink:href="#m60ece80fbd" x="559.945974" y="245.58976" style="stroke: #000000; stroke-width: 0.8"/>
      </g>
     </g>
     <g id="text_27">
      <!-- 9 -->
      <g transform="translate(555.945974 263.69226) scale(0.16 -0.16)">
       <use xlink:href="#Cmr10-39"/>
      </g>
     </g>
    </g>
    <g id="xtick_12">
     <g id="line2d_32">
      <g>
       <use xlink:href="#m60ece80fbd" x="602.974409" y="245.58976" style="stroke: #000000; stroke-width: 0.8"/>
      </g>
     </g>
     <g id="text_28">
      <!-- 12 -->
      <g transform="translate(594.974409 263.69226) scale(0.16 -0.16)">
       <use xlink:href="#Cmr10-31"/>
       <use xlink:href="#Cmr10-32" x="50"/>
      </g>
     </g>
    </g>
    <g id="xtick_13">
     <g id="line2d_33">
      <g>
       <use xlink:href="#m60ece80fbd" x="646.002843" y="245.58976" style="stroke: #000000; stroke-width: 0.8"/>
      </g>
     </g>
     <g id="text_29">
      <!-- 15 -->
      <g transform="translate(638.002843 263.69226) scale(0.16 -0.16)">
       <use xlink:href="#Cmr10-31"/>
       <use xlink:href="#Cmr10-35" x="50"/>
      </g>
     </g>
    </g>
    <g id="xtick_14">
     <g id="line2d_34">
      <g>
       <use xlink:href="#m60ece80fbd" x="689.031278" y="245.58976" style="stroke: #000000; stroke-width: 0.8"/>
      </g>
     </g>
     <g id="text_30">
      <!-- 18 -->
      <g transform="translate(681.031278 263.69226) scale(0.16 -0.16)">
       <use xlink:href="#Cmr10-31"/>
       <use xlink:href="#Cmr10-38" x="50"/>
      </g>
     </g>
    </g>
    <g id="text_31">
     <!-- Epoch -->
     <g transform="translate(545.24238 281.89726) scale(0.16 -0.16)">
      <use xlink:href="#Cmr10-45"/>
      <use xlink:href="#Cmr10-70" x="68.017578"/>
      <use xlink:href="#Cmr10-6f" x="123.535156"/>
      <use xlink:href="#Cmr10-63" x="173.535156"/>
      <use xlink:href="#Cmr10-68" x="217.919922"/>
     </g>
    </g>
   </g>
   <g id="matplotlib.axis_4">
    <g id="ytick_7">
     <g id="line2d_35">
      <g>
       <use xlink:href="#m0d43e7fb98" x="417.235" y="244.822631" style="stroke: #000000; stroke-width: 0.8"/>
      </g>
     </g>
     <g id="text_32">
      <!-- 0.86 -->
      <g transform="translate(381.805 250.373881) scale(0.16 -0.16)">
       <use xlink:href="#Cmr10-30"/>
       <use xlink:href="#Cmr10-2e" x="50"/>
       <use xlink:href="#Cmr10-38" x="77.685547"/>
       <use xlink:href="#Cmr10-36" x="127.685547"/>
      </g>
     </g>
    </g>
    <g id="ytick_8">
     <g id="line2d_36">
      <g>
       <use xlink:href="#m0d43e7fb98" x="417.235" y="203.609351" style="stroke: #000000; stroke-width: 0.8"/>
      </g>
     </g>
     <g id="text_33">
      <!-- 0.88 -->
      <g transform="translate(381.805 209.160601) scale(0.16 -0.16)">
       <use xlink:href="#Cmr10-30"/>
       <use xlink:href="#Cmr10-2e" x="50"/>
       <use xlink:href="#Cmr10-38" x="77.685547"/>
       <use xlink:href="#Cmr10-38" x="127.685547"/>
      </g>
     </g>
    </g>
    <g id="ytick_9">
     <g id="line2d_37">
      <g>
       <use xlink:href="#m0d43e7fb98" x="417.235" y="162.396071" style="stroke: #000000; stroke-width: 0.8"/>
      </g>
     </g>
     <g id="text_34">
      <!-- 0.90 -->
      <g transform="translate(381.805 167.947321) scale(0.16 -0.16)">
       <use xlink:href="#Cmr10-30"/>
       <use xlink:href="#Cmr10-2e" x="50"/>
       <use xlink:href="#Cmr10-39" x="77.685547"/>
       <use xlink:href="#Cmr10-30" x="127.685547"/>
      </g>
     </g>
    </g>
    <g id="ytick_10">
     <g id="line2d_38">
      <g>
       <use xlink:href="#m0d43e7fb98" x="417.235" y="121.182791" style="stroke: #000000; stroke-width: 0.8"/>
      </g>
     </g>
     <g id="text_35">
      <!-- 0.92 -->
      <g transform="translate(381.805 126.734041) scale(0.16 -0.16)">
       <use xlink:href="#Cmr10-30"/>
       <use xlink:href="#Cmr10-2e" x="50"/>
       <use xlink:href="#Cmr10-39" x="77.685547"/>
       <use xlink:href="#Cmr10-32" x="127.685547"/>
      </g>
     </g>
    </g>
    <g id="ytick_11">
     <g id="line2d_39">
      <g>
       <use xlink:href="#m0d43e7fb98" x="417.235" y="79.969511" style="stroke: #000000; stroke-width: 0.8"/>
      </g>
     </g>
     <g id="text_36">
      <!-- 0.94 -->
      <g transform="translate(381.805 85.520761) scale(0.16 -0.16)">
       <use xlink:href="#Cmr10-30"/>
       <use xlink:href="#Cmr10-2e" x="50"/>
       <use xlink:href="#Cmr10-39" x="77.685547"/>
       <use xlink:href="#Cmr10-34" x="127.685547"/>
      </g>
     </g>
    </g>
    <g id="ytick_12">
     <g id="line2d_40">
      <g>
       <use xlink:href="#m0d43e7fb98" x="417.235" y="38.75623" style="stroke: #000000; stroke-width: 0.8"/>
      </g>
     </g>
     <g id="text_37">
      <!-- 0.96 -->
      <g transform="translate(381.805 44.30748) scale(0.16 -0.16)">
       <use xlink:href="#Cmr10-30"/>
       <use xlink:href="#Cmr10-2e" x="50"/>
       <use xlink:href="#Cmr10-39" x="77.685547"/>
       <use xlink:href="#Cmr10-36" x="127.685547"/>
      </g>
     </g>
    </g>
    <g id="text_38">
     <!-- Val IoU -->
     <g transform="translate(374.7025 152.06) rotate(-90) scale(0.16 -0.16)">
      <defs>
       <path id="Cmr10-56" d="M 2253 -72 
L 744 3944 
Q 688 4078 528 4112 
Q 369 4147 122 4147 
L 122 4372 
L 1881 4372 
L 1881 4147 
Q 1350 4147 1350 3981 
Q 1353 3972 1354 3964 
Q 1356 3956 1356 3944 
L 2584 678 
L 3744 3769 
Q 3756 3794 3756 3847 
Q 3756 4003 3612 4075 
Q 3469 4147 3291 4147 
L 3291 4372 
L 4672 4372 
L 4672 4147 
Q 4431 4147 4248 4058 
Q 4066 3969 3988 3769 
L 2541 -72 
Q 2522 -141 2438 -141 
L 2356 -141 
Q 2272 -141 2253 -72 
z
" transform="scale(0.015625)"/>
      </defs>
      <use xlink:href="#Cmr10-56"/>
      <use xlink:href="#Cmr10-61" x="75"/>
      <use xlink:href="#Cmr10-6c" x="125"/>
      <use xlink:href="#Cmr10-20" x="152.685547"/>
      <use xlink:href="#Cmr10-49" x="185.986328"/>
      <use xlink:href="#Cmr10-6f" x="222.070312"/>
      <use xlink:href="#Cmr10-55" x="272.070312"/>
     </g>
    </g>
   </g>
   <g id="line2d_41">
    <path d="M 430.860671 136.018105 
L 445.203482 100.75896 
L 459.546294 68.973497 
L 473.889105 60.927724 
L 488.231917 58.314102 
L 502.574728 53.577819 
L 516.91754 45.157876 
L 531.260351 47.255721 
L 545.603163 37.998551 
L 559.945974 46.19272 
L 574.288786 36.078363 
L 588.631597 31.513143 
L 602.974409 26.435404 
L 617.31722 23.556855 
L 631.660032 27.937192 
L 646.002843 21.643526 
L 660.345655 18.430367 
L 674.688466 21.840693 
L 689.031278 14.027036 
L 703.374089 20.305158 
" clip-path="url(#p0d0bc95007)" style="fill: none; stroke: #e6194b; stroke-width: 1.5; stroke-linecap: square"/>
   </g>
   <g id="line2d_42">
    <path d="M 430.860671 150.634908 
L 445.203482 97.696435 
L 459.546294 79.778066 
L 473.889105 59.354565 
L 488.231917 62.359986 
L 502.574728 46.714386 
L 516.91754 54.403385 
L 531.260351 46.118739 
L 545.603163 35.768769 
L 559.945974 29.081935 
L 574.288786 28.804888 
L 588.631597 26.514308 
L 602.974409 27.78081 
L 617.31722 23.336005 
L 631.660032 22.502773 
L 646.002843 21.861108 
L 660.345655 18.412208 
L 674.688466 17.041726 
L 689.031278 16.429646 
L 703.374089 14.104277 
" clip-path="url(#p0d0bc95007)" style="fill: none; stroke: #000075; stroke-width: 1.5; stroke-linecap: square"/>
   </g>
   <g id="line2d_43">
    <path d="M 430.860671 140.857876 
L 445.203482 93.861757 
L 459.546294 73.489517 
L 473.889105 69.747663 
L 488.231917 65.329092 
L 502.574728 55.384966 
L 516.91754 45.710162 
L 531.260351 38.785234 
L 545.603163 36.409306 
L 559.945974 31.559225 
L 574.288786 26.147604 
L 588.631597 34.444121 
L 602.974409 29.017647 
L 617.31722 21.487827 
L 631.660032 22.676468 
L 646.002843 17.607807 
L 660.345655 19.115551 
L 674.688466 18.537412 
L 689.031278 14.329479 
L 703.374089 14.276195 
" clip-path="url(#p0d0bc95007)" style="fill: none; stroke: #f58231; stroke-width: 1.5; stroke-linecap: square"/>
   </g>
   <g id="line2d_44">
    <path d="M 430.860671 135.508066 
L 445.203482 97.691857 
L 459.546294 73.772859 
L 473.889105 64.047808 
L 488.231917 59.598562 
L 502.574728 46.256895 
L 516.91754 41.969597 
L 531.260351 43.752179 
L 545.603163 37.213551 
L 559.945974 36.707252 
L 574.288786 34.120912 
L 588.631597 33.188331 
L 602.974409 27.495454 
L 617.31722 21.967946 
L 631.660032 22.498261 
L 646.002843 35.662401 
L 660.345655 15.855595 
L 674.688466 15.919125 
L 689.031278 14.774053 
L 703.374089 18.595658 
" clip-path="url(#p0d0bc95007)" style="fill: none; stroke: #3cb44b; stroke-width: 1.5; stroke-linecap: square"/>
   </g>
   <g id="line2d_45">
    <path d="M 430.860671 149.131423 
L 445.203482 98.217343 
L 459.546294 73.526812 
L 473.889105 62.182057 
L 488.231917 56.970562 
L 502.574728 58.6076 
L 516.91754 44.558498 
L 531.260351 39.190181 
L 545.603163 39.616094 
L 559.945974 30.681974 
L 574.288786 30.555226 
L 588.631597 27.000024 
L 602.974409 28.122108 
L 617.31722 27.102723 
L 631.660032 21.79831 
L 646.002843 24.929236 
L 660.345655 25.902891 
L 674.688466 15.426986 
L 689.031278 16.314076 
L 703.374089 17.365196 
" clip-path="url(#p0d0bc95007)" style="fill: none; stroke: #4363d8; stroke-width: 1.5; stroke-linecap: square"/>
   </g>
   <g id="line2d_46">
    <path d="M 430.860671 141.676414 
L 445.203482 93.365039 
L 459.546294 76.809283 
L 473.889105 70.184668 
L 488.231917 63.095518 
L 502.574728 51.413949 
L 516.91754 46.213757 
L 531.260351 42.077972 
L 545.603163 36.473997 
L 559.945974 45.228816 
L 574.288786 40.190125 
L 588.631597 28.660427 
L 602.974409 27.288669 
L 617.31722 23.047502 
L 631.660032 23.073617 
L 646.002843 20.043128 
L 660.345655 25.953537 
L 674.688466 18.404591 
L 689.031278 19.671622 
L 703.374089 19.015101 
" clip-path="url(#p0d0bc95007)" style="fill: none; stroke: #000000; stroke-width: 1.5; stroke-linecap: square"/>
   </g>
   <g id="line2d_47">
    <path d="M 430.860671 234.562964 
L 445.203482 168.593995 
L 459.546294 148.720455 
L 473.889105 102.963291 
L 488.231917 100.722388 
L 502.574728 108.462676 
L 516.91754 98.902868 
L 531.260351 87.916738 
L 545.603163 55.444574 
L 559.945974 91.173959 
L 574.288786 75.115779 
L 588.631597 62.66489 
L 602.974409 55.805206 
L 617.31722 40.49205 
L 631.660032 45.804911 
L 646.002843 52.535874 
L 660.345655 48.446942 
L 674.688466 51.457242 
L 689.031278 46.508853 
L 703.374089 43.744593 
" clip-path="url(#p0d0bc95007)" style="fill: none; stroke: #46f0f0; stroke-width: 1.5; stroke-linecap: square"/>
   </g>
   <g id="patch_9">
    <path d="M 417.235 245.58976 
L 417.235 3.00024 
" style="fill: none; stroke: #000000; stroke-width: 0.8; stroke-linejoin: miter; stroke-linecap: square"/>
   </g>
   <g id="patch_10">
    <path d="M 716.99976 245.58976 
L 716.99976 3.00024 
" style="fill: none; stroke: #000000; stroke-width: 0.8; stroke-linejoin: miter; stroke-linecap: square"/>
   </g>
   <g id="patch_11">
    <path d="M 417.235 245.58976 
L 716.99976 245.58976 
" style="fill: none; stroke: #000000; stroke-width: 0.8; stroke-linejoin: miter; stroke-linecap: square"/>
   </g>
   <g id="patch_12">
    <path d="M 417.235 3.00024 
L 716.99976 3.00024 
" style="fill: none; stroke: #000000; stroke-width: 0.8; stroke-linejoin: miter; stroke-linecap: square"/>
   </g>
   <g id="text_39">
    <!-- B -->
    <g transform="translate(422.145903 26.194454) scale(0.2 -0.2)">
     <use xlink:href="#Cmr10-42"/>
    </g>
   </g>
   <g id="legend_2">
    <g id="patch_13">
     <path d="M 549.679604 239.08976 
L 707.89976 239.08976 
Q 710.49976 239.08976 710.49976 236.48976 
L 710.49976 110.798041 
Q 710.49976 108.198041 707.89976 108.198041 
L 549.679604 108.198041 
Q 547.079604 108.198041 547.079604 110.798041 
L 547.079604 236.48976 
Q 547.079604 239.08976 549.679604 239.08976 
z
" style="fill: #ffffff; opacity: 0.8; stroke: #cccccc; stroke-linejoin: miter"/>
    </g>
    <g id="line2d_48">
     <path d="M 552.279604 117.948041 
L 565.279604 117.948041 
L 578.279604 117.948041 
" style="fill: none; stroke: #e6194b; stroke-width: 1.5; stroke-linecap: square"/>
    </g>
    <g id="text_40">
     <!-- 1. JaccardLoss -->
     <g transform="translate(588.679604 122.498041) scale(0.13 -0.13)">
      <use xlink:href="#Cmr10-31"/>
      <use xlink:href="#Cmr10-2e" x="50"/>
      <use xlink:href="#Cmr10-20" x="77.685547"/>
      <use xlink:href="#Cmr10-4a" x="110.986328"/>
      <use xlink:href="#Cmr10-61" x="162.304688"/>
      <use xlink:href="#Cmr10-63" x="212.304688"/>
      <use xlink:href="#Cmr10-63" x="256.689453"/>
      <use xlink:href="#Cmr10-61" x="301.074219"/>
      <use xlink:href="#Cmr10-72" x="351.074219"/>
      <use xlink:href="#Cmr10-64" x="390.185547"/>
      <use xlink:href="#Cmr10-4c" x="445.703125"/>
      <use xlink:href="#Cmr10-6f" x="508.203125"/>
      <use xlink:href="#Cmr10-73" x="558.203125"/>
      <use xlink:href="#Cmr10-73" x="597.607422"/>
     </g>
    </g>
    <g id="line2d_49">
     <path d="M 552.279604 136.068823 
L 565.279604 136.068823 
L 578.279604 136.068823 
" style="fill: none; stroke: #000075; stroke-width: 1.5; stroke-linecap: square"/>
    </g>
    <g id="text_41">
     <!-- 2. BCEJaccardLoss -->
     <g transform="translate(588.679604 140.618823) scale(0.13 -0.13)">
      <use xlink:href="#Cmr10-32"/>
      <use xlink:href="#Cmr10-2e" x="50"/>
      <use xlink:href="#Cmr10-20" x="77.685547"/>
      <use xlink:href="#Cmr10-42" x="110.986328"/>
      <use xlink:href="#Cmr10-43" x="181.787109"/>
      <use xlink:href="#Cmr10-45" x="254.003906"/>
      <use xlink:href="#Cmr10-4a" x="322.021484"/>
      <use xlink:href="#Cmr10-61" x="373.339844"/>
      <use xlink:href="#Cmr10-63" x="423.339844"/>
      <use xlink:href="#Cmr10-63" x="467.724609"/>
      <use xlink:href="#Cmr10-61" x="512.109375"/>
      <use xlink:href="#Cmr10-72" x="562.109375"/>
      <use xlink:href="#Cmr10-64" x="601.220703"/>
      <use xlink:href="#Cmr10-4c" x="656.738281"/>
      <use xlink:href="#Cmr10-6f" x="719.238281"/>
      <use xlink:href="#Cmr10-73" x="769.238281"/>
      <use xlink:href="#Cmr10-73" x="808.642578"/>
     </g>
    </g>
    <g id="line2d_50">
     <path d="M 552.279604 154.189604 
L 565.279604 154.189604 
L 578.279604 154.189604 
" style="fill: none; stroke: #f58231; stroke-width: 1.5; stroke-linecap: square"/>
    </g>
    <g id="text_42">
     <!-- 3. BCELoss -->
     <g transform="translate(588.679604 158.739604) scale(0.13 -0.13)">
      <use xlink:href="#Cmr10-33"/>
      <use xlink:href="#Cmr10-2e" x="50"/>
      <use xlink:href="#Cmr10-20" x="77.685547"/>
      <use xlink:href="#Cmr10-42" x="110.986328"/>
      <use xlink:href="#Cmr10-43" x="181.787109"/>
      <use xlink:href="#Cmr10-45" x="254.003906"/>
      <use xlink:href="#Cmr10-4c" x="322.021484"/>
      <use xlink:href="#Cmr10-6f" x="384.521484"/>
      <use xlink:href="#Cmr10-73" x="434.521484"/>
      <use xlink:href="#Cmr10-73" x="473.925781"/>
     </g>
    </g>
    <g id="line2d_51">
     <path d="M 552.279604 172.310385 
L 565.279604 172.310385 
L 578.279604 172.310385 
" style="fill: none; stroke: #3cb44b; stroke-width: 1.5; stroke-linecap: square"/>
    </g>
    <g id="text_43">
     <!-- 4. DiceLoss -->
     <g transform="translate(588.679604 176.860385) scale(0.13 -0.13)">
      <use xlink:href="#Cmr10-34"/>
      <use xlink:href="#Cmr10-2e" x="50"/>
      <use xlink:href="#Cmr10-20" x="77.685547"/>
      <use xlink:href="#Cmr10-44" x="110.986328"/>
      <use xlink:href="#Cmr10-69" x="187.304688"/>
      <use xlink:href="#Cmr10-63" x="214.990234"/>
      <use xlink:href="#Cmr10-65" x="259.375"/>
      <use xlink:href="#Cmr10-4c" x="303.759766"/>
      <use xlink:href="#Cmr10-6f" x="366.259766"/>
      <use xlink:href="#Cmr10-73" x="416.259766"/>
      <use xlink:href="#Cmr10-73" x="455.664062"/>
     </g>
    </g>
    <g id="line2d_52">
     <path d="M 552.279604 190.431166 
L 565.279604 190.431166 
L 578.279604 190.431166 
" style="fill: none; stroke: #4363d8; stroke-width: 1.5; stroke-linecap: square"/>
    </g>
    <g id="text_44">
     <!-- 5. BCEDiceLoss -->
     <g transform="translate(588.679604 194.981166) scale(0.13 -0.13)">
      <use xlink:href="#Cmr10-35"/>
      <use xlink:href="#Cmr10-2e" x="50"/>
      <use xlink:href="#Cmr10-20" x="77.685547"/>
      <use xlink:href="#Cmr10-42" x="110.986328"/>
      <use xlink:href="#Cmr10-43" x="181.787109"/>
      <use xlink:href="#Cmr10-45" x="254.003906"/>
      <use xlink:href="#Cmr10-44" x="322.021484"/>
      <use xlink:href="#Cmr10-69" x="398.339844"/>
      <use xlink:href="#Cmr10-63" x="426.025391"/>
      <use xlink:href="#Cmr10-65" x="470.410156"/>
      <use xlink:href="#Cmr10-4c" x="514.794922"/>
      <use xlink:href="#Cmr10-6f" x="577.294922"/>
      <use xlink:href="#Cmr10-73" x="627.294922"/>
      <use xlink:href="#Cmr10-73" x="666.699219"/>
     </g>
    </g>
    <g id="line2d_53">
     <path d="M 552.279604 208.551947 
L 565.279604 208.551947 
L 578.279604 208.551947 
" style="fill: none; stroke: #000000; stroke-width: 1.5; stroke-linecap: square"/>
    </g>
    <g id="text_45">
     <!-- 6. FocalLoss -->
     <g transform="translate(588.679604 213.101947) scale(0.13 -0.13)">
      <use xlink:href="#Cmr10-36"/>
      <use xlink:href="#Cmr10-2e" x="50"/>
      <use xlink:href="#Cmr10-20" x="77.685547"/>
      <use xlink:href="#Cmr10-46" x="110.986328"/>
      <use xlink:href="#Cmr10-6f" x="176.171875"/>
      <use xlink:href="#Cmr10-63" x="226.171875"/>
      <use xlink:href="#Cmr10-61" x="270.556641"/>
      <use xlink:href="#Cmr10-6c" x="320.556641"/>
      <use xlink:href="#Cmr10-4c" x="348.242188"/>
      <use xlink:href="#Cmr10-6f" x="410.742188"/>
      <use xlink:href="#Cmr10-73" x="460.742188"/>
      <use xlink:href="#Cmr10-73" x="500.146484"/>
     </g>
    </g>
    <g id="line2d_54">
     <path d="M 552.279604 226.672729 
L 565.279604 226.672729 
L 578.279604 226.672729 
" style="fill: none; stroke: #46f0f0; stroke-width: 1.5; stroke-linecap: square"/>
    </g>
    <g id="text_46">
     <!-- 7. BinaryLovaszLoss -->
     <g transform="translate(588.679604 231.222729) scale(0.13 -0.13)">
      <use xlink:href="#Cmr10-37"/>
      <use xlink:href="#Cmr10-2e" x="50"/>
      <use xlink:href="#Cmr10-20" x="77.685547"/>
      <use xlink:href="#Cmr10-42" x="110.986328"/>
      <use xlink:href="#Cmr10-69" x="181.787109"/>
      <use xlink:href="#Cmr10-6e" x="209.472656"/>
      <use xlink:href="#Cmr10-61" x="264.990234"/>
      <use xlink:href="#Cmr10-72" x="314.990234"/>
      <use xlink:href="#Cmr10-79" x="354.101562"/>
      <use xlink:href="#Cmr10-4c" x="406.787109"/>
      <use xlink:href="#Cmr10-6f" x="469.287109"/>
      <use xlink:href="#Cmr10-76" x="519.287109"/>
      <use xlink:href="#Cmr10-61" x="571.972656"/>
      <use xlink:href="#Cmr10-73" x="621.972656"/>
      <use xlink:href="#Cmr10-7a" x="661.376953"/>
      <use xlink:href="#Cmr10-4c" x="705.761719"/>
      <use xlink:href="#Cmr10-6f" x="768.261719"/>
      <use xlink:href="#Cmr10-73" x="818.261719"/>
      <use xlink:href="#Cmr10-73" x="857.666016"/>
     </g>
    </g>
   </g>
  </g>
 </g>
 <defs>
  <clipPath id="p1ba902ebde">
   <rect x="56.63524" y="3.00024" width="299.76476" height="242.58952"/>
  </clipPath>
  <clipPath id="p0d0bc95007">
   <rect x="417.235" y="3.00024" width="299.76476" height="242.58952"/>
  </clipPath>
 </defs>
</svg>
