<?xml version="1.0" encoding="utf-8" standalone="no"?>
<!DOCTYPE svg PUBLIC "-//W3C//DTD SVG 1.1//EN"
  "http://www.w3.org/Graphics/SVG/1.1/DTD/svg11.dtd">
<svg xmlns:xlink="http://www.w3.org/1999/xlink" width="720pt" height="432pt" viewBox="0 0 720 432" xmlns="http://www.w3.org/2000/svg" version="1.1">
 <metadata>
  <rdf:RDF xmlns:dc="http://purl.org/dc/elements/1.1/" xmlns:cc="http://creativecommons.org/ns#" xmlns:rdf="http://www.w3.org/1999/02/22-rdf-syntax-ns#">
   <cc:Work>
    <dc:type rdf:resource="http://purl.org/dc/dcmitype/StillImage"/>
    <dc:date>2024-06-03T17:28:04.038239</dc:date>
    <dc:format>image/svg+xml</dc:format>
    <dc:creator>
     <cc:Agent>
      <dc:title>Matplotlib v3.8.0, https://matplotlib.org/</dc:title>
     </cc:Agent>
    </dc:creator>
   </cc:Work>
  </rdf:RDF>
 </metadata>
 <defs>
  <style type="text/css">*{stroke-linejoin: round; stroke-linecap: butt}</style>
 </defs>
 <g id="figure_1">
  <g id="patch_1">
   <path d="M 0 432 
L 720 432 
L 720 0 
L 0 0 
z
" style="fill: #ffffff"/>
  </g>
  <g id="axes_1">
   <g id="patch_2">
    <path d="M 40.647115 184.24351 
L 356.4 184.24351 
L 356.4 17.327115 
L 40.647115 17.327115 
z
" style="fill: #ffffff"/>
   </g>
   <g id="matplotlib.axis_1">
    <g id="xtick_1">
     <g id="line2d_1">
      <defs>
       <path id="m7664583fc1" d="M 0 0 
L 0 3.5 
" style="stroke: #000000; stroke-width: 0.8"/>
      </defs>
      <g>
       <use xlink:href="#m7664583fc1" x="54.999519" y="184.24351" style="stroke: #000000; stroke-width: 0.8"/>
      </g>
     </g>
     <g id="text_1">
      <!-- 0 -->
      <g transform="translate(52.499519 198.182572) scale(0.1 -0.1)">
       <defs>
        <path id="Cmr10-30" d="M 1600 -141 
Q 816 -141 533 504 
Q 250 1150 250 2041 
Q 250 2597 351 3087 
Q 453 3578 754 3920 
Q 1056 4263 1600 4263 
Q 2022 4263 2290 4056 
Q 2559 3850 2700 3523 
Q 2841 3197 2892 2823 
Q 2944 2450 2944 2041 
Q 2944 1491 2842 1011 
Q 2741 531 2444 195 
Q 2147 -141 1600 -141 
z
M 1600 25 
Q 1956 25 2131 390 
Q 2306 756 2347 1200 
Q 2388 1644 2388 2144 
Q 2388 2625 2347 3031 
Q 2306 3438 2132 3767 
Q 1959 4097 1600 4097 
Q 1238 4097 1063 3765 
Q 888 3434 847 3029 
Q 806 2625 806 2144 
Q 806 1788 823 1472 
Q 841 1156 916 820 
Q 991 484 1158 254 
Q 1325 25 1600 25 
z
" transform="scale(0.015625)"/>
       </defs>
       <use xlink:href="#Cmr10-30"/>
      </g>
     </g>
    </g>
    <g id="xtick_2">
     <g id="line2d_2">
      <g>
       <use xlink:href="#m7664583fc1" x="100.322899" y="184.24351" style="stroke: #000000; stroke-width: 0.8"/>
      </g>
     </g>
     <g id="text_2">
      <!-- 3 -->
      <g transform="translate(97.822899 198.182572) scale(0.1 -0.1)">
       <defs>
        <path id="Cmr10-33" d="M 609 494 
Q 759 275 1012 169 
Q 1266 63 1556 63 
Q 1928 63 2084 380 
Q 2241 697 2241 1100 
Q 2241 1281 2208 1462 
Q 2175 1644 2097 1800 
Q 2019 1956 1883 2050 
Q 1747 2144 1550 2144 
L 1125 2144 
Q 1069 2144 1069 2203 
L 1069 2259 
Q 1069 2309 1125 2309 
L 1478 2338 
Q 1703 2338 1851 2506 
Q 2000 2675 2069 2917 
Q 2138 3159 2138 3378 
Q 2138 3684 1994 3881 
Q 1850 4078 1556 4078 
Q 1313 4078 1091 3986 
Q 869 3894 738 3706 
Q 750 3709 759 3711 
Q 769 3713 781 3713 
Q 925 3713 1022 3613 
Q 1119 3513 1119 3372 
Q 1119 3234 1022 3134 
Q 925 3034 781 3034 
Q 641 3034 541 3134 
Q 441 3234 441 3372 
Q 441 3647 606 3850 
Q 772 4053 1033 4158 
Q 1294 4263 1556 4263 
Q 1750 4263 1965 4205 
Q 2181 4147 2356 4039 
Q 2531 3931 2642 3762 
Q 2753 3594 2753 3378 
Q 2753 3109 2633 2881 
Q 2513 2653 2303 2487 
Q 2094 2322 1844 2241 
Q 2122 2188 2372 2031 
Q 2622 1875 2773 1631 
Q 2925 1388 2925 1106 
Q 2925 753 2731 467 
Q 2538 181 2222 20 
Q 1906 -141 1556 -141 
Q 1256 -141 954 -26 
Q 653 88 461 316 
Q 269 544 269 863 
Q 269 1022 375 1128 
Q 481 1234 641 1234 
Q 744 1234 830 1186 
Q 916 1138 964 1050 
Q 1013 963 1013 863 
Q 1013 706 903 600 
Q 794 494 641 494 
L 609 494 
z
" transform="scale(0.015625)"/>
       </defs>
       <use xlink:href="#Cmr10-33"/>
      </g>
     </g>
    </g>
    <g id="xtick_3">
     <g id="line2d_3">
      <g>
       <use xlink:href="#m7664583fc1" x="145.64628" y="184.24351" style="stroke: #000000; stroke-width: 0.8"/>
      </g>
     </g>
     <g id="text_3">
      <!-- 6 -->
      <g transform="translate(143.14628 198.182572) scale(0.1 -0.1)">
       <defs>
        <path id="Cmr10-36" d="M 1600 -141 
Q 1203 -141 937 70 
Q 672 281 526 617 
Q 381 953 325 1322 
Q 269 1691 269 2069 
Q 269 2575 466 3084 
Q 663 3594 1045 3928 
Q 1428 4263 1953 4263 
Q 2172 4263 2361 4180 
Q 2550 4097 2658 3936 
Q 2766 3775 2766 3547 
Q 2766 3416 2677 3327 
Q 2588 3238 2456 3238 
Q 2331 3238 2240 3328 
Q 2150 3419 2150 3547 
Q 2150 3672 2240 3762 
Q 2331 3853 2456 3853 
L 2491 3853 
Q 2409 3969 2261 4023 
Q 2113 4078 1953 4078 
Q 1759 4078 1595 3993 
Q 1431 3909 1300 3765 
Q 1169 3622 1081 3448 
Q 994 3275 945 3053 
Q 897 2831 884 2637 
Q 872 2444 872 2150 
Q 984 2413 1190 2580 
Q 1397 2747 1656 2747 
Q 1941 2747 2175 2631 
Q 2409 2516 2578 2311 
Q 2747 2106 2836 1843 
Q 2925 1581 2925 1313 
Q 2925 938 2758 598 
Q 2591 259 2287 59 
Q 1984 -141 1600 -141 
z
M 1600 63 
Q 1847 63 1997 175 
Q 2147 288 2217 473 
Q 2288 659 2305 848 
Q 2322 1038 2322 1313 
Q 2322 1675 2287 1931 
Q 2253 2188 2100 2383 
Q 1947 2578 1631 2578 
Q 1372 2578 1205 2403 
Q 1038 2228 961 1961 
Q 884 1694 884 1447 
Q 884 1363 891 1319 
Q 891 1309 889 1303 
Q 888 1297 884 1288 
Q 884 1013 940 731 
Q 997 450 1156 256 
Q 1316 63 1600 63 
z
" transform="scale(0.015625)"/>
       </defs>
       <use xlink:href="#Cmr10-36"/>
      </g>
     </g>
    </g>
    <g id="xtick_4">
     <g id="line2d_4">
      <g>
       <use xlink:href="#m7664583fc1" x="190.969661" y="184.24351" style="stroke: #000000; stroke-width: 0.8"/>
      </g>
     </g>
     <g id="text_4">
      <!-- 9 -->
      <g transform="translate(188.469661 198.182572) scale(0.1 -0.1)">
       <defs>
        <path id="Cmr10-39" d="M 722 269 
Q 897 63 1331 63 
Q 1575 63 1786 228 
Q 1997 394 2113 634 
Q 2247 906 2284 1214 
Q 2322 1522 2322 1978 
Q 2213 1719 2008 1553 
Q 1803 1388 1538 1388 
Q 1166 1388 873 1589 
Q 581 1791 425 2120 
Q 269 2450 269 2822 
Q 269 3206 444 3539 
Q 619 3872 928 4067 
Q 1238 4263 1631 4263 
Q 2019 4263 2280 4052 
Q 2541 3841 2678 3508 
Q 2816 3175 2870 2803 
Q 2925 2431 2925 2069 
Q 2925 1575 2744 1061 
Q 2563 547 2202 203 
Q 1841 -141 1331 -141 
Q 953 -141 690 37 
Q 428 216 428 575 
Q 428 706 517 795 
Q 606 884 738 884 
Q 866 884 955 795 
Q 1044 706 1044 575 
Q 1044 450 953 359 
Q 863 269 738 269 
L 722 269 
z
M 1563 1556 
Q 1825 1556 1992 1732 
Q 2159 1909 2234 2171 
Q 2309 2434 2309 2694 
L 2309 2816 
L 2309 2841 
Q 2309 3322 2168 3700 
Q 2028 4078 1631 4078 
Q 1378 4078 1220 3967 
Q 1063 3856 988 3672 
Q 913 3488 892 3278 
Q 872 3069 872 2822 
Q 872 2459 906 2203 
Q 941 1947 1094 1751 
Q 1247 1556 1563 1556 
z
" transform="scale(0.015625)"/>
       </defs>
       <use xlink:href="#Cmr10-39"/>
      </g>
     </g>
    </g>
    <g id="xtick_5">
     <g id="line2d_5">
      <g>
       <use xlink:href="#m7664583fc1" x="236.293041" y="184.24351" style="stroke: #000000; stroke-width: 0.8"/>
      </g>
     </g>
     <g id="text_5">
      <!-- 12 -->
      <g transform="translate(231.293041 198.182572) scale(0.1 -0.1)">
       <defs>
        <path id="Cmr10-31" d="M 594 0 
L 594 225 
Q 1394 225 1394 428 
L 1394 3788 
Q 1063 3628 556 3628 
L 556 3853 
Q 1341 3853 1741 4263 
L 1831 4263 
Q 1853 4263 1873 4245 
Q 1894 4228 1894 4206 
L 1894 428 
Q 1894 225 2694 225 
L 2694 0 
L 594 0 
z
" transform="scale(0.015625)"/>
        <path id="Cmr10-32" d="M 319 0 
L 319 172 
Q 319 188 331 206 
L 1325 1306 
Q 1550 1550 1690 1715 
Q 1831 1881 1968 2097 
Q 2106 2313 2186 2536 
Q 2266 2759 2266 3009 
Q 2266 3272 2169 3511 
Q 2072 3750 1880 3894 
Q 1688 4038 1416 4038 
Q 1138 4038 916 3870 
Q 694 3703 603 3438 
Q 628 3444 672 3444 
Q 816 3444 917 3347 
Q 1019 3250 1019 3097 
Q 1019 2950 917 2848 
Q 816 2747 672 2747 
Q 522 2747 420 2851 
Q 319 2956 319 3097 
Q 319 3338 409 3548 
Q 500 3759 670 3923 
Q 841 4088 1055 4175 
Q 1269 4263 1509 4263 
Q 1875 4263 2190 4108 
Q 2506 3953 2690 3670 
Q 2875 3388 2875 3009 
Q 2875 2731 2753 2481 
Q 2631 2231 2440 2026 
Q 2250 1822 1953 1562 
Q 1656 1303 1563 1216 
L 838 519 
L 1453 519 
Q 1906 519 2211 526 
Q 2516 534 2534 550 
Q 2609 631 2688 1141 
L 2875 1141 
L 2694 0 
L 319 0 
z
" transform="scale(0.015625)"/>
       </defs>
       <use xlink:href="#Cmr10-31"/>
       <use xlink:href="#Cmr10-32" x="50"/>
      </g>
     </g>
    </g>
    <g id="xtick_6">
     <g id="line2d_6">
      <g>
       <use xlink:href="#m7664583fc1" x="281.616422" y="184.24351" style="stroke: #000000; stroke-width: 0.8"/>
      </g>
     </g>
     <g id="text_6">
      <!-- 15 -->
      <g transform="translate(276.616422 198.182572) scale(0.1 -0.1)">
       <defs>
        <path id="Cmr10-35" d="M 556 728 
Q 622 541 758 387 
Q 894 234 1080 148 
Q 1266 63 1466 63 
Q 1928 63 2103 422 
Q 2278 781 2278 1294 
Q 2278 1516 2270 1667 
Q 2263 1819 2228 1959 
Q 2169 2184 2020 2353 
Q 1872 2522 1656 2522 
Q 1441 2522 1286 2456 
Q 1131 2391 1034 2303 
Q 938 2216 863 2119 
Q 788 2022 769 2016 
L 697 2016 
Q 681 2016 657 2036 
Q 634 2056 634 2075 
L 634 4213 
Q 634 4228 654 4245 
Q 675 4263 697 4263 
L 716 4263 
Q 1147 4056 1631 4056 
Q 2106 4056 2547 4263 
L 2566 4263 
Q 2588 4263 2606 4247 
Q 2625 4231 2625 4213 
L 2625 4153 
Q 2625 4122 2613 4122 
Q 2394 3831 2064 3668 
Q 1734 3506 1381 3506 
Q 1125 3506 856 3578 
L 856 2369 
Q 1069 2541 1236 2614 
Q 1403 2688 1663 2688 
Q 2016 2688 2295 2484 
Q 2575 2281 2725 1954 
Q 2875 1628 2875 1288 
Q 2875 903 2686 575 
Q 2497 247 2172 53 
Q 1847 -141 1466 -141 
Q 1150 -141 886 21 
Q 622 184 470 459 
Q 319 734 319 1044 
Q 319 1188 412 1278 
Q 506 1369 647 1369 
Q 788 1369 883 1276 
Q 978 1184 978 1044 
Q 978 906 883 811 
Q 788 716 647 716 
Q 625 716 597 720 
Q 569 725 556 728 
z
" transform="scale(0.015625)"/>
       </defs>
       <use xlink:href="#Cmr10-31"/>
       <use xlink:href="#Cmr10-35" x="50"/>
      </g>
     </g>
    </g>
    <g id="xtick_7">
     <g id="line2d_7">
      <g>
       <use xlink:href="#m7664583fc1" x="326.939803" y="184.24351" style="stroke: #000000; stroke-width: 0.8"/>
      </g>
     </g>
     <g id="text_7">
      <!-- 18 -->
      <g transform="translate(321.939803 198.182572) scale(0.1 -0.1)">
       <defs>
        <path id="Cmr10-38" d="M 269 972 
Q 269 1356 522 1651 
Q 775 1947 1172 2144 
L 934 2297 
Q 716 2441 578 2680 
Q 441 2919 441 3181 
Q 441 3488 602 3734 
Q 763 3981 1030 4122 
Q 1297 4263 1600 4263 
Q 1884 4263 2148 4147 
Q 2413 4031 2583 3815 
Q 2753 3600 2753 3303 
Q 2753 3088 2651 2903 
Q 2550 2719 2373 2572 
Q 2197 2425 1997 2322 
L 2363 2088 
Q 2616 1922 2770 1653 
Q 2925 1384 2925 1088 
Q 2925 741 2739 456 
Q 2553 172 2247 15 
Q 1941 -141 1600 -141 
Q 1269 -141 961 -6 
Q 653 128 461 383 
Q 269 638 269 972 
z
M 616 972 
Q 616 719 755 509 
Q 894 300 1122 181 
Q 1350 63 1600 63 
Q 1972 63 2275 280 
Q 2578 497 2578 856 
Q 2578 978 2529 1098 
Q 2481 1219 2395 1317 
Q 2309 1416 2203 1478 
L 1344 2034 
Q 1144 1928 976 1765 
Q 809 1603 712 1400 
Q 616 1197 616 972 
z
M 1056 2925 
L 1831 2425 
Q 2100 2581 2272 2803 
Q 2444 3025 2444 3303 
Q 2444 3519 2323 3698 
Q 2203 3878 2009 3978 
Q 1816 4078 1594 4078 
Q 1400 4078 1203 4003 
Q 1006 3928 878 3779 
Q 750 3631 750 3431 
Q 750 3131 1056 2925 
z
" transform="scale(0.015625)"/>
       </defs>
       <use xlink:href="#Cmr10-31"/>
       <use xlink:href="#Cmr10-38" x="50"/>
      </g>
     </g>
    </g>
    <g id="text_8">
     <!-- Epoch -->
     <g transform="translate(184.851682 211.060697) scale(0.1 -0.1)">
      <defs>
       <path id="Cmr10-45" d="M 197 0 
L 197 225 
Q 856 225 856 428 
L 856 3944 
Q 856 4147 197 4147 
L 197 4372 
L 3816 4372 
L 3994 2906 
L 3809 2906 
Q 3741 3459 3617 3709 
Q 3494 3959 3222 4053 
Q 2950 4147 2406 4147 
L 1778 4147 
Q 1663 4147 1598 4137 
Q 1534 4128 1493 4083 
Q 1453 4038 1453 3944 
L 1453 2381 
L 1925 2381 
Q 2250 2381 2411 2436 
Q 2572 2491 2633 2645 
Q 2694 2800 2694 3128 
L 2881 3128 
L 2881 1409 
L 2694 1409 
Q 2694 1734 2633 1890 
Q 2572 2047 2411 2101 
Q 2250 2156 1925 2156 
L 1453 2156 
L 1453 428 
Q 1453 291 1531 258 
Q 1609 225 1778 225 
L 2456 225 
Q 2900 225 3173 295 
Q 3447 366 3598 530 
Q 3750 694 3833 955 
Q 3916 1216 3988 1678 
L 4172 1678 
L 3903 0 
L 197 0 
z
" transform="scale(0.015625)"/>
       <path id="Cmr10-70" d="M 166 -1241 
L 166 -1019 
Q 384 -1019 525 -981 
Q 666 -944 666 -813 
L 666 2272 
Q 666 2447 541 2490 
Q 416 2534 166 2534 
L 166 2759 
L 1113 2828 
L 1113 2431 
Q 1288 2625 1520 2726 
Q 1753 2828 2016 2828 
Q 2394 2828 2697 2623 
Q 3000 2419 3170 2086 
Q 3341 1753 3341 1381 
Q 3341 994 3152 659 
Q 2963 325 2636 126 
Q 2309 -72 1919 -72 
Q 1453 -72 1131 306 
L 1131 -813 
Q 1131 -944 1273 -981 
Q 1416 -1019 1631 -1019 
L 1631 -1241 
L 166 -1241 
z
M 1131 622 
Q 1244 394 1444 245 
Q 1644 97 1881 97 
Q 2103 97 2273 215 
Q 2444 334 2559 534 
Q 2675 734 2729 954 
Q 2784 1175 2784 1381 
Q 2784 1638 2692 1936 
Q 2600 2234 2411 2439 
Q 2222 2644 1953 2644 
Q 1694 2644 1476 2511 
Q 1259 2378 1131 2150 
L 1131 622 
z
" transform="scale(0.015625)"/>
       <path id="Cmr10-6f" d="M 1600 -72 
Q 1216 -72 887 123 
Q 559 319 368 647 
Q 178 975 178 1363 
Q 178 1656 283 1928 
Q 388 2200 583 2414 
Q 778 2628 1037 2748 
Q 1297 2869 1600 2869 
Q 1994 2869 2317 2661 
Q 2641 2453 2828 2104 
Q 3016 1756 3016 1363 
Q 3016 978 2825 648 
Q 2634 319 2307 123 
Q 1981 -72 1600 -72 
z
M 1600 116 
Q 2113 116 2284 487 
Q 2456 859 2456 1434 
Q 2456 1756 2422 1967 
Q 2388 2178 2272 2350 
Q 2200 2456 2089 2536 
Q 1978 2616 1854 2658 
Q 1731 2700 1600 2700 
Q 1400 2700 1220 2609 
Q 1041 2519 922 2350 
Q 803 2169 770 1951 
Q 738 1734 738 1434 
Q 738 1075 800 789 
Q 863 503 1052 309 
Q 1241 116 1600 116 
z
" transform="scale(0.015625)"/>
       <path id="Cmr10-63" d="M 1594 -72 
Q 1206 -72 890 129 
Q 575 331 394 667 
Q 213 1003 213 1381 
Q 213 1759 392 2106 
Q 572 2453 889 2661 
Q 1206 2869 1594 2869 
Q 1969 2869 2276 2722 
Q 2584 2575 2584 2241 
Q 2584 2116 2495 2023 
Q 2406 1931 2278 1931 
Q 2150 1931 2061 2023 
Q 1972 2116 1972 2241 
Q 1972 2353 2044 2436 
Q 2116 2519 2222 2541 
Q 2000 2681 1600 2681 
Q 1294 2681 1106 2478 
Q 919 2275 844 1975 
Q 769 1675 769 1381 
Q 769 1072 861 783 
Q 953 494 1158 305 
Q 1363 116 1672 116 
Q 1975 116 2187 302 
Q 2400 488 2478 788 
Q 2478 825 2528 825 
L 2606 825 
Q 2625 825 2640 808 
Q 2656 791 2656 769 
L 2656 750 
Q 2559 372 2271 150 
Q 1984 -72 1594 -72 
z
" transform="scale(0.015625)"/>
       <path id="Cmr10-68" d="M 191 0 
L 191 225 
Q 409 225 550 259 
Q 691 294 691 428 
L 691 3788 
Q 691 3959 639 4036 
Q 588 4113 491 4130 
Q 394 4147 191 4147 
L 191 4372 
L 1141 4441 
L 1141 2241 
Q 1275 2506 1515 2667 
Q 1756 2828 2047 2828 
Q 2491 2828 2714 2615 
Q 2938 2403 2938 1966 
L 2938 428 
Q 2938 294 3078 259 
Q 3219 225 3438 225 
L 3438 0 
L 1972 0 
L 1972 225 
Q 2191 225 2331 259 
Q 2472 294 2472 428 
L 2472 1947 
Q 2472 2259 2381 2461 
Q 2291 2663 2009 2663 
Q 1638 2663 1398 2366 
Q 1159 2069 1159 1691 
L 1159 428 
Q 1159 294 1300 259 
Q 1441 225 1656 225 
L 1656 0 
L 191 0 
z
" transform="scale(0.015625)"/>
      </defs>
      <use xlink:href="#Cmr10-45"/>
      <use xlink:href="#Cmr10-70" x="68.017578"/>
      <use xlink:href="#Cmr10-6f" x="123.535156"/>
      <use xlink:href="#Cmr10-63" x="173.535156"/>
      <use xlink:href="#Cmr10-68" x="217.919922"/>
     </g>
    </g>
   </g>
   <g id="matplotlib.axis_2">
    <g id="ytick_1">
     <g id="line2d_8">
      <defs>
       <path id="m92fd97a1df" d="M 0 0 
L -3.5 0 
" style="stroke: #000000; stroke-width: 0.8"/>
      </defs>
      <g>
       <use xlink:href="#m92fd97a1df" x="40.647115" y="180.664009" style="stroke: #000000; stroke-width: 0.8"/>
      </g>
     </g>
     <g id="text_9">
      <!-- 0.0 -->
      <g transform="translate(20.878365 184.13354) scale(0.1 -0.1)">
       <defs>
        <path id="Cmr10-2e" d="M 538 353 
Q 538 497 644 600 
Q 750 703 891 703 
Q 978 703 1062 656 
Q 1147 609 1194 525 
Q 1241 441 1241 353 
Q 1241 213 1137 106 
Q 1034 0 891 0 
Q 750 0 644 106 
Q 538 213 538 353 
z
" transform="scale(0.015625)"/>
       </defs>
       <use xlink:href="#Cmr10-30"/>
       <use xlink:href="#Cmr10-2e" x="50"/>
       <use xlink:href="#Cmr10-30" x="77.685547"/>
      </g>
     </g>
    </g>
    <g id="ytick_2">
     <g id="line2d_9">
      <g>
       <use xlink:href="#m92fd97a1df" x="40.647115" y="150.26536" style="stroke: #000000; stroke-width: 0.8"/>
      </g>
     </g>
     <g id="text_10">
      <!-- 0.1 -->
      <g transform="translate(20.878365 153.734891) scale(0.1 -0.1)">
       <use xlink:href="#Cmr10-30"/>
       <use xlink:href="#Cmr10-2e" x="50"/>
       <use xlink:href="#Cmr10-31" x="77.685547"/>
      </g>
     </g>
    </g>
    <g id="ytick_3">
     <g id="line2d_10">
      <g>
       <use xlink:href="#m92fd97a1df" x="40.647115" y="119.866712" style="stroke: #000000; stroke-width: 0.8"/>
      </g>
     </g>
     <g id="text_11">
      <!-- 0.2 -->
      <g transform="translate(20.878365 123.336243) scale(0.1 -0.1)">
       <use xlink:href="#Cmr10-30"/>
       <use xlink:href="#Cmr10-2e" x="50"/>
       <use xlink:href="#Cmr10-32" x="77.685547"/>
      </g>
     </g>
    </g>
    <g id="ytick_4">
     <g id="line2d_11">
      <g>
       <use xlink:href="#m92fd97a1df" x="40.647115" y="89.468063" style="stroke: #000000; stroke-width: 0.8"/>
      </g>
     </g>
     <g id="text_12">
      <!-- 0.3 -->
      <g transform="translate(20.878365 92.937594) scale(0.1 -0.1)">
       <use xlink:href="#Cmr10-30"/>
       <use xlink:href="#Cmr10-2e" x="50"/>
       <use xlink:href="#Cmr10-33" x="77.685547"/>
      </g>
     </g>
    </g>
    <g id="ytick_5">
     <g id="line2d_12">
      <g>
       <use xlink:href="#m92fd97a1df" x="40.647115" y="59.069414" style="stroke: #000000; stroke-width: 0.8"/>
      </g>
     </g>
     <g id="text_13">
      <!-- 0.4 -->
      <g transform="translate(20.878365 62.538946) scale(0.1 -0.1)">
       <defs>
        <path id="Cmr10-34" d="M 178 1056 
L 178 1281 
L 2156 4231 
Q 2178 4263 2222 4263 
L 2316 4263 
Q 2388 4263 2388 4191 
L 2388 1281 
L 3016 1281 
L 3016 1056 
L 2388 1056 
L 2388 428 
Q 2388 297 2575 261 
Q 2763 225 3009 225 
L 3009 0 
L 1247 0 
L 1247 225 
Q 1494 225 1681 261 
Q 1869 297 1869 428 
L 1869 1056 
L 178 1056 
z
M 391 1281 
L 1906 1281 
L 1906 3547 
L 391 1281 
z
" transform="scale(0.015625)"/>
       </defs>
       <use xlink:href="#Cmr10-30"/>
       <use xlink:href="#Cmr10-2e" x="50"/>
       <use xlink:href="#Cmr10-34" x="77.685547"/>
      </g>
     </g>
    </g>
    <g id="ytick_6">
     <g id="line2d_13">
      <g>
       <use xlink:href="#m92fd97a1df" x="40.647115" y="28.670766" style="stroke: #000000; stroke-width: 0.8"/>
      </g>
     </g>
     <g id="text_14">
      <!-- 0.5 -->
      <g transform="translate(20.878365 32.140297) scale(0.1 -0.1)">
       <use xlink:href="#Cmr10-30"/>
       <use xlink:href="#Cmr10-2e" x="50"/>
       <use xlink:href="#Cmr10-35" x="77.685547"/>
      </g>
     </g>
    </g>
    <g id="text_15">
     <!-- Jaccard Loss -->
     <g transform="translate(14.939302 128.751719) rotate(-90) scale(0.1 -0.1)">
      <defs>
       <path id="Cmr10-4a" d="M 581 359 
Q 697 197 881 111 
Q 1066 25 1275 25 
Q 1481 25 1623 167 
Q 1766 309 1836 520 
Q 1906 731 1906 928 
L 1906 3944 
Q 1906 4147 1050 4147 
L 1050 4372 
L 2975 4372 
L 2975 4147 
Q 2759 4147 2621 4112 
Q 2484 4078 2484 3944 
L 2484 903 
Q 2484 597 2307 359 
Q 2131 122 1851 -9 
Q 1572 -141 1275 -141 
Q 1016 -141 778 -36 
Q 541 69 389 267 
Q 238 466 238 728 
Q 238 888 344 994 
Q 450 1100 609 1100 
Q 713 1100 797 1051 
Q 881 1003 929 915 
Q 978 828 978 728 
Q 978 572 872 465 
Q 766 359 609 359 
L 581 359 
z
" transform="scale(0.015625)"/>
       <path id="Cmr10-61" d="M 256 628 
Q 256 1009 556 1248 
Q 856 1488 1276 1586 
Q 1697 1684 2075 1684 
L 2075 1947 
Q 2075 2131 1994 2304 
Q 1913 2478 1759 2589 
Q 1606 2700 1422 2700 
Q 997 2700 775 2509 
Q 897 2509 976 2417 
Q 1056 2325 1056 2203 
Q 1056 2075 965 1984 
Q 875 1894 750 1894 
Q 622 1894 531 1984 
Q 441 2075 441 2203 
Q 441 2541 747 2705 
Q 1053 2869 1422 2869 
Q 1681 2869 1943 2758 
Q 2206 2647 2373 2440 
Q 2541 2234 2541 1959 
L 2541 519 
Q 2541 394 2594 289 
Q 2647 184 2759 184 
Q 2866 184 2917 290 
Q 2969 397 2969 519 
L 2969 928 
L 3156 928 
L 3156 519 
Q 3156 375 3081 245 
Q 3006 116 2879 39 
Q 2753 -38 2606 -38 
Q 2419 -38 2283 107 
Q 2147 253 2131 453 
Q 2013 213 1781 70 
Q 1550 -72 1288 -72 
Q 1044 -72 808 0 
Q 572 72 414 226 
Q 256 381 256 628 
z
M 775 628 
Q 775 403 940 250 
Q 1106 97 1331 97 
Q 1538 97 1706 200 
Q 1875 303 1975 481 
Q 2075 659 2075 856 
L 2075 1522 
Q 1784 1522 1479 1426 
Q 1175 1331 975 1128 
Q 775 925 775 628 
z
" transform="scale(0.015625)"/>
       <path id="Cmr10-72" d="M 166 0 
L 166 225 
Q 384 225 525 259 
Q 666 294 666 428 
L 666 2175 
Q 666 2347 614 2423 
Q 563 2500 466 2517 
Q 369 2534 166 2534 
L 166 2759 
L 1081 2828 
L 1081 2203 
Q 1184 2481 1375 2654 
Q 1566 2828 1838 2828 
Q 2028 2828 2178 2715 
Q 2328 2603 2328 2419 
Q 2328 2303 2245 2217 
Q 2163 2131 2041 2131 
Q 1922 2131 1837 2215 
Q 1753 2300 1753 2419 
Q 1753 2591 1875 2663 
L 1838 2663 
Q 1578 2663 1414 2475 
Q 1250 2288 1181 2009 
Q 1113 1731 1113 1478 
L 1113 428 
Q 1113 225 1734 225 
L 1734 0 
L 166 0 
z
" transform="scale(0.015625)"/>
       <path id="Cmr10-64" d="M 1563 -72 
Q 1184 -72 871 133 
Q 559 338 386 672 
Q 213 1006 213 1381 
Q 213 1769 402 2101 
Q 591 2434 916 2631 
Q 1241 2828 1631 2828 
Q 1866 2828 2075 2729 
Q 2284 2631 2438 2456 
L 2438 3788 
Q 2438 3959 2386 4036 
Q 2334 4113 2239 4130 
Q 2144 4147 1941 4147 
L 1941 4372 
L 2888 4441 
L 2888 581 
Q 2888 413 2939 336 
Q 2991 259 3086 242 
Q 3181 225 3384 225 
L 3384 0 
L 2419 -72 
L 2419 331 
Q 2253 141 2025 34 
Q 1797 -72 1563 -72 
z
M 909 556 
Q 1019 347 1201 222 
Q 1384 97 1600 97 
Q 1866 97 2087 250 
Q 2309 403 2419 647 
L 2419 2181 
Q 2344 2322 2230 2433 
Q 2116 2544 1973 2603 
Q 1831 2663 1672 2663 
Q 1338 2663 1134 2473 
Q 931 2284 850 1990 
Q 769 1697 769 1375 
Q 769 1119 795 928 
Q 822 738 909 556 
z
" transform="scale(0.015625)"/>
       <path id="Cmr10-20" transform="scale(0.015625)"/>
       <path id="Cmr10-4c" d="M 197 0 
L 197 225 
Q 856 225 856 428 
L 856 3944 
Q 856 4147 197 4147 
L 197 4372 
L 2272 4372 
L 2272 4147 
Q 1453 4147 1453 3944 
L 1453 428 
Q 1453 291 1531 258 
Q 1609 225 1778 225 
L 2272 225 
Q 2750 225 3009 400 
Q 3269 575 3376 876 
Q 3484 1178 3541 1678 
L 3725 1678 
L 3547 0 
L 197 0 
z
" transform="scale(0.015625)"/>
       <path id="Cmr10-73" d="M 213 -19 
L 213 1025 
Q 213 1075 269 1075 
L 347 1075 
Q 384 1075 397 1025 
Q 575 97 1259 97 
Q 1563 97 1767 234 
Q 1972 372 1972 659 
Q 1972 866 1812 1011 
Q 1653 1156 1434 1209 
L 1006 1294 
Q 791 1341 614 1437 
Q 438 1534 325 1695 
Q 213 1856 213 2069 
Q 213 2350 361 2529 
Q 509 2709 746 2789 
Q 984 2869 1259 2869 
Q 1588 2869 1831 2694 
L 2016 2853 
Q 2016 2869 2047 2869 
L 2094 2869 
Q 2113 2869 2128 2851 
Q 2144 2834 2144 2816 
L 2144 1978 
Q 2144 1919 2094 1919 
L 2016 1919 
Q 1959 1919 1959 1978 
Q 1959 2313 1773 2516 
Q 1588 2719 1253 2719 
Q 966 2719 755 2612 
Q 544 2506 544 2247 
Q 544 2069 695 1955 
Q 847 1841 1050 1791 
L 1484 1709 
Q 1703 1659 1892 1540 
Q 2081 1422 2192 1240 
Q 2303 1059 2303 831 
Q 2303 600 2223 429 
Q 2144 259 2001 146 
Q 1859 34 1665 -19 
Q 1472 -72 1259 -72 
Q 859 -72 575 197 
L 341 -56 
Q 341 -72 306 -72 
L 269 -72 
Q 213 -72 213 -19 
z
" transform="scale(0.015625)"/>
      </defs>
      <use xlink:href="#Cmr10-4a"/>
      <use xlink:href="#Cmr10-61" x="51.318359"/>
      <use xlink:href="#Cmr10-63" x="101.318359"/>
      <use xlink:href="#Cmr10-63" x="145.703125"/>
      <use xlink:href="#Cmr10-61" x="190.087891"/>
      <use xlink:href="#Cmr10-72" x="240.087891"/>
      <use xlink:href="#Cmr10-64" x="279.199219"/>
      <use xlink:href="#Cmr10-20" x="334.716797"/>
      <use xlink:href="#Cmr10-4c" x="368.017578"/>
      <use xlink:href="#Cmr10-6f" x="430.517578"/>
      <use xlink:href="#Cmr10-73" x="480.517578"/>
      <use xlink:href="#Cmr10-73" x="519.921875"/>
     </g>
    </g>
   </g>
   <g id="line2d_14">
    <path d="M 54.999519 24.914224 
L 70.107312 81.469185 
L 85.215106 100.206915 
L 100.322899 111.90762 
L 115.430693 120.596748 
L 130.538487 127.921452 
L 145.64628 133.689371 
L 160.754074 138.810785 
L 175.861867 143.031594 
L 190.969661 146.737924 
L 206.077454 149.885997 
L 221.185248 152.641932 
L 236.293041 155.151671 
L 251.400835 157.460523 
L 266.508628 159.102299 
L 281.616422 160.877805 
L 296.724216 162.263121 
L 311.832009 163.708986 
L 326.939803 164.84515 
L 342.047596 165.744163 
" clip-path="url(#pb128c9efe5)" style="fill: none; stroke: #000075; stroke-width: 1.5; stroke-linecap: square"/>
   </g>
   <g id="line2d_15">
    <path d="M 54.999519 42.55721 
L 70.107312 88.836213 
L 85.215106 111.222906 
L 100.322899 127.032962 
L 115.430693 138.799314 
L 130.538487 147.949835 
L 145.64628 153.875052 
L 160.754074 157.923748 
L 175.861867 161.120348 
L 190.969661 163.324703 
L 206.077454 164.956854 
L 221.185248 166.665363 
L 236.293041 168.041515 
L 251.400835 168.834506 
L 266.508628 169.722877 
L 281.616422 170.605525 
L 296.724216 171.145127 
L 311.832009 171.529701 
L 326.939803 172.780998 
L 342.047596 173.584167 
" clip-path="url(#pb128c9efe5)" style="fill: none; stroke: #f58231; stroke-width: 1.5; stroke-linecap: square"/>
   </g>
   <g id="line2d_16">
    <path d="M 54.999519 78.165352 
L 70.107312 123.78893 
L 85.215106 139.509224 
L 100.322899 150.439365 
L 115.430693 156.427147 
L 130.538487 161.461958 
L 145.64628 163.947357 
L 160.754074 166.02132 
L 175.861867 167.327438 
L 190.969661 168.61407 
L 206.077454 169.638475 
L 221.185248 169.933719 
L 236.293041 170.615047 
L 251.400835 171.364975 
L 266.508628 172.084007 
L 281.616422 172.403633 
L 296.724216 172.97026 
L 311.832009 173.427497 
L 326.939803 173.646451 
L 342.047596 173.840116 
" clip-path="url(#pb128c9efe5)" style="fill: none; stroke: #e6194b; stroke-width: 1.5; stroke-linecap: square"/>
   </g>
   <g id="line2d_17">
    <path d="M 54.999519 92.926356 
L 70.107312 143.715248 
L 85.215106 154.947205 
L 100.322899 159.627548 
L 115.430693 162.387865 
L 130.538487 164.311878 
L 145.64628 165.758086 
L 160.754074 166.68231 
L 175.861867 167.593278 
L 190.969661 168.3211 
L 206.077454 169.024517 
L 221.185248 169.648475 
L 236.293041 170.200431 
L 251.400835 170.700331 
L 266.508628 171.112308 
L 281.616422 171.601953 
L 296.724216 172.976008 
L 311.832009 173.671304 
L 326.939803 173.905062 
L 342.047596 174.202149 
" clip-path="url(#pb128c9efe5)" style="fill: none; stroke: #9a6324; stroke-width: 1.5; stroke-linecap: square"/>
   </g>
   <g id="line2d_18">
    <path d="M 54.999519 102.605168 
L 70.107312 145.242963 
L 85.215106 155.743416 
L 100.322899 161.76458 
L 115.430693 165.295534 
L 130.538487 167.350231 
L 145.64628 168.797915 
L 160.754074 170.056033 
L 175.861867 171.085966 
L 190.969661 171.783107 
L 206.077454 172.323901 
L 221.185248 172.837823 
L 236.293041 173.366493 
L 251.400835 173.529615 
L 266.508628 173.823609 
L 281.616422 174.126387 
L 296.724216 175.066215 
L 311.832009 175.25152 
L 326.939803 175.586725 
L 342.047596 175.761175 
" clip-path="url(#pb128c9efe5)" style="fill: none; stroke: #000000; stroke-width: 1.5; stroke-linecap: square"/>
   </g>
   <g id="line2d_19">
    <path d="M 54.999519 129.469609 
L 70.107312 156.046223 
L 85.215106 157.693812 
L 100.322899 158.913991 
L 115.430693 159.91066 
L 130.538487 160.958759 
L 145.64628 161.739353 
L 160.754074 162.316652 
L 175.861867 162.967703 
L 190.969661 163.445646 
L 206.077454 164.056176 
L 221.185248 164.255905 
L 236.293041 164.928773 
L 251.400835 165.333818 
L 266.508628 165.736012 
L 281.616422 166.182024 
L 296.724216 166.587698 
L 311.832009 166.775939 
L 326.939803 167.250762 
L 342.047596 167.45201 
" clip-path="url(#pb128c9efe5)" style="fill: none; stroke: #4363d8; stroke-width: 1.5; stroke-linecap: square"/>
   </g>
   <g id="line2d_20">
    <path d="M 54.999519 140.803507 
L 70.107312 160.28583 
L 85.215106 163.247336 
L 100.322899 164.732279 
L 115.430693 165.752491 
L 130.538487 166.942731 
L 145.64628 167.987687 
L 160.754074 168.706173 
L 175.861867 169.20606 
L 190.969661 169.882505 
L 206.077454 170.571543 
L 221.185248 170.943337 
L 236.293041 171.549955 
L 251.400835 171.70184 
L 266.508628 172.278118 
L 281.616422 172.460063 
L 296.724216 172.847566 
L 311.832009 173.719868 
L 326.939803 174.527643 
L 342.047596 174.890815 
" clip-path="url(#pb128c9efe5)" style="fill: none; stroke: #f032e6; stroke-width: 1.5; stroke-linecap: square"/>
   </g>
   <g id="line2d_21">
    <path d="M 54.999519 149.805316 
L 70.107312 163.225302 
L 85.215106 165.478312 
L 100.322899 167.208781 
L 115.430693 168.252022 
L 130.538487 170.179285 
L 145.64628 171.115111 
L 160.754074 171.570348 
L 175.861867 172.314927 
L 190.969661 172.862981 
L 206.077454 173.25441 
L 221.185248 173.581489 
L 236.293041 174.016014 
L 251.400835 174.940732 
L 266.508628 175.374176 
L 281.616422 175.62311 
L 296.724216 176.11622 
L 311.832009 176.357807 
L 326.939803 176.517368 
L 342.047596 176.656401 
" clip-path="url(#pb128c9efe5)" style="fill: none; stroke: #46f0f0; stroke-width: 1.5; stroke-linecap: square"/>
   </g>
   <g id="patch_3">
    <path d="M 40.647115 184.24351 
L 40.647115 17.327115 
" style="fill: none; stroke: #000000; stroke-width: 0.8; stroke-linejoin: miter; stroke-linecap: square"/>
   </g>
   <g id="patch_4">
    <path d="M 356.4 184.24351 
L 356.4 17.327115 
" style="fill: none; stroke: #000000; stroke-width: 0.8; stroke-linejoin: miter; stroke-linecap: square"/>
   </g>
   <g id="patch_5">
    <path d="M 40.647115 184.24351 
L 356.4 184.24351 
" style="fill: none; stroke: #000000; stroke-width: 0.8; stroke-linejoin: miter; stroke-linecap: square"/>
   </g>
   <g id="patch_6">
    <path d="M 40.647115 17.327115 
L 356.4 17.327115 
" style="fill: none; stroke: #000000; stroke-width: 0.8; stroke-linejoin: miter; stroke-linecap: square"/>
   </g>
   <g id="text_16">
    <!-- A -->
    <g transform="translate(44.040937 32.845845) scale(0.12 -0.12)">
     <defs>
      <path id="Cmr10-41" d="M 206 0 
L 206 225 
Q 778 225 909 603 
L 2253 4513 
Q 2272 4581 2356 4581 
L 2438 4581 
Q 2522 4581 2541 4513 
L 3944 428 
Q 4003 294 4170 259 
Q 4338 225 4588 225 
L 4588 0 
L 2803 0 
L 2803 225 
Q 3334 225 3334 397 
L 3334 428 
L 2988 1428 
L 1434 1428 
L 1147 603 
Q 1141 581 1141 538 
Q 1141 378 1292 301 
Q 1444 225 1619 225 
L 1619 0 
L 206 0 
z
M 1509 1650 
L 2913 1650 
L 2209 3694 
L 1509 1650 
z
" transform="scale(0.015625)"/>
     </defs>
     <use xlink:href="#Cmr10-41"/>
    </g>
   </g>
   <g id="text_17">
    <!-- Loss -->
    <g transform="translate(187.044807 11.327115) scale(0.12 -0.12)">
     <use xlink:href="#Cmr10-4c"/>
     <use xlink:href="#Cmr10-6f" x="62.5"/>
     <use xlink:href="#Cmr10-73" x="112.5"/>
     <use xlink:href="#Cmr10-73" x="151.904297"/>
    </g>
   </g>
  </g>
  <g id="axes_2">
   <g id="table_1">
    <g id="patch_7">
     <path d="M 401.246875 54.419647 
L 559.123317 54.419647 
L 559.123317 41.172314 
L 401.246875 41.172314 
z
" style="fill: #ffffff; stroke: #000000; stroke-linejoin: miter"/>
    </g>
    <g id="text_18">
     <!-- Architectures -->
     <g transform="translate(450.858534 50.295981) scale(0.1 -0.1)">
      <defs>
       <path id="Cmr10-69" d="M 197 0 
L 197 225 
Q 416 225 556 259 
Q 697 294 697 428 
L 697 2175 
Q 697 2422 601 2478 
Q 506 2534 225 2534 
L 225 2759 
L 1147 2828 
L 1147 428 
Q 1147 294 1269 259 
Q 1391 225 1594 225 
L 1594 0 
L 197 0 
z
M 469 3928 
Q 469 4069 575 4175 
Q 681 4281 819 4281 
Q 909 4281 993 4234 
Q 1078 4188 1125 4103 
Q 1172 4019 1172 3928 
Q 1172 3791 1065 3684 
Q 959 3578 819 3578 
Q 681 3578 575 3684 
Q 469 3791 469 3928 
z
" transform="scale(0.015625)"/>
       <path id="Cmr10-74" d="M 653 769 
L 653 2534 
L 122 2534 
L 122 2700 
Q 541 2700 737 3090 
Q 934 3481 934 3938 
L 1119 3938 
L 1119 2759 
L 2022 2759 
L 2022 2534 
L 1119 2534 
L 1119 781 
Q 1119 516 1208 316 
Q 1297 116 1528 116 
Q 1747 116 1844 327 
Q 1941 538 1941 781 
L 1941 1159 
L 2125 1159 
L 2125 769 
Q 2125 569 2051 373 
Q 1978 178 1834 53 
Q 1691 -72 1484 -72 
Q 1100 -72 876 158 
Q 653 388 653 769 
z
" transform="scale(0.015625)"/>
       <path id="Cmr10-65" d="M 1594 -72 
Q 1203 -72 876 133 
Q 550 338 364 680 
Q 178 1022 178 1403 
Q 178 1778 348 2115 
Q 519 2453 823 2661 
Q 1128 2869 1503 2869 
Q 1797 2869 2014 2770 
Q 2231 2672 2372 2497 
Q 2513 2322 2584 2084 
Q 2656 1847 2656 1563 
Q 2656 1478 2591 1478 
L 738 1478 
L 738 1409 
Q 738 878 952 497 
Q 1166 116 1650 116 
Q 1847 116 2014 203 
Q 2181 291 2304 447 
Q 2428 603 2472 781 
Q 2478 803 2495 820 
Q 2513 838 2534 838 
L 2591 838 
Q 2656 838 2656 756 
Q 2566 394 2266 161 
Q 1966 -72 1594 -72 
z
M 744 1638 
L 2203 1638 
Q 2203 1878 2136 2125 
Q 2069 2372 1912 2536 
Q 1756 2700 1503 2700 
Q 1141 2700 942 2361 
Q 744 2022 744 1638 
z
" transform="scale(0.015625)"/>
       <path id="Cmr10-75" d="M 691 763 
L 691 2175 
Q 691 2347 639 2423 
Q 588 2500 491 2517 
Q 394 2534 191 2534 
L 191 2759 
L 1159 2828 
L 1159 763 
Q 1159 513 1195 373 
Q 1231 234 1348 165 
Q 1466 97 1722 97 
Q 2066 97 2269 384 
Q 2472 672 2472 1038 
L 2472 2175 
Q 2472 2347 2419 2423 
Q 2366 2500 2270 2517 
Q 2175 2534 1972 2534 
L 1972 2759 
L 2938 2828 
L 2938 581 
Q 2938 413 2989 336 
Q 3041 259 3137 242 
Q 3234 225 3438 225 
L 3438 0 
L 2491 -72 
L 2491 469 
Q 2372 228 2159 78 
Q 1947 -72 1691 -72 
Q 1231 -72 961 123 
Q 691 319 691 763 
z
" transform="scale(0.015625)"/>
      </defs>
      <use xlink:href="#Cmr10-41"/>
      <use xlink:href="#Cmr10-72" x="75"/>
      <use xlink:href="#Cmr10-63" x="114.111328"/>
      <use xlink:href="#Cmr10-68" x="158.496094"/>
      <use xlink:href="#Cmr10-69" x="214.013672"/>
      <use xlink:href="#Cmr10-74" x="241.699219"/>
      <use xlink:href="#Cmr10-65" x="280.517578"/>
      <use xlink:href="#Cmr10-63" x="324.902344"/>
      <use xlink:href="#Cmr10-74" x="369.287109"/>
      <use xlink:href="#Cmr10-75" x="408.105469"/>
      <use xlink:href="#Cmr10-72" x="463.623047"/>
      <use xlink:href="#Cmr10-65" x="502.734375"/>
      <use xlink:href="#Cmr10-73" x="547.119141"/>
     </g>
    </g>
    <g id="patch_8">
     <path d="M 559.123317 54.419647 
L 716.99976 54.419647 
L 716.99976 41.172314 
L 559.123317 41.172314 
z
" style="fill: #ffffff; stroke: #000000; stroke-linejoin: miter"/>
    </g>
    <g id="text_19">
     <!-- Val IoU -->
     <g transform="translate(620.708414 50.295981) scale(0.1 -0.1)">
      <defs>
       <path id="Cmr10-56" d="M 2253 -72 
L 744 3944 
Q 688 4078 528 4112 
Q 369 4147 122 4147 
L 122 4372 
L 1881 4372 
L 1881 4147 
Q 1350 4147 1350 3981 
Q 1353 3972 1354 3964 
Q 1356 3956 1356 3944 
L 2584 678 
L 3744 3769 
Q 3756 3794 3756 3847 
Q 3756 4003 3612 4075 
Q 3469 4147 3291 4147 
L 3291 4372 
L 4672 4372 
L 4672 4147 
Q 4431 4147 4248 4058 
Q 4066 3969 3988 3769 
L 2541 -72 
Q 2522 -141 2438 -141 
L 2356 -141 
Q 2272 -141 2253 -72 
z
" transform="scale(0.015625)"/>
       <path id="Cmr10-6c" d="M 197 0 
L 197 225 
Q 416 225 556 259 
Q 697 294 697 428 
L 697 3788 
Q 697 3959 645 4036 
Q 594 4113 497 4130 
Q 400 4147 197 4147 
L 197 4372 
L 1147 4441 
L 1147 428 
Q 1147 294 1287 259 
Q 1428 225 1644 225 
L 1644 0 
L 197 0 
z
" transform="scale(0.015625)"/>
       <path id="Cmr10-49" d="M 166 0 
L 166 225 
Q 856 225 856 428 
L 856 3944 
Q 856 4147 166 4147 
L 166 4372 
L 2144 4372 
L 2144 4147 
Q 1453 4147 1453 3944 
L 1453 428 
Q 1453 225 2144 225 
L 2144 0 
L 166 0 
z
" transform="scale(0.015625)"/>
       <path id="Cmr10-55" d="M 856 1447 
L 856 3944 
Q 856 4147 197 4147 
L 197 4372 
L 2113 4372 
L 2113 4147 
Q 1453 4147 1453 3944 
L 1453 1472 
Q 1453 1116 1551 798 
Q 1650 481 1883 282 
Q 2116 84 2491 84 
Q 2856 84 3134 276 
Q 3413 469 3563 787 
Q 3713 1106 3713 1472 
L 3713 3769 
Q 3713 4147 3053 4147 
L 3053 4372 
L 4594 4372 
L 4594 4147 
Q 3938 4147 3938 3769 
L 3938 1447 
Q 3938 1150 3833 865 
Q 3728 581 3529 351 
Q 3331 122 3062 -9 
Q 2794 -141 2491 -141 
Q 2066 -141 1686 71 
Q 1306 284 1081 650 
Q 856 1016 856 1447 
z
" transform="scale(0.015625)"/>
      </defs>
      <use xlink:href="#Cmr10-56"/>
      <use xlink:href="#Cmr10-61" x="75"/>
      <use xlink:href="#Cmr10-6c" x="125"/>
      <use xlink:href="#Cmr10-20" x="152.685547"/>
      <use xlink:href="#Cmr10-49" x="185.986328"/>
      <use xlink:href="#Cmr10-6f" x="222.070312"/>
      <use xlink:href="#Cmr10-55" x="272.070312"/>
     </g>
    </g>
    <g id="patch_9">
     <path d="M 401.246875 67.66698 
L 559.123317 67.66698 
L 559.123317 54.419647 
L 401.246875 54.419647 
z
" style="fill: #ffffff; stroke: #000000; stroke-linejoin: miter"/>
    </g>
    <g id="text_20">
     <!-- DeepLabV3Plus -->
     <g transform="translate(472.910673 63.543314) scale(0.1 -0.1)">
      <defs>
       <path id="Cmr10-44" d="M 213 0 
L 213 225 
Q 872 225 872 428 
L 872 3944 
Q 872 4147 213 4147 
L 213 4372 
L 2572 4372 
Q 3009 4372 3371 4183 
Q 3734 3994 3990 3678 
Q 4247 3363 4386 2963 
Q 4525 2563 4525 2144 
Q 4525 1738 4384 1355 
Q 4244 972 3980 664 
Q 3716 356 3355 178 
Q 2994 0 2572 0 
L 213 0 
z
M 1447 428 
Q 1447 291 1525 258 
Q 1603 225 1772 225 
L 2406 225 
Q 2734 225 3029 367 
Q 3325 509 3519 763 
Q 3722 1031 3790 1364 
Q 3859 1697 3859 2144 
Q 3859 2609 3790 2959 
Q 3722 3309 3519 3584 
Q 3328 3856 3034 4001 
Q 2741 4147 2406 4147 
L 1772 4147 
Q 1656 4147 1592 4137 
Q 1528 4128 1487 4083 
Q 1447 4038 1447 3944 
L 1447 428 
z
" transform="scale(0.015625)"/>
       <path id="Cmr10-62" d="M 666 0 
L 666 3788 
Q 666 3959 614 4036 
Q 563 4113 466 4130 
Q 369 4147 166 4147 
L 166 4372 
L 1113 4441 
L 1113 2438 
Q 1219 2556 1361 2645 
Q 1503 2734 1665 2781 
Q 1828 2828 1997 2828 
Q 2284 2828 2529 2712 
Q 2775 2597 2956 2394 
Q 3138 2191 3239 1927 
Q 3341 1663 3341 1381 
Q 3341 994 3152 659 
Q 2963 325 2636 126 
Q 2309 -72 1919 -72 
Q 1675 -72 1447 53 
Q 1219 178 1069 384 
L 850 0 
L 666 0 
z
M 1131 628 
Q 1238 394 1438 245 
Q 1638 97 1881 97 
Q 2213 97 2417 287 
Q 2622 478 2703 768 
Q 2784 1059 2784 1381 
Q 2784 1922 2644 2203 
Q 2581 2328 2473 2434 
Q 2366 2541 2233 2602 
Q 2100 2663 1953 2663 
Q 1697 2663 1478 2527 
Q 1259 2391 1131 2163 
L 1131 628 
z
" transform="scale(0.015625)"/>
       <path id="Cmr10-50" d="M 213 0 
L 213 225 
Q 872 225 872 428 
L 872 3944 
Q 872 4147 213 4147 
L 213 4372 
L 2491 4372 
Q 2841 4372 3191 4228 
Q 3541 4084 3767 3809 
Q 3994 3534 3994 3169 
Q 3994 2813 3766 2544 
Q 3538 2275 3191 2136 
Q 2844 1997 2491 1997 
L 1466 1997 
L 1466 428 
Q 1466 225 2125 225 
L 2125 0 
L 213 0 
z
M 1447 2188 
L 2316 2188 
Q 2669 2188 2887 2289 
Q 3106 2391 3207 2605 
Q 3309 2819 3309 3169 
Q 3309 3691 3079 3919 
Q 2850 4147 2316 4147 
L 1772 4147 
Q 1656 4147 1592 4137 
Q 1528 4128 1487 4083 
Q 1447 4038 1447 3944 
L 1447 2188 
z
" transform="scale(0.015625)"/>
      </defs>
      <use xlink:href="#Cmr10-44"/>
      <use xlink:href="#Cmr10-65" x="76.318359"/>
      <use xlink:href="#Cmr10-65" x="120.703125"/>
      <use xlink:href="#Cmr10-70" x="165.087891"/>
      <use xlink:href="#Cmr10-4c" x="220.605469"/>
      <use xlink:href="#Cmr10-61" x="283.105469"/>
      <use xlink:href="#Cmr10-62" x="333.105469"/>
      <use xlink:href="#Cmr10-56" x="388.623047"/>
      <use xlink:href="#Cmr10-33" x="463.623047"/>
      <use xlink:href="#Cmr10-50" x="513.623047"/>
      <use xlink:href="#Cmr10-6c" x="581.640625"/>
      <use xlink:href="#Cmr10-75" x="609.326172"/>
      <use xlink:href="#Cmr10-73" x="664.84375"/>
     </g>
    </g>
    <g id="patch_10">
     <path d="M 559.123317 67.66698 
L 716.99976 67.66698 
L 716.99976 54.419647 
L 559.123317 54.419647 
z
" style="fill: #ffffff; stroke: #000000; stroke-linejoin: miter"/>
    </g>
    <g id="text_21">
     <!-- 0.97503 -->
     <g transform="translate(668.443366 63.543314) scale(0.1 -0.1)">
      <defs>
       <path id="Cmr10-37" d="M 1113 166 
Q 1113 522 1175 862 
Q 1238 1203 1358 1536 
Q 1478 1869 1648 2189 
Q 1819 2509 2022 2791 
L 2606 3603 
L 1875 3603 
Q 738 3603 703 3572 
Q 619 3469 544 2981 
L 359 2981 
L 569 4325 
L 756 4325 
L 756 4306 
Q 756 4191 1147 4156 
Q 1538 4122 1913 4122 
L 3103 4122 
L 3103 3956 
Q 3103 3950 3101 3947 
Q 3100 3944 3097 3938 
L 2216 2700 
Q 1891 2219 1809 1631 
Q 1728 1044 1728 166 
Q 1728 41 1637 -50 
Q 1547 -141 1422 -141 
Q 1294 -141 1203 -50 
Q 1113 41 1113 166 
z
" transform="scale(0.015625)"/>
      </defs>
      <use xlink:href="#Cmr10-30"/>
      <use xlink:href="#Cmr10-2e" x="50"/>
      <use xlink:href="#Cmr10-39" x="77.685547"/>
      <use xlink:href="#Cmr10-37" x="127.685547"/>
      <use xlink:href="#Cmr10-35" x="177.685547"/>
      <use xlink:href="#Cmr10-30" x="227.685547"/>
      <use xlink:href="#Cmr10-33" x="277.685547"/>
     </g>
    </g>
    <g id="patch_11">
     <path d="M 401.246875 80.914313 
L 559.123317 80.914313 
L 559.123317 67.66698 
L 401.246875 67.66698 
z
" style="fill: #ffffff; stroke: #000000; stroke-linejoin: miter"/>
    </g>
    <g id="text_22">
     <!-- MAnet -->
     <g transform="translate(512.802861 76.790647) scale(0.1 -0.1)">
      <defs>
       <path id="Cmr10-4d" d="M 225 0 
L 225 225 
Q 884 225 884 603 
L 884 3944 
Q 884 4147 225 4147 
L 225 4372 
L 1434 4372 
Q 1513 4372 1538 4300 
L 2931 678 
L 4325 4300 
Q 4350 4372 4428 4372 
L 5638 4372 
L 5638 4147 
Q 4978 4147 4978 3944 
L 4978 428 
Q 4978 225 5638 225 
L 5638 0 
L 3775 0 
L 3775 225 
Q 4434 225 4434 428 
L 4434 4153 
L 2859 72 
Q 2831 0 2753 0 
Q 2672 0 2644 72 
L 1088 4103 
L 1088 603 
Q 1088 225 1747 225 
L 1747 0 
L 225 0 
z
" transform="scale(0.015625)"/>
       <path id="Cmr10-6e" d="M 191 0 
L 191 225 
Q 409 225 550 259 
Q 691 294 691 428 
L 691 2175 
Q 691 2347 639 2423 
Q 588 2500 491 2517 
Q 394 2534 191 2534 
L 191 2759 
L 1119 2828 
L 1119 2203 
Q 1247 2478 1498 2653 
Q 1750 2828 2047 2828 
Q 2491 2828 2714 2615 
Q 2938 2403 2938 1966 
L 2938 428 
Q 2938 294 3078 259 
Q 3219 225 3438 225 
L 3438 0 
L 1972 0 
L 1972 225 
Q 2191 225 2331 259 
Q 2472 294 2472 428 
L 2472 1947 
Q 2472 2259 2381 2461 
Q 2291 2663 2009 2663 
Q 1638 2663 1398 2366 
Q 1159 2069 1159 1691 
L 1159 428 
Q 1159 294 1300 259 
Q 1441 225 1656 225 
L 1656 0 
L 191 0 
z
" transform="scale(0.015625)"/>
      </defs>
      <use xlink:href="#Cmr10-4d"/>
      <use xlink:href="#Cmr10-41" x="91.601562"/>
      <use xlink:href="#Cmr10-6e" x="166.601562"/>
      <use xlink:href="#Cmr10-65" x="222.119141"/>
      <use xlink:href="#Cmr10-74" x="266.503906"/>
     </g>
    </g>
    <g id="patch_12">
     <path d="M 559.123317 80.914313 
L 716.99976 80.914313 
L 716.99976 67.66698 
L 559.123317 67.66698 
z
" style="fill: #ffffff; stroke: #000000; stroke-linejoin: miter"/>
    </g>
    <g id="text_23">
     <!-- 0.96741 -->
     <g transform="translate(668.443366 76.790647) scale(0.1 -0.1)">
      <use xlink:href="#Cmr10-30"/>
      <use xlink:href="#Cmr10-2e" x="50"/>
      <use xlink:href="#Cmr10-39" x="77.685547"/>
      <use xlink:href="#Cmr10-36" x="127.685547"/>
      <use xlink:href="#Cmr10-37" x="177.685547"/>
      <use xlink:href="#Cmr10-34" x="227.685547"/>
      <use xlink:href="#Cmr10-31" x="277.685547"/>
     </g>
    </g>
    <g id="patch_13">
     <path d="M 401.246875 94.161646 
L 559.123317 94.161646 
L 559.123317 80.914313 
L 401.246875 80.914313 
z
" style="fill: #ffffff; stroke: #000000; stroke-linejoin: miter"/>
    </g>
    <g id="text_24">
     <!-- FPN -->
     <g transform="translate(522.515361 90.03798) scale(0.1 -0.1)">
      <defs>
       <path id="Cmr10-46" d="M 197 0 
L 197 225 
Q 856 225 856 428 
L 856 3944 
Q 856 4147 197 4147 
L 197 4372 
L 3725 4372 
L 3903 2906 
L 3719 2906 
Q 3675 3309 3601 3542 
Q 3528 3775 3387 3908 
Q 3247 4041 3011 4094 
Q 2775 4147 2363 4147 
L 1778 4147 
Q 1663 4147 1598 4137 
Q 1534 4128 1493 4083 
Q 1453 4038 1453 3944 
L 1453 2297 
L 1906 2297 
Q 2234 2297 2387 2355 
Q 2541 2413 2598 2566 
Q 2656 2719 2656 3047 
L 2841 3047 
L 2841 1325 
L 2656 1325 
Q 2656 1653 2598 1806 
Q 2541 1959 2387 2017 
Q 2234 2075 1906 2075 
L 1453 2075 
L 1453 428 
Q 1453 225 2272 225 
L 2272 0 
L 197 0 
z
" transform="scale(0.015625)"/>
       <path id="Cmr10-4e" d="M 197 0 
L 197 225 
Q 856 225 856 603 
L 856 4109 
Q 647 4147 197 4147 
L 197 4372 
L 1422 4372 
Q 1453 4372 1466 4347 
L 3731 1013 
L 3731 3769 
Q 3731 4147 3072 4147 
L 3072 4372 
L 4594 4372 
L 4594 4147 
Q 3938 4147 3938 3769 
L 3938 56 
Q 3938 38 3913 19 
Q 3888 0 3872 0 
L 3794 0 
Q 3763 0 3750 25 
L 1063 3981 
L 1063 603 
Q 1063 225 1722 225 
L 1722 0 
L 197 0 
z
" transform="scale(0.015625)"/>
      </defs>
      <use xlink:href="#Cmr10-46"/>
      <use xlink:href="#Cmr10-50" x="65.185547"/>
      <use xlink:href="#Cmr10-4e" x="133.203125"/>
     </g>
    </g>
    <g id="patch_14">
     <path d="M 559.123317 94.161646 
L 716.99976 94.161646 
L 716.99976 80.914313 
L 559.123317 80.914313 
z
" style="fill: #ffffff; stroke: #000000; stroke-linejoin: miter"/>
    </g>
    <g id="text_25">
     <!-- 0.96534 -->
     <g transform="translate(668.443366 90.03798) scale(0.1 -0.1)">
      <use xlink:href="#Cmr10-30"/>
      <use xlink:href="#Cmr10-2e" x="50"/>
      <use xlink:href="#Cmr10-39" x="77.685547"/>
      <use xlink:href="#Cmr10-36" x="127.685547"/>
      <use xlink:href="#Cmr10-35" x="177.685547"/>
      <use xlink:href="#Cmr10-33" x="227.685547"/>
      <use xlink:href="#Cmr10-34" x="277.685547"/>
     </g>
    </g>
    <g id="patch_15">
     <path d="M 401.246875 107.408979 
L 559.123317 107.408979 
L 559.123317 94.161646 
L 401.246875 94.161646 
z
" style="fill: #ffffff; stroke: #000000; stroke-linejoin: miter"/>
    </g>
    <g id="text_26">
     <!-- PAN -->
     <g transform="translate(521.534111 103.285312) scale(0.1 -0.1)">
      <use xlink:href="#Cmr10-50"/>
      <use xlink:href="#Cmr10-41" x="68.017578"/>
      <use xlink:href="#Cmr10-4e" x="143.017578"/>
     </g>
    </g>
    <g id="patch_16">
     <path d="M 559.123317 107.408979 
L 716.99976 107.408979 
L 716.99976 94.161646 
L 559.123317 94.161646 
z
" style="fill: #ffffff; stroke: #000000; stroke-linejoin: miter"/>
    </g>
    <g id="text_27">
     <!-- 0.96251 -->
     <g transform="translate(668.443366 103.285312) scale(0.1 -0.1)">
      <use xlink:href="#Cmr10-30"/>
      <use xlink:href="#Cmr10-2e" x="50"/>
      <use xlink:href="#Cmr10-39" x="77.685547"/>
      <use xlink:href="#Cmr10-36" x="127.685547"/>
      <use xlink:href="#Cmr10-32" x="177.685547"/>
      <use xlink:href="#Cmr10-35" x="227.685547"/>
      <use xlink:href="#Cmr10-31" x="277.685547"/>
     </g>
    </g>
    <g id="patch_17">
     <path d="M 401.246875 120.656312 
L 559.123317 120.656312 
L 559.123317 107.408979 
L 401.246875 107.408979 
z
" style="fill: #ffffff; stroke: #000000; stroke-linejoin: miter"/>
    </g>
    <g id="text_28">
     <!-- UnetPlusPlus -->
     <g transform="translate(483.838798 116.532645) scale(0.1 -0.1)">
      <use xlink:href="#Cmr10-55"/>
      <use xlink:href="#Cmr10-6e" x="75"/>
      <use xlink:href="#Cmr10-65" x="130.517578"/>
      <use xlink:href="#Cmr10-74" x="174.902344"/>
      <use xlink:href="#Cmr10-50" x="213.720703"/>
      <use xlink:href="#Cmr10-6c" x="281.738281"/>
      <use xlink:href="#Cmr10-75" x="309.423828"/>
      <use xlink:href="#Cmr10-73" x="364.941406"/>
      <use xlink:href="#Cmr10-50" x="404.345703"/>
      <use xlink:href="#Cmr10-6c" x="472.363281"/>
      <use xlink:href="#Cmr10-75" x="500.048828"/>
      <use xlink:href="#Cmr10-73" x="555.566406"/>
     </g>
    </g>
    <g id="patch_18">
     <path d="M 559.123317 120.656312 
L 716.99976 120.656312 
L 716.99976 107.408979 
L 559.123317 107.408979 
z
" style="fill: #ffffff; stroke: #000000; stroke-linejoin: miter"/>
    </g>
    <g id="text_29">
     <!-- 0.95647 -->
     <g transform="translate(668.443366 116.532645) scale(0.1 -0.1)">
      <use xlink:href="#Cmr10-30"/>
      <use xlink:href="#Cmr10-2e" x="50"/>
      <use xlink:href="#Cmr10-39" x="77.685547"/>
      <use xlink:href="#Cmr10-35" x="127.685547"/>
      <use xlink:href="#Cmr10-36" x="177.685547"/>
      <use xlink:href="#Cmr10-34" x="227.685547"/>
      <use xlink:href="#Cmr10-37" x="277.685547"/>
     </g>
    </g>
    <g id="patch_19">
     <path d="M 401.246875 133.903645 
L 559.123317 133.903645 
L 559.123317 120.656312 
L 401.246875 120.656312 
z
" style="fill: #ffffff; stroke: #000000; stroke-linejoin: miter"/>
    </g>
    <g id="text_30">
     <!-- PSPNet -->
     <g transform="translate(508.360673 129.779978) scale(0.1 -0.1)">
      <defs>
       <path id="Cmr10-53" d="M 359 -91 
L 359 1403 
Q 359 1453 416 1453 
L 494 1453 
Q 513 1453 528 1437 
Q 544 1422 544 1403 
Q 544 775 933 429 
Q 1322 84 1953 84 
Q 2175 84 2362 212 
Q 2550 341 2654 548 
Q 2759 756 2759 978 
Q 2759 1172 2681 1355 
Q 2603 1538 2456 1672 
Q 2309 1806 2125 1850 
L 1294 2053 
Q 881 2163 620 2502 
Q 359 2841 359 3263 
Q 359 3594 528 3884 
Q 697 4175 983 4344 
Q 1269 4513 1600 4513 
Q 2241 4513 2619 4078 
L 2881 4494 
Q 2900 4513 2925 4513 
L 2969 4513 
Q 2988 4513 3005 4498 
Q 3022 4484 3022 4459 
L 3022 2975 
Q 3022 2919 2969 2919 
L 2894 2919 
Q 2834 2919 2834 2975 
Q 2834 3138 2779 3331 
Q 2725 3525 2628 3703 
Q 2531 3881 2419 3994 
Q 2109 4306 1600 4306 
Q 1381 4306 1197 4195 
Q 1013 4084 903 3893 
Q 794 3703 794 3494 
Q 794 3219 964 2995 
Q 1134 2772 1409 2700 
L 2241 2497 
Q 2447 2447 2630 2317 
Q 2813 2188 2934 2016 
Q 3056 1844 3125 1633 
Q 3194 1422 3194 1197 
Q 3194 850 3034 542 
Q 2875 234 2586 46 
Q 2297 -141 1953 -141 
Q 1741 -141 1519 -94 
Q 1297 -47 1109 50 
Q 922 147 769 300 
L 500 -122 
Q 481 -141 453 -141 
L 416 -141 
Q 359 -141 359 -91 
z
" transform="scale(0.015625)"/>
      </defs>
      <use xlink:href="#Cmr10-50"/>
      <use xlink:href="#Cmr10-53" x="68.017578"/>
      <use xlink:href="#Cmr10-50" x="123.535156"/>
      <use xlink:href="#Cmr10-4e" x="191.552734"/>
      <use xlink:href="#Cmr10-65" x="266.552734"/>
      <use xlink:href="#Cmr10-74" x="310.9375"/>
     </g>
    </g>
    <g id="patch_20">
     <path d="M 559.123317 133.903645 
L 716.99976 133.903645 
L 716.99976 120.656312 
L 559.123317 120.656312 
z
" style="fill: #ffffff; stroke: #000000; stroke-linejoin: miter"/>
    </g>
    <g id="text_31">
     <!-- 0.95515 -->
     <g transform="translate(668.443366 129.779978) scale(0.1 -0.1)">
      <use xlink:href="#Cmr10-30"/>
      <use xlink:href="#Cmr10-2e" x="50"/>
      <use xlink:href="#Cmr10-39" x="77.685547"/>
      <use xlink:href="#Cmr10-35" x="127.685547"/>
      <use xlink:href="#Cmr10-35" x="177.685547"/>
      <use xlink:href="#Cmr10-31" x="227.685547"/>
      <use xlink:href="#Cmr10-35" x="277.685547"/>
     </g>
    </g>
    <g id="patch_21">
     <path d="M 401.246875 147.150978 
L 559.123317 147.150978 
L 559.123317 133.903645 
L 401.246875 133.903645 
z
" style="fill: #ffffff; stroke: #000000; stroke-linejoin: miter"/>
    </g>
    <g id="text_32">
     <!-- Linknet -->
     <g transform="translate(509.624736 143.027311) scale(0.1 -0.1)">
      <defs>
       <path id="Cmr10-6b" d="M 166 0 
L 166 225 
Q 384 225 525 259 
Q 666 294 666 428 
L 666 3788 
Q 666 3959 614 4036 
Q 563 4113 466 4130 
Q 369 4147 166 4147 
L 166 4372 
L 1113 4441 
L 1113 1403 
L 1972 2156 
Q 2100 2278 2100 2381 
Q 2100 2456 2047 2495 
Q 1994 2534 1919 2534 
L 1919 2759 
L 3122 2759 
L 3122 2534 
Q 2688 2534 2253 2156 
L 1797 1759 
L 2613 603 
Q 2781 363 2895 294 
Q 3009 225 3272 225 
L 3272 0 
L 1997 0 
L 1997 225 
Q 2216 225 2216 359 
Q 2216 456 2100 603 
L 1484 1478 
L 1094 1141 
L 1094 428 
Q 1094 294 1236 259 
Q 1378 225 1594 225 
L 1594 0 
L 166 0 
z
" transform="scale(0.015625)"/>
      </defs>
      <use xlink:href="#Cmr10-4c"/>
      <use xlink:href="#Cmr10-69" x="62.5"/>
      <use xlink:href="#Cmr10-6e" x="90.185547"/>
      <use xlink:href="#Cmr10-6b" x="145.703125"/>
      <use xlink:href="#Cmr10-6e" x="198.388672"/>
      <use xlink:href="#Cmr10-65" x="253.90625"/>
      <use xlink:href="#Cmr10-74" x="298.291016"/>
     </g>
    </g>
    <g id="patch_22">
     <path d="M 559.123317 147.150978 
L 716.99976 147.150978 
L 716.99976 133.903645 
L 559.123317 133.903645 
z
" style="fill: #ffffff; stroke: #000000; stroke-linejoin: miter"/>
    </g>
    <g id="text_33">
     <!-- 0.95434 -->
     <g transform="translate(668.443366 143.027311) scale(0.1 -0.1)">
      <use xlink:href="#Cmr10-30"/>
      <use xlink:href="#Cmr10-2e" x="50"/>
      <use xlink:href="#Cmr10-39" x="77.685547"/>
      <use xlink:href="#Cmr10-35" x="127.685547"/>
      <use xlink:href="#Cmr10-34" x="177.685547"/>
      <use xlink:href="#Cmr10-33" x="227.685547"/>
      <use xlink:href="#Cmr10-34" x="277.685547"/>
     </g>
    </g>
    <g id="patch_23">
     <path d="M 401.246875 160.398311 
L 559.123317 160.398311 
L 559.123317 147.150978 
L 401.246875 147.150978 
z
" style="fill: #ffffff; stroke: #000000; stroke-linejoin: miter"/>
    </g>
    <g id="text_34">
     <!-- Unet -->
     <g transform="translate(521.963798 156.274644) scale(0.1 -0.1)">
      <use xlink:href="#Cmr10-55"/>
      <use xlink:href="#Cmr10-6e" x="75"/>
      <use xlink:href="#Cmr10-65" x="130.517578"/>
      <use xlink:href="#Cmr10-74" x="174.902344"/>
     </g>
    </g>
    <g id="patch_24">
     <path d="M 559.123317 160.398311 
L 716.99976 160.398311 
L 716.99976 147.150978 
L 559.123317 147.150978 
z
" style="fill: #ffffff; stroke: #000000; stroke-linejoin: miter"/>
    </g>
    <g id="text_35">
     <!-- 0.9542 -->
     <g transform="translate(673.443366 156.274644) scale(0.1 -0.1)">
      <use xlink:href="#Cmr10-30"/>
      <use xlink:href="#Cmr10-2e" x="50"/>
      <use xlink:href="#Cmr10-39" x="77.685547"/>
      <use xlink:href="#Cmr10-35" x="127.685547"/>
      <use xlink:href="#Cmr10-34" x="177.685547"/>
      <use xlink:href="#Cmr10-32" x="227.685547"/>
     </g>
    </g>
   </g>
   <g id="text_36">
    <!-- B -->
    <g transform="translate(404.892885 32.845845) scale(0.12 -0.12)">
     <defs>
      <path id="Cmr10-42" d="M 219 0 
L 219 225 
Q 878 225 878 428 
L 878 3944 
Q 878 4147 219 4147 
L 219 4372 
L 2572 4372 
Q 2897 4372 3228 4245 
Q 3559 4119 3776 3870 
Q 3994 3622 3994 3284 
Q 3994 2894 3673 2630 
Q 3353 2366 2925 2284 
Q 3203 2284 3497 2131 
Q 3791 1978 3978 1722 
Q 4166 1466 4166 1178 
Q 4166 828 3958 559 
Q 3750 291 3419 145 
Q 3088 0 2753 0 
L 219 0 
z
M 1434 428 
Q 1434 291 1512 258 
Q 1591 225 1759 225 
L 2572 225 
Q 2822 225 3036 356 
Q 3250 488 3375 708 
Q 3500 928 3500 1178 
Q 3500 1422 3397 1655 
Q 3294 1888 3101 2038 
Q 2909 2188 2663 2188 
L 1434 2188 
L 1434 428 
z
M 1434 2356 
L 2394 2356 
Q 2588 2356 2758 2426 
Q 2928 2497 3064 2630 
Q 3200 2763 3273 2930 
Q 3347 3097 3347 3284 
Q 3347 3450 3292 3603 
Q 3238 3756 3131 3881 
Q 3025 4006 2881 4076 
Q 2738 4147 2572 4147 
L 1759 4147 
Q 1644 4147 1580 4137 
Q 1516 4128 1475 4083 
Q 1434 4038 1434 3944 
L 1434 2356 
z
" transform="scale(0.015625)"/>
     </defs>
     <use xlink:href="#Cmr10-42"/>
    </g>
   </g>
  </g>
  <g id="axes_3">
   <g id="patch_25">
    <path d="M 40.647115 400.24351 
L 356.4 400.24351 
L 356.4 233.327115 
L 40.647115 233.327115 
z
" style="fill: #ffffff"/>
   </g>
   <g id="matplotlib.axis_3">
    <g id="xtick_8">
     <g id="line2d_22">
      <g>
       <use xlink:href="#m7664583fc1" x="54.999519" y="400.24351" style="stroke: #000000; stroke-width: 0.8"/>
      </g>
     </g>
     <g id="text_37">
      <!-- 0 -->
      <g transform="translate(52.499519 414.182572) scale(0.1 -0.1)">
       <use xlink:href="#Cmr10-30"/>
      </g>
     </g>
    </g>
    <g id="xtick_9">
     <g id="line2d_23">
      <g>
       <use xlink:href="#m7664583fc1" x="100.322899" y="400.24351" style="stroke: #000000; stroke-width: 0.8"/>
      </g>
     </g>
     <g id="text_38">
      <!-- 3 -->
      <g transform="translate(97.822899 414.182572) scale(0.1 -0.1)">
       <use xlink:href="#Cmr10-33"/>
      </g>
     </g>
    </g>
    <g id="xtick_10">
     <g id="line2d_24">
      <g>
       <use xlink:href="#m7664583fc1" x="145.64628" y="400.24351" style="stroke: #000000; stroke-width: 0.8"/>
      </g>
     </g>
     <g id="text_39">
      <!-- 6 -->
      <g transform="translate(143.14628 414.182572) scale(0.1 -0.1)">
       <use xlink:href="#Cmr10-36"/>
      </g>
     </g>
    </g>
    <g id="xtick_11">
     <g id="line2d_25">
      <g>
       <use xlink:href="#m7664583fc1" x="190.969661" y="400.24351" style="stroke: #000000; stroke-width: 0.8"/>
      </g>
     </g>
     <g id="text_40">
      <!-- 9 -->
      <g transform="translate(188.469661 414.182572) scale(0.1 -0.1)">
       <use xlink:href="#Cmr10-39"/>
      </g>
     </g>
    </g>
    <g id="xtick_12">
     <g id="line2d_26">
      <g>
       <use xlink:href="#m7664583fc1" x="236.293041" y="400.24351" style="stroke: #000000; stroke-width: 0.8"/>
      </g>
     </g>
     <g id="text_41">
      <!-- 12 -->
      <g transform="translate(231.293041 414.182572) scale(0.1 -0.1)">
       <use xlink:href="#Cmr10-31"/>
       <use xlink:href="#Cmr10-32" x="50"/>
      </g>
     </g>
    </g>
    <g id="xtick_13">
     <g id="line2d_27">
      <g>
       <use xlink:href="#m7664583fc1" x="281.616422" y="400.24351" style="stroke: #000000; stroke-width: 0.8"/>
      </g>
     </g>
     <g id="text_42">
      <!-- 15 -->
      <g transform="translate(276.616422 414.182572) scale(0.1 -0.1)">
       <use xlink:href="#Cmr10-31"/>
       <use xlink:href="#Cmr10-35" x="50"/>
      </g>
     </g>
    </g>
    <g id="xtick_14">
     <g id="line2d_28">
      <g>
       <use xlink:href="#m7664583fc1" x="326.939803" y="400.24351" style="stroke: #000000; stroke-width: 0.8"/>
      </g>
     </g>
     <g id="text_43">
      <!-- 18 -->
      <g transform="translate(321.939803 414.182572) scale(0.1 -0.1)">
       <use xlink:href="#Cmr10-31"/>
       <use xlink:href="#Cmr10-38" x="50"/>
      </g>
     </g>
    </g>
    <g id="text_44">
     <!-- Epoch -->
     <g transform="translate(184.851682 427.060698) scale(0.1 -0.1)">
      <use xlink:href="#Cmr10-45"/>
      <use xlink:href="#Cmr10-70" x="68.017578"/>
      <use xlink:href="#Cmr10-6f" x="123.535156"/>
      <use xlink:href="#Cmr10-63" x="173.535156"/>
      <use xlink:href="#Cmr10-68" x="217.919922"/>
     </g>
    </g>
   </g>
   <g id="matplotlib.axis_4">
    <g id="ytick_7">
     <g id="line2d_29">
      <g>
       <use xlink:href="#m92fd97a1df" x="40.647115" y="391.607518" style="stroke: #000000; stroke-width: 0.8"/>
      </g>
     </g>
     <g id="text_45">
      <!-- 0.75 -->
      <g transform="translate(15.878365 395.077049) scale(0.1 -0.1)">
       <use xlink:href="#Cmr10-30"/>
       <use xlink:href="#Cmr10-2e" x="50"/>
       <use xlink:href="#Cmr10-37" x="77.685547"/>
       <use xlink:href="#Cmr10-35" x="127.685547"/>
      </g>
     </g>
    </g>
    <g id="ytick_8">
     <g id="line2d_30">
      <g>
       <use xlink:href="#m92fd97a1df" x="40.647115" y="359.872319" style="stroke: #000000; stroke-width: 0.8"/>
      </g>
     </g>
     <g id="text_46">
      <!-- 0.80 -->
      <g transform="translate(15.878365 363.34185) scale(0.1 -0.1)">
       <use xlink:href="#Cmr10-30"/>
       <use xlink:href="#Cmr10-2e" x="50"/>
       <use xlink:href="#Cmr10-38" x="77.685547"/>
       <use xlink:href="#Cmr10-30" x="127.685547"/>
      </g>
     </g>
    </g>
    <g id="ytick_9">
     <g id="line2d_31">
      <g>
       <use xlink:href="#m92fd97a1df" x="40.647115" y="328.13712" style="stroke: #000000; stroke-width: 0.8"/>
      </g>
     </g>
     <g id="text_47">
      <!-- 0.85 -->
      <g transform="translate(15.878365 331.606652) scale(0.1 -0.1)">
       <use xlink:href="#Cmr10-30"/>
       <use xlink:href="#Cmr10-2e" x="50"/>
       <use xlink:href="#Cmr10-38" x="77.685547"/>
       <use xlink:href="#Cmr10-35" x="127.685547"/>
      </g>
     </g>
    </g>
    <g id="ytick_10">
     <g id="line2d_32">
      <g>
       <use xlink:href="#m92fd97a1df" x="40.647115" y="296.401921" style="stroke: #000000; stroke-width: 0.8"/>
      </g>
     </g>
     <g id="text_48">
      <!-- 0.90 -->
      <g transform="translate(15.878365 299.871453) scale(0.1 -0.1)">
       <use xlink:href="#Cmr10-30"/>
       <use xlink:href="#Cmr10-2e" x="50"/>
       <use xlink:href="#Cmr10-39" x="77.685547"/>
       <use xlink:href="#Cmr10-30" x="127.685547"/>
      </g>
     </g>
    </g>
    <g id="ytick_11">
     <g id="line2d_33">
      <g>
       <use xlink:href="#m92fd97a1df" x="40.647115" y="264.666722" style="stroke: #000000; stroke-width: 0.8"/>
      </g>
     </g>
     <g id="text_49">
      <!-- 0.95 -->
      <g transform="translate(15.878365 268.136254) scale(0.1 -0.1)">
       <use xlink:href="#Cmr10-30"/>
       <use xlink:href="#Cmr10-2e" x="50"/>
       <use xlink:href="#Cmr10-39" x="77.685547"/>
       <use xlink:href="#Cmr10-35" x="127.685547"/>
      </g>
     </g>
    </g>
    <g id="text_50">
     <!-- Train IoU -->
     <g transform="translate(9.939302 338.730625) rotate(-90) scale(0.1 -0.1)">
      <defs>
       <path id="Cmr10-54" d="M 1081 0 
L 1081 225 
Q 1403 225 1706 261 
Q 2009 297 2009 428 
L 2009 3944 
Q 2009 4081 1932 4114 
Q 1856 4147 1684 4147 
L 1416 4147 
Q 888 4147 666 3916 
Q 550 3800 500 3545 
Q 450 3291 416 2906 
L 231 2906 
L 353 4372 
L 4263 4372 
L 4384 2906 
L 4197 2906 
Q 4159 3319 4114 3561 
Q 4069 3803 3950 3916 
Q 3725 4147 3200 4147 
L 2931 4147 
Q 2816 4147 2752 4137 
Q 2688 4128 2647 4083 
Q 2606 4038 2606 3944 
L 2606 428 
Q 2606 297 2909 261 
Q 3213 225 3531 225 
L 3531 0 
L 1081 0 
z
" transform="scale(0.015625)"/>
      </defs>
      <use xlink:href="#Cmr10-54"/>
      <use xlink:href="#Cmr10-72" x="72.216797"/>
      <use xlink:href="#Cmr10-61" x="111.328125"/>
      <use xlink:href="#Cmr10-69" x="161.328125"/>
      <use xlink:href="#Cmr10-6e" x="189.013672"/>
      <use xlink:href="#Cmr10-20" x="244.53125"/>
      <use xlink:href="#Cmr10-49" x="277.832031"/>
      <use xlink:href="#Cmr10-6f" x="313.916016"/>
      <use xlink:href="#Cmr10-55" x="363.916016"/>
     </g>
    </g>
   </g>
   <g id="line2d_34">
    <path d="M 54.999519 296.267833 
L 70.107312 268.786103 
L 85.215106 264.112449 
L 100.322899 260.534392 
L 115.430693 258.384153 
L 130.538487 254.337646 
L 145.64628 252.389665 
L 160.754074 251.477251 
L 175.861867 249.930857 
L 190.969661 248.803798 
L 206.077454 248.013043 
L 221.185248 247.351636 
L 236.293041 246.466719 
L 251.400835 244.50691 
L 266.508628 243.596616 
L 281.616422 243.089117 
L 296.724216 242.040623 
L 311.832009 241.529259 
L 326.939803 241.203594 
L 342.047596 240.914224 
" clip-path="url(#p3248639a6d)" style="fill: none; stroke: #46f0f0; stroke-width: 1.5; stroke-linecap: square"/>
   </g>
   <g id="line2d_35">
    <path d="M 54.999519 308.024851 
L 70.107312 271.552965 
L 85.215106 263.645922 
L 100.322899 258.070445 
L 115.430693 254.855085 
L 130.538487 253.130602 
L 145.64628 251.742251 
L 160.754074 250.256262 
L 175.861867 248.870338 
L 190.969661 248.056143 
L 206.077454 247.39327 
L 221.185248 246.713217 
L 236.293041 245.892149 
L 251.400835 245.83492 
L 266.508628 245.406811 
L 281.616422 244.950724 
L 296.724216 243.024919 
L 311.832009 242.716671 
L 326.939803 242.079098 
L 342.047596 241.795749 
" clip-path="url(#p3248639a6d)" style="fill: none; stroke: #000000; stroke-width: 1.5; stroke-linecap: square"/>
   </g>
   <g id="line2d_36">
    <path d="M 54.999519 348.412552 
L 70.107312 278.44851 
L 85.215106 271.518649 
L 100.322899 267.477449 
L 115.430693 263.947615 
L 130.538487 261.68779 
L 145.64628 258.626492 
L 160.754074 256.765269 
L 175.861867 254.770006 
L 190.969661 253.737076 
L 206.077454 252.943681 
L 221.185248 251.416486 
L 236.293041 250.150877 
L 251.400835 249.779184 
L 266.508628 248.991659 
L 281.616422 247.996354 
L 296.724216 247.604975 
L 311.832009 247.40505 
L 326.939803 245.177771 
L 342.047596 243.77323 
" clip-path="url(#p3248639a6d)" style="fill: none; stroke: #f58231; stroke-width: 1.5; stroke-linecap: square"/>
   </g>
   <g id="line2d_37">
    <path d="M 54.999519 302.113805 
L 70.107312 272.77024 
L 85.215106 267.328954 
L 100.322899 264.481491 
L 115.430693 262.50613 
L 130.538487 260.113218 
L 145.64628 257.965613 
L 160.754074 256.57632 
L 175.861867 255.612611 
L 190.969661 254.246146 
L 206.077454 252.880912 
L 221.185248 252.177766 
L 236.293041 250.942104 
L 251.400835 250.68488 
L 266.508628 249.523386 
L 281.616422 249.21495 
L 296.724216 248.429027 
L 311.832009 246.597479 
L 326.939803 244.893936 
L 342.047596 244.131772 
" clip-path="url(#p3248639a6d)" style="fill: none; stroke: #f032e6; stroke-width: 1.5; stroke-linecap: square"/>
   </g>
   <g id="line2d_38">
    <path d="M 54.999519 301.876938 
L 70.107312 272.795728 
L 85.215106 268.91786 
L 100.322899 266.49339 
L 115.430693 264.329898 
L 130.538487 262.35798 
L 145.64628 260.568589 
L 160.754074 259.464971 
L 175.861867 258.139778 
L 190.969661 257.03069 
L 206.077454 255.866589 
L 221.185248 254.804327 
L 236.293041 253.830481 
L 251.400835 252.935938 
L 266.508628 252.186343 
L 281.616422 251.260599 
L 296.724216 248.451604 
L 311.832009 247.044197 
L 326.939803 246.600106 
L 342.047596 246.011825 
" clip-path="url(#p3248639a6d)" style="fill: none; stroke: #9a6324; stroke-width: 1.5; stroke-linecap: square"/>
   </g>
   <g id="line2d_39">
    <path d="M 54.999519 315.715534 
L 70.107312 273.684417 
L 85.215106 269.77775 
L 100.322899 265.761039 
L 115.430693 264.496121 
L 130.538487 261.066149 
L 145.64628 259.772416 
L 160.754074 257.755536 
L 175.861867 256.436853 
L 190.969661 254.717381 
L 206.077454 253.27087 
L 221.185248 253.132719 
L 236.293041 252.105839 
L 251.400835 250.823512 
L 266.508628 249.540955 
L 281.616422 249.049501 
L 296.724216 248.013533 
L 311.832009 247.183673 
L 326.939803 246.81766 
L 342.047596 246.504314 
" clip-path="url(#p3248639a6d)" style="fill: none; stroke: #e6194b; stroke-width: 1.5; stroke-linecap: square"/>
   </g>
   <g id="line2d_40">
    <path d="M 54.999519 392.656401 
L 70.107312 282.954803 
L 85.215106 274.906316 
L 100.322899 269.97928 
L 115.430693 266.933972 
L 130.538487 264.258599 
L 145.64628 262.752031 
L 160.754074 261.084695 
L 175.861867 259.691396 
L 190.969661 258.044972 
L 206.077454 256.792194 
L 221.185248 255.531302 
L 236.293041 254.278141 
L 251.400835 252.842413 
L 266.508628 252.396162 
L 281.616422 251.283502 
L 296.724216 250.680152 
L 311.832009 249.627701 
L 326.939803 249.043747 
L 342.047596 248.759616 
" clip-path="url(#p3248639a6d)" style="fill: none; stroke: #000075; stroke-width: 1.5; stroke-linecap: square"/>
   </g>
   <g id="line2d_41">
    <path d="M 54.999519 318.162419 
L 70.107312 281.401634 
L 85.215106 278.547233 
L 100.322899 276.152962 
L 115.430693 274.1474 
L 130.538487 272.028984 
L 145.64628 270.440119 
L 160.754074 269.392881 
L 175.861867 268.082205 
L 190.969661 267.151532 
L 206.077454 265.930601 
L 221.185248 265.618742 
L 236.293041 264.217439 
L 251.400835 263.455487 
L 266.508628 262.644673 
L 281.616422 261.732112 
L 296.724216 260.898429 
L 311.832009 260.562736 
L 326.939803 259.585249 
L 342.047596 259.240013 
" clip-path="url(#p3248639a6d)" style="fill: none; stroke: #4363d8; stroke-width: 1.5; stroke-linecap: square"/>
   </g>
   <g id="patch_26">
    <path d="M 40.647115 400.24351 
L 40.647115 233.327115 
" style="fill: none; stroke: #000000; stroke-width: 0.8; stroke-linejoin: miter; stroke-linecap: square"/>
   </g>
   <g id="patch_27">
    <path d="M 356.4 400.24351 
L 356.4 233.327115 
" style="fill: none; stroke: #000000; stroke-width: 0.8; stroke-linejoin: miter; stroke-linecap: square"/>
   </g>
   <g id="patch_28">
    <path d="M 40.647115 400.24351 
L 356.4 400.24351 
" style="fill: none; stroke: #000000; stroke-width: 0.8; stroke-linejoin: miter; stroke-linecap: square"/>
   </g>
   <g id="patch_29">
    <path d="M 40.647115 233.327115 
L 356.4 233.327115 
" style="fill: none; stroke: #000000; stroke-width: 0.8; stroke-linejoin: miter; stroke-linecap: square"/>
   </g>
   <g id="text_51">
    <!-- C -->
    <g transform="translate(44.207812 248.845845) scale(0.12 -0.12)">
     <defs>
      <path id="Cmr10-43" d="M 1459 684 
Q 1678 406 2006 245 
Q 2334 84 2688 84 
Q 2984 84 3237 201 
Q 3491 319 3680 528 
Q 3869 738 3970 1003 
Q 4072 1269 4072 1563 
Q 4072 1613 4128 1613 
L 4206 1613 
Q 4256 1613 4256 1550 
Q 4256 1216 4128 905 
Q 4000 594 3765 358 
Q 3531 122 3226 -9 
Q 2922 -141 2591 -141 
Q 2131 -141 1720 45 
Q 1309 231 1004 554 
Q 700 878 529 1303 
Q 359 1728 359 2188 
Q 359 2647 529 3072 
Q 700 3497 1004 3822 
Q 1309 4147 1720 4330 
Q 2131 4513 2591 4513 
Q 2919 4513 3219 4370 
Q 3519 4228 3744 3969 
L 4116 4494 
Q 4153 4513 4159 4513 
L 4206 4513 
Q 4225 4513 4240 4497 
Q 4256 4481 4256 4459 
L 4256 2731 
Q 4256 2675 4206 2675 
L 4091 2675 
Q 4031 2675 4031 2731 
Q 4031 2916 3957 3144 
Q 3884 3372 3770 3576 
Q 3656 3781 3506 3938 
Q 3147 4288 2681 4288 
Q 2328 4288 2004 4128 
Q 1681 3969 1459 3688 
Q 1225 3388 1134 3005 
Q 1044 2622 1044 2188 
Q 1044 1753 1134 1368 
Q 1225 984 1459 684 
z
" transform="scale(0.015625)"/>
     </defs>
     <use xlink:href="#Cmr10-43"/>
    </g>
   </g>
   <g id="text_52">
    <!-- Train IoU -->
    <g transform="translate(172.189182 227.327115) scale(0.12 -0.12)">
     <use xlink:href="#Cmr10-54"/>
     <use xlink:href="#Cmr10-72" x="72.216797"/>
     <use xlink:href="#Cmr10-61" x="111.328125"/>
     <use xlink:href="#Cmr10-69" x="161.328125"/>
     <use xlink:href="#Cmr10-6e" x="189.013672"/>
     <use xlink:href="#Cmr10-20" x="244.53125"/>
     <use xlink:href="#Cmr10-49" x="277.832031"/>
     <use xlink:href="#Cmr10-6f" x="313.916016"/>
     <use xlink:href="#Cmr10-55" x="363.916016"/>
    </g>
   </g>
   <g id="legend_1">
    <g id="patch_30">
     <path d="M 235.876562 395.24351 
L 349.4 395.24351 
Q 351.4 395.24351 351.4 393.24351 
L 351.4 282.73101 
Q 351.4 280.73101 349.4 280.73101 
L 235.876562 280.73101 
Q 233.876562 280.73101 233.876562 282.73101 
L 233.876562 393.24351 
Q 233.876562 395.24351 235.876562 395.24351 
z
" style="fill: #ffffff; opacity: 0.8; stroke: #cccccc; stroke-linejoin: miter"/>
    </g>
    <g id="line2d_42">
     <path d="M 237.876562 288.23101 
L 247.876562 288.23101 
L 257.876562 288.23101 
" style="fill: none; stroke: #46f0f0; stroke-width: 1.5; stroke-linecap: square"/>
    </g>
    <g id="text_53">
     <!-- 1. FPN -->
     <g transform="translate(265.876562 291.73101) scale(0.1 -0.1)">
      <use xlink:href="#Cmr10-31"/>
      <use xlink:href="#Cmr10-2e" x="50"/>
      <use xlink:href="#Cmr10-20" x="77.685547"/>
      <use xlink:href="#Cmr10-46" x="110.986328"/>
      <use xlink:href="#Cmr10-50" x="176.171875"/>
      <use xlink:href="#Cmr10-4e" x="244.189453"/>
     </g>
    </g>
    <g id="line2d_43">
     <path d="M 237.876562 302.170072 
L 247.876562 302.170072 
L 257.876562 302.170072 
" style="fill: none; stroke: #000000; stroke-width: 1.5; stroke-linecap: square"/>
    </g>
    <g id="text_54">
     <!-- 2. DeepLabV3Plus -->
     <g transform="translate(265.876562 305.670072) scale(0.1 -0.1)">
      <use xlink:href="#Cmr10-32"/>
      <use xlink:href="#Cmr10-2e" x="50"/>
      <use xlink:href="#Cmr10-20" x="77.685547"/>
      <use xlink:href="#Cmr10-44" x="110.986328"/>
      <use xlink:href="#Cmr10-65" x="187.304688"/>
      <use xlink:href="#Cmr10-65" x="231.689453"/>
      <use xlink:href="#Cmr10-70" x="276.074219"/>
      <use xlink:href="#Cmr10-4c" x="331.591797"/>
      <use xlink:href="#Cmr10-61" x="394.091797"/>
      <use xlink:href="#Cmr10-62" x="444.091797"/>
      <use xlink:href="#Cmr10-56" x="499.609375"/>
      <use xlink:href="#Cmr10-33" x="574.609375"/>
      <use xlink:href="#Cmr10-50" x="624.609375"/>
      <use xlink:href="#Cmr10-6c" x="692.626953"/>
      <use xlink:href="#Cmr10-75" x="720.3125"/>
      <use xlink:href="#Cmr10-73" x="775.830078"/>
     </g>
    </g>
    <g id="line2d_44">
     <path d="M 237.876562 316.109135 
L 247.876562 316.109135 
L 257.876562 316.109135 
" style="fill: none; stroke: #f58231; stroke-width: 1.5; stroke-linecap: square"/>
    </g>
    <g id="text_55">
     <!-- 3. MAnet -->
     <g transform="translate(265.876562 319.609135) scale(0.1 -0.1)">
      <use xlink:href="#Cmr10-33"/>
      <use xlink:href="#Cmr10-2e" x="50"/>
      <use xlink:href="#Cmr10-20" x="77.685547"/>
      <use xlink:href="#Cmr10-4d" x="110.986328"/>
      <use xlink:href="#Cmr10-41" x="202.587891"/>
      <use xlink:href="#Cmr10-6e" x="277.587891"/>
      <use xlink:href="#Cmr10-65" x="333.105469"/>
      <use xlink:href="#Cmr10-74" x="377.490234"/>
     </g>
    </g>
    <g id="line2d_45">
     <path d="M 237.876562 330.048197 
L 247.876562 330.048197 
L 257.876562 330.048197 
" style="fill: none; stroke: #f032e6; stroke-width: 1.5; stroke-linecap: square"/>
    </g>
    <g id="text_56">
     <!-- 4. PAN -->
     <g transform="translate(265.876562 333.548197) scale(0.1 -0.1)">
      <use xlink:href="#Cmr10-34"/>
      <use xlink:href="#Cmr10-2e" x="50"/>
      <use xlink:href="#Cmr10-20" x="77.685547"/>
      <use xlink:href="#Cmr10-50" x="110.986328"/>
      <use xlink:href="#Cmr10-41" x="179.003906"/>
      <use xlink:href="#Cmr10-4e" x="254.003906"/>
     </g>
    </g>
    <g id="line2d_46">
     <path d="M 237.876562 343.98726 
L 247.876562 343.98726 
L 257.876562 343.98726 
" style="fill: none; stroke: #9a6324; stroke-width: 1.5; stroke-linecap: square"/>
    </g>
    <g id="text_57">
     <!-- 5. UnetPlusPlus -->
     <g transform="translate(265.876562 347.48726) scale(0.1 -0.1)">
      <use xlink:href="#Cmr10-35"/>
      <use xlink:href="#Cmr10-2e" x="50"/>
      <use xlink:href="#Cmr10-20" x="77.685547"/>
      <use xlink:href="#Cmr10-55" x="110.986328"/>
      <use xlink:href="#Cmr10-6e" x="185.986328"/>
      <use xlink:href="#Cmr10-65" x="241.503906"/>
      <use xlink:href="#Cmr10-74" x="285.888672"/>
      <use xlink:href="#Cmr10-50" x="324.707031"/>
      <use xlink:href="#Cmr10-6c" x="392.724609"/>
      <use xlink:href="#Cmr10-75" x="420.410156"/>
      <use xlink:href="#Cmr10-73" x="475.927734"/>
      <use xlink:href="#Cmr10-50" x="515.332031"/>
      <use xlink:href="#Cmr10-6c" x="583.349609"/>
      <use xlink:href="#Cmr10-75" x="611.035156"/>
      <use xlink:href="#Cmr10-73" x="666.552734"/>
     </g>
    </g>
    <g id="line2d_47">
     <path d="M 237.876562 357.926322 
L 247.876562 357.926322 
L 257.876562 357.926322 
" style="fill: none; stroke: #e6194b; stroke-width: 1.5; stroke-linecap: square"/>
    </g>
    <g id="text_58">
     <!-- 6. Unet -->
     <g transform="translate(265.876562 361.426322) scale(0.1 -0.1)">
      <use xlink:href="#Cmr10-36"/>
      <use xlink:href="#Cmr10-2e" x="50"/>
      <use xlink:href="#Cmr10-20" x="77.685547"/>
      <use xlink:href="#Cmr10-55" x="110.986328"/>
      <use xlink:href="#Cmr10-6e" x="185.986328"/>
      <use xlink:href="#Cmr10-65" x="241.503906"/>
      <use xlink:href="#Cmr10-74" x="285.888672"/>
     </g>
    </g>
    <g id="line2d_48">
     <path d="M 237.876562 371.865385 
L 247.876562 371.865385 
L 257.876562 371.865385 
" style="fill: none; stroke: #000075; stroke-width: 1.5; stroke-linecap: square"/>
    </g>
    <g id="text_59">
     <!-- 7. Linknet -->
     <g transform="translate(265.876562 375.365385) scale(0.1 -0.1)">
      <use xlink:href="#Cmr10-37"/>
      <use xlink:href="#Cmr10-2e" x="50"/>
      <use xlink:href="#Cmr10-20" x="77.685547"/>
      <use xlink:href="#Cmr10-4c" x="110.986328"/>
      <use xlink:href="#Cmr10-69" x="173.486328"/>
      <use xlink:href="#Cmr10-6e" x="201.171875"/>
      <use xlink:href="#Cmr10-6b" x="256.689453"/>
      <use xlink:href="#Cmr10-6e" x="309.375"/>
      <use xlink:href="#Cmr10-65" x="364.892578"/>
      <use xlink:href="#Cmr10-74" x="409.277344"/>
     </g>
    </g>
    <g id="line2d_49">
     <path d="M 237.876562 385.804447 
L 247.876562 385.804447 
L 257.876562 385.804447 
" style="fill: none; stroke: #4363d8; stroke-width: 1.5; stroke-linecap: square"/>
    </g>
    <g id="text_60">
     <!-- 8. PSPNet -->
     <g transform="translate(265.876562 389.304447) scale(0.1 -0.1)">
      <use xlink:href="#Cmr10-38"/>
      <use xlink:href="#Cmr10-2e" x="50"/>
      <use xlink:href="#Cmr10-20" x="77.685547"/>
      <use xlink:href="#Cmr10-50" x="110.986328"/>
      <use xlink:href="#Cmr10-53" x="179.003906"/>
      <use xlink:href="#Cmr10-50" x="234.521484"/>
      <use xlink:href="#Cmr10-4e" x="302.539062"/>
      <use xlink:href="#Cmr10-65" x="377.539062"/>
      <use xlink:href="#Cmr10-74" x="421.923828"/>
     </g>
    </g>
   </g>
  </g>
  <g id="axes_4">
   <g id="patch_31">
    <path d="M 401.246875 400.24351 
L 716.99976 400.24351 
L 716.99976 233.327115 
L 401.246875 233.327115 
z
" style="fill: #ffffff"/>
   </g>
   <g id="matplotlib.axis_5">
    <g id="xtick_15">
     <g id="line2d_50">
      <g>
       <use xlink:href="#m7664583fc1" x="415.599279" y="400.24351" style="stroke: #000000; stroke-width: 0.8"/>
      </g>
     </g>
     <g id="text_61">
      <!-- 0 -->
      <g transform="translate(413.099279 414.182572) scale(0.1 -0.1)">
       <use xlink:href="#Cmr10-30"/>
      </g>
     </g>
    </g>
    <g id="xtick_16">
     <g id="line2d_51">
      <g>
       <use xlink:href="#m7664583fc1" x="460.922659" y="400.24351" style="stroke: #000000; stroke-width: 0.8"/>
      </g>
     </g>
     <g id="text_62">
      <!-- 3 -->
      <g transform="translate(458.422659 414.182572) scale(0.1 -0.1)">
       <use xlink:href="#Cmr10-33"/>
      </g>
     </g>
    </g>
    <g id="xtick_17">
     <g id="line2d_52">
      <g>
       <use xlink:href="#m7664583fc1" x="506.24604" y="400.24351" style="stroke: #000000; stroke-width: 0.8"/>
      </g>
     </g>
     <g id="text_63">
      <!-- 6 -->
      <g transform="translate(503.74604 414.182572) scale(0.1 -0.1)">
       <use xlink:href="#Cmr10-36"/>
      </g>
     </g>
    </g>
    <g id="xtick_18">
     <g id="line2d_53">
      <g>
       <use xlink:href="#m7664583fc1" x="551.569421" y="400.24351" style="stroke: #000000; stroke-width: 0.8"/>
      </g>
     </g>
     <g id="text_64">
      <!-- 9 -->
      <g transform="translate(549.069421 414.182572) scale(0.1 -0.1)">
       <use xlink:href="#Cmr10-39"/>
      </g>
     </g>
    </g>
    <g id="xtick_19">
     <g id="line2d_54">
      <g>
       <use xlink:href="#m7664583fc1" x="596.892801" y="400.24351" style="stroke: #000000; stroke-width: 0.8"/>
      </g>
     </g>
     <g id="text_65">
      <!-- 12 -->
      <g transform="translate(591.892801 414.182572) scale(0.1 -0.1)">
       <use xlink:href="#Cmr10-31"/>
       <use xlink:href="#Cmr10-32" x="50"/>
      </g>
     </g>
    </g>
    <g id="xtick_20">
     <g id="line2d_55">
      <g>
       <use xlink:href="#m7664583fc1" x="642.216182" y="400.24351" style="stroke: #000000; stroke-width: 0.8"/>
      </g>
     </g>
     <g id="text_66">
      <!-- 15 -->
      <g transform="translate(637.216182 414.182572) scale(0.1 -0.1)">
       <use xlink:href="#Cmr10-31"/>
       <use xlink:href="#Cmr10-35" x="50"/>
      </g>
     </g>
    </g>
    <g id="xtick_21">
     <g id="line2d_56">
      <g>
       <use xlink:href="#m7664583fc1" x="687.539563" y="400.24351" style="stroke: #000000; stroke-width: 0.8"/>
      </g>
     </g>
     <g id="text_67">
      <!-- 18 -->
      <g transform="translate(682.539563 414.182572) scale(0.1 -0.1)">
       <use xlink:href="#Cmr10-31"/>
       <use xlink:href="#Cmr10-38" x="50"/>
      </g>
     </g>
    </g>
    <g id="text_68">
     <!-- Epoch -->
     <g transform="translate(545.451442 427.060698) scale(0.1 -0.1)">
      <use xlink:href="#Cmr10-45"/>
      <use xlink:href="#Cmr10-70" x="68.017578"/>
      <use xlink:href="#Cmr10-6f" x="123.535156"/>
      <use xlink:href="#Cmr10-63" x="173.535156"/>
      <use xlink:href="#Cmr10-68" x="217.919922"/>
     </g>
    </g>
   </g>
   <g id="matplotlib.axis_6">
    <g id="ytick_12">
     <g id="line2d_57">
      <g>
       <use xlink:href="#m92fd97a1df" x="401.246875" y="381.501796" style="stroke: #000000; stroke-width: 0.8"/>
      </g>
     </g>
     <g id="text_69">
      <!-- 0.91 -->
      <g transform="translate(376.478125 384.971327) scale(0.1 -0.1)">
       <use xlink:href="#Cmr10-30"/>
       <use xlink:href="#Cmr10-2e" x="50"/>
       <use xlink:href="#Cmr10-39" x="77.685547"/>
       <use xlink:href="#Cmr10-31" x="127.685547"/>
      </g>
     </g>
    </g>
    <g id="ytick_13">
     <g id="line2d_58">
      <g>
       <use xlink:href="#m92fd97a1df" x="401.246875" y="359.881759" style="stroke: #000000; stroke-width: 0.8"/>
      </g>
     </g>
     <g id="text_70">
      <!-- 0.92 -->
      <g transform="translate(376.478125 363.35129) scale(0.1 -0.1)">
       <use xlink:href="#Cmr10-30"/>
       <use xlink:href="#Cmr10-2e" x="50"/>
       <use xlink:href="#Cmr10-39" x="77.685547"/>
       <use xlink:href="#Cmr10-32" x="127.685547"/>
      </g>
     </g>
    </g>
    <g id="ytick_14">
     <g id="line2d_59">
      <g>
       <use xlink:href="#m92fd97a1df" x="401.246875" y="338.261721" style="stroke: #000000; stroke-width: 0.8"/>
      </g>
     </g>
     <g id="text_71">
      <!-- 0.93 -->
      <g transform="translate(376.478125 341.731253) scale(0.1 -0.1)">
       <use xlink:href="#Cmr10-30"/>
       <use xlink:href="#Cmr10-2e" x="50"/>
       <use xlink:href="#Cmr10-39" x="77.685547"/>
       <use xlink:href="#Cmr10-33" x="127.685547"/>
      </g>
     </g>
    </g>
    <g id="ytick_15">
     <g id="line2d_60">
      <g>
       <use xlink:href="#m92fd97a1df" x="401.246875" y="316.641684" style="stroke: #000000; stroke-width: 0.8"/>
      </g>
     </g>
     <g id="text_72">
      <!-- 0.94 -->
      <g transform="translate(376.478125 320.111215) scale(0.1 -0.1)">
       <use xlink:href="#Cmr10-30"/>
       <use xlink:href="#Cmr10-2e" x="50"/>
       <use xlink:href="#Cmr10-39" x="77.685547"/>
       <use xlink:href="#Cmr10-34" x="127.685547"/>
      </g>
     </g>
    </g>
    <g id="ytick_16">
     <g id="line2d_61">
      <g>
       <use xlink:href="#m92fd97a1df" x="401.246875" y="295.021647" style="stroke: #000000; stroke-width: 0.8"/>
      </g>
     </g>
     <g id="text_73">
      <!-- 0.95 -->
      <g transform="translate(376.478125 298.491178) scale(0.1 -0.1)">
       <use xlink:href="#Cmr10-30"/>
       <use xlink:href="#Cmr10-2e" x="50"/>
       <use xlink:href="#Cmr10-39" x="77.685547"/>
       <use xlink:href="#Cmr10-35" x="127.685547"/>
      </g>
     </g>
    </g>
    <g id="ytick_17">
     <g id="line2d_62">
      <g>
       <use xlink:href="#m92fd97a1df" x="401.246875" y="273.401609" style="stroke: #000000; stroke-width: 0.8"/>
      </g>
     </g>
     <g id="text_74">
      <!-- 0.96 -->
      <g transform="translate(376.478125 276.871141) scale(0.1 -0.1)">
       <use xlink:href="#Cmr10-30"/>
       <use xlink:href="#Cmr10-2e" x="50"/>
       <use xlink:href="#Cmr10-39" x="77.685547"/>
       <use xlink:href="#Cmr10-36" x="127.685547"/>
      </g>
     </g>
    </g>
    <g id="ytick_18">
     <g id="line2d_63">
      <g>
       <use xlink:href="#m92fd97a1df" x="401.246875" y="251.781572" style="stroke: #000000; stroke-width: 0.8"/>
      </g>
     </g>
     <g id="text_75">
      <!-- 0.97 -->
      <g transform="translate(376.478125 255.251103) scale(0.1 -0.1)">
       <use xlink:href="#Cmr10-30"/>
       <use xlink:href="#Cmr10-2e" x="50"/>
       <use xlink:href="#Cmr10-39" x="77.685547"/>
       <use xlink:href="#Cmr10-37" x="127.685547"/>
      </g>
     </g>
    </g>
    <g id="text_76">
     <!-- Val IoU -->
     <g transform="translate(370.539062 334.138438) rotate(-90) scale(0.1 -0.1)">
      <use xlink:href="#Cmr10-56"/>
      <use xlink:href="#Cmr10-61" x="75"/>
      <use xlink:href="#Cmr10-6c" x="125"/>
      <use xlink:href="#Cmr10-20" x="152.685547"/>
      <use xlink:href="#Cmr10-49" x="185.986328"/>
      <use xlink:href="#Cmr10-6f" x="222.070312"/>
      <use xlink:href="#Cmr10-55" x="272.070312"/>
     </g>
    </g>
   </g>
   <g id="line2d_64">
    <path d="M 415.599279 342.281686 
L 430.707072 307.539787 
L 445.814866 294.802338 
L 460.922659 278.944227 
L 476.030453 271.857534 
L 491.138247 260.274372 
L 506.24604 262.773925 
L 521.353834 252.816849 
L 536.461627 251.547983 
L 551.569421 254.780277 
L 566.677214 252.498798 
L 581.785008 252.390842 
L 596.892801 257.40976 
L 612.000595 245.920451 
L 627.108388 247.500246 
L 642.216182 252.612939 
L 657.323976 247.945387 
L 672.431769 241.363029 
L 687.539563 240.914224 
L 702.647356 242.7162 
" clip-path="url(#p38a4846dfc)" style="fill: none; stroke: #000000; stroke-width: 1.5; stroke-linecap: square"/>
   </g>
   <g id="line2d_65">
    <path d="M 415.599279 392.656401 
L 430.707072 326.395639 
L 445.814866 333.973702 
L 460.922659 304.899843 
L 476.030453 297.606915 
L 491.138247 294.715634 
L 506.24604 291.957084 
L 521.353834 284.833843 
L 536.461627 278.24851 
L 551.569421 273.323014 
L 566.677214 279.088864 
L 581.785008 270.571636 
L 596.892801 271.784775 
L 612.000595 262.871453 
L 627.108388 267.223123 
L 642.216182 261.818438 
L 657.323976 266.562328 
L 672.431769 268.79769 
L 687.539563 258.834552 
L 702.647356 257.381701 
" clip-path="url(#p38a4846dfc)" style="fill: none; stroke: #f58231; stroke-width: 1.5; stroke-linecap: square"/>
   </g>
   <g id="line2d_66">
    <path d="M 415.599279 323.831547 
L 430.707072 306.978555 
L 445.814866 294.657583 
L 460.922659 295.193713 
L 476.030453 298.089729 
L 491.138247 276.167579 
L 506.24604 278.824751 
L 521.353834 276.266128 
L 536.461627 272.098215 
L 551.569421 270.955302 
L 566.677214 268.647949 
L 581.785008 269.156301 
L 596.892801 269.61003 
L 612.000595 263.917651 
L 627.108388 264.072059 
L 642.216182 264.896479 
L 657.323976 263.002314 
L 672.431769 263.479581 
L 687.539563 261.857904 
L 702.647356 262.884715 
" clip-path="url(#p38a4846dfc)" style="fill: none; stroke: #46f0f0; stroke-width: 1.5; stroke-linecap: square"/>
   </g>
   <g id="line2d_67">
    <path d="M 415.599279 338.289255 
L 430.707072 318.101623 
L 445.814866 311.419999 
L 460.922659 302.282216 
L 476.030453 297.959693 
L 491.138247 300.900011 
L 506.24604 287.498019 
L 521.353834 287.376549 
L 536.461627 286.502825 
L 551.569421 285.411973 
L 566.677214 280.833008 
L 581.785008 277.431822 
L 596.892801 276.775975 
L 612.000595 274.930263 
L 627.108388 274.281633 
L 642.216182 276.892705 
L 657.323976 283.991534 
L 672.431769 268.837997 
L 687.539563 269.456165 
L 702.647356 267.965573 
" clip-path="url(#p38a4846dfc)" style="fill: none; stroke: #f032e6; stroke-width: 1.5; stroke-linecap: square"/>
   </g>
   <g id="line2d_68">
    <path d="M 415.599279 340.038595 
L 430.707072 321.951773 
L 445.814866 308.595262 
L 460.922659 303.745789 
L 476.030453 302.786618 
L 491.138247 305.371054 
L 506.24604 305.254019 
L 521.353834 296.594831 
L 536.461627 299.206836 
L 551.569421 293.642291 
L 566.677214 295.985096 
L 581.785008 288.095445 
L 596.892801 292.07246 
L 612.000595 286.265698 
L 627.108388 288.287429 
L 642.216182 290.508703 
L 657.323976 282.766514 
L 672.431769 282.394073 
L 687.539563 281.038926 
L 702.647356 282.579807 
" clip-path="url(#p38a4846dfc)" style="fill: none; stroke: #9a6324; stroke-width: 1.5; stroke-linecap: square"/>
   </g>
   <g id="line2d_69">
    <path d="M 415.599279 353.354704 
L 430.707072 346.079324 
L 445.814866 346.244339 
L 460.922659 333.959499 
L 476.030453 350.353528 
L 491.138247 321.844156 
L 506.24604 325.850348 
L 521.353834 316.641247 
L 536.461627 307.101706 
L 551.569421 332.099522 
L 566.677214 302.114489 
L 581.785008 310.039194 
L 596.892801 302.827468 
L 612.000595 305.518986 
L 627.108388 293.116548 
L 642.216182 291.497398 
L 657.323976 292.315593 
L 672.431769 290.751166 
L 687.539563 284.955476 
L 702.647356 283.885808 
" clip-path="url(#p38a4846dfc)" style="fill: none; stroke: #4363d8; stroke-width: 1.5; stroke-linecap: square"/>
   </g>
   <g id="line2d_70">
    <path d="M 415.599279 374.382617 
L 430.707072 369.133277 
L 445.814866 322.23222 
L 460.922659 317.956335 
L 476.030453 315.791306 
L 491.138247 309.172294 
L 506.24604 303.830058 
L 521.353834 299.432395 
L 536.461627 305.471675 
L 551.569421 298.086334 
L 566.677214 292.875116 
L 581.785008 292.2144 
L 596.892801 292.187008 
L 612.000595 292.542385 
L 627.108388 291.291589 
L 642.216182 287.713241 
L 657.323976 285.634507 
L 672.431769 286.57927 
L 687.539563 287.989153 
L 702.647356 286.062973 
" clip-path="url(#p38a4846dfc)" style="fill: none; stroke: #000075; stroke-width: 1.5; stroke-linecap: square"/>
   </g>
   <g id="line2d_71">
    <path d="M 415.599279 353.57907 
L 430.707072 321.077793 
L 445.814866 320.222726 
L 460.922659 309.368309 
L 476.030453 302.045339 
L 491.138247 303.895712 
L 506.24604 306.032027 
L 521.353834 301.9387 
L 536.461627 295.922459 
L 551.569421 293.552466 
L 566.677214 294.185033 
L 581.785008 292.572954 
L 596.892801 291.647504 
L 612.000595 289.619436 
L 627.108388 290.922434 
L 642.216182 287.887972 
L 657.323976 289.044102 
L 672.431769 285.951673 
L 687.539563 287.172567 
L 702.647356 287.722066 
" clip-path="url(#p38a4846dfc)" style="fill: none; stroke: #e6194b; stroke-width: 1.5; stroke-linecap: square"/>
   </g>
   <g id="patch_32">
    <path d="M 401.246875 400.24351 
L 401.246875 233.327115 
" style="fill: none; stroke: #000000; stroke-width: 0.8; stroke-linejoin: miter; stroke-linecap: square"/>
   </g>
   <g id="patch_33">
    <path d="M 716.99976 400.24351 
L 716.99976 233.327115 
" style="fill: none; stroke: #000000; stroke-width: 0.8; stroke-linejoin: miter; stroke-linecap: square"/>
   </g>
   <g id="patch_34">
    <path d="M 401.246875 400.24351 
L 716.99976 400.24351 
" style="fill: none; stroke: #000000; stroke-width: 0.8; stroke-linejoin: miter; stroke-linecap: square"/>
   </g>
   <g id="patch_35">
    <path d="M 401.246875 233.327115 
L 716.99976 233.327115 
" style="fill: none; stroke: #000000; stroke-width: 0.8; stroke-linejoin: miter; stroke-linecap: square"/>
   </g>
   <g id="text_77">
    <!-- D -->
    <g transform="translate(404.561947 248.845845) scale(0.12 -0.12)">
     <use xlink:href="#Cmr10-44"/>
    </g>
   </g>
   <g id="text_78">
    <!-- Val IoU -->
    <g transform="translate(538.299567 227.327115) scale(0.12 -0.12)">
     <use xlink:href="#Cmr10-56"/>
     <use xlink:href="#Cmr10-61" x="75"/>
     <use xlink:href="#Cmr10-6c" x="125"/>
     <use xlink:href="#Cmr10-20" x="152.685547"/>
     <use xlink:href="#Cmr10-49" x="185.986328"/>
     <use xlink:href="#Cmr10-6f" x="222.070312"/>
     <use xlink:href="#Cmr10-55" x="272.070312"/>
    </g>
   </g>
   <g id="legend_2">
    <g id="patch_36">
     <path d="M 596.476322 395.24351 
L 709.99976 395.24351 
Q 711.99976 395.24351 711.99976 393.24351 
L 711.99976 282.73101 
Q 711.99976 280.73101 709.99976 280.73101 
L 596.476322 280.73101 
Q 594.476322 280.73101 594.476322 282.73101 
L 594.476322 393.24351 
Q 594.476322 395.24351 596.476322 395.24351 
z
" style="fill: #ffffff; opacity: 0.8; stroke: #cccccc; stroke-linejoin: miter"/>
    </g>
    <g id="line2d_72">
     <path d="M 598.476322 288.23101 
L 608.476322 288.23101 
L 618.476322 288.23101 
" style="fill: none; stroke: #000000; stroke-width: 1.5; stroke-linecap: square"/>
    </g>
    <g id="text_79">
     <!-- 1. DeepLabV3Plus -->
     <g transform="translate(626.476322 291.73101) scale(0.1 -0.1)">
      <use xlink:href="#Cmr10-31"/>
      <use xlink:href="#Cmr10-2e" x="50"/>
      <use xlink:href="#Cmr10-20" x="77.685547"/>
      <use xlink:href="#Cmr10-44" x="110.986328"/>
      <use xlink:href="#Cmr10-65" x="187.304688"/>
      <use xlink:href="#Cmr10-65" x="231.689453"/>
      <use xlink:href="#Cmr10-70" x="276.074219"/>
      <use xlink:href="#Cmr10-4c" x="331.591797"/>
      <use xlink:href="#Cmr10-61" x="394.091797"/>
      <use xlink:href="#Cmr10-62" x="444.091797"/>
      <use xlink:href="#Cmr10-56" x="499.609375"/>
      <use xlink:href="#Cmr10-33" x="574.609375"/>
      <use xlink:href="#Cmr10-50" x="624.609375"/>
      <use xlink:href="#Cmr10-6c" x="692.626953"/>
      <use xlink:href="#Cmr10-75" x="720.3125"/>
      <use xlink:href="#Cmr10-73" x="775.830078"/>
     </g>
    </g>
    <g id="line2d_73">
     <path d="M 598.476322 302.170072 
L 608.476322 302.170072 
L 618.476322 302.170072 
" style="fill: none; stroke: #f58231; stroke-width: 1.5; stroke-linecap: square"/>
    </g>
    <g id="text_80">
     <!-- 2. MAnet -->
     <g transform="translate(626.476322 305.670072) scale(0.1 -0.1)">
      <use xlink:href="#Cmr10-32"/>
      <use xlink:href="#Cmr10-2e" x="50"/>
      <use xlink:href="#Cmr10-20" x="77.685547"/>
      <use xlink:href="#Cmr10-4d" x="110.986328"/>
      <use xlink:href="#Cmr10-41" x="202.587891"/>
      <use xlink:href="#Cmr10-6e" x="277.587891"/>
      <use xlink:href="#Cmr10-65" x="333.105469"/>
      <use xlink:href="#Cmr10-74" x="377.490234"/>
     </g>
    </g>
    <g id="line2d_74">
     <path d="M 598.476322 316.109135 
L 608.476322 316.109135 
L 618.476322 316.109135 
" style="fill: none; stroke: #46f0f0; stroke-width: 1.5; stroke-linecap: square"/>
    </g>
    <g id="text_81">
     <!-- 3. FPN -->
     <g transform="translate(626.476322 319.609135) scale(0.1 -0.1)">
      <use xlink:href="#Cmr10-33"/>
      <use xlink:href="#Cmr10-2e" x="50"/>
      <use xlink:href="#Cmr10-20" x="77.685547"/>
      <use xlink:href="#Cmr10-46" x="110.986328"/>
      <use xlink:href="#Cmr10-50" x="176.171875"/>
      <use xlink:href="#Cmr10-4e" x="244.189453"/>
     </g>
    </g>
    <g id="line2d_75">
     <path d="M 598.476322 330.048197 
L 608.476322 330.048197 
L 618.476322 330.048197 
" style="fill: none; stroke: #f032e6; stroke-width: 1.5; stroke-linecap: square"/>
    </g>
    <g id="text_82">
     <!-- 4. PAN -->
     <g transform="translate(626.476322 333.548197) scale(0.1 -0.1)">
      <use xlink:href="#Cmr10-34"/>
      <use xlink:href="#Cmr10-2e" x="50"/>
      <use xlink:href="#Cmr10-20" x="77.685547"/>
      <use xlink:href="#Cmr10-50" x="110.986328"/>
      <use xlink:href="#Cmr10-41" x="179.003906"/>
      <use xlink:href="#Cmr10-4e" x="254.003906"/>
     </g>
    </g>
    <g id="line2d_76">
     <path d="M 598.476322 343.98726 
L 608.476322 343.98726 
L 618.476322 343.98726 
" style="fill: none; stroke: #9a6324; stroke-width: 1.5; stroke-linecap: square"/>
    </g>
    <g id="text_83">
     <!-- 5. UnetPlusPlus -->
     <g transform="translate(626.476322 347.48726) scale(0.1 -0.1)">
      <use xlink:href="#Cmr10-35"/>
      <use xlink:href="#Cmr10-2e" x="50"/>
      <use xlink:href="#Cmr10-20" x="77.685547"/>
      <use xlink:href="#Cmr10-55" x="110.986328"/>
      <use xlink:href="#Cmr10-6e" x="185.986328"/>
      <use xlink:href="#Cmr10-65" x="241.503906"/>
      <use xlink:href="#Cmr10-74" x="285.888672"/>
      <use xlink:href="#Cmr10-50" x="324.707031"/>
      <use xlink:href="#Cmr10-6c" x="392.724609"/>
      <use xlink:href="#Cmr10-75" x="420.410156"/>
      <use xlink:href="#Cmr10-73" x="475.927734"/>
      <use xlink:href="#Cmr10-50" x="515.332031"/>
      <use xlink:href="#Cmr10-6c" x="583.349609"/>
      <use xlink:href="#Cmr10-75" x="611.035156"/>
      <use xlink:href="#Cmr10-73" x="666.552734"/>
     </g>
    </g>
    <g id="line2d_77">
     <path d="M 598.476322 357.926322 
L 608.476322 357.926322 
L 618.476322 357.926322 
" style="fill: none; stroke: #4363d8; stroke-width: 1.5; stroke-linecap: square"/>
    </g>
    <g id="text_84">
     <!-- 6. PSPNet -->
     <g transform="translate(626.476322 361.426322) scale(0.1 -0.1)">
      <use xlink:href="#Cmr10-36"/>
      <use xlink:href="#Cmr10-2e" x="50"/>
      <use xlink:href="#Cmr10-20" x="77.685547"/>
      <use xlink:href="#Cmr10-50" x="110.986328"/>
      <use xlink:href="#Cmr10-53" x="179.003906"/>
      <use xlink:href="#Cmr10-50" x="234.521484"/>
      <use xlink:href="#Cmr10-4e" x="302.539062"/>
      <use xlink:href="#Cmr10-65" x="377.539062"/>
      <use xlink:href="#Cmr10-74" x="421.923828"/>
     </g>
    </g>
    <g id="line2d_78">
     <path d="M 598.476322 371.865385 
L 608.476322 371.865385 
L 618.476322 371.865385 
" style="fill: none; stroke: #000075; stroke-width: 1.5; stroke-linecap: square"/>
    </g>
    <g id="text_85">
     <!-- 7. Linknet -->
     <g transform="translate(626.476322 375.365385) scale(0.1 -0.1)">
      <use xlink:href="#Cmr10-37"/>
      <use xlink:href="#Cmr10-2e" x="50"/>
      <use xlink:href="#Cmr10-20" x="77.685547"/>
      <use xlink:href="#Cmr10-4c" x="110.986328"/>
      <use xlink:href="#Cmr10-69" x="173.486328"/>
      <use xlink:href="#Cmr10-6e" x="201.171875"/>
      <use xlink:href="#Cmr10-6b" x="256.689453"/>
      <use xlink:href="#Cmr10-6e" x="309.375"/>
      <use xlink:href="#Cmr10-65" x="364.892578"/>
      <use xlink:href="#Cmr10-74" x="409.277344"/>
     </g>
    </g>
    <g id="line2d_79">
     <path d="M 598.476322 385.804447 
L 608.476322 385.804447 
L 618.476322 385.804447 
" style="fill: none; stroke: #e6194b; stroke-width: 1.5; stroke-linecap: square"/>
    </g>
    <g id="text_86">
     <!-- 8. Unet -->
     <g transform="translate(626.476322 389.304447) scale(0.1 -0.1)">
      <use xlink:href="#Cmr10-38"/>
      <use xlink:href="#Cmr10-2e" x="50"/>
      <use xlink:href="#Cmr10-20" x="77.685547"/>
      <use xlink:href="#Cmr10-55" x="110.986328"/>
      <use xlink:href="#Cmr10-6e" x="185.986328"/>
      <use xlink:href="#Cmr10-65" x="241.503906"/>
      <use xlink:href="#Cmr10-74" x="285.888672"/>
     </g>
    </g>
   </g>
  </g>
 </g>
 <defs>
  <clipPath id="pb128c9efe5">
   <rect x="40.647115" y="17.327115" width="315.752885" height="166.916395"/>
  </clipPath>
  <clipPath id="p3248639a6d">
   <rect x="40.647115" y="233.327115" width="315.752885" height="166.916395"/>
  </clipPath>
  <clipPath id="p38a4846dfc">
   <rect x="401.246875" y="233.327115" width="315.752885" height="166.916395"/>
  </clipPath>
 </defs>
</svg>
