<?xml version="1.0" encoding="utf-8" standalone="no"?>
<!DOCTYPE svg PUBLIC "-//W3C//DTD SVG 1.1//EN"
  "http://www.w3.org/Graphics/SVG/1.1/DTD/svg11.dtd">
<svg xmlns:xlink="http://www.w3.org/1999/xlink" width="720pt" height="432pt" viewBox="0 0 720 432" xmlns="http://www.w3.org/2000/svg" version="1.1">
 <metadata>
  <rdf:RDF xmlns:dc="http://purl.org/dc/elements/1.1/" xmlns:cc="http://creativecommons.org/ns#" xmlns:rdf="http://www.w3.org/1999/02/22-rdf-syntax-ns#">
   <cc:Work>
    <dc:type rdf:resource="http://purl.org/dc/dcmitype/StillImage"/>
    <dc:date>2024-06-03T17:28:58.521776</dc:date>
    <dc:format>image/svg+xml</dc:format>
    <dc:creator>
     <cc:Agent>
      <dc:title>Matplotlib v3.8.0, https://matplotlib.org/</dc:title>
     </cc:Agent>
    </dc:creator>
   </cc:Work>
  </rdf:RDF>
 </metadata>
 <defs>
  <style type="text/css">*{stroke-linejoin: round; stroke-linecap: butt}</style>
 </defs>
 <g id="figure_1">
  <g id="patch_1">
   <path d="M 0 432 
L 720 432 
L 720 0 
L 0 0 
z
" style="fill: #ffffff"/>
  </g>
  <g id="axes_1">
   <g id="patch_2">
    <path d="M 40.647115 184.24351 
L 356.4 184.24351 
L 356.4 17.327115 
L 40.647115 17.327115 
z
" style="fill: #ffffff"/>
   </g>
   <g id="matplotlib.axis_1">
    <g id="xtick_1">
     <g id="line2d_1">
      <defs>
       <path id="m4b41269fb3" d="M 0 0 
L 0 3.5 
" style="stroke: #000000; stroke-width: 0.8"/>
      </defs>
      <g>
       <use xlink:href="#m4b41269fb3" x="54.999519" y="184.24351" style="stroke: #000000; stroke-width: 0.8"/>
      </g>
     </g>
     <g id="text_1">
      <!-- 0 -->
      <g transform="translate(52.499519 198.182572) scale(0.1 -0.1)">
       <defs>
        <path id="Cmr10-30" d="M 1600 -141 
Q 816 -141 533 504 
Q 250 1150 250 2041 
Q 250 2597 351 3087 
Q 453 3578 754 3920 
Q 1056 4263 1600 4263 
Q 2022 4263 2290 4056 
Q 2559 3850 2700 3523 
Q 2841 3197 2892 2823 
Q 2944 2450 2944 2041 
Q 2944 1491 2842 1011 
Q 2741 531 2444 195 
Q 2147 -141 1600 -141 
z
M 1600 25 
Q 1956 25 2131 390 
Q 2306 756 2347 1200 
Q 2388 1644 2388 2144 
Q 2388 2625 2347 3031 
Q 2306 3438 2132 3767 
Q 1959 4097 1600 4097 
Q 1238 4097 1063 3765 
Q 888 3434 847 3029 
Q 806 2625 806 2144 
Q 806 1788 823 1472 
Q 841 1156 916 820 
Q 991 484 1158 254 
Q 1325 25 1600 25 
z
" transform="scale(0.015625)"/>
       </defs>
       <use xlink:href="#Cmr10-30"/>
      </g>
     </g>
    </g>
    <g id="xtick_2">
     <g id="line2d_2">
      <g>
       <use xlink:href="#m4b41269fb3" x="100.322899" y="184.24351" style="stroke: #000000; stroke-width: 0.8"/>
      </g>
     </g>
     <g id="text_2">
      <!-- 3 -->
      <g transform="translate(97.822899 198.182572) scale(0.1 -0.1)">
       <defs>
        <path id="Cmr10-33" d="M 609 494 
Q 759 275 1012 169 
Q 1266 63 1556 63 
Q 1928 63 2084 380 
Q 2241 697 2241 1100 
Q 2241 1281 2208 1462 
Q 2175 1644 2097 1800 
Q 2019 1956 1883 2050 
Q 1747 2144 1550 2144 
L 1125 2144 
Q 1069 2144 1069 2203 
L 1069 2259 
Q 1069 2309 1125 2309 
L 1478 2338 
Q 1703 2338 1851 2506 
Q 2000 2675 2069 2917 
Q 2138 3159 2138 3378 
Q 2138 3684 1994 3881 
Q 1850 4078 1556 4078 
Q 1313 4078 1091 3986 
Q 869 3894 738 3706 
Q 750 3709 759 3711 
Q 769 3713 781 3713 
Q 925 3713 1022 3613 
Q 1119 3513 1119 3372 
Q 1119 3234 1022 3134 
Q 925 3034 781 3034 
Q 641 3034 541 3134 
Q 441 3234 441 3372 
Q 441 3647 606 3850 
Q 772 4053 1033 4158 
Q 1294 4263 1556 4263 
Q 1750 4263 1965 4205 
Q 2181 4147 2356 4039 
Q 2531 3931 2642 3762 
Q 2753 3594 2753 3378 
Q 2753 3109 2633 2881 
Q 2513 2653 2303 2487 
Q 2094 2322 1844 2241 
Q 2122 2188 2372 2031 
Q 2622 1875 2773 1631 
Q 2925 1388 2925 1106 
Q 2925 753 2731 467 
Q 2538 181 2222 20 
Q 1906 -141 1556 -141 
Q 1256 -141 954 -26 
Q 653 88 461 316 
Q 269 544 269 863 
Q 269 1022 375 1128 
Q 481 1234 641 1234 
Q 744 1234 830 1186 
Q 916 1138 964 1050 
Q 1013 963 1013 863 
Q 1013 706 903 600 
Q 794 494 641 494 
L 609 494 
z
" transform="scale(0.015625)"/>
       </defs>
       <use xlink:href="#Cmr10-33"/>
      </g>
     </g>
    </g>
    <g id="xtick_3">
     <g id="line2d_3">
      <g>
       <use xlink:href="#m4b41269fb3" x="145.64628" y="184.24351" style="stroke: #000000; stroke-width: 0.8"/>
      </g>
     </g>
     <g id="text_3">
      <!-- 6 -->
      <g transform="translate(143.14628 198.182572) scale(0.1 -0.1)">
       <defs>
        <path id="Cmr10-36" d="M 1600 -141 
Q 1203 -141 937 70 
Q 672 281 526 617 
Q 381 953 325 1322 
Q 269 1691 269 2069 
Q 269 2575 466 3084 
Q 663 3594 1045 3928 
Q 1428 4263 1953 4263 
Q 2172 4263 2361 4180 
Q 2550 4097 2658 3936 
Q 2766 3775 2766 3547 
Q 2766 3416 2677 3327 
Q 2588 3238 2456 3238 
Q 2331 3238 2240 3328 
Q 2150 3419 2150 3547 
Q 2150 3672 2240 3762 
Q 2331 3853 2456 3853 
L 2491 3853 
Q 2409 3969 2261 4023 
Q 2113 4078 1953 4078 
Q 1759 4078 1595 3993 
Q 1431 3909 1300 3765 
Q 1169 3622 1081 3448 
Q 994 3275 945 3053 
Q 897 2831 884 2637 
Q 872 2444 872 2150 
Q 984 2413 1190 2580 
Q 1397 2747 1656 2747 
Q 1941 2747 2175 2631 
Q 2409 2516 2578 2311 
Q 2747 2106 2836 1843 
Q 2925 1581 2925 1313 
Q 2925 938 2758 598 
Q 2591 259 2287 59 
Q 1984 -141 1600 -141 
z
M 1600 63 
Q 1847 63 1997 175 
Q 2147 288 2217 473 
Q 2288 659 2305 848 
Q 2322 1038 2322 1313 
Q 2322 1675 2287 1931 
Q 2253 2188 2100 2383 
Q 1947 2578 1631 2578 
Q 1372 2578 1205 2403 
Q 1038 2228 961 1961 
Q 884 1694 884 1447 
Q 884 1363 891 1319 
Q 891 1309 889 1303 
Q 888 1297 884 1288 
Q 884 1013 940 731 
Q 997 450 1156 256 
Q 1316 63 1600 63 
z
" transform="scale(0.015625)"/>
       </defs>
       <use xlink:href="#Cmr10-36"/>
      </g>
     </g>
    </g>
    <g id="xtick_4">
     <g id="line2d_4">
      <g>
       <use xlink:href="#m4b41269fb3" x="190.969661" y="184.24351" style="stroke: #000000; stroke-width: 0.8"/>
      </g>
     </g>
     <g id="text_4">
      <!-- 9 -->
      <g transform="translate(188.469661 198.182572) scale(0.1 -0.1)">
       <defs>
        <path id="Cmr10-39" d="M 722 269 
Q 897 63 1331 63 
Q 1575 63 1786 228 
Q 1997 394 2113 634 
Q 2247 906 2284 1214 
Q 2322 1522 2322 1978 
Q 2213 1719 2008 1553 
Q 1803 1388 1538 1388 
Q 1166 1388 873 1589 
Q 581 1791 425 2120 
Q 269 2450 269 2822 
Q 269 3206 444 3539 
Q 619 3872 928 4067 
Q 1238 4263 1631 4263 
Q 2019 4263 2280 4052 
Q 2541 3841 2678 3508 
Q 2816 3175 2870 2803 
Q 2925 2431 2925 2069 
Q 2925 1575 2744 1061 
Q 2563 547 2202 203 
Q 1841 -141 1331 -141 
Q 953 -141 690 37 
Q 428 216 428 575 
Q 428 706 517 795 
Q 606 884 738 884 
Q 866 884 955 795 
Q 1044 706 1044 575 
Q 1044 450 953 359 
Q 863 269 738 269 
L 722 269 
z
M 1563 1556 
Q 1825 1556 1992 1732 
Q 2159 1909 2234 2171 
Q 2309 2434 2309 2694 
L 2309 2816 
L 2309 2841 
Q 2309 3322 2168 3700 
Q 2028 4078 1631 4078 
Q 1378 4078 1220 3967 
Q 1063 3856 988 3672 
Q 913 3488 892 3278 
Q 872 3069 872 2822 
Q 872 2459 906 2203 
Q 941 1947 1094 1751 
Q 1247 1556 1563 1556 
z
" transform="scale(0.015625)"/>
       </defs>
       <use xlink:href="#Cmr10-39"/>
      </g>
     </g>
    </g>
    <g id="xtick_5">
     <g id="line2d_5">
      <g>
       <use xlink:href="#m4b41269fb3" x="236.293041" y="184.24351" style="stroke: #000000; stroke-width: 0.8"/>
      </g>
     </g>
     <g id="text_5">
      <!-- 12 -->
      <g transform="translate(231.293041 198.182572) scale(0.1 -0.1)">
       <defs>
        <path id="Cmr10-31" d="M 594 0 
L 594 225 
Q 1394 225 1394 428 
L 1394 3788 
Q 1063 3628 556 3628 
L 556 3853 
Q 1341 3853 1741 4263 
L 1831 4263 
Q 1853 4263 1873 4245 
Q 1894 4228 1894 4206 
L 1894 428 
Q 1894 225 2694 225 
L 2694 0 
L 594 0 
z
" transform="scale(0.015625)"/>
        <path id="Cmr10-32" d="M 319 0 
L 319 172 
Q 319 188 331 206 
L 1325 1306 
Q 1550 1550 1690 1715 
Q 1831 1881 1968 2097 
Q 2106 2313 2186 2536 
Q 2266 2759 2266 3009 
Q 2266 3272 2169 3511 
Q 2072 3750 1880 3894 
Q 1688 4038 1416 4038 
Q 1138 4038 916 3870 
Q 694 3703 603 3438 
Q 628 3444 672 3444 
Q 816 3444 917 3347 
Q 1019 3250 1019 3097 
Q 1019 2950 917 2848 
Q 816 2747 672 2747 
Q 522 2747 420 2851 
Q 319 2956 319 3097 
Q 319 3338 409 3548 
Q 500 3759 670 3923 
Q 841 4088 1055 4175 
Q 1269 4263 1509 4263 
Q 1875 4263 2190 4108 
Q 2506 3953 2690 3670 
Q 2875 3388 2875 3009 
Q 2875 2731 2753 2481 
Q 2631 2231 2440 2026 
Q 2250 1822 1953 1562 
Q 1656 1303 1563 1216 
L 838 519 
L 1453 519 
Q 1906 519 2211 526 
Q 2516 534 2534 550 
Q 2609 631 2688 1141 
L 2875 1141 
L 2694 0 
L 319 0 
z
" transform="scale(0.015625)"/>
       </defs>
       <use xlink:href="#Cmr10-31"/>
       <use xlink:href="#Cmr10-32" x="50"/>
      </g>
     </g>
    </g>
    <g id="xtick_6">
     <g id="line2d_6">
      <g>
       <use xlink:href="#m4b41269fb3" x="281.616422" y="184.24351" style="stroke: #000000; stroke-width: 0.8"/>
      </g>
     </g>
     <g id="text_6">
      <!-- 15 -->
      <g transform="translate(276.616422 198.182572) scale(0.1 -0.1)">
       <defs>
        <path id="Cmr10-35" d="M 556 728 
Q 622 541 758 387 
Q 894 234 1080 148 
Q 1266 63 1466 63 
Q 1928 63 2103 422 
Q 2278 781 2278 1294 
Q 2278 1516 2270 1667 
Q 2263 1819 2228 1959 
Q 2169 2184 2020 2353 
Q 1872 2522 1656 2522 
Q 1441 2522 1286 2456 
Q 1131 2391 1034 2303 
Q 938 2216 863 2119 
Q 788 2022 769 2016 
L 697 2016 
Q 681 2016 657 2036 
Q 634 2056 634 2075 
L 634 4213 
Q 634 4228 654 4245 
Q 675 4263 697 4263 
L 716 4263 
Q 1147 4056 1631 4056 
Q 2106 4056 2547 4263 
L 2566 4263 
Q 2588 4263 2606 4247 
Q 2625 4231 2625 4213 
L 2625 4153 
Q 2625 4122 2613 4122 
Q 2394 3831 2064 3668 
Q 1734 3506 1381 3506 
Q 1125 3506 856 3578 
L 856 2369 
Q 1069 2541 1236 2614 
Q 1403 2688 1663 2688 
Q 2016 2688 2295 2484 
Q 2575 2281 2725 1954 
Q 2875 1628 2875 1288 
Q 2875 903 2686 575 
Q 2497 247 2172 53 
Q 1847 -141 1466 -141 
Q 1150 -141 886 21 
Q 622 184 470 459 
Q 319 734 319 1044 
Q 319 1188 412 1278 
Q 506 1369 647 1369 
Q 788 1369 883 1276 
Q 978 1184 978 1044 
Q 978 906 883 811 
Q 788 716 647 716 
Q 625 716 597 720 
Q 569 725 556 728 
z
" transform="scale(0.015625)"/>
       </defs>
       <use xlink:href="#Cmr10-31"/>
       <use xlink:href="#Cmr10-35" x="50"/>
      </g>
     </g>
    </g>
    <g id="xtick_7">
     <g id="line2d_7">
      <g>
       <use xlink:href="#m4b41269fb3" x="326.939803" y="184.24351" style="stroke: #000000; stroke-width: 0.8"/>
      </g>
     </g>
     <g id="text_7">
      <!-- 18 -->
      <g transform="translate(321.939803 198.182572) scale(0.1 -0.1)">
       <defs>
        <path id="Cmr10-38" d="M 269 972 
Q 269 1356 522 1651 
Q 775 1947 1172 2144 
L 934 2297 
Q 716 2441 578 2680 
Q 441 2919 441 3181 
Q 441 3488 602 3734 
Q 763 3981 1030 4122 
Q 1297 4263 1600 4263 
Q 1884 4263 2148 4147 
Q 2413 4031 2583 3815 
Q 2753 3600 2753 3303 
Q 2753 3088 2651 2903 
Q 2550 2719 2373 2572 
Q 2197 2425 1997 2322 
L 2363 2088 
Q 2616 1922 2770 1653 
Q 2925 1384 2925 1088 
Q 2925 741 2739 456 
Q 2553 172 2247 15 
Q 1941 -141 1600 -141 
Q 1269 -141 961 -6 
Q 653 128 461 383 
Q 269 638 269 972 
z
M 616 972 
Q 616 719 755 509 
Q 894 300 1122 181 
Q 1350 63 1600 63 
Q 1972 63 2275 280 
Q 2578 497 2578 856 
Q 2578 978 2529 1098 
Q 2481 1219 2395 1317 
Q 2309 1416 2203 1478 
L 1344 2034 
Q 1144 1928 976 1765 
Q 809 1603 712 1400 
Q 616 1197 616 972 
z
M 1056 2925 
L 1831 2425 
Q 2100 2581 2272 2803 
Q 2444 3025 2444 3303 
Q 2444 3519 2323 3698 
Q 2203 3878 2009 3978 
Q 1816 4078 1594 4078 
Q 1400 4078 1203 4003 
Q 1006 3928 878 3779 
Q 750 3631 750 3431 
Q 750 3131 1056 2925 
z
" transform="scale(0.015625)"/>
       </defs>
       <use xlink:href="#Cmr10-31"/>
       <use xlink:href="#Cmr10-38" x="50"/>
      </g>
     </g>
    </g>
    <g id="text_8">
     <!-- Epoch -->
     <g transform="translate(184.851682 211.060697) scale(0.1 -0.1)">
      <defs>
       <path id="Cmr10-45" d="M 197 0 
L 197 225 
Q 856 225 856 428 
L 856 3944 
Q 856 4147 197 4147 
L 197 4372 
L 3816 4372 
L 3994 2906 
L 3809 2906 
Q 3741 3459 3617 3709 
Q 3494 3959 3222 4053 
Q 2950 4147 2406 4147 
L 1778 4147 
Q 1663 4147 1598 4137 
Q 1534 4128 1493 4083 
Q 1453 4038 1453 3944 
L 1453 2381 
L 1925 2381 
Q 2250 2381 2411 2436 
Q 2572 2491 2633 2645 
Q 2694 2800 2694 3128 
L 2881 3128 
L 2881 1409 
L 2694 1409 
Q 2694 1734 2633 1890 
Q 2572 2047 2411 2101 
Q 2250 2156 1925 2156 
L 1453 2156 
L 1453 428 
Q 1453 291 1531 258 
Q 1609 225 1778 225 
L 2456 225 
Q 2900 225 3173 295 
Q 3447 366 3598 530 
Q 3750 694 3833 955 
Q 3916 1216 3988 1678 
L 4172 1678 
L 3903 0 
L 197 0 
z
" transform="scale(0.015625)"/>
       <path id="Cmr10-70" d="M 166 -1241 
L 166 -1019 
Q 384 -1019 525 -981 
Q 666 -944 666 -813 
L 666 2272 
Q 666 2447 541 2490 
Q 416 2534 166 2534 
L 166 2759 
L 1113 2828 
L 1113 2431 
Q 1288 2625 1520 2726 
Q 1753 2828 2016 2828 
Q 2394 2828 2697 2623 
Q 3000 2419 3170 2086 
Q 3341 1753 3341 1381 
Q 3341 994 3152 659 
Q 2963 325 2636 126 
Q 2309 -72 1919 -72 
Q 1453 -72 1131 306 
L 1131 -813 
Q 1131 -944 1273 -981 
Q 1416 -1019 1631 -1019 
L 1631 -1241 
L 166 -1241 
z
M 1131 622 
Q 1244 394 1444 245 
Q 1644 97 1881 97 
Q 2103 97 2273 215 
Q 2444 334 2559 534 
Q 2675 734 2729 954 
Q 2784 1175 2784 1381 
Q 2784 1638 2692 1936 
Q 2600 2234 2411 2439 
Q 2222 2644 1953 2644 
Q 1694 2644 1476 2511 
Q 1259 2378 1131 2150 
L 1131 622 
z
" transform="scale(0.015625)"/>
       <path id="Cmr10-6f" d="M 1600 -72 
Q 1216 -72 887 123 
Q 559 319 368 647 
Q 178 975 178 1363 
Q 178 1656 283 1928 
Q 388 2200 583 2414 
Q 778 2628 1037 2748 
Q 1297 2869 1600 2869 
Q 1994 2869 2317 2661 
Q 2641 2453 2828 2104 
Q 3016 1756 3016 1363 
Q 3016 978 2825 648 
Q 2634 319 2307 123 
Q 1981 -72 1600 -72 
z
M 1600 116 
Q 2113 116 2284 487 
Q 2456 859 2456 1434 
Q 2456 1756 2422 1967 
Q 2388 2178 2272 2350 
Q 2200 2456 2089 2536 
Q 1978 2616 1854 2658 
Q 1731 2700 1600 2700 
Q 1400 2700 1220 2609 
Q 1041 2519 922 2350 
Q 803 2169 770 1951 
Q 738 1734 738 1434 
Q 738 1075 800 789 
Q 863 503 1052 309 
Q 1241 116 1600 116 
z
" transform="scale(0.015625)"/>
       <path id="Cmr10-63" d="M 1594 -72 
Q 1206 -72 890 129 
Q 575 331 394 667 
Q 213 1003 213 1381 
Q 213 1759 392 2106 
Q 572 2453 889 2661 
Q 1206 2869 1594 2869 
Q 1969 2869 2276 2722 
Q 2584 2575 2584 2241 
Q 2584 2116 2495 2023 
Q 2406 1931 2278 1931 
Q 2150 1931 2061 2023 
Q 1972 2116 1972 2241 
Q 1972 2353 2044 2436 
Q 2116 2519 2222 2541 
Q 2000 2681 1600 2681 
Q 1294 2681 1106 2478 
Q 919 2275 844 1975 
Q 769 1675 769 1381 
Q 769 1072 861 783 
Q 953 494 1158 305 
Q 1363 116 1672 116 
Q 1975 116 2187 302 
Q 2400 488 2478 788 
Q 2478 825 2528 825 
L 2606 825 
Q 2625 825 2640 808 
Q 2656 791 2656 769 
L 2656 750 
Q 2559 372 2271 150 
Q 1984 -72 1594 -72 
z
" transform="scale(0.015625)"/>
       <path id="Cmr10-68" d="M 191 0 
L 191 225 
Q 409 225 550 259 
Q 691 294 691 428 
L 691 3788 
Q 691 3959 639 4036 
Q 588 4113 491 4130 
Q 394 4147 191 4147 
L 191 4372 
L 1141 4441 
L 1141 2241 
Q 1275 2506 1515 2667 
Q 1756 2828 2047 2828 
Q 2491 2828 2714 2615 
Q 2938 2403 2938 1966 
L 2938 428 
Q 2938 294 3078 259 
Q 3219 225 3438 225 
L 3438 0 
L 1972 0 
L 1972 225 
Q 2191 225 2331 259 
Q 2472 294 2472 428 
L 2472 1947 
Q 2472 2259 2381 2461 
Q 2291 2663 2009 2663 
Q 1638 2663 1398 2366 
Q 1159 2069 1159 1691 
L 1159 428 
Q 1159 294 1300 259 
Q 1441 225 1656 225 
L 1656 0 
L 191 0 
z
" transform="scale(0.015625)"/>
      </defs>
      <use xlink:href="#Cmr10-45"/>
      <use xlink:href="#Cmr10-70" x="68.017578"/>
      <use xlink:href="#Cmr10-6f" x="123.535156"/>
      <use xlink:href="#Cmr10-63" x="173.535156"/>
      <use xlink:href="#Cmr10-68" x="217.919922"/>
     </g>
    </g>
   </g>
   <g id="matplotlib.axis_2">
    <g id="ytick_1">
     <g id="line2d_8">
      <defs>
       <path id="m1db2f227a1" d="M 0 0 
L -3.5 0 
" style="stroke: #000000; stroke-width: 0.8"/>
      </defs>
      <g>
       <use xlink:href="#m1db2f227a1" x="40.647115" y="177.041663" style="stroke: #000000; stroke-width: 0.8"/>
      </g>
     </g>
     <g id="text_9">
      <!-- 0.0 -->
      <g transform="translate(20.878365 180.511194) scale(0.1 -0.1)">
       <defs>
        <path id="Cmr10-2e" d="M 538 353 
Q 538 497 644 600 
Q 750 703 891 703 
Q 978 703 1062 656 
Q 1147 609 1194 525 
Q 1241 441 1241 353 
Q 1241 213 1137 106 
Q 1034 0 891 0 
Q 750 0 644 106 
Q 538 213 538 353 
z
" transform="scale(0.015625)"/>
       </defs>
       <use xlink:href="#Cmr10-30"/>
       <use xlink:href="#Cmr10-2e" x="50"/>
       <use xlink:href="#Cmr10-30" x="77.685547"/>
      </g>
     </g>
    </g>
    <g id="ytick_2">
     <g id="line2d_9">
      <g>
       <use xlink:href="#m1db2f227a1" x="40.647115" y="153.297406" style="stroke: #000000; stroke-width: 0.8"/>
      </g>
     </g>
     <g id="text_10">
      <!-- 0.2 -->
      <g transform="translate(20.878365 156.766937) scale(0.1 -0.1)">
       <use xlink:href="#Cmr10-30"/>
       <use xlink:href="#Cmr10-2e" x="50"/>
       <use xlink:href="#Cmr10-32" x="77.685547"/>
      </g>
     </g>
    </g>
    <g id="ytick_3">
     <g id="line2d_10">
      <g>
       <use xlink:href="#m1db2f227a1" x="40.647115" y="129.553148" style="stroke: #000000; stroke-width: 0.8"/>
      </g>
     </g>
     <g id="text_11">
      <!-- 0.4 -->
      <g transform="translate(20.878365 133.022679) scale(0.1 -0.1)">
       <defs>
        <path id="Cmr10-34" d="M 178 1056 
L 178 1281 
L 2156 4231 
Q 2178 4263 2222 4263 
L 2316 4263 
Q 2388 4263 2388 4191 
L 2388 1281 
L 3016 1281 
L 3016 1056 
L 2388 1056 
L 2388 428 
Q 2388 297 2575 261 
Q 2763 225 3009 225 
L 3009 0 
L 1247 0 
L 1247 225 
Q 1494 225 1681 261 
Q 1869 297 1869 428 
L 1869 1056 
L 178 1056 
z
M 391 1281 
L 1906 1281 
L 1906 3547 
L 391 1281 
z
" transform="scale(0.015625)"/>
       </defs>
       <use xlink:href="#Cmr10-30"/>
       <use xlink:href="#Cmr10-2e" x="50"/>
       <use xlink:href="#Cmr10-34" x="77.685547"/>
      </g>
     </g>
    </g>
    <g id="ytick_4">
     <g id="line2d_11">
      <g>
       <use xlink:href="#m1db2f227a1" x="40.647115" y="105.808891" style="stroke: #000000; stroke-width: 0.8"/>
      </g>
     </g>
     <g id="text_12">
      <!-- 0.6 -->
      <g transform="translate(20.878365 109.278422) scale(0.1 -0.1)">
       <use xlink:href="#Cmr10-30"/>
       <use xlink:href="#Cmr10-2e" x="50"/>
       <use xlink:href="#Cmr10-36" x="77.685547"/>
      </g>
     </g>
    </g>
    <g id="ytick_5">
     <g id="line2d_12">
      <g>
       <use xlink:href="#m1db2f227a1" x="40.647115" y="82.064633" style="stroke: #000000; stroke-width: 0.8"/>
      </g>
     </g>
     <g id="text_13">
      <!-- 0.8 -->
      <g transform="translate(20.878365 85.534164) scale(0.1 -0.1)">
       <use xlink:href="#Cmr10-30"/>
       <use xlink:href="#Cmr10-2e" x="50"/>
       <use xlink:href="#Cmr10-38" x="77.685547"/>
      </g>
     </g>
    </g>
    <g id="ytick_6">
     <g id="line2d_13">
      <g>
       <use xlink:href="#m1db2f227a1" x="40.647115" y="58.320376" style="stroke: #000000; stroke-width: 0.8"/>
      </g>
     </g>
     <g id="text_14">
      <!-- 1.0 -->
      <g transform="translate(20.878365 61.789907) scale(0.1 -0.1)">
       <use xlink:href="#Cmr10-31"/>
       <use xlink:href="#Cmr10-2e" x="50"/>
       <use xlink:href="#Cmr10-30" x="77.685547"/>
      </g>
     </g>
    </g>
    <g id="ytick_7">
     <g id="line2d_14">
      <g>
       <use xlink:href="#m1db2f227a1" x="40.647115" y="34.576118" style="stroke: #000000; stroke-width: 0.8"/>
      </g>
     </g>
     <g id="text_15">
      <!-- 1.2 -->
      <g transform="translate(20.878365 38.045649) scale(0.1 -0.1)">
       <use xlink:href="#Cmr10-31"/>
       <use xlink:href="#Cmr10-2e" x="50"/>
       <use xlink:href="#Cmr10-32" x="77.685547"/>
      </g>
     </g>
    </g>
    <g id="text_16">
     <!-- Loss -->
     <g transform="translate(14.939302 110.350937) rotate(-90) scale(0.1 -0.1)">
      <defs>
       <path id="Cmr10-4c" d="M 197 0 
L 197 225 
Q 856 225 856 428 
L 856 3944 
Q 856 4147 197 4147 
L 197 4372 
L 2272 4372 
L 2272 4147 
Q 1453 4147 1453 3944 
L 1453 428 
Q 1453 291 1531 258 
Q 1609 225 1778 225 
L 2272 225 
Q 2750 225 3009 400 
Q 3269 575 3376 876 
Q 3484 1178 3541 1678 
L 3725 1678 
L 3547 0 
L 197 0 
z
" transform="scale(0.015625)"/>
       <path id="Cmr10-73" d="M 213 -19 
L 213 1025 
Q 213 1075 269 1075 
L 347 1075 
Q 384 1075 397 1025 
Q 575 97 1259 97 
Q 1563 97 1767 234 
Q 1972 372 1972 659 
Q 1972 866 1812 1011 
Q 1653 1156 1434 1209 
L 1006 1294 
Q 791 1341 614 1437 
Q 438 1534 325 1695 
Q 213 1856 213 2069 
Q 213 2350 361 2529 
Q 509 2709 746 2789 
Q 984 2869 1259 2869 
Q 1588 2869 1831 2694 
L 2016 2853 
Q 2016 2869 2047 2869 
L 2094 2869 
Q 2113 2869 2128 2851 
Q 2144 2834 2144 2816 
L 2144 1978 
Q 2144 1919 2094 1919 
L 2016 1919 
Q 1959 1919 1959 1978 
Q 1959 2313 1773 2516 
Q 1588 2719 1253 2719 
Q 966 2719 755 2612 
Q 544 2506 544 2247 
Q 544 2069 695 1955 
Q 847 1841 1050 1791 
L 1484 1709 
Q 1703 1659 1892 1540 
Q 2081 1422 2192 1240 
Q 2303 1059 2303 831 
Q 2303 600 2223 429 
Q 2144 259 2001 146 
Q 1859 34 1665 -19 
Q 1472 -72 1259 -72 
Q 859 -72 575 197 
L 341 -56 
Q 341 -72 306 -72 
L 269 -72 
Q 213 -72 213 -19 
z
" transform="scale(0.015625)"/>
      </defs>
      <use xlink:href="#Cmr10-4c"/>
      <use xlink:href="#Cmr10-6f" x="62.5"/>
      <use xlink:href="#Cmr10-73" x="112.5"/>
      <use xlink:href="#Cmr10-73" x="151.904297"/>
     </g>
    </g>
   </g>
   <g id="line2d_15">
    <path d="M 54.999519 24.914224 
L 70.107312 29.16587 
L 85.215106 29.770644 
L 100.322899 30.092584 
L 115.430693 30.278246 
L 130.538487 30.410277 
L 145.64628 30.505342 
L 160.754074 30.578226 
L 175.861867 30.631754 
L 190.969661 30.674215 
L 206.077454 30.703805 
L 221.185248 30.735461 
L 236.293041 30.753553 
L 251.400835 30.786467 
L 266.508628 30.839435 
L 281.616422 30.863707 
L 296.724216 30.86303 
L 311.832009 30.885061 
L 326.939803 30.890434 
L 342.047596 30.906714 
" clip-path="url(#p5b5fb34dfa)" style="fill: none; stroke: #000075; stroke-width: 1.5; stroke-linecap: square"/>
   </g>
   <g id="line2d_16">
    <path d="M 54.999519 83.420662 
L 70.107312 90.90376 
L 85.215106 92.069516 
L 100.322899 92.69968 
L 115.430693 93.044821 
L 130.538487 93.257216 
L 145.64628 93.414637 
L 160.754074 93.58052 
L 175.861867 93.667276 
L 190.969661 93.753843 
L 206.077454 93.847795 
L 221.185248 93.88874 
L 236.293041 93.944606 
L 251.400835 94.030052 
L 266.508628 94.133477 
L 281.616422 94.157957 
L 296.724216 94.19768 
L 311.832009 94.214973 
L 326.939803 94.231809 
L 342.047596 94.271119 
" clip-path="url(#p5b5fb34dfa)" style="fill: none; stroke: #46f0f0; stroke-width: 1.5; stroke-linecap: square"/>
   </g>
   <g id="line2d_17">
    <path d="M 54.999519 91.164356 
L 70.107312 102.688527 
L 85.215106 104.41316 
L 100.322899 105.214168 
L 115.430693 105.738712 
L 130.538487 106.085818 
L 145.64628 106.303091 
L 160.754074 106.500273 
L 175.861867 106.6223 
L 190.969661 106.751652 
L 206.077454 106.847687 
L 221.185248 106.938954 
L 236.293041 107.013538 
L 251.400835 107.080254 
L 266.508628 107.125401 
L 281.616422 107.18626 
L 296.724216 107.332457 
L 311.832009 107.357785 
L 326.939803 107.402744 
L 342.047596 107.424643 
" clip-path="url(#p5b5fb34dfa)" style="fill: none; stroke: #4363d8; stroke-width: 1.5; stroke-linecap: square"/>
   </g>
   <g id="line2d_18">
    <path d="M 54.999519 157.952637 
L 70.107312 169.613625 
L 85.215106 171.483426 
L 100.322899 172.439243 
L 115.430693 172.959502 
L 130.538487 173.347601 
L 145.64628 173.629989 
L 160.754074 173.843276 
L 175.861867 174.016677 
L 190.969661 174.126389 
L 206.077454 174.280606 
L 221.185248 174.377332 
L 236.293041 174.471864 
L 251.400835 174.569707 
L 266.508628 174.625195 
L 281.616422 174.66884 
L 296.724216 174.760216 
L 311.832009 174.818171 
L 326.939803 174.859854 
L 342.047596 175.047507 
" clip-path="url(#p5b5fb34dfa)" style="fill: none; stroke: #e6194b; stroke-width: 1.5; stroke-linecap: square"/>
   </g>
   <g id="line2d_19">
    <path d="M 54.999519 162.121939 
L 70.107312 171.924274 
L 85.215106 173.468389 
L 100.322899 174.165208 
L 115.430693 174.610499 
L 130.538487 174.872117 
L 145.64628 175.069276 
L 160.754074 175.228376 
L 175.861867 175.344189 
L 190.969661 175.429279 
L 206.077454 175.497803 
L 221.185248 175.571888 
L 236.293041 175.692853 
L 251.400835 175.734795 
L 266.508628 175.778154 
L 281.616422 175.810428 
L 296.724216 175.839997 
L 311.832009 175.863138 
L 326.939803 175.880773 
L 342.047596 175.946933 
" clip-path="url(#p5b5fb34dfa)" style="fill: none; stroke: #3cb44b; stroke-width: 1.5; stroke-linecap: square"/>
   </g>
   <g id="line2d_20">
    <path d="M 54.999519 164.155315 
L 70.107312 171.611519 
L 85.215106 172.8553 
L 100.322899 173.549816 
L 115.430693 174.011814 
L 130.538487 174.260529 
L 145.64628 174.52258 
L 160.754074 174.689122 
L 175.861867 174.80601 
L 190.969661 174.924238 
L 206.077454 175.015224 
L 221.185248 175.109104 
L 236.293041 175.186788 
L 251.400835 175.272122 
L 266.508628 175.307487 
L 281.616422 175.347856 
L 296.724216 175.411888 
L 311.832009 175.546362 
L 326.939803 175.581296 
L 342.047596 175.636752 
" clip-path="url(#p5b5fb34dfa)" style="fill: none; stroke: #f58231; stroke-width: 1.5; stroke-linecap: square"/>
   </g>
   <g id="line2d_21">
    <path d="M 54.999519 174.403725 
L 70.107312 175.785238 
L 85.215106 175.999852 
L 100.322899 176.123756 
L 115.430693 176.233927 
L 130.538487 176.29539 
L 145.64628 176.351858 
L 160.754074 176.395755 
L 175.861867 176.439659 
L 190.969661 176.468214 
L 206.077454 176.500912 
L 221.185248 176.510507 
L 236.293041 176.55864 
L 251.400835 176.578304 
L 266.508628 176.592346 
L 281.616422 176.616 
L 296.724216 176.626052 
L 311.832009 176.644726 
L 326.939803 176.647567 
L 342.047596 176.656401 
" clip-path="url(#p5b5fb34dfa)" style="fill: none; stroke: #000000; stroke-width: 1.5; stroke-linecap: square"/>
   </g>
   <g id="patch_3">
    <path d="M 40.647115 184.24351 
L 40.647115 17.327115 
" style="fill: none; stroke: #000000; stroke-width: 0.8; stroke-linejoin: miter; stroke-linecap: square"/>
   </g>
   <g id="patch_4">
    <path d="M 356.4 184.24351 
L 356.4 17.327115 
" style="fill: none; stroke: #000000; stroke-width: 0.8; stroke-linejoin: miter; stroke-linecap: square"/>
   </g>
   <g id="patch_5">
    <path d="M 40.647115 184.24351 
L 356.4 184.24351 
" style="fill: none; stroke: #000000; stroke-width: 0.8; stroke-linejoin: miter; stroke-linecap: square"/>
   </g>
   <g id="patch_6">
    <path d="M 40.647115 17.327115 
L 356.4 17.327115 
" style="fill: none; stroke: #000000; stroke-width: 0.8; stroke-linejoin: miter; stroke-linecap: square"/>
   </g>
   <g id="text_17">
    <!-- A -->
    <g transform="translate(44.040937 32.845845) scale(0.12 -0.12)">
     <defs>
      <path id="Cmr10-41" d="M 206 0 
L 206 225 
Q 778 225 909 603 
L 2253 4513 
Q 2272 4581 2356 4581 
L 2438 4581 
Q 2522 4581 2541 4513 
L 3944 428 
Q 4003 294 4170 259 
Q 4338 225 4588 225 
L 4588 0 
L 2803 0 
L 2803 225 
Q 3334 225 3334 397 
L 3334 428 
L 2988 1428 
L 1434 1428 
L 1147 603 
Q 1141 581 1141 538 
Q 1141 378 1292 301 
Q 1444 225 1619 225 
L 1619 0 
L 206 0 
z
M 1509 1650 
L 2913 1650 
L 2209 3694 
L 1509 1650 
z
" transform="scale(0.015625)"/>
     </defs>
     <use xlink:href="#Cmr10-41"/>
    </g>
   </g>
   <g id="text_18">
    <!-- Loss -->
    <g transform="translate(187.044807 11.327115) scale(0.12 -0.12)">
     <use xlink:href="#Cmr10-4c"/>
     <use xlink:href="#Cmr10-6f" x="62.5"/>
     <use xlink:href="#Cmr10-73" x="112.5"/>
     <use xlink:href="#Cmr10-73" x="151.904297"/>
    </g>
   </g>
  </g>
  <g id="axes_2">
   <g id="table_1">
    <g id="patch_7">
     <path d="M 401.246875 61.043314 
L 559.123317 61.043314 
L 559.123317 47.795981 
L 401.246875 47.795981 
z
" style="fill: #ffffff; stroke: #000000; stroke-linejoin: miter"/>
    </g>
    <g id="text_19">
     <!-- Loss function -->
     <g transform="translate(451.056971 56.919647) scale(0.1 -0.1)">
      <defs>
       <path id="Cmr10-20" transform="scale(0.015625)"/>
       <path id="Cmr10-66" d="M 206 0 
L 206 225 
Q 422 225 562 259 
Q 703 294 703 428 
L 703 2534 
L 213 2534 
L 213 2759 
L 703 2759 
L 703 3525 
Q 703 3731 789 3911 
Q 875 4091 1020 4225 
Q 1166 4359 1355 4436 
Q 1544 4513 1747 4513 
Q 1963 4513 2136 4384 
Q 2309 4256 2309 4044 
Q 2309 3922 2226 3839 
Q 2144 3756 2022 3756 
Q 1900 3756 1814 3839 
Q 1728 3922 1728 4044 
Q 1728 4244 1900 4313 
Q 1797 4347 1716 4347 
Q 1528 4347 1395 4214 
Q 1263 4081 1197 3890 
Q 1131 3700 1131 3513 
L 1131 2759 
L 1869 2759 
L 1869 2534 
L 1153 2534 
L 1153 428 
Q 1153 297 1340 261 
Q 1528 225 1772 225 
L 1772 0 
L 206 0 
z
" transform="scale(0.015625)"/>
       <path id="Cmr10-75" d="M 691 763 
L 691 2175 
Q 691 2347 639 2423 
Q 588 2500 491 2517 
Q 394 2534 191 2534 
L 191 2759 
L 1159 2828 
L 1159 763 
Q 1159 513 1195 373 
Q 1231 234 1348 165 
Q 1466 97 1722 97 
Q 2066 97 2269 384 
Q 2472 672 2472 1038 
L 2472 2175 
Q 2472 2347 2419 2423 
Q 2366 2500 2270 2517 
Q 2175 2534 1972 2534 
L 1972 2759 
L 2938 2828 
L 2938 581 
Q 2938 413 2989 336 
Q 3041 259 3137 242 
Q 3234 225 3438 225 
L 3438 0 
L 2491 -72 
L 2491 469 
Q 2372 228 2159 78 
Q 1947 -72 1691 -72 
Q 1231 -72 961 123 
Q 691 319 691 763 
z
" transform="scale(0.015625)"/>
       <path id="Cmr10-6e" d="M 191 0 
L 191 225 
Q 409 225 550 259 
Q 691 294 691 428 
L 691 2175 
Q 691 2347 639 2423 
Q 588 2500 491 2517 
Q 394 2534 191 2534 
L 191 2759 
L 1119 2828 
L 1119 2203 
Q 1247 2478 1498 2653 
Q 1750 2828 2047 2828 
Q 2491 2828 2714 2615 
Q 2938 2403 2938 1966 
L 2938 428 
Q 2938 294 3078 259 
Q 3219 225 3438 225 
L 3438 0 
L 1972 0 
L 1972 225 
Q 2191 225 2331 259 
Q 2472 294 2472 428 
L 2472 1947 
Q 2472 2259 2381 2461 
Q 2291 2663 2009 2663 
Q 1638 2663 1398 2366 
Q 1159 2069 1159 1691 
L 1159 428 
Q 1159 294 1300 259 
Q 1441 225 1656 225 
L 1656 0 
L 191 0 
z
" transform="scale(0.015625)"/>
       <path id="Cmr10-74" d="M 653 769 
L 653 2534 
L 122 2534 
L 122 2700 
Q 541 2700 737 3090 
Q 934 3481 934 3938 
L 1119 3938 
L 1119 2759 
L 2022 2759 
L 2022 2534 
L 1119 2534 
L 1119 781 
Q 1119 516 1208 316 
Q 1297 116 1528 116 
Q 1747 116 1844 327 
Q 1941 538 1941 781 
L 1941 1159 
L 2125 1159 
L 2125 769 
Q 2125 569 2051 373 
Q 1978 178 1834 53 
Q 1691 -72 1484 -72 
Q 1100 -72 876 158 
Q 653 388 653 769 
z
" transform="scale(0.015625)"/>
       <path id="Cmr10-69" d="M 197 0 
L 197 225 
Q 416 225 556 259 
Q 697 294 697 428 
L 697 2175 
Q 697 2422 601 2478 
Q 506 2534 225 2534 
L 225 2759 
L 1147 2828 
L 1147 428 
Q 1147 294 1269 259 
Q 1391 225 1594 225 
L 1594 0 
L 197 0 
z
M 469 3928 
Q 469 4069 575 4175 
Q 681 4281 819 4281 
Q 909 4281 993 4234 
Q 1078 4188 1125 4103 
Q 1172 4019 1172 3928 
Q 1172 3791 1065 3684 
Q 959 3578 819 3578 
Q 681 3578 575 3684 
Q 469 3791 469 3928 
z
" transform="scale(0.015625)"/>
      </defs>
      <use xlink:href="#Cmr10-4c"/>
      <use xlink:href="#Cmr10-6f" x="62.5"/>
      <use xlink:href="#Cmr10-73" x="112.5"/>
      <use xlink:href="#Cmr10-73" x="151.904297"/>
      <use xlink:href="#Cmr10-20" x="191.308594"/>
      <use xlink:href="#Cmr10-66" x="224.609375"/>
      <use xlink:href="#Cmr10-75" x="255.126953"/>
      <use xlink:href="#Cmr10-6e" x="310.644531"/>
      <use xlink:href="#Cmr10-63" x="366.162109"/>
      <use xlink:href="#Cmr10-74" x="410.546875"/>
      <use xlink:href="#Cmr10-69" x="449.365234"/>
      <use xlink:href="#Cmr10-6f" x="477.050781"/>
      <use xlink:href="#Cmr10-6e" x="527.050781"/>
     </g>
    </g>
    <g id="patch_8">
     <path d="M 559.123317 61.043314 
L 716.99976 61.043314 
L 716.99976 47.795981 
L 559.123317 47.795981 
z
" style="fill: #ffffff; stroke: #000000; stroke-linejoin: miter"/>
    </g>
    <g id="text_20">
     <!-- Val IoU -->
     <g transform="translate(620.708414 56.919647) scale(0.1 -0.1)">
      <defs>
       <path id="Cmr10-56" d="M 2253 -72 
L 744 3944 
Q 688 4078 528 4112 
Q 369 4147 122 4147 
L 122 4372 
L 1881 4372 
L 1881 4147 
Q 1350 4147 1350 3981 
Q 1353 3972 1354 3964 
Q 1356 3956 1356 3944 
L 2584 678 
L 3744 3769 
Q 3756 3794 3756 3847 
Q 3756 4003 3612 4075 
Q 3469 4147 3291 4147 
L 3291 4372 
L 4672 4372 
L 4672 4147 
Q 4431 4147 4248 4058 
Q 4066 3969 3988 3769 
L 2541 -72 
Q 2522 -141 2438 -141 
L 2356 -141 
Q 2272 -141 2253 -72 
z
" transform="scale(0.015625)"/>
       <path id="Cmr10-61" d="M 256 628 
Q 256 1009 556 1248 
Q 856 1488 1276 1586 
Q 1697 1684 2075 1684 
L 2075 1947 
Q 2075 2131 1994 2304 
Q 1913 2478 1759 2589 
Q 1606 2700 1422 2700 
Q 997 2700 775 2509 
Q 897 2509 976 2417 
Q 1056 2325 1056 2203 
Q 1056 2075 965 1984 
Q 875 1894 750 1894 
Q 622 1894 531 1984 
Q 441 2075 441 2203 
Q 441 2541 747 2705 
Q 1053 2869 1422 2869 
Q 1681 2869 1943 2758 
Q 2206 2647 2373 2440 
Q 2541 2234 2541 1959 
L 2541 519 
Q 2541 394 2594 289 
Q 2647 184 2759 184 
Q 2866 184 2917 290 
Q 2969 397 2969 519 
L 2969 928 
L 3156 928 
L 3156 519 
Q 3156 375 3081 245 
Q 3006 116 2879 39 
Q 2753 -38 2606 -38 
Q 2419 -38 2283 107 
Q 2147 253 2131 453 
Q 2013 213 1781 70 
Q 1550 -72 1288 -72 
Q 1044 -72 808 0 
Q 572 72 414 226 
Q 256 381 256 628 
z
M 775 628 
Q 775 403 940 250 
Q 1106 97 1331 97 
Q 1538 97 1706 200 
Q 1875 303 1975 481 
Q 2075 659 2075 856 
L 2075 1522 
Q 1784 1522 1479 1426 
Q 1175 1331 975 1128 
Q 775 925 775 628 
z
" transform="scale(0.015625)"/>
       <path id="Cmr10-6c" d="M 197 0 
L 197 225 
Q 416 225 556 259 
Q 697 294 697 428 
L 697 3788 
Q 697 3959 645 4036 
Q 594 4113 497 4130 
Q 400 4147 197 4147 
L 197 4372 
L 1147 4441 
L 1147 428 
Q 1147 294 1287 259 
Q 1428 225 1644 225 
L 1644 0 
L 197 0 
z
" transform="scale(0.015625)"/>
       <path id="Cmr10-49" d="M 166 0 
L 166 225 
Q 856 225 856 428 
L 856 3944 
Q 856 4147 166 4147 
L 166 4372 
L 2144 4372 
L 2144 4147 
Q 1453 4147 1453 3944 
L 1453 428 
Q 1453 225 2144 225 
L 2144 0 
L 166 0 
z
" transform="scale(0.015625)"/>
       <path id="Cmr10-55" d="M 856 1447 
L 856 3944 
Q 856 4147 197 4147 
L 197 4372 
L 2113 4372 
L 2113 4147 
Q 1453 4147 1453 3944 
L 1453 1472 
Q 1453 1116 1551 798 
Q 1650 481 1883 282 
Q 2116 84 2491 84 
Q 2856 84 3134 276 
Q 3413 469 3563 787 
Q 3713 1106 3713 1472 
L 3713 3769 
Q 3713 4147 3053 4147 
L 3053 4372 
L 4594 4372 
L 4594 4147 
Q 3938 4147 3938 3769 
L 3938 1447 
Q 3938 1150 3833 865 
Q 3728 581 3529 351 
Q 3331 122 3062 -9 
Q 2794 -141 2491 -141 
Q 2066 -141 1686 71 
Q 1306 284 1081 650 
Q 856 1016 856 1447 
z
" transform="scale(0.015625)"/>
      </defs>
      <use xlink:href="#Cmr10-56"/>
      <use xlink:href="#Cmr10-61" x="75"/>
      <use xlink:href="#Cmr10-6c" x="125"/>
      <use xlink:href="#Cmr10-20" x="152.685547"/>
      <use xlink:href="#Cmr10-49" x="185.986328"/>
      <use xlink:href="#Cmr10-6f" x="222.070312"/>
      <use xlink:href="#Cmr10-55" x="272.070312"/>
     </g>
    </g>
    <g id="patch_9">
     <path d="M 401.246875 74.290647 
L 559.123317 74.290647 
L 559.123317 61.043314 
L 401.246875 61.043314 
z
" style="fill: #ffffff; stroke: #000000; stroke-linejoin: miter"/>
    </g>
    <g id="text_21">
     <!-- JaccardLoss -->
     <g transform="translate(490.732548 70.16698) scale(0.1 -0.1)">
      <defs>
       <path id="Cmr10-4a" d="M 581 359 
Q 697 197 881 111 
Q 1066 25 1275 25 
Q 1481 25 1623 167 
Q 1766 309 1836 520 
Q 1906 731 1906 928 
L 1906 3944 
Q 1906 4147 1050 4147 
L 1050 4372 
L 2975 4372 
L 2975 4147 
Q 2759 4147 2621 4112 
Q 2484 4078 2484 3944 
L 2484 903 
Q 2484 597 2307 359 
Q 2131 122 1851 -9 
Q 1572 -141 1275 -141 
Q 1016 -141 778 -36 
Q 541 69 389 267 
Q 238 466 238 728 
Q 238 888 344 994 
Q 450 1100 609 1100 
Q 713 1100 797 1051 
Q 881 1003 929 915 
Q 978 828 978 728 
Q 978 572 872 465 
Q 766 359 609 359 
L 581 359 
z
" transform="scale(0.015625)"/>
       <path id="Cmr10-72" d="M 166 0 
L 166 225 
Q 384 225 525 259 
Q 666 294 666 428 
L 666 2175 
Q 666 2347 614 2423 
Q 563 2500 466 2517 
Q 369 2534 166 2534 
L 166 2759 
L 1081 2828 
L 1081 2203 
Q 1184 2481 1375 2654 
Q 1566 2828 1838 2828 
Q 2028 2828 2178 2715 
Q 2328 2603 2328 2419 
Q 2328 2303 2245 2217 
Q 2163 2131 2041 2131 
Q 1922 2131 1837 2215 
Q 1753 2300 1753 2419 
Q 1753 2591 1875 2663 
L 1838 2663 
Q 1578 2663 1414 2475 
Q 1250 2288 1181 2009 
Q 1113 1731 1113 1478 
L 1113 428 
Q 1113 225 1734 225 
L 1734 0 
L 166 0 
z
" transform="scale(0.015625)"/>
       <path id="Cmr10-64" d="M 1563 -72 
Q 1184 -72 871 133 
Q 559 338 386 672 
Q 213 1006 213 1381 
Q 213 1769 402 2101 
Q 591 2434 916 2631 
Q 1241 2828 1631 2828 
Q 1866 2828 2075 2729 
Q 2284 2631 2438 2456 
L 2438 3788 
Q 2438 3959 2386 4036 
Q 2334 4113 2239 4130 
Q 2144 4147 1941 4147 
L 1941 4372 
L 2888 4441 
L 2888 581 
Q 2888 413 2939 336 
Q 2991 259 3086 242 
Q 3181 225 3384 225 
L 3384 0 
L 2419 -72 
L 2419 331 
Q 2253 141 2025 34 
Q 1797 -72 1563 -72 
z
M 909 556 
Q 1019 347 1201 222 
Q 1384 97 1600 97 
Q 1866 97 2087 250 
Q 2309 403 2419 647 
L 2419 2181 
Q 2344 2322 2230 2433 
Q 2116 2544 1973 2603 
Q 1831 2663 1672 2663 
Q 1338 2663 1134 2473 
Q 931 2284 850 1990 
Q 769 1697 769 1375 
Q 769 1119 795 928 
Q 822 738 909 556 
z
" transform="scale(0.015625)"/>
      </defs>
      <use xlink:href="#Cmr10-4a"/>
      <use xlink:href="#Cmr10-61" x="51.318359"/>
      <use xlink:href="#Cmr10-63" x="101.318359"/>
      <use xlink:href="#Cmr10-63" x="145.703125"/>
      <use xlink:href="#Cmr10-61" x="190.087891"/>
      <use xlink:href="#Cmr10-72" x="240.087891"/>
      <use xlink:href="#Cmr10-64" x="279.199219"/>
      <use xlink:href="#Cmr10-4c" x="334.716797"/>
      <use xlink:href="#Cmr10-6f" x="397.216797"/>
      <use xlink:href="#Cmr10-73" x="447.216797"/>
      <use xlink:href="#Cmr10-73" x="486.621094"/>
     </g>
    </g>
    <g id="patch_10">
     <path d="M 559.123317 74.290647 
L 716.99976 74.290647 
L 716.99976 61.043314 
L 559.123317 61.043314 
z
" style="fill: #ffffff; stroke: #000000; stroke-linejoin: miter"/>
    </g>
    <g id="text_22">
     <!-- 0.97949 -->
     <g transform="translate(668.443366 70.16698) scale(0.1 -0.1)">
      <defs>
       <path id="Cmr10-37" d="M 1113 166 
Q 1113 522 1175 862 
Q 1238 1203 1358 1536 
Q 1478 1869 1648 2189 
Q 1819 2509 2022 2791 
L 2606 3603 
L 1875 3603 
Q 738 3603 703 3572 
Q 619 3469 544 2981 
L 359 2981 
L 569 4325 
L 756 4325 
L 756 4306 
Q 756 4191 1147 4156 
Q 1538 4122 1913 4122 
L 3103 4122 
L 3103 3956 
Q 3103 3950 3101 3947 
Q 3100 3944 3097 3938 
L 2216 2700 
Q 1891 2219 1809 1631 
Q 1728 1044 1728 166 
Q 1728 41 1637 -50 
Q 1547 -141 1422 -141 
Q 1294 -141 1203 -50 
Q 1113 41 1113 166 
z
" transform="scale(0.015625)"/>
      </defs>
      <use xlink:href="#Cmr10-30"/>
      <use xlink:href="#Cmr10-2e" x="50"/>
      <use xlink:href="#Cmr10-39" x="77.685547"/>
      <use xlink:href="#Cmr10-37" x="127.685547"/>
      <use xlink:href="#Cmr10-39" x="177.685547"/>
      <use xlink:href="#Cmr10-34" x="227.685547"/>
      <use xlink:href="#Cmr10-39" x="277.685547"/>
     </g>
    </g>
    <g id="patch_11">
     <path d="M 401.246875 87.53798 
L 559.123317 87.53798 
L 559.123317 74.290647 
L 401.246875 74.290647 
z
" style="fill: #ffffff; stroke: #000000; stroke-linejoin: miter"/>
    </g>
    <g id="text_23">
     <!-- BCEJaccardLoss -->
     <g transform="translate(469.629423 83.414313) scale(0.1 -0.1)">
      <defs>
       <path id="Cmr10-42" d="M 219 0 
L 219 225 
Q 878 225 878 428 
L 878 3944 
Q 878 4147 219 4147 
L 219 4372 
L 2572 4372 
Q 2897 4372 3228 4245 
Q 3559 4119 3776 3870 
Q 3994 3622 3994 3284 
Q 3994 2894 3673 2630 
Q 3353 2366 2925 2284 
Q 3203 2284 3497 2131 
Q 3791 1978 3978 1722 
Q 4166 1466 4166 1178 
Q 4166 828 3958 559 
Q 3750 291 3419 145 
Q 3088 0 2753 0 
L 219 0 
z
M 1434 428 
Q 1434 291 1512 258 
Q 1591 225 1759 225 
L 2572 225 
Q 2822 225 3036 356 
Q 3250 488 3375 708 
Q 3500 928 3500 1178 
Q 3500 1422 3397 1655 
Q 3294 1888 3101 2038 
Q 2909 2188 2663 2188 
L 1434 2188 
L 1434 428 
z
M 1434 2356 
L 2394 2356 
Q 2588 2356 2758 2426 
Q 2928 2497 3064 2630 
Q 3200 2763 3273 2930 
Q 3347 3097 3347 3284 
Q 3347 3450 3292 3603 
Q 3238 3756 3131 3881 
Q 3025 4006 2881 4076 
Q 2738 4147 2572 4147 
L 1759 4147 
Q 1644 4147 1580 4137 
Q 1516 4128 1475 4083 
Q 1434 4038 1434 3944 
L 1434 2356 
z
" transform="scale(0.015625)"/>
       <path id="Cmr10-43" d="M 1459 684 
Q 1678 406 2006 245 
Q 2334 84 2688 84 
Q 2984 84 3237 201 
Q 3491 319 3680 528 
Q 3869 738 3970 1003 
Q 4072 1269 4072 1563 
Q 4072 1613 4128 1613 
L 4206 1613 
Q 4256 1613 4256 1550 
Q 4256 1216 4128 905 
Q 4000 594 3765 358 
Q 3531 122 3226 -9 
Q 2922 -141 2591 -141 
Q 2131 -141 1720 45 
Q 1309 231 1004 554 
Q 700 878 529 1303 
Q 359 1728 359 2188 
Q 359 2647 529 3072 
Q 700 3497 1004 3822 
Q 1309 4147 1720 4330 
Q 2131 4513 2591 4513 
Q 2919 4513 3219 4370 
Q 3519 4228 3744 3969 
L 4116 4494 
Q 4153 4513 4159 4513 
L 4206 4513 
Q 4225 4513 4240 4497 
Q 4256 4481 4256 4459 
L 4256 2731 
Q 4256 2675 4206 2675 
L 4091 2675 
Q 4031 2675 4031 2731 
Q 4031 2916 3957 3144 
Q 3884 3372 3770 3576 
Q 3656 3781 3506 3938 
Q 3147 4288 2681 4288 
Q 2328 4288 2004 4128 
Q 1681 3969 1459 3688 
Q 1225 3388 1134 3005 
Q 1044 2622 1044 2188 
Q 1044 1753 1134 1368 
Q 1225 984 1459 684 
z
" transform="scale(0.015625)"/>
      </defs>
      <use xlink:href="#Cmr10-42"/>
      <use xlink:href="#Cmr10-43" x="70.800781"/>
      <use xlink:href="#Cmr10-45" x="143.017578"/>
      <use xlink:href="#Cmr10-4a" x="211.035156"/>
      <use xlink:href="#Cmr10-61" x="262.353516"/>
      <use xlink:href="#Cmr10-63" x="312.353516"/>
      <use xlink:href="#Cmr10-63" x="356.738281"/>
      <use xlink:href="#Cmr10-61" x="401.123047"/>
      <use xlink:href="#Cmr10-72" x="451.123047"/>
      <use xlink:href="#Cmr10-64" x="490.234375"/>
      <use xlink:href="#Cmr10-4c" x="545.751953"/>
      <use xlink:href="#Cmr10-6f" x="608.251953"/>
      <use xlink:href="#Cmr10-73" x="658.251953"/>
      <use xlink:href="#Cmr10-73" x="697.65625"/>
     </g>
    </g>
    <g id="patch_12">
     <path d="M 559.123317 87.53798 
L 716.99976 87.53798 
L 716.99976 74.290647 
L 559.123317 74.290647 
z
" style="fill: #ffffff; stroke: #000000; stroke-linejoin: miter"/>
    </g>
    <g id="text_24">
     <!-- 0.97937 -->
     <g transform="translate(668.443366 83.414313) scale(0.1 -0.1)">
      <use xlink:href="#Cmr10-30"/>
      <use xlink:href="#Cmr10-2e" x="50"/>
      <use xlink:href="#Cmr10-39" x="77.685547"/>
      <use xlink:href="#Cmr10-37" x="127.685547"/>
      <use xlink:href="#Cmr10-39" x="177.685547"/>
      <use xlink:href="#Cmr10-33" x="227.685547"/>
      <use xlink:href="#Cmr10-37" x="277.685547"/>
     </g>
    </g>
    <g id="patch_13">
     <path d="M 401.246875 100.785312 
L 559.123317 100.785312 
L 559.123317 87.53798 
L 401.246875 87.53798 
z
" style="fill: #ffffff; stroke: #000000; stroke-linejoin: miter"/>
    </g>
    <g id="text_25">
     <!-- DiceLoss -->
     <g transform="translate(504.926298 96.661646) scale(0.1 -0.1)">
      <defs>
       <path id="Cmr10-44" d="M 213 0 
L 213 225 
Q 872 225 872 428 
L 872 3944 
Q 872 4147 213 4147 
L 213 4372 
L 2572 4372 
Q 3009 4372 3371 4183 
Q 3734 3994 3990 3678 
Q 4247 3363 4386 2963 
Q 4525 2563 4525 2144 
Q 4525 1738 4384 1355 
Q 4244 972 3980 664 
Q 3716 356 3355 178 
Q 2994 0 2572 0 
L 213 0 
z
M 1447 428 
Q 1447 291 1525 258 
Q 1603 225 1772 225 
L 2406 225 
Q 2734 225 3029 367 
Q 3325 509 3519 763 
Q 3722 1031 3790 1364 
Q 3859 1697 3859 2144 
Q 3859 2609 3790 2959 
Q 3722 3309 3519 3584 
Q 3328 3856 3034 4001 
Q 2741 4147 2406 4147 
L 1772 4147 
Q 1656 4147 1592 4137 
Q 1528 4128 1487 4083 
Q 1447 4038 1447 3944 
L 1447 428 
z
" transform="scale(0.015625)"/>
       <path id="Cmr10-65" d="M 1594 -72 
Q 1203 -72 876 133 
Q 550 338 364 680 
Q 178 1022 178 1403 
Q 178 1778 348 2115 
Q 519 2453 823 2661 
Q 1128 2869 1503 2869 
Q 1797 2869 2014 2770 
Q 2231 2672 2372 2497 
Q 2513 2322 2584 2084 
Q 2656 1847 2656 1563 
Q 2656 1478 2591 1478 
L 738 1478 
L 738 1409 
Q 738 878 952 497 
Q 1166 116 1650 116 
Q 1847 116 2014 203 
Q 2181 291 2304 447 
Q 2428 603 2472 781 
Q 2478 803 2495 820 
Q 2513 838 2534 838 
L 2591 838 
Q 2656 838 2656 756 
Q 2566 394 2266 161 
Q 1966 -72 1594 -72 
z
M 744 1638 
L 2203 1638 
Q 2203 1878 2136 2125 
Q 2069 2372 1912 2536 
Q 1756 2700 1503 2700 
Q 1141 2700 942 2361 
Q 744 2022 744 1638 
z
" transform="scale(0.015625)"/>
      </defs>
      <use xlink:href="#Cmr10-44"/>
      <use xlink:href="#Cmr10-69" x="76.318359"/>
      <use xlink:href="#Cmr10-63" x="104.003906"/>
      <use xlink:href="#Cmr10-65" x="148.388672"/>
      <use xlink:href="#Cmr10-4c" x="192.773438"/>
      <use xlink:href="#Cmr10-6f" x="255.273438"/>
      <use xlink:href="#Cmr10-73" x="305.273438"/>
      <use xlink:href="#Cmr10-73" x="344.677734"/>
     </g>
    </g>
    <g id="patch_14">
     <path d="M 559.123317 100.785312 
L 716.99976 100.785312 
L 716.99976 87.53798 
L 559.123317 87.53798 
z
" style="fill: #ffffff; stroke: #000000; stroke-linejoin: miter"/>
    </g>
    <g id="text_26">
     <!-- 0.9791 -->
     <g transform="translate(673.443366 96.661646) scale(0.1 -0.1)">
      <use xlink:href="#Cmr10-30"/>
      <use xlink:href="#Cmr10-2e" x="50"/>
      <use xlink:href="#Cmr10-39" x="77.685547"/>
      <use xlink:href="#Cmr10-37" x="127.685547"/>
      <use xlink:href="#Cmr10-39" x="177.685547"/>
      <use xlink:href="#Cmr10-31" x="227.685547"/>
     </g>
    </g>
    <g id="patch_15">
     <path d="M 401.246875 114.032645 
L 559.123317 114.032645 
L 559.123317 100.785312 
L 401.246875 100.785312 
z
" style="fill: #ffffff; stroke: #000000; stroke-linejoin: miter"/>
    </g>
    <g id="text_27">
     <!-- BCEDiceLoss -->
     <g transform="translate(483.823173 109.908979) scale(0.1 -0.1)">
      <use xlink:href="#Cmr10-42"/>
      <use xlink:href="#Cmr10-43" x="70.800781"/>
      <use xlink:href="#Cmr10-45" x="143.017578"/>
      <use xlink:href="#Cmr10-44" x="211.035156"/>
      <use xlink:href="#Cmr10-69" x="287.353516"/>
      <use xlink:href="#Cmr10-63" x="315.039062"/>
      <use xlink:href="#Cmr10-65" x="359.423828"/>
      <use xlink:href="#Cmr10-4c" x="403.808594"/>
      <use xlink:href="#Cmr10-6f" x="466.308594"/>
      <use xlink:href="#Cmr10-73" x="516.308594"/>
      <use xlink:href="#Cmr10-73" x="555.712891"/>
     </g>
    </g>
    <g id="patch_16">
     <path d="M 559.123317 114.032645 
L 716.99976 114.032645 
L 716.99976 100.785312 
L 559.123317 100.785312 
z
" style="fill: #ffffff; stroke: #000000; stroke-linejoin: miter"/>
    </g>
    <g id="text_28">
     <!-- 0.97886 -->
     <g transform="translate(668.443366 109.908979) scale(0.1 -0.1)">
      <use xlink:href="#Cmr10-30"/>
      <use xlink:href="#Cmr10-2e" x="50"/>
      <use xlink:href="#Cmr10-39" x="77.685547"/>
      <use xlink:href="#Cmr10-37" x="127.685547"/>
      <use xlink:href="#Cmr10-38" x="177.685547"/>
      <use xlink:href="#Cmr10-38" x="227.685547"/>
      <use xlink:href="#Cmr10-36" x="277.685547"/>
     </g>
    </g>
    <g id="patch_17">
     <path d="M 401.246875 127.279978 
L 559.123317 127.279978 
L 559.123317 114.032645 
L 401.246875 114.032645 
z
" style="fill: #ffffff; stroke: #000000; stroke-linejoin: miter"/>
    </g>
    <g id="text_29">
     <!-- BCELoss -->
     <g transform="translate(503.101298 123.156312) scale(0.1 -0.1)">
      <use xlink:href="#Cmr10-42"/>
      <use xlink:href="#Cmr10-43" x="70.800781"/>
      <use xlink:href="#Cmr10-45" x="143.017578"/>
      <use xlink:href="#Cmr10-4c" x="211.035156"/>
      <use xlink:href="#Cmr10-6f" x="273.535156"/>
      <use xlink:href="#Cmr10-73" x="323.535156"/>
      <use xlink:href="#Cmr10-73" x="362.939453"/>
     </g>
    </g>
    <g id="patch_18">
     <path d="M 559.123317 127.279978 
L 716.99976 127.279978 
L 716.99976 114.032645 
L 559.123317 114.032645 
z
" style="fill: #ffffff; stroke: #000000; stroke-linejoin: miter"/>
    </g>
    <g id="text_30">
     <!-- 0.97836 -->
     <g transform="translate(668.443366 123.156312) scale(0.1 -0.1)">
      <use xlink:href="#Cmr10-30"/>
      <use xlink:href="#Cmr10-2e" x="50"/>
      <use xlink:href="#Cmr10-39" x="77.685547"/>
      <use xlink:href="#Cmr10-37" x="127.685547"/>
      <use xlink:href="#Cmr10-38" x="177.685547"/>
      <use xlink:href="#Cmr10-33" x="227.685547"/>
      <use xlink:href="#Cmr10-36" x="277.685547"/>
     </g>
    </g>
    <g id="patch_19">
     <path d="M 401.246875 140.527311 
L 559.123317 140.527311 
L 559.123317 127.279978 
L 401.246875 127.279978 
z
" style="fill: #ffffff; stroke: #000000; stroke-linejoin: miter"/>
    </g>
    <g id="text_31">
     <!-- FocalLoss -->
     <g transform="translate(500.477861 136.403645) scale(0.1 -0.1)">
      <defs>
       <path id="Cmr10-46" d="M 197 0 
L 197 225 
Q 856 225 856 428 
L 856 3944 
Q 856 4147 197 4147 
L 197 4372 
L 3725 4372 
L 3903 2906 
L 3719 2906 
Q 3675 3309 3601 3542 
Q 3528 3775 3387 3908 
Q 3247 4041 3011 4094 
Q 2775 4147 2363 4147 
L 1778 4147 
Q 1663 4147 1598 4137 
Q 1534 4128 1493 4083 
Q 1453 4038 1453 3944 
L 1453 2297 
L 1906 2297 
Q 2234 2297 2387 2355 
Q 2541 2413 2598 2566 
Q 2656 2719 2656 3047 
L 2841 3047 
L 2841 1325 
L 2656 1325 
Q 2656 1653 2598 1806 
Q 2541 1959 2387 2017 
Q 2234 2075 1906 2075 
L 1453 2075 
L 1453 428 
Q 1453 225 2272 225 
L 2272 0 
L 197 0 
z
" transform="scale(0.015625)"/>
      </defs>
      <use xlink:href="#Cmr10-46"/>
      <use xlink:href="#Cmr10-6f" x="65.185547"/>
      <use xlink:href="#Cmr10-63" x="115.185547"/>
      <use xlink:href="#Cmr10-61" x="159.570312"/>
      <use xlink:href="#Cmr10-6c" x="209.570312"/>
      <use xlink:href="#Cmr10-4c" x="237.255859"/>
      <use xlink:href="#Cmr10-6f" x="299.755859"/>
      <use xlink:href="#Cmr10-73" x="349.755859"/>
      <use xlink:href="#Cmr10-73" x="389.160156"/>
     </g>
    </g>
    <g id="patch_20">
     <path d="M 559.123317 140.527311 
L 716.99976 140.527311 
L 716.99976 127.279978 
L 559.123317 127.279978 
z
" style="fill: #ffffff; stroke: #000000; stroke-linejoin: miter"/>
    </g>
    <g id="text_32">
     <!-- 0.97713 -->
     <g transform="translate(668.443366 136.403645) scale(0.1 -0.1)">
      <use xlink:href="#Cmr10-30"/>
      <use xlink:href="#Cmr10-2e" x="50"/>
      <use xlink:href="#Cmr10-39" x="77.685547"/>
      <use xlink:href="#Cmr10-37" x="127.685547"/>
      <use xlink:href="#Cmr10-37" x="177.685547"/>
      <use xlink:href="#Cmr10-31" x="227.685547"/>
      <use xlink:href="#Cmr10-33" x="277.685547"/>
     </g>
    </g>
    <g id="patch_21">
     <path d="M 401.246875 153.774644 
L 559.123317 153.774644 
L 559.123317 140.527311 
L 401.246875 140.527311 
z
" style="fill: #ffffff; stroke: #000000; stroke-linejoin: miter"/>
    </g>
    <g id="text_33">
     <!-- BinaryLovaszLoss -->
     <g transform="translate(464.726298 149.540822) scale(0.1 -0.1)">
      <defs>
       <path id="Cmr10-79" d="M 441 -1050 
Q 563 -1147 709 -1147 
Q 1113 -1147 1369 -538 
L 1588 0 
L 628 2350 
Q 569 2469 447 2501 
Q 325 2534 122 2534 
L 122 2759 
L 1466 2759 
L 1466 2534 
Q 1113 2534 1113 2381 
Q 1113 2356 1119 2344 
L 1831 594 
L 2472 2169 
Q 2491 2219 2491 2278 
Q 2491 2356 2448 2414 
Q 2406 2472 2339 2503 
Q 2272 2534 2188 2534 
L 2188 2759 
L 3250 2759 
L 3250 2534 
Q 3053 2534 2904 2443 
Q 2756 2353 2675 2175 
L 1569 -538 
Q 1481 -744 1364 -917 
Q 1247 -1091 1078 -1202 
Q 909 -1313 709 -1313 
Q 475 -1313 298 -1158 
Q 122 -1003 122 -775 
Q 122 -656 203 -575 
Q 284 -494 403 -494 
Q 484 -494 548 -530 
Q 613 -566 648 -628 
Q 684 -691 684 -775 
Q 684 -878 615 -959 
Q 547 -1041 441 -1050 
z
" transform="scale(0.015625)"/>
       <path id="Cmr10-76" d="M 1563 0 
L 628 2350 
Q 569 2469 445 2501 
Q 322 2534 122 2534 
L 122 2759 
L 1466 2759 
L 1466 2534 
Q 1106 2534 1106 2381 
Q 1106 2356 1113 2344 
L 1831 538 
L 2478 2169 
Q 2497 2219 2497 2272 
Q 2497 2394 2405 2464 
Q 2313 2534 2188 2534 
L 2188 2759 
L 3250 2759 
L 3250 2534 
Q 3053 2534 2904 2443 
Q 2756 2353 2675 2175 
L 1813 0 
Q 1788 -72 1709 -72 
L 1663 -72 
Q 1584 -72 1563 0 
z
" transform="scale(0.015625)"/>
       <path id="Cmr10-7a" d="M 250 0 
Q 178 0 178 72 
L 178 122 
Q 178 147 197 166 
L 1984 2591 
L 1409 2591 
Q 1138 2591 961 2556 
Q 784 2522 670 2426 
Q 556 2331 504 2164 
Q 453 1997 453 1703 
L 269 1703 
L 341 2759 
L 2484 2759 
Q 2513 2759 2533 2739 
Q 2553 2719 2553 2688 
L 2553 2650 
Q 2553 2631 2541 2606 
L 750 184 
L 1363 184 
Q 1641 184 1827 218 
Q 2013 253 2144 384 
Q 2266 506 2311 712 
Q 2356 919 2381 1222 
L 2566 1222 
L 2456 0 
L 250 0 
z
" transform="scale(0.015625)"/>
      </defs>
      <use xlink:href="#Cmr10-42"/>
      <use xlink:href="#Cmr10-69" x="70.800781"/>
      <use xlink:href="#Cmr10-6e" x="98.486328"/>
      <use xlink:href="#Cmr10-61" x="154.003906"/>
      <use xlink:href="#Cmr10-72" x="204.003906"/>
      <use xlink:href="#Cmr10-79" x="243.115234"/>
      <use xlink:href="#Cmr10-4c" x="295.800781"/>
      <use xlink:href="#Cmr10-6f" x="358.300781"/>
      <use xlink:href="#Cmr10-76" x="408.300781"/>
      <use xlink:href="#Cmr10-61" x="460.986328"/>
      <use xlink:href="#Cmr10-73" x="510.986328"/>
      <use xlink:href="#Cmr10-7a" x="550.390625"/>
      <use xlink:href="#Cmr10-4c" x="594.775391"/>
      <use xlink:href="#Cmr10-6f" x="657.275391"/>
      <use xlink:href="#Cmr10-73" x="707.275391"/>
      <use xlink:href="#Cmr10-73" x="746.679688"/>
     </g>
    </g>
    <g id="patch_22">
     <path d="M 559.123317 153.774644 
L 716.99976 153.774644 
L 716.99976 140.527311 
L 559.123317 140.527311 
z
" style="fill: #ffffff; stroke: #000000; stroke-linejoin: miter"/>
    </g>
    <g id="text_34">
     <!-- 0.97449 -->
     <g transform="translate(668.443366 149.650978) scale(0.1 -0.1)">
      <use xlink:href="#Cmr10-30"/>
      <use xlink:href="#Cmr10-2e" x="50"/>
      <use xlink:href="#Cmr10-39" x="77.685547"/>
      <use xlink:href="#Cmr10-37" x="127.685547"/>
      <use xlink:href="#Cmr10-34" x="177.685547"/>
      <use xlink:href="#Cmr10-34" x="227.685547"/>
      <use xlink:href="#Cmr10-39" x="277.685547"/>
     </g>
    </g>
   </g>
   <g id="text_35">
    <!-- B -->
    <g transform="translate(404.892885 32.845845) scale(0.12 -0.12)">
     <use xlink:href="#Cmr10-42"/>
    </g>
   </g>
  </g>
  <g id="axes_3">
   <g id="patch_23">
    <path d="M 40.647115 400.24351 
L 356.4 400.24351 
L 356.4 233.327115 
L 40.647115 233.327115 
z
" style="fill: #ffffff"/>
   </g>
   <g id="matplotlib.axis_3">
    <g id="xtick_8">
     <g id="line2d_22">
      <g>
       <use xlink:href="#m4b41269fb3" x="54.999519" y="400.24351" style="stroke: #000000; stroke-width: 0.8"/>
      </g>
     </g>
     <g id="text_36">
      <!-- 0 -->
      <g transform="translate(52.499519 414.182572) scale(0.1 -0.1)">
       <use xlink:href="#Cmr10-30"/>
      </g>
     </g>
    </g>
    <g id="xtick_9">
     <g id="line2d_23">
      <g>
       <use xlink:href="#m4b41269fb3" x="100.322899" y="400.24351" style="stroke: #000000; stroke-width: 0.8"/>
      </g>
     </g>
     <g id="text_37">
      <!-- 3 -->
      <g transform="translate(97.822899 414.182572) scale(0.1 -0.1)">
       <use xlink:href="#Cmr10-33"/>
      </g>
     </g>
    </g>
    <g id="xtick_10">
     <g id="line2d_24">
      <g>
       <use xlink:href="#m4b41269fb3" x="145.64628" y="400.24351" style="stroke: #000000; stroke-width: 0.8"/>
      </g>
     </g>
     <g id="text_38">
      <!-- 6 -->
      <g transform="translate(143.14628 414.182572) scale(0.1 -0.1)">
       <use xlink:href="#Cmr10-36"/>
      </g>
     </g>
    </g>
    <g id="xtick_11">
     <g id="line2d_25">
      <g>
       <use xlink:href="#m4b41269fb3" x="190.969661" y="400.24351" style="stroke: #000000; stroke-width: 0.8"/>
      </g>
     </g>
     <g id="text_39">
      <!-- 9 -->
      <g transform="translate(188.469661 414.182572) scale(0.1 -0.1)">
       <use xlink:href="#Cmr10-39"/>
      </g>
     </g>
    </g>
    <g id="xtick_12">
     <g id="line2d_26">
      <g>
       <use xlink:href="#m4b41269fb3" x="236.293041" y="400.24351" style="stroke: #000000; stroke-width: 0.8"/>
      </g>
     </g>
     <g id="text_40">
      <!-- 12 -->
      <g transform="translate(231.293041 414.182572) scale(0.1 -0.1)">
       <use xlink:href="#Cmr10-31"/>
       <use xlink:href="#Cmr10-32" x="50"/>
      </g>
     </g>
    </g>
    <g id="xtick_13">
     <g id="line2d_27">
      <g>
       <use xlink:href="#m4b41269fb3" x="281.616422" y="400.24351" style="stroke: #000000; stroke-width: 0.8"/>
      </g>
     </g>
     <g id="text_41">
      <!-- 15 -->
      <g transform="translate(276.616422 414.182572) scale(0.1 -0.1)">
       <use xlink:href="#Cmr10-31"/>
       <use xlink:href="#Cmr10-35" x="50"/>
      </g>
     </g>
    </g>
    <g id="xtick_14">
     <g id="line2d_28">
      <g>
       <use xlink:href="#m4b41269fb3" x="326.939803" y="400.24351" style="stroke: #000000; stroke-width: 0.8"/>
      </g>
     </g>
     <g id="text_42">
      <!-- 18 -->
      <g transform="translate(321.939803 414.182572) scale(0.1 -0.1)">
       <use xlink:href="#Cmr10-31"/>
       <use xlink:href="#Cmr10-38" x="50"/>
      </g>
     </g>
    </g>
    <g id="text_43">
     <!-- Epoch -->
     <g transform="translate(184.851682 427.060698) scale(0.1 -0.1)">
      <use xlink:href="#Cmr10-45"/>
      <use xlink:href="#Cmr10-70" x="68.017578"/>
      <use xlink:href="#Cmr10-6f" x="123.535156"/>
      <use xlink:href="#Cmr10-63" x="173.535156"/>
      <use xlink:href="#Cmr10-68" x="217.919922"/>
     </g>
    </g>
   </g>
   <g id="matplotlib.axis_4">
    <g id="ytick_8">
     <g id="line2d_29">
      <g>
       <use xlink:href="#m1db2f227a1" x="40.647115" y="383.97662" style="stroke: #000000; stroke-width: 0.8"/>
      </g>
     </g>
     <g id="text_44">
      <!-- 0.90 -->
      <g transform="translate(15.878365 387.446151) scale(0.1 -0.1)">
       <use xlink:href="#Cmr10-30"/>
       <use xlink:href="#Cmr10-2e" x="50"/>
       <use xlink:href="#Cmr10-39" x="77.685547"/>
       <use xlink:href="#Cmr10-30" x="127.685547"/>
      </g>
     </g>
    </g>
    <g id="ytick_9">
     <g id="line2d_30">
      <g>
       <use xlink:href="#m1db2f227a1" x="40.647115" y="349.775733" style="stroke: #000000; stroke-width: 0.8"/>
      </g>
     </g>
     <g id="text_45">
      <!-- 0.92 -->
      <g transform="translate(15.878365 353.245264) scale(0.1 -0.1)">
       <use xlink:href="#Cmr10-30"/>
       <use xlink:href="#Cmr10-2e" x="50"/>
       <use xlink:href="#Cmr10-39" x="77.685547"/>
       <use xlink:href="#Cmr10-32" x="127.685547"/>
      </g>
     </g>
    </g>
    <g id="ytick_10">
     <g id="line2d_31">
      <g>
       <use xlink:href="#m1db2f227a1" x="40.647115" y="315.574846" style="stroke: #000000; stroke-width: 0.8"/>
      </g>
     </g>
     <g id="text_46">
      <!-- 0.94 -->
      <g transform="translate(15.878365 319.044377) scale(0.1 -0.1)">
       <use xlink:href="#Cmr10-30"/>
       <use xlink:href="#Cmr10-2e" x="50"/>
       <use xlink:href="#Cmr10-39" x="77.685547"/>
       <use xlink:href="#Cmr10-34" x="127.685547"/>
      </g>
     </g>
    </g>
    <g id="ytick_11">
     <g id="line2d_32">
      <g>
       <use xlink:href="#m1db2f227a1" x="40.647115" y="281.373959" style="stroke: #000000; stroke-width: 0.8"/>
      </g>
     </g>
     <g id="text_47">
      <!-- 0.96 -->
      <g transform="translate(15.878365 284.843491) scale(0.1 -0.1)">
       <use xlink:href="#Cmr10-30"/>
       <use xlink:href="#Cmr10-2e" x="50"/>
       <use xlink:href="#Cmr10-39" x="77.685547"/>
       <use xlink:href="#Cmr10-36" x="127.685547"/>
      </g>
     </g>
    </g>
    <g id="ytick_12">
     <g id="line2d_33">
      <g>
       <use xlink:href="#m1db2f227a1" x="40.647115" y="247.173073" style="stroke: #000000; stroke-width: 0.8"/>
      </g>
     </g>
     <g id="text_48">
      <!-- 0.98 -->
      <g transform="translate(15.878365 250.642604) scale(0.1 -0.1)">
       <use xlink:href="#Cmr10-30"/>
       <use xlink:href="#Cmr10-2e" x="50"/>
       <use xlink:href="#Cmr10-39" x="77.685547"/>
       <use xlink:href="#Cmr10-38" x="127.685547"/>
      </g>
     </g>
    </g>
    <g id="text_49">
     <!-- Train IoU -->
     <g transform="translate(9.939302 338.730625) rotate(-90) scale(0.1 -0.1)">
      <defs>
       <path id="Cmr10-54" d="M 1081 0 
L 1081 225 
Q 1403 225 1706 261 
Q 2009 297 2009 428 
L 2009 3944 
Q 2009 4081 1932 4114 
Q 1856 4147 1684 4147 
L 1416 4147 
Q 888 4147 666 3916 
Q 550 3800 500 3545 
Q 450 3291 416 2906 
L 231 2906 
L 353 4372 
L 4263 4372 
L 4384 2906 
L 4197 2906 
Q 4159 3319 4114 3561 
Q 4069 3803 3950 3916 
Q 3725 4147 3200 4147 
L 2931 4147 
Q 2816 4147 2752 4137 
Q 2688 4128 2647 4083 
Q 2606 4038 2606 3944 
L 2606 428 
Q 2606 297 2909 261 
Q 3213 225 3531 225 
L 3531 0 
L 1081 0 
z
" transform="scale(0.015625)"/>
      </defs>
      <use xlink:href="#Cmr10-54"/>
      <use xlink:href="#Cmr10-72" x="72.216797"/>
      <use xlink:href="#Cmr10-61" x="111.328125"/>
      <use xlink:href="#Cmr10-69" x="161.328125"/>
      <use xlink:href="#Cmr10-6e" x="189.013672"/>
      <use xlink:href="#Cmr10-20" x="244.53125"/>
      <use xlink:href="#Cmr10-49" x="277.832031"/>
      <use xlink:href="#Cmr10-6f" x="313.916016"/>
      <use xlink:href="#Cmr10-55" x="363.916016"/>
     </g>
    </g>
   </g>
   <g id="line2d_34">
    <path d="M 54.999519 365.198394 
L 70.107312 299.502572 
L 85.215106 285.000897 
L 100.322899 275.538107 
L 115.430693 268.626879 
L 130.538487 265.104443 
L 145.64628 260.665585 
L 160.754074 257.914133 
L 175.861867 256.036293 
L 190.969661 254.13173 
L 206.077454 252.624315 
L 221.185248 250.820317 
L 236.293041 249.455317 
L 251.400835 247.833981 
L 266.508628 247.278988 
L 281.616422 246.672303 
L 296.724216 245.310138 
L 311.832009 242.631207 
L 326.939803 242.040199 
L 342.047596 240.914224 
" clip-path="url(#pf7c3355976)" style="fill: none; stroke: #f58231; stroke-width: 1.5; stroke-linecap: square"/>
   </g>
   <g id="line2d_35">
    <path d="M 54.999519 366.366534 
L 70.107312 297.517488 
L 85.215106 282.699151 
L 100.322899 273.048137 
L 115.430693 267.548743 
L 130.538487 263.038387 
L 145.64628 259.646472 
L 160.754074 257.059462 
L 175.861867 254.912263 
L 190.969661 253.571275 
L 206.077454 251.539707 
L 221.185248 250.313846 
L 236.293041 249.089603 
L 251.400835 247.774123 
L 266.508628 247.075977 
L 281.616422 246.519834 
L 296.724216 245.261118 
L 311.832009 244.475546 
L 326.939803 243.921981 
L 342.047596 241.231226 
" clip-path="url(#pf7c3355976)" style="fill: none; stroke: #e6194b; stroke-width: 1.5; stroke-linecap: square"/>
   </g>
   <g id="line2d_36">
    <path d="M 54.999519 370.756068 
L 70.107312 302.391539 
L 85.215106 288.426759 
L 100.322899 280.299358 
L 115.430693 272.652963 
L 130.538487 268.428135 
L 145.64628 264.477514 
L 160.754074 261.424842 
L 175.861867 258.124502 
L 190.969661 256.107782 
L 206.077454 253.858362 
L 221.185248 253.238402 
L 236.293041 249.579407 
L 251.400835 248.105157 
L 266.508628 247.041372 
L 281.616422 245.212012 
L 296.724216 244.468933 
L 311.832009 243.099007 
L 326.939803 242.990036 
L 342.047596 242.266057 
" clip-path="url(#pf7c3355976)" style="fill: none; stroke: #000000; stroke-width: 1.5; stroke-linecap: square"/>
   </g>
   <g id="line2d_37">
    <path d="M 54.999519 387.289426 
L 70.107312 305.328613 
L 85.215106 288.885183 
L 100.322899 279.287375 
L 115.430693 271.837085 
L 130.538487 267.153504 
L 145.64628 263.228937 
L 160.754074 259.942866 
L 175.861867 257.529812 
L 190.969661 255.774294 
L 206.077454 254.275822 
L 221.185248 252.494264 
L 236.293041 249.293627 
L 251.400835 248.263187 
L 266.508628 247.200135 
L 281.616422 246.430332 
L 296.724216 245.693621 
L 311.832009 245.181623 
L 326.939803 244.786948 
L 342.047596 242.966483 
" clip-path="url(#pf7c3355976)" style="fill: none; stroke: #3cb44b; stroke-width: 1.5; stroke-linecap: square"/>
   </g>
   <g id="line2d_38">
    <path d="M 54.999519 369.463183 
L 70.107312 305.715799 
L 85.215106 289.189246 
L 100.322899 279.935431 
L 115.430693 272.411892 
L 130.538487 267.152027 
L 145.64628 263.834232 
L 160.754074 260.423219 
L 175.861867 258.488002 
L 190.969661 256.042608 
L 206.077454 254.37686 
L 221.185248 252.741143 
L 236.293041 251.255046 
L 251.400835 250.102531 
L 266.508628 249.223421 
L 281.616422 248.095139 
L 296.724216 244.954189 
L 311.832009 244.437718 
L 326.939803 243.502211 
L 342.047596 243.170239 
" clip-path="url(#pf7c3355976)" style="fill: none; stroke: #4363d8; stroke-width: 1.5; stroke-linecap: square"/>
   </g>
   <g id="line2d_39">
    <path d="M 54.999519 376.504422 
L 70.107312 304.807612 
L 85.215106 290.214474 
L 100.322899 279.998367 
L 115.430693 273.23509 
L 130.538487 268.251383 
L 145.64628 263.777429 
L 160.754074 260.464494 
L 175.861867 258.137531 
L 190.969661 255.915925 
L 206.077454 254.178049 
L 221.185248 252.611838 
L 236.293041 251.473582 
L 251.400835 250.007457 
L 266.508628 247.43861 
L 281.616422 246.025289 
L 296.724216 244.950796 
L 311.832009 244.539618 
L 326.939803 244.139172 
L 342.047596 243.516337 
" clip-path="url(#pf7c3355976)" style="fill: none; stroke: #000075; stroke-width: 1.5; stroke-linecap: square"/>
   </g>
   <g id="line2d_40">
    <path d="M 54.999519 392.656401 
L 70.107312 324.544 
L 85.215106 308.688281 
L 100.322899 295.715674 
L 115.430693 288.073161 
L 130.538487 282.533533 
L 145.64628 278.879702 
L 160.754074 274.114597 
L 175.861867 271.822912 
L 190.969661 269.538572 
L 206.077454 266.475592 
L 221.185248 265.168405 
L 236.293041 263.509637 
L 251.400835 261.381922 
L 266.508628 257.381928 
L 281.616422 256.673968 
L 296.724216 255.369437 
L 311.832009 254.506497 
L 326.939803 253.87419 
L 342.047596 252.84576 
" clip-path="url(#pf7c3355976)" style="fill: none; stroke: #46f0f0; stroke-width: 1.5; stroke-linecap: square"/>
   </g>
   <g id="patch_24">
    <path d="M 40.647115 400.24351 
L 40.647115 233.327115 
" style="fill: none; stroke: #000000; stroke-width: 0.8; stroke-linejoin: miter; stroke-linecap: square"/>
   </g>
   <g id="patch_25">
    <path d="M 356.4 400.24351 
L 356.4 233.327115 
" style="fill: none; stroke: #000000; stroke-width: 0.8; stroke-linejoin: miter; stroke-linecap: square"/>
   </g>
   <g id="patch_26">
    <path d="M 40.647115 400.24351 
L 356.4 400.24351 
" style="fill: none; stroke: #000000; stroke-width: 0.8; stroke-linejoin: miter; stroke-linecap: square"/>
   </g>
   <g id="patch_27">
    <path d="M 40.647115 233.327115 
L 356.4 233.327115 
" style="fill: none; stroke: #000000; stroke-width: 0.8; stroke-linejoin: miter; stroke-linecap: square"/>
   </g>
   <g id="text_50">
    <!-- C -->
    <g transform="translate(44.207812 248.845845) scale(0.12 -0.12)">
     <use xlink:href="#Cmr10-43"/>
    </g>
   </g>
   <g id="text_51">
    <!-- Train IoU -->
    <g transform="translate(172.189182 227.327115) scale(0.12 -0.12)">
     <use xlink:href="#Cmr10-54"/>
     <use xlink:href="#Cmr10-72" x="72.216797"/>
     <use xlink:href="#Cmr10-61" x="111.328125"/>
     <use xlink:href="#Cmr10-69" x="161.328125"/>
     <use xlink:href="#Cmr10-6e" x="189.013672"/>
     <use xlink:href="#Cmr10-20" x="244.53125"/>
     <use xlink:href="#Cmr10-49" x="277.832031"/>
     <use xlink:href="#Cmr10-6f" x="313.916016"/>
     <use xlink:href="#Cmr10-55" x="363.916016"/>
    </g>
   </g>
   <g id="legend_1">
    <g id="patch_28">
     <path d="M 227.692187 395.24351 
L 349.4 395.24351 
Q 351.4 395.24351 351.4 393.24351 
L 351.4 296.557572 
Q 351.4 294.557572 349.4 294.557572 
L 227.692187 294.557572 
Q 225.692187 294.557572 225.692187 296.557572 
L 225.692187 393.24351 
Q 225.692187 395.24351 227.692187 395.24351 
z
" style="fill: #ffffff; opacity: 0.8; stroke: #cccccc; stroke-linejoin: miter"/>
    </g>
    <g id="line2d_41">
     <path d="M 229.692187 302.057572 
L 239.692187 302.057572 
L 249.692187 302.057572 
" style="fill: none; stroke: #f58231; stroke-width: 1.5; stroke-linecap: square"/>
    </g>
    <g id="text_52">
     <!-- 1. BCELoss -->
     <g transform="translate(257.692187 305.557572) scale(0.1 -0.1)">
      <use xlink:href="#Cmr10-31"/>
      <use xlink:href="#Cmr10-2e" x="50"/>
      <use xlink:href="#Cmr10-20" x="77.685547"/>
      <use xlink:href="#Cmr10-42" x="110.986328"/>
      <use xlink:href="#Cmr10-43" x="181.787109"/>
      <use xlink:href="#Cmr10-45" x="254.003906"/>
      <use xlink:href="#Cmr10-4c" x="322.021484"/>
      <use xlink:href="#Cmr10-6f" x="384.521484"/>
      <use xlink:href="#Cmr10-73" x="434.521484"/>
      <use xlink:href="#Cmr10-73" x="473.925781"/>
     </g>
    </g>
    <g id="line2d_42">
     <path d="M 229.692187 315.996635 
L 239.692187 315.996635 
L 249.692187 315.996635 
" style="fill: none; stroke: #e6194b; stroke-width: 1.5; stroke-linecap: square"/>
    </g>
    <g id="text_53">
     <!-- 2. JaccardLoss -->
     <g transform="translate(257.692187 319.496635) scale(0.1 -0.1)">
      <use xlink:href="#Cmr10-32"/>
      <use xlink:href="#Cmr10-2e" x="50"/>
      <use xlink:href="#Cmr10-20" x="77.685547"/>
      <use xlink:href="#Cmr10-4a" x="110.986328"/>
      <use xlink:href="#Cmr10-61" x="162.304688"/>
      <use xlink:href="#Cmr10-63" x="212.304688"/>
      <use xlink:href="#Cmr10-63" x="256.689453"/>
      <use xlink:href="#Cmr10-61" x="301.074219"/>
      <use xlink:href="#Cmr10-72" x="351.074219"/>
      <use xlink:href="#Cmr10-64" x="390.185547"/>
      <use xlink:href="#Cmr10-4c" x="445.703125"/>
      <use xlink:href="#Cmr10-6f" x="508.203125"/>
      <use xlink:href="#Cmr10-73" x="558.203125"/>
      <use xlink:href="#Cmr10-73" x="597.607422"/>
     </g>
    </g>
    <g id="line2d_43">
     <path d="M 229.692187 329.935698 
L 239.692187 329.935698 
L 249.692187 329.935698 
" style="fill: none; stroke: #000000; stroke-width: 1.5; stroke-linecap: square"/>
    </g>
    <g id="text_54">
     <!-- 3. FocalLoss -->
     <g transform="translate(257.692187 333.435698) scale(0.1 -0.1)">
      <use xlink:href="#Cmr10-33"/>
      <use xlink:href="#Cmr10-2e" x="50"/>
      <use xlink:href="#Cmr10-20" x="77.685547"/>
      <use xlink:href="#Cmr10-46" x="110.986328"/>
      <use xlink:href="#Cmr10-6f" x="176.171875"/>
      <use xlink:href="#Cmr10-63" x="226.171875"/>
      <use xlink:href="#Cmr10-61" x="270.556641"/>
      <use xlink:href="#Cmr10-6c" x="320.556641"/>
      <use xlink:href="#Cmr10-4c" x="348.242188"/>
      <use xlink:href="#Cmr10-6f" x="410.742188"/>
      <use xlink:href="#Cmr10-73" x="460.742188"/>
      <use xlink:href="#Cmr10-73" x="500.146484"/>
     </g>
    </g>
    <g id="line2d_44">
     <path d="M 229.692187 343.87476 
L 239.692187 343.87476 
L 249.692187 343.87476 
" style="fill: none; stroke: #3cb44b; stroke-width: 1.5; stroke-linecap: square"/>
    </g>
    <g id="text_55">
     <!-- 4. DiceLoss -->
     <g transform="translate(257.692187 347.37476) scale(0.1 -0.1)">
      <use xlink:href="#Cmr10-34"/>
      <use xlink:href="#Cmr10-2e" x="50"/>
      <use xlink:href="#Cmr10-20" x="77.685547"/>
      <use xlink:href="#Cmr10-44" x="110.986328"/>
      <use xlink:href="#Cmr10-69" x="187.304688"/>
      <use xlink:href="#Cmr10-63" x="214.990234"/>
      <use xlink:href="#Cmr10-65" x="259.375"/>
      <use xlink:href="#Cmr10-4c" x="303.759766"/>
      <use xlink:href="#Cmr10-6f" x="366.259766"/>
      <use xlink:href="#Cmr10-73" x="416.259766"/>
      <use xlink:href="#Cmr10-73" x="455.664062"/>
     </g>
    </g>
    <g id="line2d_45">
     <path d="M 229.692187 357.813823 
L 239.692187 357.813823 
L 249.692187 357.813823 
" style="fill: none; stroke: #4363d8; stroke-width: 1.5; stroke-linecap: square"/>
    </g>
    <g id="text_56">
     <!-- 5. BCEDiceLoss -->
     <g transform="translate(257.692187 361.313823) scale(0.1 -0.1)">
      <use xlink:href="#Cmr10-35"/>
      <use xlink:href="#Cmr10-2e" x="50"/>
      <use xlink:href="#Cmr10-20" x="77.685547"/>
      <use xlink:href="#Cmr10-42" x="110.986328"/>
      <use xlink:href="#Cmr10-43" x="181.787109"/>
      <use xlink:href="#Cmr10-45" x="254.003906"/>
      <use xlink:href="#Cmr10-44" x="322.021484"/>
      <use xlink:href="#Cmr10-69" x="398.339844"/>
      <use xlink:href="#Cmr10-63" x="426.025391"/>
      <use xlink:href="#Cmr10-65" x="470.410156"/>
      <use xlink:href="#Cmr10-4c" x="514.794922"/>
      <use xlink:href="#Cmr10-6f" x="577.294922"/>
      <use xlink:href="#Cmr10-73" x="627.294922"/>
      <use xlink:href="#Cmr10-73" x="666.699219"/>
     </g>
    </g>
    <g id="line2d_46">
     <path d="M 229.692187 371.752885 
L 239.692187 371.752885 
L 249.692187 371.752885 
" style="fill: none; stroke: #000075; stroke-width: 1.5; stroke-linecap: square"/>
    </g>
    <g id="text_57">
     <!-- 6. BCEJaccardLoss -->
     <g transform="translate(257.692187 375.252885) scale(0.1 -0.1)">
      <use xlink:href="#Cmr10-36"/>
      <use xlink:href="#Cmr10-2e" x="50"/>
      <use xlink:href="#Cmr10-20" x="77.685547"/>
      <use xlink:href="#Cmr10-42" x="110.986328"/>
      <use xlink:href="#Cmr10-43" x="181.787109"/>
      <use xlink:href="#Cmr10-45" x="254.003906"/>
      <use xlink:href="#Cmr10-4a" x="322.021484"/>
      <use xlink:href="#Cmr10-61" x="373.339844"/>
      <use xlink:href="#Cmr10-63" x="423.339844"/>
      <use xlink:href="#Cmr10-63" x="467.724609"/>
      <use xlink:href="#Cmr10-61" x="512.109375"/>
      <use xlink:href="#Cmr10-72" x="562.109375"/>
      <use xlink:href="#Cmr10-64" x="601.220703"/>
      <use xlink:href="#Cmr10-4c" x="656.738281"/>
      <use xlink:href="#Cmr10-6f" x="719.238281"/>
      <use xlink:href="#Cmr10-73" x="769.238281"/>
      <use xlink:href="#Cmr10-73" x="808.642578"/>
     </g>
    </g>
    <g id="line2d_47">
     <path d="M 229.692187 385.691947 
L 239.692187 385.691947 
L 249.692187 385.691947 
" style="fill: none; stroke: #46f0f0; stroke-width: 1.5; stroke-linecap: square"/>
    </g>
    <g id="text_58">
     <!-- 7. BinaryLovaszLoss -->
     <g transform="translate(257.692187 389.191947) scale(0.1 -0.1)">
      <use xlink:href="#Cmr10-37"/>
      <use xlink:href="#Cmr10-2e" x="50"/>
      <use xlink:href="#Cmr10-20" x="77.685547"/>
      <use xlink:href="#Cmr10-42" x="110.986328"/>
      <use xlink:href="#Cmr10-69" x="181.787109"/>
      <use xlink:href="#Cmr10-6e" x="209.472656"/>
      <use xlink:href="#Cmr10-61" x="264.990234"/>
      <use xlink:href="#Cmr10-72" x="314.990234"/>
      <use xlink:href="#Cmr10-79" x="354.101562"/>
      <use xlink:href="#Cmr10-4c" x="406.787109"/>
      <use xlink:href="#Cmr10-6f" x="469.287109"/>
      <use xlink:href="#Cmr10-76" x="519.287109"/>
      <use xlink:href="#Cmr10-61" x="571.972656"/>
      <use xlink:href="#Cmr10-73" x="621.972656"/>
      <use xlink:href="#Cmr10-7a" x="661.376953"/>
      <use xlink:href="#Cmr10-4c" x="705.761719"/>
      <use xlink:href="#Cmr10-6f" x="768.261719"/>
      <use xlink:href="#Cmr10-73" x="818.261719"/>
      <use xlink:href="#Cmr10-73" x="857.666016"/>
     </g>
    </g>
   </g>
  </g>
  <g id="axes_4">
   <g id="patch_29">
    <path d="M 401.246875 400.24351 
L 716.99976 400.24351 
L 716.99976 233.327115 
L 401.246875 233.327115 
z
" style="fill: #ffffff"/>
   </g>
   <g id="matplotlib.axis_5">
    <g id="xtick_15">
     <g id="line2d_48">
      <g>
       <use xlink:href="#m4b41269fb3" x="415.599279" y="400.24351" style="stroke: #000000; stroke-width: 0.8"/>
      </g>
     </g>
     <g id="text_59">
      <!-- 0 -->
      <g transform="translate(413.099279 414.182572) scale(0.1 -0.1)">
       <use xlink:href="#Cmr10-30"/>
      </g>
     </g>
    </g>
    <g id="xtick_16">
     <g id="line2d_49">
      <g>
       <use xlink:href="#m4b41269fb3" x="460.922659" y="400.24351" style="stroke: #000000; stroke-width: 0.8"/>
      </g>
     </g>
     <g id="text_60">
      <!-- 3 -->
      <g transform="translate(458.422659 414.182572) scale(0.1 -0.1)">
       <use xlink:href="#Cmr10-33"/>
      </g>
     </g>
    </g>
    <g id="xtick_17">
     <g id="line2d_50">
      <g>
       <use xlink:href="#m4b41269fb3" x="506.24604" y="400.24351" style="stroke: #000000; stroke-width: 0.8"/>
      </g>
     </g>
     <g id="text_61">
      <!-- 6 -->
      <g transform="translate(503.74604 414.182572) scale(0.1 -0.1)">
       <use xlink:href="#Cmr10-36"/>
      </g>
     </g>
    </g>
    <g id="xtick_18">
     <g id="line2d_51">
      <g>
       <use xlink:href="#m4b41269fb3" x="551.569421" y="400.24351" style="stroke: #000000; stroke-width: 0.8"/>
      </g>
     </g>
     <g id="text_62">
      <!-- 9 -->
      <g transform="translate(549.069421 414.182572) scale(0.1 -0.1)">
       <use xlink:href="#Cmr10-39"/>
      </g>
     </g>
    </g>
    <g id="xtick_19">
     <g id="line2d_52">
      <g>
       <use xlink:href="#m4b41269fb3" x="596.892801" y="400.24351" style="stroke: #000000; stroke-width: 0.8"/>
      </g>
     </g>
     <g id="text_63">
      <!-- 12 -->
      <g transform="translate(591.892801 414.182572) scale(0.1 -0.1)">
       <use xlink:href="#Cmr10-31"/>
       <use xlink:href="#Cmr10-32" x="50"/>
      </g>
     </g>
    </g>
    <g id="xtick_20">
     <g id="line2d_53">
      <g>
       <use xlink:href="#m4b41269fb3" x="642.216182" y="400.24351" style="stroke: #000000; stroke-width: 0.8"/>
      </g>
     </g>
     <g id="text_64">
      <!-- 15 -->
      <g transform="translate(637.216182 414.182572) scale(0.1 -0.1)">
       <use xlink:href="#Cmr10-31"/>
       <use xlink:href="#Cmr10-35" x="50"/>
      </g>
     </g>
    </g>
    <g id="xtick_21">
     <g id="line2d_54">
      <g>
       <use xlink:href="#m4b41269fb3" x="687.539563" y="400.24351" style="stroke: #000000; stroke-width: 0.8"/>
      </g>
     </g>
     <g id="text_65">
      <!-- 18 -->
      <g transform="translate(682.539563 414.182572) scale(0.1 -0.1)">
       <use xlink:href="#Cmr10-31"/>
       <use xlink:href="#Cmr10-38" x="50"/>
      </g>
     </g>
    </g>
    <g id="text_66">
     <!-- Epoch -->
     <g transform="translate(545.451442 427.060698) scale(0.1 -0.1)">
      <use xlink:href="#Cmr10-45"/>
      <use xlink:href="#Cmr10-70" x="68.017578"/>
      <use xlink:href="#Cmr10-6f" x="123.535156"/>
      <use xlink:href="#Cmr10-63" x="173.535156"/>
      <use xlink:href="#Cmr10-68" x="217.919922"/>
     </g>
    </g>
   </g>
   <g id="matplotlib.axis_6">
    <g id="ytick_13">
     <g id="line2d_55">
      <g>
       <use xlink:href="#m1db2f227a1" x="401.246875" y="395.48093" style="stroke: #000000; stroke-width: 0.8"/>
      </g>
     </g>
     <g id="text_67">
      <!-- 0.93 -->
      <g transform="translate(376.478125 398.950461) scale(0.1 -0.1)">
       <use xlink:href="#Cmr10-30"/>
       <use xlink:href="#Cmr10-2e" x="50"/>
       <use xlink:href="#Cmr10-39" x="77.685547"/>
       <use xlink:href="#Cmr10-33" x="127.685547"/>
      </g>
     </g>
    </g>
    <g id="ytick_14">
     <g id="line2d_56">
      <g>
       <use xlink:href="#m1db2f227a1" x="401.246875" y="364.247542" style="stroke: #000000; stroke-width: 0.8"/>
      </g>
     </g>
     <g id="text_68">
      <!-- 0.94 -->
      <g transform="translate(376.478125 367.717074) scale(0.1 -0.1)">
       <use xlink:href="#Cmr10-30"/>
       <use xlink:href="#Cmr10-2e" x="50"/>
       <use xlink:href="#Cmr10-39" x="77.685547"/>
       <use xlink:href="#Cmr10-34" x="127.685547"/>
      </g>
     </g>
    </g>
    <g id="ytick_15">
     <g id="line2d_57">
      <g>
       <use xlink:href="#m1db2f227a1" x="401.246875" y="333.014155" style="stroke: #000000; stroke-width: 0.8"/>
      </g>
     </g>
     <g id="text_69">
      <!-- 0.95 -->
      <g transform="translate(376.478125 336.483686) scale(0.1 -0.1)">
       <use xlink:href="#Cmr10-30"/>
       <use xlink:href="#Cmr10-2e" x="50"/>
       <use xlink:href="#Cmr10-39" x="77.685547"/>
       <use xlink:href="#Cmr10-35" x="127.685547"/>
      </g>
     </g>
    </g>
    <g id="ytick_16">
     <g id="line2d_58">
      <g>
       <use xlink:href="#m1db2f227a1" x="401.246875" y="301.780767" style="stroke: #000000; stroke-width: 0.8"/>
      </g>
     </g>
     <g id="text_70">
      <!-- 0.96 -->
      <g transform="translate(376.478125 305.250299) scale(0.1 -0.1)">
       <use xlink:href="#Cmr10-30"/>
       <use xlink:href="#Cmr10-2e" x="50"/>
       <use xlink:href="#Cmr10-39" x="77.685547"/>
       <use xlink:href="#Cmr10-36" x="127.685547"/>
      </g>
     </g>
    </g>
    <g id="ytick_17">
     <g id="line2d_59">
      <g>
       <use xlink:href="#m1db2f227a1" x="401.246875" y="270.54738" style="stroke: #000000; stroke-width: 0.8"/>
      </g>
     </g>
     <g id="text_71">
      <!-- 0.97 -->
      <g transform="translate(376.478125 274.016911) scale(0.1 -0.1)">
       <use xlink:href="#Cmr10-30"/>
       <use xlink:href="#Cmr10-2e" x="50"/>
       <use xlink:href="#Cmr10-39" x="77.685547"/>
       <use xlink:href="#Cmr10-37" x="127.685547"/>
      </g>
     </g>
    </g>
    <g id="ytick_18">
     <g id="line2d_60">
      <g>
       <use xlink:href="#m1db2f227a1" x="401.246875" y="239.313992" style="stroke: #000000; stroke-width: 0.8"/>
      </g>
     </g>
     <g id="text_72">
      <!-- 0.98 -->
      <g transform="translate(376.478125 242.783524) scale(0.1 -0.1)">
       <use xlink:href="#Cmr10-30"/>
       <use xlink:href="#Cmr10-2e" x="50"/>
       <use xlink:href="#Cmr10-39" x="77.685547"/>
       <use xlink:href="#Cmr10-38" x="127.685547"/>
      </g>
     </g>
    </g>
    <g id="text_73">
     <!-- Val IoU -->
     <g transform="translate(370.539062 334.138438) rotate(-90) scale(0.1 -0.1)">
      <use xlink:href="#Cmr10-56"/>
      <use xlink:href="#Cmr10-61" x="75"/>
      <use xlink:href="#Cmr10-6c" x="125"/>
      <use xlink:href="#Cmr10-20" x="152.685547"/>
      <use xlink:href="#Cmr10-49" x="185.986328"/>
      <use xlink:href="#Cmr10-6f" x="222.070312"/>
      <use xlink:href="#Cmr10-55" x="272.070312"/>
     </g>
    </g>
   </g>
   <g id="line2d_61">
    <path d="M 415.599279 335.843893 
L 430.707072 316.098264 
L 445.814866 291.743642 
L 460.922659 278.588156 
L 476.030453 271.358448 
L 491.138247 264.34655 
L 506.24604 257.245582 
L 521.353834 258.533271 
L 536.461627 256.834653 
L 551.569421 253.040171 
L 566.677214 250.154109 
L 581.785008 251.341051 
L 596.892801 247.970606 
L 612.000595 248.35305 
L 627.108388 247.978857 
L 642.216182 246.079256 
L 657.323976 244.411794 
L 672.431769 245.629272 
L 687.539563 245.705315 
L 702.647356 240.914224 
" clip-path="url(#p3dc4329625)" style="fill: none; stroke: #e6194b; stroke-width: 1.5; stroke-linecap: square"/>
   </g>
   <g id="line2d_62">
    <path d="M 415.599279 352.863719 
L 430.707072 326.697772 
L 445.814866 307.50966 
L 460.922659 289.451108 
L 476.030453 284.721759 
L 491.138247 274.925668 
L 506.24604 266.542442 
L 521.353834 263.657558 
L 536.461627 267.361757 
L 551.569421 258.879463 
L 566.677214 261.126547 
L 581.785008 253.052307 
L 596.892801 253.40998 
L 612.000595 259.065295 
L 627.108388 248.875544 
L 642.216182 246.573003 
L 657.323976 246.668092 
L 672.431769 243.937623 
L 687.539563 245.317774 
L 702.647356 241.27395 
" clip-path="url(#p3dc4329625)" style="fill: none; stroke: #000075; stroke-width: 1.5; stroke-linecap: square"/>
   </g>
   <g id="line2d_63">
    <path d="M 415.599279 357.445484 
L 430.707072 320.546109 
L 445.814866 300.761375 
L 460.922659 286.893728 
L 476.030453 275.345144 
L 491.138247 269.673328 
L 506.24604 264.459187 
L 521.353834 261.630153 
L 536.461627 258.512155 
L 551.569421 253.193034 
L 566.677214 254.993532 
L 581.785008 255.232365 
L 596.892801 248.81301 
L 612.000595 247.07081 
L 627.108388 246.461799 
L 642.216182 251.496445 
L 657.323976 244.961 
L 672.431769 246.502699 
L 687.539563 248.045024 
L 702.647356 242.110722 
" clip-path="url(#p3dc4329625)" style="fill: none; stroke: #3cb44b; stroke-width: 1.5; stroke-linecap: square"/>
   </g>
   <g id="line2d_64">
    <path d="M 415.599279 352.390866 
L 430.707072 323.609392 
L 445.814866 301.588266 
L 460.922659 284.849567 
L 476.030453 285.051799 
L 491.138247 275.184227 
L 506.24604 264.568326 
L 521.353834 269.466298 
L 536.461627 258.850439 
L 551.569421 258.013888 
L 566.677214 254.46916 
L 581.785008 256.921293 
L 596.892801 251.100745 
L 612.000595 247.637406 
L 627.108388 249.244144 
L 642.216182 253.105663 
L 657.323976 252.093386 
L 672.431769 244.247375 
L 687.539563 242.888216 
L 702.647356 243.206959 
" clip-path="url(#p3dc4329625)" style="fill: none; stroke: #4363d8; stroke-width: 1.5; stroke-linecap: square"/>
   </g>
   <g id="line2d_65">
    <path d="M 415.599279 350.417456 
L 430.707072 313.907233 
L 445.814866 299.494838 
L 460.922659 287.931976 
L 476.030453 279.524416 
L 491.138247 275.404643 
L 506.24604 264.417862 
L 521.353834 264.415487 
L 536.461627 261.082893 
L 551.569421 260.240111 
L 566.677214 256.007741 
L 581.785008 254.626228 
L 596.892801 253.038464 
L 612.000595 251.740364 
L 627.108388 249.792743 
L 642.216182 251.872657 
L 657.323976 252.084082 
L 672.431769 247.024096 
L 687.539563 249.166995 
L 702.647356 244.42661 
" clip-path="url(#p3dc4329625)" style="fill: none; stroke: #f58231; stroke-width: 1.5; stroke-linecap: square"/>
   </g>
   <g id="line2d_66">
    <path d="M 415.599279 352.06829 
L 430.707072 320.988684 
L 445.814866 310.538822 
L 460.922659 291.429109 
L 476.030453 282.076091 
L 491.138247 277.789388 
L 506.24604 279.820559 
L 521.353834 265.085648 
L 536.461627 268.934342 
L 551.569421 260.028399 
L 566.677214 259.597335 
L 581.785008 260.463187 
L 596.892801 253.893266 
L 612.000595 254.530721 
L 627.108388 260.249402 
L 642.216182 250.872713 
L 657.323976 254.555738 
L 672.431769 248.27895 
L 687.539563 250.057147 
L 702.647356 253.502431 
" clip-path="url(#p3dc4329625)" style="fill: none; stroke: #000000; stroke-width: 1.5; stroke-linecap: square"/>
   </g>
   <g id="line2d_67">
    <path d="M 415.599279 392.656401 
L 430.707072 355.038715 
L 445.814866 355.10133 
L 460.922659 324.434309 
L 476.030453 306.171281 
L 491.138247 304.89995 
L 506.24604 297.448092 
L 521.353834 301.795893 
L 536.461627 303.659416 
L 551.569421 274.641305 
L 566.677214 274.051185 
L 581.785008 274.776946 
L 596.892801 267.208156 
L 612.000595 267.204591 
L 627.108388 266.406858 
L 642.216182 261.615021 
L 657.323976 267.438077 
L 672.431769 256.517778 
L 687.539563 264.89028 
L 702.647356 261.717071 
" clip-path="url(#p3dc4329625)" style="fill: none; stroke: #46f0f0; stroke-width: 1.5; stroke-linecap: square"/>
   </g>
   <g id="patch_30">
    <path d="M 401.246875 400.24351 
L 401.246875 233.327115 
" style="fill: none; stroke: #000000; stroke-width: 0.8; stroke-linejoin: miter; stroke-linecap: square"/>
   </g>
   <g id="patch_31">
    <path d="M 716.99976 400.24351 
L 716.99976 233.327115 
" style="fill: none; stroke: #000000; stroke-width: 0.8; stroke-linejoin: miter; stroke-linecap: square"/>
   </g>
   <g id="patch_32">
    <path d="M 401.246875 400.24351 
L 716.99976 400.24351 
" style="fill: none; stroke: #000000; stroke-width: 0.8; stroke-linejoin: miter; stroke-linecap: square"/>
   </g>
   <g id="patch_33">
    <path d="M 401.246875 233.327115 
L 716.99976 233.327115 
" style="fill: none; stroke: #000000; stroke-width: 0.8; stroke-linejoin: miter; stroke-linecap: square"/>
   </g>
   <g id="text_74">
    <!-- D -->
    <g transform="translate(404.561947 248.845845) scale(0.12 -0.12)">
     <use xlink:href="#Cmr10-44"/>
    </g>
   </g>
   <g id="text_75">
    <!-- Val IoU -->
    <g transform="translate(538.299567 227.327115) scale(0.12 -0.12)">
     <use xlink:href="#Cmr10-56"/>
     <use xlink:href="#Cmr10-61" x="75"/>
     <use xlink:href="#Cmr10-6c" x="125"/>
     <use xlink:href="#Cmr10-20" x="152.685547"/>
     <use xlink:href="#Cmr10-49" x="185.986328"/>
     <use xlink:href="#Cmr10-6f" x="222.070312"/>
     <use xlink:href="#Cmr10-55" x="272.070312"/>
    </g>
   </g>
   <g id="legend_2">
    <g id="patch_34">
     <path d="M 588.291947 395.24351 
L 709.99976 395.24351 
Q 711.99976 395.24351 711.99976 393.24351 
L 711.99976 296.557572 
Q 711.99976 294.557572 709.99976 294.557572 
L 588.291947 294.557572 
Q 586.291947 294.557572 586.291947 296.557572 
L 586.291947 393.24351 
Q 586.291947 395.24351 588.291947 395.24351 
z
" style="fill: #ffffff; opacity: 0.8; stroke: #cccccc; stroke-linejoin: miter"/>
    </g>
    <g id="line2d_68">
     <path d="M 590.291947 302.057572 
L 600.291947 302.057572 
L 610.291947 302.057572 
" style="fill: none; stroke: #e6194b; stroke-width: 1.5; stroke-linecap: square"/>
    </g>
    <g id="text_76">
     <!-- 1. JaccardLoss -->
     <g transform="translate(618.291947 305.557572) scale(0.1 -0.1)">
      <use xlink:href="#Cmr10-31"/>
      <use xlink:href="#Cmr10-2e" x="50"/>
      <use xlink:href="#Cmr10-20" x="77.685547"/>
      <use xlink:href="#Cmr10-4a" x="110.986328"/>
      <use xlink:href="#Cmr10-61" x="162.304688"/>
      <use xlink:href="#Cmr10-63" x="212.304688"/>
      <use xlink:href="#Cmr10-63" x="256.689453"/>
      <use xlink:href="#Cmr10-61" x="301.074219"/>
      <use xlink:href="#Cmr10-72" x="351.074219"/>
      <use xlink:href="#Cmr10-64" x="390.185547"/>
      <use xlink:href="#Cmr10-4c" x="445.703125"/>
      <use xlink:href="#Cmr10-6f" x="508.203125"/>
      <use xlink:href="#Cmr10-73" x="558.203125"/>
      <use xlink:href="#Cmr10-73" x="597.607422"/>
     </g>
    </g>
    <g id="line2d_69">
     <path d="M 590.291947 315.996635 
L 600.291947 315.996635 
L 610.291947 315.996635 
" style="fill: none; stroke: #000075; stroke-width: 1.5; stroke-linecap: square"/>
    </g>
    <g id="text_77">
     <!-- 2. BCEJaccardLoss -->
     <g transform="translate(618.291947 319.496635) scale(0.1 -0.1)">
      <use xlink:href="#Cmr10-32"/>
      <use xlink:href="#Cmr10-2e" x="50"/>
      <use xlink:href="#Cmr10-20" x="77.685547"/>
      <use xlink:href="#Cmr10-42" x="110.986328"/>
      <use xlink:href="#Cmr10-43" x="181.787109"/>
      <use xlink:href="#Cmr10-45" x="254.003906"/>
      <use xlink:href="#Cmr10-4a" x="322.021484"/>
      <use xlink:href="#Cmr10-61" x="373.339844"/>
      <use xlink:href="#Cmr10-63" x="423.339844"/>
      <use xlink:href="#Cmr10-63" x="467.724609"/>
      <use xlink:href="#Cmr10-61" x="512.109375"/>
      <use xlink:href="#Cmr10-72" x="562.109375"/>
      <use xlink:href="#Cmr10-64" x="601.220703"/>
      <use xlink:href="#Cmr10-4c" x="656.738281"/>
      <use xlink:href="#Cmr10-6f" x="719.238281"/>
      <use xlink:href="#Cmr10-73" x="769.238281"/>
      <use xlink:href="#Cmr10-73" x="808.642578"/>
     </g>
    </g>
    <g id="line2d_70">
     <path d="M 590.291947 329.935698 
L 600.291947 329.935698 
L 610.291947 329.935698 
" style="fill: none; stroke: #3cb44b; stroke-width: 1.5; stroke-linecap: square"/>
    </g>
    <g id="text_78">
     <!-- 3. DiceLoss -->
     <g transform="translate(618.291947 333.435698) scale(0.1 -0.1)">
      <use xlink:href="#Cmr10-33"/>
      <use xlink:href="#Cmr10-2e" x="50"/>
      <use xlink:href="#Cmr10-20" x="77.685547"/>
      <use xlink:href="#Cmr10-44" x="110.986328"/>
      <use xlink:href="#Cmr10-69" x="187.304688"/>
      <use xlink:href="#Cmr10-63" x="214.990234"/>
      <use xlink:href="#Cmr10-65" x="259.375"/>
      <use xlink:href="#Cmr10-4c" x="303.759766"/>
      <use xlink:href="#Cmr10-6f" x="366.259766"/>
      <use xlink:href="#Cmr10-73" x="416.259766"/>
      <use xlink:href="#Cmr10-73" x="455.664062"/>
     </g>
    </g>
    <g id="line2d_71">
     <path d="M 590.291947 343.87476 
L 600.291947 343.87476 
L 610.291947 343.87476 
" style="fill: none; stroke: #4363d8; stroke-width: 1.5; stroke-linecap: square"/>
    </g>
    <g id="text_79">
     <!-- 4. BCEDiceLoss -->
     <g transform="translate(618.291947 347.37476) scale(0.1 -0.1)">
      <use xlink:href="#Cmr10-34"/>
      <use xlink:href="#Cmr10-2e" x="50"/>
      <use xlink:href="#Cmr10-20" x="77.685547"/>
      <use xlink:href="#Cmr10-42" x="110.986328"/>
      <use xlink:href="#Cmr10-43" x="181.787109"/>
      <use xlink:href="#Cmr10-45" x="254.003906"/>
      <use xlink:href="#Cmr10-44" x="322.021484"/>
      <use xlink:href="#Cmr10-69" x="398.339844"/>
      <use xlink:href="#Cmr10-63" x="426.025391"/>
      <use xlink:href="#Cmr10-65" x="470.410156"/>
      <use xlink:href="#Cmr10-4c" x="514.794922"/>
      <use xlink:href="#Cmr10-6f" x="577.294922"/>
      <use xlink:href="#Cmr10-73" x="627.294922"/>
      <use xlink:href="#Cmr10-73" x="666.699219"/>
     </g>
    </g>
    <g id="line2d_72">
     <path d="M 590.291947 357.813823 
L 600.291947 357.813823 
L 610.291947 357.813823 
" style="fill: none; stroke: #f58231; stroke-width: 1.5; stroke-linecap: square"/>
    </g>
    <g id="text_80">
     <!-- 5. BCELoss -->
     <g transform="translate(618.291947 361.313823) scale(0.1 -0.1)">
      <use xlink:href="#Cmr10-35"/>
      <use xlink:href="#Cmr10-2e" x="50"/>
      <use xlink:href="#Cmr10-20" x="77.685547"/>
      <use xlink:href="#Cmr10-42" x="110.986328"/>
      <use xlink:href="#Cmr10-43" x="181.787109"/>
      <use xlink:href="#Cmr10-45" x="254.003906"/>
      <use xlink:href="#Cmr10-4c" x="322.021484"/>
      <use xlink:href="#Cmr10-6f" x="384.521484"/>
      <use xlink:href="#Cmr10-73" x="434.521484"/>
      <use xlink:href="#Cmr10-73" x="473.925781"/>
     </g>
    </g>
    <g id="line2d_73">
     <path d="M 590.291947 371.752885 
L 600.291947 371.752885 
L 610.291947 371.752885 
" style="fill: none; stroke: #000000; stroke-width: 1.5; stroke-linecap: square"/>
    </g>
    <g id="text_81">
     <!-- 6. FocalLoss -->
     <g transform="translate(618.291947 375.252885) scale(0.1 -0.1)">
      <use xlink:href="#Cmr10-36"/>
      <use xlink:href="#Cmr10-2e" x="50"/>
      <use xlink:href="#Cmr10-20" x="77.685547"/>
      <use xlink:href="#Cmr10-46" x="110.986328"/>
      <use xlink:href="#Cmr10-6f" x="176.171875"/>
      <use xlink:href="#Cmr10-63" x="226.171875"/>
      <use xlink:href="#Cmr10-61" x="270.556641"/>
      <use xlink:href="#Cmr10-6c" x="320.556641"/>
      <use xlink:href="#Cmr10-4c" x="348.242188"/>
      <use xlink:href="#Cmr10-6f" x="410.742188"/>
      <use xlink:href="#Cmr10-73" x="460.742188"/>
      <use xlink:href="#Cmr10-73" x="500.146484"/>
     </g>
    </g>
    <g id="line2d_74">
     <path d="M 590.291947 385.691947 
L 600.291947 385.691947 
L 610.291947 385.691947 
" style="fill: none; stroke: #46f0f0; stroke-width: 1.5; stroke-linecap: square"/>
    </g>
    <g id="text_82">
     <!-- 7. BinaryLovaszLoss -->
     <g transform="translate(618.291947 389.191947) scale(0.1 -0.1)">
      <use xlink:href="#Cmr10-37"/>
      <use xlink:href="#Cmr10-2e" x="50"/>
      <use xlink:href="#Cmr10-20" x="77.685547"/>
      <use xlink:href="#Cmr10-42" x="110.986328"/>
      <use xlink:href="#Cmr10-69" x="181.787109"/>
      <use xlink:href="#Cmr10-6e" x="209.472656"/>
      <use xlink:href="#Cmr10-61" x="264.990234"/>
      <use xlink:href="#Cmr10-72" x="314.990234"/>
      <use xlink:href="#Cmr10-79" x="354.101562"/>
      <use xlink:href="#Cmr10-4c" x="406.787109"/>
      <use xlink:href="#Cmr10-6f" x="469.287109"/>
      <use xlink:href="#Cmr10-76" x="519.287109"/>
      <use xlink:href="#Cmr10-61" x="571.972656"/>
      <use xlink:href="#Cmr10-73" x="621.972656"/>
      <use xlink:href="#Cmr10-7a" x="661.376953"/>
      <use xlink:href="#Cmr10-4c" x="705.761719"/>
      <use xlink:href="#Cmr10-6f" x="768.261719"/>
      <use xlink:href="#Cmr10-73" x="818.261719"/>
      <use xlink:href="#Cmr10-73" x="857.666016"/>
     </g>
    </g>
   </g>
  </g>
 </g>
 <defs>
  <clipPath id="p5b5fb34dfa">
   <rect x="40.647115" y="17.327115" width="315.752885" height="166.916395"/>
  </clipPath>
  <clipPath id="pf7c3355976">
   <rect x="40.647115" y="233.327115" width="315.752885" height="166.916395"/>
  </clipPath>
  <clipPath id="p3dc4329625">
   <rect x="401.246875" y="233.327115" width="315.752885" height="166.916395"/>
  </clipPath>
 </defs>
</svg>
