<?xml version="1.0" encoding="utf-8" standalone="no"?>
<!DOCTYPE svg PUBLIC "-//W3C//DTD SVG 1.1//EN"
  "http://www.w3.org/Graphics/SVG/1.1/DTD/svg11.dtd">
<svg xmlns:xlink="http://www.w3.org/1999/xlink" width="720pt" height="432pt" viewBox="0 0 720 432" xmlns="http://www.w3.org/2000/svg" version="1.1">
 <metadata>
  <rdf:RDF xmlns:dc="http://purl.org/dc/elements/1.1/" xmlns:cc="http://creativecommons.org/ns#" xmlns:rdf="http://www.w3.org/1999/02/22-rdf-syntax-ns#">
   <cc:Work>
    <dc:type rdf:resource="http://purl.org/dc/dcmitype/StillImage"/>
    <dc:date>2024-06-03T17:28:37.349671</dc:date>
    <dc:format>image/svg+xml</dc:format>
    <dc:creator>
     <cc:Agent>
      <dc:title>Matplotlib v3.8.0, https://matplotlib.org/</dc:title>
     </cc:Agent>
    </dc:creator>
   </cc:Work>
  </rdf:RDF>
 </metadata>
 <defs>
  <style type="text/css">*{stroke-linejoin: round; stroke-linecap: butt}</style>
 </defs>
 <g id="figure_1">
  <g id="patch_1">
   <path d="M 0 432 
L 720 432 
L 720 0 
L 0 0 
z
" style="fill: #ffffff"/>
  </g>
  <g id="axes_1">
   <g id="patch_2">
    <path d="M 40.647115 184.24351 
L 356.4 184.24351 
L 356.4 17.327115 
L 40.647115 17.327115 
z
" style="fill: #ffffff"/>
   </g>
   <g id="matplotlib.axis_1">
    <g id="xtick_1">
     <g id="line2d_1">
      <defs>
       <path id="m0486c42ef1" d="M 0 0 
L 0 3.5 
" style="stroke: #000000; stroke-width: 0.8"/>
      </defs>
      <g>
       <use xlink:href="#m0486c42ef1" x="54.999519" y="184.24351" style="stroke: #000000; stroke-width: 0.8"/>
      </g>
     </g>
     <g id="text_1">
      <!-- 0 -->
      <g transform="translate(52.499519 198.182572) scale(0.1 -0.1)">
       <defs>
        <path id="Cmr10-30" d="M 1600 -141 
Q 816 -141 533 504 
Q 250 1150 250 2041 
Q 250 2597 351 3087 
Q 453 3578 754 3920 
Q 1056 4263 1600 4263 
Q 2022 4263 2290 4056 
Q 2559 3850 2700 3523 
Q 2841 3197 2892 2823 
Q 2944 2450 2944 2041 
Q 2944 1491 2842 1011 
Q 2741 531 2444 195 
Q 2147 -141 1600 -141 
z
M 1600 25 
Q 1956 25 2131 390 
Q 2306 756 2347 1200 
Q 2388 1644 2388 2144 
Q 2388 2625 2347 3031 
Q 2306 3438 2132 3767 
Q 1959 4097 1600 4097 
Q 1238 4097 1063 3765 
Q 888 3434 847 3029 
Q 806 2625 806 2144 
Q 806 1788 823 1472 
Q 841 1156 916 820 
Q 991 484 1158 254 
Q 1325 25 1600 25 
z
" transform="scale(0.015625)"/>
       </defs>
       <use xlink:href="#Cmr10-30"/>
      </g>
     </g>
    </g>
    <g id="xtick_2">
     <g id="line2d_2">
      <g>
       <use xlink:href="#m0486c42ef1" x="100.322899" y="184.24351" style="stroke: #000000; stroke-width: 0.8"/>
      </g>
     </g>
     <g id="text_2">
      <!-- 3 -->
      <g transform="translate(97.822899 198.182572) scale(0.1 -0.1)">
       <defs>
        <path id="Cmr10-33" d="M 609 494 
Q 759 275 1012 169 
Q 1266 63 1556 63 
Q 1928 63 2084 380 
Q 2241 697 2241 1100 
Q 2241 1281 2208 1462 
Q 2175 1644 2097 1800 
Q 2019 1956 1883 2050 
Q 1747 2144 1550 2144 
L 1125 2144 
Q 1069 2144 1069 2203 
L 1069 2259 
Q 1069 2309 1125 2309 
L 1478 2338 
Q 1703 2338 1851 2506 
Q 2000 2675 2069 2917 
Q 2138 3159 2138 3378 
Q 2138 3684 1994 3881 
Q 1850 4078 1556 4078 
Q 1313 4078 1091 3986 
Q 869 3894 738 3706 
Q 750 3709 759 3711 
Q 769 3713 781 3713 
Q 925 3713 1022 3613 
Q 1119 3513 1119 3372 
Q 1119 3234 1022 3134 
Q 925 3034 781 3034 
Q 641 3034 541 3134 
Q 441 3234 441 3372 
Q 441 3647 606 3850 
Q 772 4053 1033 4158 
Q 1294 4263 1556 4263 
Q 1750 4263 1965 4205 
Q 2181 4147 2356 4039 
Q 2531 3931 2642 3762 
Q 2753 3594 2753 3378 
Q 2753 3109 2633 2881 
Q 2513 2653 2303 2487 
Q 2094 2322 1844 2241 
Q 2122 2188 2372 2031 
Q 2622 1875 2773 1631 
Q 2925 1388 2925 1106 
Q 2925 753 2731 467 
Q 2538 181 2222 20 
Q 1906 -141 1556 -141 
Q 1256 -141 954 -26 
Q 653 88 461 316 
Q 269 544 269 863 
Q 269 1022 375 1128 
Q 481 1234 641 1234 
Q 744 1234 830 1186 
Q 916 1138 964 1050 
Q 1013 963 1013 863 
Q 1013 706 903 600 
Q 794 494 641 494 
L 609 494 
z
" transform="scale(0.015625)"/>
       </defs>
       <use xlink:href="#Cmr10-33"/>
      </g>
     </g>
    </g>
    <g id="xtick_3">
     <g id="line2d_3">
      <g>
       <use xlink:href="#m0486c42ef1" x="145.64628" y="184.24351" style="stroke: #000000; stroke-width: 0.8"/>
      </g>
     </g>
     <g id="text_3">
      <!-- 6 -->
      <g transform="translate(143.14628 198.182572) scale(0.1 -0.1)">
       <defs>
        <path id="Cmr10-36" d="M 1600 -141 
Q 1203 -141 937 70 
Q 672 281 526 617 
Q 381 953 325 1322 
Q 269 1691 269 2069 
Q 269 2575 466 3084 
Q 663 3594 1045 3928 
Q 1428 4263 1953 4263 
Q 2172 4263 2361 4180 
Q 2550 4097 2658 3936 
Q 2766 3775 2766 3547 
Q 2766 3416 2677 3327 
Q 2588 3238 2456 3238 
Q 2331 3238 2240 3328 
Q 2150 3419 2150 3547 
Q 2150 3672 2240 3762 
Q 2331 3853 2456 3853 
L 2491 3853 
Q 2409 3969 2261 4023 
Q 2113 4078 1953 4078 
Q 1759 4078 1595 3993 
Q 1431 3909 1300 3765 
Q 1169 3622 1081 3448 
Q 994 3275 945 3053 
Q 897 2831 884 2637 
Q 872 2444 872 2150 
Q 984 2413 1190 2580 
Q 1397 2747 1656 2747 
Q 1941 2747 2175 2631 
Q 2409 2516 2578 2311 
Q 2747 2106 2836 1843 
Q 2925 1581 2925 1313 
Q 2925 938 2758 598 
Q 2591 259 2287 59 
Q 1984 -141 1600 -141 
z
M 1600 63 
Q 1847 63 1997 175 
Q 2147 288 2217 473 
Q 2288 659 2305 848 
Q 2322 1038 2322 1313 
Q 2322 1675 2287 1931 
Q 2253 2188 2100 2383 
Q 1947 2578 1631 2578 
Q 1372 2578 1205 2403 
Q 1038 2228 961 1961 
Q 884 1694 884 1447 
Q 884 1363 891 1319 
Q 891 1309 889 1303 
Q 888 1297 884 1288 
Q 884 1013 940 731 
Q 997 450 1156 256 
Q 1316 63 1600 63 
z
" transform="scale(0.015625)"/>
       </defs>
       <use xlink:href="#Cmr10-36"/>
      </g>
     </g>
    </g>
    <g id="xtick_4">
     <g id="line2d_4">
      <g>
       <use xlink:href="#m0486c42ef1" x="190.969661" y="184.24351" style="stroke: #000000; stroke-width: 0.8"/>
      </g>
     </g>
     <g id="text_4">
      <!-- 9 -->
      <g transform="translate(188.469661 198.182572) scale(0.1 -0.1)">
       <defs>
        <path id="Cmr10-39" d="M 722 269 
Q 897 63 1331 63 
Q 1575 63 1786 228 
Q 1997 394 2113 634 
Q 2247 906 2284 1214 
Q 2322 1522 2322 1978 
Q 2213 1719 2008 1553 
Q 1803 1388 1538 1388 
Q 1166 1388 873 1589 
Q 581 1791 425 2120 
Q 269 2450 269 2822 
Q 269 3206 444 3539 
Q 619 3872 928 4067 
Q 1238 4263 1631 4263 
Q 2019 4263 2280 4052 
Q 2541 3841 2678 3508 
Q 2816 3175 2870 2803 
Q 2925 2431 2925 2069 
Q 2925 1575 2744 1061 
Q 2563 547 2202 203 
Q 1841 -141 1331 -141 
Q 953 -141 690 37 
Q 428 216 428 575 
Q 428 706 517 795 
Q 606 884 738 884 
Q 866 884 955 795 
Q 1044 706 1044 575 
Q 1044 450 953 359 
Q 863 269 738 269 
L 722 269 
z
M 1563 1556 
Q 1825 1556 1992 1732 
Q 2159 1909 2234 2171 
Q 2309 2434 2309 2694 
L 2309 2816 
L 2309 2841 
Q 2309 3322 2168 3700 
Q 2028 4078 1631 4078 
Q 1378 4078 1220 3967 
Q 1063 3856 988 3672 
Q 913 3488 892 3278 
Q 872 3069 872 2822 
Q 872 2459 906 2203 
Q 941 1947 1094 1751 
Q 1247 1556 1563 1556 
z
" transform="scale(0.015625)"/>
       </defs>
       <use xlink:href="#Cmr10-39"/>
      </g>
     </g>
    </g>
    <g id="xtick_5">
     <g id="line2d_5">
      <g>
       <use xlink:href="#m0486c42ef1" x="236.293041" y="184.24351" style="stroke: #000000; stroke-width: 0.8"/>
      </g>
     </g>
     <g id="text_5">
      <!-- 12 -->
      <g transform="translate(231.293041 198.182572) scale(0.1 -0.1)">
       <defs>
        <path id="Cmr10-31" d="M 594 0 
L 594 225 
Q 1394 225 1394 428 
L 1394 3788 
Q 1063 3628 556 3628 
L 556 3853 
Q 1341 3853 1741 4263 
L 1831 4263 
Q 1853 4263 1873 4245 
Q 1894 4228 1894 4206 
L 1894 428 
Q 1894 225 2694 225 
L 2694 0 
L 594 0 
z
" transform="scale(0.015625)"/>
        <path id="Cmr10-32" d="M 319 0 
L 319 172 
Q 319 188 331 206 
L 1325 1306 
Q 1550 1550 1690 1715 
Q 1831 1881 1968 2097 
Q 2106 2313 2186 2536 
Q 2266 2759 2266 3009 
Q 2266 3272 2169 3511 
Q 2072 3750 1880 3894 
Q 1688 4038 1416 4038 
Q 1138 4038 916 3870 
Q 694 3703 603 3438 
Q 628 3444 672 3444 
Q 816 3444 917 3347 
Q 1019 3250 1019 3097 
Q 1019 2950 917 2848 
Q 816 2747 672 2747 
Q 522 2747 420 2851 
Q 319 2956 319 3097 
Q 319 3338 409 3548 
Q 500 3759 670 3923 
Q 841 4088 1055 4175 
Q 1269 4263 1509 4263 
Q 1875 4263 2190 4108 
Q 2506 3953 2690 3670 
Q 2875 3388 2875 3009 
Q 2875 2731 2753 2481 
Q 2631 2231 2440 2026 
Q 2250 1822 1953 1562 
Q 1656 1303 1563 1216 
L 838 519 
L 1453 519 
Q 1906 519 2211 526 
Q 2516 534 2534 550 
Q 2609 631 2688 1141 
L 2875 1141 
L 2694 0 
L 319 0 
z
" transform="scale(0.015625)"/>
       </defs>
       <use xlink:href="#Cmr10-31"/>
       <use xlink:href="#Cmr10-32" x="50"/>
      </g>
     </g>
    </g>
    <g id="xtick_6">
     <g id="line2d_6">
      <g>
       <use xlink:href="#m0486c42ef1" x="281.616422" y="184.24351" style="stroke: #000000; stroke-width: 0.8"/>
      </g>
     </g>
     <g id="text_6">
      <!-- 15 -->
      <g transform="translate(276.616422 198.182572) scale(0.1 -0.1)">
       <defs>
        <path id="Cmr10-35" d="M 556 728 
Q 622 541 758 387 
Q 894 234 1080 148 
Q 1266 63 1466 63 
Q 1928 63 2103 422 
Q 2278 781 2278 1294 
Q 2278 1516 2270 1667 
Q 2263 1819 2228 1959 
Q 2169 2184 2020 2353 
Q 1872 2522 1656 2522 
Q 1441 2522 1286 2456 
Q 1131 2391 1034 2303 
Q 938 2216 863 2119 
Q 788 2022 769 2016 
L 697 2016 
Q 681 2016 657 2036 
Q 634 2056 634 2075 
L 634 4213 
Q 634 4228 654 4245 
Q 675 4263 697 4263 
L 716 4263 
Q 1147 4056 1631 4056 
Q 2106 4056 2547 4263 
L 2566 4263 
Q 2588 4263 2606 4247 
Q 2625 4231 2625 4213 
L 2625 4153 
Q 2625 4122 2613 4122 
Q 2394 3831 2064 3668 
Q 1734 3506 1381 3506 
Q 1125 3506 856 3578 
L 856 2369 
Q 1069 2541 1236 2614 
Q 1403 2688 1663 2688 
Q 2016 2688 2295 2484 
Q 2575 2281 2725 1954 
Q 2875 1628 2875 1288 
Q 2875 903 2686 575 
Q 2497 247 2172 53 
Q 1847 -141 1466 -141 
Q 1150 -141 886 21 
Q 622 184 470 459 
Q 319 734 319 1044 
Q 319 1188 412 1278 
Q 506 1369 647 1369 
Q 788 1369 883 1276 
Q 978 1184 978 1044 
Q 978 906 883 811 
Q 788 716 647 716 
Q 625 716 597 720 
Q 569 725 556 728 
z
" transform="scale(0.015625)"/>
       </defs>
       <use xlink:href="#Cmr10-31"/>
       <use xlink:href="#Cmr10-35" x="50"/>
      </g>
     </g>
    </g>
    <g id="xtick_7">
     <g id="line2d_7">
      <g>
       <use xlink:href="#m0486c42ef1" x="326.939803" y="184.24351" style="stroke: #000000; stroke-width: 0.8"/>
      </g>
     </g>
     <g id="text_7">
      <!-- 18 -->
      <g transform="translate(321.939803 198.182572) scale(0.1 -0.1)">
       <defs>
        <path id="Cmr10-38" d="M 269 972 
Q 269 1356 522 1651 
Q 775 1947 1172 2144 
L 934 2297 
Q 716 2441 578 2680 
Q 441 2919 441 3181 
Q 441 3488 602 3734 
Q 763 3981 1030 4122 
Q 1297 4263 1600 4263 
Q 1884 4263 2148 4147 
Q 2413 4031 2583 3815 
Q 2753 3600 2753 3303 
Q 2753 3088 2651 2903 
Q 2550 2719 2373 2572 
Q 2197 2425 1997 2322 
L 2363 2088 
Q 2616 1922 2770 1653 
Q 2925 1384 2925 1088 
Q 2925 741 2739 456 
Q 2553 172 2247 15 
Q 1941 -141 1600 -141 
Q 1269 -141 961 -6 
Q 653 128 461 383 
Q 269 638 269 972 
z
M 616 972 
Q 616 719 755 509 
Q 894 300 1122 181 
Q 1350 63 1600 63 
Q 1972 63 2275 280 
Q 2578 497 2578 856 
Q 2578 978 2529 1098 
Q 2481 1219 2395 1317 
Q 2309 1416 2203 1478 
L 1344 2034 
Q 1144 1928 976 1765 
Q 809 1603 712 1400 
Q 616 1197 616 972 
z
M 1056 2925 
L 1831 2425 
Q 2100 2581 2272 2803 
Q 2444 3025 2444 3303 
Q 2444 3519 2323 3698 
Q 2203 3878 2009 3978 
Q 1816 4078 1594 4078 
Q 1400 4078 1203 4003 
Q 1006 3928 878 3779 
Q 750 3631 750 3431 
Q 750 3131 1056 2925 
z
" transform="scale(0.015625)"/>
       </defs>
       <use xlink:href="#Cmr10-31"/>
       <use xlink:href="#Cmr10-38" x="50"/>
      </g>
     </g>
    </g>
    <g id="text_8">
     <!-- Epoch -->
     <g transform="translate(184.851682 211.060697) scale(0.1 -0.1)">
      <defs>
       <path id="Cmr10-45" d="M 197 0 
L 197 225 
Q 856 225 856 428 
L 856 3944 
Q 856 4147 197 4147 
L 197 4372 
L 3816 4372 
L 3994 2906 
L 3809 2906 
Q 3741 3459 3617 3709 
Q 3494 3959 3222 4053 
Q 2950 4147 2406 4147 
L 1778 4147 
Q 1663 4147 1598 4137 
Q 1534 4128 1493 4083 
Q 1453 4038 1453 3944 
L 1453 2381 
L 1925 2381 
Q 2250 2381 2411 2436 
Q 2572 2491 2633 2645 
Q 2694 2800 2694 3128 
L 2881 3128 
L 2881 1409 
L 2694 1409 
Q 2694 1734 2633 1890 
Q 2572 2047 2411 2101 
Q 2250 2156 1925 2156 
L 1453 2156 
L 1453 428 
Q 1453 291 1531 258 
Q 1609 225 1778 225 
L 2456 225 
Q 2900 225 3173 295 
Q 3447 366 3598 530 
Q 3750 694 3833 955 
Q 3916 1216 3988 1678 
L 4172 1678 
L 3903 0 
L 197 0 
z
" transform="scale(0.015625)"/>
       <path id="Cmr10-70" d="M 166 -1241 
L 166 -1019 
Q 384 -1019 525 -981 
Q 666 -944 666 -813 
L 666 2272 
Q 666 2447 541 2490 
Q 416 2534 166 2534 
L 166 2759 
L 1113 2828 
L 1113 2431 
Q 1288 2625 1520 2726 
Q 1753 2828 2016 2828 
Q 2394 2828 2697 2623 
Q 3000 2419 3170 2086 
Q 3341 1753 3341 1381 
Q 3341 994 3152 659 
Q 2963 325 2636 126 
Q 2309 -72 1919 -72 
Q 1453 -72 1131 306 
L 1131 -813 
Q 1131 -944 1273 -981 
Q 1416 -1019 1631 -1019 
L 1631 -1241 
L 166 -1241 
z
M 1131 622 
Q 1244 394 1444 245 
Q 1644 97 1881 97 
Q 2103 97 2273 215 
Q 2444 334 2559 534 
Q 2675 734 2729 954 
Q 2784 1175 2784 1381 
Q 2784 1638 2692 1936 
Q 2600 2234 2411 2439 
Q 2222 2644 1953 2644 
Q 1694 2644 1476 2511 
Q 1259 2378 1131 2150 
L 1131 622 
z
" transform="scale(0.015625)"/>
       <path id="Cmr10-6f" d="M 1600 -72 
Q 1216 -72 887 123 
Q 559 319 368 647 
Q 178 975 178 1363 
Q 178 1656 283 1928 
Q 388 2200 583 2414 
Q 778 2628 1037 2748 
Q 1297 2869 1600 2869 
Q 1994 2869 2317 2661 
Q 2641 2453 2828 2104 
Q 3016 1756 3016 1363 
Q 3016 978 2825 648 
Q 2634 319 2307 123 
Q 1981 -72 1600 -72 
z
M 1600 116 
Q 2113 116 2284 487 
Q 2456 859 2456 1434 
Q 2456 1756 2422 1967 
Q 2388 2178 2272 2350 
Q 2200 2456 2089 2536 
Q 1978 2616 1854 2658 
Q 1731 2700 1600 2700 
Q 1400 2700 1220 2609 
Q 1041 2519 922 2350 
Q 803 2169 770 1951 
Q 738 1734 738 1434 
Q 738 1075 800 789 
Q 863 503 1052 309 
Q 1241 116 1600 116 
z
" transform="scale(0.015625)"/>
       <path id="Cmr10-63" d="M 1594 -72 
Q 1206 -72 890 129 
Q 575 331 394 667 
Q 213 1003 213 1381 
Q 213 1759 392 2106 
Q 572 2453 889 2661 
Q 1206 2869 1594 2869 
Q 1969 2869 2276 2722 
Q 2584 2575 2584 2241 
Q 2584 2116 2495 2023 
Q 2406 1931 2278 1931 
Q 2150 1931 2061 2023 
Q 1972 2116 1972 2241 
Q 1972 2353 2044 2436 
Q 2116 2519 2222 2541 
Q 2000 2681 1600 2681 
Q 1294 2681 1106 2478 
Q 919 2275 844 1975 
Q 769 1675 769 1381 
Q 769 1072 861 783 
Q 953 494 1158 305 
Q 1363 116 1672 116 
Q 1975 116 2187 302 
Q 2400 488 2478 788 
Q 2478 825 2528 825 
L 2606 825 
Q 2625 825 2640 808 
Q 2656 791 2656 769 
L 2656 750 
Q 2559 372 2271 150 
Q 1984 -72 1594 -72 
z
" transform="scale(0.015625)"/>
       <path id="Cmr10-68" d="M 191 0 
L 191 225 
Q 409 225 550 259 
Q 691 294 691 428 
L 691 3788 
Q 691 3959 639 4036 
Q 588 4113 491 4130 
Q 394 4147 191 4147 
L 191 4372 
L 1141 4441 
L 1141 2241 
Q 1275 2506 1515 2667 
Q 1756 2828 2047 2828 
Q 2491 2828 2714 2615 
Q 2938 2403 2938 1966 
L 2938 428 
Q 2938 294 3078 259 
Q 3219 225 3438 225 
L 3438 0 
L 1972 0 
L 1972 225 
Q 2191 225 2331 259 
Q 2472 294 2472 428 
L 2472 1947 
Q 2472 2259 2381 2461 
Q 2291 2663 2009 2663 
Q 1638 2663 1398 2366 
Q 1159 2069 1159 1691 
L 1159 428 
Q 1159 294 1300 259 
Q 1441 225 1656 225 
L 1656 0 
L 191 0 
z
" transform="scale(0.015625)"/>
      </defs>
      <use xlink:href="#Cmr10-45"/>
      <use xlink:href="#Cmr10-70" x="68.017578"/>
      <use xlink:href="#Cmr10-6f" x="123.535156"/>
      <use xlink:href="#Cmr10-63" x="173.535156"/>
      <use xlink:href="#Cmr10-68" x="217.919922"/>
     </g>
    </g>
   </g>
   <g id="matplotlib.axis_2">
    <g id="ytick_1">
     <g id="line2d_8">
      <defs>
       <path id="m2577e2478b" d="M 0 0 
L -3.5 0 
" style="stroke: #000000; stroke-width: 0.8"/>
      </defs>
      <g>
       <use xlink:href="#m2577e2478b" x="40.647115" y="164.840745" style="stroke: #000000; stroke-width: 0.8"/>
      </g>
     </g>
     <g id="text_9">
      <!-- 0.05 -->
      <g transform="translate(15.878365 168.310276) scale(0.1 -0.1)">
       <defs>
        <path id="Cmr10-2e" d="M 538 353 
Q 538 497 644 600 
Q 750 703 891 703 
Q 978 703 1062 656 
Q 1147 609 1194 525 
Q 1241 441 1241 353 
Q 1241 213 1137 106 
Q 1034 0 891 0 
Q 750 0 644 106 
Q 538 213 538 353 
z
" transform="scale(0.015625)"/>
       </defs>
       <use xlink:href="#Cmr10-30"/>
       <use xlink:href="#Cmr10-2e" x="50"/>
       <use xlink:href="#Cmr10-30" x="77.685547"/>
       <use xlink:href="#Cmr10-35" x="127.685547"/>
      </g>
     </g>
    </g>
    <g id="ytick_2">
     <g id="line2d_9">
      <g>
       <use xlink:href="#m2577e2478b" x="40.647115" y="130.22816" style="stroke: #000000; stroke-width: 0.8"/>
      </g>
     </g>
     <g id="text_10">
      <!-- 0.10 -->
      <g transform="translate(15.878365 133.697691) scale(0.1 -0.1)">
       <use xlink:href="#Cmr10-30"/>
       <use xlink:href="#Cmr10-2e" x="50"/>
       <use xlink:href="#Cmr10-31" x="77.685547"/>
       <use xlink:href="#Cmr10-30" x="127.685547"/>
      </g>
     </g>
    </g>
    <g id="ytick_3">
     <g id="line2d_10">
      <g>
       <use xlink:href="#m2577e2478b" x="40.647115" y="95.615574" style="stroke: #000000; stroke-width: 0.8"/>
      </g>
     </g>
     <g id="text_11">
      <!-- 0.15 -->
      <g transform="translate(15.878365 99.085106) scale(0.1 -0.1)">
       <use xlink:href="#Cmr10-30"/>
       <use xlink:href="#Cmr10-2e" x="50"/>
       <use xlink:href="#Cmr10-31" x="77.685547"/>
       <use xlink:href="#Cmr10-35" x="127.685547"/>
      </g>
     </g>
    </g>
    <g id="ytick_4">
     <g id="line2d_11">
      <g>
       <use xlink:href="#m2577e2478b" x="40.647115" y="61.002989" style="stroke: #000000; stroke-width: 0.8"/>
      </g>
     </g>
     <g id="text_12">
      <!-- 0.20 -->
      <g transform="translate(15.878365 64.47252) scale(0.1 -0.1)">
       <use xlink:href="#Cmr10-30"/>
       <use xlink:href="#Cmr10-2e" x="50"/>
       <use xlink:href="#Cmr10-32" x="77.685547"/>
       <use xlink:href="#Cmr10-30" x="127.685547"/>
      </g>
     </g>
    </g>
    <g id="ytick_5">
     <g id="line2d_12">
      <g>
       <use xlink:href="#m2577e2478b" x="40.647115" y="26.390404" style="stroke: #000000; stroke-width: 0.8"/>
      </g>
     </g>
     <g id="text_13">
      <!-- 0.25 -->
      <g transform="translate(15.878365 29.859935) scale(0.1 -0.1)">
       <use xlink:href="#Cmr10-30"/>
       <use xlink:href="#Cmr10-2e" x="50"/>
       <use xlink:href="#Cmr10-32" x="77.685547"/>
       <use xlink:href="#Cmr10-35" x="127.685547"/>
      </g>
     </g>
    </g>
    <g id="text_14">
     <!-- Jaccard Loss -->
     <g transform="translate(9.939302 128.751719) rotate(-90) scale(0.1 -0.1)">
      <defs>
       <path id="Cmr10-4a" d="M 581 359 
Q 697 197 881 111 
Q 1066 25 1275 25 
Q 1481 25 1623 167 
Q 1766 309 1836 520 
Q 1906 731 1906 928 
L 1906 3944 
Q 1906 4147 1050 4147 
L 1050 4372 
L 2975 4372 
L 2975 4147 
Q 2759 4147 2621 4112 
Q 2484 4078 2484 3944 
L 2484 903 
Q 2484 597 2307 359 
Q 2131 122 1851 -9 
Q 1572 -141 1275 -141 
Q 1016 -141 778 -36 
Q 541 69 389 267 
Q 238 466 238 728 
Q 238 888 344 994 
Q 450 1100 609 1100 
Q 713 1100 797 1051 
Q 881 1003 929 915 
Q 978 828 978 728 
Q 978 572 872 465 
Q 766 359 609 359 
L 581 359 
z
" transform="scale(0.015625)"/>
       <path id="Cmr10-61" d="M 256 628 
Q 256 1009 556 1248 
Q 856 1488 1276 1586 
Q 1697 1684 2075 1684 
L 2075 1947 
Q 2075 2131 1994 2304 
Q 1913 2478 1759 2589 
Q 1606 2700 1422 2700 
Q 997 2700 775 2509 
Q 897 2509 976 2417 
Q 1056 2325 1056 2203 
Q 1056 2075 965 1984 
Q 875 1894 750 1894 
Q 622 1894 531 1984 
Q 441 2075 441 2203 
Q 441 2541 747 2705 
Q 1053 2869 1422 2869 
Q 1681 2869 1943 2758 
Q 2206 2647 2373 2440 
Q 2541 2234 2541 1959 
L 2541 519 
Q 2541 394 2594 289 
Q 2647 184 2759 184 
Q 2866 184 2917 290 
Q 2969 397 2969 519 
L 2969 928 
L 3156 928 
L 3156 519 
Q 3156 375 3081 245 
Q 3006 116 2879 39 
Q 2753 -38 2606 -38 
Q 2419 -38 2283 107 
Q 2147 253 2131 453 
Q 2013 213 1781 70 
Q 1550 -72 1288 -72 
Q 1044 -72 808 0 
Q 572 72 414 226 
Q 256 381 256 628 
z
M 775 628 
Q 775 403 940 250 
Q 1106 97 1331 97 
Q 1538 97 1706 200 
Q 1875 303 1975 481 
Q 2075 659 2075 856 
L 2075 1522 
Q 1784 1522 1479 1426 
Q 1175 1331 975 1128 
Q 775 925 775 628 
z
" transform="scale(0.015625)"/>
       <path id="Cmr10-72" d="M 166 0 
L 166 225 
Q 384 225 525 259 
Q 666 294 666 428 
L 666 2175 
Q 666 2347 614 2423 
Q 563 2500 466 2517 
Q 369 2534 166 2534 
L 166 2759 
L 1081 2828 
L 1081 2203 
Q 1184 2481 1375 2654 
Q 1566 2828 1838 2828 
Q 2028 2828 2178 2715 
Q 2328 2603 2328 2419 
Q 2328 2303 2245 2217 
Q 2163 2131 2041 2131 
Q 1922 2131 1837 2215 
Q 1753 2300 1753 2419 
Q 1753 2591 1875 2663 
L 1838 2663 
Q 1578 2663 1414 2475 
Q 1250 2288 1181 2009 
Q 1113 1731 1113 1478 
L 1113 428 
Q 1113 225 1734 225 
L 1734 0 
L 166 0 
z
" transform="scale(0.015625)"/>
       <path id="Cmr10-64" d="M 1563 -72 
Q 1184 -72 871 133 
Q 559 338 386 672 
Q 213 1006 213 1381 
Q 213 1769 402 2101 
Q 591 2434 916 2631 
Q 1241 2828 1631 2828 
Q 1866 2828 2075 2729 
Q 2284 2631 2438 2456 
L 2438 3788 
Q 2438 3959 2386 4036 
Q 2334 4113 2239 4130 
Q 2144 4147 1941 4147 
L 1941 4372 
L 2888 4441 
L 2888 581 
Q 2888 413 2939 336 
Q 2991 259 3086 242 
Q 3181 225 3384 225 
L 3384 0 
L 2419 -72 
L 2419 331 
Q 2253 141 2025 34 
Q 1797 -72 1563 -72 
z
M 909 556 
Q 1019 347 1201 222 
Q 1384 97 1600 97 
Q 1866 97 2087 250 
Q 2309 403 2419 647 
L 2419 2181 
Q 2344 2322 2230 2433 
Q 2116 2544 1973 2603 
Q 1831 2663 1672 2663 
Q 1338 2663 1134 2473 
Q 931 2284 850 1990 
Q 769 1697 769 1375 
Q 769 1119 795 928 
Q 822 738 909 556 
z
" transform="scale(0.015625)"/>
       <path id="Cmr10-20" transform="scale(0.015625)"/>
       <path id="Cmr10-4c" d="M 197 0 
L 197 225 
Q 856 225 856 428 
L 856 3944 
Q 856 4147 197 4147 
L 197 4372 
L 2272 4372 
L 2272 4147 
Q 1453 4147 1453 3944 
L 1453 428 
Q 1453 291 1531 258 
Q 1609 225 1778 225 
L 2272 225 
Q 2750 225 3009 400 
Q 3269 575 3376 876 
Q 3484 1178 3541 1678 
L 3725 1678 
L 3547 0 
L 197 0 
z
" transform="scale(0.015625)"/>
       <path id="Cmr10-73" d="M 213 -19 
L 213 1025 
Q 213 1075 269 1075 
L 347 1075 
Q 384 1075 397 1025 
Q 575 97 1259 97 
Q 1563 97 1767 234 
Q 1972 372 1972 659 
Q 1972 866 1812 1011 
Q 1653 1156 1434 1209 
L 1006 1294 
Q 791 1341 614 1437 
Q 438 1534 325 1695 
Q 213 1856 213 2069 
Q 213 2350 361 2529 
Q 509 2709 746 2789 
Q 984 2869 1259 2869 
Q 1588 2869 1831 2694 
L 2016 2853 
Q 2016 2869 2047 2869 
L 2094 2869 
Q 2113 2869 2128 2851 
Q 2144 2834 2144 2816 
L 2144 1978 
Q 2144 1919 2094 1919 
L 2016 1919 
Q 1959 1919 1959 1978 
Q 1959 2313 1773 2516 
Q 1588 2719 1253 2719 
Q 966 2719 755 2612 
Q 544 2506 544 2247 
Q 544 2069 695 1955 
Q 847 1841 1050 1791 
L 1484 1709 
Q 1703 1659 1892 1540 
Q 2081 1422 2192 1240 
Q 2303 1059 2303 831 
Q 2303 600 2223 429 
Q 2144 259 2001 146 
Q 1859 34 1665 -19 
Q 1472 -72 1259 -72 
Q 859 -72 575 197 
L 341 -56 
Q 341 -72 306 -72 
L 269 -72 
Q 213 -72 213 -19 
z
" transform="scale(0.015625)"/>
      </defs>
      <use xlink:href="#Cmr10-4a"/>
      <use xlink:href="#Cmr10-61" x="51.318359"/>
      <use xlink:href="#Cmr10-63" x="101.318359"/>
      <use xlink:href="#Cmr10-63" x="145.703125"/>
      <use xlink:href="#Cmr10-61" x="190.087891"/>
      <use xlink:href="#Cmr10-72" x="240.087891"/>
      <use xlink:href="#Cmr10-64" x="279.199219"/>
      <use xlink:href="#Cmr10-20" x="334.716797"/>
      <use xlink:href="#Cmr10-4c" x="368.017578"/>
      <use xlink:href="#Cmr10-6f" x="430.517578"/>
      <use xlink:href="#Cmr10-73" x="480.517578"/>
      <use xlink:href="#Cmr10-73" x="519.921875"/>
     </g>
    </g>
   </g>
   <g id="line2d_13">
    <path d="M 54.999519 24.914224 
L 70.107312 112.089093 
L 85.215106 127.124802 
L 100.322899 134.223127 
L 115.430693 140.131806 
L 130.538487 143.096221 
L 145.64628 145.937645 
L 160.754074 148.745406 
L 175.861867 150.953659 
L 190.969661 152.810132 
L 206.077454 154.311877 
L 221.185248 155.535393 
L 236.293041 156.651779 
L 251.400835 157.749796 
L 266.508628 158.866225 
L 281.616422 159.749314 
L 296.724216 160.28602 
L 311.832009 161.474449 
L 326.939803 162.387673 
L 342.047596 162.900294 
" clip-path="url(#p059ee5b477)" style="fill: none; stroke: #f58231; stroke-width: 1.5; stroke-linecap: square"/>
   </g>
   <g id="line2d_14">
    <path d="M 54.999519 41.429584 
L 70.107312 128.427727 
L 85.215106 141.797377 
L 100.322899 148.502868 
L 115.430693 152.680963 
L 130.538487 155.591954 
L 145.64628 158.374166 
L 160.754074 160.20404 
L 175.861867 162.130587 
L 190.969661 163.290295 
L 206.077454 164.629473 
L 221.185248 165.988148 
L 236.293041 166.99199 
L 251.400835 167.757097 
L 266.508628 168.55132 
L 281.616422 169.330518 
L 296.724216 170.216955 
L 311.832009 170.823183 
L 326.939803 171.208321 
L 342.047596 171.922278 
" clip-path="url(#p059ee5b477)" style="fill: none; stroke: #000075; stroke-width: 1.5; stroke-linecap: square"/>
   </g>
   <g id="line2d_15">
    <path d="M 54.999519 42.366695 
L 70.107312 125.774213 
L 85.215106 138.420179 
L 100.322899 144.115943 
L 115.430693 148.293871 
L 130.538487 150.619463 
L 145.64628 152.908042 
L 160.754074 155.163817 
L 175.861867 156.615431 
L 190.969661 157.770169 
L 206.077454 159.047997 
L 221.185248 159.890123 
L 236.293041 160.834953 
L 251.400835 161.534179 
L 266.508628 162.210335 
L 281.616422 162.689273 
L 296.724216 163.705034 
L 311.832009 164.312326 
L 326.939803 164.94703 
L 342.047596 165.324298 
" clip-path="url(#p059ee5b477)" style="fill: none; stroke: #4363d8; stroke-width: 1.5; stroke-linecap: square"/>
   </g>
   <g id="line2d_16">
    <path d="M 54.999519 53.67626 
L 70.107312 129.843193 
L 85.215106 140.488909 
L 100.322899 146.19848 
L 115.430693 149.853614 
L 130.538487 152.469563 
L 145.64628 154.799825 
L 160.754074 156.566506 
L 175.861867 158.16137 
L 190.969661 159.123031 
L 206.077454 160.075018 
L 221.185248 161.093084 
L 236.293041 161.958171 
L 251.400835 162.567298 
L 266.508628 163.651466 
L 281.616422 163.897158 
L 296.724216 164.557386 
L 311.832009 164.950294 
L 326.939803 165.664085 
L 342.047596 166.002619 
" clip-path="url(#p059ee5b477)" style="fill: none; stroke: #3cb44b; stroke-width: 1.5; stroke-linecap: square"/>
   </g>
   <g id="line2d_17">
    <path d="M 54.999519 60.248256 
L 70.107312 134.869038 
L 85.215106 148.263572 
L 100.322899 154.645547 
L 115.430693 158.684896 
L 130.538487 161.981604 
L 145.64628 164.329339 
L 160.754074 166.30837 
L 175.861867 167.806718 
L 190.969661 169.341312 
L 206.077454 170.598298 
L 221.185248 171.735186 
L 236.293041 172.35711 
L 251.400835 173.190342 
L 266.508628 174.136706 
L 281.616422 174.841404 
L 296.724216 175.20189 
L 311.832009 176.289648 
L 326.939803 176.527701 
L 342.047596 176.656401 
" clip-path="url(#p059ee5b477)" style="fill: none; stroke: #e6194b; stroke-width: 1.5; stroke-linecap: square"/>
   </g>
   <g id="patch_3">
    <path d="M 40.647115 184.24351 
L 40.647115 17.327115 
" style="fill: none; stroke: #000000; stroke-width: 0.8; stroke-linejoin: miter; stroke-linecap: square"/>
   </g>
   <g id="patch_4">
    <path d="M 356.4 184.24351 
L 356.4 17.327115 
" style="fill: none; stroke: #000000; stroke-width: 0.8; stroke-linejoin: miter; stroke-linecap: square"/>
   </g>
   <g id="patch_5">
    <path d="M 40.647115 184.24351 
L 356.4 184.24351 
" style="fill: none; stroke: #000000; stroke-width: 0.8; stroke-linejoin: miter; stroke-linecap: square"/>
   </g>
   <g id="patch_6">
    <path d="M 40.647115 17.327115 
L 356.4 17.327115 
" style="fill: none; stroke: #000000; stroke-width: 0.8; stroke-linejoin: miter; stroke-linecap: square"/>
   </g>
   <g id="text_15">
    <!-- A -->
    <g transform="translate(44.040937 32.845845) scale(0.12 -0.12)">
     <defs>
      <path id="Cmr10-41" d="M 206 0 
L 206 225 
Q 778 225 909 603 
L 2253 4513 
Q 2272 4581 2356 4581 
L 2438 4581 
Q 2522 4581 2541 4513 
L 3944 428 
Q 4003 294 4170 259 
Q 4338 225 4588 225 
L 4588 0 
L 2803 0 
L 2803 225 
Q 3334 225 3334 397 
L 3334 428 
L 2988 1428 
L 1434 1428 
L 1147 603 
Q 1141 581 1141 538 
Q 1141 378 1292 301 
Q 1444 225 1619 225 
L 1619 0 
L 206 0 
z
M 1509 1650 
L 2913 1650 
L 2209 3694 
L 1509 1650 
z
" transform="scale(0.015625)"/>
     </defs>
     <use xlink:href="#Cmr10-41"/>
    </g>
   </g>
   <g id="text_16">
    <!-- Loss -->
    <g transform="translate(187.044807 11.327115) scale(0.12 -0.12)">
     <use xlink:href="#Cmr10-4c"/>
     <use xlink:href="#Cmr10-6f" x="62.5"/>
     <use xlink:href="#Cmr10-73" x="112.5"/>
     <use xlink:href="#Cmr10-73" x="151.904297"/>
    </g>
   </g>
  </g>
  <g id="axes_2">
   <g id="table_1">
    <g id="patch_7">
     <path d="M 401.246875 74.290647 
L 559.123317 74.290647 
L 559.123317 61.043314 
L 401.246875 61.043314 
z
" style="fill: #ffffff; stroke: #000000; stroke-linejoin: miter"/>
    </g>
    <g id="text_17">
     <!-- Architectures -->
     <g transform="translate(450.858534 70.16698) scale(0.1 -0.1)">
      <defs>
       <path id="Cmr10-69" d="M 197 0 
L 197 225 
Q 416 225 556 259 
Q 697 294 697 428 
L 697 2175 
Q 697 2422 601 2478 
Q 506 2534 225 2534 
L 225 2759 
L 1147 2828 
L 1147 428 
Q 1147 294 1269 259 
Q 1391 225 1594 225 
L 1594 0 
L 197 0 
z
M 469 3928 
Q 469 4069 575 4175 
Q 681 4281 819 4281 
Q 909 4281 993 4234 
Q 1078 4188 1125 4103 
Q 1172 4019 1172 3928 
Q 1172 3791 1065 3684 
Q 959 3578 819 3578 
Q 681 3578 575 3684 
Q 469 3791 469 3928 
z
" transform="scale(0.015625)"/>
       <path id="Cmr10-74" d="M 653 769 
L 653 2534 
L 122 2534 
L 122 2700 
Q 541 2700 737 3090 
Q 934 3481 934 3938 
L 1119 3938 
L 1119 2759 
L 2022 2759 
L 2022 2534 
L 1119 2534 
L 1119 781 
Q 1119 516 1208 316 
Q 1297 116 1528 116 
Q 1747 116 1844 327 
Q 1941 538 1941 781 
L 1941 1159 
L 2125 1159 
L 2125 769 
Q 2125 569 2051 373 
Q 1978 178 1834 53 
Q 1691 -72 1484 -72 
Q 1100 -72 876 158 
Q 653 388 653 769 
z
" transform="scale(0.015625)"/>
       <path id="Cmr10-65" d="M 1594 -72 
Q 1203 -72 876 133 
Q 550 338 364 680 
Q 178 1022 178 1403 
Q 178 1778 348 2115 
Q 519 2453 823 2661 
Q 1128 2869 1503 2869 
Q 1797 2869 2014 2770 
Q 2231 2672 2372 2497 
Q 2513 2322 2584 2084 
Q 2656 1847 2656 1563 
Q 2656 1478 2591 1478 
L 738 1478 
L 738 1409 
Q 738 878 952 497 
Q 1166 116 1650 116 
Q 1847 116 2014 203 
Q 2181 291 2304 447 
Q 2428 603 2472 781 
Q 2478 803 2495 820 
Q 2513 838 2534 838 
L 2591 838 
Q 2656 838 2656 756 
Q 2566 394 2266 161 
Q 1966 -72 1594 -72 
z
M 744 1638 
L 2203 1638 
Q 2203 1878 2136 2125 
Q 2069 2372 1912 2536 
Q 1756 2700 1503 2700 
Q 1141 2700 942 2361 
Q 744 2022 744 1638 
z
" transform="scale(0.015625)"/>
       <path id="Cmr10-75" d="M 691 763 
L 691 2175 
Q 691 2347 639 2423 
Q 588 2500 491 2517 
Q 394 2534 191 2534 
L 191 2759 
L 1159 2828 
L 1159 763 
Q 1159 513 1195 373 
Q 1231 234 1348 165 
Q 1466 97 1722 97 
Q 2066 97 2269 384 
Q 2472 672 2472 1038 
L 2472 2175 
Q 2472 2347 2419 2423 
Q 2366 2500 2270 2517 
Q 2175 2534 1972 2534 
L 1972 2759 
L 2938 2828 
L 2938 581 
Q 2938 413 2989 336 
Q 3041 259 3137 242 
Q 3234 225 3438 225 
L 3438 0 
L 2491 -72 
L 2491 469 
Q 2372 228 2159 78 
Q 1947 -72 1691 -72 
Q 1231 -72 961 123 
Q 691 319 691 763 
z
" transform="scale(0.015625)"/>
      </defs>
      <use xlink:href="#Cmr10-41"/>
      <use xlink:href="#Cmr10-72" x="75"/>
      <use xlink:href="#Cmr10-63" x="114.111328"/>
      <use xlink:href="#Cmr10-68" x="158.496094"/>
      <use xlink:href="#Cmr10-69" x="214.013672"/>
      <use xlink:href="#Cmr10-74" x="241.699219"/>
      <use xlink:href="#Cmr10-65" x="280.517578"/>
      <use xlink:href="#Cmr10-63" x="324.902344"/>
      <use xlink:href="#Cmr10-74" x="369.287109"/>
      <use xlink:href="#Cmr10-75" x="408.105469"/>
      <use xlink:href="#Cmr10-72" x="463.623047"/>
      <use xlink:href="#Cmr10-65" x="502.734375"/>
      <use xlink:href="#Cmr10-73" x="547.119141"/>
     </g>
    </g>
    <g id="patch_8">
     <path d="M 559.123317 74.290647 
L 716.99976 74.290647 
L 716.99976 61.043314 
L 559.123317 61.043314 
z
" style="fill: #ffffff; stroke: #000000; stroke-linejoin: miter"/>
    </g>
    <g id="text_18">
     <!-- Val IoU -->
     <g transform="translate(620.708414 70.16698) scale(0.1 -0.1)">
      <defs>
       <path id="Cmr10-56" d="M 2253 -72 
L 744 3944 
Q 688 4078 528 4112 
Q 369 4147 122 4147 
L 122 4372 
L 1881 4372 
L 1881 4147 
Q 1350 4147 1350 3981 
Q 1353 3972 1354 3964 
Q 1356 3956 1356 3944 
L 2584 678 
L 3744 3769 
Q 3756 3794 3756 3847 
Q 3756 4003 3612 4075 
Q 3469 4147 3291 4147 
L 3291 4372 
L 4672 4372 
L 4672 4147 
Q 4431 4147 4248 4058 
Q 4066 3969 3988 3769 
L 2541 -72 
Q 2522 -141 2438 -141 
L 2356 -141 
Q 2272 -141 2253 -72 
z
" transform="scale(0.015625)"/>
       <path id="Cmr10-6c" d="M 197 0 
L 197 225 
Q 416 225 556 259 
Q 697 294 697 428 
L 697 3788 
Q 697 3959 645 4036 
Q 594 4113 497 4130 
Q 400 4147 197 4147 
L 197 4372 
L 1147 4441 
L 1147 428 
Q 1147 294 1287 259 
Q 1428 225 1644 225 
L 1644 0 
L 197 0 
z
" transform="scale(0.015625)"/>
       <path id="Cmr10-49" d="M 166 0 
L 166 225 
Q 856 225 856 428 
L 856 3944 
Q 856 4147 166 4147 
L 166 4372 
L 2144 4372 
L 2144 4147 
Q 1453 4147 1453 3944 
L 1453 428 
Q 1453 225 2144 225 
L 2144 0 
L 166 0 
z
" transform="scale(0.015625)"/>
       <path id="Cmr10-55" d="M 856 1447 
L 856 3944 
Q 856 4147 197 4147 
L 197 4372 
L 2113 4372 
L 2113 4147 
Q 1453 4147 1453 3944 
L 1453 1472 
Q 1453 1116 1551 798 
Q 1650 481 1883 282 
Q 2116 84 2491 84 
Q 2856 84 3134 276 
Q 3413 469 3563 787 
Q 3713 1106 3713 1472 
L 3713 3769 
Q 3713 4147 3053 4147 
L 3053 4372 
L 4594 4372 
L 4594 4147 
Q 3938 4147 3938 3769 
L 3938 1447 
Q 3938 1150 3833 865 
Q 3728 581 3529 351 
Q 3331 122 3062 -9 
Q 2794 -141 2491 -141 
Q 2066 -141 1686 71 
Q 1306 284 1081 650 
Q 856 1016 856 1447 
z
" transform="scale(0.015625)"/>
      </defs>
      <use xlink:href="#Cmr10-56"/>
      <use xlink:href="#Cmr10-61" x="75"/>
      <use xlink:href="#Cmr10-6c" x="125"/>
      <use xlink:href="#Cmr10-20" x="152.685547"/>
      <use xlink:href="#Cmr10-49" x="185.986328"/>
      <use xlink:href="#Cmr10-6f" x="222.070312"/>
      <use xlink:href="#Cmr10-55" x="272.070312"/>
     </g>
    </g>
    <g id="patch_9">
     <path d="M 401.246875 87.53798 
L 559.123317 87.53798 
L 559.123317 74.290647 
L 401.246875 74.290647 
z
" style="fill: #ffffff; stroke: #000000; stroke-linejoin: miter"/>
    </g>
    <g id="text_19">
     <!-- resnet101 -->
     <g transform="translate(502.173173 83.414313) scale(0.1 -0.1)">
      <defs>
       <path id="Cmr10-6e" d="M 191 0 
L 191 225 
Q 409 225 550 259 
Q 691 294 691 428 
L 691 2175 
Q 691 2347 639 2423 
Q 588 2500 491 2517 
Q 394 2534 191 2534 
L 191 2759 
L 1119 2828 
L 1119 2203 
Q 1247 2478 1498 2653 
Q 1750 2828 2047 2828 
Q 2491 2828 2714 2615 
Q 2938 2403 2938 1966 
L 2938 428 
Q 2938 294 3078 259 
Q 3219 225 3438 225 
L 3438 0 
L 1972 0 
L 1972 225 
Q 2191 225 2331 259 
Q 2472 294 2472 428 
L 2472 1947 
Q 2472 2259 2381 2461 
Q 2291 2663 2009 2663 
Q 1638 2663 1398 2366 
Q 1159 2069 1159 1691 
L 1159 428 
Q 1159 294 1300 259 
Q 1441 225 1656 225 
L 1656 0 
L 191 0 
z
" transform="scale(0.015625)"/>
      </defs>
      <use xlink:href="#Cmr10-72"/>
      <use xlink:href="#Cmr10-65" x="39.111328"/>
      <use xlink:href="#Cmr10-73" x="83.496094"/>
      <use xlink:href="#Cmr10-6e" x="122.900391"/>
      <use xlink:href="#Cmr10-65" x="178.417969"/>
      <use xlink:href="#Cmr10-74" x="222.802734"/>
      <use xlink:href="#Cmr10-31" x="261.621094"/>
      <use xlink:href="#Cmr10-30" x="311.621094"/>
      <use xlink:href="#Cmr10-31" x="361.621094"/>
     </g>
    </g>
    <g id="patch_10">
     <path d="M 559.123317 87.53798 
L 716.99976 87.53798 
L 716.99976 74.290647 
L 559.123317 74.290647 
z
" style="fill: #ffffff; stroke: #000000; stroke-linejoin: miter"/>
    </g>
    <g id="text_20">
     <!-- 0.9543 -->
     <g transform="translate(673.443366 83.414313) scale(0.1 -0.1)">
      <defs>
       <path id="Cmr10-34" d="M 178 1056 
L 178 1281 
L 2156 4231 
Q 2178 4263 2222 4263 
L 2316 4263 
Q 2388 4263 2388 4191 
L 2388 1281 
L 3016 1281 
L 3016 1056 
L 2388 1056 
L 2388 428 
Q 2388 297 2575 261 
Q 2763 225 3009 225 
L 3009 0 
L 1247 0 
L 1247 225 
Q 1494 225 1681 261 
Q 1869 297 1869 428 
L 1869 1056 
L 178 1056 
z
M 391 1281 
L 1906 1281 
L 1906 3547 
L 391 1281 
z
" transform="scale(0.015625)"/>
      </defs>
      <use xlink:href="#Cmr10-30"/>
      <use xlink:href="#Cmr10-2e" x="50"/>
      <use xlink:href="#Cmr10-39" x="77.685547"/>
      <use xlink:href="#Cmr10-35" x="127.685547"/>
      <use xlink:href="#Cmr10-34" x="177.685547"/>
      <use xlink:href="#Cmr10-33" x="227.685547"/>
     </g>
    </g>
    <g id="patch_11">
     <path d="M 401.246875 100.785312 
L 559.123317 100.785312 
L 559.123317 87.53798 
L 401.246875 87.53798 
z
" style="fill: #ffffff; stroke: #000000; stroke-linejoin: miter"/>
    </g>
    <g id="text_21">
     <!-- efficientnet-b2 -->
     <g transform="translate(481.191923 96.661646) scale(0.1 -0.1)">
      <defs>
       <path id="Cmr10-66" d="M 206 0 
L 206 225 
Q 422 225 562 259 
Q 703 294 703 428 
L 703 2534 
L 213 2534 
L 213 2759 
L 703 2759 
L 703 3525 
Q 703 3731 789 3911 
Q 875 4091 1020 4225 
Q 1166 4359 1355 4436 
Q 1544 4513 1747 4513 
Q 1963 4513 2136 4384 
Q 2309 4256 2309 4044 
Q 2309 3922 2226 3839 
Q 2144 3756 2022 3756 
Q 1900 3756 1814 3839 
Q 1728 3922 1728 4044 
Q 1728 4244 1900 4313 
Q 1797 4347 1716 4347 
Q 1528 4347 1395 4214 
Q 1263 4081 1197 3890 
Q 1131 3700 1131 3513 
L 1131 2759 
L 1869 2759 
L 1869 2534 
L 1153 2534 
L 1153 428 
Q 1153 297 1340 261 
Q 1528 225 1772 225 
L 1772 0 
L 206 0 
z
" transform="scale(0.015625)"/>
       <path id="Cmr10-2d" d="M 72 1184 
L 72 1581 
L 1766 1581 
L 1766 1184 
L 72 1184 
z
" transform="scale(0.015625)"/>
       <path id="Cmr10-62" d="M 666 0 
L 666 3788 
Q 666 3959 614 4036 
Q 563 4113 466 4130 
Q 369 4147 166 4147 
L 166 4372 
L 1113 4441 
L 1113 2438 
Q 1219 2556 1361 2645 
Q 1503 2734 1665 2781 
Q 1828 2828 1997 2828 
Q 2284 2828 2529 2712 
Q 2775 2597 2956 2394 
Q 3138 2191 3239 1927 
Q 3341 1663 3341 1381 
Q 3341 994 3152 659 
Q 2963 325 2636 126 
Q 2309 -72 1919 -72 
Q 1675 -72 1447 53 
Q 1219 178 1069 384 
L 850 0 
L 666 0 
z
M 1131 628 
Q 1238 394 1438 245 
Q 1638 97 1881 97 
Q 2213 97 2417 287 
Q 2622 478 2703 768 
Q 2784 1059 2784 1381 
Q 2784 1922 2644 2203 
Q 2581 2328 2473 2434 
Q 2366 2541 2233 2602 
Q 2100 2663 1953 2663 
Q 1697 2663 1478 2527 
Q 1259 2391 1131 2163 
L 1131 628 
z
" transform="scale(0.015625)"/>
      </defs>
      <use xlink:href="#Cmr10-65"/>
      <use xlink:href="#Cmr10-66" x="44.384766"/>
      <use xlink:href="#Cmr10-66" x="74.902344"/>
      <use xlink:href="#Cmr10-69" x="105.419922"/>
      <use xlink:href="#Cmr10-63" x="133.105469"/>
      <use xlink:href="#Cmr10-69" x="177.490234"/>
      <use xlink:href="#Cmr10-65" x="205.175781"/>
      <use xlink:href="#Cmr10-6e" x="249.560547"/>
      <use xlink:href="#Cmr10-74" x="305.078125"/>
      <use xlink:href="#Cmr10-6e" x="343.896484"/>
      <use xlink:href="#Cmr10-65" x="399.414062"/>
      <use xlink:href="#Cmr10-74" x="443.798828"/>
      <use xlink:href="#Cmr10-2d" x="482.617188"/>
      <use xlink:href="#Cmr10-62" x="515.917969"/>
      <use xlink:href="#Cmr10-32" x="571.435547"/>
     </g>
    </g>
    <g id="patch_12">
     <path d="M 559.123317 100.785312 
L 716.99976 100.785312 
L 716.99976 87.53798 
L 559.123317 87.53798 
z
" style="fill: #ffffff; stroke: #000000; stroke-linejoin: miter"/>
    </g>
    <g id="text_22">
     <!-- 0.95016 -->
     <g transform="translate(668.443366 96.661646) scale(0.1 -0.1)">
      <use xlink:href="#Cmr10-30"/>
      <use xlink:href="#Cmr10-2e" x="50"/>
      <use xlink:href="#Cmr10-39" x="77.685547"/>
      <use xlink:href="#Cmr10-35" x="127.685547"/>
      <use xlink:href="#Cmr10-30" x="177.685547"/>
      <use xlink:href="#Cmr10-31" x="227.685547"/>
      <use xlink:href="#Cmr10-36" x="277.685547"/>
     </g>
    </g>
    <g id="patch_13">
     <path d="M 401.246875 114.032645 
L 559.123317 114.032645 
L 559.123317 100.785312 
L 401.246875 100.785312 
z
" style="fill: #ffffff; stroke: #000000; stroke-linejoin: miter"/>
    </g>
    <g id="text_23">
     <!-- efficientnet-b1 -->
     <g transform="translate(481.191923 109.908979) scale(0.1 -0.1)">
      <use xlink:href="#Cmr10-65"/>
      <use xlink:href="#Cmr10-66" x="44.384766"/>
      <use xlink:href="#Cmr10-66" x="74.902344"/>
      <use xlink:href="#Cmr10-69" x="105.419922"/>
      <use xlink:href="#Cmr10-63" x="133.105469"/>
      <use xlink:href="#Cmr10-69" x="177.490234"/>
      <use xlink:href="#Cmr10-65" x="205.175781"/>
      <use xlink:href="#Cmr10-6e" x="249.560547"/>
      <use xlink:href="#Cmr10-74" x="305.078125"/>
      <use xlink:href="#Cmr10-6e" x="343.896484"/>
      <use xlink:href="#Cmr10-65" x="399.414062"/>
      <use xlink:href="#Cmr10-74" x="443.798828"/>
      <use xlink:href="#Cmr10-2d" x="482.617188"/>
      <use xlink:href="#Cmr10-62" x="515.917969"/>
      <use xlink:href="#Cmr10-31" x="571.435547"/>
     </g>
    </g>
    <g id="patch_14">
     <path d="M 559.123317 114.032645 
L 716.99976 114.032645 
L 716.99976 100.785312 
L 559.123317 100.785312 
z
" style="fill: #ffffff; stroke: #000000; stroke-linejoin: miter"/>
    </g>
    <g id="text_24">
     <!-- 0.94981 -->
     <g transform="translate(668.443366 109.908979) scale(0.1 -0.1)">
      <use xlink:href="#Cmr10-30"/>
      <use xlink:href="#Cmr10-2e" x="50"/>
      <use xlink:href="#Cmr10-39" x="77.685547"/>
      <use xlink:href="#Cmr10-34" x="127.685547"/>
      <use xlink:href="#Cmr10-39" x="177.685547"/>
      <use xlink:href="#Cmr10-38" x="227.685547"/>
      <use xlink:href="#Cmr10-31" x="277.685547"/>
     </g>
    </g>
    <g id="patch_15">
     <path d="M 401.246875 127.279978 
L 559.123317 127.279978 
L 559.123317 114.032645 
L 401.246875 114.032645 
z
" style="fill: #ffffff; stroke: #000000; stroke-linejoin: miter"/>
    </g>
    <g id="text_25">
     <!-- resnet34 -->
     <g transform="translate(507.173173 123.156312) scale(0.1 -0.1)">
      <use xlink:href="#Cmr10-72"/>
      <use xlink:href="#Cmr10-65" x="39.111328"/>
      <use xlink:href="#Cmr10-73" x="83.496094"/>
      <use xlink:href="#Cmr10-6e" x="122.900391"/>
      <use xlink:href="#Cmr10-65" x="178.417969"/>
      <use xlink:href="#Cmr10-74" x="222.802734"/>
      <use xlink:href="#Cmr10-33" x="261.621094"/>
      <use xlink:href="#Cmr10-34" x="311.621094"/>
     </g>
    </g>
    <g id="patch_16">
     <path d="M 559.123317 127.279978 
L 716.99976 127.279978 
L 716.99976 114.032645 
L 559.123317 114.032645 
z
" style="fill: #ffffff; stroke: #000000; stroke-linejoin: miter"/>
    </g>
    <g id="text_26">
     <!-- 0.94944 -->
     <g transform="translate(668.443366 123.156312) scale(0.1 -0.1)">
      <use xlink:href="#Cmr10-30"/>
      <use xlink:href="#Cmr10-2e" x="50"/>
      <use xlink:href="#Cmr10-39" x="77.685547"/>
      <use xlink:href="#Cmr10-34" x="127.685547"/>
      <use xlink:href="#Cmr10-39" x="177.685547"/>
      <use xlink:href="#Cmr10-34" x="227.685547"/>
      <use xlink:href="#Cmr10-34" x="277.685547"/>
     </g>
    </g>
    <g id="patch_17">
     <path d="M 401.246875 140.527311 
L 559.123317 140.527311 
L 559.123317 127.279978 
L 401.246875 127.279978 
z
" style="fill: #ffffff; stroke: #000000; stroke-linejoin: miter"/>
    </g>
    <g id="text_27">
     <!-- xception41 -->
     <g transform="translate(496.435673 136.403645) scale(0.1 -0.1)">
      <defs>
       <path id="Cmr10-78" d="M 78 0 
L 78 225 
Q 322 225 537 320 
Q 753 416 903 603 
L 1484 1344 
L 728 2328 
Q 616 2469 483 2501 
Q 350 2534 109 2534 
L 109 2759 
L 1441 2759 
L 1441 2534 
Q 1356 2534 1282 2496 
Q 1209 2459 1209 2388 
Q 1209 2363 1228 2328 
L 1741 1663 
L 2125 2156 
Q 2203 2250 2203 2344 
Q 2203 2422 2151 2478 
Q 2100 2534 2016 2534 
L 2016 2759 
L 3194 2759 
L 3194 2534 
Q 2947 2534 2730 2439 
Q 2513 2344 2363 2156 
L 1856 1509 
L 2675 428 
Q 2797 288 2928 256 
Q 3059 225 3303 225 
L 3303 0 
L 1972 0 
L 1972 225 
Q 2050 225 2122 262 
Q 2194 300 2194 372 
Q 2194 400 2175 428 
L 1600 1191 
L 1141 603 
Q 1069 522 1069 416 
Q 1069 338 1122 281 
Q 1175 225 1247 225 
L 1247 0 
L 78 0 
z
" transform="scale(0.015625)"/>
      </defs>
      <use xlink:href="#Cmr10-78"/>
      <use xlink:href="#Cmr10-63" x="52.685547"/>
      <use xlink:href="#Cmr10-65" x="97.070312"/>
      <use xlink:href="#Cmr10-70" x="141.455078"/>
      <use xlink:href="#Cmr10-74" x="196.972656"/>
      <use xlink:href="#Cmr10-69" x="235.791016"/>
      <use xlink:href="#Cmr10-6f" x="263.476562"/>
      <use xlink:href="#Cmr10-6e" x="313.476562"/>
      <use xlink:href="#Cmr10-34" x="368.994141"/>
      <use xlink:href="#Cmr10-31" x="418.994141"/>
     </g>
    </g>
    <g id="patch_18">
     <path d="M 559.123317 140.527311 
L 716.99976 140.527311 
L 716.99976 127.279978 
L 559.123317 127.279978 
z
" style="fill: #ffffff; stroke: #000000; stroke-linejoin: miter"/>
    </g>
    <g id="text_28">
     <!-- 0.93322 -->
     <g transform="translate(668.443366 136.403645) scale(0.1 -0.1)">
      <use xlink:href="#Cmr10-30"/>
      <use xlink:href="#Cmr10-2e" x="50"/>
      <use xlink:href="#Cmr10-39" x="77.685547"/>
      <use xlink:href="#Cmr10-33" x="127.685547"/>
      <use xlink:href="#Cmr10-33" x="177.685547"/>
      <use xlink:href="#Cmr10-32" x="227.685547"/>
      <use xlink:href="#Cmr10-32" x="277.685547"/>
     </g>
    </g>
   </g>
   <g id="text_29">
    <!-- B -->
    <g transform="translate(404.892885 32.845845) scale(0.12 -0.12)">
     <defs>
      <path id="Cmr10-42" d="M 219 0 
L 219 225 
Q 878 225 878 428 
L 878 3944 
Q 878 4147 219 4147 
L 219 4372 
L 2572 4372 
Q 2897 4372 3228 4245 
Q 3559 4119 3776 3870 
Q 3994 3622 3994 3284 
Q 3994 2894 3673 2630 
Q 3353 2366 2925 2284 
Q 3203 2284 3497 2131 
Q 3791 1978 3978 1722 
Q 4166 1466 4166 1178 
Q 4166 828 3958 559 
Q 3750 291 3419 145 
Q 3088 0 2753 0 
L 219 0 
z
M 1434 428 
Q 1434 291 1512 258 
Q 1591 225 1759 225 
L 2572 225 
Q 2822 225 3036 356 
Q 3250 488 3375 708 
Q 3500 928 3500 1178 
Q 3500 1422 3397 1655 
Q 3294 1888 3101 2038 
Q 2909 2188 2663 2188 
L 1434 2188 
L 1434 428 
z
M 1434 2356 
L 2394 2356 
Q 2588 2356 2758 2426 
Q 2928 2497 3064 2630 
Q 3200 2763 3273 2930 
Q 3347 3097 3347 3284 
Q 3347 3450 3292 3603 
Q 3238 3756 3131 3881 
Q 3025 4006 2881 4076 
Q 2738 4147 2572 4147 
L 1759 4147 
Q 1644 4147 1580 4137 
Q 1516 4128 1475 4083 
Q 1434 4038 1434 3944 
L 1434 2356 
z
" transform="scale(0.015625)"/>
     </defs>
     <use xlink:href="#Cmr10-42"/>
    </g>
   </g>
  </g>
  <g id="axes_3">
   <g id="patch_19">
    <path d="M 40.647115 400.24351 
L 356.4 400.24351 
L 356.4 233.327115 
L 40.647115 233.327115 
z
" style="fill: #ffffff"/>
   </g>
   <g id="matplotlib.axis_3">
    <g id="xtick_8">
     <g id="line2d_18">
      <g>
       <use xlink:href="#m0486c42ef1" x="54.999519" y="400.24351" style="stroke: #000000; stroke-width: 0.8"/>
      </g>
     </g>
     <g id="text_30">
      <!-- 0 -->
      <g transform="translate(52.499519 414.182572) scale(0.1 -0.1)">
       <use xlink:href="#Cmr10-30"/>
      </g>
     </g>
    </g>
    <g id="xtick_9">
     <g id="line2d_19">
      <g>
       <use xlink:href="#m0486c42ef1" x="100.322899" y="400.24351" style="stroke: #000000; stroke-width: 0.8"/>
      </g>
     </g>
     <g id="text_31">
      <!-- 3 -->
      <g transform="translate(97.822899 414.182572) scale(0.1 -0.1)">
       <use xlink:href="#Cmr10-33"/>
      </g>
     </g>
    </g>
    <g id="xtick_10">
     <g id="line2d_20">
      <g>
       <use xlink:href="#m0486c42ef1" x="145.64628" y="400.24351" style="stroke: #000000; stroke-width: 0.8"/>
      </g>
     </g>
     <g id="text_32">
      <!-- 6 -->
      <g transform="translate(143.14628 414.182572) scale(0.1 -0.1)">
       <use xlink:href="#Cmr10-36"/>
      </g>
     </g>
    </g>
    <g id="xtick_11">
     <g id="line2d_21">
      <g>
       <use xlink:href="#m0486c42ef1" x="190.969661" y="400.24351" style="stroke: #000000; stroke-width: 0.8"/>
      </g>
     </g>
     <g id="text_33">
      <!-- 9 -->
      <g transform="translate(188.469661 414.182572) scale(0.1 -0.1)">
       <use xlink:href="#Cmr10-39"/>
      </g>
     </g>
    </g>
    <g id="xtick_12">
     <g id="line2d_22">
      <g>
       <use xlink:href="#m0486c42ef1" x="236.293041" y="400.24351" style="stroke: #000000; stroke-width: 0.8"/>
      </g>
     </g>
     <g id="text_34">
      <!-- 12 -->
      <g transform="translate(231.293041 414.182572) scale(0.1 -0.1)">
       <use xlink:href="#Cmr10-31"/>
       <use xlink:href="#Cmr10-32" x="50"/>
      </g>
     </g>
    </g>
    <g id="xtick_13">
     <g id="line2d_23">
      <g>
       <use xlink:href="#m0486c42ef1" x="281.616422" y="400.24351" style="stroke: #000000; stroke-width: 0.8"/>
      </g>
     </g>
     <g id="text_35">
      <!-- 15 -->
      <g transform="translate(276.616422 414.182572) scale(0.1 -0.1)">
       <use xlink:href="#Cmr10-31"/>
       <use xlink:href="#Cmr10-35" x="50"/>
      </g>
     </g>
    </g>
    <g id="xtick_14">
     <g id="line2d_24">
      <g>
       <use xlink:href="#m0486c42ef1" x="326.939803" y="400.24351" style="stroke: #000000; stroke-width: 0.8"/>
      </g>
     </g>
     <g id="text_36">
      <!-- 18 -->
      <g transform="translate(321.939803 414.182572) scale(0.1 -0.1)">
       <use xlink:href="#Cmr10-31"/>
       <use xlink:href="#Cmr10-38" x="50"/>
      </g>
     </g>
    </g>
    <g id="text_37">
     <!-- Epoch -->
     <g transform="translate(184.851682 427.060698) scale(0.1 -0.1)">
      <use xlink:href="#Cmr10-45"/>
      <use xlink:href="#Cmr10-70" x="68.017578"/>
      <use xlink:href="#Cmr10-6f" x="123.535156"/>
      <use xlink:href="#Cmr10-63" x="173.535156"/>
      <use xlink:href="#Cmr10-68" x="217.919922"/>
     </g>
    </g>
   </g>
   <g id="matplotlib.axis_4">
    <g id="ytick_6">
     <g id="line2d_25">
      <g>
       <use xlink:href="#m2577e2478b" x="40.647115" y="383.257337" style="stroke: #000000; stroke-width: 0.8"/>
      </g>
     </g>
     <g id="text_38">
      <!-- 0.84 -->
      <g transform="translate(15.878365 386.726868) scale(0.1 -0.1)">
       <use xlink:href="#Cmr10-30"/>
       <use xlink:href="#Cmr10-2e" x="50"/>
       <use xlink:href="#Cmr10-38" x="77.685547"/>
       <use xlink:href="#Cmr10-34" x="127.685547"/>
      </g>
     </g>
    </g>
    <g id="ytick_7">
     <g id="line2d_26">
      <g>
       <use xlink:href="#m2577e2478b" x="40.647115" y="361.003614" style="stroke: #000000; stroke-width: 0.8"/>
      </g>
     </g>
     <g id="text_39">
      <!-- 0.86 -->
      <g transform="translate(15.878365 364.473145) scale(0.1 -0.1)">
       <use xlink:href="#Cmr10-30"/>
       <use xlink:href="#Cmr10-2e" x="50"/>
       <use xlink:href="#Cmr10-38" x="77.685547"/>
       <use xlink:href="#Cmr10-36" x="127.685547"/>
      </g>
     </g>
    </g>
    <g id="ytick_8">
     <g id="line2d_27">
      <g>
       <use xlink:href="#m2577e2478b" x="40.647115" y="338.749891" style="stroke: #000000; stroke-width: 0.8"/>
      </g>
     </g>
     <g id="text_40">
      <!-- 0.88 -->
      <g transform="translate(15.878365 342.219422) scale(0.1 -0.1)">
       <use xlink:href="#Cmr10-30"/>
       <use xlink:href="#Cmr10-2e" x="50"/>
       <use xlink:href="#Cmr10-38" x="77.685547"/>
       <use xlink:href="#Cmr10-38" x="127.685547"/>
      </g>
     </g>
    </g>
    <g id="ytick_9">
     <g id="line2d_28">
      <g>
       <use xlink:href="#m2577e2478b" x="40.647115" y="316.496167" style="stroke: #000000; stroke-width: 0.8"/>
      </g>
     </g>
     <g id="text_41">
      <!-- 0.90 -->
      <g transform="translate(15.878365 319.965699) scale(0.1 -0.1)">
       <use xlink:href="#Cmr10-30"/>
       <use xlink:href="#Cmr10-2e" x="50"/>
       <use xlink:href="#Cmr10-39" x="77.685547"/>
       <use xlink:href="#Cmr10-30" x="127.685547"/>
      </g>
     </g>
    </g>
    <g id="ytick_10">
     <g id="line2d_29">
      <g>
       <use xlink:href="#m2577e2478b" x="40.647115" y="294.242444" style="stroke: #000000; stroke-width: 0.8"/>
      </g>
     </g>
     <g id="text_42">
      <!-- 0.92 -->
      <g transform="translate(15.878365 297.711976) scale(0.1 -0.1)">
       <use xlink:href="#Cmr10-30"/>
       <use xlink:href="#Cmr10-2e" x="50"/>
       <use xlink:href="#Cmr10-39" x="77.685547"/>
       <use xlink:href="#Cmr10-32" x="127.685547"/>
      </g>
     </g>
    </g>
    <g id="ytick_11">
     <g id="line2d_30">
      <g>
       <use xlink:href="#m2577e2478b" x="40.647115" y="271.988721" style="stroke: #000000; stroke-width: 0.8"/>
      </g>
     </g>
     <g id="text_43">
      <!-- 0.94 -->
      <g transform="translate(15.878365 275.458252) scale(0.1 -0.1)">
       <use xlink:href="#Cmr10-30"/>
       <use xlink:href="#Cmr10-2e" x="50"/>
       <use xlink:href="#Cmr10-39" x="77.685547"/>
       <use xlink:href="#Cmr10-34" x="127.685547"/>
      </g>
     </g>
    </g>
    <g id="ytick_12">
     <g id="line2d_31">
      <g>
       <use xlink:href="#m2577e2478b" x="40.647115" y="249.734998" style="stroke: #000000; stroke-width: 0.8"/>
      </g>
     </g>
     <g id="text_44">
      <!-- 0.96 -->
      <g transform="translate(15.878365 253.204529) scale(0.1 -0.1)">
       <use xlink:href="#Cmr10-30"/>
       <use xlink:href="#Cmr10-2e" x="50"/>
       <use xlink:href="#Cmr10-39" x="77.685547"/>
       <use xlink:href="#Cmr10-36" x="127.685547"/>
      </g>
     </g>
    </g>
    <g id="text_45">
     <!-- Train IoU -->
     <g transform="translate(9.939302 338.730625) rotate(-90) scale(0.1 -0.1)">
      <defs>
       <path id="Cmr10-54" d="M 1081 0 
L 1081 225 
Q 1403 225 1706 261 
Q 2009 297 2009 428 
L 2009 3944 
Q 2009 4081 1932 4114 
Q 1856 4147 1684 4147 
L 1416 4147 
Q 888 4147 666 3916 
Q 550 3800 500 3545 
Q 450 3291 416 2906 
L 231 2906 
L 353 4372 
L 4263 4372 
L 4384 2906 
L 4197 2906 
Q 4159 3319 4114 3561 
Q 4069 3803 3950 3916 
Q 3725 4147 3200 4147 
L 2931 4147 
Q 2816 4147 2752 4137 
Q 2688 4128 2647 4083 
Q 2606 4038 2606 3944 
L 2606 428 
Q 2606 297 2909 261 
Q 3213 225 3531 225 
L 3531 0 
L 1081 0 
z
" transform="scale(0.015625)"/>
      </defs>
      <use xlink:href="#Cmr10-54"/>
      <use xlink:href="#Cmr10-72" x="72.216797"/>
      <use xlink:href="#Cmr10-61" x="111.328125"/>
      <use xlink:href="#Cmr10-69" x="161.328125"/>
      <use xlink:href="#Cmr10-6e" x="189.013672"/>
      <use xlink:href="#Cmr10-20" x="244.53125"/>
      <use xlink:href="#Cmr10-49" x="277.832031"/>
      <use xlink:href="#Cmr10-6f" x="313.916016"/>
      <use xlink:href="#Cmr10-55" x="363.916016"/>
     </g>
    </g>
   </g>
   <g id="line2d_32">
    <path d="M 54.999519 329.233512 
L 70.107312 283.189433 
L 85.215106 274.444135 
L 100.322899 269.02871 
L 115.430693 264.888841 
L 130.538487 260.910842 
L 145.64628 257.960989 
L 160.754074 255.372629 
L 175.861867 253.404017 
L 190.969661 251.27443 
L 206.077454 249.481809 
L 221.185248 247.897706 
L 236.293041 247.078652 
L 251.400835 245.886352 
L 266.508628 244.52636 
L 281.616422 243.499818 
L 296.724216 243.034975 
L 311.832009 241.368092 
L 326.939803 241.063626 
L 342.047596 240.914224 
" clip-path="url(#p904f00dedb)" style="fill: none; stroke: #e6194b; stroke-width: 1.5; stroke-linecap: square"/>
   </g>
   <g id="line2d_33">
    <path d="M 54.999519 356.682722 
L 70.107312 295.227324 
L 85.215106 285.688977 
L 100.322899 279.362515 
L 115.430693 274.781557 
L 130.538487 271.230713 
L 145.64628 267.586689 
L 160.754074 265.140981 
L 175.861867 262.42697 
L 190.969661 260.900215 
L 206.077454 259.001267 
L 221.185248 257.030415 
L 236.293041 255.560541 
L 251.400835 254.519566 
L 266.508628 253.343562 
L 281.616422 252.227072 
L 296.724216 250.874577 
L 311.832009 250.001853 
L 326.939803 249.444451 
L 342.047596 248.364381 
" clip-path="url(#p904f00dedb)" style="fill: none; stroke: #000075; stroke-width: 1.5; stroke-linecap: square"/>
   </g>
   <g id="line2d_34">
    <path d="M 54.999519 356.094844 
L 70.107312 300.277592 
L 85.215106 292.009608 
L 100.322899 285.674844 
L 115.430693 281.082321 
L 130.538487 277.613909 
L 145.64628 274.285984 
L 160.754074 271.853287 
L 175.861867 269.589212 
L 190.969661 268.285268 
L 206.077454 266.992074 
L 221.185248 265.503298 
L 236.293041 264.266987 
L 251.400835 263.402586 
L 266.508628 261.76142 
L 281.616422 261.470758 
L 296.724216 260.474385 
L 311.832009 259.902623 
L 326.939803 258.796206 
L 342.047596 258.311565 
" clip-path="url(#p904f00dedb)" style="fill: none; stroke: #3cb44b; stroke-width: 1.5; stroke-linecap: square"/>
   </g>
   <g id="line2d_35">
    <path d="M 54.999519 356.69229 
L 70.107312 300.429416 
L 85.215106 291.948276 
L 100.322899 286.973267 
L 115.430693 282.229147 
L 130.538487 279.600658 
L 145.64628 276.590493 
L 160.754074 273.501846 
L 175.861867 271.486904 
L 190.969661 269.909945 
L 206.077454 268.141104 
L 221.185248 266.976194 
L 236.293041 265.601846 
L 251.400835 264.620229 
L 266.508628 263.649539 
L 281.616422 263.006881 
L 296.724216 261.46364 
L 311.832009 260.585825 
L 326.939803 259.646505 
L 342.047596 259.110997 
" clip-path="url(#p904f00dedb)" style="fill: none; stroke: #4363d8; stroke-width: 1.5; stroke-linecap: square"/>
   </g>
   <g id="line2d_36">
    <path d="M 54.999519 392.656401 
L 70.107312 319.675703 
L 85.215106 307.208112 
L 100.322899 300.515464 
L 115.430693 293.517585 
L 130.538487 290.214801 
L 145.64628 286.554891 
L 160.754074 282.751788 
L 175.861867 279.666829 
L 190.969661 277.091586 
L 206.077454 275.006757 
L 221.185248 273.219943 
L 236.293041 271.68509 
L 251.400835 270.072712 
L 266.508628 268.428483 
L 281.616422 267.150226 
L 296.724216 266.406639 
L 311.832009 264.597746 
L 326.939803 263.253695 
L 342.047596 262.502146 
" clip-path="url(#p904f00dedb)" style="fill: none; stroke: #f58231; stroke-width: 1.5; stroke-linecap: square"/>
   </g>
   <g id="patch_20">
    <path d="M 40.647115 400.24351 
L 40.647115 233.327115 
" style="fill: none; stroke: #000000; stroke-width: 0.8; stroke-linejoin: miter; stroke-linecap: square"/>
   </g>
   <g id="patch_21">
    <path d="M 356.4 400.24351 
L 356.4 233.327115 
" style="fill: none; stroke: #000000; stroke-width: 0.8; stroke-linejoin: miter; stroke-linecap: square"/>
   </g>
   <g id="patch_22">
    <path d="M 40.647115 400.24351 
L 356.4 400.24351 
" style="fill: none; stroke: #000000; stroke-width: 0.8; stroke-linejoin: miter; stroke-linecap: square"/>
   </g>
   <g id="patch_23">
    <path d="M 40.647115 233.327115 
L 356.4 233.327115 
" style="fill: none; stroke: #000000; stroke-width: 0.8; stroke-linejoin: miter; stroke-linecap: square"/>
   </g>
   <g id="text_46">
    <!-- C -->
    <g transform="translate(44.207812 248.845845) scale(0.12 -0.12)">
     <defs>
      <path id="Cmr10-43" d="M 1459 684 
Q 1678 406 2006 245 
Q 2334 84 2688 84 
Q 2984 84 3237 201 
Q 3491 319 3680 528 
Q 3869 738 3970 1003 
Q 4072 1269 4072 1563 
Q 4072 1613 4128 1613 
L 4206 1613 
Q 4256 1613 4256 1550 
Q 4256 1216 4128 905 
Q 4000 594 3765 358 
Q 3531 122 3226 -9 
Q 2922 -141 2591 -141 
Q 2131 -141 1720 45 
Q 1309 231 1004 554 
Q 700 878 529 1303 
Q 359 1728 359 2188 
Q 359 2647 529 3072 
Q 700 3497 1004 3822 
Q 1309 4147 1720 4330 
Q 2131 4513 2591 4513 
Q 2919 4513 3219 4370 
Q 3519 4228 3744 3969 
L 4116 4494 
Q 4153 4513 4159 4513 
L 4206 4513 
Q 4225 4513 4240 4497 
Q 4256 4481 4256 4459 
L 4256 2731 
Q 4256 2675 4206 2675 
L 4091 2675 
Q 4031 2675 4031 2731 
Q 4031 2916 3957 3144 
Q 3884 3372 3770 3576 
Q 3656 3781 3506 3938 
Q 3147 4288 2681 4288 
Q 2328 4288 2004 4128 
Q 1681 3969 1459 3688 
Q 1225 3388 1134 3005 
Q 1044 2622 1044 2188 
Q 1044 1753 1134 1368 
Q 1225 984 1459 684 
z
" transform="scale(0.015625)"/>
     </defs>
     <use xlink:href="#Cmr10-43"/>
    </g>
   </g>
   <g id="text_47">
    <!-- Train IoU -->
    <g transform="translate(172.189182 227.327115) scale(0.12 -0.12)">
     <use xlink:href="#Cmr10-54"/>
     <use xlink:href="#Cmr10-72" x="72.216797"/>
     <use xlink:href="#Cmr10-61" x="111.328125"/>
     <use xlink:href="#Cmr10-69" x="161.328125"/>
     <use xlink:href="#Cmr10-6e" x="189.013672"/>
     <use xlink:href="#Cmr10-20" x="244.53125"/>
     <use xlink:href="#Cmr10-49" x="277.832031"/>
     <use xlink:href="#Cmr10-6f" x="313.916016"/>
     <use xlink:href="#Cmr10-55" x="363.916016"/>
    </g>
   </g>
   <g id="legend_1">
    <g id="patch_24">
     <path d="M 244.157812 395.24351 
L 349.4 395.24351 
Q 351.4 395.24351 351.4 393.24351 
L 351.4 324.548198 
Q 351.4 322.548198 349.4 322.548198 
L 244.157812 322.548198 
Q 242.157812 322.548198 242.157812 324.548198 
L 242.157812 393.24351 
Q 242.157812 395.24351 244.157812 395.24351 
z
" style="fill: #ffffff; opacity: 0.8; stroke: #cccccc; stroke-linejoin: miter"/>
    </g>
    <g id="line2d_37">
     <path d="M 246.157812 330.048198 
L 256.157812 330.048198 
L 266.157812 330.048198 
" style="fill: none; stroke: #e6194b; stroke-width: 1.5; stroke-linecap: square"/>
    </g>
    <g id="text_48">
     <!-- 1. resnet101 -->
     <g transform="translate(274.157812 333.548198) scale(0.1 -0.1)">
      <use xlink:href="#Cmr10-31"/>
      <use xlink:href="#Cmr10-2e" x="50"/>
      <use xlink:href="#Cmr10-20" x="77.685547"/>
      <use xlink:href="#Cmr10-72" x="110.986328"/>
      <use xlink:href="#Cmr10-65" x="150.097656"/>
      <use xlink:href="#Cmr10-73" x="194.482422"/>
      <use xlink:href="#Cmr10-6e" x="233.886719"/>
      <use xlink:href="#Cmr10-65" x="289.404297"/>
      <use xlink:href="#Cmr10-74" x="333.789062"/>
      <use xlink:href="#Cmr10-31" x="372.607422"/>
      <use xlink:href="#Cmr10-30" x="422.607422"/>
      <use xlink:href="#Cmr10-31" x="472.607422"/>
     </g>
    </g>
    <g id="line2d_38">
     <path d="M 246.157812 343.98726 
L 256.157812 343.98726 
L 266.157812 343.98726 
" style="fill: none; stroke: #000075; stroke-width: 1.5; stroke-linecap: square"/>
    </g>
    <g id="text_49">
     <!-- 2. resnet34 -->
     <g transform="translate(274.157812 347.48726) scale(0.1 -0.1)">
      <use xlink:href="#Cmr10-32"/>
      <use xlink:href="#Cmr10-2e" x="50"/>
      <use xlink:href="#Cmr10-20" x="77.685547"/>
      <use xlink:href="#Cmr10-72" x="110.986328"/>
      <use xlink:href="#Cmr10-65" x="150.097656"/>
      <use xlink:href="#Cmr10-73" x="194.482422"/>
      <use xlink:href="#Cmr10-6e" x="233.886719"/>
      <use xlink:href="#Cmr10-65" x="289.404297"/>
      <use xlink:href="#Cmr10-74" x="333.789062"/>
      <use xlink:href="#Cmr10-33" x="372.607422"/>
      <use xlink:href="#Cmr10-34" x="422.607422"/>
     </g>
    </g>
    <g id="line2d_39">
     <path d="M 246.157812 357.926322 
L 256.157812 357.926322 
L 266.157812 357.926322 
" style="fill: none; stroke: #3cb44b; stroke-width: 1.5; stroke-linecap: square"/>
    </g>
    <g id="text_50">
     <!-- 3. efficientnet-b2 -->
     <g transform="translate(274.157812 361.426322) scale(0.1 -0.1)">
      <use xlink:href="#Cmr10-33"/>
      <use xlink:href="#Cmr10-2e" x="50"/>
      <use xlink:href="#Cmr10-20" x="77.685547"/>
      <use xlink:href="#Cmr10-65" x="110.986328"/>
      <use xlink:href="#Cmr10-66" x="155.371094"/>
      <use xlink:href="#Cmr10-66" x="185.888672"/>
      <use xlink:href="#Cmr10-69" x="216.40625"/>
      <use xlink:href="#Cmr10-63" x="244.091797"/>
      <use xlink:href="#Cmr10-69" x="288.476562"/>
      <use xlink:href="#Cmr10-65" x="316.162109"/>
      <use xlink:href="#Cmr10-6e" x="360.546875"/>
      <use xlink:href="#Cmr10-74" x="416.064453"/>
      <use xlink:href="#Cmr10-6e" x="454.882812"/>
      <use xlink:href="#Cmr10-65" x="510.400391"/>
      <use xlink:href="#Cmr10-74" x="554.785156"/>
      <use xlink:href="#Cmr10-2d" x="593.603516"/>
      <use xlink:href="#Cmr10-62" x="626.904297"/>
      <use xlink:href="#Cmr10-32" x="682.421875"/>
     </g>
    </g>
    <g id="line2d_40">
     <path d="M 246.157812 371.865385 
L 256.157812 371.865385 
L 266.157812 371.865385 
" style="fill: none; stroke: #4363d8; stroke-width: 1.5; stroke-linecap: square"/>
    </g>
    <g id="text_51">
     <!-- 4. efficientnet-b1 -->
     <g transform="translate(274.157812 375.365385) scale(0.1 -0.1)">
      <use xlink:href="#Cmr10-34"/>
      <use xlink:href="#Cmr10-2e" x="50"/>
      <use xlink:href="#Cmr10-20" x="77.685547"/>
      <use xlink:href="#Cmr10-65" x="110.986328"/>
      <use xlink:href="#Cmr10-66" x="155.371094"/>
      <use xlink:href="#Cmr10-66" x="185.888672"/>
      <use xlink:href="#Cmr10-69" x="216.40625"/>
      <use xlink:href="#Cmr10-63" x="244.091797"/>
      <use xlink:href="#Cmr10-69" x="288.476562"/>
      <use xlink:href="#Cmr10-65" x="316.162109"/>
      <use xlink:href="#Cmr10-6e" x="360.546875"/>
      <use xlink:href="#Cmr10-74" x="416.064453"/>
      <use xlink:href="#Cmr10-6e" x="454.882812"/>
      <use xlink:href="#Cmr10-65" x="510.400391"/>
      <use xlink:href="#Cmr10-74" x="554.785156"/>
      <use xlink:href="#Cmr10-2d" x="593.603516"/>
      <use xlink:href="#Cmr10-62" x="626.904297"/>
      <use xlink:href="#Cmr10-31" x="682.421875"/>
     </g>
    </g>
    <g id="line2d_41">
     <path d="M 246.157812 385.804447 
L 256.157812 385.804447 
L 266.157812 385.804447 
" style="fill: none; stroke: #f58231; stroke-width: 1.5; stroke-linecap: square"/>
    </g>
    <g id="text_52">
     <!-- 5. xception41 -->
     <g transform="translate(274.157812 389.304447) scale(0.1 -0.1)">
      <use xlink:href="#Cmr10-35"/>
      <use xlink:href="#Cmr10-2e" x="50"/>
      <use xlink:href="#Cmr10-20" x="77.685547"/>
      <use xlink:href="#Cmr10-78" x="110.986328"/>
      <use xlink:href="#Cmr10-63" x="163.671875"/>
      <use xlink:href="#Cmr10-65" x="208.056641"/>
      <use xlink:href="#Cmr10-70" x="252.441406"/>
      <use xlink:href="#Cmr10-74" x="307.958984"/>
      <use xlink:href="#Cmr10-69" x="346.777344"/>
      <use xlink:href="#Cmr10-6f" x="374.462891"/>
      <use xlink:href="#Cmr10-6e" x="424.462891"/>
      <use xlink:href="#Cmr10-34" x="479.980469"/>
      <use xlink:href="#Cmr10-31" x="529.980469"/>
     </g>
    </g>
   </g>
  </g>
  <g id="axes_4">
   <g id="patch_25">
    <path d="M 401.246875 400.24351 
L 716.99976 400.24351 
L 716.99976 233.327115 
L 401.246875 233.327115 
z
" style="fill: #ffffff"/>
   </g>
   <g id="matplotlib.axis_5">
    <g id="xtick_15">
     <g id="line2d_42">
      <g>
       <use xlink:href="#m0486c42ef1" x="415.599279" y="400.24351" style="stroke: #000000; stroke-width: 0.8"/>
      </g>
     </g>
     <g id="text_53">
      <!-- 0 -->
      <g transform="translate(413.099279 414.182572) scale(0.1 -0.1)">
       <use xlink:href="#Cmr10-30"/>
      </g>
     </g>
    </g>
    <g id="xtick_16">
     <g id="line2d_43">
      <g>
       <use xlink:href="#m0486c42ef1" x="460.922659" y="400.24351" style="stroke: #000000; stroke-width: 0.8"/>
      </g>
     </g>
     <g id="text_54">
      <!-- 3 -->
      <g transform="translate(458.422659 414.182572) scale(0.1 -0.1)">
       <use xlink:href="#Cmr10-33"/>
      </g>
     </g>
    </g>
    <g id="xtick_17">
     <g id="line2d_44">
      <g>
       <use xlink:href="#m0486c42ef1" x="506.24604" y="400.24351" style="stroke: #000000; stroke-width: 0.8"/>
      </g>
     </g>
     <g id="text_55">
      <!-- 6 -->
      <g transform="translate(503.74604 414.182572) scale(0.1 -0.1)">
       <use xlink:href="#Cmr10-36"/>
      </g>
     </g>
    </g>
    <g id="xtick_18">
     <g id="line2d_45">
      <g>
       <use xlink:href="#m0486c42ef1" x="551.569421" y="400.24351" style="stroke: #000000; stroke-width: 0.8"/>
      </g>
     </g>
     <g id="text_56">
      <!-- 9 -->
      <g transform="translate(549.069421 414.182572) scale(0.1 -0.1)">
       <use xlink:href="#Cmr10-39"/>
      </g>
     </g>
    </g>
    <g id="xtick_19">
     <g id="line2d_46">
      <g>
       <use xlink:href="#m0486c42ef1" x="596.892801" y="400.24351" style="stroke: #000000; stroke-width: 0.8"/>
      </g>
     </g>
     <g id="text_57">
      <!-- 12 -->
      <g transform="translate(591.892801 414.182572) scale(0.1 -0.1)">
       <use xlink:href="#Cmr10-31"/>
       <use xlink:href="#Cmr10-32" x="50"/>
      </g>
     </g>
    </g>
    <g id="xtick_20">
     <g id="line2d_47">
      <g>
       <use xlink:href="#m0486c42ef1" x="642.216182" y="400.24351" style="stroke: #000000; stroke-width: 0.8"/>
      </g>
     </g>
     <g id="text_58">
      <!-- 15 -->
      <g transform="translate(637.216182 414.182572) scale(0.1 -0.1)">
       <use xlink:href="#Cmr10-31"/>
       <use xlink:href="#Cmr10-35" x="50"/>
      </g>
     </g>
    </g>
    <g id="xtick_21">
     <g id="line2d_48">
      <g>
       <use xlink:href="#m0486c42ef1" x="687.539563" y="400.24351" style="stroke: #000000; stroke-width: 0.8"/>
      </g>
     </g>
     <g id="text_59">
      <!-- 18 -->
      <g transform="translate(682.539563 414.182572) scale(0.1 -0.1)">
       <use xlink:href="#Cmr10-31"/>
       <use xlink:href="#Cmr10-38" x="50"/>
      </g>
     </g>
    </g>
    <g id="text_60">
     <!-- Epoch -->
     <g transform="translate(545.451442 427.060698) scale(0.1 -0.1)">
      <use xlink:href="#Cmr10-45"/>
      <use xlink:href="#Cmr10-70" x="68.017578"/>
      <use xlink:href="#Cmr10-6f" x="123.535156"/>
      <use xlink:href="#Cmr10-63" x="173.535156"/>
      <use xlink:href="#Cmr10-68" x="217.919922"/>
     </g>
    </g>
   </g>
   <g id="matplotlib.axis_6">
    <g id="ytick_13">
     <g id="line2d_49">
      <g>
       <use xlink:href="#m2577e2478b" x="401.246875" y="397.969201" style="stroke: #000000; stroke-width: 0.8"/>
      </g>
     </g>
     <g id="text_61">
      <!-- 0.88 -->
      <g transform="translate(376.478125 401.438732) scale(0.1 -0.1)">
       <use xlink:href="#Cmr10-30"/>
       <use xlink:href="#Cmr10-2e" x="50"/>
       <use xlink:href="#Cmr10-38" x="77.685547"/>
       <use xlink:href="#Cmr10-38" x="127.685547"/>
      </g>
     </g>
    </g>
    <g id="ytick_14">
     <g id="line2d_50">
      <g>
       <use xlink:href="#m2577e2478b" x="401.246875" y="376.830298" style="stroke: #000000; stroke-width: 0.8"/>
      </g>
     </g>
     <g id="text_62">
      <!-- 0.89 -->
      <g transform="translate(376.478125 380.29983) scale(0.1 -0.1)">
       <use xlink:href="#Cmr10-30"/>
       <use xlink:href="#Cmr10-2e" x="50"/>
       <use xlink:href="#Cmr10-38" x="77.685547"/>
       <use xlink:href="#Cmr10-39" x="127.685547"/>
      </g>
     </g>
    </g>
    <g id="ytick_15">
     <g id="line2d_51">
      <g>
       <use xlink:href="#m2577e2478b" x="401.246875" y="355.691396" style="stroke: #000000; stroke-width: 0.8"/>
      </g>
     </g>
     <g id="text_63">
      <!-- 0.90 -->
      <g transform="translate(376.478125 359.160927) scale(0.1 -0.1)">
       <use xlink:href="#Cmr10-30"/>
       <use xlink:href="#Cmr10-2e" x="50"/>
       <use xlink:href="#Cmr10-39" x="77.685547"/>
       <use xlink:href="#Cmr10-30" x="127.685547"/>
      </g>
     </g>
    </g>
    <g id="ytick_16">
     <g id="line2d_52">
      <g>
       <use xlink:href="#m2577e2478b" x="401.246875" y="334.552494" style="stroke: #000000; stroke-width: 0.8"/>
      </g>
     </g>
     <g id="text_64">
      <!-- 0.91 -->
      <g transform="translate(376.478125 338.022025) scale(0.1 -0.1)">
       <use xlink:href="#Cmr10-30"/>
       <use xlink:href="#Cmr10-2e" x="50"/>
       <use xlink:href="#Cmr10-39" x="77.685547"/>
       <use xlink:href="#Cmr10-31" x="127.685547"/>
      </g>
     </g>
    </g>
    <g id="ytick_17">
     <g id="line2d_53">
      <g>
       <use xlink:href="#m2577e2478b" x="401.246875" y="313.413591" style="stroke: #000000; stroke-width: 0.8"/>
      </g>
     </g>
     <g id="text_65">
      <!-- 0.92 -->
      <g transform="translate(376.478125 316.883122) scale(0.1 -0.1)">
       <use xlink:href="#Cmr10-30"/>
       <use xlink:href="#Cmr10-2e" x="50"/>
       <use xlink:href="#Cmr10-39" x="77.685547"/>
       <use xlink:href="#Cmr10-32" x="127.685547"/>
      </g>
     </g>
    </g>
    <g id="ytick_18">
     <g id="line2d_54">
      <g>
       <use xlink:href="#m2577e2478b" x="401.246875" y="292.274689" style="stroke: #000000; stroke-width: 0.8"/>
      </g>
     </g>
     <g id="text_66">
      <!-- 0.93 -->
      <g transform="translate(376.478125 295.74422) scale(0.1 -0.1)">
       <use xlink:href="#Cmr10-30"/>
       <use xlink:href="#Cmr10-2e" x="50"/>
       <use xlink:href="#Cmr10-39" x="77.685547"/>
       <use xlink:href="#Cmr10-33" x="127.685547"/>
      </g>
     </g>
    </g>
    <g id="ytick_19">
     <g id="line2d_55">
      <g>
       <use xlink:href="#m2577e2478b" x="401.246875" y="271.135786" style="stroke: #000000; stroke-width: 0.8"/>
      </g>
     </g>
     <g id="text_67">
      <!-- 0.94 -->
      <g transform="translate(376.478125 274.605317) scale(0.1 -0.1)">
       <use xlink:href="#Cmr10-30"/>
       <use xlink:href="#Cmr10-2e" x="50"/>
       <use xlink:href="#Cmr10-39" x="77.685547"/>
       <use xlink:href="#Cmr10-34" x="127.685547"/>
      </g>
     </g>
    </g>
    <g id="ytick_20">
     <g id="line2d_56">
      <g>
       <use xlink:href="#m2577e2478b" x="401.246875" y="249.996884" style="stroke: #000000; stroke-width: 0.8"/>
      </g>
     </g>
     <g id="text_68">
      <!-- 0.95 -->
      <g transform="translate(376.478125 253.466415) scale(0.1 -0.1)">
       <use xlink:href="#Cmr10-30"/>
       <use xlink:href="#Cmr10-2e" x="50"/>
       <use xlink:href="#Cmr10-39" x="77.685547"/>
       <use xlink:href="#Cmr10-35" x="127.685547"/>
      </g>
     </g>
    </g>
    <g id="text_69">
     <!-- Val IoU -->
     <g transform="translate(370.539062 334.138438) rotate(-90) scale(0.1 -0.1)">
      <use xlink:href="#Cmr10-56"/>
      <use xlink:href="#Cmr10-61" x="75"/>
      <use xlink:href="#Cmr10-6c" x="125"/>
      <use xlink:href="#Cmr10-20" x="152.685547"/>
      <use xlink:href="#Cmr10-49" x="185.986328"/>
      <use xlink:href="#Cmr10-6f" x="222.070312"/>
      <use xlink:href="#Cmr10-55" x="272.070312"/>
     </g>
    </g>
   </g>
   <g id="line2d_57">
    <path d="M 415.599279 307.183264 
L 430.707072 283.2578 
L 445.814866 276.444758 
L 460.922659 271.822788 
L 476.030453 264.77295 
L 491.138247 262.348943 
L 506.24604 257.70385 
L 521.353834 257.912653 
L 536.461627 252.303261 
L 551.569421 249.569648 
L 566.677214 247.941657 
L 581.785008 255.021033 
L 596.892801 247.452964 
L 612.000595 247.651246 
L 627.108388 245.55419 
L 642.216182 247.361643 
L 657.323976 241.880259 
L 672.431769 242.177704 
L 687.539563 240.914224 
L 702.647356 243.217105 
" clip-path="url(#pa8e4db2636)" style="fill: none; stroke: #e6194b; stroke-width: 1.5; stroke-linecap: square"/>
   </g>
   <g id="line2d_58">
    <path d="M 415.599279 326.330344 
L 430.707072 305.569322 
L 445.814866 294.470165 
L 460.922659 284.285925 
L 476.030453 277.874117 
L 491.138247 273.025252 
L 506.24604 271.113296 
L 521.353834 266.535745 
L 536.461627 265.107918 
L 551.569421 263.191584 
L 566.677214 260.107188 
L 581.785008 257.723569 
L 596.892801 256.686441 
L 612.000595 255.321556 
L 627.108388 252.97295 
L 642.216182 253.517998 
L 657.323976 251.96168 
L 672.431769 251.991879 
L 687.539563 250.711716 
L 702.647356 249.660379 
" clip-path="url(#pa8e4db2636)" style="fill: none; stroke: #3cb44b; stroke-width: 1.5; stroke-linecap: square"/>
   </g>
   <g id="line2d_59">
    <path d="M 415.599279 321.625673 
L 430.707072 302.460611 
L 445.814866 291.788444 
L 460.922659 283.924413 
L 476.030453 277.674395 
L 491.138247 274.186499 
L 506.24604 269.998087 
L 521.353834 266.787084 
L 536.461627 265.281266 
L 551.569421 262.718181 
L 566.677214 260.615905 
L 581.785008 259.478396 
L 596.892801 260.33983 
L 612.000595 257.349674 
L 627.108388 253.802032 
L 642.216182 253.419935 
L 657.323976 254.259396 
L 672.431769 251.378447 
L 687.539563 250.628017 
L 702.647356 250.389879 
" clip-path="url(#pa8e4db2636)" style="fill: none; stroke: #4363d8; stroke-width: 1.5; stroke-linecap: square"/>
   </g>
   <g id="line2d_60">
    <path d="M 415.599279 329.926633 
L 430.707072 307.549112 
L 445.814866 296.094663 
L 460.922659 289.679779 
L 476.030453 280.81152 
L 491.138247 278.945661 
L 506.24604 270.318392 
L 521.353834 267.726193 
L 536.461627 268.506036 
L 551.569421 265.927351 
L 566.677214 262.22417 
L 581.785008 258.844115 
L 596.892801 258.571755 
L 612.000595 257.008767 
L 627.108388 255.243907 
L 642.216182 257.407758 
L 657.323976 254.615488 
L 672.431769 257.121571 
L 687.539563 252.980085 
L 702.647356 251.171509 
" clip-path="url(#pa8e4db2636)" style="fill: none; stroke: #000075; stroke-width: 1.5; stroke-linecap: square"/>
   </g>
   <g id="line2d_61">
    <path d="M 415.599279 392.656401 
L 430.707072 352.428041 
L 445.814866 335.943187 
L 460.922659 326.270707 
L 476.030453 320.959176 
L 491.138247 317.86409 
L 506.24604 311.005159 
L 521.353834 310.219846 
L 536.461627 304.294997 
L 551.569421 302.680197 
L 566.677214 295.619068 
L 581.785008 294.75107 
L 596.892801 296.57685 
L 612.000595 294.12711 
L 627.108388 291.467371 
L 642.216182 289.001654 
L 657.323976 293.067763 
L 672.431769 288.377291 
L 687.539563 286.894099 
L 702.647356 285.470457 
" clip-path="url(#pa8e4db2636)" style="fill: none; stroke: #f58231; stroke-width: 1.5; stroke-linecap: square"/>
   </g>
   <g id="patch_26">
    <path d="M 401.246875 400.24351 
L 401.246875 233.327115 
" style="fill: none; stroke: #000000; stroke-width: 0.8; stroke-linejoin: miter; stroke-linecap: square"/>
   </g>
   <g id="patch_27">
    <path d="M 716.99976 400.24351 
L 716.99976 233.327115 
" style="fill: none; stroke: #000000; stroke-width: 0.8; stroke-linejoin: miter; stroke-linecap: square"/>
   </g>
   <g id="patch_28">
    <path d="M 401.246875 400.24351 
L 716.99976 400.24351 
" style="fill: none; stroke: #000000; stroke-width: 0.8; stroke-linejoin: miter; stroke-linecap: square"/>
   </g>
   <g id="patch_29">
    <path d="M 401.246875 233.327115 
L 716.99976 233.327115 
" style="fill: none; stroke: #000000; stroke-width: 0.8; stroke-linejoin: miter; stroke-linecap: square"/>
   </g>
   <g id="text_70">
    <!-- D -->
    <g transform="translate(404.561947 248.845845) scale(0.12 -0.12)">
     <defs>
      <path id="Cmr10-44" d="M 213 0 
L 213 225 
Q 872 225 872 428 
L 872 3944 
Q 872 4147 213 4147 
L 213 4372 
L 2572 4372 
Q 3009 4372 3371 4183 
Q 3734 3994 3990 3678 
Q 4247 3363 4386 2963 
Q 4525 2563 4525 2144 
Q 4525 1738 4384 1355 
Q 4244 972 3980 664 
Q 3716 356 3355 178 
Q 2994 0 2572 0 
L 213 0 
z
M 1447 428 
Q 1447 291 1525 258 
Q 1603 225 1772 225 
L 2406 225 
Q 2734 225 3029 367 
Q 3325 509 3519 763 
Q 3722 1031 3790 1364 
Q 3859 1697 3859 2144 
Q 3859 2609 3790 2959 
Q 3722 3309 3519 3584 
Q 3328 3856 3034 4001 
Q 2741 4147 2406 4147 
L 1772 4147 
Q 1656 4147 1592 4137 
Q 1528 4128 1487 4083 
Q 1447 4038 1447 3944 
L 1447 428 
z
" transform="scale(0.015625)"/>
     </defs>
     <use xlink:href="#Cmr10-44"/>
    </g>
   </g>
   <g id="text_71">
    <!-- Val IoU -->
    <g transform="translate(538.299567 227.327115) scale(0.12 -0.12)">
     <use xlink:href="#Cmr10-56"/>
     <use xlink:href="#Cmr10-61" x="75"/>
     <use xlink:href="#Cmr10-6c" x="125"/>
     <use xlink:href="#Cmr10-20" x="152.685547"/>
     <use xlink:href="#Cmr10-49" x="185.986328"/>
     <use xlink:href="#Cmr10-6f" x="222.070312"/>
     <use xlink:href="#Cmr10-55" x="272.070312"/>
    </g>
   </g>
   <g id="legend_2">
    <g id="patch_30">
     <path d="M 604.757572 395.24351 
L 709.99976 395.24351 
Q 711.99976 395.24351 711.99976 393.24351 
L 711.99976 324.548198 
Q 711.99976 322.548198 709.99976 322.548198 
L 604.757572 322.548198 
Q 602.757572 322.548198 602.757572 324.548198 
L 602.757572 393.24351 
Q 602.757572 395.24351 604.757572 395.24351 
z
" style="fill: #ffffff; opacity: 0.8; stroke: #cccccc; stroke-linejoin: miter"/>
    </g>
    <g id="line2d_62">
     <path d="M 606.757572 330.048198 
L 616.757572 330.048198 
L 626.757572 330.048198 
" style="fill: none; stroke: #e6194b; stroke-width: 1.5; stroke-linecap: square"/>
    </g>
    <g id="text_72">
     <!-- 1. resnet101 -->
     <g transform="translate(634.757572 333.548198) scale(0.1 -0.1)">
      <use xlink:href="#Cmr10-31"/>
      <use xlink:href="#Cmr10-2e" x="50"/>
      <use xlink:href="#Cmr10-20" x="77.685547"/>
      <use xlink:href="#Cmr10-72" x="110.986328"/>
      <use xlink:href="#Cmr10-65" x="150.097656"/>
      <use xlink:href="#Cmr10-73" x="194.482422"/>
      <use xlink:href="#Cmr10-6e" x="233.886719"/>
      <use xlink:href="#Cmr10-65" x="289.404297"/>
      <use xlink:href="#Cmr10-74" x="333.789062"/>
      <use xlink:href="#Cmr10-31" x="372.607422"/>
      <use xlink:href="#Cmr10-30" x="422.607422"/>
      <use xlink:href="#Cmr10-31" x="472.607422"/>
     </g>
    </g>
    <g id="line2d_63">
     <path d="M 606.757572 343.98726 
L 616.757572 343.98726 
L 626.757572 343.98726 
" style="fill: none; stroke: #3cb44b; stroke-width: 1.5; stroke-linecap: square"/>
    </g>
    <g id="text_73">
     <!-- 2. efficientnet-b2 -->
     <g transform="translate(634.757572 347.48726) scale(0.1 -0.1)">
      <use xlink:href="#Cmr10-32"/>
      <use xlink:href="#Cmr10-2e" x="50"/>
      <use xlink:href="#Cmr10-20" x="77.685547"/>
      <use xlink:href="#Cmr10-65" x="110.986328"/>
      <use xlink:href="#Cmr10-66" x="155.371094"/>
      <use xlink:href="#Cmr10-66" x="185.888672"/>
      <use xlink:href="#Cmr10-69" x="216.40625"/>
      <use xlink:href="#Cmr10-63" x="244.091797"/>
      <use xlink:href="#Cmr10-69" x="288.476562"/>
      <use xlink:href="#Cmr10-65" x="316.162109"/>
      <use xlink:href="#Cmr10-6e" x="360.546875"/>
      <use xlink:href="#Cmr10-74" x="416.064453"/>
      <use xlink:href="#Cmr10-6e" x="454.882812"/>
      <use xlink:href="#Cmr10-65" x="510.400391"/>
      <use xlink:href="#Cmr10-74" x="554.785156"/>
      <use xlink:href="#Cmr10-2d" x="593.603516"/>
      <use xlink:href="#Cmr10-62" x="626.904297"/>
      <use xlink:href="#Cmr10-32" x="682.421875"/>
     </g>
    </g>
    <g id="line2d_64">
     <path d="M 606.757572 357.926322 
L 616.757572 357.926322 
L 626.757572 357.926322 
" style="fill: none; stroke: #4363d8; stroke-width: 1.5; stroke-linecap: square"/>
    </g>
    <g id="text_74">
     <!-- 3. efficientnet-b1 -->
     <g transform="translate(634.757572 361.426322) scale(0.1 -0.1)">
      <use xlink:href="#Cmr10-33"/>
      <use xlink:href="#Cmr10-2e" x="50"/>
      <use xlink:href="#Cmr10-20" x="77.685547"/>
      <use xlink:href="#Cmr10-65" x="110.986328"/>
      <use xlink:href="#Cmr10-66" x="155.371094"/>
      <use xlink:href="#Cmr10-66" x="185.888672"/>
      <use xlink:href="#Cmr10-69" x="216.40625"/>
      <use xlink:href="#Cmr10-63" x="244.091797"/>
      <use xlink:href="#Cmr10-69" x="288.476562"/>
      <use xlink:href="#Cmr10-65" x="316.162109"/>
      <use xlink:href="#Cmr10-6e" x="360.546875"/>
      <use xlink:href="#Cmr10-74" x="416.064453"/>
      <use xlink:href="#Cmr10-6e" x="454.882812"/>
      <use xlink:href="#Cmr10-65" x="510.400391"/>
      <use xlink:href="#Cmr10-74" x="554.785156"/>
      <use xlink:href="#Cmr10-2d" x="593.603516"/>
      <use xlink:href="#Cmr10-62" x="626.904297"/>
      <use xlink:href="#Cmr10-31" x="682.421875"/>
     </g>
    </g>
    <g id="line2d_65">
     <path d="M 606.757572 371.865385 
L 616.757572 371.865385 
L 626.757572 371.865385 
" style="fill: none; stroke: #000075; stroke-width: 1.5; stroke-linecap: square"/>
    </g>
    <g id="text_75">
     <!-- 4. resnet34 -->
     <g transform="translate(634.757572 375.365385) scale(0.1 -0.1)">
      <use xlink:href="#Cmr10-34"/>
      <use xlink:href="#Cmr10-2e" x="50"/>
      <use xlink:href="#Cmr10-20" x="77.685547"/>
      <use xlink:href="#Cmr10-72" x="110.986328"/>
      <use xlink:href="#Cmr10-65" x="150.097656"/>
      <use xlink:href="#Cmr10-73" x="194.482422"/>
      <use xlink:href="#Cmr10-6e" x="233.886719"/>
      <use xlink:href="#Cmr10-65" x="289.404297"/>
      <use xlink:href="#Cmr10-74" x="333.789062"/>
      <use xlink:href="#Cmr10-33" x="372.607422"/>
      <use xlink:href="#Cmr10-34" x="422.607422"/>
     </g>
    </g>
    <g id="line2d_66">
     <path d="M 606.757572 385.804447 
L 616.757572 385.804447 
L 626.757572 385.804447 
" style="fill: none; stroke: #f58231; stroke-width: 1.5; stroke-linecap: square"/>
    </g>
    <g id="text_76">
     <!-- 5. xception41 -->
     <g transform="translate(634.757572 389.304447) scale(0.1 -0.1)">
      <use xlink:href="#Cmr10-35"/>
      <use xlink:href="#Cmr10-2e" x="50"/>
      <use xlink:href="#Cmr10-20" x="77.685547"/>
      <use xlink:href="#Cmr10-78" x="110.986328"/>
      <use xlink:href="#Cmr10-63" x="163.671875"/>
      <use xlink:href="#Cmr10-65" x="208.056641"/>
      <use xlink:href="#Cmr10-70" x="252.441406"/>
      <use xlink:href="#Cmr10-74" x="307.958984"/>
      <use xlink:href="#Cmr10-69" x="346.777344"/>
      <use xlink:href="#Cmr10-6f" x="374.462891"/>
      <use xlink:href="#Cmr10-6e" x="424.462891"/>
      <use xlink:href="#Cmr10-34" x="479.980469"/>
      <use xlink:href="#Cmr10-31" x="529.980469"/>
     </g>
    </g>
   </g>
  </g>
 </g>
 <defs>
  <clipPath id="p059ee5b477">
   <rect x="40.647115" y="17.327115" width="315.752885" height="166.916395"/>
  </clipPath>
  <clipPath id="p904f00dedb">
   <rect x="40.647115" y="233.327115" width="315.752885" height="166.916395"/>
  </clipPath>
  <clipPath id="pa8e4db2636">
   <rect x="401.246875" y="233.327115" width="315.752885" height="166.916395"/>
  </clipPath>
 </defs>
</svg>
