<?xml version="1.0" encoding="utf-8" standalone="no"?>
<!DOCTYPE svg PUBLIC "-//W3C//DTD SVG 1.1//EN"
  "http://www.w3.org/Graphics/SVG/1.1/DTD/svg11.dtd">
<svg xmlns:xlink="http://www.w3.org/1999/xlink" width="1008pt" height="720pt" viewBox="0 0 1008 720" xmlns="http://www.w3.org/2000/svg" version="1.1">
 <metadata>
  <rdf:RDF xmlns:dc="http://purl.org/dc/elements/1.1/" xmlns:cc="http://creativecommons.org/ns#" xmlns:rdf="http://www.w3.org/1999/02/22-rdf-syntax-ns#">
   <cc:Work>
    <dc:type rdf:resource="http://purl.org/dc/dcmitype/StillImage"/>
    <dc:date>2024-07-26T14:25:45.970551</dc:date>
    <dc:format>image/svg+xml</dc:format>
    <dc:creator>
     <cc:Agent>
      <dc:title>Matplotlib v3.8.0, https://matplotlib.org/</dc:title>
     </cc:Agent>
    </dc:creator>
   </cc:Work>
  </rdf:RDF>
 </metadata>
 <defs>
  <style type="text/css">*{stroke-linejoin: round; stroke-linecap: butt}</style>
 </defs>
 <g id="figure_1">
  <g id="patch_1">
   <path d="M 0 720 
L 1008 720 
L 1008 0 
L 0 0 
z
" style="fill: #ffffff"/>
  </g>
  <g id="axes_1">
   <g id="patch_2">
    <path d="M 126.66125 292.14843 
L 979.92 292.14843 
L 979.92 34.560609 
L 126.66125 34.560609 
z
" style="fill: #ffffff"/>
   </g>
   <g id="patch_3">
    <path d="M 165.445739 292.14843 
L 180.959534 292.14843 
L 180.959534 285.497655 
L 165.445739 285.497655 
z
" clip-path="url(#p76e4a1a8bb)" style="fill: #1f77b4; stroke: #ffffff; stroke-width: 0.5; stroke-linejoin: miter"/>
   </g>
   <g id="patch_4">
    <path d="M 180.959534 292.14843 
L 196.47333 292.14843 
L 196.47333 281.942637 
L 180.959534 281.942637 
z
" clip-path="url(#p76e4a1a8bb)" style="fill: #1f77b4; stroke: #ffffff; stroke-width: 0.5; stroke-linejoin: miter"/>
   </g>
   <g id="patch_5">
    <path d="M 196.47333 292.14843 
L 211.987125 292.14843 
L 211.987125 275.359901 
L 196.47333 275.359901 
z
" clip-path="url(#p76e4a1a8bb)" style="fill: #1f77b4; stroke: #ffffff; stroke-width: 0.5; stroke-linejoin: miter"/>
   </g>
   <g id="patch_6">
    <path d="M 211.987125 292.14843 
L 227.50092 292.14843 
L 227.50092 262.798272 
L 211.987125 262.798272 
z
" clip-path="url(#p76e4a1a8bb)" style="fill: #1f77b4; stroke: #ffffff; stroke-width: 0.5; stroke-linejoin: miter"/>
   </g>
   <g id="patch_7">
    <path d="M 227.50092 292.14843 
L 243.014716 292.14843 
L 243.014716 241.068439 
L 227.50092 241.068439 
z
" clip-path="url(#p76e4a1a8bb)" style="fill: #1f77b4; stroke: #ffffff; stroke-width: 0.5; stroke-linejoin: miter"/>
   </g>
   <g id="patch_8">
    <path d="M 243.014716 292.14843 
L 258.528511 292.14843 
L 258.528511 206.674919 
L 243.014716 206.674919 
z
" clip-path="url(#p76e4a1a8bb)" style="fill: #1f77b4; stroke: #ffffff; stroke-width: 0.5; stroke-linejoin: miter"/>
   </g>
   <g id="patch_9">
    <path d="M 258.528511 292.14843 
L 274.042307 292.14843 
L 274.042307 164.924723 
L 258.528511 164.924723 
z
" clip-path="url(#p76e4a1a8bb)" style="fill: #1f77b4; stroke: #ffffff; stroke-width: 0.5; stroke-linejoin: miter"/>
   </g>
   <g id="patch_10">
    <path d="M 274.042307 292.14843 
L 289.556102 292.14843 
L 289.556102 111.140198 
L 274.042307 111.140198 
z
" clip-path="url(#p76e4a1a8bb)" style="fill: #1f77b4; stroke: #ffffff; stroke-width: 0.5; stroke-linejoin: miter"/>
   </g>
   <g id="patch_11">
    <path d="M 289.556102 292.14843 
L 305.069898 292.14843 
L 305.069898 69.602623 
L 289.556102 69.602623 
z
" clip-path="url(#p76e4a1a8bb)" style="fill: #1f77b4; stroke: #ffffff; stroke-width: 0.5; stroke-linejoin: miter"/>
   </g>
   <g id="patch_12">
    <path d="M 305.069898 292.14843 
L 320.583693 292.14843 
L 320.583693 51.53837 
L 305.069898 51.53837 
z
" clip-path="url(#p76e4a1a8bb)" style="fill: #1f77b4; stroke: #ffffff; stroke-width: 0.5; stroke-linejoin: miter"/>
   </g>
   <g id="patch_13">
    <path d="M 320.583693 292.14843 
L 336.097489 292.14843 
L 336.097489 46.826696 
L 320.583693 46.826696 
z
" clip-path="url(#p76e4a1a8bb)" style="fill: #1f77b4; stroke: #ffffff; stroke-width: 0.5; stroke-linejoin: miter"/>
   </g>
   <g id="patch_14">
    <path d="M 336.097489 292.14843 
L 351.611284 292.14843 
L 351.611284 53.613548 
L 336.097489 53.613548 
z
" clip-path="url(#p76e4a1a8bb)" style="fill: #1f77b4; stroke: #ffffff; stroke-width: 0.5; stroke-linejoin: miter"/>
   </g>
   <g id="patch_15">
    <path d="M 351.611284 292.14843 
L 367.12508 292.14843 
L 367.12508 65.426753 
L 351.611284 65.426753 
z
" clip-path="url(#p76e4a1a8bb)" style="fill: #1f77b4; stroke: #ffffff; stroke-width: 0.5; stroke-linejoin: miter"/>
   </g>
   <g id="patch_16">
    <path d="M 367.12508 292.14843 
L 382.638875 292.14843 
L 382.638875 87.343692 
L 367.12508 87.343692 
z
" clip-path="url(#p76e4a1a8bb)" style="fill: #1f77b4; stroke: #ffffff; stroke-width: 0.5; stroke-linejoin: miter"/>
   </g>
   <g id="patch_17">
    <path d="M 382.638875 292.14843 
L 398.15267 292.14843 
L 398.15267 102.312187 
L 382.638875 102.312187 
z
" clip-path="url(#p76e4a1a8bb)" style="fill: #1f77b4; stroke: #ffffff; stroke-width: 0.5; stroke-linejoin: miter"/>
   </g>
   <g id="patch_18">
    <path d="M 398.15267 292.14843 
L 413.666466 292.14843 
L 413.666466 113.887257 
L 398.15267 113.887257 
z
" clip-path="url(#p76e4a1a8bb)" style="fill: #1f77b4; stroke: #ffffff; stroke-width: 0.5; stroke-linejoin: miter"/>
   </g>
   <g id="patch_19">
    <path d="M 413.666466 292.14843 
L 429.180261 292.14843 
L 429.180261 127.154787 
L 413.666466 127.154787 
z
" clip-path="url(#p76e4a1a8bb)" style="fill: #1f77b4; stroke: #ffffff; stroke-width: 0.5; stroke-linejoin: miter"/>
   </g>
   <g id="patch_20">
    <path d="M 429.180261 292.14843 
L 444.694057 292.14843 
L 444.694057 138.245081 
L 429.180261 138.245081 
z
" clip-path="url(#p76e4a1a8bb)" style="fill: #1f77b4; stroke: #ffffff; stroke-width: 0.5; stroke-linejoin: miter"/>
   </g>
   <g id="patch_21">
    <path d="M 444.694057 292.14843 
L 460.207852 292.14843 
L 460.207852 153.230586 
L 444.694057 153.230586 
z
" clip-path="url(#p76e4a1a8bb)" style="fill: #1f77b4; stroke: #ffffff; stroke-width: 0.5; stroke-linejoin: miter"/>
   </g>
   <g id="patch_22">
    <path d="M 460.207852 292.14843 
L 475.721648 292.14843 
L 475.721648 165.281926 
L 460.207852 165.281926 
z
" clip-path="url(#p76e4a1a8bb)" style="fill: #1f77b4; stroke: #ffffff; stroke-width: 0.5; stroke-linejoin: miter"/>
   </g>
   <g id="patch_23">
    <path d="M 475.721648 292.14843 
L 491.235443 292.14843 
L 491.235443 176.788957 
L 475.721648 176.788957 
z
" clip-path="url(#p76e4a1a8bb)" style="fill: #1f77b4; stroke: #ffffff; stroke-width: 0.5; stroke-linejoin: miter"/>
   </g>
   <g id="patch_24">
    <path d="M 491.235443 292.14843 
L 506.749239 292.14843 
L 506.749239 182.827384 
L 491.235443 182.827384 
z
" clip-path="url(#p76e4a1a8bb)" style="fill: #1f77b4; stroke: #ffffff; stroke-width: 0.5; stroke-linejoin: miter"/>
   </g>
   <g id="patch_25">
    <path d="M 506.749239 292.14843 
L 522.263034 292.14843 
L 522.263034 193.169254 
L 506.749239 193.169254 
z
" clip-path="url(#p76e4a1a8bb)" style="fill: #1f77b4; stroke: #ffffff; stroke-width: 0.5; stroke-linejoin: miter"/>
   </g>
   <g id="patch_26">
    <path d="M 522.263034 292.14843 
L 537.77683 292.14843 
L 537.77683 204.319082 
L 522.263034 204.319082 
z
" clip-path="url(#p76e4a1a8bb)" style="fill: #1f77b4; stroke: #ffffff; stroke-width: 0.5; stroke-linejoin: miter"/>
   </g>
   <g id="patch_27">
    <path d="M 537.77683 292.14843 
L 553.290625 292.14843 
L 553.290625 212.959986 
L 537.77683 212.959986 
z
" clip-path="url(#p76e4a1a8bb)" style="fill: #1f77b4; stroke: #ffffff; stroke-width: 0.5; stroke-linejoin: miter"/>
   </g>
   <g id="patch_28">
    <path d="M 553.290625 292.14843 
L 568.80442 292.14843 
L 568.80442 219.13449 
L 553.290625 219.13449 
z
" clip-path="url(#p76e4a1a8bb)" style="fill: #1f77b4; stroke: #ffffff; stroke-width: 0.5; stroke-linejoin: miter"/>
   </g>
   <g id="patch_29">
    <path d="M 568.80442 292.14843 
L 584.318216 292.14843 
L 584.318216 225.742741 
L 568.80442 225.742741 
z
" clip-path="url(#p76e4a1a8bb)" style="fill: #1f77b4; stroke: #ffffff; stroke-width: 0.5; stroke-linejoin: miter"/>
   </g>
   <g id="patch_30">
    <path d="M 584.318216 292.14843 
L 599.832011 292.14843 
L 599.832011 236.280221 
L 584.318216 236.280221 
z
" clip-path="url(#p76e4a1a8bb)" style="fill: #1f77b4; stroke: #ffffff; stroke-width: 0.5; stroke-linejoin: miter"/>
   </g>
   <g id="patch_31">
    <path d="M 599.832011 292.14843 
L 615.345807 292.14843 
L 615.345807 245.482444 
L 599.832011 245.482444 
z
" clip-path="url(#p76e4a1a8bb)" style="fill: #1f77b4; stroke: #ffffff; stroke-width: 0.5; stroke-linejoin: miter"/>
   </g>
   <g id="patch_32">
    <path d="M 615.345807 292.14843 
L 630.859602 292.14843 
L 630.859602 252.405373 
L 615.345807 252.405373 
z
" clip-path="url(#p76e4a1a8bb)" style="fill: #1f77b4; stroke: #ffffff; stroke-width: 0.5; stroke-linejoin: miter"/>
   </g>
   <g id="patch_33">
    <path d="M 630.859602 292.14843 
L 646.373398 292.14843 
L 646.373398 257.22761 
L 630.859602 257.22761 
z
" clip-path="url(#p76e4a1a8bb)" style="fill: #1f77b4; stroke: #ffffff; stroke-width: 0.5; stroke-linejoin: miter"/>
   </g>
   <g id="patch_34">
    <path d="M 646.373398 292.14843 
L 661.887193 292.14843 
L 661.887193 258.392772 
L 646.373398 258.392772 
z
" clip-path="url(#p76e4a1a8bb)" style="fill: #1f77b4; stroke: #ffffff; stroke-width: 0.5; stroke-linejoin: miter"/>
   </g>
   <g id="patch_35">
    <path d="M 661.887193 292.14843 
L 677.400989 292.14843 
L 677.400989 262.236953 
L 661.887193 262.236953 
z
" clip-path="url(#p76e4a1a8bb)" style="fill: #1f77b4; stroke: #ffffff; stroke-width: 0.5; stroke-linejoin: miter"/>
   </g>
   <g id="patch_36">
    <path d="M 677.400989 292.14843 
L 692.914784 292.14843 
L 692.914784 259.983174 
L 677.400989 259.983174 
z
" clip-path="url(#p76e4a1a8bb)" style="fill: #1f77b4; stroke: #ffffff; stroke-width: 0.5; stroke-linejoin: miter"/>
   </g>
   <g id="patch_37">
    <path d="M 692.914784 292.14843 
L 708.42858 292.14843 
L 708.42858 267.161248 
L 692.914784 267.161248 
z
" clip-path="url(#p76e4a1a8bb)" style="fill: #1f77b4; stroke: #ffffff; stroke-width: 0.5; stroke-linejoin: miter"/>
   </g>
   <g id="patch_38">
    <path d="M 708.42858 292.14843 
L 723.942375 292.14843 
L 723.942375 272.842473 
L 708.42858 272.842473 
z
" clip-path="url(#p76e4a1a8bb)" style="fill: #1f77b4; stroke: #ffffff; stroke-width: 0.5; stroke-linejoin: miter"/>
   </g>
   <g id="patch_39">
    <path d="M 723.942375 292.14843 
L 739.45617 292.14843 
L 739.45617 275.062232 
L 723.942375 275.062232 
z
" clip-path="url(#p76e4a1a8bb)" style="fill: #1f77b4; stroke: #ffffff; stroke-width: 0.5; stroke-linejoin: miter"/>
   </g>
   <g id="patch_40">
    <path d="M 739.45617 292.14843 
L 754.969966 292.14843 
L 754.969966 277.656205 
L 739.45617 277.656205 
z
" clip-path="url(#p76e4a1a8bb)" style="fill: #1f77b4; stroke: #ffffff; stroke-width: 0.5; stroke-linejoin: miter"/>
   </g>
   <g id="patch_41">
    <path d="M 754.969966 292.14843 
L 770.483761 292.14843 
L 770.483761 281.57693 
L 754.969966 281.57693 
z
" clip-path="url(#p76e4a1a8bb)" style="fill: #1f77b4; stroke: #ffffff; stroke-width: 0.5; stroke-linejoin: miter"/>
   </g>
   <g id="patch_42">
    <path d="M 770.483761 292.14843 
L 785.997557 292.14843 
L 785.997557 284.221931 
L 770.483761 284.221931 
z
" clip-path="url(#p76e4a1a8bb)" style="fill: #1f77b4; stroke: #ffffff; stroke-width: 0.5; stroke-linejoin: miter"/>
   </g>
   <g id="patch_43">
    <path d="M 785.997557 292.14843 
L 801.511352 292.14843 
L 801.511352 286.127012 
L 785.997557 286.127012 
z
" clip-path="url(#p76e4a1a8bb)" style="fill: #1f77b4; stroke: #ffffff; stroke-width: 0.5; stroke-linejoin: miter"/>
   </g>
   <g id="patch_44">
    <path d="M 801.511352 292.14843 
L 817.025148 292.14843 
L 817.025148 286.280099 
L 801.511352 286.280099 
z
" clip-path="url(#p76e4a1a8bb)" style="fill: #1f77b4; stroke: #ffffff; stroke-width: 0.5; stroke-linejoin: miter"/>
   </g>
   <g id="patch_45">
    <path d="M 817.025148 292.14843 
L 832.538943 292.14843 
L 832.538943 286.416176 
L 817.025148 286.416176 
z
" clip-path="url(#p76e4a1a8bb)" style="fill: #1f77b4; stroke: #ffffff; stroke-width: 0.5; stroke-linejoin: miter"/>
   </g>
   <g id="patch_46">
    <path d="M 832.538943 292.14843 
L 848.052739 292.14843 
L 848.052739 289.860631 
L 832.538943 289.860631 
z
" clip-path="url(#p76e4a1a8bb)" style="fill: #1f77b4; stroke: #ffffff; stroke-width: 0.5; stroke-linejoin: miter"/>
   </g>
   <g id="patch_47">
    <path d="M 848.052739 292.14843 
L 863.566534 292.14843 
L 863.566534 290.549522 
L 848.052739 290.549522 
z
" clip-path="url(#p76e4a1a8bb)" style="fill: #1f77b4; stroke: #ffffff; stroke-width: 0.5; stroke-linejoin: miter"/>
   </g>
   <g id="patch_48">
    <path d="M 863.566534 292.14843 
L 879.08033 292.14843 
L 879.08033 291.774217 
L 863.566534 291.774217 
z
" clip-path="url(#p76e4a1a8bb)" style="fill: #1f77b4; stroke: #ffffff; stroke-width: 0.5; stroke-linejoin: miter"/>
   </g>
   <g id="patch_49">
    <path d="M 879.08033 292.14843 
L 894.594125 292.14843 
L 894.594125 291.86777 
L 879.08033 291.86777 
z
" clip-path="url(#p76e4a1a8bb)" style="fill: #1f77b4; stroke: #ffffff; stroke-width: 0.5; stroke-linejoin: miter"/>
   </g>
   <g id="patch_50">
    <path d="M 894.594125 292.14843 
L 910.10792 292.14843 
L 910.10792 291.876275 
L 894.594125 291.876275 
z
" clip-path="url(#p76e4a1a8bb)" style="fill: #1f77b4; stroke: #ffffff; stroke-width: 0.5; stroke-linejoin: miter"/>
   </g>
   <g id="patch_51">
    <path d="M 910.10792 292.14843 
L 925.621716 292.14843 
L 925.621716 291.723188 
L 910.10792 291.723188 
z
" clip-path="url(#p76e4a1a8bb)" style="fill: #1f77b4; stroke: #ffffff; stroke-width: 0.5; stroke-linejoin: miter"/>
   </g>
   <g id="patch_52">
    <path d="M 925.621716 292.14843 
L 941.135511 292.14843 
L 941.135511 292.054877 
L 925.621716 292.054877 
z
" clip-path="url(#p76e4a1a8bb)" style="fill: #1f77b4; stroke: #ffffff; stroke-width: 0.5; stroke-linejoin: miter"/>
   </g>
   <g id="matplotlib.axis_1">
    <g id="xtick_1">
     <g id="line2d_1">
      <defs>
       <path id="ma83492d6bc" d="M 0 0 
L 0 3.5 
" style="stroke: #000000; stroke-width: 0.8"/>
      </defs>
      <g>
       <use xlink:href="#ma83492d6bc" x="165.349837" y="292.14843" style="stroke: #000000; stroke-width: 0.8"/>
      </g>
     </g>
    </g>
    <g id="xtick_2">
     <g id="line2d_2">
      <g>
       <use xlink:href="#ma83492d6bc" x="276.098567" y="292.14843" style="stroke: #000000; stroke-width: 0.8"/>
      </g>
     </g>
     <g id="text_1">
      <!-- 15% -->
      <g transform="translate(252.269973 317.189992) scale(0.26 -0.26)">
       <defs>
        <path id="Cmr10-31" d="M 594 0 
L 594 225 
Q 1394 225 1394 428 
L 1394 3788 
Q 1063 3628 556 3628 
L 556 3853 
Q 1341 3853 1741 4263 
L 1831 4263 
Q 1853 4263 1873 4245 
Q 1894 4228 1894 4206 
L 1894 428 
Q 1894 225 2694 225 
L 2694 0 
L 594 0 
z
" transform="scale(0.015625)"/>
        <path id="Cmr10-35" d="M 556 728 
Q 622 541 758 387 
Q 894 234 1080 148 
Q 1266 63 1466 63 
Q 1928 63 2103 422 
Q 2278 781 2278 1294 
Q 2278 1516 2270 1667 
Q 2263 1819 2228 1959 
Q 2169 2184 2020 2353 
Q 1872 2522 1656 2522 
Q 1441 2522 1286 2456 
Q 1131 2391 1034 2303 
Q 938 2216 863 2119 
Q 788 2022 769 2016 
L 697 2016 
Q 681 2016 657 2036 
Q 634 2056 634 2075 
L 634 4213 
Q 634 4228 654 4245 
Q 675 4263 697 4263 
L 716 4263 
Q 1147 4056 1631 4056 
Q 2106 4056 2547 4263 
L 2566 4263 
Q 2588 4263 2606 4247 
Q 2625 4231 2625 4213 
L 2625 4153 
Q 2625 4122 2613 4122 
Q 2394 3831 2064 3668 
Q 1734 3506 1381 3506 
Q 1125 3506 856 3578 
L 856 2369 
Q 1069 2541 1236 2614 
Q 1403 2688 1663 2688 
Q 2016 2688 2295 2484 
Q 2575 2281 2725 1954 
Q 2875 1628 2875 1288 
Q 2875 903 2686 575 
Q 2497 247 2172 53 
Q 1847 -141 1466 -141 
Q 1150 -141 886 21 
Q 622 184 470 459 
Q 319 734 319 1044 
Q 319 1188 412 1278 
Q 506 1369 647 1369 
Q 788 1369 883 1276 
Q 978 1184 978 1044 
Q 978 906 883 811 
Q 788 716 647 716 
Q 625 716 597 720 
Q 569 725 556 728 
z
" transform="scale(0.015625)"/>
        <path id="Cmr10-25" d="M 891 -231 
Q 891 -194 909 -166 
L 3809 4153 
Q 3425 3938 2963 3938 
Q 2463 3938 2003 4197 
Q 2131 3891 2131 3513 
Q 2131 3306 2082 3086 
Q 2034 2866 1934 2670 
Q 1834 2475 1676 2348 
Q 1519 2222 1306 2222 
Q 1006 2222 790 2422 
Q 575 2622 467 2922 
Q 359 3222 359 3513 
Q 359 3797 467 4098 
Q 575 4400 790 4600 
Q 1006 4800 1306 4800 
Q 1544 4800 1741 4609 
Q 2256 4103 2963 4103 
Q 3341 4103 3669 4270 
Q 3997 4438 4206 4750 
Q 4238 4800 4306 4800 
Q 4363 4800 4398 4765 
Q 4434 4731 4434 4672 
Q 4434 4638 4416 4609 
L 1113 -319 
Q 1084 -359 1019 -359 
Q 966 -359 928 -318 
Q 891 -278 891 -231 
z
M 1306 2388 
Q 1622 2388 1784 2764 
Q 1947 3141 1947 3513 
Q 1947 3722 1880 3989 
Q 1813 4256 1669 4445 
Q 1525 4634 1306 4634 
Q 988 4634 884 4279 
Q 781 3925 781 3506 
Q 781 3103 887 2745 
Q 994 2388 1306 2388 
z
M 4141 -359 
Q 3841 -359 3625 -159 
Q 3409 41 3301 342 
Q 3194 644 3194 934 
Q 3194 1219 3301 1520 
Q 3409 1822 3625 2022 
Q 3841 2222 4141 2222 
Q 4419 2222 4606 2011 
Q 4794 1800 4880 1503 
Q 4966 1206 4966 934 
Q 4966 728 4917 509 
Q 4869 291 4770 92 
Q 4672 -106 4514 -232 
Q 4356 -359 4141 -359 
z
M 4141 -191 
Q 4356 -191 4503 1 
Q 4650 194 4715 459 
Q 4781 725 4781 934 
Q 4781 1303 4618 1678 
Q 4456 2053 4141 2053 
Q 3822 2053 3719 1698 
Q 3616 1344 3616 928 
Q 3616 522 3722 165 
Q 3828 -191 4141 -191 
z
" transform="scale(0.015625)"/>
       </defs>
       <use xlink:href="#Cmr10-31"/>
       <use xlink:href="#Cmr10-35" x="50"/>
       <use xlink:href="#Cmr10-25" x="100"/>
      </g>
     </g>
    </g>
    <g id="xtick_3">
     <g id="line2d_3">
      <g>
       <use xlink:href="#ma83492d6bc" x="386.847296" y="292.14843" style="stroke: #000000; stroke-width: 0.8"/>
      </g>
     </g>
     <g id="text_2">
      <!-- 20% -->
      <g transform="translate(363.018703 317.189992) scale(0.26 -0.26)">
       <defs>
        <path id="Cmr10-32" d="M 319 0 
L 319 172 
Q 319 188 331 206 
L 1325 1306 
Q 1550 1550 1690 1715 
Q 1831 1881 1968 2097 
Q 2106 2313 2186 2536 
Q 2266 2759 2266 3009 
Q 2266 3272 2169 3511 
Q 2072 3750 1880 3894 
Q 1688 4038 1416 4038 
Q 1138 4038 916 3870 
Q 694 3703 603 3438 
Q 628 3444 672 3444 
Q 816 3444 917 3347 
Q 1019 3250 1019 3097 
Q 1019 2950 917 2848 
Q 816 2747 672 2747 
Q 522 2747 420 2851 
Q 319 2956 319 3097 
Q 319 3338 409 3548 
Q 500 3759 670 3923 
Q 841 4088 1055 4175 
Q 1269 4263 1509 4263 
Q 1875 4263 2190 4108 
Q 2506 3953 2690 3670 
Q 2875 3388 2875 3009 
Q 2875 2731 2753 2481 
Q 2631 2231 2440 2026 
Q 2250 1822 1953 1562 
Q 1656 1303 1563 1216 
L 838 519 
L 1453 519 
Q 1906 519 2211 526 
Q 2516 534 2534 550 
Q 2609 631 2688 1141 
L 2875 1141 
L 2694 0 
L 319 0 
z
" transform="scale(0.015625)"/>
        <path id="Cmr10-30" d="M 1600 -141 
Q 816 -141 533 504 
Q 250 1150 250 2041 
Q 250 2597 351 3087 
Q 453 3578 754 3920 
Q 1056 4263 1600 4263 
Q 2022 4263 2290 4056 
Q 2559 3850 2700 3523 
Q 2841 3197 2892 2823 
Q 2944 2450 2944 2041 
Q 2944 1491 2842 1011 
Q 2741 531 2444 195 
Q 2147 -141 1600 -141 
z
M 1600 25 
Q 1956 25 2131 390 
Q 2306 756 2347 1200 
Q 2388 1644 2388 2144 
Q 2388 2625 2347 3031 
Q 2306 3438 2132 3767 
Q 1959 4097 1600 4097 
Q 1238 4097 1063 3765 
Q 888 3434 847 3029 
Q 806 2625 806 2144 
Q 806 1788 823 1472 
Q 841 1156 916 820 
Q 991 484 1158 254 
Q 1325 25 1600 25 
z
" transform="scale(0.015625)"/>
       </defs>
       <use xlink:href="#Cmr10-32"/>
       <use xlink:href="#Cmr10-30" x="50"/>
       <use xlink:href="#Cmr10-25" x="100"/>
      </g>
     </g>
    </g>
    <g id="xtick_4">
     <g id="line2d_4">
      <g>
       <use xlink:href="#ma83492d6bc" x="497.596026" y="292.14843" style="stroke: #000000; stroke-width: 0.8"/>
      </g>
     </g>
     <g id="text_3">
      <!-- 25% -->
      <g transform="translate(473.767432 317.189992) scale(0.26 -0.26)">
       <use xlink:href="#Cmr10-32"/>
       <use xlink:href="#Cmr10-35" x="50"/>
       <use xlink:href="#Cmr10-25" x="100"/>
      </g>
     </g>
    </g>
    <g id="xtick_5">
     <g id="line2d_5">
      <g>
       <use xlink:href="#ma83492d6bc" x="608.344755" y="292.14843" style="stroke: #000000; stroke-width: 0.8"/>
      </g>
     </g>
     <g id="text_4">
      <!-- 30% -->
      <g transform="translate(584.516162 317.189992) scale(0.26 -0.26)">
       <defs>
        <path id="Cmr10-33" d="M 609 494 
Q 759 275 1012 169 
Q 1266 63 1556 63 
Q 1928 63 2084 380 
Q 2241 697 2241 1100 
Q 2241 1281 2208 1462 
Q 2175 1644 2097 1800 
Q 2019 1956 1883 2050 
Q 1747 2144 1550 2144 
L 1125 2144 
Q 1069 2144 1069 2203 
L 1069 2259 
Q 1069 2309 1125 2309 
L 1478 2338 
Q 1703 2338 1851 2506 
Q 2000 2675 2069 2917 
Q 2138 3159 2138 3378 
Q 2138 3684 1994 3881 
Q 1850 4078 1556 4078 
Q 1313 4078 1091 3986 
Q 869 3894 738 3706 
Q 750 3709 759 3711 
Q 769 3713 781 3713 
Q 925 3713 1022 3613 
Q 1119 3513 1119 3372 
Q 1119 3234 1022 3134 
Q 925 3034 781 3034 
Q 641 3034 541 3134 
Q 441 3234 441 3372 
Q 441 3647 606 3850 
Q 772 4053 1033 4158 
Q 1294 4263 1556 4263 
Q 1750 4263 1965 4205 
Q 2181 4147 2356 4039 
Q 2531 3931 2642 3762 
Q 2753 3594 2753 3378 
Q 2753 3109 2633 2881 
Q 2513 2653 2303 2487 
Q 2094 2322 1844 2241 
Q 2122 2188 2372 2031 
Q 2622 1875 2773 1631 
Q 2925 1388 2925 1106 
Q 2925 753 2731 467 
Q 2538 181 2222 20 
Q 1906 -141 1556 -141 
Q 1256 -141 954 -26 
Q 653 88 461 316 
Q 269 544 269 863 
Q 269 1022 375 1128 
Q 481 1234 641 1234 
Q 744 1234 830 1186 
Q 916 1138 964 1050 
Q 1013 963 1013 863 
Q 1013 706 903 600 
Q 794 494 641 494 
L 609 494 
z
" transform="scale(0.015625)"/>
       </defs>
       <use xlink:href="#Cmr10-33"/>
       <use xlink:href="#Cmr10-30" x="50"/>
       <use xlink:href="#Cmr10-25" x="100"/>
      </g>
     </g>
    </g>
    <g id="xtick_6">
     <g id="line2d_6">
      <g>
       <use xlink:href="#ma83492d6bc" x="719.093485" y="292.14843" style="stroke: #000000; stroke-width: 0.8"/>
      </g>
     </g>
     <g id="text_5">
      <!-- 35% -->
      <g transform="translate(695.264891 317.189992) scale(0.26 -0.26)">
       <use xlink:href="#Cmr10-33"/>
       <use xlink:href="#Cmr10-35" x="50"/>
       <use xlink:href="#Cmr10-25" x="100"/>
      </g>
     </g>
    </g>
    <g id="xtick_7">
     <g id="line2d_7">
      <g>
       <use xlink:href="#ma83492d6bc" x="829.842214" y="292.14843" style="stroke: #000000; stroke-width: 0.8"/>
      </g>
     </g>
     <g id="text_6">
      <!-- 40% -->
      <g transform="translate(806.013621 317.189992) scale(0.26 -0.26)">
       <defs>
        <path id="Cmr10-34" d="M 178 1056 
L 178 1281 
L 2156 4231 
Q 2178 4263 2222 4263 
L 2316 4263 
Q 2388 4263 2388 4191 
L 2388 1281 
L 3016 1281 
L 3016 1056 
L 2388 1056 
L 2388 428 
Q 2388 297 2575 261 
Q 2763 225 3009 225 
L 3009 0 
L 1247 0 
L 1247 225 
Q 1494 225 1681 261 
Q 1869 297 1869 428 
L 1869 1056 
L 178 1056 
z
M 391 1281 
L 1906 1281 
L 1906 3547 
L 391 1281 
z
" transform="scale(0.015625)"/>
       </defs>
       <use xlink:href="#Cmr10-34"/>
       <use xlink:href="#Cmr10-30" x="50"/>
       <use xlink:href="#Cmr10-25" x="100"/>
      </g>
     </g>
    </g>
    <g id="xtick_8">
     <g id="line2d_8">
      <g>
       <use xlink:href="#ma83492d6bc" x="940.590944" y="292.14843" style="stroke: #000000; stroke-width: 0.8"/>
      </g>
     </g>
     <g id="text_7">
      <!-- 45% -->
      <g transform="translate(916.76235 317.189992) scale(0.26 -0.26)">
       <use xlink:href="#Cmr10-34"/>
       <use xlink:href="#Cmr10-35" x="50"/>
       <use xlink:href="#Cmr10-25" x="100"/>
      </g>
     </g>
    </g>
    <g id="text_8">
     <!-- Collected data - Granule label size -->
     <g transform="translate(356.860625 344.273117) scale(0.26 -0.26)">
      <defs>
       <path id="Cmr10-43" d="M 1459 684 
Q 1678 406 2006 245 
Q 2334 84 2688 84 
Q 2984 84 3237 201 
Q 3491 319 3680 528 
Q 3869 738 3970 1003 
Q 4072 1269 4072 1563 
Q 4072 1613 4128 1613 
L 4206 1613 
Q 4256 1613 4256 1550 
Q 4256 1216 4128 905 
Q 4000 594 3765 358 
Q 3531 122 3226 -9 
Q 2922 -141 2591 -141 
Q 2131 -141 1720 45 
Q 1309 231 1004 554 
Q 700 878 529 1303 
Q 359 1728 359 2188 
Q 359 2647 529 3072 
Q 700 3497 1004 3822 
Q 1309 4147 1720 4330 
Q 2131 4513 2591 4513 
Q 2919 4513 3219 4370 
Q 3519 4228 3744 3969 
L 4116 4494 
Q 4153 4513 4159 4513 
L 4206 4513 
Q 4225 4513 4240 4497 
Q 4256 4481 4256 4459 
L 4256 2731 
Q 4256 2675 4206 2675 
L 4091 2675 
Q 4031 2675 4031 2731 
Q 4031 2916 3957 3144 
Q 3884 3372 3770 3576 
Q 3656 3781 3506 3938 
Q 3147 4288 2681 4288 
Q 2328 4288 2004 4128 
Q 1681 3969 1459 3688 
Q 1225 3388 1134 3005 
Q 1044 2622 1044 2188 
Q 1044 1753 1134 1368 
Q 1225 984 1459 684 
z
" transform="scale(0.015625)"/>
       <path id="Cmr10-6f" d="M 1600 -72 
Q 1216 -72 887 123 
Q 559 319 368 647 
Q 178 975 178 1363 
Q 178 1656 283 1928 
Q 388 2200 583 2414 
Q 778 2628 1037 2748 
Q 1297 2869 1600 2869 
Q 1994 2869 2317 2661 
Q 2641 2453 2828 2104 
Q 3016 1756 3016 1363 
Q 3016 978 2825 648 
Q 2634 319 2307 123 
Q 1981 -72 1600 -72 
z
M 1600 116 
Q 2113 116 2284 487 
Q 2456 859 2456 1434 
Q 2456 1756 2422 1967 
Q 2388 2178 2272 2350 
Q 2200 2456 2089 2536 
Q 1978 2616 1854 2658 
Q 1731 2700 1600 2700 
Q 1400 2700 1220 2609 
Q 1041 2519 922 2350 
Q 803 2169 770 1951 
Q 738 1734 738 1434 
Q 738 1075 800 789 
Q 863 503 1052 309 
Q 1241 116 1600 116 
z
" transform="scale(0.015625)"/>
       <path id="Cmr10-6c" d="M 197 0 
L 197 225 
Q 416 225 556 259 
Q 697 294 697 428 
L 697 3788 
Q 697 3959 645 4036 
Q 594 4113 497 4130 
Q 400 4147 197 4147 
L 197 4372 
L 1147 4441 
L 1147 428 
Q 1147 294 1287 259 
Q 1428 225 1644 225 
L 1644 0 
L 197 0 
z
" transform="scale(0.015625)"/>
       <path id="Cmr10-65" d="M 1594 -72 
Q 1203 -72 876 133 
Q 550 338 364 680 
Q 178 1022 178 1403 
Q 178 1778 348 2115 
Q 519 2453 823 2661 
Q 1128 2869 1503 2869 
Q 1797 2869 2014 2770 
Q 2231 2672 2372 2497 
Q 2513 2322 2584 2084 
Q 2656 1847 2656 1563 
Q 2656 1478 2591 1478 
L 738 1478 
L 738 1409 
Q 738 878 952 497 
Q 1166 116 1650 116 
Q 1847 116 2014 203 
Q 2181 291 2304 447 
Q 2428 603 2472 781 
Q 2478 803 2495 820 
Q 2513 838 2534 838 
L 2591 838 
Q 2656 838 2656 756 
Q 2566 394 2266 161 
Q 1966 -72 1594 -72 
z
M 744 1638 
L 2203 1638 
Q 2203 1878 2136 2125 
Q 2069 2372 1912 2536 
Q 1756 2700 1503 2700 
Q 1141 2700 942 2361 
Q 744 2022 744 1638 
z
" transform="scale(0.015625)"/>
       <path id="Cmr10-63" d="M 1594 -72 
Q 1206 -72 890 129 
Q 575 331 394 667 
Q 213 1003 213 1381 
Q 213 1759 392 2106 
Q 572 2453 889 2661 
Q 1206 2869 1594 2869 
Q 1969 2869 2276 2722 
Q 2584 2575 2584 2241 
Q 2584 2116 2495 2023 
Q 2406 1931 2278 1931 
Q 2150 1931 2061 2023 
Q 1972 2116 1972 2241 
Q 1972 2353 2044 2436 
Q 2116 2519 2222 2541 
Q 2000 2681 1600 2681 
Q 1294 2681 1106 2478 
Q 919 2275 844 1975 
Q 769 1675 769 1381 
Q 769 1072 861 783 
Q 953 494 1158 305 
Q 1363 116 1672 116 
Q 1975 116 2187 302 
Q 2400 488 2478 788 
Q 2478 825 2528 825 
L 2606 825 
Q 2625 825 2640 808 
Q 2656 791 2656 769 
L 2656 750 
Q 2559 372 2271 150 
Q 1984 -72 1594 -72 
z
" transform="scale(0.015625)"/>
       <path id="Cmr10-74" d="M 653 769 
L 653 2534 
L 122 2534 
L 122 2700 
Q 541 2700 737 3090 
Q 934 3481 934 3938 
L 1119 3938 
L 1119 2759 
L 2022 2759 
L 2022 2534 
L 1119 2534 
L 1119 781 
Q 1119 516 1208 316 
Q 1297 116 1528 116 
Q 1747 116 1844 327 
Q 1941 538 1941 781 
L 1941 1159 
L 2125 1159 
L 2125 769 
Q 2125 569 2051 373 
Q 1978 178 1834 53 
Q 1691 -72 1484 -72 
Q 1100 -72 876 158 
Q 653 388 653 769 
z
" transform="scale(0.015625)"/>
       <path id="Cmr10-64" d="M 1563 -72 
Q 1184 -72 871 133 
Q 559 338 386 672 
Q 213 1006 213 1381 
Q 213 1769 402 2101 
Q 591 2434 916 2631 
Q 1241 2828 1631 2828 
Q 1866 2828 2075 2729 
Q 2284 2631 2438 2456 
L 2438 3788 
Q 2438 3959 2386 4036 
Q 2334 4113 2239 4130 
Q 2144 4147 1941 4147 
L 1941 4372 
L 2888 4441 
L 2888 581 
Q 2888 413 2939 336 
Q 2991 259 3086 242 
Q 3181 225 3384 225 
L 3384 0 
L 2419 -72 
L 2419 331 
Q 2253 141 2025 34 
Q 1797 -72 1563 -72 
z
M 909 556 
Q 1019 347 1201 222 
Q 1384 97 1600 97 
Q 1866 97 2087 250 
Q 2309 403 2419 647 
L 2419 2181 
Q 2344 2322 2230 2433 
Q 2116 2544 1973 2603 
Q 1831 2663 1672 2663 
Q 1338 2663 1134 2473 
Q 931 2284 850 1990 
Q 769 1697 769 1375 
Q 769 1119 795 928 
Q 822 738 909 556 
z
" transform="scale(0.015625)"/>
       <path id="Cmr10-20" transform="scale(0.015625)"/>
       <path id="Cmr10-61" d="M 256 628 
Q 256 1009 556 1248 
Q 856 1488 1276 1586 
Q 1697 1684 2075 1684 
L 2075 1947 
Q 2075 2131 1994 2304 
Q 1913 2478 1759 2589 
Q 1606 2700 1422 2700 
Q 997 2700 775 2509 
Q 897 2509 976 2417 
Q 1056 2325 1056 2203 
Q 1056 2075 965 1984 
Q 875 1894 750 1894 
Q 622 1894 531 1984 
Q 441 2075 441 2203 
Q 441 2541 747 2705 
Q 1053 2869 1422 2869 
Q 1681 2869 1943 2758 
Q 2206 2647 2373 2440 
Q 2541 2234 2541 1959 
L 2541 519 
Q 2541 394 2594 289 
Q 2647 184 2759 184 
Q 2866 184 2917 290 
Q 2969 397 2969 519 
L 2969 928 
L 3156 928 
L 3156 519 
Q 3156 375 3081 245 
Q 3006 116 2879 39 
Q 2753 -38 2606 -38 
Q 2419 -38 2283 107 
Q 2147 253 2131 453 
Q 2013 213 1781 70 
Q 1550 -72 1288 -72 
Q 1044 -72 808 0 
Q 572 72 414 226 
Q 256 381 256 628 
z
M 775 628 
Q 775 403 940 250 
Q 1106 97 1331 97 
Q 1538 97 1706 200 
Q 1875 303 1975 481 
Q 2075 659 2075 856 
L 2075 1522 
Q 1784 1522 1479 1426 
Q 1175 1331 975 1128 
Q 775 925 775 628 
z
" transform="scale(0.015625)"/>
       <path id="Cmr10-2d" d="M 72 1184 
L 72 1581 
L 1766 1581 
L 1766 1184 
L 72 1184 
z
" transform="scale(0.015625)"/>
       <path id="Cmr10-47" d="M 1472 684 
Q 1703 403 2036 243 
Q 2369 84 2731 84 
Q 3088 84 3378 265 
Q 3669 447 3669 781 
L 3669 1319 
Q 3669 1522 2869 1522 
L 2869 1747 
L 4703 1747 
L 4703 1522 
Q 4500 1522 4381 1487 
Q 4263 1453 4263 1319 
L 4263 56 
Q 4263 34 4245 17 
Q 4228 0 4206 0 
Q 4147 0 4008 140 
Q 3869 281 3788 391 
Q 3631 122 3297 -9 
Q 2963 -141 2597 -141 
Q 1975 -141 1464 179 
Q 953 500 656 1036 
Q 359 1572 359 2188 
Q 359 2641 531 3069 
Q 703 3497 1011 3822 
Q 1319 4147 1728 4330 
Q 2138 4513 2597 4513 
Q 2928 4513 3223 4370 
Q 3519 4228 3750 3969 
L 4122 4494 
Q 4159 4513 4166 4513 
L 4213 4513 
Q 4231 4513 4247 4497 
Q 4263 4481 4263 4459 
L 4263 2731 
Q 4263 2675 4213 2675 
L 4097 2675 
Q 4038 2675 4038 2731 
Q 4038 2916 3964 3144 
Q 3891 3372 3777 3576 
Q 3663 3781 3513 3938 
Q 3153 4288 2688 4288 
Q 2331 4288 2006 4128 
Q 1681 3969 1459 3688 
Q 1225 3388 1134 3005 
Q 1044 2622 1044 2188 
Q 1044 1206 1472 684 
z
" transform="scale(0.015625)"/>
       <path id="Cmr10-72" d="M 166 0 
L 166 225 
Q 384 225 525 259 
Q 666 294 666 428 
L 666 2175 
Q 666 2347 614 2423 
Q 563 2500 466 2517 
Q 369 2534 166 2534 
L 166 2759 
L 1081 2828 
L 1081 2203 
Q 1184 2481 1375 2654 
Q 1566 2828 1838 2828 
Q 2028 2828 2178 2715 
Q 2328 2603 2328 2419 
Q 2328 2303 2245 2217 
Q 2163 2131 2041 2131 
Q 1922 2131 1837 2215 
Q 1753 2300 1753 2419 
Q 1753 2591 1875 2663 
L 1838 2663 
Q 1578 2663 1414 2475 
Q 1250 2288 1181 2009 
Q 1113 1731 1113 1478 
L 1113 428 
Q 1113 225 1734 225 
L 1734 0 
L 166 0 
z
" transform="scale(0.015625)"/>
       <path id="Cmr10-6e" d="M 191 0 
L 191 225 
Q 409 225 550 259 
Q 691 294 691 428 
L 691 2175 
Q 691 2347 639 2423 
Q 588 2500 491 2517 
Q 394 2534 191 2534 
L 191 2759 
L 1119 2828 
L 1119 2203 
Q 1247 2478 1498 2653 
Q 1750 2828 2047 2828 
Q 2491 2828 2714 2615 
Q 2938 2403 2938 1966 
L 2938 428 
Q 2938 294 3078 259 
Q 3219 225 3438 225 
L 3438 0 
L 1972 0 
L 1972 225 
Q 2191 225 2331 259 
Q 2472 294 2472 428 
L 2472 1947 
Q 2472 2259 2381 2461 
Q 2291 2663 2009 2663 
Q 1638 2663 1398 2366 
Q 1159 2069 1159 1691 
L 1159 428 
Q 1159 294 1300 259 
Q 1441 225 1656 225 
L 1656 0 
L 191 0 
z
" transform="scale(0.015625)"/>
       <path id="Cmr10-75" d="M 691 763 
L 691 2175 
Q 691 2347 639 2423 
Q 588 2500 491 2517 
Q 394 2534 191 2534 
L 191 2759 
L 1159 2828 
L 1159 763 
Q 1159 513 1195 373 
Q 1231 234 1348 165 
Q 1466 97 1722 97 
Q 2066 97 2269 384 
Q 2472 672 2472 1038 
L 2472 2175 
Q 2472 2347 2419 2423 
Q 2366 2500 2270 2517 
Q 2175 2534 1972 2534 
L 1972 2759 
L 2938 2828 
L 2938 581 
Q 2938 413 2989 336 
Q 3041 259 3137 242 
Q 3234 225 3438 225 
L 3438 0 
L 2491 -72 
L 2491 469 
Q 2372 228 2159 78 
Q 1947 -72 1691 -72 
Q 1231 -72 961 123 
Q 691 319 691 763 
z
" transform="scale(0.015625)"/>
       <path id="Cmr10-62" d="M 666 0 
L 666 3788 
Q 666 3959 614 4036 
Q 563 4113 466 4130 
Q 369 4147 166 4147 
L 166 4372 
L 1113 4441 
L 1113 2438 
Q 1219 2556 1361 2645 
Q 1503 2734 1665 2781 
Q 1828 2828 1997 2828 
Q 2284 2828 2529 2712 
Q 2775 2597 2956 2394 
Q 3138 2191 3239 1927 
Q 3341 1663 3341 1381 
Q 3341 994 3152 659 
Q 2963 325 2636 126 
Q 2309 -72 1919 -72 
Q 1675 -72 1447 53 
Q 1219 178 1069 384 
L 850 0 
L 666 0 
z
M 1131 628 
Q 1238 394 1438 245 
Q 1638 97 1881 97 
Q 2213 97 2417 287 
Q 2622 478 2703 768 
Q 2784 1059 2784 1381 
Q 2784 1922 2644 2203 
Q 2581 2328 2473 2434 
Q 2366 2541 2233 2602 
Q 2100 2663 1953 2663 
Q 1697 2663 1478 2527 
Q 1259 2391 1131 2163 
L 1131 628 
z
" transform="scale(0.015625)"/>
       <path id="Cmr10-73" d="M 213 -19 
L 213 1025 
Q 213 1075 269 1075 
L 347 1075 
Q 384 1075 397 1025 
Q 575 97 1259 97 
Q 1563 97 1767 234 
Q 1972 372 1972 659 
Q 1972 866 1812 1011 
Q 1653 1156 1434 1209 
L 1006 1294 
Q 791 1341 614 1437 
Q 438 1534 325 1695 
Q 213 1856 213 2069 
Q 213 2350 361 2529 
Q 509 2709 746 2789 
Q 984 2869 1259 2869 
Q 1588 2869 1831 2694 
L 2016 2853 
Q 2016 2869 2047 2869 
L 2094 2869 
Q 2113 2869 2128 2851 
Q 2144 2834 2144 2816 
L 2144 1978 
Q 2144 1919 2094 1919 
L 2016 1919 
Q 1959 1919 1959 1978 
Q 1959 2313 1773 2516 
Q 1588 2719 1253 2719 
Q 966 2719 755 2612 
Q 544 2506 544 2247 
Q 544 2069 695 1955 
Q 847 1841 1050 1791 
L 1484 1709 
Q 1703 1659 1892 1540 
Q 2081 1422 2192 1240 
Q 2303 1059 2303 831 
Q 2303 600 2223 429 
Q 2144 259 2001 146 
Q 1859 34 1665 -19 
Q 1472 -72 1259 -72 
Q 859 -72 575 197 
L 341 -56 
Q 341 -72 306 -72 
L 269 -72 
Q 213 -72 213 -19 
z
" transform="scale(0.015625)"/>
       <path id="Cmr10-69" d="M 197 0 
L 197 225 
Q 416 225 556 259 
Q 697 294 697 428 
L 697 2175 
Q 697 2422 601 2478 
Q 506 2534 225 2534 
L 225 2759 
L 1147 2828 
L 1147 428 
Q 1147 294 1269 259 
Q 1391 225 1594 225 
L 1594 0 
L 197 0 
z
M 469 3928 
Q 469 4069 575 4175 
Q 681 4281 819 4281 
Q 909 4281 993 4234 
Q 1078 4188 1125 4103 
Q 1172 4019 1172 3928 
Q 1172 3791 1065 3684 
Q 959 3578 819 3578 
Q 681 3578 575 3684 
Q 469 3791 469 3928 
z
" transform="scale(0.015625)"/>
       <path id="Cmr10-7a" d="M 250 0 
Q 178 0 178 72 
L 178 122 
Q 178 147 197 166 
L 1984 2591 
L 1409 2591 
Q 1138 2591 961 2556 
Q 784 2522 670 2426 
Q 556 2331 504 2164 
Q 453 1997 453 1703 
L 269 1703 
L 341 2759 
L 2484 2759 
Q 2513 2759 2533 2739 
Q 2553 2719 2553 2688 
L 2553 2650 
Q 2553 2631 2541 2606 
L 750 184 
L 1363 184 
Q 1641 184 1827 218 
Q 2013 253 2144 384 
Q 2266 506 2311 712 
Q 2356 919 2381 1222 
L 2566 1222 
L 2456 0 
L 250 0 
z
" transform="scale(0.015625)"/>
      </defs>
      <use xlink:href="#Cmr10-43"/>
      <use xlink:href="#Cmr10-6f" x="72.216797"/>
      <use xlink:href="#Cmr10-6c" x="122.216797"/>
      <use xlink:href="#Cmr10-6c" x="149.902344"/>
      <use xlink:href="#Cmr10-65" x="177.587891"/>
      <use xlink:href="#Cmr10-63" x="221.972656"/>
      <use xlink:href="#Cmr10-74" x="266.357422"/>
      <use xlink:href="#Cmr10-65" x="305.175781"/>
      <use xlink:href="#Cmr10-64" x="349.560547"/>
      <use xlink:href="#Cmr10-20" x="405.078125"/>
      <use xlink:href="#Cmr10-64" x="438.378906"/>
      <use xlink:href="#Cmr10-61" x="493.896484"/>
      <use xlink:href="#Cmr10-74" x="543.896484"/>
      <use xlink:href="#Cmr10-61" x="582.714844"/>
      <use xlink:href="#Cmr10-20" x="632.714844"/>
      <use xlink:href="#Cmr10-2d" x="666.015625"/>
      <use xlink:href="#Cmr10-20" x="699.316406"/>
      <use xlink:href="#Cmr10-47" x="732.617188"/>
      <use xlink:href="#Cmr10-72" x="811.035156"/>
      <use xlink:href="#Cmr10-61" x="850.146484"/>
      <use xlink:href="#Cmr10-6e" x="900.146484"/>
      <use xlink:href="#Cmr10-75" x="955.664062"/>
      <use xlink:href="#Cmr10-6c" x="1011.181641"/>
      <use xlink:href="#Cmr10-65" x="1038.867188"/>
      <use xlink:href="#Cmr10-20" x="1083.251953"/>
      <use xlink:href="#Cmr10-6c" x="1116.552734"/>
      <use xlink:href="#Cmr10-61" x="1144.238281"/>
      <use xlink:href="#Cmr10-62" x="1194.238281"/>
      <use xlink:href="#Cmr10-65" x="1249.755859"/>
      <use xlink:href="#Cmr10-6c" x="1294.140625"/>
      <use xlink:href="#Cmr10-20" x="1321.826172"/>
      <use xlink:href="#Cmr10-73" x="1355.126953"/>
      <use xlink:href="#Cmr10-69" x="1394.53125"/>
      <use xlink:href="#Cmr10-7a" x="1422.216797"/>
      <use xlink:href="#Cmr10-65" x="1466.601562"/>
     </g>
    </g>
   </g>
   <g id="matplotlib.axis_2">
    <g id="ytick_1">
     <g id="line2d_9">
      <defs>
       <path id="m2cd5496b5d" d="M 0 0 
L -3.5 0 
" style="stroke: #000000; stroke-width: 0.8"/>
      </defs>
      <g>
       <use xlink:href="#m2cd5496b5d" x="126.66125" y="292.14843" style="stroke: #000000; stroke-width: 0.8"/>
      </g>
     </g>
     <g id="text_9">
      <!-- 0 -->
      <g transform="translate(106.66125 301.169211) scale(0.26 -0.26)">
       <use xlink:href="#Cmr10-30"/>
      </g>
     </g>
    </g>
    <g id="ytick_2">
     <g id="line2d_10">
      <g>
       <use xlink:href="#m2cd5496b5d" x="126.66125" y="207.10016" style="stroke: #000000; stroke-width: 0.8"/>
      </g>
     </g>
     <g id="text_10">
      <!-- 10000 -->
      <g transform="translate(54.66125 216.120941) scale(0.26 -0.26)">
       <use xlink:href="#Cmr10-31"/>
       <use xlink:href="#Cmr10-30" x="50"/>
       <use xlink:href="#Cmr10-30" x="100"/>
       <use xlink:href="#Cmr10-30" x="150"/>
       <use xlink:href="#Cmr10-30" x="200"/>
      </g>
     </g>
    </g>
    <g id="ytick_3">
     <g id="line2d_11">
      <g>
       <use xlink:href="#m2cd5496b5d" x="126.66125" y="122.051891" style="stroke: #000000; stroke-width: 0.8"/>
      </g>
     </g>
     <g id="text_11">
      <!-- 20000 -->
      <g transform="translate(54.66125 131.072672) scale(0.26 -0.26)">
       <use xlink:href="#Cmr10-32"/>
       <use xlink:href="#Cmr10-30" x="50"/>
       <use xlink:href="#Cmr10-30" x="100"/>
       <use xlink:href="#Cmr10-30" x="150"/>
       <use xlink:href="#Cmr10-30" x="200"/>
      </g>
     </g>
    </g>
    <g id="ytick_4">
     <g id="line2d_12">
      <g>
       <use xlink:href="#m2cd5496b5d" x="126.66125" y="37.003621" style="stroke: #000000; stroke-width: 0.8"/>
      </g>
     </g>
     <g id="text_12">
      <!-- 30000 -->
      <g transform="translate(54.66125 46.024402) scale(0.26 -0.26)">
       <use xlink:href="#Cmr10-33"/>
       <use xlink:href="#Cmr10-30" x="50"/>
       <use xlink:href="#Cmr10-30" x="100"/>
       <use xlink:href="#Cmr10-30" x="150"/>
       <use xlink:href="#Cmr10-30" x="200"/>
      </g>
     </g>
    </g>
    <g id="text_13">
     <!-- Count -->
     <g transform="translate(45.619688 198.722645) rotate(-90) scale(0.26 -0.26)">
      <use xlink:href="#Cmr10-43"/>
      <use xlink:href="#Cmr10-6f" x="72.216797"/>
      <use xlink:href="#Cmr10-75" x="122.216797"/>
      <use xlink:href="#Cmr10-6e" x="177.734375"/>
      <use xlink:href="#Cmr10-74" x="233.251953"/>
     </g>
    </g>
   </g>
   <g id="patch_53">
    <path d="M 126.66125 292.14843 
L 126.66125 34.560609 
" style="fill: none; stroke: #000000; stroke-width: 0.8; stroke-linejoin: miter; stroke-linecap: square"/>
   </g>
   <g id="patch_54">
    <path d="M 979.92 292.14843 
L 979.92 34.560609 
" style="fill: none; stroke: #000000; stroke-width: 0.8; stroke-linejoin: miter; stroke-linecap: square"/>
   </g>
   <g id="patch_55">
    <path d="M 126.66125 292.14843 
L 979.92 292.14843 
" style="fill: none; stroke: #000000; stroke-width: 0.8; stroke-linejoin: miter; stroke-linecap: square"/>
   </g>
   <g id="patch_56">
    <path d="M 126.66125 34.560609 
L 979.92 34.560609 
" style="fill: none; stroke: #000000; stroke-width: 0.8; stroke-linejoin: miter; stroke-linecap: square"/>
   </g>
   <g id="text_14">
    <!-- A -->
    <g transform="translate(135.193838 60.319391) scale(0.35 -0.35)">
     <defs>
      <path id="Cmr10-41" d="M 206 0 
L 206 225 
Q 778 225 909 603 
L 2253 4513 
Q 2272 4581 2356 4581 
L 2438 4581 
Q 2522 4581 2541 4513 
L 3944 428 
Q 4003 294 4170 259 
Q 4338 225 4588 225 
L 4588 0 
L 2803 0 
L 2803 225 
Q 3334 225 3334 397 
L 3334 428 
L 2988 1428 
L 1434 1428 
L 1147 603 
Q 1141 581 1141 538 
Q 1141 378 1292 301 
Q 1444 225 1619 225 
L 1619 0 
L 206 0 
z
M 1509 1650 
L 2913 1650 
L 2209 3694 
L 1509 1650 
z
" transform="scale(0.015625)"/>
     </defs>
     <use xlink:href="#Cmr10-41"/>
    </g>
   </g>
  </g>
  <g id="axes_2">
   <g id="patch_57">
    <path d="M 126.66125 634.37875 
L 979.92 634.37875 
L 979.92 376.79093 
L 126.66125 376.79093 
z
" style="fill: #ffffff"/>
   </g>
   <g id="patch_58">
    <path d="M 165.445739 634.37875 
L 180.959534 634.37875 
L 180.959534 551.892988 
L 165.445739 551.892988 
z
" clip-path="url(#pcae63025eb)" style="fill: #1f77b4; stroke: #ffffff; stroke-width: 0.5; stroke-linejoin: miter"/>
   </g>
   <g id="patch_59">
    <path d="M 180.959534 634.37875 
L 196.47333 634.37875 
L 196.47333 526.266343 
L 180.959534 526.266343 
z
" clip-path="url(#pcae63025eb)" style="fill: #1f77b4; stroke: #ffffff; stroke-width: 0.5; stroke-linejoin: miter"/>
   </g>
   <g id="patch_60">
    <path d="M 196.47333 634.37875 
L 211.987125 634.37875 
L 211.987125 455.259182 
L 196.47333 455.259182 
z
" clip-path="url(#pcae63025eb)" style="fill: #1f77b4; stroke: #ffffff; stroke-width: 0.5; stroke-linejoin: miter"/>
   </g>
   <g id="patch_61">
    <path d="M 211.987125 634.37875 
L 227.50092 634.37875 
L 227.50092 389.057016 
L 211.987125 389.057016 
z
" clip-path="url(#pcae63025eb)" style="fill: #1f77b4; stroke: #ffffff; stroke-width: 0.5; stroke-linejoin: miter"/>
   </g>
   <g id="patch_62">
    <path d="M 227.50092 634.37875 
L 243.014716 634.37875 
L 243.014716 517.724128 
L 227.50092 517.724128 
z
" clip-path="url(#pcae63025eb)" style="fill: #1f77b4; stroke: #ffffff; stroke-width: 0.5; stroke-linejoin: miter"/>
   </g>
   <g id="patch_63">
    <path d="M 243.014716 634.37875 
L 258.528511 634.37875 
L 258.528511 518.258016 
L 243.014716 518.258016 
z
" clip-path="url(#pcae63025eb)" style="fill: #1f77b4; stroke: #ffffff; stroke-width: 0.5; stroke-linejoin: miter"/>
   </g>
   <g id="patch_64">
    <path d="M 258.528511 634.37875 
L 274.042307 634.37875 
L 274.042307 467.80556 
L 258.528511 467.80556 
z
" clip-path="url(#pcae63025eb)" style="fill: #1f77b4; stroke: #ffffff; stroke-width: 0.5; stroke-linejoin: miter"/>
   </g>
   <g id="patch_65">
    <path d="M 274.042307 634.37875 
L 289.556102 634.37875 
L 289.556102 402.938116 
L 274.042307 402.938116 
z
" clip-path="url(#pcae63025eb)" style="fill: #1f77b4; stroke: #ffffff; stroke-width: 0.5; stroke-linejoin: miter"/>
   </g>
   <g id="patch_66">
    <path d="M 289.556102 634.37875 
L 305.069898 634.37875 
L 305.069898 462.466676 
L 289.556102 462.466676 
z
" clip-path="url(#pcae63025eb)" style="fill: #1f77b4; stroke: #ffffff; stroke-width: 0.5; stroke-linejoin: miter"/>
   </g>
   <g id="patch_67">
    <path d="M 305.069898 634.37875 
L 320.583693 634.37875 
L 320.583693 494.499981 
L 305.069898 494.499981 
z
" clip-path="url(#pcae63025eb)" style="fill: #1f77b4; stroke: #ffffff; stroke-width: 0.5; stroke-linejoin: miter"/>
   </g>
   <g id="patch_68">
    <path d="M 320.583693 634.37875 
L 336.097489 634.37875 
L 336.097489 464.869173 
L 320.583693 464.869173 
z
" clip-path="url(#pcae63025eb)" style="fill: #1f77b4; stroke: #ffffff; stroke-width: 0.5; stroke-linejoin: miter"/>
   </g>
   <g id="patch_69">
    <path d="M 336.097489 634.37875 
L 351.611284 634.37875 
L 351.611284 450.454186 
L 336.097489 450.454186 
z
" clip-path="url(#pcae63025eb)" style="fill: #1f77b4; stroke: #ffffff; stroke-width: 0.5; stroke-linejoin: miter"/>
   </g>
   <g id="patch_70">
    <path d="M 351.611284 634.37875 
L 367.12508 634.37875 
L 367.12508 450.187242 
L 351.611284 450.187242 
z
" clip-path="url(#pcae63025eb)" style="fill: #1f77b4; stroke: #ffffff; stroke-width: 0.5; stroke-linejoin: miter"/>
   </g>
   <g id="patch_71">
    <path d="M 367.12508 634.37875 
L 382.638875 634.37875 
L 382.638875 475.013054 
L 367.12508 475.013054 
z
" clip-path="url(#pcae63025eb)" style="fill: #1f77b4; stroke: #ffffff; stroke-width: 0.5; stroke-linejoin: miter"/>
   </g>
   <g id="patch_72">
    <path d="M 382.638875 634.37875 
L 398.15267 634.37875 
L 398.15267 474.746109 
L 382.638875 474.746109 
z
" clip-path="url(#pcae63025eb)" style="fill: #1f77b4; stroke: #ffffff; stroke-width: 0.5; stroke-linejoin: miter"/>
   </g>
   <g id="patch_73">
    <path d="M 398.15267 634.37875 
L 413.666466 634.37875 
L 413.666466 483.555269 
L 398.15267 483.555269 
z
" clip-path="url(#pcae63025eb)" style="fill: #1f77b4; stroke: #ffffff; stroke-width: 0.5; stroke-linejoin: miter"/>
   </g>
   <g id="patch_74">
    <path d="M 413.666466 634.37875 
L 429.180261 634.37875 
L 429.180261 472.610556 
L 413.666466 472.610556 
z
" clip-path="url(#pcae63025eb)" style="fill: #1f77b4; stroke: #ffffff; stroke-width: 0.5; stroke-linejoin: miter"/>
   </g>
   <g id="patch_75">
    <path d="M 429.180261 634.37875 
L 444.694057 634.37875 
L 444.694057 469.941114 
L 429.180261 469.941114 
z
" clip-path="url(#pcae63025eb)" style="fill: #1f77b4; stroke: #ffffff; stroke-width: 0.5; stroke-linejoin: miter"/>
   </g>
   <g id="patch_76">
    <path d="M 444.694057 634.37875 
L 460.207852 634.37875 
L 460.207852 472.610556 
L 444.694057 472.610556 
z
" clip-path="url(#pcae63025eb)" style="fill: #1f77b4; stroke: #ffffff; stroke-width: 0.5; stroke-linejoin: miter"/>
   </g>
   <g id="patch_77">
    <path d="M 460.207852 634.37875 
L 475.721648 634.37875 
L 475.721648 469.674169 
L 460.207852 469.674169 
z
" clip-path="url(#pcae63025eb)" style="fill: #1f77b4; stroke: #ffffff; stroke-width: 0.5; stroke-linejoin: miter"/>
   </g>
   <g id="patch_78">
    <path d="M 475.721648 634.37875 
L 491.235443 634.37875 
L 491.235443 482.754436 
L 475.721648 482.754436 
z
" clip-path="url(#pcae63025eb)" style="fill: #1f77b4; stroke: #ffffff; stroke-width: 0.5; stroke-linejoin: miter"/>
   </g>
   <g id="patch_79">
    <path d="M 491.235443 634.37875 
L 506.749239 634.37875 
L 506.749239 454.725293 
L 491.235443 454.725293 
z
" clip-path="url(#pcae63025eb)" style="fill: #1f77b4; stroke: #ffffff; stroke-width: 0.5; stroke-linejoin: miter"/>
   </g>
   <g id="patch_80">
    <path d="M 506.749239 634.37875 
L 522.263034 634.37875 
L 522.263034 469.140281 
L 506.749239 469.140281 
z
" clip-path="url(#pcae63025eb)" style="fill: #1f77b4; stroke: #ffffff; stroke-width: 0.5; stroke-linejoin: miter"/>
   </g>
   <g id="patch_81">
    <path d="M 522.263034 634.37875 
L 537.77683 634.37875 
L 537.77683 480.885826 
L 522.263034 480.885826 
z
" clip-path="url(#pcae63025eb)" style="fill: #1f77b4; stroke: #ffffff; stroke-width: 0.5; stroke-linejoin: miter"/>
   </g>
   <g id="patch_82">
    <path d="M 537.77683 634.37875 
L 553.290625 634.37875 
L 553.290625 497.970256 
L 537.77683 497.970256 
z
" clip-path="url(#pcae63025eb)" style="fill: #1f77b4; stroke: #ffffff; stroke-width: 0.5; stroke-linejoin: miter"/>
   </g>
   <g id="patch_83">
    <path d="M 553.290625 634.37875 
L 568.80442 634.37875 
L 568.80442 460.86501 
L 553.290625 460.86501 
z
" clip-path="url(#pcae63025eb)" style="fill: #1f77b4; stroke: #ffffff; stroke-width: 0.5; stroke-linejoin: miter"/>
   </g>
   <g id="patch_84">
    <path d="M 568.80442 634.37875 
L 584.318216 634.37875 
L 584.318216 474.746109 
L 568.80442 474.746109 
z
" clip-path="url(#pcae63025eb)" style="fill: #1f77b4; stroke: #ffffff; stroke-width: 0.5; stroke-linejoin: miter"/>
   </g>
   <g id="patch_85">
    <path d="M 584.318216 634.37875 
L 599.832011 634.37875 
L 599.832011 477.148607 
L 584.318216 477.148607 
z
" clip-path="url(#pcae63025eb)" style="fill: #1f77b4; stroke: #ffffff; stroke-width: 0.5; stroke-linejoin: miter"/>
   </g>
   <g id="patch_86">
    <path d="M 599.832011 634.37875 
L 615.345807 634.37875 
L 615.345807 481.686659 
L 599.832011 481.686659 
z
" clip-path="url(#pcae63025eb)" style="fill: #1f77b4; stroke: #ffffff; stroke-width: 0.5; stroke-linejoin: miter"/>
   </g>
   <g id="patch_87">
    <path d="M 615.345807 634.37875 
L 630.859602 634.37875 
L 630.859602 468.072504 
L 615.345807 468.072504 
z
" clip-path="url(#pcae63025eb)" style="fill: #1f77b4; stroke: #ffffff; stroke-width: 0.5; stroke-linejoin: miter"/>
   </g>
   <g id="patch_88">
    <path d="M 630.859602 634.37875 
L 646.373398 634.37875 
L 646.373398 467.80556 
L 630.859602 467.80556 
z
" clip-path="url(#pcae63025eb)" style="fill: #1f77b4; stroke: #ffffff; stroke-width: 0.5; stroke-linejoin: miter"/>
   </g>
   <g id="patch_89">
    <path d="M 646.373398 634.37875 
L 661.887193 634.37875 
L 661.887193 467.538616 
L 646.373398 467.538616 
z
" clip-path="url(#pcae63025eb)" style="fill: #1f77b4; stroke: #ffffff; stroke-width: 0.5; stroke-linejoin: miter"/>
   </g>
   <g id="patch_90">
    <path d="M 661.887193 634.37875 
L 677.400989 634.37875 
L 677.400989 488.360264 
L 661.887193 488.360264 
z
" clip-path="url(#pcae63025eb)" style="fill: #1f77b4; stroke: #ffffff; stroke-width: 0.5; stroke-linejoin: miter"/>
   </g>
   <g id="patch_91">
    <path d="M 677.400989 634.37875 
L 692.914784 634.37875 
L 692.914784 453.390572 
L 677.400989 453.390572 
z
" clip-path="url(#pcae63025eb)" style="fill: #1f77b4; stroke: #ffffff; stroke-width: 0.5; stroke-linejoin: miter"/>
   </g>
   <g id="patch_92">
    <path d="M 692.914784 634.37875 
L 708.42858 634.37875 
L 708.42858 464.602229 
L 692.914784 464.602229 
z
" clip-path="url(#pcae63025eb)" style="fill: #1f77b4; stroke: #ffffff; stroke-width: 0.5; stroke-linejoin: miter"/>
   </g>
   <g id="patch_93">
    <path d="M 708.42858 634.37875 
L 723.942375 634.37875 
L 723.942375 477.682496 
L 708.42858 477.682496 
z
" clip-path="url(#pcae63025eb)" style="fill: #1f77b4; stroke: #ffffff; stroke-width: 0.5; stroke-linejoin: miter"/>
   </g>
   <g id="patch_94">
    <path d="M 723.942375 634.37875 
L 739.45617 634.37875 
L 739.45617 491.029707 
L 723.942375 491.029707 
z
" clip-path="url(#pcae63025eb)" style="fill: #1f77b4; stroke: #ffffff; stroke-width: 0.5; stroke-linejoin: miter"/>
   </g>
   <g id="patch_95">
    <path d="M 739.45617 634.37875 
L 754.969966 634.37875 
L 754.969966 488.360264 
L 739.45617 488.360264 
z
" clip-path="url(#pcae63025eb)" style="fill: #1f77b4; stroke: #ffffff; stroke-width: 0.5; stroke-linejoin: miter"/>
   </g>
   <g id="patch_96">
    <path d="M 754.969966 634.37875 
L 770.483761 634.37875 
L 770.483761 466.470839 
L 754.969966 466.470839 
z
" clip-path="url(#pcae63025eb)" style="fill: #1f77b4; stroke: #ffffff; stroke-width: 0.5; stroke-linejoin: miter"/>
   </g>
   <g id="patch_97">
    <path d="M 770.483761 634.37875 
L 785.997557 634.37875 
L 785.997557 470.741946 
L 770.483761 470.741946 
z
" clip-path="url(#pcae63025eb)" style="fill: #1f77b4; stroke: #ffffff; stroke-width: 0.5; stroke-linejoin: miter"/>
   </g>
   <g id="patch_98">
    <path d="M 785.997557 634.37875 
L 801.511352 634.37875 
L 801.511352 487.826376 
L 785.997557 487.826376 
z
" clip-path="url(#pcae63025eb)" style="fill: #1f77b4; stroke: #ffffff; stroke-width: 0.5; stroke-linejoin: miter"/>
   </g>
   <g id="patch_99">
    <path d="M 801.511352 634.37875 
L 817.025148 634.37875 
L 817.025148 456.060014 
L 801.511352 456.060014 
z
" clip-path="url(#pcae63025eb)" style="fill: #1f77b4; stroke: #ffffff; stroke-width: 0.5; stroke-linejoin: miter"/>
   </g>
   <g id="patch_100">
    <path d="M 817.025148 634.37875 
L 832.538943 634.37875 
L 832.538943 446.983911 
L 817.025148 446.983911 
z
" clip-path="url(#pcae63025eb)" style="fill: #1f77b4; stroke: #ffffff; stroke-width: 0.5; stroke-linejoin: miter"/>
   </g>
   <g id="patch_101">
    <path d="M 832.538943 634.37875 
L 848.052739 634.37875 
L 848.052739 473.678333 
L 832.538943 473.678333 
z
" clip-path="url(#pcae63025eb)" style="fill: #1f77b4; stroke: #ffffff; stroke-width: 0.5; stroke-linejoin: miter"/>
   </g>
   <g id="patch_102">
    <path d="M 848.052739 634.37875 
L 863.566534 634.37875 
L 863.566534 489.694985 
L 848.052739 489.694985 
z
" clip-path="url(#pcae63025eb)" style="fill: #1f77b4; stroke: #ffffff; stroke-width: 0.5; stroke-linejoin: miter"/>
   </g>
   <g id="patch_103">
    <path d="M 863.566534 634.37875 
L 879.08033 634.37875 
L 879.08033 484.356101 
L 863.566534 484.356101 
z
" clip-path="url(#pcae63025eb)" style="fill: #1f77b4; stroke: #ffffff; stroke-width: 0.5; stroke-linejoin: miter"/>
   </g>
   <g id="patch_104">
    <path d="M 879.08033 634.37875 
L 894.594125 634.37875 
L 894.594125 430.700314 
L 879.08033 430.700314 
z
" clip-path="url(#pcae63025eb)" style="fill: #1f77b4; stroke: #ffffff; stroke-width: 0.5; stroke-linejoin: miter"/>
   </g>
   <g id="patch_105">
    <path d="M 894.594125 634.37875 
L 910.10792 634.37875 
L 910.10792 470.475002 
L 894.594125 470.475002 
z
" clip-path="url(#pcae63025eb)" style="fill: #1f77b4; stroke: #ffffff; stroke-width: 0.5; stroke-linejoin: miter"/>
   </g>
   <g id="patch_106">
    <path d="M 910.10792 634.37875 
L 925.621716 634.37875 
L 925.621716 502.508308 
L 910.10792 502.508308 
z
" clip-path="url(#pcae63025eb)" style="fill: #1f77b4; stroke: #ffffff; stroke-width: 0.5; stroke-linejoin: miter"/>
   </g>
   <g id="patch_107">
    <path d="M 925.621716 634.37875 
L 941.135511 634.37875 
L 941.135511 514.520797 
L 925.621716 514.520797 
z
" clip-path="url(#pcae63025eb)" style="fill: #1f77b4; stroke: #ffffff; stroke-width: 0.5; stroke-linejoin: miter"/>
   </g>
   <g id="matplotlib.axis_3">
    <g id="xtick_9">
     <g id="line2d_13">
      <g>
       <use xlink:href="#ma83492d6bc" x="165.327526" y="634.37875" style="stroke: #000000; stroke-width: 0.8"/>
      </g>
     </g>
     <g id="text_15">
      <!-- 10% -->
      <g transform="translate(141.498932 659.420313) scale(0.26 -0.26)">
       <use xlink:href="#Cmr10-31"/>
       <use xlink:href="#Cmr10-30" x="50"/>
       <use xlink:href="#Cmr10-25" x="100"/>
      </g>
     </g>
    </g>
    <g id="xtick_10">
     <g id="line2d_14">
      <g>
       <use xlink:href="#ma83492d6bc" x="301.841552" y="634.37875" style="stroke: #000000; stroke-width: 0.8"/>
      </g>
     </g>
     <g id="text_16">
      <!-- 15% -->
      <g transform="translate(278.012958 659.420313) scale(0.26 -0.26)">
       <use xlink:href="#Cmr10-31"/>
       <use xlink:href="#Cmr10-35" x="50"/>
       <use xlink:href="#Cmr10-25" x="100"/>
      </g>
     </g>
    </g>
    <g id="xtick_11">
     <g id="line2d_15">
      <g>
       <use xlink:href="#ma83492d6bc" x="438.355578" y="634.37875" style="stroke: #000000; stroke-width: 0.8"/>
      </g>
     </g>
     <g id="text_17">
      <!-- 20% -->
      <g transform="translate(414.526985 659.420313) scale(0.26 -0.26)">
       <use xlink:href="#Cmr10-32"/>
       <use xlink:href="#Cmr10-30" x="50"/>
       <use xlink:href="#Cmr10-25" x="100"/>
      </g>
     </g>
    </g>
    <g id="xtick_12">
     <g id="line2d_16">
      <g>
       <use xlink:href="#ma83492d6bc" x="574.869604" y="634.37875" style="stroke: #000000; stroke-width: 0.8"/>
      </g>
     </g>
     <g id="text_18">
      <!-- 25% -->
      <g transform="translate(551.041011 659.420313) scale(0.26 -0.26)">
       <use xlink:href="#Cmr10-32"/>
       <use xlink:href="#Cmr10-35" x="50"/>
       <use xlink:href="#Cmr10-25" x="100"/>
      </g>
     </g>
    </g>
    <g id="xtick_13">
     <g id="line2d_17">
      <g>
       <use xlink:href="#ma83492d6bc" x="711.38363" y="634.37875" style="stroke: #000000; stroke-width: 0.8"/>
      </g>
     </g>
     <g id="text_19">
      <!-- 30% -->
      <g transform="translate(687.555037 659.420313) scale(0.26 -0.26)">
       <use xlink:href="#Cmr10-33"/>
       <use xlink:href="#Cmr10-30" x="50"/>
       <use xlink:href="#Cmr10-25" x="100"/>
      </g>
     </g>
    </g>
    <g id="xtick_14">
     <g id="line2d_18">
      <g>
       <use xlink:href="#ma83492d6bc" x="847.897656" y="634.37875" style="stroke: #000000; stroke-width: 0.8"/>
      </g>
     </g>
     <g id="text_20">
      <!-- 35% -->
      <g transform="translate(824.069063 659.420313) scale(0.26 -0.26)">
       <use xlink:href="#Cmr10-33"/>
       <use xlink:href="#Cmr10-35" x="50"/>
       <use xlink:href="#Cmr10-25" x="100"/>
      </g>
     </g>
    </g>
    <g id="text_21">
     <!-- Training data - Granule label size -->
     <g transform="translate(360.417344 686.795938) scale(0.26 -0.26)">
      <defs>
       <path id="Cmr10-54" d="M 1081 0 
L 1081 225 
Q 1403 225 1706 261 
Q 2009 297 2009 428 
L 2009 3944 
Q 2009 4081 1932 4114 
Q 1856 4147 1684 4147 
L 1416 4147 
Q 888 4147 666 3916 
Q 550 3800 500 3545 
Q 450 3291 416 2906 
L 231 2906 
L 353 4372 
L 4263 4372 
L 4384 2906 
L 4197 2906 
Q 4159 3319 4114 3561 
Q 4069 3803 3950 3916 
Q 3725 4147 3200 4147 
L 2931 4147 
Q 2816 4147 2752 4137 
Q 2688 4128 2647 4083 
Q 2606 4038 2606 3944 
L 2606 428 
Q 2606 297 2909 261 
Q 3213 225 3531 225 
L 3531 0 
L 1081 0 
z
" transform="scale(0.015625)"/>
       <path id="Cmr10-67" d="M 178 -500 
Q 178 -272 343 -101 
Q 509 69 738 141 
Q 609 238 542 384 
Q 475 531 475 697 
Q 475 997 666 1228 
Q 372 1516 372 1888 
Q 372 2088 458 2263 
Q 544 2438 697 2566 
Q 850 2694 1037 2761 
Q 1225 2828 1422 2828 
Q 1803 2828 2106 2606 
Q 2238 2747 2417 2823 
Q 2597 2900 2791 2900 
Q 2928 2900 3015 2801 
Q 3103 2703 3103 2566 
Q 3103 2488 3043 2428 
Q 2984 2369 2906 2369 
Q 2825 2369 2765 2428 
Q 2706 2488 2706 2566 
Q 2706 2684 2784 2731 
Q 2453 2731 2216 2503 
Q 2331 2388 2401 2220 
Q 2472 2053 2472 1888 
Q 2472 1616 2322 1398 
Q 2172 1181 1926 1061 
Q 1681 941 1422 941 
Q 1072 941 781 1131 
Q 691 1006 691 850 
Q 691 681 802 554 
Q 913 428 1081 428 
L 1606 428 
Q 1988 428 2294 359 
Q 2600 291 2808 84 
Q 3016 -122 3016 -500 
Q 3016 -781 2778 -967 
Q 2541 -1153 2211 -1236 
Q 1881 -1319 1600 -1319 
Q 1316 -1319 984 -1236 
Q 653 -1153 415 -967 
Q 178 -781 178 -500 
z
M 538 -500 
Q 538 -716 713 -861 
Q 888 -1006 1134 -1076 
Q 1381 -1147 1600 -1147 
Q 1816 -1147 2062 -1076 
Q 2309 -1006 2482 -861 
Q 2656 -716 2656 -500 
Q 2656 -166 2350 -67 
Q 2044 31 1606 31 
L 1081 31 
Q 934 31 811 -39 
Q 688 -109 613 -236 
Q 538 -363 538 -500 
z
M 1422 1113 
Q 1966 1113 1966 1888 
Q 1966 2222 1850 2439 
Q 1734 2656 1422 2656 
Q 1109 2656 993 2439 
Q 878 2222 878 1888 
Q 878 1675 922 1503 
Q 966 1331 1084 1222 
Q 1203 1113 1422 1113 
z
" transform="scale(0.015625)"/>
      </defs>
      <use xlink:href="#Cmr10-54"/>
      <use xlink:href="#Cmr10-72" x="72.216797"/>
      <use xlink:href="#Cmr10-61" x="111.328125"/>
      <use xlink:href="#Cmr10-69" x="161.328125"/>
      <use xlink:href="#Cmr10-6e" x="189.013672"/>
      <use xlink:href="#Cmr10-69" x="244.53125"/>
      <use xlink:href="#Cmr10-6e" x="272.216797"/>
      <use xlink:href="#Cmr10-67" x="327.734375"/>
      <use xlink:href="#Cmr10-20" x="377.734375"/>
      <use xlink:href="#Cmr10-64" x="411.035156"/>
      <use xlink:href="#Cmr10-61" x="466.552734"/>
      <use xlink:href="#Cmr10-74" x="516.552734"/>
      <use xlink:href="#Cmr10-61" x="555.371094"/>
      <use xlink:href="#Cmr10-20" x="605.371094"/>
      <use xlink:href="#Cmr10-2d" x="638.671875"/>
      <use xlink:href="#Cmr10-20" x="671.972656"/>
      <use xlink:href="#Cmr10-47" x="705.273438"/>
      <use xlink:href="#Cmr10-72" x="783.691406"/>
      <use xlink:href="#Cmr10-61" x="822.802734"/>
      <use xlink:href="#Cmr10-6e" x="872.802734"/>
      <use xlink:href="#Cmr10-75" x="928.320312"/>
      <use xlink:href="#Cmr10-6c" x="983.837891"/>
      <use xlink:href="#Cmr10-65" x="1011.523438"/>
      <use xlink:href="#Cmr10-20" x="1055.908203"/>
      <use xlink:href="#Cmr10-6c" x="1089.208984"/>
      <use xlink:href="#Cmr10-61" x="1116.894531"/>
      <use xlink:href="#Cmr10-62" x="1166.894531"/>
      <use xlink:href="#Cmr10-65" x="1222.412109"/>
      <use xlink:href="#Cmr10-6c" x="1266.796875"/>
      <use xlink:href="#Cmr10-20" x="1294.482422"/>
      <use xlink:href="#Cmr10-73" x="1327.783203"/>
      <use xlink:href="#Cmr10-69" x="1367.1875"/>
      <use xlink:href="#Cmr10-7a" x="1394.873047"/>
      <use xlink:href="#Cmr10-65" x="1439.257812"/>
     </g>
    </g>
   </g>
   <g id="matplotlib.axis_4">
    <g id="ytick_5">
     <g id="line2d_19">
      <g>
       <use xlink:href="#m2cd5496b5d" x="126.66125" y="634.37875" style="stroke: #000000; stroke-width: 0.8"/>
      </g>
     </g>
     <g id="text_22">
      <!-- 0 -->
      <g transform="translate(106.66125 643.399531) scale(0.26 -0.26)">
       <use xlink:href="#Cmr10-30"/>
      </g>
     </g>
    </g>
    <g id="ytick_6">
     <g id="line2d_20">
      <g>
       <use xlink:href="#m2cd5496b5d" x="126.66125" y="567.642696" style="stroke: #000000; stroke-width: 0.8"/>
      </g>
     </g>
     <g id="text_23">
      <!-- 250 -->
      <g transform="translate(80.66125 576.663477) scale(0.26 -0.26)">
       <use xlink:href="#Cmr10-32"/>
       <use xlink:href="#Cmr10-35" x="50"/>
       <use xlink:href="#Cmr10-30" x="100"/>
      </g>
     </g>
    </g>
    <g id="ytick_7">
     <g id="line2d_21">
      <g>
       <use xlink:href="#m2cd5496b5d" x="126.66125" y="500.906642" style="stroke: #000000; stroke-width: 0.8"/>
      </g>
     </g>
     <g id="text_24">
      <!-- 500 -->
      <g transform="translate(80.66125 509.927424) scale(0.26 -0.26)">
       <use xlink:href="#Cmr10-35"/>
       <use xlink:href="#Cmr10-30" x="50"/>
       <use xlink:href="#Cmr10-30" x="100"/>
      </g>
     </g>
    </g>
    <g id="ytick_8">
     <g id="line2d_22">
      <g>
       <use xlink:href="#m2cd5496b5d" x="126.66125" y="434.170589" style="stroke: #000000; stroke-width: 0.8"/>
      </g>
     </g>
     <g id="text_25">
      <!-- 750 -->
      <g transform="translate(80.66125 443.19137) scale(0.26 -0.26)">
       <defs>
        <path id="Cmr10-37" d="M 1113 166 
Q 1113 522 1175 862 
Q 1238 1203 1358 1536 
Q 1478 1869 1648 2189 
Q 1819 2509 2022 2791 
L 2606 3603 
L 1875 3603 
Q 738 3603 703 3572 
Q 619 3469 544 2981 
L 359 2981 
L 569 4325 
L 756 4325 
L 756 4306 
Q 756 4191 1147 4156 
Q 1538 4122 1913 4122 
L 3103 4122 
L 3103 3956 
Q 3103 3950 3101 3947 
Q 3100 3944 3097 3938 
L 2216 2700 
Q 1891 2219 1809 1631 
Q 1728 1044 1728 166 
Q 1728 41 1637 -50 
Q 1547 -141 1422 -141 
Q 1294 -141 1203 -50 
Q 1113 41 1113 166 
z
" transform="scale(0.015625)"/>
       </defs>
       <use xlink:href="#Cmr10-37"/>
       <use xlink:href="#Cmr10-35" x="50"/>
       <use xlink:href="#Cmr10-30" x="100"/>
      </g>
     </g>
    </g>
    <g id="text_26">
     <!-- Count -->
     <g transform="translate(71.619687 540.952965) rotate(-90) scale(0.26 -0.26)">
      <use xlink:href="#Cmr10-43"/>
      <use xlink:href="#Cmr10-6f" x="72.216797"/>
      <use xlink:href="#Cmr10-75" x="122.216797"/>
      <use xlink:href="#Cmr10-6e" x="177.734375"/>
      <use xlink:href="#Cmr10-74" x="233.251953"/>
     </g>
    </g>
   </g>
   <g id="patch_108">
    <path d="M 126.66125 634.37875 
L 126.66125 376.79093 
" style="fill: none; stroke: #000000; stroke-width: 0.8; stroke-linejoin: miter; stroke-linecap: square"/>
   </g>
   <g id="patch_109">
    <path d="M 979.92 634.37875 
L 979.92 376.79093 
" style="fill: none; stroke: #000000; stroke-width: 0.8; stroke-linejoin: miter; stroke-linecap: square"/>
   </g>
   <g id="patch_110">
    <path d="M 126.66125 634.37875 
L 979.92 634.37875 
" style="fill: none; stroke: #000000; stroke-width: 0.8; stroke-linejoin: miter; stroke-linecap: square"/>
   </g>
   <g id="patch_111">
    <path d="M 126.66125 376.79093 
L 979.92 376.79093 
" style="fill: none; stroke: #000000; stroke-width: 0.8; stroke-linejoin: miter; stroke-linecap: square"/>
   </g>
   <g id="text_27">
    <!-- B -->
    <g transform="translate(135.193838 402.549712) scale(0.35 -0.35)">
     <defs>
      <path id="Cmr10-42" d="M 219 0 
L 219 225 
Q 878 225 878 428 
L 878 3944 
Q 878 4147 219 4147 
L 219 4372 
L 2572 4372 
Q 2897 4372 3228 4245 
Q 3559 4119 3776 3870 
Q 3994 3622 3994 3284 
Q 3994 2894 3673 2630 
Q 3353 2366 2925 2284 
Q 3203 2284 3497 2131 
Q 3791 1978 3978 1722 
Q 4166 1466 4166 1178 
Q 4166 828 3958 559 
Q 3750 291 3419 145 
Q 3088 0 2753 0 
L 219 0 
z
M 1434 428 
Q 1434 291 1512 258 
Q 1591 225 1759 225 
L 2572 225 
Q 2822 225 3036 356 
Q 3250 488 3375 708 
Q 3500 928 3500 1178 
Q 3500 1422 3397 1655 
Q 3294 1888 3101 2038 
Q 2909 2188 2663 2188 
L 1434 2188 
L 1434 428 
z
M 1434 2356 
L 2394 2356 
Q 2588 2356 2758 2426 
Q 2928 2497 3064 2630 
Q 3200 2763 3273 2930 
Q 3347 3097 3347 3284 
Q 3347 3450 3292 3603 
Q 3238 3756 3131 3881 
Q 3025 4006 2881 4076 
Q 2738 4147 2572 4147 
L 1759 4147 
Q 1644 4147 1580 4137 
Q 1516 4128 1475 4083 
Q 1434 4038 1434 3944 
L 1434 2356 
z
" transform="scale(0.015625)"/>
     </defs>
     <use xlink:href="#Cmr10-42"/>
    </g>
   </g>
  </g>
 </g>
 <defs>
  <clipPath id="p76e4a1a8bb">
   <rect x="126.66125" y="34.560609" width="853.25875" height="257.58782"/>
  </clipPath>
  <clipPath id="pcae63025eb">
   <rect x="126.66125" y="376.79093" width="853.25875" height="257.58782"/>
  </clipPath>
 </defs>
</svg>
