<?xml version="1.0" encoding="utf-8" standalone="no"?>
<!DOCTYPE svg PUBLIC "-//W3C//DTD SVG 1.1//EN"
  "http://www.w3.org/Graphics/SVG/1.1/DTD/svg11.dtd">
<svg xmlns:xlink="http://www.w3.org/1999/xlink" width="864pt" height="432pt" viewBox="0 0 864 432" xmlns="http://www.w3.org/2000/svg" version="1.1">
 <metadata>
  <rdf:RDF xmlns:dc="http://purl.org/dc/elements/1.1/" xmlns:cc="http://creativecommons.org/ns#" xmlns:rdf="http://www.w3.org/1999/02/22-rdf-syntax-ns#">
   <cc:Work>
    <dc:type rdf:resource="http://purl.org/dc/dcmitype/StillImage"/>
    <dc:date>2024-06-13T19:29:43.391833</dc:date>
    <dc:format>image/svg+xml</dc:format>
    <dc:creator>
     <cc:Agent>
      <dc:title>Matplotlib v3.8.0, https://matplotlib.org/</dc:title>
     </cc:Agent>
    </dc:creator>
   </cc:Work>
  </rdf:RDF>
 </metadata>
 <defs>
  <style type="text/css">*{stroke-linejoin: round; stroke-linecap: butt}</style>
 </defs>
 <g id="figure_1">
  <g id="patch_1">
   <path d="M 0 432 
L 864 432 
L 864 0 
L 0 0 
z
" style="fill: #ffffff"/>
  </g>
  <g id="axes_1">
   <g id="patch_2">
    <path d="M 102.083365 368.916635 
L 860.99976 368.916635 
L 860.99976 8.606235 
L 102.083365 8.606235 
z
" style="fill: #ffffff"/>
   </g>
   <g id="patch_3">
    <path d="M 136.579565 368.916635 
L 150.378045 368.916635 
L 150.378045 359.61362 
L 136.579565 359.61362 
z
" clip-path="url(#peefe99a72d)" style="fill: #1f77b4; stroke: #ffffff; stroke-width: 0.5; stroke-linejoin: miter"/>
   </g>
   <g id="patch_4">
    <path d="M 150.378045 368.916635 
L 164.176525 368.916635 
L 164.176525 354.640909 
L 150.378045 354.640909 
z
" clip-path="url(#peefe99a72d)" style="fill: #1f77b4; stroke: #ffffff; stroke-width: 0.5; stroke-linejoin: miter"/>
   </g>
   <g id="patch_5">
    <path d="M 164.176525 368.916635 
L 177.975005 368.916635 
L 177.975005 345.433066 
L 164.176525 345.433066 
z
" clip-path="url(#peefe99a72d)" style="fill: #1f77b4; stroke: #ffffff; stroke-width: 0.5; stroke-linejoin: miter"/>
   </g>
   <g id="patch_6">
    <path d="M 177.975004 368.916635 
L 191.773484 368.916635 
L 191.773484 327.862027 
L 177.975004 327.862027 
z
" clip-path="url(#peefe99a72d)" style="fill: #1f77b4; stroke: #ffffff; stroke-width: 0.5; stroke-linejoin: miter"/>
   </g>
   <g id="patch_7">
    <path d="M 191.773484 368.916635 
L 205.571964 368.916635 
L 205.571964 297.466627 
L 191.773484 297.466627 
z
" clip-path="url(#peefe99a72d)" style="fill: #1f77b4; stroke: #ffffff; stroke-width: 0.5; stroke-linejoin: miter"/>
   </g>
   <g id="patch_8">
    <path d="M 205.571964 368.916635 
L 219.370444 368.916635 
L 219.370444 249.35743 
L 205.571964 249.35743 
z
" clip-path="url(#peefe99a72d)" style="fill: #1f77b4; stroke: #ffffff; stroke-width: 0.5; stroke-linejoin: miter"/>
   </g>
   <g id="patch_9">
    <path d="M 219.370444 368.916635 
L 233.168924 368.916635 
L 233.168924 190.957815 
L 219.370444 190.957815 
z
" clip-path="url(#peefe99a72d)" style="fill: #1f77b4; stroke: #ffffff; stroke-width: 0.5; stroke-linejoin: miter"/>
   </g>
   <g id="patch_10">
    <path d="M 233.168924 368.916635 
L 246.967404 368.916635 
L 246.967404 115.724739 
L 233.168924 115.724739 
z
" clip-path="url(#peefe99a72d)" style="fill: #1f77b4; stroke: #ffffff; stroke-width: 0.5; stroke-linejoin: miter"/>
   </g>
   <g id="patch_11">
    <path d="M 246.967404 368.916635 
L 260.765884 368.916635 
L 260.765884 57.622535 
L 246.967404 57.622535 
z
" clip-path="url(#peefe99a72d)" style="fill: #1f77b4; stroke: #ffffff; stroke-width: 0.5; stroke-linejoin: miter"/>
   </g>
   <g id="patch_12">
    <path d="M 260.765884 368.916635 
L 274.564364 368.916635 
L 274.564364 32.3545 
L 260.765884 32.3545 
z
" clip-path="url(#peefe99a72d)" style="fill: #1f77b4; stroke: #ffffff; stroke-width: 0.5; stroke-linejoin: miter"/>
   </g>
   <g id="patch_13">
    <path d="M 274.564364 368.916635 
L 288.362844 368.916635 
L 288.362844 25.763873 
L 274.564364 25.763873 
z
" clip-path="url(#peefe99a72d)" style="fill: #1f77b4; stroke: #ffffff; stroke-width: 0.5; stroke-linejoin: miter"/>
   </g>
   <g id="patch_14">
    <path d="M 288.362844 368.916635 
L 302.161324 368.916635 
L 302.161324 35.257231 
L 288.362844 35.257231 
z
" clip-path="url(#peefe99a72d)" style="fill: #1f77b4; stroke: #ffffff; stroke-width: 0.5; stroke-linejoin: miter"/>
   </g>
   <g id="patch_15">
    <path d="M 302.161324 368.916635 
L 315.959804 368.916635 
L 315.959804 51.781384 
L 302.161324 51.781384 
z
" clip-path="url(#peefe99a72d)" style="fill: #1f77b4; stroke: #ffffff; stroke-width: 0.5; stroke-linejoin: miter"/>
   </g>
   <g id="patch_16">
    <path d="M 315.959804 368.916635 
L 329.758284 368.916635 
L 329.758284 82.438505 
L 315.959804 82.438505 
z
" clip-path="url(#peefe99a72d)" style="fill: #1f77b4; stroke: #ffffff; stroke-width: 0.5; stroke-linejoin: miter"/>
   </g>
   <g id="patch_17">
    <path d="M 329.758283 368.916635 
L 343.556763 368.916635 
L 343.556763 103.376236 
L 329.758283 103.376236 
z
" clip-path="url(#peefe99a72d)" style="fill: #1f77b4; stroke: #ffffff; stroke-width: 0.5; stroke-linejoin: miter"/>
   </g>
   <g id="patch_18">
    <path d="M 343.556763 368.916635 
L 357.355243 368.916635 
L 357.355243 119.567289 
L 343.556763 119.567289 
z
" clip-path="url(#peefe99a72d)" style="fill: #1f77b4; stroke: #ffffff; stroke-width: 0.5; stroke-linejoin: miter"/>
   </g>
   <g id="patch_19">
    <path d="M 357.355243 368.916635 
L 371.153723 368.916635 
L 371.153723 138.125733 
L 357.355243 138.125733 
z
" clip-path="url(#peefe99a72d)" style="fill: #1f77b4; stroke: #ffffff; stroke-width: 0.5; stroke-linejoin: miter"/>
   </g>
   <g id="patch_20">
    <path d="M 371.153723 368.916635 
L 384.952203 368.916635 
L 384.952203 153.638688 
L 371.153723 153.638688 
z
" clip-path="url(#peefe99a72d)" style="fill: #1f77b4; stroke: #ffffff; stroke-width: 0.5; stroke-linejoin: miter"/>
   </g>
   <g id="patch_21">
    <path d="M 384.952203 368.916635 
L 398.750683 368.916635 
L 398.750683 174.600212 
L 384.952203 174.600212 
z
" clip-path="url(#peefe99a72d)" style="fill: #1f77b4; stroke: #ffffff; stroke-width: 0.5; stroke-linejoin: miter"/>
   </g>
   <g id="patch_22">
    <path d="M 398.750683 368.916635 
L 412.549163 368.916635 
L 412.549163 191.457465 
L 398.750683 191.457465 
z
" clip-path="url(#peefe99a72d)" style="fill: #1f77b4; stroke: #ffffff; stroke-width: 0.5; stroke-linejoin: miter"/>
   </g>
   <g id="patch_23">
    <path d="M 412.549163 368.916635 
L 426.347643 368.916635 
L 426.347643 207.553346 
L 412.549163 207.553346 
z
" clip-path="url(#peefe99a72d)" style="fill: #1f77b4; stroke: #ffffff; stroke-width: 0.5; stroke-linejoin: miter"/>
   </g>
   <g id="patch_24">
    <path d="M 426.347643 368.916635 
L 440.146123 368.916635 
L 440.146123 215.999817 
L 426.347643 215.999817 
z
" clip-path="url(#peefe99a72d)" style="fill: #1f77b4; stroke: #ffffff; stroke-width: 0.5; stroke-linejoin: miter"/>
   </g>
   <g id="patch_25">
    <path d="M 440.146123 368.916635 
L 453.944603 368.916635 
L 453.944603 230.465886 
L 440.146123 230.465886 
z
" clip-path="url(#peefe99a72d)" style="fill: #1f77b4; stroke: #ffffff; stroke-width: 0.5; stroke-linejoin: miter"/>
   </g>
   <g id="patch_26">
    <path d="M 453.944603 368.916635 
L 467.743083 368.916635 
L 467.743083 246.062117 
L 453.944603 246.062117 
z
" clip-path="url(#peefe99a72d)" style="fill: #1f77b4; stroke: #ffffff; stroke-width: 0.5; stroke-linejoin: miter"/>
   </g>
   <g id="patch_27">
    <path d="M 467.743083 368.916635 
L 481.541563 368.916635 
L 481.541563 258.148898 
L 467.743083 258.148898 
z
" clip-path="url(#peefe99a72d)" style="fill: #1f77b4; stroke: #ffffff; stroke-width: 0.5; stroke-linejoin: miter"/>
   </g>
   <g id="patch_28">
    <path d="M 481.541562 368.916635 
L 495.340042 368.916635 
L 495.340042 266.785712 
L 481.541562 266.785712 
z
" clip-path="url(#peefe99a72d)" style="fill: #1f77b4; stroke: #ffffff; stroke-width: 0.5; stroke-linejoin: miter"/>
   </g>
   <g id="patch_29">
    <path d="M 495.340042 368.916635 
L 509.138522 368.916635 
L 509.138522 276.029245 
L 495.340042 276.029245 
z
" clip-path="url(#peefe99a72d)" style="fill: #1f77b4; stroke: #ffffff; stroke-width: 0.5; stroke-linejoin: miter"/>
   </g>
   <g id="patch_30">
    <path d="M 509.138522 368.916635 
L 522.937002 368.916635 
L 522.937002 290.768932 
L 509.138522 290.768932 
z
" clip-path="url(#peefe99a72d)" style="fill: #1f77b4; stroke: #ffffff; stroke-width: 0.5; stroke-linejoin: miter"/>
   </g>
   <g id="patch_31">
    <path d="M 522.937002 368.916635 
L 536.735482 368.916635 
L 536.735482 303.640878 
L 522.937002 303.640878 
z
" clip-path="url(#peefe99a72d)" style="fill: #1f77b4; stroke: #ffffff; stroke-width: 0.5; stroke-linejoin: miter"/>
   </g>
   <g id="patch_32">
    <path d="M 536.735482 368.916635 
L 550.533962 368.916635 
L 550.533962 313.324579 
L 536.735482 313.324579 
z
" clip-path="url(#peefe99a72d)" style="fill: #1f77b4; stroke: #ffffff; stroke-width: 0.5; stroke-linejoin: miter"/>
   </g>
   <g id="patch_33">
    <path d="M 550.533962 368.916635 
L 564.332442 368.916635 
L 564.332442 320.069859 
L 550.533962 320.069859 
z
" clip-path="url(#peefe99a72d)" style="fill: #1f77b4; stroke: #ffffff; stroke-width: 0.5; stroke-linejoin: miter"/>
   </g>
   <g id="patch_34">
    <path d="M 564.332442 368.916635 
L 578.130922 368.916635 
L 578.130922 321.699671 
L 564.332442 321.699671 
z
" clip-path="url(#peefe99a72d)" style="fill: #1f77b4; stroke: #ffffff; stroke-width: 0.5; stroke-linejoin: miter"/>
   </g>
   <g id="patch_35">
    <path d="M 578.130922 368.916635 
L 591.929402 368.916635 
L 591.929402 327.076862 
L 578.130922 327.076862 
z
" clip-path="url(#peefe99a72d)" style="fill: #1f77b4; stroke: #ffffff; stroke-width: 0.5; stroke-linejoin: miter"/>
   </g>
   <g id="patch_36">
    <path d="M 591.929402 368.916635 
L 605.727882 368.916635 
L 605.727882 323.924305 
L 591.929402 323.924305 
z
" clip-path="url(#peefe99a72d)" style="fill: #1f77b4; stroke: #ffffff; stroke-width: 0.5; stroke-linejoin: miter"/>
   </g>
   <g id="patch_37">
    <path d="M 605.727882 368.916635 
L 619.526362 368.916635 
L 619.526362 333.964899 
L 605.727882 333.964899 
z
" clip-path="url(#peefe99a72d)" style="fill: #1f77b4; stroke: #ffffff; stroke-width: 0.5; stroke-linejoin: miter"/>
   </g>
   <g id="patch_38">
    <path d="M 619.526362 368.916635 
L 633.324842 368.916635 
L 633.324842 341.91172 
L 619.526362 341.91172 
z
" clip-path="url(#peefe99a72d)" style="fill: #1f77b4; stroke: #ffffff; stroke-width: 0.5; stroke-linejoin: miter"/>
   </g>
   <g id="patch_39">
    <path d="M 633.324842 368.916635 
L 647.123321 368.916635 
L 647.123321 345.016691 
L 633.324842 345.016691 
z
" clip-path="url(#peefe99a72d)" style="fill: #1f77b4; stroke: #ffffff; stroke-width: 0.5; stroke-linejoin: miter"/>
   </g>
   <g id="patch_40">
    <path d="M 647.123321 368.916635 
L 660.921801 368.916635 
L 660.921801 348.645104 
L 647.123321 348.645104 
z
" clip-path="url(#peefe99a72d)" style="fill: #1f77b4; stroke: #ffffff; stroke-width: 0.5; stroke-linejoin: miter"/>
   </g>
   <g id="patch_41">
    <path d="M 660.921801 368.916635 
L 674.720281 368.916635 
L 674.720281 354.129362 
L 660.921801 354.129362 
z
" clip-path="url(#peefe99a72d)" style="fill: #1f77b4; stroke: #ffffff; stroke-width: 0.5; stroke-linejoin: miter"/>
   </g>
   <g id="patch_42">
    <path d="M 674.720281 368.916635 
L 688.518761 368.916635 
L 688.518761 357.829155 
L 674.720281 357.829155 
z
" clip-path="url(#peefe99a72d)" style="fill: #1f77b4; stroke: #ffffff; stroke-width: 0.5; stroke-linejoin: miter"/>
   </g>
   <g id="patch_43">
    <path d="M 688.518761 368.916635 
L 702.317241 368.916635 
L 702.317241 360.493957 
L 688.518761 360.493957 
z
" clip-path="url(#peefe99a72d)" style="fill: #1f77b4; stroke: #ffffff; stroke-width: 0.5; stroke-linejoin: miter"/>
   </g>
   <g id="patch_44">
    <path d="M 702.317241 368.916635 
L 716.115721 368.916635 
L 716.115721 360.708093 
L 702.317241 360.708093 
z
" clip-path="url(#peefe99a72d)" style="fill: #1f77b4; stroke: #ffffff; stroke-width: 0.5; stroke-linejoin: miter"/>
   </g>
   <g id="patch_45">
    <path d="M 716.115721 368.916635 
L 729.914201 368.916635 
L 729.914201 360.898436 
L 716.115721 360.898436 
z
" clip-path="url(#peefe99a72d)" style="fill: #1f77b4; stroke: #ffffff; stroke-width: 0.5; stroke-linejoin: miter"/>
   </g>
   <g id="patch_46">
    <path d="M 729.914201 368.916635 
L 743.712681 368.916635 
L 743.712681 365.716493 
L 729.914201 365.716493 
z
" clip-path="url(#peefe99a72d)" style="fill: #1f77b4; stroke: #ffffff; stroke-width: 0.5; stroke-linejoin: miter"/>
   </g>
   <g id="patch_47">
    <path d="M 743.712681 368.916635 
L 757.511161 368.916635 
L 757.511161 366.680105 
L 743.712681 366.680105 
z
" clip-path="url(#peefe99a72d)" style="fill: #1f77b4; stroke: #ffffff; stroke-width: 0.5; stroke-linejoin: miter"/>
   </g>
   <g id="patch_48">
    <path d="M 757.511161 368.916635 
L 771.309641 368.916635 
L 771.309641 368.393192 
L 757.511161 368.393192 
z
" clip-path="url(#peefe99a72d)" style="fill: #1f77b4; stroke: #ffffff; stroke-width: 0.5; stroke-linejoin: miter"/>
   </g>
   <g id="patch_49">
    <path d="M 771.309641 368.916635 
L 785.10812 368.916635 
L 785.10812 368.524053 
L 771.309641 368.524053 
z
" clip-path="url(#peefe99a72d)" style="fill: #1f77b4; stroke: #ffffff; stroke-width: 0.5; stroke-linejoin: miter"/>
   </g>
   <g id="patch_50">
    <path d="M 785.108121 368.916635 
L 798.9066 368.916635 
L 798.9066 368.535949 
L 785.108121 368.535949 
z
" clip-path="url(#peefe99a72d)" style="fill: #1f77b4; stroke: #ffffff; stroke-width: 0.5; stroke-linejoin: miter"/>
   </g>
   <g id="patch_51">
    <path d="M 798.9066 368.916635 
L 812.70508 368.916635 
L 812.70508 368.321813 
L 798.9066 368.321813 
z
" clip-path="url(#peefe99a72d)" style="fill: #1f77b4; stroke: #ffffff; stroke-width: 0.5; stroke-linejoin: miter"/>
   </g>
   <g id="patch_52">
    <path d="M 812.70508 368.916635 
L 826.50356 368.916635 
L 826.50356 368.785774 
L 812.70508 368.785774 
z
" clip-path="url(#peefe99a72d)" style="fill: #1f77b4; stroke: #ffffff; stroke-width: 0.5; stroke-linejoin: miter"/>
   </g>
   <g id="matplotlib.axis_1">
    <g id="xtick_1">
     <g id="line2d_1">
      <defs>
       <path id="m9189af5094" d="M 0 0 
L 0 3.5 
" style="stroke: #000000; stroke-width: 0.8"/>
      </defs>
      <g>
       <use xlink:href="#m9189af5094" x="136.494267" y="368.916635" style="stroke: #000000; stroke-width: 0.8"/>
      </g>
     </g>
     <g id="text_1">
      <!-- 0.10 -->
      <g transform="translate(113.394892 393.958197) scale(0.26 -0.26)">
       <defs>
        <path id="Cmr10-30" d="M 1600 -141 
Q 816 -141 533 504 
Q 250 1150 250 2041 
Q 250 2597 351 3087 
Q 453 3578 754 3920 
Q 1056 4263 1600 4263 
Q 2022 4263 2290 4056 
Q 2559 3850 2700 3523 
Q 2841 3197 2892 2823 
Q 2944 2450 2944 2041 
Q 2944 1491 2842 1011 
Q 2741 531 2444 195 
Q 2147 -141 1600 -141 
z
M 1600 25 
Q 1956 25 2131 390 
Q 2306 756 2347 1200 
Q 2388 1644 2388 2144 
Q 2388 2625 2347 3031 
Q 2306 3438 2132 3767 
Q 1959 4097 1600 4097 
Q 1238 4097 1063 3765 
Q 888 3434 847 3029 
Q 806 2625 806 2144 
Q 806 1788 823 1472 
Q 841 1156 916 820 
Q 991 484 1158 254 
Q 1325 25 1600 25 
z
" transform="scale(0.015625)"/>
        <path id="Cmr10-2e" d="M 538 353 
Q 538 497 644 600 
Q 750 703 891 703 
Q 978 703 1062 656 
Q 1147 609 1194 525 
Q 1241 441 1241 353 
Q 1241 213 1137 106 
Q 1034 0 891 0 
Q 750 0 644 106 
Q 538 213 538 353 
z
" transform="scale(0.015625)"/>
        <path id="Cmr10-31" d="M 594 0 
L 594 225 
Q 1394 225 1394 428 
L 1394 3788 
Q 1063 3628 556 3628 
L 556 3853 
Q 1341 3853 1741 4263 
L 1831 4263 
Q 1853 4263 1873 4245 
Q 1894 4228 1894 4206 
L 1894 428 
Q 1894 225 2694 225 
L 2694 0 
L 594 0 
z
" transform="scale(0.015625)"/>
       </defs>
       <use xlink:href="#Cmr10-30"/>
       <use xlink:href="#Cmr10-2e" x="50"/>
       <use xlink:href="#Cmr10-31" x="77.685547"/>
       <use xlink:href="#Cmr10-30" x="127.685547"/>
      </g>
     </g>
    </g>
    <g id="xtick_2">
     <g id="line2d_2">
      <g>
       <use xlink:href="#m9189af5094" x="234.997829" y="368.916635" style="stroke: #000000; stroke-width: 0.8"/>
      </g>
     </g>
     <g id="text_2">
      <!-- 0.15 -->
      <g transform="translate(211.898454 393.958197) scale(0.26 -0.26)">
       <defs>
        <path id="Cmr10-35" d="M 556 728 
Q 622 541 758 387 
Q 894 234 1080 148 
Q 1266 63 1466 63 
Q 1928 63 2103 422 
Q 2278 781 2278 1294 
Q 2278 1516 2270 1667 
Q 2263 1819 2228 1959 
Q 2169 2184 2020 2353 
Q 1872 2522 1656 2522 
Q 1441 2522 1286 2456 
Q 1131 2391 1034 2303 
Q 938 2216 863 2119 
Q 788 2022 769 2016 
L 697 2016 
Q 681 2016 657 2036 
Q 634 2056 634 2075 
L 634 4213 
Q 634 4228 654 4245 
Q 675 4263 697 4263 
L 716 4263 
Q 1147 4056 1631 4056 
Q 2106 4056 2547 4263 
L 2566 4263 
Q 2588 4263 2606 4247 
Q 2625 4231 2625 4213 
L 2625 4153 
Q 2625 4122 2613 4122 
Q 2394 3831 2064 3668 
Q 1734 3506 1381 3506 
Q 1125 3506 856 3578 
L 856 2369 
Q 1069 2541 1236 2614 
Q 1403 2688 1663 2688 
Q 2016 2688 2295 2484 
Q 2575 2281 2725 1954 
Q 2875 1628 2875 1288 
Q 2875 903 2686 575 
Q 2497 247 2172 53 
Q 1847 -141 1466 -141 
Q 1150 -141 886 21 
Q 622 184 470 459 
Q 319 734 319 1044 
Q 319 1188 412 1278 
Q 506 1369 647 1369 
Q 788 1369 883 1276 
Q 978 1184 978 1044 
Q 978 906 883 811 
Q 788 716 647 716 
Q 625 716 597 720 
Q 569 725 556 728 
z
" transform="scale(0.015625)"/>
       </defs>
       <use xlink:href="#Cmr10-30"/>
       <use xlink:href="#Cmr10-2e" x="50"/>
       <use xlink:href="#Cmr10-31" x="77.685547"/>
       <use xlink:href="#Cmr10-35" x="127.685547"/>
      </g>
     </g>
    </g>
    <g id="xtick_3">
     <g id="line2d_3">
      <g>
       <use xlink:href="#m9189af5094" x="333.501392" y="368.916635" style="stroke: #000000; stroke-width: 0.8"/>
      </g>
     </g>
     <g id="text_3">
      <!-- 0.20 -->
      <g transform="translate(310.402017 393.958197) scale(0.26 -0.26)">
       <defs>
        <path id="Cmr10-32" d="M 319 0 
L 319 172 
Q 319 188 331 206 
L 1325 1306 
Q 1550 1550 1690 1715 
Q 1831 1881 1968 2097 
Q 2106 2313 2186 2536 
Q 2266 2759 2266 3009 
Q 2266 3272 2169 3511 
Q 2072 3750 1880 3894 
Q 1688 4038 1416 4038 
Q 1138 4038 916 3870 
Q 694 3703 603 3438 
Q 628 3444 672 3444 
Q 816 3444 917 3347 
Q 1019 3250 1019 3097 
Q 1019 2950 917 2848 
Q 816 2747 672 2747 
Q 522 2747 420 2851 
Q 319 2956 319 3097 
Q 319 3338 409 3548 
Q 500 3759 670 3923 
Q 841 4088 1055 4175 
Q 1269 4263 1509 4263 
Q 1875 4263 2190 4108 
Q 2506 3953 2690 3670 
Q 2875 3388 2875 3009 
Q 2875 2731 2753 2481 
Q 2631 2231 2440 2026 
Q 2250 1822 1953 1562 
Q 1656 1303 1563 1216 
L 838 519 
L 1453 519 
Q 1906 519 2211 526 
Q 2516 534 2534 550 
Q 2609 631 2688 1141 
L 2875 1141 
L 2694 0 
L 319 0 
z
" transform="scale(0.015625)"/>
       </defs>
       <use xlink:href="#Cmr10-30"/>
       <use xlink:href="#Cmr10-2e" x="50"/>
       <use xlink:href="#Cmr10-32" x="77.685547"/>
       <use xlink:href="#Cmr10-30" x="127.685547"/>
      </g>
     </g>
    </g>
    <g id="xtick_4">
     <g id="line2d_4">
      <g>
       <use xlink:href="#m9189af5094" x="432.004954" y="368.916635" style="stroke: #000000; stroke-width: 0.8"/>
      </g>
     </g>
     <g id="text_4">
      <!-- 0.25 -->
      <g transform="translate(408.905579 393.958197) scale(0.26 -0.26)">
       <use xlink:href="#Cmr10-30"/>
       <use xlink:href="#Cmr10-2e" x="50"/>
       <use xlink:href="#Cmr10-32" x="77.685547"/>
       <use xlink:href="#Cmr10-35" x="127.685547"/>
      </g>
     </g>
    </g>
    <g id="xtick_5">
     <g id="line2d_5">
      <g>
       <use xlink:href="#m9189af5094" x="530.508517" y="368.916635" style="stroke: #000000; stroke-width: 0.8"/>
      </g>
     </g>
     <g id="text_5">
      <!-- 0.30 -->
      <g transform="translate(507.409142 393.958197) scale(0.26 -0.26)">
       <defs>
        <path id="Cmr10-33" d="M 609 494 
Q 759 275 1012 169 
Q 1266 63 1556 63 
Q 1928 63 2084 380 
Q 2241 697 2241 1100 
Q 2241 1281 2208 1462 
Q 2175 1644 2097 1800 
Q 2019 1956 1883 2050 
Q 1747 2144 1550 2144 
L 1125 2144 
Q 1069 2144 1069 2203 
L 1069 2259 
Q 1069 2309 1125 2309 
L 1478 2338 
Q 1703 2338 1851 2506 
Q 2000 2675 2069 2917 
Q 2138 3159 2138 3378 
Q 2138 3684 1994 3881 
Q 1850 4078 1556 4078 
Q 1313 4078 1091 3986 
Q 869 3894 738 3706 
Q 750 3709 759 3711 
Q 769 3713 781 3713 
Q 925 3713 1022 3613 
Q 1119 3513 1119 3372 
Q 1119 3234 1022 3134 
Q 925 3034 781 3034 
Q 641 3034 541 3134 
Q 441 3234 441 3372 
Q 441 3647 606 3850 
Q 772 4053 1033 4158 
Q 1294 4263 1556 4263 
Q 1750 4263 1965 4205 
Q 2181 4147 2356 4039 
Q 2531 3931 2642 3762 
Q 2753 3594 2753 3378 
Q 2753 3109 2633 2881 
Q 2513 2653 2303 2487 
Q 2094 2322 1844 2241 
Q 2122 2188 2372 2031 
Q 2622 1875 2773 1631 
Q 2925 1388 2925 1106 
Q 2925 753 2731 467 
Q 2538 181 2222 20 
Q 1906 -141 1556 -141 
Q 1256 -141 954 -26 
Q 653 88 461 316 
Q 269 544 269 863 
Q 269 1022 375 1128 
Q 481 1234 641 1234 
Q 744 1234 830 1186 
Q 916 1138 964 1050 
Q 1013 963 1013 863 
Q 1013 706 903 600 
Q 794 494 641 494 
L 609 494 
z
" transform="scale(0.015625)"/>
       </defs>
       <use xlink:href="#Cmr10-30"/>
       <use xlink:href="#Cmr10-2e" x="50"/>
       <use xlink:href="#Cmr10-33" x="77.685547"/>
       <use xlink:href="#Cmr10-30" x="127.685547"/>
      </g>
     </g>
    </g>
    <g id="xtick_6">
     <g id="line2d_6">
      <g>
       <use xlink:href="#m9189af5094" x="629.012079" y="368.916635" style="stroke: #000000; stroke-width: 0.8"/>
      </g>
     </g>
     <g id="text_6">
      <!-- 0.35 -->
      <g transform="translate(605.912704 393.958197) scale(0.26 -0.26)">
       <use xlink:href="#Cmr10-30"/>
       <use xlink:href="#Cmr10-2e" x="50"/>
       <use xlink:href="#Cmr10-33" x="77.685547"/>
       <use xlink:href="#Cmr10-35" x="127.685547"/>
      </g>
     </g>
    </g>
    <g id="xtick_7">
     <g id="line2d_7">
      <g>
       <use xlink:href="#m9189af5094" x="727.515642" y="368.916635" style="stroke: #000000; stroke-width: 0.8"/>
      </g>
     </g>
     <g id="text_7">
      <!-- 0.40 -->
      <g transform="translate(704.416267 393.958197) scale(0.26 -0.26)">
       <defs>
        <path id="Cmr10-34" d="M 178 1056 
L 178 1281 
L 2156 4231 
Q 2178 4263 2222 4263 
L 2316 4263 
Q 2388 4263 2388 4191 
L 2388 1281 
L 3016 1281 
L 3016 1056 
L 2388 1056 
L 2388 428 
Q 2388 297 2575 261 
Q 2763 225 3009 225 
L 3009 0 
L 1247 0 
L 1247 225 
Q 1494 225 1681 261 
Q 1869 297 1869 428 
L 1869 1056 
L 178 1056 
z
M 391 1281 
L 1906 1281 
L 1906 3547 
L 391 1281 
z
" transform="scale(0.015625)"/>
       </defs>
       <use xlink:href="#Cmr10-30"/>
       <use xlink:href="#Cmr10-2e" x="50"/>
       <use xlink:href="#Cmr10-34" x="77.685547"/>
       <use xlink:href="#Cmr10-30" x="127.685547"/>
      </g>
     </g>
    </g>
    <g id="xtick_8">
     <g id="line2d_8">
      <g>
       <use xlink:href="#m9189af5094" x="826.019204" y="368.916635" style="stroke: #000000; stroke-width: 0.8"/>
      </g>
     </g>
     <g id="text_8">
      <!-- 0.45 -->
      <g transform="translate(802.919829 393.958197) scale(0.26 -0.26)">
       <use xlink:href="#Cmr10-30"/>
       <use xlink:href="#Cmr10-2e" x="50"/>
       <use xlink:href="#Cmr10-34" x="77.685547"/>
       <use xlink:href="#Cmr10-35" x="127.685547"/>
      </g>
     </g>
    </g>
    <g id="text_9">
     <!-- Granule label size (%) -->
     <g transform="translate(355.102344 422.49976) scale(0.26 -0.26)">
      <defs>
       <path id="Cmr10-47" d="M 1472 684 
Q 1703 403 2036 243 
Q 2369 84 2731 84 
Q 3088 84 3378 265 
Q 3669 447 3669 781 
L 3669 1319 
Q 3669 1522 2869 1522 
L 2869 1747 
L 4703 1747 
L 4703 1522 
Q 4500 1522 4381 1487 
Q 4263 1453 4263 1319 
L 4263 56 
Q 4263 34 4245 17 
Q 4228 0 4206 0 
Q 4147 0 4008 140 
Q 3869 281 3788 391 
Q 3631 122 3297 -9 
Q 2963 -141 2597 -141 
Q 1975 -141 1464 179 
Q 953 500 656 1036 
Q 359 1572 359 2188 
Q 359 2641 531 3069 
Q 703 3497 1011 3822 
Q 1319 4147 1728 4330 
Q 2138 4513 2597 4513 
Q 2928 4513 3223 4370 
Q 3519 4228 3750 3969 
L 4122 4494 
Q 4159 4513 4166 4513 
L 4213 4513 
Q 4231 4513 4247 4497 
Q 4263 4481 4263 4459 
L 4263 2731 
Q 4263 2675 4213 2675 
L 4097 2675 
Q 4038 2675 4038 2731 
Q 4038 2916 3964 3144 
Q 3891 3372 3777 3576 
Q 3663 3781 3513 3938 
Q 3153 4288 2688 4288 
Q 2331 4288 2006 4128 
Q 1681 3969 1459 3688 
Q 1225 3388 1134 3005 
Q 1044 2622 1044 2188 
Q 1044 1206 1472 684 
z
" transform="scale(0.015625)"/>
       <path id="Cmr10-72" d="M 166 0 
L 166 225 
Q 384 225 525 259 
Q 666 294 666 428 
L 666 2175 
Q 666 2347 614 2423 
Q 563 2500 466 2517 
Q 369 2534 166 2534 
L 166 2759 
L 1081 2828 
L 1081 2203 
Q 1184 2481 1375 2654 
Q 1566 2828 1838 2828 
Q 2028 2828 2178 2715 
Q 2328 2603 2328 2419 
Q 2328 2303 2245 2217 
Q 2163 2131 2041 2131 
Q 1922 2131 1837 2215 
Q 1753 2300 1753 2419 
Q 1753 2591 1875 2663 
L 1838 2663 
Q 1578 2663 1414 2475 
Q 1250 2288 1181 2009 
Q 1113 1731 1113 1478 
L 1113 428 
Q 1113 225 1734 225 
L 1734 0 
L 166 0 
z
" transform="scale(0.015625)"/>
       <path id="Cmr10-61" d="M 256 628 
Q 256 1009 556 1248 
Q 856 1488 1276 1586 
Q 1697 1684 2075 1684 
L 2075 1947 
Q 2075 2131 1994 2304 
Q 1913 2478 1759 2589 
Q 1606 2700 1422 2700 
Q 997 2700 775 2509 
Q 897 2509 976 2417 
Q 1056 2325 1056 2203 
Q 1056 2075 965 1984 
Q 875 1894 750 1894 
Q 622 1894 531 1984 
Q 441 2075 441 2203 
Q 441 2541 747 2705 
Q 1053 2869 1422 2869 
Q 1681 2869 1943 2758 
Q 2206 2647 2373 2440 
Q 2541 2234 2541 1959 
L 2541 519 
Q 2541 394 2594 289 
Q 2647 184 2759 184 
Q 2866 184 2917 290 
Q 2969 397 2969 519 
L 2969 928 
L 3156 928 
L 3156 519 
Q 3156 375 3081 245 
Q 3006 116 2879 39 
Q 2753 -38 2606 -38 
Q 2419 -38 2283 107 
Q 2147 253 2131 453 
Q 2013 213 1781 70 
Q 1550 -72 1288 -72 
Q 1044 -72 808 0 
Q 572 72 414 226 
Q 256 381 256 628 
z
M 775 628 
Q 775 403 940 250 
Q 1106 97 1331 97 
Q 1538 97 1706 200 
Q 1875 303 1975 481 
Q 2075 659 2075 856 
L 2075 1522 
Q 1784 1522 1479 1426 
Q 1175 1331 975 1128 
Q 775 925 775 628 
z
" transform="scale(0.015625)"/>
       <path id="Cmr10-6e" d="M 191 0 
L 191 225 
Q 409 225 550 259 
Q 691 294 691 428 
L 691 2175 
Q 691 2347 639 2423 
Q 588 2500 491 2517 
Q 394 2534 191 2534 
L 191 2759 
L 1119 2828 
L 1119 2203 
Q 1247 2478 1498 2653 
Q 1750 2828 2047 2828 
Q 2491 2828 2714 2615 
Q 2938 2403 2938 1966 
L 2938 428 
Q 2938 294 3078 259 
Q 3219 225 3438 225 
L 3438 0 
L 1972 0 
L 1972 225 
Q 2191 225 2331 259 
Q 2472 294 2472 428 
L 2472 1947 
Q 2472 2259 2381 2461 
Q 2291 2663 2009 2663 
Q 1638 2663 1398 2366 
Q 1159 2069 1159 1691 
L 1159 428 
Q 1159 294 1300 259 
Q 1441 225 1656 225 
L 1656 0 
L 191 0 
z
" transform="scale(0.015625)"/>
       <path id="Cmr10-75" d="M 691 763 
L 691 2175 
Q 691 2347 639 2423 
Q 588 2500 491 2517 
Q 394 2534 191 2534 
L 191 2759 
L 1159 2828 
L 1159 763 
Q 1159 513 1195 373 
Q 1231 234 1348 165 
Q 1466 97 1722 97 
Q 2066 97 2269 384 
Q 2472 672 2472 1038 
L 2472 2175 
Q 2472 2347 2419 2423 
Q 2366 2500 2270 2517 
Q 2175 2534 1972 2534 
L 1972 2759 
L 2938 2828 
L 2938 581 
Q 2938 413 2989 336 
Q 3041 259 3137 242 
Q 3234 225 3438 225 
L 3438 0 
L 2491 -72 
L 2491 469 
Q 2372 228 2159 78 
Q 1947 -72 1691 -72 
Q 1231 -72 961 123 
Q 691 319 691 763 
z
" transform="scale(0.015625)"/>
       <path id="Cmr10-6c" d="M 197 0 
L 197 225 
Q 416 225 556 259 
Q 697 294 697 428 
L 697 3788 
Q 697 3959 645 4036 
Q 594 4113 497 4130 
Q 400 4147 197 4147 
L 197 4372 
L 1147 4441 
L 1147 428 
Q 1147 294 1287 259 
Q 1428 225 1644 225 
L 1644 0 
L 197 0 
z
" transform="scale(0.015625)"/>
       <path id="Cmr10-65" d="M 1594 -72 
Q 1203 -72 876 133 
Q 550 338 364 680 
Q 178 1022 178 1403 
Q 178 1778 348 2115 
Q 519 2453 823 2661 
Q 1128 2869 1503 2869 
Q 1797 2869 2014 2770 
Q 2231 2672 2372 2497 
Q 2513 2322 2584 2084 
Q 2656 1847 2656 1563 
Q 2656 1478 2591 1478 
L 738 1478 
L 738 1409 
Q 738 878 952 497 
Q 1166 116 1650 116 
Q 1847 116 2014 203 
Q 2181 291 2304 447 
Q 2428 603 2472 781 
Q 2478 803 2495 820 
Q 2513 838 2534 838 
L 2591 838 
Q 2656 838 2656 756 
Q 2566 394 2266 161 
Q 1966 -72 1594 -72 
z
M 744 1638 
L 2203 1638 
Q 2203 1878 2136 2125 
Q 2069 2372 1912 2536 
Q 1756 2700 1503 2700 
Q 1141 2700 942 2361 
Q 744 2022 744 1638 
z
" transform="scale(0.015625)"/>
       <path id="Cmr10-20" transform="scale(0.015625)"/>
       <path id="Cmr10-62" d="M 666 0 
L 666 3788 
Q 666 3959 614 4036 
Q 563 4113 466 4130 
Q 369 4147 166 4147 
L 166 4372 
L 1113 4441 
L 1113 2438 
Q 1219 2556 1361 2645 
Q 1503 2734 1665 2781 
Q 1828 2828 1997 2828 
Q 2284 2828 2529 2712 
Q 2775 2597 2956 2394 
Q 3138 2191 3239 1927 
Q 3341 1663 3341 1381 
Q 3341 994 3152 659 
Q 2963 325 2636 126 
Q 2309 -72 1919 -72 
Q 1675 -72 1447 53 
Q 1219 178 1069 384 
L 850 0 
L 666 0 
z
M 1131 628 
Q 1238 394 1438 245 
Q 1638 97 1881 97 
Q 2213 97 2417 287 
Q 2622 478 2703 768 
Q 2784 1059 2784 1381 
Q 2784 1922 2644 2203 
Q 2581 2328 2473 2434 
Q 2366 2541 2233 2602 
Q 2100 2663 1953 2663 
Q 1697 2663 1478 2527 
Q 1259 2391 1131 2163 
L 1131 628 
z
" transform="scale(0.015625)"/>
       <path id="Cmr10-73" d="M 213 -19 
L 213 1025 
Q 213 1075 269 1075 
L 347 1075 
Q 384 1075 397 1025 
Q 575 97 1259 97 
Q 1563 97 1767 234 
Q 1972 372 1972 659 
Q 1972 866 1812 1011 
Q 1653 1156 1434 1209 
L 1006 1294 
Q 791 1341 614 1437 
Q 438 1534 325 1695 
Q 213 1856 213 2069 
Q 213 2350 361 2529 
Q 509 2709 746 2789 
Q 984 2869 1259 2869 
Q 1588 2869 1831 2694 
L 2016 2853 
Q 2016 2869 2047 2869 
L 2094 2869 
Q 2113 2869 2128 2851 
Q 2144 2834 2144 2816 
L 2144 1978 
Q 2144 1919 2094 1919 
L 2016 1919 
Q 1959 1919 1959 1978 
Q 1959 2313 1773 2516 
Q 1588 2719 1253 2719 
Q 966 2719 755 2612 
Q 544 2506 544 2247 
Q 544 2069 695 1955 
Q 847 1841 1050 1791 
L 1484 1709 
Q 1703 1659 1892 1540 
Q 2081 1422 2192 1240 
Q 2303 1059 2303 831 
Q 2303 600 2223 429 
Q 2144 259 2001 146 
Q 1859 34 1665 -19 
Q 1472 -72 1259 -72 
Q 859 -72 575 197 
L 341 -56 
Q 341 -72 306 -72 
L 269 -72 
Q 213 -72 213 -19 
z
" transform="scale(0.015625)"/>
       <path id="Cmr10-69" d="M 197 0 
L 197 225 
Q 416 225 556 259 
Q 697 294 697 428 
L 697 2175 
Q 697 2422 601 2478 
Q 506 2534 225 2534 
L 225 2759 
L 1147 2828 
L 1147 428 
Q 1147 294 1269 259 
Q 1391 225 1594 225 
L 1594 0 
L 197 0 
z
M 469 3928 
Q 469 4069 575 4175 
Q 681 4281 819 4281 
Q 909 4281 993 4234 
Q 1078 4188 1125 4103 
Q 1172 4019 1172 3928 
Q 1172 3791 1065 3684 
Q 959 3578 819 3578 
Q 681 3578 575 3684 
Q 469 3791 469 3928 
z
" transform="scale(0.015625)"/>
       <path id="Cmr10-7a" d="M 250 0 
Q 178 0 178 72 
L 178 122 
Q 178 147 197 166 
L 1984 2591 
L 1409 2591 
Q 1138 2591 961 2556 
Q 784 2522 670 2426 
Q 556 2331 504 2164 
Q 453 1997 453 1703 
L 269 1703 
L 341 2759 
L 2484 2759 
Q 2513 2759 2533 2739 
Q 2553 2719 2553 2688 
L 2553 2650 
Q 2553 2631 2541 2606 
L 750 184 
L 1363 184 
Q 1641 184 1827 218 
Q 2013 253 2144 384 
Q 2266 506 2311 712 
Q 2356 919 2381 1222 
L 2566 1222 
L 2456 0 
L 250 0 
z
" transform="scale(0.015625)"/>
       <path id="Cmr10-28" d="M 1984 -1588 
Q 1628 -1306 1370 -942 
Q 1113 -578 948 -165 
Q 784 247 703 697 
Q 622 1147 622 1600 
Q 622 2059 703 2509 
Q 784 2959 951 3375 
Q 1119 3791 1378 4153 
Q 1638 4516 1984 4788 
Q 1984 4800 2016 4800 
L 2075 4800 
Q 2094 4800 2109 4783 
Q 2125 4766 2125 4744 
Q 2125 4716 2113 4703 
Q 1800 4397 1592 4047 
Q 1384 3697 1257 3301 
Q 1131 2906 1075 2482 
Q 1019 2059 1019 1600 
Q 1019 -434 2106 -1491 
Q 2125 -1509 2125 -1544 
Q 2125 -1559 2108 -1579 
Q 2091 -1600 2075 -1600 
L 2016 -1600 
Q 1984 -1600 1984 -1588 
z
" transform="scale(0.015625)"/>
       <path id="Cmr10-25" d="M 891 -231 
Q 891 -194 909 -166 
L 3809 4153 
Q 3425 3938 2963 3938 
Q 2463 3938 2003 4197 
Q 2131 3891 2131 3513 
Q 2131 3306 2082 3086 
Q 2034 2866 1934 2670 
Q 1834 2475 1676 2348 
Q 1519 2222 1306 2222 
Q 1006 2222 790 2422 
Q 575 2622 467 2922 
Q 359 3222 359 3513 
Q 359 3797 467 4098 
Q 575 4400 790 4600 
Q 1006 4800 1306 4800 
Q 1544 4800 1741 4609 
Q 2256 4103 2963 4103 
Q 3341 4103 3669 4270 
Q 3997 4438 4206 4750 
Q 4238 4800 4306 4800 
Q 4363 4800 4398 4765 
Q 4434 4731 4434 4672 
Q 4434 4638 4416 4609 
L 1113 -319 
Q 1084 -359 1019 -359 
Q 966 -359 928 -318 
Q 891 -278 891 -231 
z
M 1306 2388 
Q 1622 2388 1784 2764 
Q 1947 3141 1947 3513 
Q 1947 3722 1880 3989 
Q 1813 4256 1669 4445 
Q 1525 4634 1306 4634 
Q 988 4634 884 4279 
Q 781 3925 781 3506 
Q 781 3103 887 2745 
Q 994 2388 1306 2388 
z
M 4141 -359 
Q 3841 -359 3625 -159 
Q 3409 41 3301 342 
Q 3194 644 3194 934 
Q 3194 1219 3301 1520 
Q 3409 1822 3625 2022 
Q 3841 2222 4141 2222 
Q 4419 2222 4606 2011 
Q 4794 1800 4880 1503 
Q 4966 1206 4966 934 
Q 4966 728 4917 509 
Q 4869 291 4770 92 
Q 4672 -106 4514 -232 
Q 4356 -359 4141 -359 
z
M 4141 -191 
Q 4356 -191 4503 1 
Q 4650 194 4715 459 
Q 4781 725 4781 934 
Q 4781 1303 4618 1678 
Q 4456 2053 4141 2053 
Q 3822 2053 3719 1698 
Q 3616 1344 3616 928 
Q 3616 522 3722 165 
Q 3828 -191 4141 -191 
z
" transform="scale(0.015625)"/>
       <path id="Cmr10-29" d="M 416 -1600 
Q 359 -1600 359 -1544 
Q 359 -1516 372 -1503 
Q 1466 -434 1466 1600 
Q 1466 3634 384 4691 
Q 359 4706 359 4744 
Q 359 4766 376 4783 
Q 394 4800 416 4800 
L 475 4800 
Q 494 4800 506 4788 
Q 966 4425 1272 3906 
Q 1578 3388 1720 2800 
Q 1863 2213 1863 1600 
Q 1863 1147 1786 708 
Q 1709 269 1542 -157 
Q 1375 -584 1119 -945 
Q 863 -1306 506 -1588 
Q 494 -1600 475 -1600 
L 416 -1600 
z
" transform="scale(0.015625)"/>
      </defs>
      <use xlink:href="#Cmr10-47"/>
      <use xlink:href="#Cmr10-72" x="78.417969"/>
      <use xlink:href="#Cmr10-61" x="117.529297"/>
      <use xlink:href="#Cmr10-6e" x="167.529297"/>
      <use xlink:href="#Cmr10-75" x="223.046875"/>
      <use xlink:href="#Cmr10-6c" x="278.564453"/>
      <use xlink:href="#Cmr10-65" x="306.25"/>
      <use xlink:href="#Cmr10-20" x="350.634766"/>
      <use xlink:href="#Cmr10-6c" x="383.935547"/>
      <use xlink:href="#Cmr10-61" x="411.621094"/>
      <use xlink:href="#Cmr10-62" x="461.621094"/>
      <use xlink:href="#Cmr10-65" x="517.138672"/>
      <use xlink:href="#Cmr10-6c" x="561.523438"/>
      <use xlink:href="#Cmr10-20" x="589.208984"/>
      <use xlink:href="#Cmr10-73" x="622.509766"/>
      <use xlink:href="#Cmr10-69" x="661.914062"/>
      <use xlink:href="#Cmr10-7a" x="689.599609"/>
      <use xlink:href="#Cmr10-65" x="733.984375"/>
      <use xlink:href="#Cmr10-20" x="778.369141"/>
      <use xlink:href="#Cmr10-28" x="811.669922"/>
      <use xlink:href="#Cmr10-25" x="850.488281"/>
      <use xlink:href="#Cmr10-29" x="933.789062"/>
     </g>
    </g>
   </g>
   <g id="matplotlib.axis_2">
    <g id="ytick_1">
     <g id="line2d_9">
      <defs>
       <path id="m4f39b95af4" d="M 0 0 
L -3.5 0 
" style="stroke: #000000; stroke-width: 0.8"/>
      </defs>
      <g>
       <use xlink:href="#m4f39b95af4" x="102.083365" y="368.916635" style="stroke: #000000; stroke-width: 0.8"/>
      </g>
     </g>
     <g id="text_10">
      <!-- 0 -->
      <g transform="translate(82.083365 377.937416) scale(0.26 -0.26)">
       <use xlink:href="#Cmr10-30"/>
      </g>
     </g>
    </g>
    <g id="ytick_2">
     <g id="line2d_10">
      <g>
       <use xlink:href="#m4f39b95af4" x="102.083365" y="249.952252" style="stroke: #000000; stroke-width: 0.8"/>
      </g>
     </g>
     <g id="text_11">
      <!-- 10000 -->
      <g transform="translate(30.083365 258.973034) scale(0.26 -0.26)">
       <use xlink:href="#Cmr10-31"/>
       <use xlink:href="#Cmr10-30" x="50"/>
       <use xlink:href="#Cmr10-30" x="100"/>
       <use xlink:href="#Cmr10-30" x="150"/>
       <use xlink:href="#Cmr10-30" x="200"/>
      </g>
     </g>
    </g>
    <g id="ytick_3">
     <g id="line2d_11">
      <g>
       <use xlink:href="#m4f39b95af4" x="102.083365" y="130.98787" style="stroke: #000000; stroke-width: 0.8"/>
      </g>
     </g>
     <g id="text_12">
      <!-- 20000 -->
      <g transform="translate(30.083365 140.008651) scale(0.26 -0.26)">
       <use xlink:href="#Cmr10-32"/>
       <use xlink:href="#Cmr10-30" x="50"/>
       <use xlink:href="#Cmr10-30" x="100"/>
       <use xlink:href="#Cmr10-30" x="150"/>
       <use xlink:href="#Cmr10-30" x="200"/>
      </g>
     </g>
    </g>
    <g id="ytick_4">
     <g id="line2d_12">
      <g>
       <use xlink:href="#m4f39b95af4" x="102.083365" y="12.023487" style="stroke: #000000; stroke-width: 0.8"/>
      </g>
     </g>
     <g id="text_13">
      <!-- 30000 -->
      <g transform="translate(30.083365 21.044268) scale(0.26 -0.26)">
       <use xlink:href="#Cmr10-33"/>
       <use xlink:href="#Cmr10-30" x="50"/>
       <use xlink:href="#Cmr10-30" x="100"/>
       <use xlink:href="#Cmr10-30" x="150"/>
       <use xlink:href="#Cmr10-30" x="200"/>
      </g>
     </g>
    </g>
    <g id="text_14">
     <!-- Count -->
     <g transform="translate(21.041803 224.12956) rotate(-90) scale(0.26 -0.26)">
      <defs>
       <path id="Cmr10-43" d="M 1459 684 
Q 1678 406 2006 245 
Q 2334 84 2688 84 
Q 2984 84 3237 201 
Q 3491 319 3680 528 
Q 3869 738 3970 1003 
Q 4072 1269 4072 1563 
Q 4072 1613 4128 1613 
L 4206 1613 
Q 4256 1613 4256 1550 
Q 4256 1216 4128 905 
Q 4000 594 3765 358 
Q 3531 122 3226 -9 
Q 2922 -141 2591 -141 
Q 2131 -141 1720 45 
Q 1309 231 1004 554 
Q 700 878 529 1303 
Q 359 1728 359 2188 
Q 359 2647 529 3072 
Q 700 3497 1004 3822 
Q 1309 4147 1720 4330 
Q 2131 4513 2591 4513 
Q 2919 4513 3219 4370 
Q 3519 4228 3744 3969 
L 4116 4494 
Q 4153 4513 4159 4513 
L 4206 4513 
Q 4225 4513 4240 4497 
Q 4256 4481 4256 4459 
L 4256 2731 
Q 4256 2675 4206 2675 
L 4091 2675 
Q 4031 2675 4031 2731 
Q 4031 2916 3957 3144 
Q 3884 3372 3770 3576 
Q 3656 3781 3506 3938 
Q 3147 4288 2681 4288 
Q 2328 4288 2004 4128 
Q 1681 3969 1459 3688 
Q 1225 3388 1134 3005 
Q 1044 2622 1044 2188 
Q 1044 1753 1134 1368 
Q 1225 984 1459 684 
z
" transform="scale(0.015625)"/>
       <path id="Cmr10-6f" d="M 1600 -72 
Q 1216 -72 887 123 
Q 559 319 368 647 
Q 178 975 178 1363 
Q 178 1656 283 1928 
Q 388 2200 583 2414 
Q 778 2628 1037 2748 
Q 1297 2869 1600 2869 
Q 1994 2869 2317 2661 
Q 2641 2453 2828 2104 
Q 3016 1756 3016 1363 
Q 3016 978 2825 648 
Q 2634 319 2307 123 
Q 1981 -72 1600 -72 
z
M 1600 116 
Q 2113 116 2284 487 
Q 2456 859 2456 1434 
Q 2456 1756 2422 1967 
Q 2388 2178 2272 2350 
Q 2200 2456 2089 2536 
Q 1978 2616 1854 2658 
Q 1731 2700 1600 2700 
Q 1400 2700 1220 2609 
Q 1041 2519 922 2350 
Q 803 2169 770 1951 
Q 738 1734 738 1434 
Q 738 1075 800 789 
Q 863 503 1052 309 
Q 1241 116 1600 116 
z
" transform="scale(0.015625)"/>
       <path id="Cmr10-74" d="M 653 769 
L 653 2534 
L 122 2534 
L 122 2700 
Q 541 2700 737 3090 
Q 934 3481 934 3938 
L 1119 3938 
L 1119 2759 
L 2022 2759 
L 2022 2534 
L 1119 2534 
L 1119 781 
Q 1119 516 1208 316 
Q 1297 116 1528 116 
Q 1747 116 1844 327 
Q 1941 538 1941 781 
L 1941 1159 
L 2125 1159 
L 2125 769 
Q 2125 569 2051 373 
Q 1978 178 1834 53 
Q 1691 -72 1484 -72 
Q 1100 -72 876 158 
Q 653 388 653 769 
z
" transform="scale(0.015625)"/>
      </defs>
      <use xlink:href="#Cmr10-43"/>
      <use xlink:href="#Cmr10-6f" x="72.216797"/>
      <use xlink:href="#Cmr10-75" x="122.216797"/>
      <use xlink:href="#Cmr10-6e" x="177.734375"/>
      <use xlink:href="#Cmr10-74" x="233.251953"/>
     </g>
    </g>
   </g>
   <g id="patch_53">
    <path d="M 102.083365 368.916635 
L 102.083365 8.606235 
" style="fill: none; stroke: #000000; stroke-width: 0.8; stroke-linejoin: miter; stroke-linecap: square"/>
   </g>
   <g id="patch_54">
    <path d="M 860.99976 368.916635 
L 860.99976 8.606235 
" style="fill: none; stroke: #000000; stroke-width: 0.8; stroke-linejoin: miter; stroke-linecap: square"/>
   </g>
   <g id="patch_55">
    <path d="M 102.083365 368.916635 
L 860.99976 368.916635 
" style="fill: none; stroke: #000000; stroke-width: 0.8; stroke-linejoin: miter; stroke-linecap: square"/>
   </g>
   <g id="patch_56">
    <path d="M 102.083365 8.606235 
L 860.99976 8.606235 
" style="fill: none; stroke: #000000; stroke-width: 0.8; stroke-linejoin: miter; stroke-linecap: square"/>
   </g>
  </g>
 </g>
 <defs>
  <clipPath id="peefe99a72d">
   <rect x="102.083365" y="8.606235" width="758.916395" height="360.3104"/>
  </clipPath>
 </defs>
</svg>
